<?xml version="1.0" encoding="UTF-8" standalone="no"?>
<!DOCTYPE svg PUBLIC "-//W3C//DTD SVG 1.1//EN"
 "http://www.w3.org/Graphics/SVG/1.1/DTD/svg11.dtd">
<!-- Generated by graphviz version 2.40.1 (0)
 -->
<!-- Title: MoneyFlow Pages: 1 -->
<svg width="1066pt" height="1999pt"
 viewBox="0.00 0.00 1066.00 1999.00" xmlns="http://www.w3.org/2000/svg" xmlns:xlink="http://www.w3.org/1999/xlink">
<g id="graph0" class="graph" transform="scale(1 1) rotate(0) translate(4 1995)">
<title>MoneyFlow</title>
<polygon fill="#ffffff" stroke="transparent" points="-4,4 -4,-1995 1062,-1995 1062,4 -4,4"/>
<!-- 収入 -->
<g id="node1" class="node">
<title>収入</title>
<text text-anchor="middle" x="27" y="-14.3" font-family="Times,serif" font-size="14.00" fill="#000000">収入</text>
</g>
<!-- 銀行口座 -->
<g id="node2" class="node">
<title>銀行口座</title>
<text text-anchor="middle" x="142" y="-14.3" font-family="Times,serif" font-size="14.00" fill="#000000">銀行口座</text>
</g>
<!-- 収入&#45;&gt;銀行口座 -->
<g id="edge1" class="edge">
<title>収入&#45;&gt;銀行口座</title>
<path fill="none" stroke="#000000" d="M54.2534,-18C69.3972,-18 88.4539,-18 104.9357,-18"/>
</g>
<!-- クレジットカード -->
<g id="node3" class="node">
<title>クレジットカード</title>
<text text-anchor="middle" x="322" y="-14.3" font-family="Times,serif" font-size="14.00" fill="#000000">クレジットカード</text>
</g>
<!-- 銀行口座&#45;&gt;クレジットカード -->
<g id="edge2" class="edge">
<title>銀行口座&#45;&gt;クレジットカード</title>
<path fill="none" stroke="#000000" d="M179.2961,-18C201.6417,-18 230.6798,-18 256.7236,-18"/>
</g>
<!-- マネー -->
<g id="node4" class="node">
<title>マネー</title>
<text text-anchor="middle" x="485" y="-14.3" font-family="Times,serif" font-size="14.00" fill="#000000">マネー</text>
</g>
<!-- クレジットカード&#45;&gt;マネー -->
<g id="edge3" class="edge">
<title>クレジットカード&#45;&gt;マネー</title>
<path fill="none" stroke="#000000" d="M387.3591,-18C410.9188,-18 436.353,-18 455.3549,-18"/>
</g>
<!-- ポイント -->
<g id="node5" class="node">
<title>ポイント</title>
<text text-anchor="middle" x="686" y="-14.3" font-family="Times,serif" font-size="14.00" fill="#000000">ポイント</text>
</g>
<!-- マネー&#45;&gt;ポイント -->
<g id="edge4" class="edge">
<title>マネー&#45;&gt;ポイント</title>
<path fill="none" stroke="#000000" d="M514.6582,-18C550.2582,-18 609.9876,-18 648.6865,-18"/>
</g>
<!-- 金券 -->
<g id="node6" class="node">
<title>金券</title>
<text text-anchor="middle" x="861" y="-14.3" font-family="Times,serif" font-size="14.00" fill="#000000">金券</text>
</g>
<!-- ポイント&#45;&gt;金券 -->
<g id="edge5" class="edge">
<title>ポイント&#45;&gt;金券</title>
<path fill="none" stroke="#000000" d="M723.113,-18C756.3227,-18 804.2221,-18 833.9381,-18"/>
</g>
<!-- 支出 -->
<g id="node7" class="node">
<title>支出</title>
<text text-anchor="middle" x="1000" y="-14.3" font-family="Times,serif" font-size="14.00" fill="#000000">支出</text>
</g>
<!-- 金券&#45;&gt;支出 -->
<g id="edge6" class="edge">
<title>金券&#45;&gt;支出</title>
<path fill="none" stroke="#000000" d="M888.1306,-18C912.6227,-18 948.4669,-18 972.9379,-18"/>
</g>
<!-- 給与 -->
<g id="node8" class="node">
<title>給与</title>
<polygon fill="none" stroke="#000000" points="54,-1773 0,-1773 0,-1737 54,-1737 54,-1773"/>
<text text-anchor="middle" x="27" y="-1751.3" font-family="Times,serif" font-size="14.00" fill="#000000">給与</text>
</g>
<!-- 三井住友銀行 -->
<g id="node9" class="node">
<title>三井住友銀行</title>
<polygon fill="none" stroke="#000000" points="193,-1773 91,-1773 91,-1737 193,-1737 193,-1773"/>
<text text-anchor="middle" x="142" y="-1751.3" font-family="Times,serif" font-size="14.00" fill="#000000">三井住友銀行</text>
</g>
<!-- 給与&#45;&gt;三井住友銀行 -->
<g id="edge7" class="edge">
<title>給与&#45;&gt;三井住友銀行</title>
<path fill="none" stroke="#000000" stroke-width="2" d="M54.2534,-1755C62.2529,-1755 71.3442,-1755 80.571,-1755"/>
<polygon fill="#000000" stroke="#000000" stroke-width="2" points="80.5912,-1758.5001 90.5911,-1755 80.5911,-1751.5001 80.5912,-1758.5001"/>
</g>
<!-- 住信SBI銀行 -->
<g id="node10" class="node">
<title>住信SBI銀行</title>
<polygon fill="none" stroke="#000000" points="192,-1699 92,-1699 92,-1663 192,-1663 192,-1699"/>
<text text-anchor="middle" x="142" y="-1677.3" font-family="Times,serif" font-size="14.00" fill="#000000">住信SBI銀行</text>
</g>
<!-- 三井住友銀行&#45;&gt;住信SBI銀行 -->
<g id="edge9" class="edge">
<title>三井住友銀行&#45;&gt;住信SBI銀行</title>
<path fill="none" stroke="#000000" stroke-width="2" d="M142,-1736.6942C142,-1727.6162 142,-1718.5383 142,-1709.4603"/>
<polygon fill="#000000" stroke="#000000" stroke-width="2" points="145.5001,-1709.2109 142,-1699.2109 138.5001,-1709.211 145.5001,-1709.2109"/>
</g>
<!-- 現金 -->
<g id="node15" class="node">
<title>現金</title>
<polygon fill="none" stroke="#000000" points="512,-1714 458,-1714 458,-1678 512,-1678 512,-1714"/>
<text text-anchor="middle" x="485" y="-1692.3" font-family="Times,serif" font-size="14.00" fill="#000000">現金</text>
</g>
<!-- 三井住友銀行&#45;&gt;現金 -->
<g id="edge8" class="edge">
<title>三井住友銀行&#45;&gt;現金</title>
<path fill="none" stroke="#000000" stroke-width="2" d="M193.1153,-1744.1634C205.1909,-1741.7091 218.0344,-1739.1847 230,-1737 271.0916,-1729.4975 387.4382,-1711.1988 447.7354,-1701.7925"/>
<polygon fill="#000000" stroke="#000000" stroke-width="2" points="448.6201,-1705.1969 457.9618,-1700.1986 447.5421,-1698.2804 448.6201,-1705.1969"/>
</g>
<!-- PayPay -->
<g id="node18" class="node">
<title>PayPay</title>
<polygon fill="none" stroke="#000000" points="519,-1987 451,-1987 451,-1951 519,-1951 519,-1987"/>
<text text-anchor="middle" x="485" y="-1965.3" font-family="Times,serif" font-size="14.00" fill="#000000">PayPay</text>
</g>
<!-- 三井住友銀行&#45;&gt;PayPay -->
<g id="edge10" class="edge">
<title>三井住友銀行&#45;&gt;PayPay</title>
<path fill="none" stroke="#000000" stroke-width="2" d="M150.0422,-1773.3252C162.9988,-1800.8007 191.0409,-1852.5783 230,-1882 293.9988,-1930.3316 386.6505,-1952.9477 440.8701,-1962.6147"/>
<polygon fill="#000000" stroke="#000000" stroke-width="2" points="440.4089,-1966.0866 450.8564,-1964.3258 441.5912,-1959.1872 440.4089,-1966.0866"/>
</g>
<!-- ビックカメラSuicaカード -->
<g id="node11" class="node">
<title>ビックカメラSuicaカード</title>
<polygon fill="none" stroke="#000000" points="414,-1782 230,-1782 230,-1746 414,-1746 414,-1782"/>
<text text-anchor="middle" x="322" y="-1760.3" font-family="Times,serif" font-size="14.00" fill="#000000">ビックカメラSuicaカード</text>
</g>
<!-- 住信SBI銀行&#45;&gt;ビックカメラSuicaカード -->
<g id="edge27" class="edge">
<title>住信SBI銀行&#45;&gt;ビックカメラSuicaカード</title>
<path fill="none" stroke="#000000" stroke-width="2" d="M181.0573,-1699.0098C208.2076,-1711.5291 244.5804,-1728.301 273.575,-1741.6707"/>
<polygon fill="#000000" stroke="#000000" stroke-width="2" points="272.1618,-1744.8732 282.7085,-1745.8823 275.093,-1738.5164 272.1618,-1744.8732"/>
</g>
<!-- リクルートカード -->
<g id="node12" class="node">
<title>リクルートカード</title>
<polygon fill="none" stroke="#000000" points="386.5,-645 257.5,-645 257.5,-609 386.5,-609 386.5,-645"/>
<text text-anchor="middle" x="322" y="-623.3" font-family="Times,serif" font-size="14.00" fill="#000000">リクルートカード</text>
</g>
<!-- 住信SBI銀行&#45;&gt;リクルートカード -->
<g id="edge28" class="edge">
<title>住信SBI銀行&#45;&gt;リクルートカード</title>
<path fill="none" stroke="#000000" stroke-width="2" d="M145.1242,-1662.7059C166.483,-1537.6384 290.9064,-809.0701 317.1437,-655.4364"/>
<polygon fill="#000000" stroke="#000000" stroke-width="2" points="320.6269,-655.8311 318.8603,-645.3846 313.7268,-654.6527 320.6269,-655.8311"/>
</g>
<!-- PiTaPa -->
<g id="node13" class="node">
<title>PiTaPa</title>
<polygon fill="none" stroke="#000000" points="354.5,-1652 289.5,-1652 289.5,-1616 354.5,-1616 354.5,-1652"/>
<text text-anchor="middle" x="322" y="-1630.3" font-family="Times,serif" font-size="14.00" fill="#000000">PiTaPa</text>
</g>
<!-- 住信SBI銀行&#45;&gt;PiTaPa -->
<g id="edge29" class="edge">
<title>住信SBI銀行&#45;&gt;PiTaPa</title>
<path fill="none" stroke="#000000" stroke-width="2" d="M192.14,-1667.9079C219.5984,-1660.7382 253.2601,-1651.9488 279.4307,-1645.1153"/>
<polygon fill="#000000" stroke="#000000" stroke-width="2" points="280.6332,-1648.4188 289.4245,-1642.5058 278.8647,-1641.6458 280.6332,-1648.4188"/>
</g>
<!-- 住信SBI銀行&#45;&gt;現金 -->
<g id="edge25" class="edge">
<title>住信SBI銀行&#45;&gt;現金</title>
<path fill="none" stroke="#000000" stroke-width="2" d="M192.2425,-1683.1972C261.7234,-1686.2357 385.5691,-1691.6517 447.529,-1694.3613"/>
<polygon fill="#000000" stroke="#000000" stroke-width="2" points="447.4951,-1697.8631 457.6385,-1694.8034 447.801,-1690.8698 447.4951,-1697.8631"/>
</g>
<!-- 家賃 -->
<g id="node30" class="node">
<title>家賃</title>
<polygon fill="none" stroke="#000000" points="1027,-1926 973,-1926 973,-1890 1027,-1890 1027,-1926"/>
<text text-anchor="middle" x="1000" y="-1904.3" font-family="Times,serif" font-size="14.00" fill="#000000">家賃</text>
</g>
<!-- 住信SBI銀行&#45;&gt;家賃 -->
<g id="edge26" class="edge">
<title>住信SBI銀行&#45;&gt;家賃</title>
<path fill="none" stroke="#000000" stroke-width="2" d="M164.4758,-1699.1408C173.9081,-1707.378 184.6105,-1717.596 193,-1728 213.383,-1753.2775 205.0062,-1770.27 230,-1791 289.1629,-1840.07 478.6358,-1908 555.5,-1908 555.5,-1908 555.5,-1908 861,-1908 895.4512,-1908 934.7054,-1908 962.6918,-1908"/>
<polygon fill="#000000" stroke="#000000" stroke-width="2" points="962.8327,-1911.5001 972.8326,-1908 962.8326,-1904.5001 962.8327,-1911.5001"/>
</g>
<!-- Suica -->
<g id="node14" class="node">
<title>Suica</title>
<polygon fill="none" stroke="#000000" points="513,-1522 457,-1522 457,-1486 513,-1486 513,-1522"/>
<text text-anchor="middle" x="485" y="-1500.3" font-family="Times,serif" font-size="14.00" fill="#000000">Suica</text>
</g>
<!-- ビックカメラSuicaカード&#45;&gt;Suica -->
<g id="edge17" class="edge">
<title>ビックカメラSuicaカード&#45;&gt;Suica</title>
<path fill="none" stroke="#000000" stroke-width="2" d="M342.8418,-1745.9055C363.6652,-1726.7652 395.2087,-1694.7197 414,-1661 442.204,-1610.39 420.6306,-1585.3411 451,-1536 452.3384,-1533.8255 453.8622,-1531.7016 455.5055,-1529.6489"/>
<polygon fill="#000000" stroke="#000000" stroke-width="2" points="458.1931,-1531.895 462.2967,-1522.1271 452.9974,-1527.204 458.1931,-1531.895"/>
</g>
<!-- JREポイント -->
<g id="node22" class="node">
<title>JREポイント</title>
<polygon fill="none" stroke="#000000" points="736.5,-1532 635.5,-1532 635.5,-1496 736.5,-1496 736.5,-1532"/>
<text text-anchor="middle" x="686" y="-1510.3" font-family="Times,serif" font-size="14.00" fill="#000000">JREポイント</text>
</g>
<!-- ビックカメラSuicaカード&#45;&gt;JREポイント -->
<g id="edge12" class="edge">
<title>ビックカメラSuicaカード&#45;&gt;JREポイント</title>
<path fill="none" stroke="#000000" d="M341.26,-1745.7654C365.761,-1723.0042 409.8475,-1683.4834 451,-1654 514.8304,-1608.2692 594.239,-1563.2096 642.4757,-1537.031"/>
<polygon fill="#000000" stroke="#000000" points="644.2662,-1540.0418 651.4011,-1532.2095 640.9393,-1533.8829 644.2662,-1540.0418"/>
<text text-anchor="middle" x="485" y="-1657.8" font-family="Times,serif" font-size="14.00" fill="#000000">0.5%</text>
</g>
<!-- ビックポイント -->
<g id="node23" class="node">
<title>ビックポイント</title>
<polygon fill="none" stroke="#000000" points="744,-1880 628,-1880 628,-1844 744,-1844 744,-1880"/>
<text text-anchor="middle" x="686" y="-1858.3" font-family="Times,serif" font-size="14.00" fill="#000000">ビックポイント</text>
</g>
<!-- ビックカメラSuicaカード&#45;&gt;ビックポイント -->
<g id="edge15" class="edge">
<title>ビックカメラSuicaカード&#45;&gt;ビックポイント</title>
<path fill="none" stroke="#000000" d="M385.3525,-1782.0499C400.6138,-1786.3438 416.878,-1790.8751 432,-1795 494.9034,-1812.1587 566.7675,-1831.0488 617.9647,-1844.3847"/>
<polygon fill="#000000" stroke="#000000" points="617.3606,-1847.844 627.9198,-1846.9757 619.1238,-1841.0697 617.3606,-1847.844"/>
<text text-anchor="middle" x="485" y="-1821.8" font-family="Times,serif" font-size="14.00" fill="#000000">0.5%</text>
</g>
<!-- ビックカメラ -->
<g id="node42" class="node">
<title>ビックカメラ</title>
<polygon fill="none" stroke="#000000" points="1050.5,-1815 949.5,-1815 949.5,-1779 1050.5,-1779 1050.5,-1815"/>
<text text-anchor="middle" x="1000" y="-1793.3" font-family="Times,serif" font-size="14.00" fill="#000000">ビックカメラ</text>
</g>
<!-- ビックカメラSuicaカード&#45;&gt;ビックカメラ -->
<g id="edge13" class="edge">
<title>ビックカメラSuicaカード&#45;&gt;ビックカメラ</title>
<path fill="none" stroke="#000000" stroke-width="2" stroke-dasharray="5,2" d="M414.0628,-1776.9712C437.1731,-1779.2981 461.9538,-1781 485,-1781 485,-1781 485,-1781 861,-1781 886.7184,-1781 914.9389,-1783.7367 939.193,-1786.9464"/>
<polygon fill="#000000" stroke="#000000" stroke-width="2" points="938.9413,-1790.4448 949.3259,-1788.3444 939.8981,-1783.5105 938.9413,-1790.4448"/>
</g>
<!-- EX予約 -->
<g id="node51" class="node">
<title>EX予約</title>
<polygon fill="none" stroke="#000000" points="1033,-1761 967,-1761 967,-1725 1033,-1725 1033,-1761"/>
<text text-anchor="middle" x="1000" y="-1739.3" font-family="Times,serif" font-size="14.00" fill="#000000">EX予約</text>
</g>
<!-- ビックカメラSuicaカード&#45;&gt;EX予約 -->
<g id="edge22" class="edge">
<title>ビックカメラSuicaカード&#45;&gt;EX予約</title>
<path fill="none" stroke="#000000" stroke-width="2" stroke-dasharray="5,2" d="M414.3997,-1747.9236C437.3902,-1745.0765 462.0313,-1743 485,-1743 485,-1743 485,-1743 861,-1743 893.0974,-1743 929.3639,-1743 956.8028,-1743"/>
<polygon fill="#000000" stroke="#000000" stroke-width="2" points="956.8597,-1746.5001 966.8597,-1743 956.8597,-1739.5001 956.8597,-1746.5001"/>
</g>
<!-- nanaco -->
<g id="node16" class="node">
<title>nanaco</title>
<polygon fill="none" stroke="#000000" points="519,-569 451,-569 451,-533 519,-533 519,-569"/>
<text text-anchor="middle" x="485" y="-547.3" font-family="Times,serif" font-size="14.00" fill="#000000">nanaco</text>
</g>
<!-- リクルートカード&#45;&gt;nanaco -->
<g id="edge58" class="edge">
<title>リクルートカード&#45;&gt;nanaco</title>
<path fill="none" stroke="#000000" stroke-width="2" d="M360.6287,-608.9891C384.921,-597.6626 416.317,-583.024 441.4866,-571.2885"/>
<polygon fill="#000000" stroke="#000000" stroke-width="2" points="443.2162,-574.3438 450.8004,-566.9458 440.2581,-567.9996 443.2162,-574.3438"/>
</g>
<!-- Edy -->
<g id="node17" class="node">
<title>Edy</title>
<polygon fill="none" stroke="#000000" points="512,-940 458,-940 458,-904 512,-904 512,-940"/>
<text text-anchor="middle" x="485" y="-918.3" font-family="Times,serif" font-size="14.00" fill="#000000">Edy</text>
</g>
<!-- リクルートカード&#45;&gt;Edy -->
<g id="edge43" class="edge">
<title>リクルートカード&#45;&gt;Edy</title>
<path fill="none" stroke="#000000" stroke-width="2" d="M331.951,-645.0095C359.573,-695.0003 437.3133,-835.6959 470.1091,-895.0501"/>
<polygon fill="#000000" stroke="#000000" stroke-width="2" points="467.0723,-896.7913 474.9721,-903.8514 473.1993,-893.4059 467.0723,-896.7913"/>
</g>
<!-- Ponta -->
<g id="node19" class="node">
<title>Ponta</title>
<polygon fill="none" stroke="#000000" points="714.5,-415 657.5,-415 657.5,-379 714.5,-379 714.5,-415"/>
<text text-anchor="middle" x="686" y="-393.3" font-family="Times,serif" font-size="14.00" fill="#000000">Ponta</text>
</g>
<!-- リクルートカード&#45;&gt;Ponta -->
<g id="edge53" class="edge">
<title>リクルートカード&#45;&gt;Ponta</title>
<path fill="none" stroke="#000000" d="M339.3823,-608.9994C363.2814,-584.7577 408.2064,-540.9748 451,-509 509.6174,-465.2019 524.9238,-453.2414 592,-424 609.695,-416.286 630.212,-410.0985 647.5549,-405.6032"/>
<polygon fill="#000000" stroke="#000000" points="648.5016,-408.9743 657.3539,-403.1531 646.8036,-402.1833 648.5016,-408.9743"/>
<text text-anchor="middle" x="485" y="-512.8" font-family="Times,serif" font-size="14.00" fill="#000000">1.2%</text>
</g>
<!-- ASAHIネット -->
<g id="node34" class="node">
<title>ASAHIネット</title>
<polygon fill="none" stroke="#000000" points="1054.5,-307 945.5,-307 945.5,-271 1054.5,-271 1054.5,-307"/>
<text text-anchor="middle" x="1000" y="-285.3" font-family="Times,serif" font-size="14.00" fill="#000000">ASAHIネット</text>
</g>
<!-- リクルートカード&#45;&gt;ASAHIネット -->
<g id="edge30" class="edge">
<title>リクルートカード&#45;&gt;ASAHIネット</title>
<path fill="none" stroke="#000000" stroke-width="2" d="M327.8347,-608.7302C342.2201,-566.3287 383.2208,-460.1299 451,-398 586.4537,-273.8362 821.3429,-273.6295 934.864,-282.0018"/>
<polygon fill="#000000" stroke="#000000" stroke-width="2" points="934.8912,-285.5146 945.1343,-282.8075 935.4387,-278.536 934.8912,-285.5146"/>
</g>
<!-- 楽天モバイル -->
<g id="node35" class="node">
<title>楽天モバイル</title>
<polygon fill="none" stroke="#000000" points="1051,-791 949,-791 949,-755 1051,-755 1051,-791"/>
<text text-anchor="middle" x="1000" y="-769.3" font-family="Times,serif" font-size="14.00" fill="#000000">楽天モバイル</text>
</g>
<!-- リクルートカード&#45;&gt;楽天モバイル -->
<g id="edge39" class="edge">
<title>リクルートカード&#45;&gt;楽天モバイル</title>
<path fill="none" stroke="#000000" stroke-width="2" d="M353.1526,-645.0822C378.726,-659.2748 416.258,-678.6379 451,-691 620.6323,-751.3597 835.0796,-767.2922 938.5762,-771.4954"/>
<polygon fill="#000000" stroke="#000000" stroke-width="2" points="938.714,-775.0032 948.8406,-771.8883 938.9818,-768.0083 938.714,-775.0032"/>
</g>
<!-- 楽天でんき -->
<g id="node36" class="node">
<title>楽天でんき</title>
<polygon fill="none" stroke="#000000" points="1044,-737 956,-737 956,-701 1044,-701 1044,-737"/>
<text text-anchor="middle" x="1000" y="-715.3" font-family="Times,serif" font-size="14.00" fill="#000000">楽天でんき</text>
</g>
<!-- リクルートカード&#45;&gt;楽天でんき -->
<g id="edge37" class="edge">
<title>リクルートカード&#45;&gt;楽天でんき</title>
<path fill="none" stroke="#000000" stroke-width="2" d="M375.0474,-645.028C428.9628,-662.4717 515.2421,-687.983 592,-700 717.5446,-719.6548 867.2519,-721.1027 945.7736,-720.2026"/>
<polygon fill="#000000" stroke="#000000" stroke-width="2" points="945.9581,-723.7006 955.9109,-720.0686 945.8655,-716.7012 945.9581,-723.7006"/>
</g>
<!-- 関西電力 -->
<g id="node37" class="node">
<title>関西電力</title>
<polygon fill="none" stroke="#000000" points="1037,-1062 963,-1062 963,-1026 1037,-1026 1037,-1062"/>
<text text-anchor="middle" x="1000" y="-1040.3" font-family="Times,serif" font-size="14.00" fill="#000000">関西電力</text>
</g>
<!-- リクルートカード&#45;&gt;関西電力 -->
<g id="edge34" class="edge">
<title>リクルートカード&#45;&gt;関西電力</title>
<path fill="none" stroke="#000000" stroke-width="2" d="M324.6546,-645.0917C337.0651,-721.8572 397.2282,-1020.2568 592,-1098 677.6132,-1132.1725 708.009,-1125.7658 799,-1111 853.507,-1102.1547 913.2069,-1080.6434 953.2653,-1064.3628"/>
<polygon fill="#000000" stroke="#000000" stroke-width="2" points="954.846,-1067.497 962.7595,-1060.4524 952.1802,-1061.0245 954.846,-1067.497"/>
</g>
<!-- 楽天損保 -->
<g id="node39" class="node">
<title>楽天損保</title>
<polygon fill="none" stroke="#000000" points="1037,-253 963,-253 963,-217 1037,-217 1037,-253"/>
<text text-anchor="middle" x="1000" y="-231.3" font-family="Times,serif" font-size="14.00" fill="#000000">楽天損保</text>
</g>
<!-- リクルートカード&#45;&gt;楽天損保 -->
<g id="edge38" class="edge">
<title>リクルートカード&#45;&gt;楽天損保</title>
<path fill="none" stroke="#000000" stroke-width="2" d="M325.3986,-608.9717C340.361,-532.2705 403.2684,-237 485,-237 485,-237 485,-237 861,-237 891.4678,-237 925.6884,-236.5136 952.5512,-236.0206"/>
<polygon fill="#000000" stroke="#000000" stroke-width="2" points="952.9023,-239.5146 962.8339,-235.825 952.7691,-232.5159 952.9023,-239.5146"/>
</g>
<!-- アイハート -->
<g id="node40" class="node">
<title>アイハート</title>
<polygon fill="none" stroke="#000000" points="1043,-90 957,-90 957,-54 1043,-54 1043,-90"/>
<text text-anchor="middle" x="1000" y="-68.3" font-family="Times,serif" font-size="14.00" fill="#000000">アイハート</text>
</g>
<!-- リクルートカード&#45;&gt;アイハート -->
<g id="edge33" class="edge">
<title>リクルートカード&#45;&gt;アイハート</title>
<path fill="none" stroke="#000000" stroke-width="2" d="M323.2906,-608.8497C330.5758,-513.1991 370.3914,-72 485,-72 485,-72 485,-72 861,-72 889.2089,-72 920.638,-72 946.4649,-72"/>
<polygon fill="#000000" stroke="#000000" stroke-width="2" points="946.798,-75.5001 956.7979,-72 946.7979,-68.5001 946.798,-75.5001"/>
</g>
<!-- Amazon -->
<g id="node50" class="node">
<title>Amazon</title>
<polygon fill="none" stroke="#000000" points="1037,-659 963,-659 963,-623 1037,-623 1037,-659"/>
<text text-anchor="middle" x="1000" y="-637.3" font-family="Times,serif" font-size="14.00" fill="#000000">Amazon</text>
</g>
<!-- リクルートカード&#45;&gt;Amazon -->
<g id="edge31" class="edge">
<title>リクルートカード&#45;&gt;Amazon</title>
<path fill="none" stroke="#000000" stroke-width="2" d="M386.7024,-628.336C522.2901,-631.1358 833.4989,-637.5619 952.5181,-640.0195"/>
<polygon fill="#000000" stroke="#000000" stroke-width="2" points="952.6891,-643.5237 962.7592,-640.231 952.8336,-636.5252 952.6891,-643.5237"/>
</g>
<!-- じゃらん -->
<g id="node52" class="node">
<title>じゃらん</title>
<polygon fill="none" stroke="#000000" points="1037,-361 963,-361 963,-325 1037,-325 1037,-361"/>
<text text-anchor="middle" x="1000" y="-339.3" font-family="Times,serif" font-size="14.00" fill="#000000">じゃらん</text>
</g>
<!-- リクルートカード&#45;&gt;じゃらん -->
<g id="edge32" class="edge">
<title>リクルートカード&#45;&gt;じゃらん</title>
<path fill="none" stroke="#000000" stroke-width="2" d="M332.8004,-608.7662C352.9565,-575.8024 398.9982,-505.3295 451,-458 505.6306,-408.2779 521.6967,-392.6768 592,-370 717.1798,-329.6224 874.8848,-333.5492 952.4589,-338.7996"/>
<polygon fill="#000000" stroke="#000000" stroke-width="2" points="952.6369,-342.3212 962.8614,-339.5447 953.1371,-335.3391 952.6369,-342.3212"/>
</g>
<!-- 電車 -->
<g id="node32" class="node">
<title>電車</title>
<polygon fill="none" stroke="#000000" points="1027,-1486 973,-1486 973,-1450 1027,-1450 1027,-1486"/>
<text text-anchor="middle" x="1000" y="-1464.3" font-family="Times,serif" font-size="14.00" fill="#000000">電車</text>
</g>
<!-- PiTaPa&#45;&gt;電車 -->
<g id="edge67" class="edge">
<title>PiTaPa&#45;&gt;電車</title>
<path fill="none" stroke="#000000" stroke-width="2" d="M330.4095,-1615.9832C347.5265,-1581.6829 390.0254,-1507.6895 451,-1477 624.9919,-1389.4271 871.0051,-1435.9219 963.2095,-1458.2531"/>
<polygon fill="#000000" stroke="#000000" stroke-width="2" points="962.3708,-1461.651 972.9186,-1460.6543 964.0514,-1454.8558 962.3708,-1461.651"/>
</g>
<!-- バス -->
<g id="node33" class="node">
<title>バス</title>
<polygon fill="none" stroke="#000000" points="1027,-1667 973,-1667 973,-1631 1027,-1631 1027,-1667"/>
<text text-anchor="middle" x="1000" y="-1645.3" font-family="Times,serif" font-size="14.00" fill="#000000">バス</text>
</g>
<!-- PiTaPa&#45;&gt;バス -->
<g id="edge69" class="edge">
<title>PiTaPa&#45;&gt;バス</title>
<path fill="none" stroke="#000000" stroke-width="2" d="M354.7003,-1638.7873C387.5531,-1643.1772 439.673,-1649 485,-1649 485,-1649 485,-1649 861,-1649 895.4512,-1649 934.7054,-1649 962.6918,-1649"/>
<polygon fill="#000000" stroke="#000000" stroke-width="2" points="962.8327,-1652.5001 972.8326,-1649 962.8326,-1645.5001 962.8327,-1652.5001"/>
</g>
<!-- Suica&#45;&gt;JREポイント -->
<g id="edge23" class="edge">
<title>Suica&#45;&gt;JREポイント</title>
<path fill="none" stroke="#000000" d="M513.0608,-1502.723C520.8145,-1502.424 529.2318,-1502.1493 537,-1502 553.4414,-1501.6839 557.579,-1501.1228 574,-1502 590.6567,-1502.8898 608.6475,-1504.5188 625.2342,-1506.2957"/>
<polygon fill="#000000" stroke="#000000" points="625.0315,-1509.7946 635.3558,-1507.4159 625.8015,-1502.837 625.0315,-1509.7946"/>
<text text-anchor="middle" x="555.5" y="-1505.8" font-family="Times,serif" font-size="14.00" fill="#000000">1.5%</text>
</g>
<!-- Suica&#45;&gt;電車 -->
<g id="edge18" class="edge">
<title>Suica&#45;&gt;電車</title>
<path fill="none" stroke="#000000" stroke-width="2" d="M513.0489,-1498.6699C534.568,-1494.7932 565.0554,-1489.7592 592,-1487 727.871,-1473.0863 890.2517,-1469.3539 962.335,-1468.3586"/>
<polygon fill="#000000" stroke="#000000" stroke-width="2" points="962.7521,-1471.8537 972.7065,-1468.226 962.6625,-1464.8543 962.7521,-1471.8537"/>
</g>
<!-- 松屋 -->
<g id="node48" class="node">
<title>松屋</title>
<polygon fill="none" stroke="#000000" points="1027,-1578 973,-1578 973,-1542 1027,-1542 1027,-1578"/>
<text text-anchor="middle" x="1000" y="-1556.3" font-family="Times,serif" font-size="14.00" fill="#000000">松屋</text>
</g>
<!-- Suica&#45;&gt;松屋 -->
<g id="edge19" class="edge">
<title>Suica&#45;&gt;松屋</title>
<path fill="none" stroke="#000000" stroke-width="2" d="M513.013,-1522.0605C520.551,-1526.2315 528.874,-1530.2476 537,-1533 560.396,-1540.9246 567.4109,-1538.6449 592,-1541 727.9594,-1554.0221 890.2954,-1558.2045 962.3513,-1559.4774"/>
<polygon fill="#000000" stroke="#000000" stroke-width="2" points="962.6613,-1562.983 972.7186,-1559.6512 962.7788,-1555.9839 962.6613,-1562.983"/>
</g>
<!-- 吉野家 -->
<g id="node49" class="node">
<title>吉野家</title>
<polygon fill="none" stroke="#000000" points="1029.5,-1372 970.5,-1372 970.5,-1336 1029.5,-1336 1029.5,-1372"/>
<text text-anchor="middle" x="1000" y="-1350.3" font-family="Times,serif" font-size="14.00" fill="#000000">吉野家</text>
</g>
<!-- Suica&#45;&gt;吉野家 -->
<g id="edge20" class="edge">
<title>Suica&#45;&gt;吉野家</title>
<path fill="none" stroke="#000000" stroke-width="2" d="M513.2513,-1493.9323C520.9301,-1491.2749 529.2622,-1488.463 537,-1486 561.2585,-1478.2783 567.534,-1477.0366 592,-1470 727.1849,-1431.1197 887.7849,-1385.6782 960.6089,-1365.1133"/>
<polygon fill="#000000" stroke="#000000" stroke-width="2" points="961.6176,-1368.4654 970.2904,-1362.3799 959.7156,-1361.7288 961.6176,-1368.4654"/>
</g>
<!-- 株主優待券 -->
<g id="node29" class="node">
<title>株主優待券</title>
<polygon fill="none" stroke="#000000" points="905,-1714 817,-1714 817,-1678 905,-1678 905,-1714"/>
<text text-anchor="middle" x="861" y="-1692.3" font-family="Times,serif" font-size="14.00" fill="#000000">株主優待券</text>
</g>
<!-- 現金&#45;&gt;株主優待券 -->
<g id="edge72" class="edge">
<title>現金&#45;&gt;株主優待券</title>
<path fill="none" stroke="#000000" stroke-width="2" d="M512.041,-1692.2971C573.5645,-1688.6898 724.9875,-1688.2854 806.671,-1691.0837"/>
<polygon fill="#000000" stroke="#000000" stroke-width="2" points="806.6329,-1694.5846 816.7566,-1691.4603 806.8942,-1687.5895 806.6329,-1694.5846"/>
</g>
<!-- 飲食店 -->
<g id="node45" class="node">
<title>飲食店</title>
<polygon fill="none" stroke="#000000" points="1029.5,-1991 970.5,-1991 970.5,-1955 1029.5,-1955 1029.5,-1991"/>
<text text-anchor="middle" x="1000" y="-1969.3" font-family="Times,serif" font-size="14.00" fill="#000000">飲食店</text>
</g>
<!-- 現金&#45;&gt;飲食店 -->
<g id="edge71" class="edge">
<title>現金&#45;&gt;飲食店</title>
<path fill="none" stroke="#000000" stroke-width="2" d="M489.4949,-1714.0199C500.1409,-1752.7307 530.7215,-1843.9622 592,-1889 650.646,-1932.103 869.2934,-1959.3545 960.0848,-1969.0351"/>
<polygon fill="#000000" stroke="#000000" stroke-width="2" points="959.9392,-1972.539 970.25,-1970.1023 960.6701,-1965.5772 959.9392,-1972.539"/>
</g>
<!-- nanacoポイント -->
<g id="node25" class="node">
<title>nanacoポイント</title>
<polygon fill="none" stroke="#000000" points="748.5,-469 623.5,-469 623.5,-433 748.5,-433 748.5,-469"/>
<text text-anchor="middle" x="686" y="-447.3" font-family="Times,serif" font-size="14.00" fill="#000000">nanacoポイント</text>
</g>
<!-- nanaco&#45;&gt;nanacoポイント -->
<g id="edge60" class="edge">
<title>nanaco&#45;&gt;nanacoポイント</title>
<path fill="none" stroke="#000000" d="M494.6721,-532.7407C503.637,-517.6204 518.3834,-496.7735 537,-485 559.6674,-470.6646 587.6646,-462.3491 613.2486,-457.5345"/>
<polygon fill="#000000" stroke="#000000" points="614.0346,-460.9505 623.2912,-455.7963 612.8407,-454.0531 614.0346,-460.9505"/>
<text text-anchor="middle" x="555.5" y="-488.8" font-family="Times,serif" font-size="14.00" fill="#000000">1%</text>
</g>
<!-- セブンイレブン -->
<g id="node31" class="node">
<title>セブンイレブン</title>
<polygon fill="none" stroke="#000000" points="1057,-605 943,-605 943,-569 1057,-569 1057,-605"/>
<text text-anchor="middle" x="1000" y="-583.3" font-family="Times,serif" font-size="14.00" fill="#000000">セブンイレブン</text>
</g>
<!-- nanaco&#45;&gt;セブンイレブン -->
<g id="edge59" class="edge">
<title>nanaco&#45;&gt;セブンイレブン</title>
<path fill="none" stroke="#000000" stroke-width="2" d="M519.1894,-553.3899C603.2808,-559.2682 821.4013,-574.5154 932.6328,-582.2908"/>
<polygon fill="#000000" stroke="#000000" stroke-width="2" points="932.5107,-585.7908 942.7304,-582.9967 932.9989,-578.8078 932.5107,-585.7908"/>
</g>
<!-- 楽天ポイント -->
<g id="node21" class="node">
<title>楽天ポイント</title>
<polygon fill="none" stroke="#000000" points="737,-877 635,-877 635,-841 737,-841 737,-877"/>
<text text-anchor="middle" x="686" y="-855.3" font-family="Times,serif" font-size="14.00" fill="#000000">楽天ポイント</text>
</g>
<!-- Edy&#45;&gt;楽天ポイント -->
<g id="edge52" class="edge">
<title>Edy&#45;&gt;楽天ポイント</title>
<path fill="none" stroke="#000000" d="M512.0883,-904.9852C519.9095,-900.6046 528.6044,-896.223 537,-893 565.1281,-882.202 597.6192,-874.2937 625.0684,-868.8361"/>
<polygon fill="#000000" stroke="#000000" points="625.7782,-872.2637 634.9357,-866.9354 624.4541,-865.3901 625.7782,-872.2637"/>
<text text-anchor="middle" x="555.5" y="-896.8" font-family="Times,serif" font-size="14.00" fill="#000000">0.5%</text>
</g>
<!-- ヤマト運輸 -->
<g id="node38" class="node">
<title>ヤマト運輸</title>
<polygon fill="none" stroke="#000000" points="1044,-1116 956,-1116 956,-1080 1044,-1080 1044,-1116"/>
<text text-anchor="middle" x="1000" y="-1094.3" font-family="Times,serif" font-size="14.00" fill="#000000">ヤマト運輸</text>
</g>
<!-- Edy&#45;&gt;ヤマト運輸 -->
<g id="edge44" class="edge">
<title>Edy&#45;&gt;ヤマト運輸</title>
<path fill="none" stroke="#000000" stroke-width="2" d="M492.145,-940.0852C505.9518,-972.3087 539.6324,-1038.9909 592,-1068 651.2703,-1100.8328 848.8269,-1101.3891 945.6158,-1099.5426"/>
<polygon fill="#000000" stroke="#000000" stroke-width="2" points="945.8574,-1103.0385 955.783,-1099.3327 945.7128,-1096.04 945.8574,-1103.0385"/>
</g>
<!-- ウェルシア -->
<g id="node41" class="node">
<title>ウェルシア</title>
<polygon fill="none" stroke="#000000" points="1043.5,-1181 956.5,-1181 956.5,-1145 1043.5,-1145 1043.5,-1181"/>
<text text-anchor="middle" x="1000" y="-1159.3" font-family="Times,serif" font-size="14.00" fill="#000000">ウェルシア</text>
</g>
<!-- Edy&#45;&gt;ウェルシア -->
<g id="edge49" class="edge">
<title>Edy&#45;&gt;ウェルシア</title>
<path fill="none" stroke="#000000" stroke-width="2" d="M489.2366,-940.2039C496.0413,-966.6982 511.3147,-1016.578 537,-1052 555.707,-1077.7983 563.1464,-1084.4732 592,-1098 709.6255,-1153.1438 865.0354,-1162.7954 945.8883,-1163.7236"/>
<polygon fill="#000000" stroke="#000000" stroke-width="2" points="946.2926,-1167.2265 956.3177,-1163.7992 946.3434,-1160.2267 946.2926,-1167.2265"/>
</g>
<!-- ヨドバシカメラ -->
<g id="node43" class="node">
<title>ヨドバシカメラ</title>
<polygon fill="none" stroke="#000000" points="1058,-551 942,-551 942,-515 1058,-515 1058,-551"/>
<text text-anchor="middle" x="1000" y="-529.3" font-family="Times,serif" font-size="14.00" fill="#000000">ヨドバシカメラ</text>
</g>
<!-- Edy&#45;&gt;ヨドバシカメラ -->
<g id="edge46" class="edge">
<title>Edy&#45;&gt;ヨドバシカメラ</title>
<path fill="none" stroke="#000000" stroke-width="2" d="M498.3514,-903.8719C518.2713,-875.8461 555.4137,-819.6194 574,-766 591.6629,-715.0445 556.2472,-686.3755 592,-646 636.7985,-595.4092 827.7338,-559.1961 931.7628,-542.8069"/>
<polygon fill="#000000" stroke="#000000" stroke-width="2" points="932.5147,-546.2321 941.8575,-541.2358 931.4381,-539.3154 932.5147,-546.2321"/>
</g>
<!-- 餃子の王将 -->
<g id="node44" class="node">
<title>餃子の王将</title>
<polygon fill="none" stroke="#000000" points="1044,-932 956,-932 956,-896 1044,-896 1044,-932"/>
<text text-anchor="middle" x="1000" y="-910.3" font-family="Times,serif" font-size="14.00" fill="#000000">餃子の王将</text>
</g>
<!-- Edy&#45;&gt;餃子の王将 -->
<g id="edge66" class="edge">
<title>Edy&#45;&gt;餃子の王将</title>
<path fill="none" stroke="#000000" stroke-width="2" d="M512.325,-921.5755C593.8115,-920.3097 836.2276,-916.544 945.5067,-914.8465"/>
<polygon fill="#000000" stroke="#000000" stroke-width="2" points="945.7122,-918.3438 955.6566,-914.6888 945.6034,-911.3447 945.7122,-918.3438"/>
</g>
<!-- FRESCO -->
<g id="node46" class="node">
<title>FRESCO</title>
<polygon fill="none" stroke="#000000" points="1040,-199 960,-199 960,-163 1040,-163 1040,-199"/>
<text text-anchor="middle" x="1000" y="-177.3" font-family="Times,serif" font-size="14.00" fill="#000000">FRESCO</text>
</g>
<!-- Edy&#45;&gt;FRESCO -->
<g id="edge63" class="edge">
<title>Edy&#45;&gt;FRESCO</title>
<path fill="none" stroke="#000000" stroke-width="2" d="M489.4046,-903.7619C503.3187,-845.6819 547.0047,-659.7151 574,-504 579.1322,-474.3963 574.1716,-394.1839 592,-370 679.8907,-250.7779 861.6221,-204.4599 949.8115,-188.4697"/>
<polygon fill="#000000" stroke="#000000" stroke-width="2" points="950.5909,-191.8865 959.8352,-186.7103 949.3807,-184.9919 950.5909,-191.8865"/>
</g>
<!-- 業務スーパー -->
<g id="node47" class="node">
<title>業務スーパー</title>
<polygon fill="none" stroke="#000000" points="1050.5,-986 949.5,-986 949.5,-950 1050.5,-950 1050.5,-986"/>
<text text-anchor="middle" x="1000" y="-964.3" font-family="Times,serif" font-size="14.00" fill="#000000">業務スーパー</text>
</g>
<!-- Edy&#45;&gt;業務スーパー -->
<g id="edge62" class="edge">
<title>Edy&#45;&gt;業務スーパー</title>
<path fill="none" stroke="#000000" stroke-width="2" d="M512.0736,-929.7144C520.0443,-931.7279 528.8212,-933.6963 537,-935 679.9577,-957.7869 850.265,-964.8433 939.1474,-967.0255"/>
<polygon fill="#000000" stroke="#000000" stroke-width="2" points="939.2364,-970.5284 949.3153,-967.2625 939.3996,-963.5303 939.2364,-970.5284"/>
</g>
<!-- PayPay&#45;&gt;飲食店 -->
<g id="edge11" class="edge">
<title>PayPay&#45;&gt;飲食店</title>
<path fill="none" stroke="#000000" stroke-width="2" d="M519.1894,-1969.2655C610.9857,-1969.9785 862.4975,-1971.932 960.3305,-1972.6919"/>
<polygon fill="#000000" stroke="#000000" stroke-width="2" points="960.3706,-1976.1922 970.3975,-1972.7701 960.425,-1969.1924 960.3706,-1976.1922"/>
</g>
<!-- Ponta&#45;&gt;じゃらん -->
<g id="edge54" class="edge">
<title>Ponta&#45;&gt;じゃらん</title>
<path fill="none" stroke="#000000" d="M714.6546,-403.4351C760.9809,-412.3658 854.1807,-424.1471 924,-393 939.4998,-386.0854 955.3786,-376.1655 968.587,-366.9819"/>
<polygon fill="#000000" stroke="#000000" points="970.7386,-369.7464 976.8504,-361.0922 966.6757,-364.0461 970.7386,-369.7464"/>
</g>
<!-- Tポイント -->
<g id="node20" class="node">
<title>Tポイント</title>
<polygon fill="none" stroke="#000000" points="727.5,-1253 644.5,-1253 644.5,-1217 727.5,-1217 727.5,-1253"/>
<text text-anchor="middle" x="686" y="-1231.3" font-family="Times,serif" font-size="14.00" fill="#000000">Tポイント</text>
</g>
<!-- はぴeポイント -->
<g id="node28" class="node">
<title>はぴeポイント</title>
<polygon fill="none" stroke="#000000" points="741,-1059 631,-1059 631,-1023 741,-1023 741,-1059"/>
<text text-anchor="middle" x="686" y="-1037.3" font-family="Times,serif" font-size="14.00" fill="#000000">はぴeポイント</text>
</g>
<!-- Tポイント&#45;&gt;はぴeポイント -->
<g id="edge51" class="edge">
<title>Tポイント&#45;&gt;はぴeポイント</title>
<path fill="none" stroke="#000000" d="M686,-1216.8007C686,-1167.6492 686,-1118.4977 686,-1069.3462"/>
<polygon fill="#000000" stroke="#000000" points="689.5001,-1069.1875 686,-1059.1875 682.5001,-1069.1875 689.5001,-1069.1875"/>
</g>
<!-- 楽天ポイント&#45;&gt;楽天モバイル -->
<g id="edge41" class="edge">
<title>楽天ポイント&#45;&gt;楽天モバイル</title>
<path fill="none" stroke="#000000" d="M737.0065,-868.3557C782.6307,-874.4707 850.5133,-877.9191 905,-857 935.3478,-845.3485 962.2919,-819.1928 979.6626,-799.1407"/>
<polygon fill="#000000" stroke="#000000" points="982.5338,-801.164 986.2811,-791.2539 977.1717,-796.6641 982.5338,-801.164"/>
</g>
<!-- 楽天ポイント&#45;&gt;楽天でんき -->
<g id="edge42" class="edge">
<title>楽天ポイント&#45;&gt;楽天でんき</title>
<path fill="none" stroke="#000000" d="M726.4072,-840.9841C783.5977,-815.4851 888.0752,-768.9028 950.0537,-741.269"/>
<polygon fill="#000000" stroke="#000000" points="951.5425,-744.4374 959.2505,-737.1685 948.6919,-738.0441 951.5425,-744.4374"/>
</g>
<!-- JREポイント&#45;&gt;Suica -->
<g id="edge24" class="edge">
<title>JREポイント&#45;&gt;Suica</title>
<path fill="none" stroke="#000000" d="M635.4703,-1518.5759C606.5379,-1520.3079 569.6129,-1521.0148 537,-1517 532.4614,-1516.4413 527.7492,-1515.618 523.0973,-1514.6524"/>
<polygon fill="#000000" stroke="#000000" points="523.6299,-1511.1838 513.1004,-1512.3585 522.0643,-1518.0065 523.6299,-1511.1838"/>
</g>
<!-- ビックポイント&#45;&gt;ビックカメラ -->
<g id="edge16" class="edge">
<title>ビックポイント&#45;&gt;ビックカメラ</title>
<path fill="none" stroke="#000000" d="M744.4497,-1867.6699C789.3138,-1870.1727 852.2948,-1869.6399 905,-1854 928.1356,-1847.1347 951.4131,-1833.3069 969.1359,-1820.9906"/>
<polygon fill="#000000" stroke="#000000" points="971.2688,-1823.7682 977.3651,-1815.103 967.1957,-1818.0752 971.2688,-1823.7682"/>
</g>
<!-- Amazonポイント -->
<g id="node24" class="node">
<title>Amazonポイント</title>
<polygon fill="none" stroke="#000000" points="751.5,-691 620.5,-691 620.5,-655 751.5,-655 751.5,-691"/>
<text text-anchor="middle" x="686" y="-669.3" font-family="Times,serif" font-size="14.00" fill="#000000">Amazonポイント</text>
</g>
<!-- Amazonポイント&#45;&gt;Amazon -->
<g id="edge57" class="edge">
<title>Amazonポイント&#45;&gt;Amazon</title>
<path fill="none" stroke="#000000" d="M751.8247,-660.6773C811.8442,-652.8641 899.0692,-644.1794 952.5283,-640.8371"/>
<polygon fill="#000000" stroke="#000000" points="952.9723,-644.3173 962.7519,-640.2417 952.5653,-637.3291 952.9723,-644.3173"/>
</g>
<!-- nanacoポイント&#45;&gt;nanaco -->
<g id="edge61" class="edge">
<title>nanacoポイント&#45;&gt;nanaco</title>
<path fill="none" stroke="#000000" d="M623.4813,-463.1884C612.4672,-466.9116 601.5008,-471.7429 592,-478 581.4491,-484.9486 583.6405,-491.8351 574,-500 560.3829,-511.5328 543.7902,-521.8509 528.6376,-530.1383"/>
<polygon fill="#000000" stroke="#000000" points="526.6189,-527.2474 519.4285,-535.0287 529.902,-533.4298 526.6189,-527.2474"/>
</g>
<!-- FRESCOポイント -->
<g id="node26" class="node">
<title>FRESCOポイント</title>
<polygon fill="none" stroke="#000000" points="754.5,-155 617.5,-155 617.5,-119 754.5,-119 754.5,-155"/>
<text text-anchor="middle" x="686" y="-133.3" font-family="Times,serif" font-size="14.00" fill="#000000">FRESCOポイント</text>
</g>
<!-- FRESCOポイント&#45;&gt;FRESCO -->
<g id="edge65" class="edge">
<title>FRESCOポイント&#45;&gt;FRESCO</title>
<path fill="none" stroke="#000000" d="M754.5664,-137.6958C797.9902,-139.1197 855.154,-142.8094 905,-152 919.8811,-154.7438 935.7224,-159.0139 950.1172,-163.4416"/>
<polygon fill="#000000" stroke="#000000" points="949.2321,-166.8325 959.8222,-166.5153 951.3457,-160.1592 949.2321,-166.8325"/>
</g>
<!-- ヨドバシゴールドポイント -->
<g id="node27" class="node">
<title>ヨドバシゴールドポイント</title>
<polygon fill="none" stroke="#000000" points="780,-523 592,-523 592,-487 780,-487 780,-523"/>
<text text-anchor="middle" x="686" y="-501.3" font-family="Times,serif" font-size="14.00" fill="#000000">ヨドバシゴールドポイント</text>
</g>
<!-- ヨドバシゴールドポイント&#45;&gt;ヨドバシカメラ -->
<g id="edge48" class="edge">
<title>ヨドバシゴールドポイント&#45;&gt;ヨドバシカメラ</title>
<path fill="none" stroke="#000000" d="M780.2104,-513.4009C828.9794,-517.7498 887.4263,-522.9616 931.7857,-526.9172"/>
<polygon fill="#000000" stroke="#000000" points="931.6128,-530.4156 941.8841,-527.8177 932.2346,-523.4432 931.6128,-530.4156"/>
</g>
<!-- はぴeポイント&#45;&gt;関西電力 -->
<g id="edge36" class="edge">
<title>はぴeポイント&#45;&gt;関西電力</title>
<path fill="none" stroke="#000000" d="M741.363,-1039.4116C785.6446,-1038.4023 849.3164,-1037.5357 905,-1039 920.4267,-1039.4057 937.2479,-1040.1813 952.3905,-1041.0028"/>
<polygon fill="#000000" stroke="#000000" points="952.3873,-1044.508 962.568,-1041.5749 952.7802,-1037.5191 952.3873,-1044.508"/>
</g>
<!-- 株主優待券&#45;&gt;現金 -->
<g id="edge74" class="edge">
<title>株主優待券&#45;&gt;現金</title>
<path fill="none" stroke="#000000" d="M816.7566,-1700.5397C741.9451,-1703.5869 591.8088,-1703.4834 522.1168,-1700.229"/>
<polygon fill="#000000" stroke="#000000" points="522.2099,-1696.7292 512.041,-1699.7029 521.8449,-1703.7197 522.2099,-1696.7292"/>
</g>
<!-- 株主優待券&#45;&gt;電車 -->
<g id="edge73" class="edge">
<title>株主優待券&#45;&gt;電車</title>
<path fill="none" stroke="#000000" stroke-width="2" d="M868.1627,-1677.7745C880.779,-1646.7013 908.7962,-1582.0723 942,-1533 951.3655,-1519.1586 963.4521,-1505.1559 974.1659,-1493.7099"/>
<polygon fill="#000000" stroke="#000000" stroke-width="2" points="976.9368,-1495.8762 981.3134,-1486.2276 971.8751,-1491.041 976.9368,-1495.8762"/>
</g>
<!-- 電車&#45;&gt;PiTaPa -->
<g id="edge68" class="edge">
<title>電車&#45;&gt;PiTaPa</title>
<path fill="none" stroke="#000000" d="M972.7101,-1454.9576C954.0191,-1446.4858 928.4614,-1435.7943 905,-1429 771.0494,-1390.2089 730.1245,-1387.787 592,-1407 527.4816,-1415.9745 503.9523,-1409.063 451,-1447 392.6499,-1488.8043 352.0671,-1565.6797 333.4797,-1606.6333"/>
<polygon fill="#000000" stroke="#000000" points="330.1845,-1605.4304 329.3329,-1615.991 336.5843,-1608.2665 330.1845,-1605.4304"/>
<text text-anchor="middle" x="686" y="-1410.8" font-family="Times,serif" font-size="14.00" fill="#000000">10%</text>
</g>
<!-- バス&#45;&gt;PiTaPa -->
<g id="edge70" class="edge">
<title>バス&#45;&gt;PiTaPa</title>
<path fill="none" stroke="#000000" d="M972.5898,-1644.7613C953.6278,-1641.878 927.8034,-1638.0479 905,-1635 849.5391,-1627.5871 835.8544,-1623.3393 780,-1620 696.5934,-1615.0135 675.5275,-1617.8359 592,-1620 511.719,-1622.08 418.1459,-1627.6331 364.907,-1631.0879"/>
<polygon fill="#000000" stroke="#000000" points="364.5627,-1627.6028 354.8129,-1631.7492 365.0204,-1634.5879 364.5627,-1627.6028"/>
<text text-anchor="middle" x="686" y="-1623.8" font-family="Times,serif" font-size="14.00" fill="#000000">10%</text>
</g>
<!-- 楽天モバイル&#45;&gt;楽天ポイント -->
<g id="edge40" class="edge">
<title>楽天モバイル&#45;&gt;楽天ポイント</title>
<path fill="none" stroke="#000000" d="M966.2809,-791.0652C953.3385,-797.4375 938.252,-804.2022 924,-809 865.3485,-828.7444 795.8383,-842.2703 747.131,-850.2259"/>
<polygon fill="#000000" stroke="#000000" points="746.3847,-846.8008 737.0646,-851.8392 747.4925,-853.7126 746.3847,-846.8008"/>
<text text-anchor="middle" x="861" y="-841.8" font-family="Times,serif" font-size="14.00" fill="#000000">0.5%</text>
</g>
<!-- 関西電力&#45;&gt;はぴeポイント -->
<g id="edge35" class="edge">
<title>関西電力&#45;&gt;はぴeポイント</title>
<path fill="none" stroke="#000000" d="M962.741,-1043.644C910.7034,-1043.1468 815.4628,-1042.2369 751.4428,-1041.6252"/>
<polygon fill="#000000" stroke="#000000" points="751.087,-1038.1218 741.0539,-1041.526 751.02,-1045.1215 751.087,-1038.1218"/>
<text text-anchor="middle" x="861" y="-1047.8" font-family="Times,serif" font-size="14.00" fill="#000000">0.5%</text>
</g>
<!-- ヤマト運輸&#45;&gt;Tポイント -->
<g id="edge45" class="edge">
<title>ヤマト運輸&#45;&gt;Tポイント</title>
<path fill="none" stroke="#000000" d="M968.2325,-1116.1595C954.7649,-1123.5895 938.7913,-1132.0535 924,-1139 860.8611,-1168.6523 785.9333,-1197.9416 737.2514,-1216.2212"/>
<polygon fill="#000000" stroke="#000000" points="736.0167,-1212.9461 727.8762,-1219.7272 738.4687,-1219.5027 736.0167,-1212.9461"/>
<text text-anchor="middle" x="861" y="-1189.8" font-family="Times,serif" font-size="14.00" fill="#000000">0.5%</text>
</g>
<!-- ウェルシア&#45;&gt;Tポイント -->
<g id="edge50" class="edge">
<title>ウェルシア&#45;&gt;Tポイント</title>
<path fill="none" stroke="#000000" d="M981.526,-1181.1983C967.0002,-1194.5589 945.6609,-1212.1923 924,-1223 865.2959,-1252.2904 787.9981,-1249.8982 737.6665,-1243.8353"/>
<polygon fill="#000000" stroke="#000000" points="738.0297,-1240.3532 727.6628,-1242.5391 737.1301,-1247.2952 738.0297,-1240.3532"/>
<text text-anchor="middle" x="861" y="-1251.8" font-family="Times,serif" font-size="14.00" fill="#000000">1%</text>
</g>
<!-- ビックカメラ&#45;&gt;ビックポイント -->
<g id="edge14" class="edge">
<title>ビックカメラ&#45;&gt;ビックポイント</title>
<path fill="none" stroke="#000000" stroke-dasharray="5,2" d="M949.2506,-1807.5054C896.2942,-1818.4678 812.952,-1835.7201 754.2542,-1847.8709"/>
<polygon fill="#000000" stroke="#000000" points="753.408,-1844.4718 744.3251,-1849.9263 754.827,-1851.3265 753.408,-1844.4718"/>
<text text-anchor="middle" x="861" y="-1838.8" font-family="Times,serif" font-size="14.00" fill="#000000">9.5%</text>
</g>
<!-- ヨドバシカメラ&#45;&gt;ヨドバシゴールドポイント -->
<g id="edge47" class="edge">
<title>ヨドバシカメラ&#45;&gt;ヨドバシゴールドポイント</title>
<path fill="none" stroke="#000000" d="M974.4207,-514.7551C956.0733,-502.8355 930.2345,-488.3452 905,-482 857.0169,-469.9347 801.5782,-475.9466 758.4854,-484.8417"/>
<polygon fill="#000000" stroke="#000000" points="757.6853,-481.4337 748.6494,-486.9657 759.1629,-488.276 757.6853,-481.4337"/>
<text text-anchor="middle" x="861" y="-485.8" font-family="Times,serif" font-size="14.00" fill="#000000">10%</text>
</g>
<!-- FRESCO&#45;&gt;FRESCOポイント -->
<g id="edge64" class="edge">
<title>FRESCO&#45;&gt;FRESCOポイント</title>
<path fill="none" stroke="#000000" d="M959.9053,-175.3816C910.8844,-168.5125 826.7896,-156.7285 764.6794,-148.0251"/>
<polygon fill="#000000" stroke="#000000" points="764.9096,-144.5233 754.5206,-146.6016 763.9381,-151.4556 764.9096,-144.5233"/>
<text text-anchor="middle" x="861" y="-171.8" font-family="Times,serif" font-size="14.00" fill="#000000">0.5%</text>
</g>
<!-- 吉野家&#45;&gt;Tポイント -->
<g id="edge21" class="edge">
<title>吉野家&#45;&gt;Tポイント</title>
<path fill="none" stroke="#000000" d="M970.3426,-1342.7604C916.7946,-1322.4667 803.3903,-1279.4887 737.1197,-1254.3734"/>
<polygon fill="#000000" stroke="#000000" points="738.2881,-1251.0733 727.6968,-1250.8023 735.8074,-1257.619 738.2881,-1251.0733"/>
<text text-anchor="middle" x="861" y="-1321.8" font-family="Times,serif" font-size="14.00" fill="#000000">0.5%</text>
</g>
<!-- Amazon&#45;&gt;Amazonポイント -->
<g id="edge56" class="edge">
<title>Amazon&#45;&gt;Amazonポイント</title>
<path fill="none" stroke="#000000" d="M962.7519,-649.3503C913.4572,-656.7626 825.3804,-666.1783 761.8076,-671.1478"/>
<polygon fill="#000000" stroke="#000000" points="761.5308,-667.6587 751.8247,-671.9062 762.0611,-674.6385 761.5308,-667.6587"/>
</g>
<!-- じゃらん&#45;&gt;Ponta -->
<g id="edge55" class="edge">
<title>じゃらん&#45;&gt;Ponta</title>
<path fill="none" stroke="#000000" d="M962.8591,-349.3873C902.9474,-359.6906 785.5496,-379.88 724.6735,-390.3491"/>
<polygon fill="#000000" stroke="#000000" points="723.9599,-386.9204 714.6978,-392.0647 725.1464,-393.8191 723.9599,-386.9204"/>
<text text-anchor="middle" x="861" y="-378.8" font-family="Times,serif" font-size="14.00" fill="#000000">2%</text>
</g>
</g>
</svg>
