<?xml version="1.0" encoding="UTF-8" standalone="no"?>
<!DOCTYPE svg PUBLIC "-//W3C//DTD SVG 1.1//EN"
 "http://www.w3.org/Graphics/SVG/1.1/DTD/svg11.dtd">
<!-- Generated by graphviz version 2.40.1 (0)
 -->
<!-- Title: MoneyFlow Pages: 1 -->
<svg width="1075pt" height="1753pt"
 viewBox="0.00 0.00 1075.00 1753.45" xmlns="http://www.w3.org/2000/svg" xmlns:xlink="http://www.w3.org/1999/xlink">
<g id="graph0" class="graph" transform="scale(1 1) rotate(0) translate(4 1749.4463)">
<title>MoneyFlow</title>
<polygon fill="#ffffff" stroke="transparent" points="-4,4 -4,-1749.4463 1071,-1749.4463 1071,4 -4,4"/>
<!-- 収入 -->
<g id="node1" class="node">
<title>収入</title>
<text text-anchor="middle" x="29.5" y="-14.3" font-family="Times,serif" font-size="14.00" fill="#000000">収入</text>
</g>
<!-- 銀行口座 -->
<g id="node2" class="node">
<title>銀行口座</title>
<text text-anchor="middle" x="147" y="-14.3" font-family="Times,serif" font-size="14.00" fill="#000000">銀行口座</text>
</g>
<!-- 収入&#45;&gt;銀行口座 -->
<g id="edge1" class="edge">
<title>収入&#45;&gt;銀行口座</title>
<path fill="none" stroke="#000000" d="M56.7522,-18C72.4805,-18 92.4849,-18 109.6608,-18"/>
</g>
<!-- クレジットカード -->
<g id="node3" class="node">
<title>クレジットカード</title>
<text text-anchor="middle" x="326.5" y="-14.3" font-family="Times,serif" font-size="14.00" fill="#000000">クレジットカード</text>
</g>
<!-- 銀行口座&#45;&gt;クレジットカード -->
<g id="edge2" class="edge">
<title>銀行口座&#45;&gt;クレジットカード</title>
<path fill="none" stroke="#000000" d="M184.1925,-18C206.5787,-18 235.7005,-18 261.7638,-18"/>
</g>
<!-- マネー -->
<g id="node4" class="node">
<title>マネー</title>
<text text-anchor="middle" x="492" y="-14.3" font-family="Times,serif" font-size="14.00" fill="#000000">マネー</text>
</g>
<!-- クレジットカード&#45;&gt;マネー -->
<g id="edge3" class="edge">
<title>クレジットカード&#45;&gt;マネー</title>
<path fill="none" stroke="#000000" d="M391.435,-18C415.8857,-18 442.5148,-18 462.2253,-18"/>
</g>
<!-- ポイント -->
<g id="node5" class="node">
<title>ポイント</title>
<text text-anchor="middle" x="695.5" y="-14.3" font-family="Times,serif" font-size="14.00" fill="#000000">ポイント</text>
</g>
<!-- マネー&#45;&gt;ポイント -->
<g id="edge4" class="edge">
<title>マネー&#45;&gt;ポイント</title>
<path fill="none" stroke="#000000" d="M521.5906,-18C557.7477,-18 618.951,-18 658.2712,-18"/>
</g>
<!-- 金券 -->
<g id="node6" class="node">
<title>金券</title>
<text text-anchor="middle" x="870" y="-14.3" font-family="Times,serif" font-size="14.00" fill="#000000">金券</text>
</g>
<!-- ポイント&#45;&gt;金券 -->
<g id="edge5" class="edge">
<title>ポイント&#45;&gt;金券</title>
<path fill="none" stroke="#000000" d="M732.507,-18C765.5217,-18 813.0958,-18 842.7464,-18"/>
</g>
<!-- 支出 -->
<g id="node7" class="node">
<title>支出</title>
<text text-anchor="middle" x="1009" y="-14.3" font-family="Times,serif" font-size="14.00" fill="#000000">支出</text>
</g>
<!-- 金券&#45;&gt;支出 -->
<g id="edge6" class="edge">
<title>金券&#45;&gt;支出</title>
<path fill="none" stroke="#000000" d="M897.1306,-18C921.6227,-18 957.4669,-18 981.9379,-18"/>
</g>
<!-- 給与 -->
<g id="node8" class="node">
<title>給与</title>
<polygon fill="none" stroke="#000000" points="56.5,-1560 2.5,-1560 2.5,-1524 56.5,-1524 56.5,-1560"/>
<text text-anchor="middle" x="29.5" y="-1538.3" font-family="Times,serif" font-size="14.00" fill="#000000">給与</text>
</g>
<!-- 三井住友銀行 -->
<g id="node11" class="node">
<title>三井住友銀行</title>
<polygon fill="none" stroke="#000000" points="198,-1560 96,-1560 96,-1524 198,-1524 198,-1560"/>
<text text-anchor="middle" x="147" y="-1538.3" font-family="Times,serif" font-size="14.00" fill="#000000">三井住友銀行</text>
</g>
<!-- 給与&#45;&gt;三井住友銀行 -->
<g id="edge7" class="edge">
<title>給与&#45;&gt;三井住友銀行</title>
<path fill="none" stroke="#000000" stroke-width="2" d="M56.7522,-1542C65.4977,-1542 75.5652,-1542 85.7334,-1542"/>
<polygon fill="#000000" stroke="#000000" stroke-width="2" points="85.89,-1545.5001 95.89,-1542 85.89,-1538.5001 85.89,-1545.5001"/>
</g>
<!-- 譲渡 -->
<g id="node9" class="node">
<title>譲渡</title>
<polygon fill="none" stroke="#000000" points="56.5,-220 2.5,-220 2.5,-184 56.5,-184 56.5,-220"/>
<text text-anchor="middle" x="29.5" y="-198.3" font-family="Times,serif" font-size="14.00" fill="#000000">譲渡</text>
</g>
<!-- メルペイ -->
<g id="node21" class="node">
<title>メルペイ</title>
<polygon fill="none" stroke="#000000" points="529,-184 455,-184 455,-148 529,-148 529,-184"/>
<text text-anchor="middle" x="492" y="-162.3" font-family="Times,serif" font-size="14.00" fill="#000000">メルペイ</text>
</g>
<!-- 譲渡&#45;&gt;メルペイ -->
<g id="edge65" class="edge">
<title>譲渡&#45;&gt;メルペイ</title>
<path fill="none" stroke="#000000" stroke-width="2" d="M56.9686,-203.3379C123.0583,-206.0059 295.9209,-209.7034 437,-184 439.6425,-183.5186 442.3329,-182.9414 445.0324,-182.2937"/>
<polygon fill="#000000" stroke="#000000" stroke-width="2" points="446.023,-185.6518 454.7778,-179.6849 444.2128,-178.8899 446.023,-185.6518"/>
</g>
<!-- 雑収入 -->
<g id="node10" class="node">
<title>雑収入</title>
<polygon fill="none" stroke="#000000" points="59,-1102 0,-1102 0,-1066 59,-1066 59,-1102"/>
<text text-anchor="middle" x="29.5" y="-1080.3" font-family="Times,serif" font-size="14.00" fill="#000000">雑収入</text>
</g>
<!-- 楽天ポイント -->
<g id="node23" class="node">
<title>楽天ポイント</title>
<polygon fill="none" stroke="#000000" points="746.5,-1102 644.5,-1102 644.5,-1066 746.5,-1066 746.5,-1102"/>
<text text-anchor="middle" x="695.5" y="-1080.3" font-family="Times,serif" font-size="14.00" fill="#000000">楽天ポイント</text>
</g>
<!-- 雑収入&#45;&gt;楽天ポイント -->
<g id="edge69" class="edge">
<title>雑収入&#45;&gt;楽天ポイント</title>
<path fill="none" stroke="#000000" stroke-width="2" d="M59.4425,-1084C83.1876,-1084 117.217,-1084 147,-1084 147,-1084 147,-1084 492,-1084 539.776,-1084 593.8614,-1084 634.2592,-1084"/>
<polygon fill="#000000" stroke="#000000" stroke-width="2" points="634.4847,-1087.5001 644.4847,-1084 634.4846,-1080.5001 634.4847,-1087.5001"/>
</g>
<!-- 住信SBI銀行 -->
<g id="node12" class="node">
<title>住信SBI銀行</title>
<polygon fill="none" stroke="#000000" points="196.5,-1457 97.5,-1457 97.5,-1421 196.5,-1421 196.5,-1457"/>
<text text-anchor="middle" x="147" y="-1435.3" font-family="Times,serif" font-size="14.00" fill="#000000">住信SBI銀行</text>
</g>
<!-- 三井住友銀行&#45;&gt;住信SBI銀行 -->
<g id="edge9" class="edge">
<title>三井住友銀行&#45;&gt;住信SBI銀行</title>
<path fill="none" stroke="#000000" stroke-width="2" d="M147,-1523.7609C147,-1504.9273 147,-1486.0937 147,-1467.26"/>
<polygon fill="#000000" stroke="#000000" stroke-width="2" points="150.5001,-1467.1054 147,-1457.1055 143.5001,-1467.1055 150.5001,-1467.1054"/>
</g>
<!-- 現金 -->
<g id="node17" class="node">
<title>現金</title>
<polygon fill="none" stroke="#000000" points="519,-1671 465,-1671 465,-1635 519,-1635 519,-1671"/>
<text text-anchor="middle" x="492" y="-1649.3" font-family="Times,serif" font-size="14.00" fill="#000000">現金</text>
</g>
<!-- 三井住友銀行&#45;&gt;現金 -->
<g id="edge8" class="edge">
<title>三井住友銀行&#45;&gt;現金</title>
<path fill="none" stroke="#000000" stroke-width="2" d="M156.073,-1560.2462C167.1782,-1580.4134 188.0145,-1612.0216 216,-1627 292.9378,-1668.1785 399.342,-1664.0693 454.8785,-1658.1669"/>
<polygon fill="#000000" stroke="#000000" stroke-width="2" points="455.4229,-1661.6275 464.961,-1657.0149 454.6283,-1654.6728 455.4229,-1661.6275"/>
</g>
<!-- PayPay -->
<g id="node20" class="node">
<title>PayPay</title>
<polygon fill="none" stroke="#000000" points="526,-1617 458,-1617 458,-1581 526,-1581 526,-1617"/>
<text text-anchor="middle" x="492" y="-1595.3" font-family="Times,serif" font-size="14.00" fill="#000000">PayPay</text>
</g>
<!-- 三井住友銀行&#45;&gt;PayPay -->
<g id="edge10" class="edge">
<title>三井住友銀行&#45;&gt;PayPay</title>
<path fill="none" stroke="#000000" stroke-width="2" d="M198.2775,-1550.4719C265.8449,-1561.6352 383.5864,-1581.0882 447.5552,-1591.657"/>
<polygon fill="#000000" stroke="#000000" stroke-width="2" points="447.284,-1595.1595 457.7208,-1593.3365 448.4251,-1588.2531 447.284,-1595.1595"/>
</g>
<!-- ビックカメラSuicaカード -->
<g id="node13" class="node">
<title>ビックカメラSuicaカード</title>
<polygon fill="none" stroke="#000000" points="418,-1512 235,-1512 235,-1476 418,-1476 418,-1512"/>
<text text-anchor="middle" x="326.5" y="-1490.3" font-family="Times,serif" font-size="14.00" fill="#000000">ビックカメラSuicaカード</text>
</g>
<!-- 住信SBI銀行&#45;&gt;ビックカメラSuicaカード -->
<g id="edge25" class="edge">
<title>住信SBI銀行&#45;&gt;ビックカメラSuicaカード</title>
<path fill="none" stroke="#000000" stroke-width="2" d="M196.6726,-1455.8203C203.1614,-1457.9403 209.7307,-1460.0482 216,-1462 227.8871,-1465.7008 240.537,-1469.4966 252.8734,-1473.1218"/>
<polygon fill="#000000" stroke="#000000" stroke-width="2" points="252.0988,-1476.5418 262.6791,-1475.9875 254.0624,-1469.8229 252.0988,-1476.5418"/>
</g>
<!-- リクルートカード -->
<g id="node14" class="node">
<title>リクルートカード</title>
<polygon fill="none" stroke="#000000" points="390.5,-595 262.5,-595 262.5,-559 390.5,-559 390.5,-595"/>
<text text-anchor="middle" x="326.5" y="-573.3" font-family="Times,serif" font-size="14.00" fill="#000000">リクルートカード</text>
</g>
<!-- 住信SBI銀行&#45;&gt;リクルートカード -->
<g id="edge26" class="edge">
<title>住信SBI銀行&#45;&gt;リクルートカード</title>
<path fill="none" stroke="#000000" stroke-width="2" d="M150.7491,-1420.9959C173.4689,-1311.8904 292.6742,-739.4394 320.6292,-605.1931"/>
<polygon fill="#000000" stroke="#000000" stroke-width="2" points="324.0836,-605.772 322.6958,-595.2685 317.2306,-604.3449 324.0836,-605.772"/>
</g>
<!-- PiTaPa -->
<g id="node15" class="node">
<title>PiTaPa</title>
<polygon fill="none" stroke="#000000" points="359,-136 294,-136 294,-100 359,-100 359,-136"/>
<text text-anchor="middle" x="326.5" y="-114.3" font-family="Times,serif" font-size="14.00" fill="#000000">PiTaPa</text>
</g>
<!-- 住信SBI銀行&#45;&gt;PiTaPa -->
<g id="edge27" class="edge">
<title>住信SBI銀行&#45;&gt;PiTaPa</title>
<path fill="none" stroke="#000000" stroke-width="2" d="M147.3807,-1420.5944C150.632,-1266.9607 174.6227,-202.0991 216,-150 232.0137,-129.8368 259.9227,-121.8664 283.6847,-118.9218"/>
<polygon fill="#000000" stroke="#000000" stroke-width="2" points="284.2977,-122.3786 293.9094,-117.9215 283.6161,-115.4119 284.2977,-122.3786"/>
</g>
<!-- 住信SBI銀行&#45;&gt;現金 -->
<g id="edge23" class="edge">
<title>住信SBI銀行&#45;&gt;現金</title>
<path fill="none" stroke="#000000" stroke-width="2" d="M163.6253,-1457.1772C180.4628,-1474.9061 207.829,-1501.9164 235,-1521 308.0739,-1572.3234 403.8002,-1616.1002 455.3346,-1638.0063"/>
<polygon fill="#000000" stroke="#000000" stroke-width="2" points="454.1556,-1641.3075 464.73,-1641.9654 456.8739,-1634.8568 454.1556,-1641.3075"/>
</g>
<!-- 株主優待券 -->
<g id="node30" class="node">
<title>株主優待券</title>
<polygon fill="none" stroke="#000000" points="914,-1473 826,-1473 826,-1437 914,-1437 914,-1473"/>
<text text-anchor="middle" x="870" y="-1451.3" font-family="Times,serif" font-size="14.00" fill="#000000">株主優待券</text>
</g>
<!-- 住信SBI銀行&#45;&gt;株主優待券 -->
<g id="edge28" class="edge">
<title>住信SBI銀行&#45;&gt;株主優待券</title>
<path fill="none" stroke="#000000" stroke-width="2" d="M196.6947,-1436.4681C327.2875,-1435.2508 679.4265,-1442.9938 815.3946,-1450.0104"/>
<polygon fill="#000000" stroke="#000000" stroke-width="2" points="815.4001,-1453.5157 825.5735,-1450.5572 815.7757,-1446.5258 815.4001,-1453.5157"/>
</g>
<!-- 家賃 -->
<g id="node31" class="node">
<title>家賃</title>
<polygon fill="none" stroke="#000000" points="1036,-90 982,-90 982,-54 1036,-54 1036,-90"/>
<text text-anchor="middle" x="1009" y="-68.3" font-family="Times,serif" font-size="14.00" fill="#000000">家賃</text>
</g>
<!-- 住信SBI銀行&#45;&gt;家賃 -->
<g id="edge24" class="edge">
<title>住信SBI銀行&#45;&gt;家賃</title>
<path fill="none" stroke="#000000" stroke-width="2" d="M147.273,-1420.8905C149.4451,-1283.6765 165.1842,-406.0632 216,-146 220.9596,-120.6181 215.5817,-108.0813 235,-91 266.1856,-63.5675 284.9658,-72 326.5,-72 326.5,-72 326.5,-72 870,-72 904.4512,-72 943.7054,-72 971.6918,-72"/>
<polygon fill="#000000" stroke="#000000" stroke-width="2" points="971.8327,-75.5001 981.8326,-72 971.8326,-68.5001 971.8327,-75.5001"/>
</g>
<!-- Suica -->
<g id="node16" class="node">
<title>Suica</title>
<polygon fill="none" stroke="#000000" points="520,-1512 464,-1512 464,-1476 520,-1476 520,-1512"/>
<text text-anchor="middle" x="492" y="-1490.3" font-family="Times,serif" font-size="14.00" fill="#000000">Suica</text>
</g>
<!-- ビックカメラSuicaカード&#45;&gt;Suica -->
<g id="edge17" class="edge">
<title>ビックカメラSuicaカード&#45;&gt;Suica</title>
<path fill="none" stroke="#000000" stroke-width="2" d="M418.4455,-1494C430.8332,-1494 442.9426,-1494 453.6447,-1494"/>
<polygon fill="#000000" stroke="#000000" stroke-width="2" points="453.8359,-1497.5001 463.8358,-1494 453.8358,-1490.5001 453.8359,-1497.5001"/>
</g>
<!-- JREポイント -->
<g id="node24" class="node">
<title>JREポイント</title>
<polygon fill="none" stroke="#000000" points="745.5,-1578 645.5,-1578 645.5,-1542 745.5,-1542 745.5,-1578"/>
<text text-anchor="middle" x="695.5" y="-1556.3" font-family="Times,serif" font-size="14.00" fill="#000000">JREポイント</text>
</g>
<!-- ビックカメラSuicaカード&#45;&gt;JREポイント -->
<g id="edge12" class="edge">
<title>ビックカメラSuicaカード&#45;&gt;JREポイント</title>
<path fill="none" stroke="#000000" d="M399.7963,-1512.0902C438.9917,-1522.9267 487.576,-1538.248 529,-1557 537.5412,-1560.8665 537.9749,-1565.4606 547,-1568 562.8298,-1572.454 567.5661,-1568.5888 584,-1568 600.6236,-1567.4044 618.6145,-1566.3109 635.1938,-1565.1196"/>
<polygon fill="#000000" stroke="#000000" points="635.5959,-1568.5994 645.3094,-1564.3688 635.0777,-1561.6186 635.5959,-1568.5994"/>
<text text-anchor="middle" x="492" y="-1560.8" font-family="Times,serif" font-size="14.00" fill="#000000">0.5%</text>
</g>
<!-- ビックポイント -->
<g id="node25" class="node">
<title>ビックポイント</title>
<polygon fill="none" stroke="#000000" points="753.5,-1342 637.5,-1342 637.5,-1306 753.5,-1306 753.5,-1342"/>
<text text-anchor="middle" x="695.5" y="-1320.3" font-family="Times,serif" font-size="14.00" fill="#000000">ビックポイント</text>
</g>
<!-- ビックカメラSuicaカード&#45;&gt;ビックポイント -->
<g id="edge15" class="edge">
<title>ビックカメラSuicaカード&#45;&gt;ビックポイント</title>
<path fill="none" stroke="#000000" d="M334.2918,-1475.9704C350.5948,-1441.0233 392.0836,-1365.3616 455,-1341 510.0268,-1319.6933 577.3797,-1316.6976 626.7969,-1318.3072"/>
<polygon fill="#000000" stroke="#000000" points="626.9275,-1321.815 637.0588,-1318.7156 627.206,-1314.8206 626.9275,-1321.815"/>
<text text-anchor="middle" x="492" y="-1344.8" font-family="Times,serif" font-size="14.00" fill="#000000">0.5%</text>
</g>
<!-- ビックカメラ -->
<g id="node41" class="node">
<title>ビックカメラ</title>
<polygon fill="none" stroke="#000000" points="1059.5,-1372 958.5,-1372 958.5,-1336 1059.5,-1336 1059.5,-1372"/>
<text text-anchor="middle" x="1009" y="-1350.3" font-family="Times,serif" font-size="14.00" fill="#000000">ビックカメラ</text>
</g>
<!-- ビックカメラSuicaカード&#45;&gt;ビックカメラ -->
<g id="edge13" class="edge">
<title>ビックカメラSuicaカード&#45;&gt;ビックカメラ</title>
<path fill="none" stroke="#000000" stroke-width="2" stroke-dasharray="5,2" d="M338.4748,-1475.9693C362.9146,-1441.5782 422.1691,-1370 492,-1370 492,-1370 492,-1370 870,-1370 895.7184,-1370 923.9389,-1367.2633 948.193,-1364.0536"/>
<polygon fill="#000000" stroke="#000000" stroke-width="2" points="948.8981,-1367.4895 958.3259,-1362.6556 947.9413,-1360.5552 948.8981,-1367.4895"/>
</g>
<!-- EX予約 -->
<g id="node51" class="node">
<title>EX予約</title>
<polygon fill="none" stroke="#000000" points="1041.5,-1261 976.5,-1261 976.5,-1225 1041.5,-1225 1041.5,-1261"/>
<text text-anchor="middle" x="1009" y="-1239.3" font-family="Times,serif" font-size="14.00" fill="#000000">EX予約</text>
</g>
<!-- ビックカメラSuicaカード&#45;&gt;EX予約 -->
<g id="edge20" class="edge">
<title>ビックカメラSuicaカード&#45;&gt;EX予約</title>
<path fill="none" stroke="#000000" stroke-width="2" stroke-dasharray="5,2" d="M333.9438,-1475.9577C350.0263,-1439.4753 391.7481,-1357.1729 455,-1319 498.663,-1292.6492 843.8886,-1258.3534 966.2129,-1246.9083"/>
<polygon fill="#000000" stroke="#000000" stroke-width="2" points="966.6951,-1250.3786 976.3275,-1245.9665 966.0461,-1243.4087 966.6951,-1250.3786"/>
</g>
<!-- nanaco -->
<g id="node18" class="node">
<title>nanaco</title>
<polygon fill="none" stroke="#000000" points="525.5,-1212 458.5,-1212 458.5,-1176 525.5,-1176 525.5,-1212"/>
<text text-anchor="middle" x="492" y="-1190.3" font-family="Times,serif" font-size="14.00" fill="#000000">nanaco</text>
</g>
<!-- リクルートカード&#45;&gt;nanaco -->
<g id="edge55" class="edge">
<title>リクルートカード&#45;&gt;nanaco</title>
<path fill="none" stroke="#000000" stroke-width="2" d="M327.8475,-595.0062C334.7229,-682.9294 368.2416,-1066.7551 436,-1162 439.706,-1167.2094 444.5444,-1171.6868 449.8256,-1175.4996"/>
<polygon fill="#000000" stroke="#000000" stroke-width="2" points="448.0754,-1178.5344 458.3903,-1180.9538 451.8355,-1172.63 448.0754,-1178.5344"/>
</g>
<!-- Edy -->
<g id="node19" class="node">
<title>Edy</title>
<polygon fill="none" stroke="#000000" points="519,-798 465,-798 465,-762 519,-762 519,-798"/>
<text text-anchor="middle" x="492" y="-776.3" font-family="Times,serif" font-size="14.00" fill="#000000">Edy</text>
</g>
<!-- リクルートカード&#45;&gt;Edy -->
<g id="edge44" class="edge">
<title>リクルートカード&#45;&gt;Edy</title>
<path fill="none" stroke="#000000" stroke-width="2" d="M339.9109,-595.1434C360.1501,-622.3204 399.9695,-675.0011 436,-718 446.195,-730.1667 457.9073,-743.2615 467.9766,-754.2674"/>
<polygon fill="#000000" stroke="#000000" stroke-width="2" points="465.6257,-756.8814 474.973,-761.8691 470.7762,-752.1409 465.6257,-756.8814"/>
</g>
<!-- Ponta -->
<g id="node22" class="node">
<title>Ponta</title>
<polygon fill="none" stroke="#000000" points="724,-641 667,-641 667,-605 724,-605 724,-641"/>
<text text-anchor="middle" x="695.5" y="-619.3" font-family="Times,serif" font-size="14.00" fill="#000000">Ponta</text>
</g>
<!-- リクルートカード&#45;&gt;Ponta -->
<g id="edge50" class="edge">
<title>リクルートカード&#45;&gt;Ponta</title>
<path fill="none" stroke="#000000" d="M390.7642,-585.2652C405.6175,-587.162 421.3578,-589.1612 436,-591 514.2105,-600.8219 605.717,-612.0427 656.4963,-618.2454"/>
<polygon fill="#000000" stroke="#000000" points="656.344,-621.7527 666.6945,-619.4905 657.1924,-614.8043 656.344,-621.7527"/>
<text text-anchor="middle" x="492" y="-605.8" font-family="Times,serif" font-size="14.00" fill="#000000">1.2%</text>
</g>
<!-- ASAHIネット -->
<g id="node34" class="node">
<title>ASAHIネット</title>
<polygon fill="none" stroke="#000000" points="1062,-595 956,-595 956,-559 1062,-559 1062,-595"/>
<text text-anchor="middle" x="1009" y="-573.3" font-family="Times,serif" font-size="14.00" fill="#000000">ASAHIネット</text>
</g>
<!-- リクルートカード&#45;&gt;ASAHIネット -->
<g id="edge31" class="edge">
<title>リクルートカード&#45;&gt;ASAHIネット</title>
<path fill="none" stroke="#000000" stroke-width="2" d="M390.553,-577C421.2447,-577 458.5265,-577 492,-577 492,-577 492,-577 870,-577 894.6999,-577 921.8687,-577 945.5837,-577"/>
<polygon fill="#000000" stroke="#000000" stroke-width="2" points="945.8658,-580.5001 955.8658,-577 945.8658,-573.5001 945.8658,-580.5001"/>
</g>
<!-- 楽天モバイル -->
<g id="node35" class="node">
<title>楽天モバイル</title>
<polygon fill="none" stroke="#000000" points="1060,-1150 958,-1150 958,-1114 1060,-1114 1060,-1150"/>
<text text-anchor="middle" x="1009" y="-1128.3" font-family="Times,serif" font-size="14.00" fill="#000000">楽天モバイル</text>
</g>
<!-- リクルートカード&#45;&gt;楽天モバイル -->
<g id="edge40" class="edge">
<title>リクルートカード&#45;&gt;楽天モバイル</title>
<path fill="none" stroke="#000000" stroke-width="2" d="M327.7137,-595.032C334.7267,-692.0908 373.9513,-1148 492,-1148 492,-1148 492,-1148 870,-1148 895.6121,-1148 923.7058,-1145.2859 947.8921,-1142.0933"/>
<polygon fill="#000000" stroke="#000000" stroke-width="2" points="948.5704,-1145.5331 957.9999,-1140.7023 947.616,-1138.5984 948.5704,-1145.5331"/>
</g>
<!-- 楽天でんき -->
<g id="node36" class="node">
<title>楽天でんき</title>
<polygon fill="none" stroke="#000000" points="1053,-1039 965,-1039 965,-1003 1053,-1003 1053,-1039"/>
<text text-anchor="middle" x="1009" y="-1017.3" font-family="Times,serif" font-size="14.00" fill="#000000">楽天でんき</text>
</g>
<!-- リクルートカード&#45;&gt;楽天でんき -->
<g id="edge38" class="edge">
<title>リクルートカード&#45;&gt;楽天でんき</title>
<path fill="none" stroke="#000000" stroke-width="2" d="M329.1638,-595.2331C341.8697,-678.7823 399.5556,-1021 492,-1021 492,-1021 492,-1021 870,-1021 897.8908,-1021 928.9295,-1021 954.589,-1021"/>
<polygon fill="#000000" stroke="#000000" stroke-width="2" points="954.8663,-1024.5001 964.8662,-1021 954.8662,-1017.5001 954.8663,-1024.5001"/>
</g>
<!-- 関西電力 -->
<g id="node37" class="node">
<title>関西電力</title>
<polygon fill="none" stroke="#000000" points="1046,-541 972,-541 972,-505 1046,-505 1046,-541"/>
<text text-anchor="middle" x="1009" y="-519.3" font-family="Times,serif" font-size="14.00" fill="#000000">関西電力</text>
</g>
<!-- リクルートカード&#45;&gt;関西電力 -->
<g id="edge35" class="edge">
<title>リクルートカード&#45;&gt;関西電力</title>
<path fill="none" stroke="#000000" stroke-width="2" d="M377.9825,-558.8903C410.3007,-549.103 453.086,-539 492,-539 492,-539 492,-539 870,-539 900.8015,-539 935.192,-535.0746 962.0594,-531.1124"/>
<polygon fill="#000000" stroke="#000000" stroke-width="2" points="962.6078,-534.5693 971.965,-529.6002 961.5513,-527.6495 962.6078,-534.5693"/>
</g>
<!-- 楽天損保 -->
<g id="node38" class="node">
<title>楽天損保</title>
<polygon fill="none" stroke="#000000" points="1046,-446 972,-446 972,-410 1046,-410 1046,-446"/>
<text text-anchor="middle" x="1009" y="-424.3" font-family="Times,serif" font-size="14.00" fill="#000000">楽天損保</text>
</g>
<!-- リクルートカード&#45;&gt;楽天損保 -->
<g id="edge39" class="edge">
<title>リクルートカード&#45;&gt;楽天損保</title>
<path fill="none" stroke="#000000" stroke-width="2" d="M334.2531,-558.7117C353.8304,-515.7519 409.6373,-412 492,-412 492,-412 492,-412 870,-412 900.8015,-412 935.192,-415.9254 962.0594,-419.8876"/>
<polygon fill="#000000" stroke="#000000" stroke-width="2" points="961.5513,-423.3505 971.965,-421.3998 962.6078,-416.4307 961.5513,-423.3505"/>
</g>
<!-- 郵便局 -->
<g id="node39" class="node">
<title>郵便局</title>
<polygon fill="none" stroke="#000000" points="1038.5,-392 979.5,-392 979.5,-356 1038.5,-356 1038.5,-392"/>
<text text-anchor="middle" x="1009" y="-370.3" font-family="Times,serif" font-size="14.00" fill="#000000">郵便局</text>
</g>
<!-- リクルートカード&#45;&gt;郵便局 -->
<g id="edge61" class="edge">
<title>リクルートカード&#45;&gt;郵便局</title>
<path fill="none" stroke="#000000" stroke-width="2" d="M331.5771,-558.9851C346.7954,-509.3034 396.965,-374 492,-374 492,-374 492,-374 870,-374 903.4883,-374 941.5148,-374 969.319,-374"/>
<polygon fill="#000000" stroke="#000000" stroke-width="2" points="969.444,-377.5001 979.444,-374 969.444,-370.5001 969.444,-377.5001"/>
</g>
<!-- アイハート -->
<g id="node40" class="node">
<title>アイハート</title>
<polygon fill="none" stroke="#000000" points="1052,-338 966,-338 966,-302 1052,-302 1052,-338"/>
<text text-anchor="middle" x="1009" y="-316.3" font-family="Times,serif" font-size="14.00" fill="#000000">アイハート</text>
</g>
<!-- リクルートカード&#45;&gt;アイハート -->
<g id="edge34" class="edge">
<title>リクルートカード&#45;&gt;アイハート</title>
<path fill="none" stroke="#000000" stroke-width="2" d="M329.7889,-558.8858C341.11,-502.8385 383.8897,-336 492,-336 492,-336 492,-336 870,-336 898.5214,-336 930.12,-332.6343 955.9735,-328.9902"/>
<polygon fill="#000000" stroke="#000000" stroke-width="2" points="956.5567,-332.4422 965.9447,-327.5315 955.5434,-325.5159 956.5567,-332.4422"/>
</g>
<!-- Amazon -->
<g id="node50" class="node">
<title>Amazon</title>
<polygon fill="none" stroke="#000000" points="1045.5,-284 972.5,-284 972.5,-248 1045.5,-248 1045.5,-284"/>
<text text-anchor="middle" x="1009" y="-262.3" font-family="Times,serif" font-size="14.00" fill="#000000">Amazon</text>
</g>
<!-- リクルートカード&#45;&gt;Amazon -->
<g id="edge32" class="edge">
<title>リクルートカード&#45;&gt;Amazon</title>
<path fill="none" stroke="#000000" stroke-width="2" d="M328.4492,-558.694C336.1633,-496.624 370.3524,-298 492,-298 492,-298 492,-298 870,-298 901.3999,-298 935.796,-290.1492 962.5166,-282.2248"/>
<polygon fill="#000000" stroke="#000000" stroke-width="2" points="963.8286,-285.4833 972.3595,-279.2004 961.7725,-278.792 963.8286,-285.4833"/>
</g>
<!-- じゃらん -->
<g id="node52" class="node">
<title>じゃらん</title>
<polygon fill="none" stroke="#000000" points="1046,-690 972,-690 972,-654 1046,-654 1046,-690"/>
<text text-anchor="middle" x="1009" y="-668.3" font-family="Times,serif" font-size="14.00" fill="#000000">じゃらん</text>
</g>
<!-- リクルートカード&#45;&gt;じゃらん -->
<g id="edge33" class="edge">
<title>リクルートカード&#45;&gt;じゃらん</title>
<path fill="none" stroke="#000000" stroke-width="2" d="M338.1824,-595.196C362.3176,-630.3126 421.3759,-704 492,-704 492,-704 492,-704 870,-704 901.1803,-704 935.3151,-696.2586 961.9549,-688.3911"/>
<polygon fill="#000000" stroke="#000000" stroke-width="2" points="963.2381,-691.6587 971.7761,-685.3855 961.1896,-684.9651 963.2381,-691.6587"/>
</g>
<!-- メルカリ -->
<g id="node53" class="node">
<title>メルカリ</title>
<polygon fill="none" stroke="#000000" points="1046,-203 972,-203 972,-167 1046,-167 1046,-203"/>
<text text-anchor="middle" x="1009" y="-181.3" font-family="Times,serif" font-size="14.00" fill="#000000">メルカリ</text>
</g>
<!-- リクルートカード&#45;&gt;メルカリ -->
<g id="edge68" class="edge">
<title>リクルートカード&#45;&gt;メルカリ</title>
<path fill="none" stroke="#000000" stroke-width="2" d="M328.1351,-558.668C333.9496,-505.9396 358.7743,-353.8411 455,-294 516.4493,-255.7858 532.2586,-243.2997 602,-224 635.9455,-214.6062 861.8972,-196.336 961.7272,-188.5996"/>
<polygon fill="#000000" stroke="#000000" stroke-width="2" points="962.1372,-192.0785 971.838,-187.8187 961.5981,-185.0993 962.1372,-192.0785"/>
</g>
<!-- Suica&#45;&gt;JREポイント -->
<g id="edge21" class="edge">
<title>Suica&#45;&gt;JREポイント</title>
<path fill="none" stroke="#000000" d="M512.4504,-1512.2245C524.7719,-1522.8254 539.4891,-1534.7274 547,-1538 574.5574,-1550.0071 607.4261,-1555.6606 635.2268,-1558.2483"/>
<polygon fill="#000000" stroke="#000000" points="634.9677,-1561.7387 645.2206,-1559.069 635.5407,-1554.7622 634.9677,-1561.7387"/>
<text text-anchor="middle" x="565.5" y="-1552.8" font-family="Times,serif" font-size="14.00" fill="#000000">1.5%</text>
</g>
<!-- 電車 -->
<g id="node33" class="node">
<title>電車</title>
<polygon fill="none" stroke="#000000" points="1036,-1502 982,-1502 982,-1466 1036,-1466 1036,-1502"/>
<text text-anchor="middle" x="1009" y="-1480.3" font-family="Times,serif" font-size="14.00" fill="#000000">電車</text>
</g>
<!-- Suica&#45;&gt;電車 -->
<g id="edge18" class="edge">
<title>Suica&#45;&gt;電車</title>
<path fill="none" stroke="#000000" stroke-width="2" d="M520.1633,-1493.4553C607.3822,-1491.7682 873.0662,-1486.6293 971.6577,-1484.7223"/>
<polygon fill="#000000" stroke="#000000" stroke-width="2" points="971.8223,-1488.2199 981.7527,-1484.527 971.6869,-1481.2212 971.8223,-1488.2199"/>
</g>
<!-- 松屋 -->
<g id="node46" class="node">
<title>松屋</title>
<polygon fill="none" stroke="#000000" points="1036,-1426 982,-1426 982,-1390 1036,-1390 1036,-1426"/>
<text text-anchor="middle" x="1009" y="-1404.3" font-family="Times,serif" font-size="14.00" fill="#000000">松屋</text>
</g>
<!-- Suica&#45;&gt;松屋 -->
<g id="edge19" class="edge">
<title>Suica&#45;&gt;松屋</title>
<path fill="none" stroke="#000000" stroke-width="2" d="M520.0072,-1487.6149C577.2247,-1474.7594 711.7769,-1445.4939 826,-1428 876.1746,-1420.3155 934.5285,-1414.468 971.6008,-1411.1359"/>
<polygon fill="#000000" stroke="#000000" stroke-width="2" points="972.2758,-1414.59 981.9289,-1410.2233 971.6596,-1407.6172 972.2758,-1414.59"/>
</g>
<!-- 飲食店 -->
<g id="node44" class="node">
<title>飲食店</title>
<polygon fill="none" stroke="#000000" points="1038.5,-1740 979.5,-1740 979.5,-1704 1038.5,-1704 1038.5,-1740"/>
<text text-anchor="middle" x="1009" y="-1718.3" font-family="Times,serif" font-size="14.00" fill="#000000">飲食店</text>
</g>
<!-- 現金&#45;&gt;飲食店 -->
<g id="edge62" class="edge">
<title>現金&#45;&gt;飲食店</title>
<path fill="none" stroke="#000000" stroke-width="2" d="M505.4086,-1671.2304C515.3883,-1683.213 530.1556,-1697.9363 547,-1705 692.5131,-1766.0207 886.9903,-1743.3467 969.4159,-1729.5369"/>
<polygon fill="#000000" stroke="#000000" stroke-width="2" points="970.1049,-1732.9698 979.3644,-1727.8209 968.915,-1726.0717 970.1049,-1732.9698"/>
</g>
<!-- 理髪店 -->
<g id="node48" class="node">
<title>理髪店</title>
<polygon fill="none" stroke="#000000" points="1038.5,-1679 979.5,-1679 979.5,-1643 1038.5,-1643 1038.5,-1679"/>
<text text-anchor="middle" x="1009" y="-1657.3" font-family="Times,serif" font-size="14.00" fill="#000000">理髪店</text>
</g>
<!-- 現金&#45;&gt;理髪店 -->
<g id="edge63" class="edge">
<title>現金&#45;&gt;理髪店</title>
<path fill="none" stroke="#000000" stroke-width="2" d="M519.0682,-1653.4189C604.4514,-1654.7401 868.4057,-1658.8245 969.2633,-1660.3851"/>
<polygon fill="#000000" stroke="#000000" stroke-width="2" points="969.2903,-1663.8859 979.3433,-1660.5411 969.3986,-1656.8867 969.2903,-1663.8859"/>
</g>
<!-- クリーニング -->
<g id="node49" class="node">
<title>クリーニング</title>
<polygon fill="none" stroke="#000000" points="1059.5,-1625 958.5,-1625 958.5,-1589 1059.5,-1589 1059.5,-1625"/>
<text text-anchor="middle" x="1009" y="-1603.3" font-family="Times,serif" font-size="14.00" fill="#000000">クリーニング</text>
</g>
<!-- 現金&#45;&gt;クリーニング -->
<g id="edge64" class="edge">
<title>現金&#45;&gt;クリーニング</title>
<path fill="none" stroke="#000000" stroke-width="2" d="M519.0682,-1650.5916C599.0546,-1643.4748 835.7519,-1622.4147 948.2703,-1612.4034"/>
<polygon fill="#000000" stroke="#000000" stroke-width="2" points="948.7863,-1615.8714 958.4367,-1611.4989 948.1658,-1608.899 948.7863,-1615.8714"/>
</g>
<!-- nanacoポイント -->
<g id="node27" class="node">
<title>nanacoポイント</title>
<polygon fill="none" stroke="#000000" points="757.5,-1250 633.5,-1250 633.5,-1214 757.5,-1214 757.5,-1250"/>
<text text-anchor="middle" x="695.5" y="-1228.3" font-family="Times,serif" font-size="14.00" fill="#000000">nanacoポイント</text>
</g>
<!-- nanaco&#45;&gt;nanacoポイント -->
<g id="edge57" class="edge">
<title>nanaco&#45;&gt;nanacoポイント</title>
<path fill="none" stroke="#000000" d="M522.2365,-1212.13C530.055,-1216.0425 538.6333,-1219.6929 547,-1222 571.1938,-1228.6715 598.4047,-1231.7201 622.8609,-1232.9346"/>
<polygon fill="#000000" stroke="#000000" points="623.0243,-1236.4439 633.1567,-1233.348 623.3052,-1229.4495 623.0243,-1236.4439"/>
<text text-anchor="middle" x="565.5" y="-1232.8" font-family="Times,serif" font-size="14.00" fill="#000000">1%</text>
</g>
<!-- セブンイレブン -->
<g id="node32" class="node">
<title>セブンイレブン</title>
<polygon fill="none" stroke="#000000" points="1066,-1204 952,-1204 952,-1168 1066,-1168 1066,-1204"/>
<text text-anchor="middle" x="1009" y="-1182.3" font-family="Times,serif" font-size="14.00" fill="#000000">セブンイレブン</text>
</g>
<!-- nanaco&#45;&gt;セブンイレブン -->
<g id="edge56" class="edge">
<title>nanaco&#45;&gt;セブンイレブン</title>
<path fill="none" stroke="#000000" stroke-width="2" d="M525.5235,-1193.4813C609.3881,-1192.1835 829.5494,-1188.7768 941.5205,-1187.0442"/>
<polygon fill="#000000" stroke="#000000" stroke-width="2" points="941.7389,-1190.5413 951.6835,-1186.8869 941.6305,-1183.5421 941.7389,-1190.5413"/>
</g>
<!-- Edy&#45;&gt;楽天ポイント -->
<g id="edge49" class="edge">
<title>Edy&#45;&gt;楽天ポイント</title>
<path fill="none" stroke="#000000" d="M494.1348,-798.2087C498.8386,-832.2857 512.5522,-906.9464 547,-959 575.3395,-1001.8235 622.5572,-1037.9556 656.1376,-1060.1893"/>
<polygon fill="#000000" stroke="#000000" points="654.4978,-1063.2978 664.7901,-1065.8117 658.3119,-1057.4282 654.4978,-1063.2978"/>
<text text-anchor="middle" x="565.5" y="-1002.8" font-family="Times,serif" font-size="14.00" fill="#000000">0.5%</text>
</g>
<!-- ヨドバシカメラ -->
<g id="node42" class="node">
<title>ヨドバシカメラ</title>
<polygon fill="none" stroke="#000000" points="1067,-963 951,-963 951,-927 1067,-927 1067,-963"/>
<text text-anchor="middle" x="1009" y="-941.3" font-family="Times,serif" font-size="14.00" fill="#000000">ヨドバシカメラ</text>
</g>
<!-- Edy&#45;&gt;ヨドバシカメラ -->
<g id="edge45" class="edge">
<title>Edy&#45;&gt;ヨドバシカメラ</title>
<path fill="none" stroke="#000000" stroke-width="2" d="M501.5528,-798.4471C517.783,-827.6498 553.736,-883.7925 602,-909 710.0013,-965.4072 856.3021,-962.3268 940.8851,-954.1928"/>
<polygon fill="#000000" stroke="#000000" stroke-width="2" points="941.2912,-957.6697 950.8874,-953.1795 940.5855,-950.7053 941.2912,-957.6697"/>
</g>
<!-- 餃子の王将 -->
<g id="node43" class="node">
<title>餃子の王将</title>
<polygon fill="none" stroke="#000000" points="1053,-852 965,-852 965,-816 1053,-816 1053,-852"/>
<text text-anchor="middle" x="1009" y="-830.3" font-family="Times,serif" font-size="14.00" fill="#000000">餃子の王将</text>
</g>
<!-- Edy&#45;&gt;餃子の王将 -->
<g id="edge60" class="edge">
<title>Edy&#45;&gt;餃子の王将</title>
<path fill="none" stroke="#000000" stroke-width="2" d="M519.2288,-787.865C528.0271,-790.1546 537.8682,-792.4531 547,-794 693.0701,-818.7445 867.8627,-828.5835 954.6088,-832.1601"/>
<polygon fill="#000000" stroke="#000000" stroke-width="2" points="954.6113,-835.6629 964.7433,-832.5658 954.8913,-828.6685 954.6113,-835.6629"/>
</g>
<!-- 業務スーパー -->
<g id="node45" class="node">
<title>業務スーパー</title>
<polygon fill="none" stroke="#000000" points="1060,-798 958,-798 958,-762 1060,-762 1060,-798"/>
<text text-anchor="middle" x="1009" y="-776.3" font-family="Times,serif" font-size="14.00" fill="#000000">業務スーパー</text>
</g>
<!-- Edy&#45;&gt;業務スーパー -->
<g id="edge59" class="edge">
<title>Edy&#45;&gt;業務スーパー</title>
<path fill="none" stroke="#000000" stroke-width="2" d="M519.0682,-780C598.8531,-780 834.5605,-780 947.4177,-780"/>
<polygon fill="#000000" stroke="#000000" stroke-width="2" points="947.6198,-783.5001 957.6197,-780 947.6197,-776.5001 947.6198,-783.5001"/>
</g>
<!-- 吉野家 -->
<g id="node47" class="node">
<title>吉野家</title>
<polygon fill="none" stroke="#000000" points="1038.5,-744 979.5,-744 979.5,-708 1038.5,-708 1038.5,-744"/>
<text text-anchor="middle" x="1009" y="-722.3" font-family="Times,serif" font-size="14.00" fill="#000000">吉野家</text>
</g>
<!-- Edy&#45;&gt;吉野家 -->
<g id="edge48" class="edge">
<title>Edy&#45;&gt;吉野家</title>
<path fill="none" stroke="#000000" stroke-width="2" d="M519.0682,-777.1728C604.4514,-768.2546 868.4057,-740.6849 969.2633,-730.1504"/>
<polygon fill="#000000" stroke="#000000" stroke-width="2" points="969.761,-733.6176 979.3433,-729.0976 969.0337,-726.6555 969.761,-733.6176"/>
</g>
<!-- PayPay&#45;&gt;飲食店 -->
<g id="edge11" class="edge">
<title>PayPay&#45;&gt;飲食店</title>
<path fill="none" stroke="#000000" stroke-width="2" d="M526.3222,-1607.1656C618.5683,-1629.112 871.4748,-1689.2812 969.4742,-1712.5964"/>
<polygon fill="#000000" stroke="#000000" stroke-width="2" points="968.744,-1716.0203 979.2825,-1714.9299 970.3642,-1709.2103 968.744,-1716.0203"/>
</g>
<!-- メルペイ&#45;&gt;三井住友銀行 -->
<g id="edge67" class="edge">
<title>メルペイ&#45;&gt;三井住友銀行</title>
<path fill="none" stroke="#000000" stroke-width="2" d="M454.7124,-173.604C448.009,-176.1413 441.4354,-179.5159 436,-184 292.8454,-302.1002 284.7318,-371.205 235,-550 180.4074,-746.2705 261.2522,-1272.3466 198,-1466 192.0759,-1484.1373 180.4886,-1501.9808 169.8542,-1515.8157"/>
<polygon fill="#000000" stroke="#000000" stroke-width="2" points="166.9205,-1513.8805 163.415,-1523.8786 172.3903,-1518.2487 166.9205,-1513.8805"/>
</g>
<!-- メルペイ&#45;&gt;メルカリ -->
<g id="edge66" class="edge">
<title>メルペイ&#45;&gt;メルカリ</title>
<path fill="none" stroke="#000000" stroke-width="2" d="M529.1814,-167.3664C621.2926,-170.7516 859.9576,-179.5226 961.8105,-183.2658"/>
<polygon fill="#000000" stroke="#000000" stroke-width="2" points="961.6871,-186.7635 971.8089,-183.6332 961.9442,-179.7682 961.6871,-186.7635"/>
</g>
<!-- Ponta&#45;&gt;じゃらん -->
<g id="edge51" class="edge">
<title>Ponta&#45;&gt;じゃらん</title>
<path fill="none" stroke="#000000" d="M724.1521,-627.4783C778.2436,-635.9328 895.8737,-654.3184 961.7992,-664.6225"/>
<polygon fill="#000000" stroke="#000000" points="961.4977,-668.1178 971.9182,-666.2041 962.5787,-661.2018 961.4977,-668.1178"/>
</g>
<!-- 楽天ポイント&#45;&gt;楽天モバイル -->
<g id="edge42" class="edge">
<title>楽天ポイント&#45;&gt;楽天モバイル</title>
<path fill="none" stroke="#000000" d="M746.5669,-1091.8189C801.5622,-1100.2392 889.0445,-1113.6336 947.7123,-1122.6162"/>
<polygon fill="#000000" stroke="#000000" points="947.5404,-1126.1306 957.9549,-1124.1845 948.5999,-1119.2113 947.5404,-1126.1306"/>
</g>
<!-- 楽天ポイント&#45;&gt;楽天でんき -->
<g id="edge43" class="edge">
<title>楽天ポイント&#45;&gt;楽天でんき</title>
<path fill="none" stroke="#000000" d="M737.2312,-1065.9614C783.7264,-1046.9262 861.6328,-1018.1666 932,-1007 939.3712,-1005.8303 947.1242,-1005.8071 954.7558,-1006.4922"/>
<polygon fill="#000000" stroke="#000000" points="954.3121,-1009.9639 964.676,-1007.7641 955.2024,-1003.0207 954.3121,-1009.9639"/>
</g>
<!-- JREポイント&#45;&gt;Suica -->
<g id="edge22" class="edge">
<title>JREポイント&#45;&gt;Suica</title>
<path fill="none" stroke="#000000" d="M645.2166,-1544.4434C616.4061,-1535.4406 579.6042,-1523.7892 547,-1513 541.4088,-1511.1498 535.512,-1509.157 529.7386,-1507.1824"/>
<polygon fill="#000000" stroke="#000000" points="530.8095,-1503.8496 520.2148,-1503.9051 528.5317,-1510.4686 530.8095,-1503.8496"/>
</g>
<!-- ビックポイント&#45;&gt;ビックカメラ -->
<g id="edge16" class="edge">
<title>ビックポイント&#45;&gt;ビックカメラ</title>
<path fill="none" stroke="#000000" d="M753.7322,-1329.5725C809.0761,-1334.8685 891.9746,-1342.8014 948.1633,-1348.1783"/>
<polygon fill="#000000" stroke="#000000" points="948.0435,-1351.6827 958.3314,-1349.1513 948.7103,-1344.7146 948.0435,-1351.6827"/>
</g>
<!-- Amazonポイント -->
<g id="node26" class="node">
<title>Amazonポイント</title>
<polygon fill="none" stroke="#000000" points="760.5,-269 630.5,-269 630.5,-233 760.5,-233 760.5,-269"/>
<text text-anchor="middle" x="695.5" y="-247.3" font-family="Times,serif" font-size="14.00" fill="#000000">Amazonポイント</text>
</g>
<!-- Amazonポイント&#45;&gt;Amazon -->
<g id="edge54" class="edge">
<title>Amazonポイント&#45;&gt;Amazon</title>
<path fill="none" stroke="#000000" d="M760.8383,-248.5226C820.8976,-249.6844 908.478,-254.0802 961.9354,-258.7604"/>
<polygon fill="#000000" stroke="#000000" points="961.8753,-262.2696 972.1537,-259.6994 962.5159,-255.299 961.8753,-262.2696"/>
</g>
<!-- nanacoポイント&#45;&gt;nanaco -->
<g id="edge58" class="edge">
<title>nanacoポイント&#45;&gt;nanaco</title>
<path fill="none" stroke="#000000" d="M633.463,-1220.4157C601.8566,-1214.5138 564.1862,-1207.4795 535.6682,-1202.1543"/>
<polygon fill="#000000" stroke="#000000" points="536.0765,-1198.6701 525.6039,-1200.2749 534.7915,-1205.5511 536.0765,-1198.6701"/>
</g>
<!-- ヨドバシゴールドポイント -->
<g id="node28" class="node">
<title>ヨドバシゴールドポイント</title>
<polygon fill="none" stroke="#000000" points="789,-900 602,-900 602,-864 789,-864 789,-900"/>
<text text-anchor="middle" x="695.5" y="-878.3" font-family="Times,serif" font-size="14.00" fill="#000000">ヨドバシゴールドポイント</text>
</g>
<!-- ヨドバシゴールドポイント&#45;&gt;ヨドバシカメラ -->
<g id="edge47" class="edge">
<title>ヨドバシゴールドポイント&#45;&gt;ヨドバシカメラ</title>
<path fill="none" stroke="#000000" d="M785.3365,-900.0533C834.7911,-909.9915 895.1853,-922.1282 940.7451,-931.2837"/>
<polygon fill="#000000" stroke="#000000" points="940.3229,-934.7688 950.8164,-933.3076 941.702,-927.906 940.3229,-934.7688"/>
</g>
<!-- はぴeポイント -->
<g id="node29" class="node">
<title>はぴeポイント</title>
<polygon fill="none" stroke="#000000" points="750.5,-494 640.5,-494 640.5,-458 750.5,-458 750.5,-494"/>
<text text-anchor="middle" x="695.5" y="-472.3" font-family="Times,serif" font-size="14.00" fill="#000000">はぴeポイント</text>
</g>
<!-- はぴeポイント&#45;&gt;関西電力 -->
<g id="edge37" class="edge">
<title>はぴeポイント&#45;&gt;関西電力</title>
<path fill="none" stroke="#000000" d="M750.8259,-484.2945C810.7299,-493.2753 905.2677,-507.4484 961.7953,-515.9231"/>
<polygon fill="#000000" stroke="#000000" points="961.4826,-519.4152 971.891,-517.4366 962.5205,-512.4926 961.4826,-519.4152"/>
</g>
<!-- 株主優待券&#45;&gt;住信SBI銀行 -->
<g id="edge30" class="edge">
<title>株主優待券&#45;&gt;住信SBI銀行</title>
<path fill="none" stroke="#000000" d="M825.5735,-1457.4765C701.0412,-1458.9439 348.4783,-1451.2994 206.919,-1444.2587"/>
<polygon fill="#000000" stroke="#000000" points="206.8617,-1440.7512 196.6947,-1443.7314 206.5011,-1447.7419 206.8617,-1440.7512"/>
</g>
<!-- 株主優待券&#45;&gt;電車 -->
<g id="edge29" class="edge">
<title>株主優待券&#45;&gt;電車</title>
<path fill="none" stroke="#000000" stroke-width="2" d="M914.3626,-1464.2555C932.8265,-1468.1077 954.0259,-1472.5306 971.6739,-1476.2125"/>
<polygon fill="#000000" stroke="#000000" stroke-width="2" points="971.1027,-1479.6687 981.6068,-1478.2849 972.5324,-1472.8162 971.1027,-1479.6687"/>
</g>
<!-- 楽天モバイル&#45;&gt;楽天ポイント -->
<g id="edge41" class="edge">
<title>楽天モバイル&#45;&gt;楽天ポイント</title>
<path fill="none" stroke="#000000" d="M983.4207,-1113.7551C965.0733,-1101.8355 939.2345,-1087.3452 914,-1081 862.1171,-1067.9541 801.094,-1070.1909 756.7429,-1074.8322"/>
<polygon fill="#000000" stroke="#000000" points="756.2441,-1071.3661 746.6944,-1075.9545 757.0212,-1078.3228 756.2441,-1071.3661"/>
<text text-anchor="middle" x="870" y="-1084.8" font-family="Times,serif" font-size="14.00" fill="#000000">0.5%</text>
</g>
<!-- 関西電力&#45;&gt;はぴeポイント -->
<g id="edge36" class="edge">
<title>関西電力&#45;&gt;はぴeポイント</title>
<path fill="none" stroke="#000000" d="M983.4207,-504.7551C965.0733,-492.8355 939.2345,-478.3452 914,-472 863.6494,-459.3394 804.6957,-461.3567 760.7227,-465.9778"/>
<polygon fill="#000000" stroke="#000000" points="760.2779,-462.5056 750.7308,-467.0993 761.0588,-469.462 760.2779,-462.5056"/>
<text text-anchor="middle" x="870" y="-475.8" font-family="Times,serif" font-size="14.00" fill="#000000">0.5%</text>
</g>
<!-- ビックカメラ&#45;&gt;ビックポイント -->
<g id="edge14" class="edge">
<title>ビックカメラ&#45;&gt;ビックポイント</title>
<path fill="none" stroke="#000000" stroke-dasharray="5,2" d="M983.4207,-1335.7551C965.0733,-1323.8355 939.2345,-1309.3452 914,-1303 864.626,-1290.5849 807.28,-1296.8464 763.7283,-1305.6726"/>
<polygon fill="#000000" stroke="#000000" points="762.8694,-1302.2768 753.8124,-1307.7742 764.3208,-1309.1247 762.8694,-1302.2768"/>
<text text-anchor="middle" x="870" y="-1306.8" font-family="Times,serif" font-size="14.00" fill="#000000">9.5%</text>
</g>
<!-- ヨドバシカメラ&#45;&gt;ヨドバシゴールドポイント -->
<g id="edge46" class="edge">
<title>ヨドバシカメラ&#45;&gt;ヨドバシゴールドポイント</title>
<path fill="none" stroke="#000000" d="M990.9173,-926.9878C973.0913,-910.6086 944.2034,-887.5793 914,-878 877.7198,-866.4934 836.3207,-864.6192 799.3858,-866.5951"/>
<polygon fill="#000000" stroke="#000000" points="798.8522,-863.1218 789.0946,-867.2496 799.2966,-870.1077 798.8522,-863.1218"/>
<text text-anchor="middle" x="870" y="-881.8" font-family="Times,serif" font-size="14.00" fill="#000000">10%</text>
</g>
<!-- Amazon&#45;&gt;Amazonポイント -->
<g id="edge53" class="edge">
<title>Amazon&#45;&gt;Amazonポイント</title>
<path fill="none" stroke="#000000" d="M972.1537,-268.7746C922.912,-268.8264 834.476,-265.0374 770.8304,-260.4692"/>
<polygon fill="#000000" stroke="#000000" points="771.0693,-256.9774 760.8383,-259.7299 770.5527,-263.9584 771.0693,-256.9774"/>
</g>
<!-- じゃらん&#45;&gt;Ponta -->
<g id="edge52" class="edge">
<title>じゃらん&#45;&gt;Ponta</title>
<path fill="none" stroke="#000000" d="M981.6477,-653.8795C963.3459,-642.8671 938.2536,-629.838 914,-624 852.5412,-609.2065 778.511,-613.2486 734.3173,-617.873"/>
<polygon fill="#000000" stroke="#000000" points="733.8381,-614.4046 724.2855,-618.987 734.6108,-621.3618 733.8381,-614.4046"/>
<text text-anchor="middle" x="870" y="-627.8" font-family="Times,serif" font-size="14.00" fill="#000000">2%</text>
</g>
</g>
</svg>
