<?xml version="1.0" encoding="UTF-8" standalone="no"?>
<!DOCTYPE svg PUBLIC "-//W3C//DTD SVG 1.1//EN"
 "http://www.w3.org/Graphics/SVG/1.1/DTD/svg11.dtd">
<!-- Generated by graphviz version 2.42.4 (0)
 -->
<!-- Title: MoneyFlow Pages: 1 -->
<svg width="1075pt" height="1790pt"
 viewBox="0.00 0.00 1075.00 1790.00" xmlns="http://www.w3.org/2000/svg" xmlns:xlink="http://www.w3.org/1999/xlink">
<g id="graph0" class="graph" transform="scale(1 1) rotate(0) translate(4 1786)">
<title>MoneyFlow</title>
<polygon fill="white" stroke="transparent" points="-4,4 -4,-1786 1071,-1786 1071,4 -4,4"/>
<!-- 収入 -->
<g id="node1" class="node">
<title>収入</title>
<text text-anchor="middle" x="29.5" y="-14.3" font-family="Times,serif" font-size="14.00">収入</text>
</g>
<!-- 銀行口座 -->
<g id="node2" class="node">
<title>銀行口座</title>
<text text-anchor="middle" x="147" y="-14.3" font-family="Times,serif" font-size="14.00">銀行口座</text>
</g>
<!-- 収入&#45;&gt;銀行口座 -->
<g id="edge1" class="edge">
<title>収入&#45;&gt;銀行口座</title>
<path fill="none" stroke="black" d="M56.71,-18C72.42,-18 92.61,-18 109.83,-18"/>
</g>
<!-- クレジットカード -->
<g id="node3" class="node">
<title>クレジットカード</title>
<text text-anchor="middle" x="326.5" y="-14.3" font-family="Times,serif" font-size="14.00">クレジットカード</text>
</g>
<!-- 銀行口座&#45;&gt;クレジットカード -->
<g id="edge2" class="edge">
<title>銀行口座&#45;&gt;クレジットカード</title>
<path fill="none" stroke="black" d="M184.35,-18C206.66,-18 235.86,-18 261.91,-18"/>
</g>
<!-- マネー -->
<g id="node4" class="node">
<title>マネー</title>
<text text-anchor="middle" x="492" y="-14.3" font-family="Times,serif" font-size="14.00">マネー</text>
</g>
<!-- クレジットカード&#45;&gt;マネー -->
<g id="edge3" class="edge">
<title>クレジットカード&#45;&gt;マネー</title>
<path fill="none" stroke="black" d="M391.18,-18C415.75,-18 442.61,-18 462.27,-18"/>
</g>
<!-- ポイント -->
<g id="node5" class="node">
<title>ポイント</title>
<text text-anchor="middle" x="695.5" y="-14.3" font-family="Times,serif" font-size="14.00">ポイント</text>
</g>
<!-- マネー&#45;&gt;ポイント -->
<g id="edge4" class="edge">
<title>マネー&#45;&gt;ポイント</title>
<path fill="none" stroke="black" d="M521.87,-18C557.78,-18 619.11,-18 658.18,-18"/>
</g>
<!-- 金券 -->
<g id="node6" class="node">
<title>金券</title>
<text text-anchor="middle" x="870" y="-14.3" font-family="Times,serif" font-size="14.00">金券</text>
</g>
<!-- ポイント&#45;&gt;金券 -->
<g id="edge5" class="edge">
<title>ポイント&#45;&gt;金券</title>
<path fill="none" stroke="black" d="M732.66,-18C765.66,-18 813.62,-18 842.99,-18"/>
</g>
<!-- 支出 -->
<g id="node7" class="node">
<title>支出</title>
<text text-anchor="middle" x="1009" y="-14.3" font-family="Times,serif" font-size="14.00">支出</text>
</g>
<!-- 金券&#45;&gt;支出 -->
<g id="edge6" class="edge">
<title>金券&#45;&gt;支出</title>
<path fill="none" stroke="black" d="M897.09,-18C921.31,-18 957.2,-18 981.54,-18"/>
</g>
<!-- 給与 -->
<g id="node8" class="node">
<title>給与</title>
<polygon fill="none" stroke="black" points="56.5,-1653 2.5,-1653 2.5,-1617 56.5,-1617 56.5,-1653"/>
<text text-anchor="middle" x="29.5" y="-1631.3" font-family="Times,serif" font-size="14.00">給与</text>
</g>
<!-- 三井住友銀行 -->
<g id="node11" class="node">
<title>三井住友銀行</title>
<polygon fill="none" stroke="black" points="198,-1653 96,-1653 96,-1617 198,-1617 198,-1653"/>
<text text-anchor="middle" x="147" y="-1631.3" font-family="Times,serif" font-size="14.00">三井住友銀行</text>
</g>
<!-- 給与&#45;&gt;三井住友銀行 -->
<g id="edge7" class="edge">
<title>給与&#45;&gt;三井住友銀行</title>
<path fill="none" stroke="black" stroke-width="2" d="M56.71,-1635C65.39,-1635 75.45,-1635 85.62,-1635"/>
<polygon fill="black" stroke="black" stroke-width="2" points="85.78,-1638.5 95.78,-1635 85.78,-1631.5 85.78,-1638.5"/>
</g>
<!-- 譲渡 -->
<g id="node9" class="node">
<title>譲渡</title>
<polygon fill="none" stroke="black" points="56.5,-1242 2.5,-1242 2.5,-1206 56.5,-1206 56.5,-1242"/>
<text text-anchor="middle" x="29.5" y="-1220.3" font-family="Times,serif" font-size="14.00">譲渡</text>
</g>
<!-- メルペイ -->
<g id="node21" class="node">
<title>メルペイ</title>
<polygon fill="none" stroke="black" points="529,-1242 455,-1242 455,-1206 529,-1206 529,-1242"/>
<text text-anchor="middle" x="492" y="-1220.3" font-family="Times,serif" font-size="14.00">メルペイ</text>
</g>
<!-- 譲渡&#45;&gt;メルペイ -->
<g id="edge67" class="edge">
<title>譲渡&#45;&gt;メルペイ</title>
<path fill="none" stroke="black" stroke-width="2" d="M56.58,-1224C131.58,-1224 348.63,-1224 444.52,-1224"/>
<polygon fill="black" stroke="black" stroke-width="2" points="444.78,-1227.5 454.78,-1224 444.78,-1220.5 444.78,-1227.5"/>
</g>
<!-- 雑収入 -->
<g id="node10" class="node">
<title>雑収入</title>
<polygon fill="none" stroke="black" points="59,-353 0,-353 0,-317 59,-317 59,-353"/>
<text text-anchor="middle" x="29.5" y="-331.3" font-family="Times,serif" font-size="14.00">雑収入</text>
</g>
<!-- Ponta -->
<g id="node22" class="node">
<title>Ponta</title>
<polygon fill="none" stroke="black" points="724,-90 667,-90 667,-54 724,-54 724,-90"/>
<text text-anchor="middle" x="695.5" y="-68.3" font-family="Times,serif" font-size="14.00">Ponta</text>
</g>
<!-- 雑収入&#45;&gt;Ponta -->
<g id="edge72" class="edge">
<title>雑収入&#45;&gt;Ponta</title>
<path fill="none" stroke="black" stroke-width="2" d="M30.19,-316.92C30.19,-257.5 38.78,-72 146,-72 146,-72 146,-72 493,-72 550,-72 616.07,-72 656.57,-72"/>
<polygon fill="black" stroke="black" stroke-width="2" points="656.8,-75.5 666.8,-72 656.8,-68.5 656.8,-75.5"/>
</g>
<!-- 楽天ポイント -->
<g id="node23" class="node">
<title>楽天ポイント</title>
<polygon fill="none" stroke="black" points="746.5,-703 644.5,-703 644.5,-667 746.5,-667 746.5,-703"/>
<text text-anchor="middle" x="695.5" y="-681.3" font-family="Times,serif" font-size="14.00">楽天ポイント</text>
</g>
<!-- 雑収入&#45;&gt;楽天ポイント -->
<g id="edge71" class="edge">
<title>雑収入&#45;&gt;楽天ポイント</title>
<path fill="none" stroke="black" stroke-width="2" d="M30.21,-353.01C30.3,-412.2 39.12,-597 146,-597 146,-597 146,-597 493,-597 557.14,-597 623.89,-634.91 662.19,-660.97"/>
<polygon fill="black" stroke="black" stroke-width="2" points="660.63,-664.14 670.84,-666.98 664.63,-658.4 660.63,-664.14"/>
</g>
<!-- 住信SBI銀行 -->
<g id="node12" class="node">
<title>住信SBI銀行</title>
<polygon fill="none" stroke="black" points="196.5,-1581 97.5,-1581 97.5,-1545 196.5,-1545 196.5,-1581"/>
<text text-anchor="middle" x="147" y="-1559.3" font-family="Times,serif" font-size="14.00">住信SBI銀行</text>
</g>
<!-- 三井住友銀行&#45;&gt;住信SBI銀行 -->
<g id="edge9" class="edge">
<title>三井住友銀行&#45;&gt;住信SBI銀行</title>
<path fill="none" stroke="black" stroke-width="2" d="M147,-1616.95C147,-1608.41 147,-1599.86 147,-1591.31"/>
<polygon fill="black" stroke="black" stroke-width="2" points="150.5,-1591.28 147,-1581.28 143.5,-1591.28 150.5,-1591.28"/>
</g>
<!-- 現金 -->
<g id="node17" class="node">
<title>現金</title>
<polygon fill="none" stroke="black" points="519,-1690 465,-1690 465,-1654 519,-1654 519,-1690"/>
<text text-anchor="middle" x="492" y="-1668.3" font-family="Times,serif" font-size="14.00">現金</text>
</g>
<!-- 三井住友銀行&#45;&gt;現金 -->
<g id="edge8" class="edge">
<title>三井住友銀行&#45;&gt;現金</title>
<path fill="none" stroke="black" stroke-width="2" d="M188.71,-1653.02C197.55,-1656.23 206.96,-1659.14 216,-1661 300.07,-1678.27 401.55,-1676.72 454.62,-1674.26"/>
<polygon fill="black" stroke="black" stroke-width="2" points="455.07,-1677.74 464.88,-1673.74 454.72,-1670.75 455.07,-1677.74"/>
</g>
<!-- ビックカメラSuicaカード -->
<g id="node13" class="node">
<title>ビックカメラSuicaカード</title>
<polygon fill="none" stroke="black" points="418,-1413 235,-1413 235,-1377 418,-1377 418,-1413"/>
<text text-anchor="middle" x="326.5" y="-1391.3" font-family="Times,serif" font-size="14.00">ビックカメラSuicaカード</text>
</g>
<!-- 住信SBI銀行&#45;&gt;ビックカメラSuicaカード -->
<g id="edge23" class="edge">
<title>住信SBI銀行&#45;&gt;ビックカメラSuicaカード</title>
<path fill="none" stroke="black" stroke-width="2" d="M162.33,-1544.9C175.58,-1528.59 196.15,-1504.28 216,-1485 240.42,-1461.28 270.42,-1436.92 292.84,-1419.53"/>
<polygon fill="black" stroke="black" stroke-width="2" points="295.24,-1422.1 301.03,-1413.23 290.97,-1416.55 295.24,-1422.1"/>
</g>
<!-- リクルートカード -->
<g id="node14" class="node">
<title>リクルートカード</title>
<polygon fill="none" stroke="black" points="390.5,-781 262.5,-781 262.5,-745 390.5,-745 390.5,-781"/>
<text text-anchor="middle" x="326.5" y="-759.3" font-family="Times,serif" font-size="14.00">リクルートカード</text>
</g>
<!-- 住信SBI銀行&#45;&gt;リクルートカード -->
<g id="edge24" class="edge">
<title>住信SBI銀行&#45;&gt;リクルートカード</title>
<path fill="none" stroke="black" stroke-width="2" d="M152.04,-1544.79C175.2,-1440.39 291.08,-918.13 319.3,-790.96"/>
<polygon fill="black" stroke="black" stroke-width="2" points="322.72,-791.7 321.47,-781.18 315.88,-790.19 322.72,-791.7"/>
</g>
<!-- PiTaPa -->
<g id="node15" class="node">
<title>PiTaPa</title>
<polygon fill="none" stroke="black" points="359,-1581 294,-1581 294,-1545 359,-1545 359,-1581"/>
<text text-anchor="middle" x="326.5" y="-1559.3" font-family="Times,serif" font-size="14.00">PiTaPa</text>
</g>
<!-- 住信SBI銀行&#45;&gt;PiTaPa -->
<g id="edge25" class="edge">
<title>住信SBI銀行&#45;&gt;PiTaPa</title>
<path fill="none" stroke="black" stroke-width="2" d="M196.5,-1563C223.75,-1563 257.41,-1563 283.52,-1563"/>
<polygon fill="black" stroke="black" stroke-width="2" points="283.84,-1566.5 293.84,-1563 283.84,-1559.5 283.84,-1566.5"/>
</g>
<!-- 住信SBI銀行&#45;&gt;現金 -->
<g id="edge21" class="edge">
<title>住信SBI銀行&#45;&gt;現金</title>
<path fill="none" stroke="black" stroke-width="2" d="M176.05,-1581.03C192.66,-1591.04 214.41,-1603.04 235,-1611 310.59,-1640.23 404.33,-1658.24 454.78,-1666.55"/>
<polygon fill="black" stroke="black" stroke-width="2" points="454.44,-1670.04 464.87,-1668.17 455.56,-1663.12 454.44,-1670.04"/>
</g>
<!-- PayPay -->
<g id="node20" class="node">
<title>PayPay</title>
<polygon fill="none" stroke="black" points="526,-1620 458,-1620 458,-1584 526,-1584 526,-1620"/>
<text text-anchor="middle" x="492" y="-1598.3" font-family="Times,serif" font-size="14.00">PayPay</text>
</g>
<!-- 住信SBI銀行&#45;&gt;PayPay -->
<g id="edge26" class="edge">
<title>住信SBI銀行&#45;&gt;PayPay</title>
<path fill="none" stroke="black" stroke-width="2" d="M196.69,-1580.49C209.04,-1584.27 222.38,-1587.78 235,-1590 309,-1603 396.76,-1604.07 447.94,-1603.29"/>
<polygon fill="black" stroke="black" stroke-width="2" points="448.04,-1606.79 457.97,-1603.11 447.91,-1599.79 448.04,-1606.79"/>
</g>
<!-- 株主優待券 -->
<g id="node30" class="node">
<title>株主優待券</title>
<polygon fill="none" stroke="black" points="914,-1567 826,-1567 826,-1531 914,-1531 914,-1567"/>
<text text-anchor="middle" x="870" y="-1545.3" font-family="Times,serif" font-size="14.00">株主優待券</text>
</g>
<!-- 住信SBI銀行&#45;&gt;株主優待券 -->
<g id="edge28" class="edge">
<title>住信SBI銀行&#45;&gt;株主優待券</title>
<path fill="none" stroke="black" stroke-width="2" d="M174.17,-1544.9C191.19,-1537.43 214.05,-1530.18 235,-1527 448,-1494.71 705.82,-1519.38 815.48,-1536.82"/>
<polygon fill="black" stroke="black" stroke-width="2" points="815.19,-1540.32 825.62,-1538.48 816.32,-1533.41 815.19,-1540.32"/>
</g>
<!-- 家賃 -->
<g id="node31" class="node">
<title>家賃</title>
<polygon fill="none" stroke="black" points="1036,-1782 982,-1782 982,-1746 1036,-1746 1036,-1782"/>
<text text-anchor="middle" x="1009" y="-1760.3" font-family="Times,serif" font-size="14.00">家賃</text>
</g>
<!-- 住信SBI銀行&#45;&gt;家賃 -->
<g id="edge22" class="edge">
<title>住信SBI銀行&#45;&gt;家賃</title>
<path fill="none" stroke="black" stroke-width="2" d="M169.42,-1581.3C178.46,-1589.28 188.96,-1598.87 198,-1608 215.5,-1625.68 214.57,-1635.81 235,-1650 335.06,-1719.5 369.17,-1748 491,-1748 491,-1748 491,-1748 871,-1748 905.4,-1748 944.33,-1753.04 971.88,-1757.46"/>
<polygon fill="black" stroke="black" stroke-width="2" points="971.4,-1760.93 981.84,-1759.11 972.55,-1754.02 971.4,-1760.93"/>
</g>
<!-- Suica -->
<g id="node16" class="node">
<title>Suica</title>
<polygon fill="none" stroke="black" points="520,-1487 464,-1487 464,-1451 520,-1451 520,-1487"/>
<text text-anchor="middle" x="492" y="-1465.3" font-family="Times,serif" font-size="14.00">Suica</text>
</g>
<!-- ビックカメラSuicaカード&#45;&gt;Suica -->
<g id="edge15" class="edge">
<title>ビックカメラSuicaカード&#45;&gt;Suica</title>
<path fill="none" stroke="black" stroke-width="2" d="M367.5,-1413.1C393.99,-1425.09 428.47,-1440.7 454.27,-1452.38"/>
<polygon fill="black" stroke="black" stroke-width="2" points="453.14,-1455.71 463.69,-1456.64 456.03,-1449.33 453.14,-1455.71"/>
</g>
<!-- JREポイント -->
<g id="node24" class="node">
<title>JREポイント</title>
<polygon fill="none" stroke="black" points="745.5,-1474 645.5,-1474 645.5,-1438 745.5,-1438 745.5,-1474"/>
<text text-anchor="middle" x="695.5" y="-1452.3" font-family="Times,serif" font-size="14.00">JREポイント</text>
</g>
<!-- ビックカメラSuicaカード&#45;&gt;JREポイント -->
<g id="edge10" class="edge">
<title>ビックカメラSuicaカード&#45;&gt;JREポイント</title>
<path fill="none" stroke="black" d="M418.08,-1409.07C452.79,-1414.54 492.75,-1420.95 529,-1427 564.31,-1432.9 603.8,-1439.8 635.34,-1445.4"/>
<polygon fill="black" stroke="black" points="634.83,-1448.86 645.29,-1447.17 636.06,-1441.97 634.83,-1448.86"/>
<text text-anchor="middle" x="492" y="-1430.8" font-family="Times,serif" font-size="14.00">0.5%</text>
</g>
<!-- ビックポイント -->
<g id="node25" class="node">
<title>ビックポイント</title>
<polygon fill="none" stroke="black" points="753.5,-1344 637.5,-1344 637.5,-1308 753.5,-1308 753.5,-1344"/>
<text text-anchor="middle" x="695.5" y="-1322.3" font-family="Times,serif" font-size="14.00">ビックポイント</text>
</g>
<!-- ビックカメラSuicaカード&#45;&gt;ビックポイント -->
<g id="edge13" class="edge">
<title>ビックカメラSuicaカード&#45;&gt;ビックポイント</title>
<path fill="none" stroke="black" d="M363.04,-1376.94C388.08,-1365.12 422.76,-1350.52 455,-1343 512.04,-1329.7 578.61,-1325.88 627.07,-1325.14"/>
<polygon fill="black" stroke="black" points="627.17,-1328.64 637.13,-1325.02 627.09,-1321.64 627.17,-1328.64"/>
<text text-anchor="middle" x="492" y="-1346.8" font-family="Times,serif" font-size="14.00">0.5%</text>
</g>
<!-- ビックカメラ -->
<g id="node41" class="node">
<title>ビックカメラ</title>
<polygon fill="none" stroke="black" points="1059.5,-1374 958.5,-1374 958.5,-1338 1059.5,-1338 1059.5,-1374"/>
<text text-anchor="middle" x="1009" y="-1352.3" font-family="Times,serif" font-size="14.00">ビックカメラ</text>
</g>
<!-- ビックカメラSuicaカード&#45;&gt;ビックカメラ -->
<g id="edge11" class="edge">
<title>ビックカメラSuicaカード&#45;&gt;ビックカメラ</title>
<path fill="none" stroke="black" stroke-width="2" stroke-dasharray="5,2" d="M418.42,-1377.63C441.96,-1374.39 467.35,-1372 491,-1372 491,-1372 491,-1372 871,-1372 896.46,-1372 924.4,-1369.24 948.37,-1366.01"/>
<polygon fill="black" stroke="black" stroke-width="2" points="948.96,-1369.46 958.38,-1364.61 947.99,-1362.53 948.96,-1369.46"/>
</g>
<!-- EX予約 -->
<g id="node50" class="node">
<title>EX予約</title>
<polygon fill="none" stroke="black" points="1041.5,-1263 976.5,-1263 976.5,-1227 1041.5,-1227 1041.5,-1263"/>
<text text-anchor="middle" x="1009" y="-1241.3" font-family="Times,serif" font-size="14.00">EX予約</text>
</g>
<!-- ビックカメラSuicaカード&#45;&gt;EX予約 -->
<g id="edge18" class="edge">
<title>ビックカメラSuicaカード&#45;&gt;EX予約</title>
<path fill="none" stroke="black" stroke-width="2" stroke-dasharray="5,2" d="M356.03,-1376.92C381.18,-1361.76 419.28,-1340.61 455,-1328 637.91,-1263.44 872.16,-1249.1 966.19,-1245.91"/>
<polygon fill="black" stroke="black" stroke-width="2" points="966.54,-1249.4 976.43,-1245.59 966.32,-1242.4 966.54,-1249.4"/>
</g>
<!-- nanaco -->
<g id="node18" class="node">
<title>nanaco</title>
<polygon fill="none" stroke="black" points="525.5,-661 458.5,-661 458.5,-625 525.5,-625 525.5,-661"/>
<text text-anchor="middle" x="492" y="-639.3" font-family="Times,serif" font-size="14.00">nanaco</text>
</g>
<!-- リクルートカード&#45;&gt;nanaco -->
<g id="edge57" class="edge">
<title>リクルートカード&#45;&gt;nanaco</title>
<path fill="none" stroke="black" stroke-width="2" d="M347.96,-744.8C369.24,-726.27 403.86,-697.18 436,-675 440.32,-672.02 444.93,-669.04 449.58,-666.17"/>
<polygon fill="black" stroke="black" stroke-width="2" points="451.73,-668.96 458.49,-660.8 448.12,-662.96 451.73,-668.96"/>
</g>
<!-- Edy -->
<g id="node19" class="node">
<title>Edy</title>
<polygon fill="none" stroke="black" points="519,-895 465,-895 465,-859 519,-859 519,-895"/>
<text text-anchor="middle" x="492" y="-873.3" font-family="Times,serif" font-size="14.00">Edy</text>
</g>
<!-- リクルートカード&#45;&gt;Edy -->
<g id="edge46" class="edge">
<title>リクルートカード&#45;&gt;Edy</title>
<path fill="none" stroke="black" stroke-width="2" d="M353.41,-781.06C381.31,-800.52 425.84,-831.56 456.64,-853.04"/>
<polygon fill="black" stroke="black" stroke-width="2" points="454.74,-855.98 464.94,-858.83 458.74,-850.24 454.74,-855.98"/>
</g>
<!-- リクルートカード&#45;&gt;Ponta -->
<g id="edge52" class="edge">
<title>リクルートカード&#45;&gt;Ponta</title>
<path fill="none" stroke="black" d="M328.95,-744.85C336.45,-654.43 372.87,-252.7 436,-147 458.8,-108.82 590.57,-85.96 656.69,-76.74"/>
<polygon fill="black" stroke="black" points="657.27,-80.19 666.71,-75.38 656.33,-73.26 657.27,-80.19"/>
<text text-anchor="middle" x="492" y="-133.8" font-family="Times,serif" font-size="14.00">1.2%</text>
</g>
<!-- ASAHIネット -->
<g id="node34" class="node">
<title>ASAHIネット</title>
<polygon fill="none" stroke="black" points="1062,-527 956,-527 956,-491 1062,-491 1062,-527"/>
<text text-anchor="middle" x="1009" y="-505.3" font-family="Times,serif" font-size="14.00">ASAHIネット</text>
</g>
<!-- リクルートカード&#45;&gt;ASAHIネット -->
<g id="edge31" class="edge">
<title>リクルートカード&#45;&gt;ASAHIネット</title>
<path fill="none" stroke="black" stroke-width="2" d="M330.2,-744.73C339.92,-686.49 378.77,-509 491,-509 491,-509 491,-509 871,-509 895.45,-509 922.35,-509 945.79,-509"/>
<polygon fill="black" stroke="black" stroke-width="2" points="945.96,-512.5 955.96,-509 945.96,-505.5 945.96,-512.5"/>
</g>
<!-- 楽天モバイル -->
<g id="node35" class="node">
<title>楽天モバイル</title>
<polygon fill="none" stroke="black" points="1060,-581 958,-581 958,-545 1060,-545 1060,-581"/>
<text text-anchor="middle" x="1009" y="-559.3" font-family="Times,serif" font-size="14.00">楽天モバイル</text>
</g>
<!-- リクルートカード&#45;&gt;楽天モバイル -->
<g id="edge42" class="edge">
<title>リクルートカード&#45;&gt;楽天モバイル</title>
<path fill="none" stroke="black" stroke-width="2" d="M372.14,-744.83C413.65,-727.37 476.78,-699.37 529,-670 554.68,-655.56 561.26,-651.73 584,-633 592.73,-625.81 591.84,-619.99 602,-615 632.36,-600.09 842.17,-578.59 947.68,-568.56"/>
<polygon fill="black" stroke="black" stroke-width="2" points="948.24,-572.02 957.86,-567.59 947.58,-565.05 948.24,-572.02"/>
</g>
<!-- 楽天でんき -->
<g id="node36" class="node">
<title>楽天でんき</title>
<polygon fill="none" stroke="black" points="1053,-939 965,-939 965,-903 1053,-903 1053,-939"/>
<text text-anchor="middle" x="1009" y="-917.3" font-family="Times,serif" font-size="14.00">楽天でんき</text>
</g>
<!-- リクルートカード&#45;&gt;楽天でんき -->
<g id="edge38" class="edge">
<title>リクルートカード&#45;&gt;楽天でんき</title>
<path fill="none" stroke="black" stroke-width="2" d="M331.26,-781.27C343.59,-835.38 387.98,-991 491,-991 491,-991 491,-991 808,-991 837.49,-991 908.47,-963.55 957.42,-943.03"/>
<polygon fill="black" stroke="black" stroke-width="2" points="959.05,-946.14 966.9,-939.03 956.32,-939.69 959.05,-946.14"/>
</g>
<!-- 関西電力 -->
<g id="node37" class="node">
<title>関西電力</title>
<polygon fill="none" stroke="black" points="1046,-319 972,-319 972,-283 1046,-283 1046,-319"/>
<text text-anchor="middle" x="1009" y="-297.3" font-family="Times,serif" font-size="14.00">関西電力</text>
</g>
<!-- リクルートカード&#45;&gt;関西電力 -->
<g id="edge35" class="edge">
<title>リクルートカード&#45;&gt;関西電力</title>
<path fill="none" stroke="black" stroke-width="2" d="M329.72,-744.86C340.81,-658.49 393.48,-293 491,-293 491,-293 491,-293 871,-293 901.29,-293 935.28,-294.97 961.83,-296.96"/>
<polygon fill="black" stroke="black" stroke-width="2" points="961.74,-300.46 971.98,-297.75 962.28,-293.48 961.74,-300.46"/>
</g>
<!-- 楽天損保 -->
<g id="node38" class="node">
<title>楽天損保</title>
<polygon fill="none" stroke="black" points="1046,-1155 972,-1155 972,-1119 1046,-1119 1046,-1155"/>
<text text-anchor="middle" x="1009" y="-1133.3" font-family="Times,serif" font-size="14.00">楽天損保</text>
</g>
<!-- リクルートカード&#45;&gt;楽天損保 -->
<g id="edge39" class="edge">
<title>リクルートカード&#45;&gt;楽天損保</title>
<path fill="none" stroke="black" stroke-width="2" d="M327.17,-781.25C326.86,-855.5 336.15,-1131 491,-1131 491,-1131 491,-1131 871,-1131 901.27,-1131 935.26,-1132.48 961.81,-1133.97"/>
<polygon fill="black" stroke="black" stroke-width="2" points="961.78,-1137.47 971.96,-1134.56 962.18,-1130.49 961.78,-1137.47"/>
</g>
<!-- 郵便局 -->
<g id="node39" class="node">
<title>郵便局</title>
<polygon fill="none" stroke="black" points="1038.5,-1101 979.5,-1101 979.5,-1065 1038.5,-1065 1038.5,-1101"/>
<text text-anchor="middle" x="1009" y="-1079.3" font-family="Times,serif" font-size="14.00">郵便局</text>
</g>
<!-- リクルートカード&#45;&gt;郵便局 -->
<g id="edge62" class="edge">
<title>リクルートカード&#45;&gt;郵便局</title>
<path fill="none" stroke="black" stroke-width="2" d="M328.2,-781.12C331.85,-848.82 354.37,-1083 491,-1083 491,-1083 491,-1083 871,-1083 904.07,-1083 941.63,-1083 969.05,-1083"/>
<polygon fill="black" stroke="black" stroke-width="2" points="969.4,-1086.5 979.4,-1083 969.4,-1079.5 969.4,-1086.5"/>
</g>
<!-- アイハート -->
<g id="node40" class="node">
<title>アイハート</title>
<polygon fill="none" stroke="black" points="1052,-1047 966,-1047 966,-1011 1052,-1011 1052,-1047"/>
<text text-anchor="middle" x="1009" y="-1025.3" font-family="Times,serif" font-size="14.00">アイハート</text>
</g>
<!-- リクルートカード&#45;&gt;アイハート -->
<g id="edge34" class="edge">
<title>リクルートカード&#45;&gt;アイハート</title>
<path fill="none" stroke="black" stroke-width="2" d="M329.77,-781.28C338.35,-841.38 374.46,-1029 491,-1029 491,-1029 491,-1029 871,-1029 898.91,-1029 930.01,-1029 955.52,-1029"/>
<polygon fill="black" stroke="black" stroke-width="2" points="955.72,-1032.5 965.72,-1029 955.72,-1025.5 955.72,-1032.5"/>
</g>
<!-- Amazon -->
<g id="node49" class="node">
<title>Amazon</title>
<polygon fill="none" stroke="black" points="1045.5,-265 972.5,-265 972.5,-229 1045.5,-229 1045.5,-265"/>
<text text-anchor="middle" x="1009" y="-243.3" font-family="Times,serif" font-size="14.00">Amazon</text>
</g>
<!-- リクルートカード&#45;&gt;Amazon -->
<g id="edge32" class="edge">
<title>リクルートカード&#45;&gt;Amazon</title>
<path fill="none" stroke="black" stroke-width="2" d="M329.27,-744.92C338.62,-654.43 385.84,-255 491,-255 491,-255 491,-255 871,-255 901.39,-255 935.51,-253.01 962.1,-251.02"/>
<polygon fill="black" stroke="black" stroke-width="2" points="962.57,-254.49 972.26,-250.23 962.02,-247.52 962.57,-254.49"/>
</g>
<!-- じゃらん -->
<g id="node51" class="node">
<title>じゃらん</title>
<polygon fill="none" stroke="black" points="1046,-179 972,-179 972,-143 1046,-143 1046,-179"/>
<text text-anchor="middle" x="1009" y="-157.3" font-family="Times,serif" font-size="14.00">じゃらん</text>
</g>
<!-- リクルートカード&#45;&gt;じゃらん -->
<g id="edge33" class="edge">
<title>リクルートカード&#45;&gt;じゃらん</title>
<path fill="none" stroke="black" stroke-width="2" d="M328.4,-744.98C333.87,-644.82 366.73,-161 491,-161 491,-161 491,-161 871,-161 901.24,-161 935.23,-161 961.79,-161"/>
<polygon fill="black" stroke="black" stroke-width="2" points="961.94,-164.5 971.94,-161 961.94,-157.5 961.94,-164.5"/>
</g>
<!-- メルカリ -->
<g id="node52" class="node">
<title>メルカリ</title>
<polygon fill="none" stroke="black" points="1046,-1209 972,-1209 972,-1173 1046,-1173 1046,-1209"/>
<text text-anchor="middle" x="1009" y="-1187.3" font-family="Times,serif" font-size="14.00">メルカリ</text>
</g>
<!-- リクルートカード&#45;&gt;メルカリ -->
<g id="edge70" class="edge">
<title>リクルートカード&#45;&gt;メルカリ</title>
<path fill="none" stroke="black" stroke-width="2" d="M328.54,-781.02C332.65,-838.01 351.94,-1017.27 436,-1132 453.41,-1155.77 461.54,-1169 491,-1169 491,-1169 491,-1169 871,-1169 901.52,-1169 935.38,-1174.39 961.8,-1179.83"/>
<polygon fill="black" stroke="black" stroke-width="2" points="961.4,-1183.32 971.91,-1181.99 962.86,-1176.48 961.4,-1183.32"/>
</g>
<!-- 楽天市場 -->
<g id="node53" class="node">
<title>楽天市場</title>
<polygon fill="none" stroke="black" points="1046,-777 972,-777 972,-741 1046,-741 1046,-777"/>
<text text-anchor="middle" x="1009" y="-755.3" font-family="Times,serif" font-size="14.00">楽天市場</text>
</g>
<!-- リクルートカード&#45;&gt;楽天市場 -->
<g id="edge40" class="edge">
<title>リクルートカード&#45;&gt;楽天市場</title>
<path fill="none" stroke="black" stroke-width="2" d="M390.78,-763C421.1,-763 457.93,-763 491,-763 491,-763 491,-763 871,-763 901.25,-763 935.24,-762.01 961.8,-761.02"/>
<polygon fill="black" stroke="black" stroke-width="2" points="962.1,-764.51 971.95,-760.63 961.82,-757.52 962.1,-764.51"/>
</g>
<!-- Suica&#45;&gt;JREポイント -->
<g id="edge19" class="edge">
<title>Suica&#45;&gt;JREポイント</title>
<path fill="none" stroke="black" d="M520.18,-1467.25C549.44,-1465.36 596.9,-1462.3 634.92,-1459.84"/>
<polygon fill="black" stroke="black" points="635.62,-1463.31 645.37,-1459.17 635.17,-1456.32 635.62,-1463.31"/>
<text text-anchor="middle" x="565.5" y="-1469.8" font-family="Times,serif" font-size="14.00">1.5%</text>
</g>
<!-- 電車 -->
<g id="node33" class="node">
<title>電車</title>
<polygon fill="none" stroke="black" points="1036,-1540 982,-1540 982,-1504 1036,-1504 1036,-1540"/>
<text text-anchor="middle" x="1009" y="-1518.3" font-family="Times,serif" font-size="14.00">電車</text>
</g>
<!-- Suica&#45;&gt;電車 -->
<g id="edge16" class="edge">
<title>Suica&#45;&gt;電車</title>
<path fill="none" stroke="black" stroke-width="2" d="M520.2,-1478.26C528.69,-1480.82 538.16,-1483.35 547,-1485 703.06,-1514.05 893.02,-1520.3 971.45,-1521.64"/>
<polygon fill="black" stroke="black" stroke-width="2" points="971.7,-1525.14 981.76,-1521.8 971.81,-1518.14 971.7,-1525.14"/>
</g>
<!-- 松屋 -->
<g id="node45" class="node">
<title>松屋</title>
<polygon fill="none" stroke="black" points="1036,-1428 982,-1428 982,-1392 1036,-1392 1036,-1428"/>
<text text-anchor="middle" x="1009" y="-1406.3" font-family="Times,serif" font-size="14.00">松屋</text>
</g>
<!-- Suica&#45;&gt;松屋 -->
<g id="edge17" class="edge">
<title>Suica&#45;&gt;松屋</title>
<path fill="none" stroke="black" stroke-width="2" d="M520.1,-1456.42C541.76,-1447.02 573.15,-1434.82 602,-1429 735.88,-1401.97 899.42,-1404.95 971.22,-1408.02"/>
<polygon fill="black" stroke="black" stroke-width="2" points="971.39,-1411.53 981.54,-1408.48 971.71,-1404.53 971.39,-1411.53"/>
</g>
<!-- 飲食店 -->
<g id="node43" class="node">
<title>飲食店</title>
<polygon fill="none" stroke="black" points="1038.5,-1617 979.5,-1617 979.5,-1581 1038.5,-1581 1038.5,-1617"/>
<text text-anchor="middle" x="1009" y="-1595.3" font-family="Times,serif" font-size="14.00">飲食店</text>
</g>
<!-- 現金&#45;&gt;飲食店 -->
<g id="edge64" class="edge">
<title>現金&#45;&gt;飲食店</title>
<path fill="none" stroke="black" stroke-width="2" d="M519.09,-1668.61C610.57,-1656.72 912.38,-1617.42 933,-1614 944.85,-1612.04 957.7,-1609.59 969.35,-1607.24"/>
<polygon fill="black" stroke="black" stroke-width="2" points="970.14,-1610.65 979.23,-1605.22 968.74,-1603.79 970.14,-1610.65"/>
</g>
<!-- 理髪店 -->
<g id="node47" class="node">
<title>理髪店</title>
<polygon fill="none" stroke="black" points="1038.5,-1728 979.5,-1728 979.5,-1692 1038.5,-1692 1038.5,-1728"/>
<text text-anchor="middle" x="1009" y="-1706.3" font-family="Times,serif" font-size="14.00">理髪店</text>
</g>
<!-- 現金&#45;&gt;理髪店 -->
<g id="edge65" class="edge">
<title>現金&#45;&gt;理髪店</title>
<path fill="none" stroke="black" stroke-width="2" d="M519.24,-1678.13C528.02,-1679.97 537.89,-1681.81 547,-1683 702.59,-1703.3 889.72,-1708.34 969.23,-1709.59"/>
<polygon fill="black" stroke="black" stroke-width="2" points="969.22,-1713.09 979.27,-1709.74 969.33,-1706.09 969.22,-1713.09"/>
</g>
<!-- クリーニング -->
<g id="node48" class="node">
<title>クリーニング</title>
<polygon fill="none" stroke="black" points="1059.5,-1674 958.5,-1674 958.5,-1638 1059.5,-1638 1059.5,-1674"/>
<text text-anchor="middle" x="1009" y="-1652.3" font-family="Times,serif" font-size="14.00">クリーニング</text>
</g>
<!-- 現金&#45;&gt;クリーニング -->
<g id="edge66" class="edge">
<title>現金&#45;&gt;クリーニング</title>
<path fill="none" stroke="black" stroke-width="2" d="M519.25,-1671.18C598.36,-1668.73 835.92,-1661.35 948.1,-1657.86"/>
<polygon fill="black" stroke="black" stroke-width="2" points="948.35,-1661.36 958.23,-1657.55 948.13,-1654.36 948.35,-1661.36"/>
</g>
<!-- nanacoポイント -->
<g id="node27" class="node">
<title>nanacoポイント</title>
<polygon fill="none" stroke="black" points="757.5,-573 633.5,-573 633.5,-537 757.5,-537 757.5,-573"/>
<text text-anchor="middle" x="695.5" y="-551.3" font-family="Times,serif" font-size="14.00">nanacoポイント</text>
</g>
<!-- nanaco&#45;&gt;nanacoポイント -->
<g id="edge59" class="edge">
<title>nanaco&#45;&gt;nanacoポイント</title>
<path fill="none" stroke="black" d="M525.33,-624.86C546.72,-613.24 575.59,-598.29 602,-587 610.58,-583.33 619.74,-579.77 628.83,-576.43"/>
<polygon fill="black" stroke="black" points="630.03,-579.71 638.25,-573.03 627.66,-573.13 630.03,-579.71"/>
<text text-anchor="middle" x="565.5" y="-617.8" font-family="Times,serif" font-size="14.00">1%</text>
</g>
<!-- セブンイレブン -->
<g id="node32" class="node">
<title>セブンイレブン</title>
<polygon fill="none" stroke="black" points="1066,-831 952,-831 952,-795 1066,-795 1066,-831"/>
<text text-anchor="middle" x="1009" y="-809.3" font-family="Times,serif" font-size="14.00">セブンイレブン</text>
</g>
<!-- nanaco&#45;&gt;セブンイレブン -->
<g id="edge58" class="edge">
<title>nanaco&#45;&gt;セブンイレブン</title>
<path fill="none" stroke="black" stroke-width="2" d="M517.5,-661.1C538.93,-676.29 571.34,-697.73 602,-712 715.15,-764.68 859.32,-792.14 941.89,-804.51"/>
<polygon fill="black" stroke="black" stroke-width="2" points="941.49,-807.99 951.89,-805.98 942.51,-801.06 941.49,-807.99"/>
</g>
<!-- Edy&#45;&gt;楽天ポイント -->
<g id="edge51" class="edge">
<title>Edy&#45;&gt;楽天ポイント</title>
<path fill="none" stroke="black" d="M519.31,-863.09C542.19,-850.74 573.28,-833.27 584,-824 622.66,-790.55 657.61,-742.1 677.42,-712.13"/>
<polygon fill="black" stroke="black" points="680.55,-713.75 683.08,-703.46 674.68,-709.92 680.55,-713.75"/>
<text text-anchor="middle" x="565.5" y="-850.8" font-family="Times,serif" font-size="14.00">0.5%</text>
</g>
<!-- Edy&#45;&gt;セブンイレブン -->
<g id="edge63" class="edge">
<title>Edy&#45;&gt;セブンイレブン</title>
<path fill="none" stroke="black" stroke-width="2" d="M519.25,-873.74C596.85,-864.09 826.9,-835.51 941.53,-821.26"/>
<polygon fill="black" stroke="black" stroke-width="2" points="942.1,-824.72 951.59,-820.01 941.23,-817.77 942.1,-824.72"/>
</g>
<!-- ヨドバシカメラ -->
<g id="node42" class="node">
<title>ヨドバシカメラ</title>
<polygon fill="none" stroke="black" points="1067,-473 951,-473 951,-437 1067,-437 1067,-473"/>
<text text-anchor="middle" x="1009" y="-451.3" font-family="Times,serif" font-size="14.00">ヨドバシカメラ</text>
</g>
<!-- Edy&#45;&gt;ヨドバシカメラ -->
<g id="edge47" class="edge">
<title>Edy&#45;&gt;ヨドバシカメラ</title>
<path fill="none" stroke="black" stroke-width="2" d="M496.51,-858.97C505.71,-816.76 534.62,-711.11 602,-658 668.98,-605.21 712.46,-652.61 789,-615 872.61,-573.92 872.32,-531.87 951,-482 953.14,-480.64 955.37,-479.31 957.64,-478"/>
<polygon fill="black" stroke="black" stroke-width="2" points="959.45,-481 966.56,-473.15 956.11,-474.85 959.45,-481"/>
</g>
<!-- 業務スーパー -->
<g id="node44" class="node">
<title>業務スーパー</title>
<polygon fill="none" stroke="black" points="1060,-993 958,-993 958,-957 1060,-957 1060,-993"/>
<text text-anchor="middle" x="1009" y="-971.3" font-family="Times,serif" font-size="14.00">業務スーパー</text>
</g>
<!-- Edy&#45;&gt;業務スーパー -->
<g id="edge61" class="edge">
<title>Edy&#45;&gt;業務スーパー</title>
<path fill="none" stroke="black" stroke-width="2" d="M519.04,-894.34C527.64,-899.4 537.46,-904.51 547,-908 570.33,-916.53 577.47,-914.05 602,-918 724.4,-937.71 868.19,-956.99 947.6,-967.29"/>
<polygon fill="black" stroke="black" stroke-width="2" points="947.53,-970.82 957.9,-968.63 948.43,-963.87 947.53,-970.82"/>
</g>
<!-- 吉野家 -->
<g id="node46" class="node">
<title>吉野家</title>
<polygon fill="none" stroke="black" points="1038.5,-885 979.5,-885 979.5,-849 1038.5,-849 1038.5,-885"/>
<text text-anchor="middle" x="1009" y="-863.3" font-family="Times,serif" font-size="14.00">吉野家</text>
</g>
<!-- Edy&#45;&gt;吉野家 -->
<g id="edge50" class="edge">
<title>Edy&#45;&gt;吉野家</title>
<path fill="none" stroke="black" stroke-width="2" d="M519.11,-885.19C527.88,-887.56 537.78,-889.82 547,-891 717.18,-912.7 763.5,-917.46 933,-891 945.12,-889.11 957.96,-885.59 969.52,-881.83"/>
<polygon fill="black" stroke="black" stroke-width="2" points="970.97,-885.03 979.3,-878.49 968.71,-878.41 970.97,-885.03"/>
</g>
<!-- PayPay&#45;&gt;飲食店 -->
<g id="edge27" class="edge">
<title>PayPay&#45;&gt;飲食店</title>
<path fill="none" stroke="black" stroke-width="2" d="M526.39,-1601.81C617.79,-1601.27 871.71,-1599.79 969.2,-1599.23"/>
<polygon fill="black" stroke="black" stroke-width="2" points="969.23,-1602.73 979.21,-1599.17 969.19,-1595.73 969.23,-1602.73"/>
</g>
<!-- メルペイ&#45;&gt;三井住友銀行 -->
<g id="edge69" class="edge">
<title>メルペイ&#45;&gt;三井住友銀行</title>
<path fill="none" stroke="black" stroke-width="2" d="M454.89,-1233.4C398.15,-1250.18 289.03,-1290.98 235,-1368 177.55,-1449.89 246.09,-1502.29 198,-1590 194.01,-1597.27 188.39,-1603.97 182.35,-1609.86"/>
<polygon fill="black" stroke="black" stroke-width="2" points="179.65,-1607.57 174.56,-1616.86 184.33,-1612.78 179.65,-1607.57"/>
</g>
<!-- メルペイ&#45;&gt;メルカリ -->
<g id="edge68" class="edge">
<title>メルペイ&#45;&gt;メルカリ</title>
<path fill="none" stroke="black" stroke-width="2" d="M529.21,-1221.68C620.54,-1215.83 860.17,-1200.47 961.59,-1193.97"/>
<polygon fill="black" stroke="black" stroke-width="2" points="962.07,-1197.45 971.83,-1193.32 961.62,-1190.46 962.07,-1197.45"/>
</g>
<!-- Ponta&#45;&gt;じゃらん -->
<g id="edge53" class="edge">
<title>Ponta&#45;&gt;じゃらん</title>
<path fill="none" stroke="black" d="M724.16,-69.27C770.65,-66.02 865.92,-65.22 933,-104 949.06,-113.29 965.62,-125.54 979.08,-136.3"/>
<polygon fill="black" stroke="black" points="977.06,-139.17 987.02,-142.77 981.48,-133.74 977.06,-139.17"/>
</g>
<!-- 楽天ポイント&#45;&gt;楽天モバイル -->
<g id="edge44" class="edge">
<title>楽天ポイント&#45;&gt;楽天モバイル</title>
<path fill="none" stroke="black" d="M746.64,-687.86C792.51,-688.44 861.08,-684.03 914,-658 945.75,-642.38 973.04,-611.65 989.9,-589.36"/>
<polygon fill="black" stroke="black" points="992.74,-591.41 995.85,-581.28 987.1,-587.27 992.74,-591.41"/>
</g>
<!-- 楽天ポイント&#45;&gt;楽天でんき -->
<g id="edge45" class="edge">
<title>楽天ポイント&#45;&gt;楽天でんき</title>
<path fill="none" stroke="black" d="M715.35,-703.28C755.94,-741.98 855.63,-833.55 951,-894 953.14,-895.36 955.37,-896.69 957.64,-898"/>
<polygon fill="black" stroke="black" points="956.11,-901.15 966.56,-902.85 959.45,-895 956.11,-901.15"/>
</g>
<!-- JREポイント&#45;&gt;Suica -->
<g id="edge20" class="edge">
<title>JREポイント&#45;&gt;Suica</title>
<path fill="none" stroke="black" d="M645.25,-1456.28C616.54,-1456.79 579.66,-1458.04 547,-1461 541.51,-1461.5 535.74,-1462.18 530.08,-1462.94"/>
<polygon fill="black" stroke="black" points="529.52,-1459.49 520.12,-1464.37 530.52,-1466.42 529.52,-1459.49"/>
</g>
<!-- ビックポイント&#45;&gt;ビックカメラ -->
<g id="edge14" class="edge">
<title>ビックポイント&#45;&gt;ビックカメラ</title>
<path fill="none" stroke="black" d="M753.63,-1331.5C808.86,-1336.82 892.19,-1344.85 948.27,-1350.25"/>
<polygon fill="black" stroke="black" points="948.13,-1353.75 958.42,-1351.22 948.8,-1346.78 948.13,-1353.75"/>
</g>
<!-- Amazonポイント -->
<g id="node26" class="node">
<title>Amazonポイント</title>
<polygon fill="none" stroke="black" points="760.5,-226 630.5,-226 630.5,-190 760.5,-190 760.5,-226"/>
<text text-anchor="middle" x="695.5" y="-204.3" font-family="Times,serif" font-size="14.00">Amazonポイント</text>
</g>
<!-- Amazonポイント&#45;&gt;Amazon -->
<g id="edge56" class="edge">
<title>Amazonポイント&#45;&gt;Amazon</title>
<path fill="none" stroke="black" d="M760.67,-210.45C820.77,-216.23 909.11,-227.5 962.34,-236.34"/>
<polygon fill="black" stroke="black" points="962.05,-239.84 972.5,-238.07 963.23,-232.94 962.05,-239.84"/>
</g>
<!-- nanacoポイント&#45;&gt;nanaco -->
<g id="edge60" class="edge">
<title>nanacoポイント&#45;&gt;nanaco</title>
<path fill="none" stroke="black" d="M633.42,-563.1C605.81,-568.54 573.51,-577.47 547,-592 535.16,-598.49 523.97,-608.2 514.89,-617.41"/>
<polygon fill="black" stroke="black" points="512.09,-615.27 507.78,-624.95 517.19,-620.07 512.09,-615.27"/>
</g>
<!-- ヨドバシゴールドポイント -->
<g id="node28" class="node">
<title>ヨドバシゴールドポイント</title>
<polygon fill="none" stroke="black" points="789,-464 602,-464 602,-428 789,-428 789,-464"/>
<text text-anchor="middle" x="695.5" y="-442.3" font-family="Times,serif" font-size="14.00">ヨドバシゴールドポイント</text>
</g>
<!-- ヨドバシゴールドポイント&#45;&gt;ヨドバシカメラ -->
<g id="edge49" class="edge">
<title>ヨドバシゴールドポイント&#45;&gt;ヨドバシカメラ</title>
<path fill="none" stroke="black" d="M789.11,-454.83C801.5,-455.73 814.05,-456.49 826,-457 873.51,-459.01 885.45,-457.63 933,-457 935.51,-456.97 938.06,-456.93 940.64,-456.88"/>
<polygon fill="black" stroke="black" points="940.75,-460.38 950.68,-456.69 940.61,-453.38 940.75,-460.38"/>
</g>
<!-- はぴeポイント -->
<g id="node29" class="node">
<title>はぴeポイント</title>
<polygon fill="none" stroke="black" points="750.5,-376 640.5,-376 640.5,-340 750.5,-340 750.5,-376"/>
<text text-anchor="middle" x="695.5" y="-354.3" font-family="Times,serif" font-size="14.00">はぴeポイント</text>
</g>
<!-- はぴeポイント&#45;&gt;関西電力 -->
<g id="edge37" class="edge">
<title>はぴeポイント&#45;&gt;関西電力</title>
<path fill="none" stroke="black" d="M750.76,-348.07C810.49,-337.14 905.5,-319.76 961.8,-309.45"/>
<polygon fill="black" stroke="black" points="962.64,-312.86 971.85,-307.62 961.38,-305.97 962.64,-312.86"/>
</g>
<!-- 株主優待券&#45;&gt;住信SBI銀行 -->
<g id="edge30" class="edge">
<title>株主優待券&#45;&gt;住信SBI銀行</title>
<path fill="none" stroke="black" d="M825.62,-1547.64C722.5,-1539.03 454.87,-1511.67 235,-1545 225.6,-1546.43 215.82,-1548.67 206.35,-1551.15"/>
<polygon fill="black" stroke="black" points="205.35,-1547.8 196.63,-1553.81 207.2,-1554.55 205.35,-1547.8"/>
</g>
<!-- 株主優待券&#45;&gt;電車 -->
<g id="edge29" class="edge">
<title>株主優待券&#45;&gt;電車</title>
<path fill="none" stroke="black" stroke-width="2" d="M914.35,-1540.46C932.83,-1536.82 954.14,-1532.61 971.77,-1529.14"/>
<polygon fill="black" stroke="black" stroke-width="2" points="972.53,-1532.56 981.67,-1527.19 971.18,-1525.69 972.53,-1532.56"/>
</g>
<!-- 楽天モバイル&#45;&gt;楽天ポイント -->
<g id="edge43" class="edge">
<title>楽天モバイル&#45;&gt;楽天ポイント</title>
<path fill="none" stroke="black" d="M965.89,-581.14C922,-599.85 851.1,-629.52 789,-653 778.43,-657 767.1,-661.08 756.13,-664.93"/>
<polygon fill="black" stroke="black" points="754.91,-661.65 746.61,-668.25 757.21,-668.26 754.91,-661.65"/>
<text text-anchor="middle" x="870" y="-642.8" font-family="Times,serif" font-size="14.00">0.5%</text>
</g>
<!-- 関西電力&#45;&gt;はぴeポイント -->
<g id="edge36" class="edge">
<title>関西電力&#45;&gt;はぴeポイント</title>
<path fill="none" stroke="black" d="M984.04,-319.04C969.96,-328.6 951.36,-339.47 933,-345 876.58,-362.01 809.21,-364.05 760.84,-362.55"/>
<polygon fill="black" stroke="black" points="760.94,-359.05 750.82,-362.18 760.68,-366.04 760.94,-359.05"/>
<text text-anchor="middle" x="870" y="-365.8" font-family="Times,serif" font-size="14.00">0.5%</text>
</g>
<!-- ビックカメラ&#45;&gt;ビックポイント -->
<g id="edge12" class="edge">
<title>ビックカメラ&#45;&gt;ビックポイント</title>
<path fill="none" stroke="black" stroke-dasharray="5,2" d="M982.72,-1337.76C964.58,-1325.84 939.01,-1311.35 914,-1305 864.54,-1292.45 807,-1298.88 763.53,-1307.82"/>
<polygon fill="black" stroke="black" points="762.68,-1304.42 753.64,-1309.95 764.15,-1311.27 762.68,-1304.42"/>
<text text-anchor="middle" x="870" y="-1308.8" font-family="Times,serif" font-size="14.00">9.5%</text>
</g>
<!-- ヨドバシカメラ&#45;&gt;ヨドバシゴールドポイント -->
<g id="edge48" class="edge">
<title>ヨドバシカメラ&#45;&gt;ヨドバシゴールドポイント</title>
<path fill="none" stroke="black" d="M950.96,-445.83C938.8,-444.24 926,-442.83 914,-442 876.63,-439.43 835.58,-439.45 799.29,-440.44"/>
<polygon fill="black" stroke="black" points="799.09,-436.95 789.2,-440.74 799.3,-443.94 799.09,-436.95"/>
<text text-anchor="middle" x="870" y="-445.8" font-family="Times,serif" font-size="14.00">10%</text>
</g>
<!-- Amazon&#45;&gt;Amazonポイント -->
<g id="edge55" class="edge">
<title>Amazon&#45;&gt;Amazonポイント</title>
<path fill="none" stroke="black" d="M972.5,-247.04C923.63,-243.38 834.44,-232.67 770.67,-223.13"/>
<polygon fill="black" stroke="black" points="771.08,-219.66 760.67,-221.62 770.03,-226.58 771.08,-219.66"/>
</g>
<!-- じゃらん&#45;&gt;Ponta -->
<g id="edge54" class="edge">
<title>じゃらん&#45;&gt;Ponta</title>
<path fill="none" stroke="black" d="M971.92,-149.59C954.46,-144.14 933.18,-137.6 914,-132 851,-113.6 777.28,-93.58 733.88,-81.94"/>
<polygon fill="black" stroke="black" points="734.61,-78.52 724.04,-79.31 732.8,-85.28 734.61,-78.52"/>
<text text-anchor="middle" x="870" y="-135.8" font-family="Times,serif" font-size="14.00">2%</text>
</g>
<!-- 楽天市場&#45;&gt;楽天ポイント -->
<g id="edge41" class="edge">
<title>楽天市場&#45;&gt;楽天ポイント</title>
<path fill="none" stroke="black" d="M971.93,-749.06C954.47,-744.34 933.19,-738.71 914,-734 860.99,-720.99 800.39,-707.44 756.64,-697.9"/>
<polygon fill="black" stroke="black" points="757.25,-694.45 746.73,-695.74 755.76,-701.29 757.25,-694.45"/>
<text text-anchor="middle" x="870" y="-737.8" font-family="Times,serif" font-size="14.00">3%</text>
</g>
</g>
</svg>
