<?xml version="1.0" encoding="UTF-8" standalone="no"?>
<!DOCTYPE svg PUBLIC "-//W3C//DTD SVG 1.1//EN"
 "http://www.w3.org/Graphics/SVG/1.1/DTD/svg11.dtd">
<!-- Generated by graphviz version 2.42.4 (0)
 -->
<!-- Title: MoneyFlow Pages: 1 -->
<svg width="1075pt" height="1810pt"
 viewBox="0.00 0.00 1075.00 1810.00" xmlns="http://www.w3.org/2000/svg" xmlns:xlink="http://www.w3.org/1999/xlink">
<g id="graph0" class="graph" transform="scale(1 1) rotate(0) translate(4 1806)">
<title>MoneyFlow</title>
<polygon fill="white" stroke="transparent" points="-4,4 -4,-1806 1071,-1806 1071,4 -4,4"/>
<!-- 収入 -->
<g id="node1" class="node">
<title>収入</title>
<text text-anchor="middle" x="29.5" y="-14.3" font-family="Times,serif" font-size="14.00">収入</text>
</g>
<!-- 銀行口座 -->
<g id="node2" class="node">
<title>銀行口座</title>
<text text-anchor="middle" x="147" y="-14.3" font-family="Times,serif" font-size="14.00">銀行口座</text>
</g>
<!-- 収入&#45;&gt;銀行口座 -->
<g id="edge1" class="edge">
<title>収入&#45;&gt;銀行口座</title>
<path fill="none" stroke="black" d="M56.71,-18C72.42,-18 92.61,-18 109.83,-18"/>
</g>
<!-- クレジットカード -->
<g id="node3" class="node">
<title>クレジットカード</title>
<text text-anchor="middle" x="326.5" y="-14.3" font-family="Times,serif" font-size="14.00">クレジットカード</text>
</g>
<!-- 銀行口座&#45;&gt;クレジットカード -->
<g id="edge2" class="edge">
<title>銀行口座&#45;&gt;クレジットカード</title>
<path fill="none" stroke="black" d="M184.35,-18C206.66,-18 235.86,-18 261.91,-18"/>
</g>
<!-- マネー -->
<g id="node4" class="node">
<title>マネー</title>
<text text-anchor="middle" x="492" y="-14.3" font-family="Times,serif" font-size="14.00">マネー</text>
</g>
<!-- クレジットカード&#45;&gt;マネー -->
<g id="edge3" class="edge">
<title>クレジットカード&#45;&gt;マネー</title>
<path fill="none" stroke="black" d="M391.18,-18C415.75,-18 442.61,-18 462.27,-18"/>
</g>
<!-- ポイント -->
<g id="node5" class="node">
<title>ポイント</title>
<text text-anchor="middle" x="695.5" y="-14.3" font-family="Times,serif" font-size="14.00">ポイント</text>
</g>
<!-- マネー&#45;&gt;ポイント -->
<g id="edge4" class="edge">
<title>マネー&#45;&gt;ポイント</title>
<path fill="none" stroke="black" d="M521.87,-18C557.78,-18 619.11,-18 658.18,-18"/>
</g>
<!-- 金券 -->
<g id="node6" class="node">
<title>金券</title>
<text text-anchor="middle" x="870" y="-14.3" font-family="Times,serif" font-size="14.00">金券</text>
</g>
<!-- ポイント&#45;&gt;金券 -->
<g id="edge5" class="edge">
<title>ポイント&#45;&gt;金券</title>
<path fill="none" stroke="black" d="M732.66,-18C765.66,-18 813.62,-18 842.99,-18"/>
</g>
<!-- 支出 -->
<g id="node7" class="node">
<title>支出</title>
<text text-anchor="middle" x="1009" y="-14.3" font-family="Times,serif" font-size="14.00">支出</text>
</g>
<!-- 金券&#45;&gt;支出 -->
<g id="edge6" class="edge">
<title>金券&#45;&gt;支出</title>
<path fill="none" stroke="black" d="M897.09,-18C921.31,-18 957.2,-18 981.54,-18"/>
</g>
<!-- 給与 -->
<g id="node8" class="node">
<title>給与</title>
<polygon fill="none" stroke="black" points="56.5,-1525 2.5,-1525 2.5,-1489 56.5,-1489 56.5,-1525"/>
<text text-anchor="middle" x="29.5" y="-1503.3" font-family="Times,serif" font-size="14.00">給与</text>
</g>
<!-- 三井住友銀行 -->
<g id="node11" class="node">
<title>三井住友銀行</title>
<polygon fill="none" stroke="black" points="198,-1525 96,-1525 96,-1489 198,-1489 198,-1525"/>
<text text-anchor="middle" x="147" y="-1503.3" font-family="Times,serif" font-size="14.00">三井住友銀行</text>
</g>
<!-- 給与&#45;&gt;三井住友銀行 -->
<g id="edge7" class="edge">
<title>給与&#45;&gt;三井住友銀行</title>
<path fill="none" stroke="black" stroke-width="2" d="M56.71,-1507C65.39,-1507 75.45,-1507 85.62,-1507"/>
<polygon fill="black" stroke="black" stroke-width="2" points="85.78,-1510.5 95.78,-1507 85.78,-1503.5 85.78,-1510.5"/>
</g>
<!-- 譲渡 -->
<g id="node9" class="node">
<title>譲渡</title>
<polygon fill="none" stroke="black" points="56.5,-1258 2.5,-1258 2.5,-1222 56.5,-1222 56.5,-1258"/>
<text text-anchor="middle" x="29.5" y="-1236.3" font-family="Times,serif" font-size="14.00">譲渡</text>
</g>
<!-- メルペイ -->
<g id="node21" class="node">
<title>メルペイ</title>
<polygon fill="none" stroke="black" points="529,-1258 455,-1258 455,-1222 529,-1222 529,-1258"/>
<text text-anchor="middle" x="492" y="-1236.3" font-family="Times,serif" font-size="14.00">メルペイ</text>
</g>
<!-- 譲渡&#45;&gt;メルペイ -->
<g id="edge68" class="edge">
<title>譲渡&#45;&gt;メルペイ</title>
<path fill="none" stroke="black" stroke-width="2" d="M56.58,-1240C131.58,-1240 348.63,-1240 444.52,-1240"/>
<polygon fill="black" stroke="black" stroke-width="2" points="444.78,-1243.5 454.78,-1240 444.78,-1236.5 444.78,-1243.5"/>
</g>
<!-- 雑収入 -->
<g id="node10" class="node">
<title>雑収入</title>
<polygon fill="none" stroke="black" points="59,-218 0,-218 0,-182 59,-182 59,-218"/>
<text text-anchor="middle" x="29.5" y="-196.3" font-family="Times,serif" font-size="14.00">雑収入</text>
</g>
<!-- Ponta -->
<g id="node22" class="node">
<title>Ponta</title>
<polygon fill="none" stroke="black" points="724,-320 667,-320 667,-284 724,-284 724,-320"/>
<text text-anchor="middle" x="695.5" y="-298.3" font-family="Times,serif" font-size="14.00">Ponta</text>
</g>
<!-- 雑収入&#45;&gt;Ponta -->
<g id="edge73" class="edge">
<title>雑収入&#45;&gt;Ponta</title>
<path fill="none" stroke="black" stroke-width="2" d="M59.18,-197.41C136.48,-191.26 355.05,-179.37 529,-223 576,-234.79 625.61,-260.48 658.11,-279.38"/>
<polygon fill="black" stroke="black" stroke-width="2" points="656.42,-282.44 666.81,-284.51 659.98,-276.42 656.42,-282.44"/>
</g>
<!-- 楽天ポイント -->
<g id="node23" class="node">
<title>楽天ポイント</title>
<polygon fill="none" stroke="black" points="746.5,-542 644.5,-542 644.5,-506 746.5,-506 746.5,-542"/>
<text text-anchor="middle" x="695.5" y="-520.3" font-family="Times,serif" font-size="14.00">楽天ポイント</text>
</g>
<!-- 雑収入&#45;&gt;楽天ポイント -->
<g id="edge72" class="edge">
<title>雑収入&#45;&gt;楽天ポイント</title>
<path fill="none" stroke="black" stroke-width="2" d="M59.12,-214.62C82.01,-224.97 115.26,-237 146,-237 146,-237 146,-237 437,-237 575.14,-237 657.89,-423.47 684.79,-495.8"/>
<polygon fill="black" stroke="black" stroke-width="2" points="681.65,-497.41 688.35,-505.61 688.23,-495.02 681.65,-497.41"/>
</g>
<!-- 住信SBI銀行 -->
<g id="node12" class="node">
<title>住信SBI銀行</title>
<polygon fill="none" stroke="black" points="196.5,-1453 97.5,-1453 97.5,-1417 196.5,-1417 196.5,-1453"/>
<text text-anchor="middle" x="147" y="-1431.3" font-family="Times,serif" font-size="14.00">住信SBI銀行</text>
</g>
<!-- 三井住友銀行&#45;&gt;住信SBI銀行 -->
<g id="edge9" class="edge">
<title>三井住友銀行&#45;&gt;住信SBI銀行</title>
<path fill="none" stroke="black" stroke-width="2" d="M147,-1488.95C147,-1480.41 147,-1471.86 147,-1463.31"/>
<polygon fill="black" stroke="black" stroke-width="2" points="150.5,-1463.28 147,-1453.28 143.5,-1463.28 150.5,-1463.28"/>
</g>
<!-- 現金 -->
<g id="node17" class="node">
<title>現金</title>
<polygon fill="none" stroke="black" points="519,-1710 465,-1710 465,-1674 519,-1674 519,-1710"/>
<text text-anchor="middle" x="492" y="-1688.3" font-family="Times,serif" font-size="14.00">現金</text>
</g>
<!-- 三井住友銀行&#45;&gt;現金 -->
<g id="edge8" class="edge">
<title>三井住友銀行&#45;&gt;現金</title>
<path fill="none" stroke="black" stroke-width="2" d="M151.43,-1525.16C158.14,-1555.26 175.97,-1615.13 216,-1645 287.29,-1698.2 397.84,-1699.26 454.61,-1695.61"/>
<polygon fill="black" stroke="black" stroke-width="2" points="455.18,-1699.08 464.9,-1694.85 454.67,-1692.09 455.18,-1699.08"/>
</g>
<!-- ビックカメラSuicaカード -->
<g id="node13" class="node">
<title>ビックカメラSuicaカード</title>
<polygon fill="none" stroke="black" points="418,-1453 235,-1453 235,-1417 418,-1417 418,-1453"/>
<text text-anchor="middle" x="326.5" y="-1431.3" font-family="Times,serif" font-size="14.00">ビックカメラSuicaカード</text>
</g>
<!-- 住信SBI銀行&#45;&gt;ビックカメラSuicaカード -->
<g id="edge23" class="edge">
<title>住信SBI銀行&#45;&gt;ビックカメラSuicaカード</title>
<path fill="none" stroke="black" stroke-width="2" d="M196.5,-1435C205.34,-1435 214.85,-1435 224.56,-1435"/>
<polygon fill="black" stroke="black" stroke-width="2" points="224.74,-1438.5 234.74,-1435 224.74,-1431.5 224.74,-1438.5"/>
</g>
<!-- リクルートカード -->
<g id="node14" class="node">
<title>リクルートカード</title>
<polygon fill="none" stroke="black" points="390.5,-826 262.5,-826 262.5,-790 390.5,-790 390.5,-826"/>
<text text-anchor="middle" x="326.5" y="-804.3" font-family="Times,serif" font-size="14.00">リクルートカード</text>
</g>
<!-- 住信SBI銀行&#45;&gt;リクルートカード -->
<g id="edge24" class="edge">
<title>住信SBI銀行&#45;&gt;リクルートカード</title>
<path fill="none" stroke="black" stroke-width="2" d="M153.12,-1416.91C178.1,-1328.69 287.15,-943.47 317.59,-835.96"/>
<polygon fill="black" stroke="black" stroke-width="2" points="321,-836.74 320.36,-826.16 314.27,-834.83 321,-836.74"/>
</g>
<!-- PiTaPa -->
<g id="node15" class="node">
<title>PiTaPa</title>
<polygon fill="none" stroke="black" points="359,-1307 294,-1307 294,-1271 359,-1271 359,-1307"/>
<text text-anchor="middle" x="326.5" y="-1285.3" font-family="Times,serif" font-size="14.00">PiTaPa</text>
</g>
<!-- 住信SBI銀行&#45;&gt;PiTaPa -->
<g id="edge25" class="edge">
<title>住信SBI銀行&#45;&gt;PiTaPa</title>
<path fill="none" stroke="black" stroke-width="2" d="M157.33,-1416.97C171.11,-1392.01 199.18,-1347.09 235,-1321 249.39,-1310.52 267.53,-1303.21 283.79,-1298.26"/>
<polygon fill="black" stroke="black" stroke-width="2" points="284.95,-1301.57 293.61,-1295.47 283.04,-1294.83 284.95,-1301.57"/>
</g>
<!-- 住信SBI銀行&#45;&gt;現金 -->
<g id="edge21" class="edge">
<title>住信SBI銀行&#45;&gt;現金</title>
<path fill="none" stroke="black" stroke-width="2" d="M172.79,-1453.09C181.71,-1460.6 191.23,-1469.92 198,-1480 225.12,-1520.38 201.04,-1548.17 235,-1583 295.91,-1645.46 338.52,-1618.03 418,-1654 430.53,-1659.67 443.96,-1666.45 455.84,-1672.7"/>
<polygon fill="black" stroke="black" stroke-width="2" points="454.52,-1675.96 464.99,-1677.57 457.81,-1669.78 454.52,-1675.96"/>
</g>
<!-- PayPay -->
<g id="node20" class="node">
<title>PayPay</title>
<polygon fill="none" stroke="black" points="526,-1650 458,-1650 458,-1614 526,-1614 526,-1650"/>
<text text-anchor="middle" x="492" y="-1628.3" font-family="Times,serif" font-size="14.00">PayPay</text>
</g>
<!-- 住信SBI銀行&#45;&gt;PayPay -->
<g id="edge26" class="edge">
<title>住信SBI銀行&#45;&gt;PayPay</title>
<path fill="none" stroke="black" stroke-width="2" d="M170.31,-1453.37C179.29,-1461.2 189.52,-1470.66 198,-1480 216.59,-1500.46 213.1,-1513.13 235,-1530 269.54,-1556.61 384.64,-1597.03 448.1,-1618.11"/>
<polygon fill="black" stroke="black" stroke-width="2" points="447.23,-1621.5 457.82,-1621.32 449.42,-1614.86 447.23,-1621.5"/>
</g>
<!-- 株主優待券 -->
<g id="node30" class="node">
<title>株主優待券</title>
<polygon fill="none" stroke="black" points="914,-1537 826,-1537 826,-1501 914,-1501 914,-1537"/>
<text text-anchor="middle" x="870" y="-1515.3" font-family="Times,serif" font-size="14.00">株主優待券</text>
</g>
<!-- 住信SBI銀行&#45;&gt;株主優待券 -->
<g id="edge28" class="edge">
<title>住信SBI銀行&#45;&gt;株主優待券</title>
<path fill="none" stroke="black" stroke-width="2" d="M196.81,-1443.19C209.15,-1446.7 222.46,-1450.37 235,-1453 446.9,-1497.51 705.82,-1507.28 815.66,-1513.44"/>
<polygon fill="black" stroke="black" stroke-width="2" points="815.63,-1516.95 825.82,-1514.03 816.04,-1509.96 815.63,-1516.95"/>
</g>
<!-- 家賃 -->
<g id="node31" class="node">
<title>家賃</title>
<polygon fill="none" stroke="black" points="1036,-1285 982,-1285 982,-1249 1036,-1249 1036,-1285"/>
<text text-anchor="middle" x="1009" y="-1263.3" font-family="Times,serif" font-size="14.00">家賃</text>
</g>
<!-- 住信SBI銀行&#45;&gt;家賃 -->
<g id="edge22" class="edge">
<title>住信SBI銀行&#45;&gt;家賃</title>
<path fill="none" stroke="black" stroke-width="2" d="M185.36,-1416.84C242.26,-1389.89 354.62,-1339.45 455,-1311 643.55,-1257.57 881.73,-1261.28 971.53,-1265.05"/>
<polygon fill="black" stroke="black" stroke-width="2" points="971.59,-1268.55 981.73,-1265.51 971.9,-1261.56 971.59,-1268.55"/>
</g>
<!-- Suica -->
<g id="node16" class="node">
<title>Suica</title>
<polygon fill="none" stroke="black" points="520,-1356 464,-1356 464,-1320 520,-1320 520,-1356"/>
<text text-anchor="middle" x="492" y="-1334.3" font-family="Times,serif" font-size="14.00">Suica</text>
</g>
<!-- ビックカメラSuicaカード&#45;&gt;Suica -->
<g id="edge15" class="edge">
<title>ビックカメラSuicaカード&#45;&gt;Suica</title>
<path fill="none" stroke="black" stroke-width="2" d="M363.65,-1416.92C380.41,-1408.26 400.45,-1397.51 418,-1387 430.96,-1379.24 444.81,-1370.16 456.93,-1361.93"/>
<polygon fill="black" stroke="black" stroke-width="2" points="459.13,-1364.66 465.41,-1356.13 455.18,-1358.89 459.13,-1364.66"/>
</g>
<!-- JREポイント -->
<g id="node24" class="node">
<title>JREポイント</title>
<polygon fill="none" stroke="black" points="745.5,-1331 645.5,-1331 645.5,-1295 745.5,-1295 745.5,-1331"/>
<text text-anchor="middle" x="695.5" y="-1309.3" font-family="Times,serif" font-size="14.00">JREポイント</text>
</g>
<!-- ビックカメラSuicaカード&#45;&gt;JREポイント -->
<g id="edge10" class="edge">
<title>ビックカメラSuicaカード&#45;&gt;JREポイント</title>
<path fill="none" stroke="black" d="M381.65,-1417C449.64,-1394.4 565.82,-1355.78 635.85,-1332.5"/>
<polygon fill="black" stroke="black" points="637.03,-1335.79 645.42,-1329.32 634.82,-1329.15 637.03,-1335.79"/>
<text text-anchor="middle" x="492" y="-1396.8" font-family="Times,serif" font-size="14.00">0.5%</text>
</g>
<!-- ビックポイント -->
<g id="node25" class="node">
<title>ビックポイント</title>
<polygon fill="none" stroke="black" points="753.5,-1593 637.5,-1593 637.5,-1557 753.5,-1557 753.5,-1593"/>
<text text-anchor="middle" x="695.5" y="-1571.3" font-family="Times,serif" font-size="14.00">ビックポイント</text>
</g>
<!-- ビックカメラSuicaカード&#45;&gt;ビックポイント -->
<g id="edge13" class="edge">
<title>ビックカメラSuicaカード&#45;&gt;ビックポイント</title>
<path fill="none" stroke="black" d="M371.07,-1453.06C395.65,-1463.18 426.98,-1475.95 455,-1487 520.04,-1512.65 536.29,-1519.12 602,-1543 611.46,-1546.44 621.5,-1550 631.34,-1553.44"/>
<polygon fill="black" stroke="black" points="630.49,-1556.85 641.08,-1556.84 632.79,-1550.24 630.49,-1556.85"/>
<text text-anchor="middle" x="492" y="-1519.8" font-family="Times,serif" font-size="14.00">0.5%</text>
</g>
<!-- ビックカメラ -->
<g id="node41" class="node">
<title>ビックカメラ</title>
<polygon fill="none" stroke="black" points="1059.5,-1549 958.5,-1549 958.5,-1513 1059.5,-1513 1059.5,-1549"/>
<text text-anchor="middle" x="1009" y="-1527.3" font-family="Times,serif" font-size="14.00">ビックカメラ</text>
</g>
<!-- ビックカメラSuicaカード&#45;&gt;ビックカメラ -->
<g id="edge11" class="edge">
<title>ビックカメラSuicaカード&#45;&gt;ビックカメラ</title>
<path fill="none" stroke="black" stroke-width="2" stroke-dasharray="5,2" d="M401.47,-1453.05C447.97,-1462.86 509.39,-1473 564.5,-1473 564.5,-1473 564.5,-1473 871,-1473 880.54,-1473 924.73,-1492.33 960.38,-1508.67"/>
<polygon fill="black" stroke="black" stroke-width="2" points="959.15,-1511.96 969.7,-1512.97 962.08,-1505.6 959.15,-1511.96"/>
</g>
<!-- EX予約 -->
<g id="node51" class="node">
<title>EX予約</title>
<polygon fill="none" stroke="black" points="1041.5,-1441 976.5,-1441 976.5,-1405 1041.5,-1405 1041.5,-1441"/>
<text text-anchor="middle" x="1009" y="-1419.3" font-family="Times,serif" font-size="14.00">EX予約</text>
</g>
<!-- ビックカメラSuicaカード&#45;&gt;EX予約 -->
<g id="edge18" class="edge">
<title>ビックカメラSuicaカード&#45;&gt;EX予約</title>
<path fill="none" stroke="black" stroke-width="2" stroke-dasharray="5,2" d="M418.31,-1435C441.97,-1435 467.44,-1435 491,-1435 491,-1435 491,-1435 808,-1435 862.72,-1435 925.71,-1430.47 966.14,-1426.98"/>
<polygon fill="black" stroke="black" stroke-width="2" points="966.51,-1430.46 976.17,-1426.09 965.9,-1423.48 966.51,-1430.46"/>
</g>
<!-- nanaco -->
<g id="node18" class="node">
<title>nanaco</title>
<polygon fill="none" stroke="black" points="525.5,-171 458.5,-171 458.5,-135 525.5,-135 525.5,-171"/>
<text text-anchor="middle" x="492" y="-149.3" font-family="Times,serif" font-size="14.00">nanaco</text>
</g>
<!-- リクルートカード&#45;&gt;nanaco -->
<g id="edge57" class="edge">
<title>リクルートカード&#45;&gt;nanaco</title>
<path fill="none" stroke="black" stroke-width="2" d="M329.3,-789.58C336.54,-719.22 366.61,-461.35 436,-261 446.02,-232.08 462.41,-201.15 474.7,-179.84"/>
<polygon fill="black" stroke="black" stroke-width="2" points="477.81,-181.44 479.85,-171.04 471.77,-177.9 477.81,-181.44"/>
</g>
<!-- Edy -->
<g id="node19" class="node">
<title>Edy</title>
<polygon fill="none" stroke="black" points="519,-712 465,-712 465,-676 519,-676 519,-712"/>
<text text-anchor="middle" x="492" y="-690.3" font-family="Times,serif" font-size="14.00">Edy</text>
</g>
<!-- リクルートカード&#45;&gt;Edy -->
<g id="edge46" class="edge">
<title>リクルートカード&#45;&gt;Edy</title>
<path fill="none" stroke="black" stroke-width="2" d="M353.41,-789.94C381.31,-770.48 425.84,-739.44 456.64,-717.96"/>
<polygon fill="black" stroke="black" stroke-width="2" points="458.74,-720.76 464.94,-712.17 454.74,-715.02 458.74,-720.76"/>
</g>
<!-- リクルートカード&#45;&gt;Ponta -->
<g id="edge52" class="edge">
<title>リクルートカード&#45;&gt;Ponta</title>
<path fill="none" stroke="black" d="M327.65,-789.76C329,-724.64 340.68,-499.52 436,-350 481.49,-278.65 596.64,-285.46 656.71,-294.65"/>
<polygon fill="black" stroke="black" points="656.48,-298.16 666.91,-296.32 657.61,-291.25 656.48,-298.16"/>
<text text-anchor="middle" x="492" y="-331.8" font-family="Times,serif" font-size="14.00">1.2%</text>
</g>
<!-- ASAHIネット -->
<g id="node34" class="node">
<title>ASAHIネット</title>
<polygon fill="none" stroke="black" points="1062,-90 956,-90 956,-54 1062,-54 1062,-90"/>
<text text-anchor="middle" x="1009" y="-68.3" font-family="Times,serif" font-size="14.00">ASAHIネット</text>
</g>
<!-- リクルートカード&#45;&gt;ASAHIネット -->
<g id="edge31" class="edge">
<title>リクルートカード&#45;&gt;ASAHIネット</title>
<path fill="none" stroke="black" stroke-width="2" d="M328.3,-789.85C332.97,-691.78 359.99,-225.77 455,-126 520.82,-56.88 815.32,-62.35 945.63,-68.4"/>
<polygon fill="black" stroke="black" stroke-width="2" points="945.69,-71.91 955.85,-68.89 946.03,-64.91 945.69,-71.91"/>
</g>
<!-- 楽天モバイル -->
<g id="node35" class="node">
<title>楽天モバイル</title>
<polygon fill="none" stroke="black" points="1060,-550 958,-550 958,-514 1060,-514 1060,-550"/>
<text text-anchor="middle" x="1009" y="-528.3" font-family="Times,serif" font-size="14.00">楽天モバイル</text>
</g>
<!-- リクルートカード&#45;&gt;楽天モバイル -->
<g id="edge42" class="edge">
<title>リクルートカード&#45;&gt;楽天モバイル</title>
<path fill="none" stroke="black" stroke-width="2" d="M333.91,-789.79C357.39,-726.62 445.55,-517.9 602,-466 727.29,-424.44 883.32,-477.31 960.38,-509.91"/>
<polygon fill="black" stroke="black" stroke-width="2" points="959.25,-513.23 969.82,-513.97 962.02,-506.8 959.25,-513.23"/>
</g>
<!-- 楽天でんき -->
<g id="node36" class="node">
<title>楽天でんき</title>
<polygon fill="none" stroke="black" points="1053,-658 965,-658 965,-622 1053,-622 1053,-658"/>
<text text-anchor="middle" x="1009" y="-636.3" font-family="Times,serif" font-size="14.00">楽天でんき</text>
</g>
<!-- リクルートカード&#45;&gt;楽天でんき -->
<g id="edge38" class="edge">
<title>リクルートカード&#45;&gt;楽天でんき</title>
<path fill="none" stroke="black" stroke-width="2" d="M390.89,-814.94C506,-824.16 752.4,-827.97 914,-716 936.43,-700.46 929.84,-684.23 951,-667 952.72,-665.6 954.54,-664.24 956.41,-662.95"/>
<polygon fill="black" stroke="black" stroke-width="2" points="958.31,-665.88 964.92,-657.6 954.59,-659.95 958.31,-665.88"/>
</g>
<!-- 関西電力 -->
<g id="node37" class="node">
<title>関西電力</title>
<polygon fill="none" stroke="black" points="1046,-217 972,-217 972,-181 1046,-181 1046,-217"/>
<text text-anchor="middle" x="1009" y="-195.3" font-family="Times,serif" font-size="14.00">関西電力</text>
</g>
<!-- リクルートカード&#45;&gt;関西電力 -->
<g id="edge35" class="edge">
<title>リクルートカード&#45;&gt;関西電力</title>
<path fill="none" stroke="black" stroke-width="2" d="M329.19,-789.77C337.35,-705.85 375.64,-358.05 455,-291 531.59,-226.29 843.09,-206.15 961.77,-200.75"/>
<polygon fill="black" stroke="black" stroke-width="2" points="962.14,-204.24 971.98,-200.3 961.84,-197.25 962.14,-204.24"/>
</g>
<!-- 楽天損保 -->
<g id="node38" class="node">
<title>楽天損保</title>
<polygon fill="none" stroke="black" points="1046,-1177 972,-1177 972,-1141 1046,-1141 1046,-1177"/>
<text text-anchor="middle" x="1009" y="-1155.3" font-family="Times,serif" font-size="14.00">楽天損保</text>
</g>
<!-- リクルートカード&#45;&gt;楽天損保 -->
<g id="edge39" class="edge">
<title>リクルートカード&#45;&gt;楽天損保</title>
<path fill="none" stroke="black" stroke-width="2" d="M327.63,-826.06C329.17,-897.05 344.85,-1153 491,-1153 491,-1153 491,-1153 871,-1153 901.27,-1153 935.26,-1154.48 961.81,-1155.97"/>
<polygon fill="black" stroke="black" stroke-width="2" points="961.78,-1159.47 971.96,-1156.56 962.18,-1152.49 961.78,-1159.47"/>
</g>
<!-- 郵便局 -->
<g id="node39" class="node">
<title>郵便局</title>
<polygon fill="none" stroke="black" points="1038.5,-1123 979.5,-1123 979.5,-1087 1038.5,-1087 1038.5,-1123"/>
<text text-anchor="middle" x="1009" y="-1101.3" font-family="Times,serif" font-size="14.00">郵便局</text>
</g>
<!-- リクルートカード&#45;&gt;郵便局 -->
<g id="edge63" class="edge">
<title>リクルートカード&#45;&gt;郵便局</title>
<path fill="none" stroke="black" stroke-width="2" d="M328.8,-826.13C334.47,-890.61 362.98,-1105 491,-1105 491,-1105 491,-1105 871,-1105 904.07,-1105 941.63,-1105 969.05,-1105"/>
<polygon fill="black" stroke="black" stroke-width="2" points="969.4,-1108.5 979.4,-1105 969.4,-1101.5 969.4,-1108.5"/>
</g>
<!-- アイハート -->
<g id="node40" class="node">
<title>アイハート</title>
<polygon fill="none" stroke="black" points="1052,-1069 966,-1069 966,-1033 1052,-1033 1052,-1069"/>
<text text-anchor="middle" x="1009" y="-1047.3" font-family="Times,serif" font-size="14.00">アイハート</text>
</g>
<!-- リクルートカード&#45;&gt;アイハート -->
<g id="edge34" class="edge">
<title>リクルートカード&#45;&gt;アイハート</title>
<path fill="none" stroke="black" stroke-width="2" d="M330,-826.21C339.23,-885.17 376.94,-1067 491,-1067 491,-1067 491,-1067 871,-1067 899.1,-1067 930.22,-1063.64 955.69,-1060"/>
<polygon fill="black" stroke="black" stroke-width="2" points="956.5,-1063.42 965.87,-1058.48 955.47,-1056.49 956.5,-1063.42"/>
</g>
<!-- Amazon -->
<g id="node50" class="node">
<title>Amazon</title>
<polygon fill="none" stroke="black" points="1045.5,-1015 972.5,-1015 972.5,-979 1045.5,-979 1045.5,-1015"/>
<text text-anchor="middle" x="1009" y="-993.3" font-family="Times,serif" font-size="14.00">Amazon</text>
</g>
<!-- リクルートカード&#45;&gt;Amazon -->
<g id="edge32" class="edge">
<title>リクルートカード&#45;&gt;Amazon</title>
<path fill="none" stroke="black" stroke-width="2" d="M331.54,-826.09C344.52,-878.87 390.3,-1029 491,-1029 491,-1029 491,-1029 871,-1029 902.19,-1029 936.35,-1021.04 962.75,-1013.06"/>
<polygon fill="black" stroke="black" stroke-width="2" points="963.98,-1016.34 972.47,-1010.02 961.88,-1009.66 963.98,-1016.34"/>
</g>
<!-- じゃらん -->
<g id="node52" class="node">
<title>じゃらん</title>
<polygon fill="none" stroke="black" points="1046,-366 972,-366 972,-330 1046,-330 1046,-366"/>
<text text-anchor="middle" x="1009" y="-344.3" font-family="Times,serif" font-size="14.00">じゃらん</text>
</g>
<!-- リクルートカード&#45;&gt;じゃらん -->
<g id="edge33" class="edge">
<title>リクルートカード&#45;&gt;じゃらん</title>
<path fill="none" stroke="black" stroke-width="2" d="M330.09,-789.77C342.44,-706.22 398.69,-364 491,-364 491,-364 491,-364 808,-364 860.87,-364 921.36,-358.38 961.84,-353.8"/>
<polygon fill="black" stroke="black" stroke-width="2" points="962.41,-357.25 971.94,-352.63 961.6,-350.3 962.41,-357.25"/>
</g>
<!-- メルカリ -->
<g id="node53" class="node">
<title>メルカリ</title>
<polygon fill="none" stroke="black" points="1046,-1231 972,-1231 972,-1195 1046,-1195 1046,-1231"/>
<text text-anchor="middle" x="1009" y="-1209.3" font-family="Times,serif" font-size="14.00">メルカリ</text>
</g>
<!-- リクルートカード&#45;&gt;メルカリ -->
<g id="edge71" class="edge">
<title>リクルートカード&#45;&gt;メルカリ</title>
<path fill="none" stroke="black" stroke-width="2" d="M326.9,-826.22C325.4,-902.33 330.32,-1191 491,-1191 491,-1191 491,-1191 871,-1191 901.52,-1191 935.38,-1196.39 961.8,-1201.83"/>
<polygon fill="black" stroke="black" stroke-width="2" points="961.4,-1205.32 971.91,-1203.99 962.86,-1198.48 961.4,-1205.32"/>
</g>
<!-- 楽天市場 -->
<g id="node54" class="node">
<title>楽天市場</title>
<polygon fill="none" stroke="black" points="1046,-766 972,-766 972,-730 1046,-730 1046,-766"/>
<text text-anchor="middle" x="1009" y="-744.3" font-family="Times,serif" font-size="14.00">楽天市場</text>
</g>
<!-- リクルートカード&#45;&gt;楽天市場 -->
<g id="edge40" class="edge">
<title>リクルートカード&#45;&gt;楽天市場</title>
<path fill="none" stroke="black" stroke-width="2" d="M390.81,-819.69C483.78,-834.57 662.03,-854.37 808,-819 862.25,-805.85 922.34,-783.4 962.35,-767.26"/>
<polygon fill="black" stroke="black" stroke-width="2" points="963.89,-770.41 971.83,-763.4 961.25,-763.93 963.89,-770.41"/>
</g>
<!-- Suica&#45;&gt;JREポイント -->
<g id="edge19" class="edge">
<title>Suica&#45;&gt;JREポイント</title>
<path fill="none" stroke="black" d="M516.4,-1319.84C525.45,-1313.89 536.21,-1308.04 547,-1305 575.35,-1297.02 607.94,-1297.81 635.27,-1301.11"/>
<polygon fill="black" stroke="black" points="635.09,-1304.62 645.46,-1302.48 636.02,-1297.68 635.09,-1304.62"/>
<text text-anchor="middle" x="565.5" y="-1308.8" font-family="Times,serif" font-size="14.00">1.5%</text>
</g>
<!-- 電車 -->
<g id="node33" class="node">
<title>電車</title>
<polygon fill="none" stroke="black" points="1036,-1495 982,-1495 982,-1459 1036,-1459 1036,-1495"/>
<text text-anchor="middle" x="1009" y="-1473.3" font-family="Times,serif" font-size="14.00">電車</text>
</g>
<!-- Suica&#45;&gt;電車 -->
<g id="edge16" class="edge">
<title>Suica&#45;&gt;電車</title>
<path fill="none" stroke="black" stroke-width="2" d="M520.19,-1349.95C528.69,-1353.44 538.15,-1357.1 547,-1360 652.4,-1394.57 681.49,-1393.7 789,-1421 853.44,-1437.36 928.5,-1456.59 971.91,-1467.73"/>
<polygon fill="black" stroke="black" stroke-width="2" points="971.16,-1471.15 981.71,-1470.25 972.9,-1464.37 971.16,-1471.15"/>
</g>
<!-- 松屋 -->
<g id="node46" class="node">
<title>松屋</title>
<polygon fill="none" stroke="black" points="1036,-1377 982,-1377 982,-1341 1036,-1341 1036,-1377"/>
<text text-anchor="middle" x="1009" y="-1355.3" font-family="Times,serif" font-size="14.00">松屋</text>
</g>
<!-- Suica&#45;&gt;松屋 -->
<g id="edge17" class="edge">
<title>Suica&#45;&gt;松屋</title>
<path fill="none" stroke="black" stroke-width="2" d="M520.16,-1341.44C528.73,-1342.41 538.25,-1343.37 547,-1344 704.91,-1355.32 893.86,-1358.1 971.73,-1358.78"/>
<polygon fill="black" stroke="black" stroke-width="2" points="971.94,-1362.28 981.97,-1358.86 972,-1355.28 971.94,-1362.28"/>
</g>
<!-- 飲食店 -->
<g id="node44" class="node">
<title>飲食店</title>
<polygon fill="none" stroke="black" points="1038.5,-1683 979.5,-1683 979.5,-1647 1038.5,-1647 1038.5,-1683"/>
<text text-anchor="middle" x="1009" y="-1661.3" font-family="Times,serif" font-size="14.00">飲食店</text>
</g>
<!-- 現金&#45;&gt;飲食店 -->
<g id="edge65" class="edge">
<title>現金&#45;&gt;飲食店</title>
<path fill="none" stroke="black" stroke-width="2" d="M519.25,-1690.62C603.78,-1686.19 869.23,-1672.28 969.31,-1667.03"/>
<polygon fill="black" stroke="black" stroke-width="2" points="969.49,-1670.52 979.3,-1666.5 969.13,-1663.53 969.49,-1670.52"/>
</g>
<!-- 理髪店 -->
<g id="node48" class="node">
<title>理髪店</title>
<polygon fill="none" stroke="black" points="1038.5,-1802 979.5,-1802 979.5,-1766 1038.5,-1766 1038.5,-1802"/>
<text text-anchor="middle" x="1009" y="-1780.3" font-family="Times,serif" font-size="14.00">理髪店</text>
</g>
<!-- 現金&#45;&gt;理髪店 -->
<g id="edge66" class="edge">
<title>現金&#45;&gt;理髪店</title>
<path fill="none" stroke="black" stroke-width="2" d="M519.25,-1707.49C527.87,-1712.06 537.63,-1716.71 547,-1720 570.52,-1728.26 577.4,-1726.94 602,-1731 736.36,-1753.18 897,-1771.84 969.33,-1779.83"/>
<polygon fill="black" stroke="black" stroke-width="2" points="969.03,-1783.32 979.35,-1780.93 969.79,-1776.36 969.03,-1783.32"/>
</g>
<!-- クリーニング -->
<g id="node49" class="node">
<title>クリーニング</title>
<polygon fill="none" stroke="black" points="1059.5,-1748 958.5,-1748 958.5,-1712 1059.5,-1712 1059.5,-1748"/>
<text text-anchor="middle" x="1009" y="-1726.3" font-family="Times,serif" font-size="14.00">クリーニング</text>
</g>
<!-- 現金&#45;&gt;クリーニング -->
<g id="edge67" class="edge">
<title>現金&#45;&gt;クリーニング</title>
<path fill="none" stroke="black" stroke-width="2" d="M519.24,-1698.13C528.02,-1699.97 537.89,-1701.81 547,-1703 690.19,-1721.68 860.1,-1727.44 948.24,-1729.21"/>
<polygon fill="black" stroke="black" stroke-width="2" points="948.26,-1732.71 958.32,-1729.41 948.39,-1725.72 948.26,-1732.71"/>
</g>
<!-- nanacoポイント -->
<g id="node27" class="node">
<title>nanacoポイント</title>
<polygon fill="none" stroke="black" points="757.5,-136 633.5,-136 633.5,-100 757.5,-100 757.5,-136"/>
<text text-anchor="middle" x="695.5" y="-114.3" font-family="Times,serif" font-size="14.00">nanacoポイント</text>
</g>
<!-- nanaco&#45;&gt;nanacoポイント -->
<g id="edge59" class="edge">
<title>nanaco&#45;&gt;nanacoポイント</title>
<path fill="none" stroke="black" d="M525.82,-147.3C552.1,-142.73 589.91,-136.17 623.08,-130.4"/>
<polygon fill="black" stroke="black" points="623.96,-133.81 633.21,-128.65 622.76,-126.91 623.96,-133.81"/>
<text text-anchor="middle" x="565.5" y="-147.8" font-family="Times,serif" font-size="14.00">1%</text>
</g>
<!-- セブンイレブン -->
<g id="node32" class="node">
<title>セブンイレブン</title>
<polygon fill="none" stroke="black" points="1066,-420 952,-420 952,-384 1066,-384 1066,-420"/>
<text text-anchor="middle" x="1009" y="-398.3" font-family="Times,serif" font-size="14.00">セブンイレブン</text>
</g>
<!-- nanaco&#45;&gt;セブンイレブン -->
<g id="edge58" class="edge">
<title>nanaco&#45;&gt;セブンイレブン</title>
<path fill="none" stroke="black" stroke-width="2" d="M525.52,-167.89C546.99,-177.43 575.87,-189.71 602,-199 738.1,-247.38 805.6,-194.54 914,-290 944.92,-317.23 922.33,-345.41 951,-375 951.9,-375.93 952.84,-376.83 953.81,-377.7"/>
<polygon fill="black" stroke="black" stroke-width="2" points="951.75,-380.53 961.81,-383.87 956.02,-374.99 951.75,-380.53"/>
</g>
<!-- Edy&#45;&gt;楽天ポイント -->
<g id="edge51" class="edge">
<title>Edy&#45;&gt;楽天ポイント</title>
<path fill="none" stroke="black" d="M514.56,-675.81C550.92,-645.13 624.45,-583.1 665.36,-548.58"/>
<polygon fill="black" stroke="black" points="667.7,-551.19 673.09,-542.06 663.19,-545.84 667.7,-551.19"/>
<text text-anchor="middle" x="565.5" y="-652.8" font-family="Times,serif" font-size="14.00">0.5%</text>
</g>
<!-- Edy&#45;&gt;セブンイレブン -->
<g id="edge64" class="edge">
<title>Edy&#45;&gt;セブンイレブン</title>
<path fill="none" stroke="black" stroke-width="2" d="M494.4,-675.89C497.91,-640.5 509.68,-560.9 547,-507 564.36,-481.93 573.9,-477.83 602,-466 715.01,-418.43 859.23,-405.88 941.85,-402.78"/>
<polygon fill="black" stroke="black" stroke-width="2" points="941.98,-406.27 951.85,-402.44 941.74,-399.28 941.98,-406.27"/>
</g>
<!-- ヨドバシカメラ -->
<g id="node42" class="node">
<title>ヨドバシカメラ</title>
<polygon fill="none" stroke="black" points="1067,-874 951,-874 951,-838 1067,-838 1067,-874"/>
<text text-anchor="middle" x="1009" y="-852.3" font-family="Times,serif" font-size="14.00">ヨドバシカメラ</text>
</g>
<!-- Edy&#45;&gt;ヨドバシカメラ -->
<g id="edge47" class="edge">
<title>Edy&#45;&gt;ヨドバシカメラ</title>
<path fill="none" stroke="black" stroke-width="2" d="M519.26,-711.16C540.71,-724.44 572.23,-742.3 602,-753 718.32,-794.81 859.17,-826.51 940.69,-843.09"/>
<polygon fill="black" stroke="black" stroke-width="2" points="940.32,-846.58 950.81,-845.13 941.7,-839.72 940.32,-846.58"/>
</g>
<!-- 餃子の王将 -->
<g id="node43" class="node">
<title>餃子の王将</title>
<polygon fill="none" stroke="black" points="1053,-712 965,-712 965,-676 1053,-676 1053,-712"/>
<text text-anchor="middle" x="1009" y="-690.3" font-family="Times,serif" font-size="14.00">餃子の王将</text>
</g>
<!-- Edy&#45;&gt;餃子の王将 -->
<g id="edge62" class="edge">
<title>Edy&#45;&gt;餃子の王将</title>
<path fill="none" stroke="black" stroke-width="2" d="M519.25,-694C599.97,-694 845.65,-694 954.78,-694"/>
<polygon fill="black" stroke="black" stroke-width="2" points="954.91,-697.5 964.91,-694 954.91,-690.5 954.91,-697.5"/>
</g>
<!-- 業務スーパー -->
<g id="node45" class="node">
<title>業務スーパー</title>
<polygon fill="none" stroke="black" points="1060,-496 958,-496 958,-460 1060,-460 1060,-496"/>
<text text-anchor="middle" x="1009" y="-474.3" font-family="Times,serif" font-size="14.00">業務スーパー</text>
</g>
<!-- Edy&#45;&gt;業務スーパー -->
<g id="edge61" class="edge">
<title>Edy&#45;&gt;業務スーパー</title>
<path fill="none" stroke="black" stroke-width="2" d="M496.83,-675.77C506.42,-635.29 535.6,-538.27 602,-497 658.07,-462.15 849.1,-468.1 947.83,-473.82"/>
<polygon fill="black" stroke="black" stroke-width="2" points="947.76,-477.32 957.95,-474.42 948.18,-470.33 947.76,-477.32"/>
</g>
<!-- 吉野家 -->
<g id="node47" class="node">
<title>吉野家</title>
<polygon fill="none" stroke="black" points="1038.5,-820 979.5,-820 979.5,-784 1038.5,-784 1038.5,-820"/>
<text text-anchor="middle" x="1009" y="-798.3" font-family="Times,serif" font-size="14.00">吉野家</text>
</g>
<!-- Edy&#45;&gt;吉野家 -->
<g id="edge50" class="edge">
<title>Edy&#45;&gt;吉野家</title>
<path fill="none" stroke="black" stroke-width="2" d="M519.02,-701.07C527.87,-703.39 537.84,-705.91 547,-708 653.89,-732.44 681.57,-734.06 789,-756 852.26,-768.92 925.67,-784.45 969.4,-793.76"/>
<polygon fill="black" stroke="black" stroke-width="2" points="968.81,-797.21 979.32,-795.87 970.27,-790.36 968.81,-797.21"/>
</g>
<!-- PayPay&#45;&gt;飲食店 -->
<g id="edge27" class="edge">
<title>PayPay&#45;&gt;飲食店</title>
<path fill="none" stroke="black" stroke-width="2" d="M526.39,-1634.14C617.79,-1640 871.71,-1656.27 969.2,-1662.51"/>
<polygon fill="black" stroke="black" stroke-width="2" points="969.01,-1666.01 979.21,-1663.16 969.46,-1659.02 969.01,-1666.01"/>
</g>
<!-- メルペイ&#45;&gt;三井住友銀行 -->
<g id="edge70" class="edge">
<title>メルペイ&#45;&gt;三井住友銀行</title>
<path fill="none" stroke="black" stroke-width="2" d="M471.71,-1258.3C466.24,-1263.61 460.32,-1269.48 455,-1275 437.97,-1292.68 437.52,-1301.12 418,-1316 345.6,-1371.18 303.56,-1348.11 235,-1408 213.09,-1427.14 217.17,-1440.11 198,-1462 192.03,-1468.82 185.08,-1475.64 178.3,-1481.84"/>
<polygon fill="black" stroke="black" stroke-width="2" points="175.63,-1479.52 170.48,-1488.78 180.28,-1484.76 175.63,-1479.52"/>
</g>
<!-- メルペイ&#45;&gt;メルカリ -->
<g id="edge69" class="edge">
<title>メルペイ&#45;&gt;メルカリ</title>
<path fill="none" stroke="black" stroke-width="2" d="M529.21,-1238.1C620.54,-1233.31 860.17,-1220.75 961.59,-1215.43"/>
<polygon fill="black" stroke="black" stroke-width="2" points="962.02,-1218.92 971.83,-1214.9 961.66,-1211.92 962.02,-1218.92"/>
</g>
<!-- Ponta&#45;&gt;じゃらん -->
<g id="edge53" class="edge">
<title>Ponta&#45;&gt;じゃらん</title>
<path fill="none" stroke="black" d="M724.14,-306.08C777.71,-313.99 896.14,-331.48 961.84,-341.18"/>
<polygon fill="black" stroke="black" points="961.51,-344.67 971.91,-342.67 962.53,-337.75 961.51,-344.67"/>
</g>
<!-- 楽天ポイント&#45;&gt;楽天モバイル -->
<g id="edge44" class="edge">
<title>楽天ポイント&#45;&gt;楽天モバイル</title>
<path fill="none" stroke="black" d="M746.79,-525.26C794.67,-526.46 868.74,-528.33 933,-530 937.79,-530.12 942.76,-530.25 947.75,-530.39"/>
<polygon fill="black" stroke="black" points="947.89,-533.89 957.98,-530.66 948.07,-526.89 947.89,-533.89"/>
</g>
<!-- 楽天ポイント&#45;&gt;楽天でんき -->
<g id="edge45" class="edge">
<title>楽天ポイント&#45;&gt;楽天でんき</title>
<path fill="none" stroke="black" d="M745.17,-542.12C802.23,-563.37 896.44,-598.46 955.21,-620.34"/>
<polygon fill="black" stroke="black" points="954.09,-623.66 964.69,-623.87 956.54,-617.1 954.09,-623.66"/>
</g>
<!-- JREポイント&#45;&gt;Suica -->
<g id="edge20" class="edge">
<title>JREポイント&#45;&gt;Suica</title>
<path fill="none" stroke="black" d="M645.37,-1319.1C609.84,-1323.5 562.56,-1329.37 530.14,-1333.39"/>
<polygon fill="black" stroke="black" points="529.67,-1329.92 520.18,-1334.63 530.53,-1336.87 529.67,-1329.92"/>
</g>
<!-- ビックポイント&#45;&gt;ビックカメラ -->
<g id="edge14" class="edge">
<title>ビックポイント&#45;&gt;ビックカメラ</title>
<path fill="none" stroke="black" d="M753.8,-1567.77C797.69,-1562.13 859.72,-1553.95 914,-1546 925.13,-1544.37 936.99,-1542.55 948.39,-1540.75"/>
<polygon fill="black" stroke="black" points="948.95,-1544.2 958.28,-1539.18 947.85,-1537.29 948.95,-1544.2"/>
</g>
<!-- Amazonポイント -->
<g id="node26" class="node">
<title>Amazonポイント</title>
<polygon fill="none" stroke="black" points="760.5,-1000 630.5,-1000 630.5,-964 760.5,-964 760.5,-1000"/>
<text text-anchor="middle" x="695.5" y="-978.3" font-family="Times,serif" font-size="14.00">Amazonポイント</text>
</g>
<!-- Amazonポイント&#45;&gt;Amazon -->
<g id="edge56" class="edge">
<title>Amazonポイント&#45;&gt;Amazon</title>
<path fill="none" stroke="black" d="M760.67,-979.51C820.77,-980.66 909.11,-985.12 962.34,-989.86"/>
<polygon fill="black" stroke="black" points="962.22,-993.36 972.5,-990.81 962.87,-986.39 962.22,-993.36"/>
</g>
<!-- nanacoポイント&#45;&gt;nanaco -->
<g id="edge60" class="edge">
<title>nanacoポイント&#45;&gt;nanaco</title>
<path fill="none" stroke="black" d="M633.34,-121.46C606.6,-123.79 575.01,-127.64 547,-134 543.18,-134.87 539.26,-135.92 535.36,-137.07"/>
<polygon fill="black" stroke="black" points="534.24,-133.75 525.77,-140.12 536.36,-140.43 534.24,-133.75"/>
</g>
<!-- ヨドバシゴールドポイント -->
<g id="node28" class="node">
<title>ヨドバシゴールドポイント</title>
<polygon fill="none" stroke="black" points="789,-928 602,-928 602,-892 789,-892 789,-928"/>
<text text-anchor="middle" x="695.5" y="-906.3" font-family="Times,serif" font-size="14.00">ヨドバシゴールドポイント</text>
</g>
<!-- ヨドバシゴールドポイント&#45;&gt;ヨドバシカメラ -->
<g id="edge49" class="edge">
<title>ヨドバシゴールドポイント&#45;&gt;ヨドバシカメラ</title>
<path fill="none" stroke="black" d="M789.12,-893.94C837.87,-885.49 896.55,-875.32 940.88,-867.64"/>
<polygon fill="black" stroke="black" points="941.71,-871.04 950.96,-865.89 940.51,-864.15 941.71,-871.04"/>
</g>
<!-- はぴeポイント -->
<g id="node29" class="node">
<title>はぴeポイント</title>
<polygon fill="none" stroke="black" points="750.5,-190 640.5,-190 640.5,-154 750.5,-154 750.5,-190"/>
<text text-anchor="middle" x="695.5" y="-168.3" font-family="Times,serif" font-size="14.00">はぴeポイント</text>
</g>
<!-- はぴeポイント&#45;&gt;関西電力 -->
<g id="edge37" class="edge">
<title>はぴeポイント&#45;&gt;関西電力</title>
<path fill="none" stroke="black" d="M750.64,-162.07C794.96,-155.66 859.07,-150.32 914,-161 930.6,-164.23 947.98,-170.38 963.21,-176.82"/>
<polygon fill="black" stroke="black" points="961.83,-180.03 972.39,-180.83 964.63,-173.62 961.83,-180.03"/>
</g>
<!-- 株主優待券&#45;&gt;住信SBI銀行 -->
<g id="edge30" class="edge">
<title>株主優待券&#45;&gt;住信SBI銀行</title>
<path fill="none" stroke="black" d="M825.82,-1523.16C722.57,-1525.87 453.74,-1516.95 235,-1471 218.62,-1467.56 200.92,-1462.35 185.78,-1456.79"/>
<polygon fill="black" stroke="black" points="186.84,-1453.44 176.25,-1453.09 184.31,-1459.97 186.84,-1453.44"/>
</g>
<!-- 株主優待券&#45;&gt;電車 -->
<g id="edge29" class="edge">
<title>株主優待券&#45;&gt;電車</title>
<path fill="none" stroke="black" stroke-width="2" d="M914.35,-1505.71C932.83,-1500.05 954.14,-1493.51 971.77,-1488.11"/>
<polygon fill="black" stroke="black" stroke-width="2" points="973.13,-1491.35 981.67,-1485.07 971.08,-1484.66 973.13,-1491.35"/>
</g>
<!-- 楽天モバイル&#45;&gt;楽天ポイント -->
<g id="edge43" class="edge">
<title>楽天モバイル&#45;&gt;楽天ポイント</title>
<path fill="none" stroke="black" d="M957.6,-532.12C916.94,-532.06 858.27,-531.65 807,-530 790.62,-529.47 772.89,-528.63 756.52,-527.74"/>
<polygon fill="black" stroke="black" points="756.72,-524.25 746.54,-527.19 756.33,-531.24 756.72,-524.25"/>
<text text-anchor="middle" x="870" y="-535.8" font-family="Times,serif" font-size="14.00">0.5%</text>
</g>
<!-- 関西電力&#45;&gt;はぴeポイント -->
<g id="edge36" class="edge">
<title>関西電力&#45;&gt;はぴeポイント</title>
<path fill="none" stroke="black" d="M971.99,-185.12C954.73,-179.18 933.59,-172.95 914,-170 863.01,-162.31 804.53,-163.4 761.06,-166.08"/>
<polygon fill="black" stroke="black" points="760.66,-162.6 750.91,-166.75 761.12,-169.58 760.66,-162.6"/>
<text text-anchor="middle" x="870" y="-173.8" font-family="Times,serif" font-size="14.00">0.5%</text>
</g>
<!-- ビックカメラ&#45;&gt;ビックポイント -->
<g id="edge12" class="edge">
<title>ビックカメラ&#45;&gt;ビックポイント</title>
<path fill="none" stroke="black" stroke-dasharray="5,2" d="M987,-1549.11C972.79,-1560.11 953.03,-1573.14 933,-1579 877.62,-1595.2 811.79,-1592.42 763.66,-1586.6"/>
<polygon fill="black" stroke="black" points="764.03,-1583.12 753.67,-1585.32 763.14,-1590.06 764.03,-1583.12"/>
<text text-anchor="middle" x="870" y="-1595.8" font-family="Times,serif" font-size="14.00">9.5%</text>
</g>
<!-- ヨドバシカメラ&#45;&gt;ヨドバシゴールドポイント -->
<g id="edge48" class="edge">
<title>ヨドバシカメラ&#45;&gt;ヨドバシゴールドポイント</title>
<path fill="none" stroke="black" d="M982.59,-874.11C968.64,-883.02 950.64,-892.92 933,-898 890.21,-910.33 841.29,-914.38 799.09,-914.94"/>
<polygon fill="black" stroke="black" points="799.05,-911.44 789.08,-915.01 799.1,-918.44 799.05,-911.44"/>
<text text-anchor="middle" x="870" y="-918.8" font-family="Times,serif" font-size="14.00">10%</text>
</g>
<!-- Amazon&#45;&gt;Amazonポイント -->
<g id="edge55" class="edge">
<title>Amazon&#45;&gt;Amazonポイント</title>
<path fill="none" stroke="black" d="M972.5,-999.77C923.63,-999.88 834.44,-996.05 770.67,-991.42"/>
<polygon fill="black" stroke="black" points="770.9,-987.93 760.67,-990.67 770.38,-994.91 770.9,-987.93"/>
</g>
<!-- じゃらん&#45;&gt;Ponta -->
<g id="edge54" class="edge">
<title>じゃらん&#45;&gt;Ponta</title>
<path fill="none" stroke="black" d="M978.76,-329.85C960.81,-319.78 936.93,-308.26 914,-303 852.29,-288.84 778.11,-292.8 734.27,-297.22"/>
<polygon fill="black" stroke="black" points="733.64,-293.77 724.07,-298.31 734.38,-300.73 733.64,-293.77"/>
<text text-anchor="middle" x="870" y="-306.8" font-family="Times,serif" font-size="14.00">2%</text>
</g>
<!-- 楽天市場&#45;&gt;楽天ポイント -->
<g id="edge41" class="edge">
<title>楽天市場&#45;&gt;楽天ポイント</title>
<path fill="none" stroke="black" d="M971.8,-732.3C964.75,-728.85 957.53,-725.01 951,-721 863.18,-667.09 769.81,-588.61 724.46,-548.94"/>
<polygon fill="black" stroke="black" points="726.65,-546.2 716.83,-542.23 722.03,-551.46 726.65,-546.2"/>
<text text-anchor="middle" x="870" y="-700.8" font-family="Times,serif" font-size="14.00">3%</text>
</g>
</g>
</svg>
