<?xml version="1.0" encoding="UTF-8" standalone="no"?>
<!DOCTYPE svg PUBLIC "-//W3C//DTD SVG 1.1//EN"
 "http://www.w3.org/Graphics/SVG/1.1/DTD/svg11.dtd">
<!-- Generated by graphviz version 2.40.1 (20161225.0304)
 -->
<!-- Title: MoneyFlow Pages: 1 -->
<svg width="2976pt" height="496pt"
 viewBox="0.00 0.00 2975.50 496.00" xmlns="http://www.w3.org/2000/svg" xmlns:xlink="http://www.w3.org/1999/xlink">
<g id="graph0" class="graph" transform="scale(1 1) rotate(0) translate(4 492)">
<title>MoneyFlow</title>
<polygon fill="#ffffff" stroke="transparent" points="-4,4 -4,-492 2971.5,-492 2971.5,4 -4,4"/>
<!-- 収入 -->
<g id="node1" class="node">
<title>収入</title>
<text text-anchor="middle" x="65.5" y="-466.3" font-family="Times,serif" font-size="14.00" fill="#000000">収入</text>
</g>
<!-- 銀行口座 -->
<g id="node2" class="node">
<title>銀行口座</title>
<text text-anchor="middle" x="65.5" y="-393.3" font-family="Times,serif" font-size="14.00" fill="#000000">銀行口座</text>
</g>
<!-- 収入&#45;&gt;銀行口座 -->
<g id="edge1" class="edge">
<title>収入&#45;&gt;銀行口座</title>
<path fill="none" stroke="#000000" d="M65.5,-451.9551C65.5,-440.7241 65.5,-426.3298 65.5,-415.0904"/>
</g>
<!-- クレジットカード -->
<g id="node3" class="node">
<title>クレジットカード</title>
<text text-anchor="middle" x="65.5" y="-320.3" font-family="Times,serif" font-size="14.00" fill="#000000">クレジットカード</text>
</g>
<!-- 銀行口座&#45;&gt;クレジットカード -->
<g id="edge2" class="edge">
<title>銀行口座&#45;&gt;クレジットカード</title>
<path fill="none" stroke="#000000" d="M65.5,-378.9551C65.5,-367.7241 65.5,-353.3298 65.5,-342.0904"/>
</g>
<!-- マネー -->
<g id="node4" class="node">
<title>マネー</title>
<text text-anchor="middle" x="65.5" y="-247.3" font-family="Times,serif" font-size="14.00" fill="#000000">マネー</text>
</g>
<!-- クレジットカード&#45;&gt;マネー -->
<g id="edge3" class="edge">
<title>クレジットカード&#45;&gt;マネー</title>
<path fill="none" stroke="#000000" d="M65.5,-305.9551C65.5,-294.7241 65.5,-280.3298 65.5,-269.0904"/>
</g>
<!-- ポイント -->
<g id="node5" class="node">
<title>ポイント</title>
<text text-anchor="middle" x="65.5" y="-160.3" font-family="Times,serif" font-size="14.00" fill="#000000">ポイント</text>
</g>
<!-- マネー&#45;&gt;ポイント -->
<g id="edge4" class="edge">
<title>マネー&#45;&gt;ポイント</title>
<path fill="none" stroke="#000000" d="M65.5,-232.9735C65.5,-218.0422 65.5,-196.9283 65.5,-182.0034"/>
</g>
<!-- 金券 -->
<g id="node6" class="node">
<title>金券</title>
<text text-anchor="middle" x="65.5" y="-87.3" font-family="Times,serif" font-size="14.00" fill="#000000">金券</text>
</g>
<!-- ポイント&#45;&gt;金券 -->
<g id="edge5" class="edge">
<title>ポイント&#45;&gt;金券</title>
<path fill="none" stroke="#000000" d="M65.5,-145.9551C65.5,-134.7241 65.5,-120.3298 65.5,-109.0904"/>
</g>
<!-- 支出 -->
<g id="node7" class="node">
<title>支出</title>
<text text-anchor="middle" x="65.5" y="-14.3" font-family="Times,serif" font-size="14.00" fill="#000000">支出</text>
</g>
<!-- 金券&#45;&gt;支出 -->
<g id="edge6" class="edge">
<title>金券&#45;&gt;支出</title>
<path fill="none" stroke="#000000" d="M65.5,-72.9551C65.5,-61.7241 65.5,-47.3298 65.5,-36.0904"/>
</g>
<!-- 給与 -->
<g id="node8" class="node">
<title>給与</title>
<polygon fill="none" stroke="#000000" points="387.5,-488 333.5,-488 333.5,-452 387.5,-452 387.5,-488"/>
<text text-anchor="middle" x="360.5" y="-466.3" font-family="Times,serif" font-size="14.00" fill="#000000">給与</text>
</g>
<!-- 三井住友銀行 -->
<g id="node9" class="node">
<title>三井住友銀行</title>
<polygon fill="none" stroke="#000000" points="411.5,-415 309.5,-415 309.5,-379 411.5,-379 411.5,-415"/>
<text text-anchor="middle" x="360.5" y="-393.3" font-family="Times,serif" font-size="14.00" fill="#000000">三井住友銀行</text>
</g>
<!-- 給与&#45;&gt;三井住友銀行 -->
<g id="edge7" class="edge">
<title>給与&#45;&gt;三井住友銀行</title>
<path fill="none" stroke="#000000" stroke-width="2" d="M360.5,-451.9551C360.5,-443.8828 360.5,-434.1764 360.5,-425.1817"/>
<polygon fill="#000000" stroke="#000000" stroke-width="2" points="364.0001,-425.0903 360.5,-415.0904 357.0001,-425.0904 364.0001,-425.0903"/>
</g>
<!-- 住信SBI銀行 -->
<g id="node10" class="node">
<title>住信SBI銀行</title>
<polygon fill="none" stroke="#000000" points="562.5,-415 462.5,-415 462.5,-379 562.5,-379 562.5,-415"/>
<text text-anchor="middle" x="512.5" y="-393.3" font-family="Times,serif" font-size="14.00" fill="#000000">住信SBI銀行</text>
</g>
<!-- 三井住友銀行&#45;&gt;住信SBI銀行 -->
<g id="edge9" class="edge">
<title>三井住友銀行&#45;&gt;住信SBI銀行</title>
<path fill="none" stroke="#000000" stroke-width="2" d="M411.5625,-397C425.073,-397 438.5835,-397 452.094,-397"/>
<polygon fill="#000000" stroke="#000000" stroke-width="2" points="452.4256,-400.5001 462.4255,-397 452.4255,-393.5001 452.4256,-400.5001"/>
</g>
<!-- 三井住友VISAカード -->
<g id="node11" class="node">
<title>三井住友VISAカード</title>
<polygon fill="none" stroke="#000000" points="317,-342 164,-342 164,-306 317,-306 317,-342"/>
<text text-anchor="middle" x="240.5" y="-320.3" font-family="Times,serif" font-size="14.00" fill="#000000">三井住友VISAカード</text>
</g>
<!-- 三井住友銀行&#45;&gt;三井住友VISAカード -->
<g id="edge11" class="edge">
<title>三井住友銀行&#45;&gt;三井住友VISAカード</title>
<path fill="none" stroke="#000000" stroke-width="2" d="M330.8371,-378.9551C315.26,-369.479 295.9807,-357.7508 279.2383,-347.5658"/>
<polygon fill="#000000" stroke="#000000" stroke-width="2" points="280.6,-344.2974 270.2376,-342.0904 276.9619,-350.2778 280.6,-344.2974"/>
</g>
<!-- 現金 -->
<g id="node16" class="node">
<title>現金</title>
<polygon fill="none" stroke="#000000" points="539.5,-269 485.5,-269 485.5,-233 539.5,-233 539.5,-269"/>
<text text-anchor="middle" x="512.5" y="-247.3" font-family="Times,serif" font-size="14.00" fill="#000000">現金</text>
</g>
<!-- 三井住友銀行&#45;&gt;現金 -->
<g id="edge8" class="edge">
<title>三井住友銀行&#45;&gt;現金</title>
<path fill="none" stroke="#000000" stroke-width="2" d="M379.4436,-378.8042C406.2952,-353.0125 455.5399,-305.7117 486.0026,-276.4514"/>
<polygon fill="#000000" stroke="#000000" stroke-width="2" points="488.5303,-278.8766 493.3177,-269.4251 483.6811,-273.8282 488.5303,-278.8766"/>
</g>
<!-- 関西電力 -->
<g id="node39" class="node">
<title>関西電力</title>
<polygon fill="none" stroke="#000000" points="382.5,-36 308.5,-36 308.5,0 382.5,0 382.5,-36"/>
<text text-anchor="middle" x="345.5" y="-14.3" font-family="Times,serif" font-size="14.00" fill="#000000">関西電力</text>
</g>
<!-- 三井住友銀行&#45;&gt;関西電力 -->
<g id="edge10" class="edge">
<title>三井住友銀行&#45;&gt;関西電力</title>
<path fill="none" stroke="#000000" stroke-width="2" d="M354.6577,-378.9113C350.4459,-364.2663 345.5,-343.0194 345.5,-324 345.5,-324 345.5,-324 345.5,-91 345.5,-76.2996 345.5,-59.934 345.5,-46.4302"/>
<polygon fill="#000000" stroke="#000000" stroke-width="2" points="349.0001,-46.3003 345.5,-36.3003 342.0001,-46.3004 349.0001,-46.3003"/>
</g>
<!-- ビックカメラSuicaカード -->
<g id="node12" class="node">
<title>ビックカメラSuicaカード</title>
<polygon fill="none" stroke="#000000" points="858,-342 673,-342 673,-306 858,-306 858,-342"/>
<text text-anchor="middle" x="765.5" y="-320.3" font-family="Times,serif" font-size="14.00" fill="#000000">ビックカメラSuicaカード</text>
</g>
<!-- 住信SBI銀行&#45;&gt;ビックカメラSuicaカード -->
<g id="edge30" class="edge">
<title>住信SBI銀行&#45;&gt;ビックカメラSuicaカード</title>
<path fill="none" stroke="#000000" stroke-width="2" d="M562.7871,-382.4903C600.0088,-371.7504 651.2655,-356.9609 692.9237,-344.941"/>
<polygon fill="#000000" stroke="#000000" stroke-width="2" points="694.1078,-348.2422 702.7455,-342.107 692.1671,-341.5166 694.1078,-348.2422"/>
</g>
<!-- リクルートカード -->
<g id="node13" class="node">
<title>リクルートカード</title>
<polygon fill="none" stroke="#000000" points="2384,-342 2253,-342 2253,-306 2384,-306 2384,-342"/>
<text text-anchor="middle" x="2318.5" y="-320.3" font-family="Times,serif" font-size="14.00" fill="#000000">リクルートカード</text>
</g>
<!-- 住信SBI銀行&#45;&gt;リクルートカード -->
<g id="edge31" class="edge">
<title>住信SBI銀行&#45;&gt;リクルートカード</title>
<path fill="none" stroke="#000000" stroke-width="2" d="M562.6877,-394.9714C814.3392,-384.7994 1938.7067,-339.3516 2242.5847,-327.0686"/>
<polygon fill="#000000" stroke="#000000" stroke-width="2" points="2242.7686,-330.5641 2252.619,-326.663 2242.4858,-323.5698 2242.7686,-330.5641"/>
</g>
<!-- 住信SBI銀行&#45;&gt;現金 -->
<g id="edge28" class="edge">
<title>住信SBI銀行&#45;&gt;現金</title>
<path fill="none" stroke="#000000" stroke-width="2" d="M512.5,-378.8042C512.5,-353.8868 512.5,-308.8938 512.5,-279.4877"/>
<polygon fill="#000000" stroke="#000000" stroke-width="2" points="516.0001,-279.4251 512.5,-269.4251 509.0001,-279.4251 516.0001,-279.4251"/>
</g>
<!-- 家賃 -->
<g id="node29" class="node">
<title>家賃</title>
<polygon fill="none" stroke="#000000" points="454.5,-36 400.5,-36 400.5,0 454.5,0 454.5,-36"/>
<text text-anchor="middle" x="427.5" y="-14.3" font-family="Times,serif" font-size="14.00" fill="#000000">家賃</text>
</g>
<!-- 住信SBI銀行&#45;&gt;家賃 -->
<g id="edge29" class="edge">
<title>住信SBI銀行&#45;&gt;家賃</title>
<path fill="none" stroke="#000000" stroke-width="2" d="M486.0714,-378.9609C461.1195,-359.5665 427.5,-326.246 427.5,-287.5 427.5,-287.5 427.5,-287.5 427.5,-91 427.5,-76.2996 427.5,-59.934 427.5,-46.4302"/>
<polygon fill="#000000" stroke="#000000" stroke-width="2" points="431.0001,-46.3003 427.5,-36.3003 424.0001,-46.3004 431.0001,-46.3003"/>
</g>
<!-- PiTaPa -->
<g id="node15" class="node">
<title>PiTaPa</title>
<polygon fill="none" stroke="#000000" points="273,-269 208,-269 208,-233 273,-233 273,-269"/>
<text text-anchor="middle" x="240.5" y="-247.3" font-family="Times,serif" font-size="14.00" fill="#000000">PiTaPa</text>
</g>
<!-- 三井住友VISAカード&#45;&gt;PiTaPa -->
<g id="edge12" class="edge">
<title>三井住友VISAカード&#45;&gt;PiTaPa</title>
<path fill="none" stroke="#000000" stroke-width="2" d="M240.5,-305.9551C240.5,-297.8828 240.5,-288.1764 240.5,-279.1817"/>
<polygon fill="#000000" stroke="#000000" stroke-width="2" points="244.0001,-279.0903 240.5,-269.0904 237.0001,-279.0904 244.0001,-279.0903"/>
</g>
<!-- Suica -->
<g id="node14" class="node">
<title>Suica</title>
<polygon fill="none" stroke="#000000" points="989.5,-269 933.5,-269 933.5,-233 989.5,-233 989.5,-269"/>
<text text-anchor="middle" x="961.5" y="-247.3" font-family="Times,serif" font-size="14.00" fill="#000000">Suica</text>
</g>
<!-- ビックカメラSuicaカード&#45;&gt;Suica -->
<g id="edge21" class="edge">
<title>ビックカメラSuicaカード&#45;&gt;Suica</title>
<path fill="none" stroke="#000000" stroke-width="2" d="M813.9495,-305.9551C847.8079,-293.3445 892.3748,-276.7456 923.6347,-265.1029"/>
<polygon fill="#000000" stroke="#000000" stroke-width="2" points="925.1364,-268.2785 933.286,-261.5083 922.6932,-261.7187 925.1364,-268.2785"/>
</g>
<!-- ビューサンクスポイント -->
<g id="node21" class="node">
<title>ビューサンクスポイント</title>
<polygon fill="none" stroke="#000000" points="933,-182 760,-182 760,-146 933,-146 933,-182"/>
<text text-anchor="middle" x="846.5" y="-160.3" font-family="Times,serif" font-size="14.00" fill="#000000">ビューサンクスポイント</text>
</g>
<!-- ビックカメラSuicaカード&#45;&gt;ビューサンクスポイント -->
<g id="edge16" class="edge">
<title>ビックカメラSuicaカード&#45;&gt;ビューサンクスポイント</title>
<path fill="none" stroke="#000000" d="M774.6343,-305.957C788.7933,-277.9886 816.1309,-223.9884 832.7045,-191.2504"/>
<polygon fill="#000000" stroke="#000000" points="835.8807,-192.7253 837.2748,-182.2226 829.6354,-189.5636 835.8807,-192.7253"/>
<text text-anchor="middle" x="829" y="-247.3" font-family="Times,serif" font-size="14.00" fill="#000000">0.5%</text>
</g>
<!-- ビックポイント -->
<g id="node23" class="node">
<title>ビックポイント</title>
<polygon fill="none" stroke="#000000" points="741.5,-182 625.5,-182 625.5,-146 741.5,-146 741.5,-182"/>
<text text-anchor="middle" x="683.5" y="-160.3" font-family="Times,serif" font-size="14.00" fill="#000000">ビックポイント</text>
</g>
<!-- ビックカメラSuicaカード&#45;&gt;ビックポイント -->
<g id="edge19" class="edge">
<title>ビックカメラSuicaカード&#45;&gt;ビックポイント</title>
<path fill="none" stroke="#000000" d="M756.253,-305.957C741.9191,-277.9886 714.244,-223.9884 697.4659,-191.2504"/>
<polygon fill="#000000" stroke="#000000" points="700.5148,-189.5256 692.8391,-182.2226 694.2853,-192.7182 700.5148,-189.5256"/>
<text text-anchor="middle" x="755" y="-247.3" font-family="Times,serif" font-size="14.00" fill="#000000">0.5%</text>
</g>
<!-- ビックカメラ -->
<g id="node42" class="node">
<title>ビックカメラ</title>
<polygon fill="none" stroke="#000000" points="652.5,-36 550.5,-36 550.5,0 652.5,0 652.5,-36"/>
<text text-anchor="middle" x="601.5" y="-14.3" font-family="Times,serif" font-size="14.00" fill="#000000">ビックカメラ</text>
</g>
<!-- ビックカメラSuicaカード&#45;&gt;ビックカメラ -->
<g id="edge17" class="edge">
<title>ビックカメラSuicaカード&#45;&gt;ビックカメラ</title>
<path fill="none" stroke="#000000" stroke-width="2" stroke-dasharray="5,2" d="M691.8128,-305.8992C646.6732,-292.5827 597.5,-273.0223 597.5,-251 597.5,-251 597.5,-251 597.5,-91 597.5,-76.2775 598.3212,-59.9099 599.2194,-46.4104"/>
<polygon fill="#000000" stroke="#000000" stroke-width="2" points="602.7212,-46.509 599.942,-36.2851 595.7389,-46.0106 602.7212,-46.509"/>
</g>
<!-- EX予約 -->
<g id="node52" class="node">
<title>EX予約</title>
<polygon fill="none" stroke="#000000" points="1190.5,-36 1124.5,-36 1124.5,0 1190.5,0 1190.5,-36"/>
<text text-anchor="middle" x="1157.5" y="-14.3" font-family="Times,serif" font-size="14.00" fill="#000000">EX予約</text>
</g>
<!-- ビックカメラSuicaカード&#45;&gt;EX予約 -->
<g id="edge24" class="edge">
<title>ビックカメラSuicaカード&#45;&gt;EX予約</title>
<path fill="none" stroke="#000000" stroke-width="2" stroke-dasharray="5,2" d="M858.3985,-315.7961C974.3182,-304.2784 1157.5,-281.2862 1157.5,-251 1157.5,-251 1157.5,-251 1157.5,-91 1157.5,-76.2996 1157.5,-59.934 1157.5,-46.4302"/>
<polygon fill="#000000" stroke="#000000" stroke-width="2" points="1161.0001,-46.3003 1157.5,-36.3003 1154.0001,-46.3004 1161.0001,-46.3003"/>
</g>
<!-- nanaco -->
<g id="node17" class="node">
<title>nanaco</title>
<polygon fill="none" stroke="#000000" points="2855.5,-269 2787.5,-269 2787.5,-233 2855.5,-233 2855.5,-269"/>
<text text-anchor="middle" x="2821.5" y="-247.3" font-family="Times,serif" font-size="14.00" fill="#000000">nanaco</text>
</g>
<!-- リクルートカード&#45;&gt;nanaco -->
<g id="edge55" class="edge">
<title>リクルートカード&#45;&gt;nanaco</title>
<path fill="none" stroke="#000000" stroke-width="2" d="M2384.091,-321.2003C2485.5928,-316.3979 2675.8667,-305.3932 2741.5,-288 2754.3388,-284.5976 2767.6681,-279.2491 2779.6793,-273.6652"/>
<polygon fill="#000000" stroke="#000000" stroke-width="2" points="2781.5102,-276.6679 2788.9949,-269.1692 2778.4676,-270.3637 2781.5102,-276.6679"/>
</g>
<!-- Edy -->
<g id="node18" class="node">
<title>Edy</title>
<polygon fill="none" stroke="#000000" points="1735.5,-269 1681.5,-269 1681.5,-233 1735.5,-233 1735.5,-269"/>
<text text-anchor="middle" x="1708.5" y="-247.3" font-family="Times,serif" font-size="14.00" fill="#000000">Edy</text>
</g>
<!-- リクルートカード&#45;&gt;Edy -->
<g id="edge39" class="edge">
<title>リクルートカード&#45;&gt;Edy</title>
<path fill="none" stroke="#000000" stroke-width="2" d="M2252.9298,-316.1531C2125.1363,-300.8598 1846.4542,-267.5093 1745.7477,-255.4575"/>
<polygon fill="#000000" stroke="#000000" stroke-width="2" points="1746.0842,-251.9729 1735.7391,-254.2598 1745.2524,-258.9233 1746.0842,-251.9729"/>
</g>
<!-- Ponta -->
<g id="node19" class="node">
<title>Ponta</title>
<polygon fill="none" stroke="#000000" points="1545,-182 1488,-182 1488,-146 1545,-146 1545,-182"/>
<text text-anchor="middle" x="1516.5" y="-160.3" font-family="Times,serif" font-size="14.00" fill="#000000">Ponta</text>
</g>
<!-- リクルートカード&#45;&gt;Ponta -->
<g id="edge50" class="edge">
<title>リクルートカード&#45;&gt;Ponta</title>
<path fill="none" stroke="#000000" d="M2252.9834,-321.4524C2105.5156,-315.2765 1751.3674,-297.8549 1635.5,-269 1576.7757,-254.3756 1543.7415,-265.571 1510.5,-215 1506.1417,-208.3696 1505.5389,-200.1853 1506.6073,-192.3289"/>
<polygon fill="#000000" stroke="#000000" points="1510.0726,-192.8661 1508.7989,-182.3481 1503.2355,-191.3647 1510.0726,-192.8661"/>
<text text-anchor="middle" x="1654" y="-247.3" font-family="Times,serif" font-size="14.00" fill="#000000">1.2%</text>
</g>
<!-- NHK -->
<g id="node36" class="node">
<title>NHK</title>
<polygon fill="none" stroke="#000000" points="2307.5,-36 2253.5,-36 2253.5,0 2307.5,0 2307.5,-36"/>
<text text-anchor="middle" x="2280.5" y="-14.3" font-family="Times,serif" font-size="14.00" fill="#000000">NHK</text>
</g>
<!-- リクルートカード&#45;&gt;NHK -->
<g id="edge32" class="edge">
<title>リクルートカード&#45;&gt;NHK</title>
<path fill="none" stroke="#000000" stroke-width="2" d="M2302.8246,-305.8293C2292.357,-291.8153 2280.5,-271.4317 2280.5,-251 2280.5,-251 2280.5,-251 2280.5,-91 2280.5,-76.2996 2280.5,-59.934 2280.5,-46.4302"/>
<polygon fill="#000000" stroke="#000000" stroke-width="2" points="2284.0001,-46.3003 2280.5,-36.3003 2277.0001,-46.3004 2284.0001,-46.3003"/>
</g>
<!-- NTT -->
<g id="node37" class="node">
<title>NTT</title>
<polygon fill="none" stroke="#000000" points="2379.5,-36 2325.5,-36 2325.5,0 2379.5,0 2379.5,-36"/>
<text text-anchor="middle" x="2352.5" y="-14.3" font-family="Times,serif" font-size="14.00" fill="#000000">NTT</text>
</g>
<!-- リクルートカード&#45;&gt;NTT -->
<g id="edge33" class="edge">
<title>リクルートカード&#45;&gt;NTT</title>
<path fill="none" stroke="#000000" stroke-width="2" d="M2318.5,-305.6997C2318.5,-290.9349 2318.5,-269.6302 2318.5,-251 2318.5,-251 2318.5,-251 2318.5,-91 2318.5,-74.6424 2325.6018,-57.9887 2333.314,-44.7261"/>
<polygon fill="#000000" stroke="#000000" stroke-width="2" points="2336.3516,-46.4694 2338.6709,-36.1315 2330.411,-42.7667 2336.3516,-46.4694"/>
</g>
<!-- ASAHIネット -->
<g id="node38" class="node">
<title>ASAHIネット</title>
<polygon fill="none" stroke="#000000" points="2599,-36 2490,-36 2490,0 2599,0 2599,-36"/>
<text text-anchor="middle" x="2544.5" y="-14.3" font-family="Times,serif" font-size="14.00" fill="#000000">ASAHIネット</text>
</g>
<!-- リクルートカード&#45;&gt;ASAHIネット -->
<g id="edge34" class="edge">
<title>リクルートカード&#45;&gt;ASAHIネット</title>
<path fill="none" stroke="#000000" stroke-width="2" d="M2384.1721,-315.7334C2450.8992,-305.4472 2544.5,-284.965 2544.5,-251 2544.5,-251 2544.5,-251 2544.5,-91 2544.5,-76.2996 2544.5,-59.934 2544.5,-46.4302"/>
<polygon fill="#000000" stroke="#000000" stroke-width="2" points="2548.0001,-46.3003 2544.5,-36.3003 2541.0001,-46.3004 2548.0001,-46.3003"/>
</g>
<!-- アイハート -->
<g id="node40" class="node">
<title>アイハート</title>
<polygon fill="none" stroke="#000000" points="2705.5,-36 2617.5,-36 2617.5,0 2705.5,0 2705.5,-36"/>
<text text-anchor="middle" x="2661.5" y="-14.3" font-family="Times,serif" font-size="14.00" fill="#000000">アイハート</text>
</g>
<!-- リクルートカード&#45;&gt;アイハート -->
<g id="edge38" class="edge">
<title>リクルートカード&#45;&gt;アイハート</title>
<path fill="none" stroke="#000000" stroke-width="2" d="M2384.228,-316.6201C2483.8238,-304.5344 2661.5,-279.0439 2661.5,-251 2661.5,-251 2661.5,-251 2661.5,-91 2661.5,-76.2996 2661.5,-59.934 2661.5,-46.4302"/>
<polygon fill="#000000" stroke="#000000" stroke-width="2" points="2665.0001,-46.3003 2661.5,-36.3003 2658.0001,-46.3004 2665.0001,-46.3003"/>
</g>
<!-- Amazon -->
<g id="node50" class="node">
<title>Amazon</title>
<polygon fill="none" stroke="#000000" points="2471.5,-36 2397.5,-36 2397.5,0 2471.5,0 2471.5,-36"/>
<text text-anchor="middle" x="2434.5" y="-14.3" font-family="Times,serif" font-size="14.00" fill="#000000">Amazon</text>
</g>
<!-- リクルートカード&#45;&gt;Amazon -->
<g id="edge36" class="edge">
<title>リクルートカード&#45;&gt;Amazon</title>
<path fill="none" stroke="#000000" stroke-width="2" d="M2384.2533,-311.3081C2438.467,-298.9009 2506.5,-277.9601 2506.5,-251 2506.5,-251 2506.5,-251 2506.5,-91 2506.5,-70.9907 2492.6186,-54.4789 2477.0461,-42.2508"/>
<polygon fill="#000000" stroke="#000000" stroke-width="2" points="2478.9561,-39.312 2468.813,-36.251 2474.8334,-44.9692 2478.9561,-39.312"/>
</g>
<!-- iTunes -->
<g id="node51" class="node">
<title>iTunes</title>
<polygon fill="none" stroke="#000000" points="2789,-36 2724,-36 2724,0 2789,0 2789,-36"/>
<text text-anchor="middle" x="2756.5" y="-14.3" font-family="Times,serif" font-size="14.00" fill="#000000">iTunes</text>
</g>
<!-- リクルートカード&#45;&gt;iTunes -->
<g id="edge35" class="edge">
<title>リクルートカード&#45;&gt;iTunes</title>
<path fill="none" stroke="#000000" stroke-width="2" stroke-dasharray="5,2" d="M2384.2129,-318.9325C2499.8277,-309.1258 2727.5,-285.4416 2727.5,-251 2727.5,-251 2727.5,-251 2727.5,-91 2727.5,-75.0883 2733.5243,-58.5164 2740.0814,-45.1915"/>
<polygon fill="#000000" stroke="#000000" stroke-width="2" points="2743.2978,-46.596 2744.8717,-36.1187 2737.1076,-43.3277 2743.2978,-46.596"/>
</g>
<!-- じゃらん -->
<g id="node53" class="node">
<title>じゃらん</title>
<polygon fill="none" stroke="#000000" points="1509.5,-36 1435.5,-36 1435.5,0 1509.5,0 1509.5,-36"/>
<text text-anchor="middle" x="1472.5" y="-14.3" font-family="Times,serif" font-size="14.00" fill="#000000">じゃらん</text>
</g>
<!-- リクルートカード&#45;&gt;じゃらん -->
<g id="edge37" class="edge">
<title>リクルートカード&#45;&gt;じゃらん</title>
<path fill="none" stroke="#000000" stroke-width="2" d="M2252.7625,-322.7735C2087.4698,-319.1614 1657.9414,-306.3611 1520.5,-269 1434.3707,-245.5872 1387.0144,-257.5566 1339.5,-182 1305.6265,-128.1349 1378.8332,-71.9181 1429.4839,-41.3026"/>
<polygon fill="#000000" stroke="#000000" stroke-width="2" points="1431.5075,-44.1723 1438.3353,-36.0709 1427.9457,-38.1461 1431.5075,-44.1723"/>
</g>
<!-- Suica&#45;&gt;ビューサンクスポイント -->
<g id="edge27" class="edge">
<title>Suica&#45;&gt;ビューサンクスポイント</title>
<path fill="none" stroke="#000000" d="M937.6719,-232.9735C920.4793,-219.9669 897.0855,-202.269 878.2997,-188.0571"/>
<polygon fill="#000000" stroke="#000000" points="880.3842,-185.2454 870.2975,-182.0034 876.1609,-190.8279 880.3842,-185.2454"/>
<text text-anchor="middle" x="922" y="-203.8" font-family="Times,serif" font-size="14.00" fill="#000000">1%</text>
</g>
<!-- JREポイント -->
<g id="node22" class="node">
<title>JREポイント</title>
<polygon fill="none" stroke="#000000" points="1091,-182 990,-182 990,-146 1091,-146 1091,-182"/>
<text text-anchor="middle" x="1040.5" y="-160.3" font-family="Times,serif" font-size="14.00" fill="#000000">JREポイント</text>
</g>
<!-- Suica&#45;&gt;JREポイント -->
<g id="edge25" class="edge">
<title>Suica&#45;&gt;JREポイント</title>
<path fill="none" stroke="#000000" d="M989.5771,-233.3724C996.8899,-228.0115 1004.416,-221.7379 1010.5,-215 1016.9024,-207.9095 1022.6123,-199.24 1027.2878,-191.0746"/>
<polygon fill="#000000" stroke="#000000" points="1030.4203,-192.6401 1032.109,-182.1807 1024.2663,-189.3042 1030.4203,-192.6401"/>
<text text-anchor="middle" x="1039" y="-203.8" font-family="Times,serif" font-size="14.00" fill="#000000">0.5%</text>
</g>
<!-- 電車 -->
<g id="node33" class="node">
<title>電車</title>
<polygon fill="none" stroke="#000000" points="918.5,-36 864.5,-36 864.5,0 918.5,0 918.5,-36"/>
<text text-anchor="middle" x="891.5" y="-14.3" font-family="Times,serif" font-size="14.00" fill="#000000">電車</text>
</g>
<!-- Suica&#45;&gt;電車 -->
<g id="edge22" class="edge">
<title>Suica&#45;&gt;電車</title>
<path fill="none" stroke="#000000" stroke-width="2" d="M959.3474,-232.914C956.5769,-211.7885 951.0735,-175.9181 942.5,-146 932.3193,-110.4736 915.8525,-71.2096 904.3945,-45.6577"/>
<polygon fill="#000000" stroke="#000000" stroke-width="2" points="907.4434,-43.9068 900.1228,-36.2479 901.0695,-46.8003 907.4434,-43.9068"/>
</g>
<!-- 松屋 -->
<g id="node48" class="node">
<title>松屋</title>
<polygon fill="none" stroke="#000000" points="1106.5,-36 1052.5,-36 1052.5,0 1106.5,0 1106.5,-36"/>
<text text-anchor="middle" x="1079.5" y="-14.3" font-family="Times,serif" font-size="14.00" fill="#000000">松屋</text>
</g>
<!-- Suica&#45;&gt;松屋 -->
<g id="edge23" class="edge">
<title>Suica&#45;&gt;松屋</title>
<path fill="none" stroke="#000000" stroke-width="2" d="M989.6753,-247.2778C1024.3052,-240.9286 1080.8894,-224.2826 1100.5,-182 1121.0769,-137.6339 1104.9634,-79.6815 1091.8823,-45.8779"/>
<polygon fill="#000000" stroke="#000000" stroke-width="2" points="1094.9623,-44.1587 1087.964,-36.2042 1088.4743,-46.7867 1094.9623,-44.1587"/>
</g>
<!-- 大阪地下鉄 -->
<g id="node34" class="node">
<title>大阪地下鉄</title>
<polygon fill="none" stroke="#000000" points="198.5,-36 110.5,-36 110.5,0 198.5,0 198.5,-36"/>
<text text-anchor="middle" x="154.5" y="-14.3" font-family="Times,serif" font-size="14.00" fill="#000000">大阪地下鉄</text>
</g>
<!-- PiTaPa&#45;&gt;大阪地下鉄 -->
<g id="edge13" class="edge">
<title>PiTaPa&#45;&gt;大阪地下鉄</title>
<path fill="none" stroke="#000000" stroke-width="2" d="M233.9736,-232.7568C221.4825,-197.928 193.2358,-119.5877 168.5,-54 167.4795,-51.2941 166.4055,-48.4782 165.3251,-45.6663"/>
<polygon fill="#000000" stroke="#000000" stroke-width="2" points="168.5683,-44.3489 161.6948,-36.2863 162.0401,-46.8755 168.5683,-44.3489"/>
</g>
<!-- 山陽バス -->
<g id="node35" class="node">
<title>山陽バス</title>
<polygon fill="none" stroke="#000000" points="290.5,-36 216.5,-36 216.5,0 290.5,0 290.5,-36"/>
<text text-anchor="middle" x="253.5" y="-14.3" font-family="Times,serif" font-size="14.00" fill="#000000">山陽バス</text>
</g>
<!-- PiTaPa&#45;&gt;山陽バス -->
<g id="edge15" class="edge">
<title>PiTaPa&#45;&gt;山陽バス</title>
<path fill="none" stroke="#000000" stroke-width="2" stroke-dasharray="5,2" d="M241.5201,-232.7169C243.7794,-192.2236 249.2184,-94.7396 251.921,-46.301"/>
<polygon fill="#000000" stroke="#000000" stroke-width="2" points="255.422,-46.3777 252.4847,-36.1982 248.4329,-45.9877 255.422,-46.3777"/>
</g>
<!-- 切符 -->
<g id="node28" class="node">
<title>切符</title>
<polygon fill="none" stroke="#000000" points="547.5,-109 493.5,-109 493.5,-73 547.5,-73 547.5,-109"/>
<text text-anchor="middle" x="520.5" y="-87.3" font-family="Times,serif" font-size="14.00" fill="#000000">切符</text>
</g>
<!-- 現金&#45;&gt;切符 -->
<g id="edge67" class="edge">
<title>現金&#45;&gt;切符</title>
<path fill="none" stroke="#000000" stroke-width="2" d="M508.9388,-232.957C507.5853,-205.3487 509.9516,-152.3746 513.7631,-119.5255"/>
<polygon fill="#000000" stroke="#000000" stroke-width="2" points="517.2841,-119.5915 515.1078,-109.2226 510.3429,-118.6855 517.2841,-119.5915"/>
</g>
<!-- 飲食店 -->
<g id="node45" class="node">
<title>飲食店</title>
<polygon fill="none" stroke="#000000" points="532,-36 473,-36 473,0 532,0 532,-36"/>
<text text-anchor="middle" x="502.5" y="-14.3" font-family="Times,serif" font-size="14.00" fill="#000000">飲食店</text>
</g>
<!-- 現金&#45;&gt;飲食店 -->
<g id="edge64" class="edge">
<title>現金&#45;&gt;飲食店</title>
<path fill="none" stroke="#000000" stroke-width="2" d="M505.8368,-232.8026C494.8878,-200.5823 475.1888,-131.3867 484.5,-73 485.9443,-63.9434 488.6471,-54.3527 491.5274,-45.7602"/>
<polygon fill="#000000" stroke="#000000" stroke-width="2" points="494.8658,-46.8184 494.9253,-36.2237 488.2719,-44.4689 494.8658,-46.8184"/>
</g>
<!-- 吉野家 -->
<g id="node49" class="node">
<title>吉野家</title>
<polygon fill="none" stroke="#000000" points="1268,-36 1209,-36 1209,0 1268,0 1268,-36"/>
<text text-anchor="middle" x="1238.5" y="-14.3" font-family="Times,serif" font-size="14.00" fill="#000000">吉野家</text>
</g>
<!-- 現金&#45;&gt;吉野家 -->
<g id="edge65" class="edge">
<title>現金&#45;&gt;吉野家</title>
<path fill="none" stroke="#000000" stroke-width="2" d="M524.9378,-232.8537C542.4194,-208.87 576.621,-167.1857 616.5,-146 732.9312,-84.1458 1073.9207,-76.15 1199.5,-36 1199.5977,-35.9688 1199.6954,-35.9374 1199.7932,-35.9058"/>
<polygon fill="#000000" stroke="#000000" stroke-width="2" points="1200.8075,-39.2619 1208.9902,-32.5318 1198.3966,-32.6901 1200.8075,-39.2619"/>
</g>
<!-- nanacoポイント -->
<g id="node25" class="node">
<title>nanacoポイント</title>
<polygon fill="none" stroke="#000000" points="2881,-182 2756,-182 2756,-146 2881,-146 2881,-182"/>
<text text-anchor="middle" x="2818.5" y="-160.3" font-family="Times,serif" font-size="14.00" fill="#000000">nanacoポイント</text>
</g>
<!-- nanaco&#45;&gt;nanacoポイント -->
<g id="edge57" class="edge">
<title>nanaco&#45;&gt;nanacoポイント</title>
<path fill="none" stroke="#000000" d="M2810.4325,-232.9406C2807.5986,-227.3873 2804.9449,-221.1207 2803.5,-215 2801.7013,-207.3805 2802.7416,-199.2108 2804.937,-191.6922"/>
<polygon fill="#000000" stroke="#000000" points="2808.2297,-192.8785 2808.3467,-182.2843 2801.6486,-190.4932 2808.2297,-192.8785"/>
<text text-anchor="middle" x="2815" y="-203.8" font-family="Times,serif" font-size="14.00" fill="#000000">1%</text>
</g>
<!-- セブンイレブン -->
<g id="node31" class="node">
<title>セブンイレブン</title>
<polygon fill="none" stroke="#000000" points="2967.5,-36 2851.5,-36 2851.5,0 2967.5,0 2967.5,-36"/>
<text text-anchor="middle" x="2909.5" y="-14.3" font-family="Times,serif" font-size="14.00" fill="#000000">セブンイレブン</text>
</g>
<!-- nanaco&#45;&gt;セブンイレブン -->
<g id="edge56" class="edge">
<title>nanaco&#45;&gt;セブンイレブン</title>
<path fill="none" stroke="#000000" stroke-width="2" d="M2846.8432,-232.8488C2862.1764,-220.3846 2880.6183,-202.4375 2890.5,-182 2911.6657,-138.2249 2913.1233,-80.4506 2911.6982,-46.4528"/>
<polygon fill="#000000" stroke="#000000" stroke-width="2" points="2915.1842,-46.0969 2911.1555,-36.2979 2908.1942,-46.4705 2915.1842,-46.0969"/>
</g>
<!-- Edy&#45;&gt;Ponta -->
<g id="edge49" class="edge">
<title>Edy&#45;&gt;Ponta</title>
<path fill="none" stroke="#000000" d="M1681.2936,-249.5735C1634.9514,-246.5445 1543.6493,-237.777 1522.5,-215 1516.8698,-208.9364 1514.5333,-200.566 1513.8424,-192.3585"/>
<polygon fill="#000000" stroke="#000000" points="1517.3408,-192.1933 1513.7233,-182.2352 1510.3413,-192.2757 1517.3408,-192.1933"/>
<text text-anchor="middle" x="1541" y="-203.8" font-family="Times,serif" font-size="14.00" fill="#000000">0.5%</text>
</g>
<!-- ローソン -->
<g id="node30" class="node">
<title>ローソン</title>
<polygon fill="none" stroke="#000000" points="1707.5,-36 1633.5,-36 1633.5,0 1707.5,0 1707.5,-36"/>
<text text-anchor="middle" x="1670.5" y="-14.3" font-family="Times,serif" font-size="14.00" fill="#000000">ローソン</text>
</g>
<!-- Edy&#45;&gt;ローソン -->
<g id="edge40" class="edge">
<title>Edy&#45;&gt;ローソン</title>
<path fill="none" stroke="#000000" stroke-width="2" d="M1700.475,-232.9736C1698.2336,-227.316 1696.0028,-220.9837 1694.5,-215 1679.7576,-156.3006 1673.9469,-85.403 1671.7517,-46.6849"/>
<polygon fill="#000000" stroke="#000000" stroke-width="2" points="1675.221,-46.0054 1671.2022,-36.2024 1668.2306,-46.372 1675.221,-46.0054"/>
</g>
<!-- ファミリーマート -->
<g id="node32" class="node">
<title>ファミリーマート</title>
<polygon fill="none" stroke="#000000" points="1417,-36 1286,-36 1286,0 1417,0 1417,-36"/>
<text text-anchor="middle" x="1351.5" y="-14.3" font-family="Times,serif" font-size="14.00" fill="#000000">ファミリーマート</text>
</g>
<!-- Edy&#45;&gt;ファミリーマート -->
<g id="edge42" class="edge">
<title>Edy&#45;&gt;ファミリーマート</title>
<path fill="none" stroke="#000000" stroke-width="2" d="M1681.2449,-234.7443C1679.6659,-234.0947 1678.0782,-233.5059 1676.5,-233 1605.8316,-210.3473 1576.9195,-248.1 1510.5,-215 1472.6344,-196.1298 1401.8,-94.2304 1368.9977,-44.8532"/>
<polygon fill="#000000" stroke="#000000" stroke-width="2" points="1371.7641,-42.6911 1363.3319,-36.2765 1365.9235,-46.5495 1371.7641,-42.6911"/>
</g>
<!-- ウェルシア -->
<g id="node41" class="node">
<title>ウェルシア</title>
<polygon fill="none" stroke="#000000" points="1615.5,-36 1527.5,-36 1527.5,0 1615.5,0 1615.5,-36"/>
<text text-anchor="middle" x="1571.5" y="-14.3" font-family="Times,serif" font-size="14.00" fill="#000000">ウェルシア</text>
</g>
<!-- Edy&#45;&gt;ウェルシア -->
<g id="edge47" class="edge">
<title>Edy&#45;&gt;ウェルシア</title>
<path fill="none" stroke="#000000" stroke-width="2" d="M1687.0738,-232.7508C1659.3173,-207.8104 1611.6366,-160.2849 1587.5,-109 1578.2496,-89.345 1574.3087,-65.02 1572.6484,-46.4658"/>
<polygon fill="#000000" stroke="#000000" stroke-width="2" points="1576.1246,-46.0083 1571.9116,-36.2871 1569.1428,-46.5138 1576.1246,-46.0083"/>
</g>
<!-- ヨドバシカメラ -->
<g id="node43" class="node">
<title>ヨドバシカメラ</title>
<polygon fill="none" stroke="#000000" points="1841.5,-36 1725.5,-36 1725.5,0 1841.5,0 1841.5,-36"/>
<text text-anchor="middle" x="1783.5" y="-14.3" font-family="Times,serif" font-size="14.00" fill="#000000">ヨドバシカメラ</text>
</g>
<!-- Edy&#45;&gt;ヨドバシカメラ -->
<g id="edge44" class="edge">
<title>Edy&#45;&gt;ヨドバシカメラ</title>
<path fill="none" stroke="#000000" stroke-width="2" d="M1710.4767,-232.862C1713.0819,-211.6876 1718.4303,-175.7715 1727.5,-146 1738.4689,-109.9945 1756.7159,-70.6085 1769.3874,-45.1696"/>
<polygon fill="#000000" stroke="#000000" stroke-width="2" points="1772.5639,-46.6434 1773.944,-36.1388 1766.3144,-43.49 1772.5639,-46.6434"/>
</g>
<!-- 餃子の王将 -->
<g id="node44" class="node">
<title>餃子の王将</title>
<polygon fill="none" stroke="#000000" points="2115.5,-36 2027.5,-36 2027.5,0 2115.5,0 2115.5,-36"/>
<text text-anchor="middle" x="2071.5" y="-14.3" font-family="Times,serif" font-size="14.00" fill="#000000">餃子の王将</text>
</g>
<!-- Edy&#45;&gt;餃子の王将 -->
<g id="edge63" class="edge">
<title>Edy&#45;&gt;餃子の王将</title>
<path fill="none" stroke="#000000" stroke-width="2" d="M1735.6034,-249.9209C1807.1874,-246.8019 1999.8875,-236.5883 2059.5,-215 2084.1871,-206.0597 2095.9512,-205.0632 2108.5,-182 2120.1849,-160.5246 2113.5814,-151.1054 2109.5,-127 2104.6259,-98.213 2092.9926,-66.8896 2083.8718,-45.2397"/>
<polygon fill="#000000" stroke="#000000" stroke-width="2" points="2087.0675,-43.8115 2079.8912,-36.0171 2080.6405,-46.5854 2087.0675,-43.8115"/>
</g>
<!-- FRESCO -->
<g id="node46" class="node">
<title>FRESCO</title>
<polygon fill="none" stroke="#000000" points="2009.5,-36 1929.5,-36 1929.5,0 2009.5,0 2009.5,-36"/>
<text text-anchor="middle" x="1969.5" y="-14.3" font-family="Times,serif" font-size="14.00" fill="#000000">FRESCO</text>
</g>
<!-- Edy&#45;&gt;FRESCO -->
<g id="edge60" class="edge">
<title>Edy&#45;&gt;FRESCO</title>
<path fill="none" stroke="#000000" stroke-width="2" d="M1735.7471,-250.3906C1815.234,-247.9831 2044.0938,-236.3679 2089.5,-182 2129.5016,-134.1034 2056.9387,-74.1012 2008.2648,-41.5874"/>
<polygon fill="#000000" stroke="#000000" stroke-width="2" points="2010.0691,-38.5854 1999.7853,-36.0368 2006.2352,-44.4421 2010.0691,-38.5854"/>
</g>
<!-- 業務スーパー -->
<g id="node47" class="node">
<title>業務スーパー</title>
<polygon fill="none" stroke="#000000" points="2235.5,-36 2133.5,-36 2133.5,0 2235.5,0 2235.5,-36"/>
<text text-anchor="middle" x="2184.5" y="-14.3" font-family="Times,serif" font-size="14.00" fill="#000000">業務スーパー</text>
</g>
<!-- Edy&#45;&gt;業務スーパー -->
<g id="edge59" class="edge">
<title>Edy&#45;&gt;業務スーパー</title>
<path fill="none" stroke="#000000" stroke-width="2" d="M1735.7127,-250.7116C1812.0898,-249.5471 2027.0053,-243.735 2090.5,-215 2155.3598,-185.6472 2175.6473,-93.2834 2181.8519,-46.1978"/>
<polygon fill="#000000" stroke="#000000" stroke-width="2" points="2185.3508,-46.4141 2183.0598,-36.07 2178.4001,-45.585 2185.3508,-46.4141"/>
</g>
<!-- Ponta&#45;&gt;じゃらん -->
<g id="edge51" class="edge">
<title>Ponta&#45;&gt;じゃらん</title>
<path fill="none" stroke="#000000" d="M1487.6773,-152.5968C1470.0146,-143.7538 1449.3374,-129.5134 1441.5,-109 1433.3839,-87.7573 1442.6882,-63.3493 1453.1688,-45.1627"/>
<polygon fill="#000000" stroke="#000000" points="1456.3861,-46.6147 1458.6706,-36.2691 1450.4331,-42.932 1456.3861,-46.6147"/>
</g>
<!-- Tポイント -->
<g id="node20" class="node">
<title>Tポイント</title>
<polygon fill="none" stroke="#000000" points="1431,-182 1348,-182 1348,-146 1431,-146 1431,-182"/>
<text text-anchor="middle" x="1389.5" y="-160.3" font-family="Times,serif" font-size="14.00" fill="#000000">Tポイント</text>
</g>
<!-- JREポイント&#45;&gt;Suica -->
<g id="edge26" class="edge">
<title>JREポイント&#45;&gt;Suica</title>
<path fill="none" stroke="#000000" d="M1024.1521,-182.0034C1012.7171,-194.5963 997.2814,-211.5952 984.5927,-225.5688"/>
<polygon fill="#000000" stroke="#000000" points="982.0002,-223.2174 977.8689,-232.9735 987.1825,-227.9232 982.0002,-223.2174"/>
</g>
<!-- ビックポイント&#45;&gt;ビックカメラ -->
<g id="edge20" class="edge">
<title>ビックポイント&#45;&gt;ビックカメラ</title>
<path fill="none" stroke="#000000" d="M673.2804,-145.8042C659.1016,-120.5589 633.3488,-74.7063 616.8526,-45.3351"/>
<polygon fill="#000000" stroke="#000000" points="619.797,-43.4301 611.8484,-36.4251 613.6937,-46.858 619.797,-43.4301"/>
</g>
<!-- Amazonポイント -->
<g id="node24" class="node">
<title>Amazonポイント</title>
<polygon fill="none" stroke="#000000" points="2478,-182 2347,-182 2347,-146 2478,-146 2478,-182"/>
<text text-anchor="middle" x="2412.5" y="-160.3" font-family="Times,serif" font-size="14.00" fill="#000000">Amazonポイント</text>
</g>
<!-- Amazonポイント&#45;&gt;Amazon -->
<g id="edge54" class="edge">
<title>Amazonポイント&#45;&gt;Amazon</title>
<path fill="none" stroke="#000000" d="M2410.598,-145.8042C2411.8584,-120.8868 2418.3593,-75.8938 2424.727,-46.4877"/>
<polygon fill="#000000" stroke="#000000" points="2428.2108,-46.9569 2427.057,-36.4251 2421.3913,-45.3778 2428.2108,-46.9569"/>
</g>
<!-- nanacoポイント&#45;&gt;nanaco -->
<g id="edge58" class="edge">
<title>nanacoポイント&#45;&gt;nanaco</title>
<path fill="none" stroke="#000000" d="M2823.3517,-182.1847C2824.6433,-187.8487 2825.8573,-194.1449 2826.5,-200 2827.305,-207.3332 2827.0639,-215.2667 2826.3699,-222.6421"/>
<polygon fill="#000000" stroke="#000000" points="2822.895,-222.2243 2825.1491,-232.5765 2829.8427,-223.0781 2822.895,-222.2243"/>
</g>
<!-- FRESCOポイント -->
<g id="node26" class="node">
<title>FRESCOポイント</title>
<polygon fill="none" stroke="#000000" points="2080,-182 1943,-182 1943,-146 2080,-146 2080,-182"/>
<text text-anchor="middle" x="2011.5" y="-160.3" font-family="Times,serif" font-size="14.00" fill="#000000">FRESCOポイント</text>
</g>
<!-- FRESCOポイント&#45;&gt;FRESCO -->
<g id="edge62" class="edge">
<title>FRESCOポイント&#45;&gt;FRESCO</title>
<path fill="none" stroke="#000000" d="M2013.9232,-145.6699C2015.7156,-126.8929 2016.6233,-97.1183 2008.5,-73 2005.0813,-62.8497 1999.1241,-52.929 1992.8799,-44.3705"/>
<polygon fill="#000000" stroke="#000000" points="1995.5192,-42.0625 1986.6233,-36.308 1989.9889,-46.354 1995.5192,-42.0625"/>
</g>
<!-- ヨドバシゴールドポイント -->
<g id="node27" class="node">
<title>ヨドバシゴールドポイント</title>
<polygon fill="none" stroke="#000000" points="1924.5,-182 1736.5,-182 1736.5,-146 1924.5,-146 1924.5,-182"/>
<text text-anchor="middle" x="1830.5" y="-160.3" font-family="Times,serif" font-size="14.00" fill="#000000">ヨドバシゴールドポイント</text>
</g>
<!-- ヨドバシゴールドポイント&#45;&gt;ヨドバシカメラ -->
<g id="edge46" class="edge">
<title>ヨドバシゴールドポイント&#45;&gt;ヨドバシカメラ</title>
<path fill="none" stroke="#000000" d="M1818.2365,-145.9151C1811.7356,-135.5301 1804.1532,-122.0032 1799.5,-109 1792.2262,-88.6734 1788.1782,-64.5679 1785.9747,-46.2749"/>
<polygon fill="#000000" stroke="#000000" points="1789.4448,-45.8095 1784.88,-36.2485 1782.4861,-46.5693 1789.4448,-45.8095"/>
</g>
<!-- 切符&#45;&gt;現金 -->
<g id="edge69" class="edge">
<title>切符&#45;&gt;現金</title>
<path fill="none" stroke="#000000" d="M524.0699,-109.2226C525.4073,-136.9404 523.0299,-189.9256 519.2122,-222.6875"/>
<polygon fill="#000000" stroke="#000000" points="515.6955,-222.5868 517.8655,-232.957 522.6361,-223.497 515.6955,-222.5868"/>
</g>
<!-- 切符&#45;&gt;電車 -->
<g id="edge68" class="edge">
<title>切符&#45;&gt;電車</title>
<path fill="none" stroke="#000000" stroke-width="2" d="M547.7805,-85.6321C613.3876,-72.7229 780.0619,-39.9272 854.5513,-25.2702"/>
<polygon fill="#000000" stroke="#000000" stroke-width="2" points="855.2941,-28.6913 864.4302,-23.3264 853.9426,-21.823 855.2941,-28.6913"/>
</g>
<!-- ローソン&#45;&gt;Ponta -->
<g id="edge41" class="edge">
<title>ローソン&#45;&gt;Ponta</title>
<path fill="none" stroke="#000000" d="M1651.0653,-36.4251C1623.7265,-62.3437 1573.8235,-109.6543 1543.0728,-138.8076"/>
<polygon fill="#000000" stroke="#000000" points="1540.5419,-136.3841 1535.6928,-145.8042 1545.3579,-141.4641 1540.5419,-136.3841"/>
<text text-anchor="middle" x="1622" y="-87.3" font-family="Times,serif" font-size="14.00" fill="#000000">1%</text>
</g>
<!-- ファミリーマート&#45;&gt;Tポイント -->
<g id="edge43" class="edge">
<title>ファミリーマート&#45;&gt;Tポイント</title>
<path fill="none" stroke="#000000" d="M1339.6371,-36.0311C1328.7182,-55.0925 1315.9667,-85.5814 1328.5,-109 1335.3052,-121.7157 1344.5422,-117.623 1355.5,-127 1359.5391,-130.4564 1363.5818,-134.3638 1367.3975,-138.3116"/>
<polygon fill="#000000" stroke="#000000" points="1365.0248,-140.9001 1374.3948,-145.8452 1370.1538,-136.1362 1365.0248,-140.9001"/>
<text text-anchor="middle" x="1347" y="-87.3" font-family="Times,serif" font-size="14.00" fill="#000000">0.5%</text>
</g>
<!-- 大阪地下鉄&#45;&gt;三井住友VISAカード -->
<g id="edge14" class="edge">
<title>大阪地下鉄&#45;&gt;三井住友VISAカード</title>
<path fill="none" stroke="#000000" d="M154.5,-36.3003C154.5,-51.0651 154.5,-72.3698 154.5,-91 154.5,-251 154.5,-251 154.5,-251 154.5,-272.2902 170.0083,-288.6626 187.8537,-300.4546"/>
<polygon fill="#000000" stroke="#000000" points="186.3843,-303.658 196.7442,-305.877 190.0292,-297.6818 186.3843,-303.658"/>
<text text-anchor="middle" x="170.5" y="-160.3" font-family="Times,serif" font-size="14.00" fill="#000000">10%</text>
</g>
<!-- ウェルシア&#45;&gt;Tポイント -->
<g id="edge48" class="edge">
<title>ウェルシア&#45;&gt;Tポイント</title>
<path fill="none" stroke="#000000" d="M1560.9024,-36.0385C1548.4788,-55.9555 1526.2782,-87.9772 1500.5,-109 1482.6585,-123.5502 1460.3294,-135.5488 1440.3854,-144.5856"/>
<polygon fill="#000000" stroke="#000000" points="1438.8661,-141.4301 1431.1165,-148.6546 1441.6799,-147.8397 1438.8661,-141.4301"/>
<text text-anchor="middle" x="1546" y="-87.3" font-family="Times,serif" font-size="14.00" fill="#000000">1%</text>
</g>
<!-- ビックカメラ&#45;&gt;ビックポイント -->
<g id="edge18" class="edge">
<title>ビックカメラ&#45;&gt;ビックポイント</title>
<path fill="none" stroke="#000000" stroke-dasharray="5,2" d="M632.4877,-36.058C639.1869,-41.1484 645.6933,-47.1854 650.5,-54 667.741,-78.4431 676.1077,-112.0147 680.0803,-135.6213"/>
<polygon fill="#000000" stroke="#000000" points="676.6489,-136.3375 681.6124,-145.6977 683.5693,-135.2852 676.6489,-136.3375"/>
<text text-anchor="middle" x="692" y="-87.3" font-family="Times,serif" font-size="14.00" fill="#000000">9.5%</text>
</g>
<!-- ヨドバシカメラ&#45;&gt;ヨドバシゴールドポイント -->
<g id="edge45" class="edge">
<title>ヨドバシカメラ&#45;&gt;ヨドバシゴールドポイント</title>
<path fill="none" stroke="#000000" d="M1790.9054,-36.2104C1793.1217,-41.8754 1795.494,-48.1657 1797.5,-54 1807.0142,-81.6707 1816.4651,-113.7663 1822.7985,-136.1196"/>
<polygon fill="#000000" stroke="#000000" points="1819.4863,-137.2703 1825.5609,-145.9507 1826.2253,-135.3767 1819.4863,-137.2703"/>
<text text-anchor="middle" x="1830.5" y="-87.3" font-family="Times,serif" font-size="14.00" fill="#000000">10%</text>
</g>
<!-- FRESCO&#45;&gt;FRESCOポイント -->
<g id="edge61" class="edge">
<title>FRESCO&#45;&gt;FRESCOポイント</title>
<path fill="none" stroke="#000000" d="M1966.7618,-36.3348C1964.6727,-55.1156 1963.3669,-84.8931 1971.5,-109 1974.9535,-119.2364 1981.0483,-129.1816 1987.4551,-137.7361"/>
<polygon fill="#000000" stroke="#000000" points="1984.9063,-140.1534 1993.8797,-145.7864 1990.3776,-135.787 1984.9063,-140.1534"/>
<text text-anchor="middle" x="1990" y="-87.3" font-family="Times,serif" font-size="14.00" fill="#000000">0.5%</text>
</g>
<!-- 吉野家&#45;&gt;Tポイント -->
<g id="edge66" class="edge">
<title>吉野家&#45;&gt;Tポイント</title>
<path fill="none" stroke="#000000" d="M1243.2154,-36.1168C1249.2133,-56.1039 1261.2953,-88.1883 1281.5,-109 1297.316,-125.2912 1318.9881,-137.6207 1338.7691,-146.4337"/>
<polygon fill="#000000" stroke="#000000" points="1337.4221,-149.6642 1347.9942,-150.3581 1340.1623,-143.2228 1337.4221,-149.6642"/>
<text text-anchor="middle" x="1300" y="-87.3" font-family="Times,serif" font-size="14.00" fill="#000000">0.5%</text>
</g>
<!-- Amazon&#45;&gt;Amazonポイント -->
<g id="edge53" class="edge">
<title>Amazon&#45;&gt;Amazonポイント</title>
<path fill="none" stroke="#000000" d="M2436.3903,-36.4251C2435.0979,-61.4651 2428.5814,-106.4714 2422.2146,-135.7818"/>
<polygon fill="#000000" stroke="#000000" points="2418.74,-135.2715 2419.8857,-145.8042 2425.5583,-136.8559 2418.74,-135.2715"/>
</g>
<!-- じゃらん&#45;&gt;Ponta -->
<g id="edge52" class="edge">
<title>じゃらん&#45;&gt;Ponta</title>
<path fill="none" stroke="#000000" d="M1470.6105,-36.0089C1469.294,-54.7868 1469.0524,-84.7997 1477.5,-109 1481.0299,-119.1122 1487.0187,-129.022 1493.2578,-137.5823"/>
<polygon fill="#000000" stroke="#000000" points="1490.6116,-139.8819 1499.4985,-145.6503 1496.1485,-135.599 1490.6116,-139.8819"/>
<text text-anchor="middle" x="1489" y="-87.3" font-family="Times,serif" font-size="14.00" fill="#000000">2%</text>
</g>
</g>
</svg>
