<?xml version="1.0" encoding="UTF-8" standalone="no"?>
<!DOCTYPE svg PUBLIC "-//W3C//DTD SVG 1.1//EN"
 "http://www.w3.org/Graphics/SVG/1.1/DTD/svg11.dtd">
<!-- Generated by graphviz version 2.40.1 (0)
 -->
<!-- Title: MoneyFlow Pages: 1 -->
<svg width="1066pt" height="1779pt"
 viewBox="0.00 0.00 1066.00 1779.00" xmlns="http://www.w3.org/2000/svg" xmlns:xlink="http://www.w3.org/1999/xlink">
<g id="graph0" class="graph" transform="scale(1 1) rotate(0) translate(4 1775)">
<title>MoneyFlow</title>
<polygon fill="#ffffff" stroke="transparent" points="-4,4 -4,-1775 1062,-1775 1062,4 -4,4"/>
<!-- 収入 -->
<g id="node1" class="node">
<title>収入</title>
<text text-anchor="middle" x="27" y="-14.3" font-family="Times,serif" font-size="14.00" fill="#000000">収入</text>
</g>
<!-- 銀行口座 -->
<g id="node2" class="node">
<title>銀行口座</title>
<text text-anchor="middle" x="142" y="-14.3" font-family="Times,serif" font-size="14.00" fill="#000000">銀行口座</text>
</g>
<!-- 収入&#45;&gt;銀行口座 -->
<g id="edge1" class="edge">
<title>収入&#45;&gt;銀行口座</title>
<path fill="none" stroke="#000000" d="M54.2534,-18C69.3972,-18 88.4539,-18 104.9357,-18"/>
</g>
<!-- クレジットカード -->
<g id="node3" class="node">
<title>クレジットカード</title>
<text text-anchor="middle" x="322" y="-14.3" font-family="Times,serif" font-size="14.00" fill="#000000">クレジットカード</text>
</g>
<!-- 銀行口座&#45;&gt;クレジットカード -->
<g id="edge2" class="edge">
<title>銀行口座&#45;&gt;クレジットカード</title>
<path fill="none" stroke="#000000" d="M179.2961,-18C201.6417,-18 230.6798,-18 256.7236,-18"/>
</g>
<!-- マネー -->
<g id="node4" class="node">
<title>マネー</title>
<text text-anchor="middle" x="485" y="-14.3" font-family="Times,serif" font-size="14.00" fill="#000000">マネー</text>
</g>
<!-- クレジットカード&#45;&gt;マネー -->
<g id="edge3" class="edge">
<title>クレジットカード&#45;&gt;マネー</title>
<path fill="none" stroke="#000000" d="M387.3591,-18C410.9188,-18 436.353,-18 455.3549,-18"/>
</g>
<!-- ポイント -->
<g id="node5" class="node">
<title>ポイント</title>
<text text-anchor="middle" x="686" y="-14.3" font-family="Times,serif" font-size="14.00" fill="#000000">ポイント</text>
</g>
<!-- マネー&#45;&gt;ポイント -->
<g id="edge4" class="edge">
<title>マネー&#45;&gt;ポイント</title>
<path fill="none" stroke="#000000" d="M514.6582,-18C550.2582,-18 609.9876,-18 648.6865,-18"/>
</g>
<!-- 金券 -->
<g id="node6" class="node">
<title>金券</title>
<text text-anchor="middle" x="861" y="-14.3" font-family="Times,serif" font-size="14.00" fill="#000000">金券</text>
</g>
<!-- ポイント&#45;&gt;金券 -->
<g id="edge5" class="edge">
<title>ポイント&#45;&gt;金券</title>
<path fill="none" stroke="#000000" d="M723.113,-18C756.3227,-18 804.2221,-18 833.9381,-18"/>
</g>
<!-- 支出 -->
<g id="node7" class="node">
<title>支出</title>
<text text-anchor="middle" x="1000" y="-14.3" font-family="Times,serif" font-size="14.00" fill="#000000">支出</text>
</g>
<!-- 金券&#45;&gt;支出 -->
<g id="edge6" class="edge">
<title>金券&#45;&gt;支出</title>
<path fill="none" stroke="#000000" d="M888.1306,-18C912.6227,-18 948.4669,-18 972.9379,-18"/>
</g>
<!-- 給与 -->
<g id="node8" class="node">
<title>給与</title>
<polygon fill="none" stroke="#000000" points="54,-1394 0,-1394 0,-1358 54,-1358 54,-1394"/>
<text text-anchor="middle" x="27" y="-1372.3" font-family="Times,serif" font-size="14.00" fill="#000000">給与</text>
</g>
<!-- 三井住友銀行 -->
<g id="node9" class="node">
<title>三井住友銀行</title>
<polygon fill="none" stroke="#000000" points="193,-1394 91,-1394 91,-1358 193,-1358 193,-1394"/>
<text text-anchor="middle" x="142" y="-1372.3" font-family="Times,serif" font-size="14.00" fill="#000000">三井住友銀行</text>
</g>
<!-- 給与&#45;&gt;三井住友銀行 -->
<g id="edge7" class="edge">
<title>給与&#45;&gt;三井住友銀行</title>
<path fill="none" stroke="#000000" stroke-width="2" d="M54.2534,-1376C62.2529,-1376 71.3442,-1376 80.571,-1376"/>
<polygon fill="#000000" stroke="#000000" stroke-width="2" points="80.5912,-1379.5001 90.5911,-1376 80.5911,-1372.5001 80.5912,-1379.5001"/>
</g>
<!-- 住信SBI銀行 -->
<g id="node10" class="node">
<title>住信SBI銀行</title>
<polygon fill="none" stroke="#000000" points="192,-1322 92,-1322 92,-1286 192,-1286 192,-1322"/>
<text text-anchor="middle" x="142" y="-1300.3" font-family="Times,serif" font-size="14.00" fill="#000000">住信SBI銀行</text>
</g>
<!-- 三井住友銀行&#45;&gt;住信SBI銀行 -->
<g id="edge9" class="edge">
<title>三井住友銀行&#45;&gt;住信SBI銀行</title>
<path fill="none" stroke="#000000" stroke-width="2" d="M142,-1357.9539C142,-1349.4073 142,-1340.8607 142,-1332.3142"/>
<polygon fill="#000000" stroke="#000000" stroke-width="2" points="145.5001,-1332.2812 142,-1322.2813 138.5001,-1332.2813 145.5001,-1332.2812"/>
</g>
<!-- 現金 -->
<g id="node14" class="node">
<title>現金</title>
<polygon fill="none" stroke="#000000" points="512,-1590 458,-1590 458,-1554 512,-1554 512,-1590"/>
<text text-anchor="middle" x="485" y="-1568.3" font-family="Times,serif" font-size="14.00" fill="#000000">現金</text>
</g>
<!-- 三井住友銀行&#45;&gt;現金 -->
<g id="edge8" class="edge">
<title>三井住友銀行&#45;&gt;現金</title>
<path fill="none" stroke="#000000" stroke-width="2" d="M168.1893,-1394.1203C185.4923,-1405.8773 208.8053,-1421.3128 230,-1434 306.2828,-1479.6631 398.6831,-1528.0041 448.6527,-1553.5934"/>
<polygon fill="#000000" stroke="#000000" stroke-width="2" points="447.2722,-1556.8184 457.7698,-1558.2507 450.4567,-1550.5846 447.2722,-1556.8184"/>
</g>
<!-- 関西電力 -->
<g id="node35" class="node">
<title>関西電力</title>
<polygon fill="none" stroke="#000000" points="1037,-171 963,-171 963,-135 1037,-135 1037,-171"/>
<text text-anchor="middle" x="1000" y="-149.3" font-family="Times,serif" font-size="14.00" fill="#000000">関西電力</text>
</g>
<!-- 三井住友銀行&#45;&gt;関西電力 -->
<g id="edge10" class="edge">
<title>三井住友銀行&#45;&gt;関西電力</title>
<path fill="none" stroke="#000000" stroke-width="2" d="M170.3619,-1357.9006C179.2247,-1350.6833 187.9875,-1341.5608 193,-1331 284.6377,-1137.9298 129.1721,-558.4338 230,-370 369.1782,-109.8945 807.4704,-132.0243 952.719,-147.1057"/>
<polygon fill="#000000" stroke="#000000" stroke-width="2" points="952.3453,-150.5856 962.6623,-148.1754 953.0941,-143.6258 952.3453,-150.5856"/>
</g>
<!-- ビックカメラSuicaカード -->
<g id="node11" class="node">
<title>ビックカメラSuicaカード</title>
<polygon fill="none" stroke="#000000" points="414,-1390 230,-1390 230,-1354 414,-1354 414,-1390"/>
<text text-anchor="middle" x="322" y="-1368.3" font-family="Times,serif" font-size="14.00" fill="#000000">ビックカメラSuicaカード</text>
</g>
<!-- 住信SBI銀行&#45;&gt;ビックカメラSuicaカード -->
<g id="edge28" class="edge">
<title>住信SBI銀行&#45;&gt;ビックカメラSuicaカード</title>
<path fill="none" stroke="#000000" stroke-width="2" d="M189.7641,-1322.0442C212.8428,-1330.7628 240.7134,-1341.2917 264.9055,-1350.431"/>
<polygon fill="#000000" stroke="#000000" stroke-width="2" points="263.7336,-1353.7296 274.3253,-1353.9895 266.2075,-1347.1813 263.7336,-1353.7296"/>
</g>
<!-- リクルートカード -->
<g id="node12" class="node">
<title>リクルートカード</title>
<polygon fill="none" stroke="#000000" points="386.5,-415 257.5,-415 257.5,-379 386.5,-379 386.5,-415"/>
<text text-anchor="middle" x="322" y="-393.3" font-family="Times,serif" font-size="14.00" fill="#000000">リクルートカード</text>
</g>
<!-- 住信SBI銀行&#45;&gt;リクルートカード -->
<g id="edge29" class="edge">
<title>住信SBI銀行&#45;&gt;リクルートカード</title>
<path fill="none" stroke="#000000" stroke-width="2" d="M145.5956,-1285.8823C168.0509,-1172.7322 288.963,-563.4699 316.4419,-425.0069"/>
<polygon fill="#000000" stroke="#000000" stroke-width="2" points="319.8822,-425.6509 318.3959,-415.1608 313.0161,-424.2882 319.8822,-425.6509"/>
</g>
<!-- 住信SBI銀行&#45;&gt;現金 -->
<g id="edge26" class="edge">
<title>住信SBI銀行&#45;&gt;現金</title>
<path fill="none" stroke="#000000" stroke-width="2" d="M164.5283,-1322.0921C173.7607,-1329.9508 184.2981,-1339.5165 193,-1349 211.6905,-1369.3694 206.5901,-1384.2955 230,-1399 300.4914,-1443.278 347.3197,-1384.1671 414,-1434 450.2597,-1461.0984 469.5063,-1512.0656 478.4534,-1543.901"/>
<polygon fill="#000000" stroke="#000000" stroke-width="2" points="475.1585,-1545.1314 481.1024,-1553.9018 481.9251,-1543.339 475.1585,-1545.1314"/>
</g>
<!-- 家賃 -->
<g id="node29" class="node">
<title>家賃</title>
<polygon fill="none" stroke="#000000" points="1027,-1257 973,-1257 973,-1221 1027,-1221 1027,-1257"/>
<text text-anchor="middle" x="1000" y="-1235.3" font-family="Times,serif" font-size="14.00" fill="#000000">家賃</text>
</g>
<!-- 住信SBI銀行&#45;&gt;家賃 -->
<g id="edge27" class="edge">
<title>住信SBI銀行&#45;&gt;家賃</title>
<path fill="none" stroke="#000000" stroke-width="2" d="M192.1489,-1296.8235C275.1281,-1285.2601 446.311,-1262.7199 592,-1252 728.1349,-1241.9831 890.3824,-1239.6802 962.3836,-1239.154"/>
<polygon fill="#000000" stroke="#000000" stroke-width="2" points="962.766,-1242.6516 972.7428,-1239.0862 962.7201,-1235.6518 962.766,-1242.6516"/>
</g>
<!-- Suica -->
<g id="node13" class="node">
<title>Suica</title>
<polygon fill="none" stroke="#000000" points="513,-1379 457,-1379 457,-1343 513,-1343 513,-1379"/>
<text text-anchor="middle" x="485" y="-1357.3" font-family="Times,serif" font-size="14.00" fill="#000000">Suica</text>
</g>
<!-- ビックカメラSuicaカード&#45;&gt;Suica -->
<g id="edge18" class="edge">
<title>ビックカメラSuicaカード&#45;&gt;Suica</title>
<path fill="none" stroke="#000000" stroke-width="2" d="M414.4538,-1365.7608C425.7462,-1364.9987 436.7529,-1364.2559 446.5853,-1363.5924"/>
<polygon fill="#000000" stroke="#000000" stroke-width="2" points="447.0099,-1367.0718 456.7515,-1362.9063 446.5385,-1360.0877 447.0099,-1367.0718"/>
</g>
<!-- JREポイント -->
<g id="node20" class="node">
<title>JREポイント</title>
<polygon fill="none" stroke="#000000" points="736.5,-1341 635.5,-1341 635.5,-1305 736.5,-1305 736.5,-1341"/>
<text text-anchor="middle" x="686" y="-1319.3" font-family="Times,serif" font-size="14.00" fill="#000000">JREポイント</text>
</g>
<!-- ビックカメラSuicaカード&#45;&gt;JREポイント -->
<g id="edge13" class="edge">
<title>ビックカメラSuicaカード&#45;&gt;JREポイント</title>
<path fill="none" stroke="#000000" d="M356.5041,-1353.8791C381.8833,-1341.5424 417.6274,-1326.1951 451,-1319 509.1574,-1306.4613 577.2969,-1309.5027 625.1834,-1314.4444"/>
<polygon fill="#000000" stroke="#000000" points="625.0647,-1317.9521 635.3854,-1315.5575 625.824,-1310.9934 625.0647,-1317.9521"/>
<text text-anchor="middle" x="485" y="-1322.8" font-family="Times,serif" font-size="14.00" fill="#000000">0.5%</text>
</g>
<!-- ビックポイント -->
<g id="node21" class="node">
<title>ビックポイント</title>
<polygon fill="none" stroke="#000000" points="744,-1692 628,-1692 628,-1656 744,-1656 744,-1692"/>
<text text-anchor="middle" x="686" y="-1670.3" font-family="Times,serif" font-size="14.00" fill="#000000">ビックポイント</text>
</g>
<!-- ビックカメラSuicaカード&#45;&gt;ビックポイント -->
<g id="edge16" class="edge">
<title>ビックカメラSuicaカード&#45;&gt;ビックポイント</title>
<path fill="none" stroke="#000000" d="M327.2067,-1390.0224C340.4875,-1432.7967 379.7114,-1541.1771 451,-1599 498.9419,-1637.8861 567.3973,-1656.7595 618.0671,-1665.8286"/>
<polygon fill="#000000" stroke="#000000" points="617.5065,-1669.2834 627.9526,-1667.5147 618.6835,-1662.383 617.5065,-1669.2834"/>
<text text-anchor="middle" x="485" y="-1640.8" font-family="Times,serif" font-size="14.00" fill="#000000">0.5%</text>
</g>
<!-- ビックカメラ -->
<g id="node39" class="node">
<title>ビックカメラ</title>
<polygon fill="none" stroke="#000000" points="1050.5,-1771 949.5,-1771 949.5,-1735 1050.5,-1735 1050.5,-1771"/>
<text text-anchor="middle" x="1000" y="-1749.3" font-family="Times,serif" font-size="14.00" fill="#000000">ビックカメラ</text>
</g>
<!-- ビックカメラSuicaカード&#45;&gt;ビックカメラ -->
<g id="edge14" class="edge">
<title>ビックカメラSuicaカード&#45;&gt;ビックカメラ</title>
<path fill="none" stroke="#000000" stroke-width="2" stroke-dasharray="5,2" d="M325.5835,-1390.1201C341.0652,-1465.8369 405.0511,-1753 485,-1753 485,-1753 485,-1753 861,-1753 886.6553,-1753 914.9741,-1753 939.3197,-1753"/>
<polygon fill="#000000" stroke="#000000" stroke-width="2" points="939.491,-1756.5001 949.4909,-1753 939.4909,-1749.5001 939.491,-1756.5001"/>
</g>
<!-- EX予約 -->
<g id="node49" class="node">
<title>EX予約</title>
<polygon fill="none" stroke="#000000" points="1033,-1425 967,-1425 967,-1389 1033,-1389 1033,-1425"/>
<text text-anchor="middle" x="1000" y="-1403.3" font-family="Times,serif" font-size="14.00" fill="#000000">EX予約</text>
</g>
<!-- ビックカメラSuicaカード&#45;&gt;EX予約 -->
<g id="edge23" class="edge">
<title>ビックカメラSuicaカード&#45;&gt;EX予約</title>
<path fill="none" stroke="#000000" stroke-width="2" stroke-dasharray="5,2" d="M402.0653,-1390.0126C446.9345,-1398.5885 504.0562,-1407 555.5,-1407 555.5,-1407 555.5,-1407 861,-1407 893.0974,-1407 929.3639,-1407 956.8028,-1407"/>
<polygon fill="#000000" stroke="#000000" stroke-width="2" points="956.8597,-1410.5001 966.8597,-1407 956.8597,-1403.5001 956.8597,-1410.5001"/>
</g>
<!-- nanaco -->
<g id="node15" class="node">
<title>nanaco</title>
<polygon fill="none" stroke="#000000" points="519,-255 451,-255 451,-219 519,-219 519,-255"/>
<text text-anchor="middle" x="485" y="-233.3" font-family="Times,serif" font-size="14.00" fill="#000000">nanaco</text>
</g>
<!-- リクルートカード&#45;&gt;nanaco -->
<g id="edge51" class="edge">
<title>リクルートカード&#45;&gt;nanaco</title>
<path fill="none" stroke="#000000" stroke-width="2" d="M345.6138,-378.8138C365.8121,-362.3149 394.6101,-336.4356 414,-309 425.2515,-293.0798 419.0689,-283.5889 432,-269 435.0501,-265.5589 438.5609,-262.3742 442.2933,-259.4563"/>
<polygon fill="#000000" stroke="#000000" stroke-width="2" points="444.5776,-262.1279 450.7251,-253.4989 440.5383,-256.4109 444.5776,-262.1279"/>
</g>
<!-- Edy -->
<g id="node16" class="node">
<title>Edy</title>
<polygon fill="none" stroke="#000000" points="512,-677 458,-677 458,-641 512,-641 512,-677"/>
<text text-anchor="middle" x="485" y="-655.3" font-family="Times,serif" font-size="14.00" fill="#000000">Edy</text>
</g>
<!-- リクルートカード&#45;&gt;Edy -->
<g id="edge36" class="edge">
<title>リクルートカード&#45;&gt;Edy</title>
<path fill="none" stroke="#000000" stroke-width="2" d="M333.2037,-415.0083C361.3527,-460.2541 435.1586,-578.8869 468.377,-632.2808"/>
<polygon fill="#000000" stroke="#000000" stroke-width="2" points="465.4636,-634.2236 473.7179,-640.8657 471.4072,-630.5259 465.4636,-634.2236"/>
</g>
<!-- Ponta -->
<g id="node17" class="node">
<title>Ponta</title>
<polygon fill="none" stroke="#000000" points="714.5,-777 657.5,-777 657.5,-741 714.5,-741 714.5,-777"/>
<text text-anchor="middle" x="686" y="-755.3" font-family="Times,serif" font-size="14.00" fill="#000000">Ponta</text>
</g>
<!-- リクルートカード&#45;&gt;Ponta -->
<g id="edge46" class="edge">
<title>リクルートカード&#45;&gt;Ponta</title>
<path fill="none" stroke="#000000" d="M325.489,-415.0412C335.917,-464.5332 371.2059,-604.1822 451,-686 503.6023,-739.9363 595.2495,-754.204 647.186,-757.861"/>
<polygon fill="#000000" stroke="#000000" points="647.1358,-761.3643 657.3291,-758.4753 647.559,-754.3771 647.1358,-761.3643"/>
<text text-anchor="middle" x="485" y="-732.8" font-family="Times,serif" font-size="14.00" fill="#000000">1.2%</text>
</g>
<!-- NHK -->
<g id="node33" class="node">
<title>NHK</title>
<polygon fill="none" stroke="#000000" points="1027,-501 973,-501 973,-465 1027,-465 1027,-501"/>
<text text-anchor="middle" x="1000" y="-479.3" font-family="Times,serif" font-size="14.00" fill="#000000">NHK</text>
</g>
<!-- リクルートカード&#45;&gt;NHK -->
<g id="edge30" class="edge">
<title>リクルートカード&#45;&gt;NHK</title>
<path fill="none" stroke="#000000" stroke-width="2" d="M339.1643,-415.1241C366.9836,-442.4395 424.8926,-491 485,-491 485,-491 485,-491 861,-491 895.5082,-491 934.7558,-488.5121 962.7253,-486.3111"/>
<polygon fill="#000000" stroke="#000000" stroke-width="2" points="963.1757,-489.7861 972.8592,-485.4874 962.6085,-482.8091 963.1757,-489.7861"/>
</g>
<!-- ASAHIネット -->
<g id="node34" class="node">
<title>ASAHIネット</title>
<polygon fill="none" stroke="#000000" points="1054.5,-393 945.5,-393 945.5,-357 1054.5,-357 1054.5,-393"/>
<text text-anchor="middle" x="1000" y="-371.3" font-family="Times,serif" font-size="14.00" fill="#000000">ASAHIネット</text>
</g>
<!-- リクルートカード&#45;&gt;ASAHIネット -->
<g id="edge31" class="edge">
<title>リクルートカード&#45;&gt;ASAHIネット</title>
<path fill="none" stroke="#000000" stroke-width="2" d="M372.6839,-378.8903C404.5061,-369.103 446.6442,-359 485,-359 485,-359 485,-359 861,-359 885.334,-359 911.908,-361.45 935.2428,-364.4326"/>
<polygon fill="#000000" stroke="#000000" stroke-width="2" points="934.9962,-367.9306 945.3716,-365.7854 935.923,-360.9923 934.9962,-367.9306"/>
</g>
<!-- アイハート -->
<g id="node37" class="node">
<title>アイハート</title>
<polygon fill="none" stroke="#000000" points="1043,-339 957,-339 957,-303 1043,-303 1043,-339"/>
<text text-anchor="middle" x="1000" y="-317.3" font-family="Times,serif" font-size="14.00" fill="#000000">アイハート</text>
</g>
<!-- リクルートカード&#45;&gt;アイハート -->
<g id="edge35" class="edge">
<title>リクルートカード&#45;&gt;アイハート</title>
<path fill="none" stroke="#000000" stroke-width="2" d="M344.2179,-378.9891C374.2525,-356.5148 430.3589,-321 485,-321 485,-321 485,-321 861,-321 889.2089,-321 920.638,-321 946.4649,-321"/>
<polygon fill="#000000" stroke="#000000" stroke-width="2" points="946.798,-324.5001 956.7979,-321 946.7979,-317.5001 946.798,-324.5001"/>
</g>
<!-- Amazon -->
<g id="node47" class="node">
<title>Amazon</title>
<polygon fill="none" stroke="#000000" points="1037,-447 963,-447 963,-411 1037,-411 1037,-447"/>
<text text-anchor="middle" x="1000" y="-425.3" font-family="Times,serif" font-size="14.00" fill="#000000">Amazon</text>
</g>
<!-- リクルートカード&#45;&gt;Amazon -->
<g id="edge33" class="edge">
<title>リクルートカード&#45;&gt;Amazon</title>
<path fill="none" stroke="#000000" stroke-width="2" d="M386.6479,-397C416.5731,-397 452.5981,-397 485,-397 485,-397 485,-397 861,-397 892.1803,-397 926.3151,-404.7414 952.9549,-412.6089"/>
<polygon fill="#000000" stroke="#000000" stroke-width="2" points="952.1896,-416.0349 962.7761,-415.6145 954.2381,-409.3413 952.1896,-416.0349"/>
</g>
<!-- iTunes -->
<g id="node48" class="node">
<title>iTunes</title>
<polygon fill="none" stroke="#000000" points="1032.5,-285 967.5,-285 967.5,-249 1032.5,-249 1032.5,-285"/>
<text text-anchor="middle" x="1000" y="-263.3" font-family="Times,serif" font-size="14.00" fill="#000000">iTunes</text>
</g>
<!-- リクルートカード&#45;&gt;iTunes -->
<g id="edge32" class="edge">
<title>リクルートカード&#45;&gt;iTunes</title>
<path fill="none" stroke="#000000" stroke-width="2" stroke-dasharray="5,2" d="M341.5308,-378.9364C377.1276,-346.7915 451.9347,-283 485,-283 485,-283 485,-283 861,-283 893.417,-283 929.8093,-278.652 957.2231,-274.4893"/>
<polygon fill="#000000" stroke="#000000" stroke-width="2" points="957.9272,-277.9217 967.263,-272.9124 956.8411,-271.0064 957.9272,-277.9217"/>
</g>
<!-- じゃらん -->
<g id="node50" class="node">
<title>じゃらん</title>
<polygon fill="none" stroke="#000000" points="1037,-856 963,-856 963,-820 1037,-820 1037,-856"/>
<text text-anchor="middle" x="1000" y="-834.3" font-family="Times,serif" font-size="14.00" fill="#000000">じゃらん</text>
</g>
<!-- リクルートカード&#45;&gt;じゃらん -->
<g id="edge34" class="edge">
<title>リクルートカード&#45;&gt;じゃらん</title>
<path fill="none" stroke="#000000" stroke-width="2" d="M324.4045,-415.0968C332.5969,-470.65 363.9132,-641.4187 451,-748 554.9843,-875.2614 635.2685,-887.1488 799,-873 852.1905,-868.4036 912.4245,-857.0867 952.969,-848.5564"/>
<polygon fill="#000000" stroke="#000000" stroke-width="2" points="953.7856,-851.9611 962.8365,-846.4535 952.3265,-845.1148 953.7856,-851.9611"/>
</g>
<!-- Suica&#45;&gt;JREポイント -->
<g id="edge24" class="edge">
<title>Suica&#45;&gt;JREポイント</title>
<path fill="none" stroke="#000000" d="M513.1434,-1348.0255C520.7498,-1344.9661 529.0733,-1342.0131 537,-1340 565.5296,-1332.7544 597.9205,-1328.5929 625.1979,-1326.2046"/>
<polygon fill="#000000" stroke="#000000" points="625.701,-1329.6753 635.3831,-1325.3734 625.1315,-1322.6985 625.701,-1329.6753"/>
<text text-anchor="middle" x="555.5" y="-1343.8" font-family="Times,serif" font-size="14.00" fill="#000000">1.5%</text>
</g>
<!-- 電車 -->
<g id="node31" class="node">
<title>電車</title>
<polygon fill="none" stroke="#000000" points="1027,-1544 973,-1544 973,-1508 1027,-1508 1027,-1544"/>
<text text-anchor="middle" x="1000" y="-1522.3" font-family="Times,serif" font-size="14.00" fill="#000000">電車</text>
</g>
<!-- Suica&#45;&gt;電車 -->
<g id="edge19" class="edge">
<title>Suica&#45;&gt;電車</title>
<path fill="none" stroke="#000000" stroke-width="2" d="M490.8018,-1379.0497C503.0625,-1413.7938 535.2473,-1489.2475 592,-1520 713.799,-1585.999 887.59,-1554.669 962.8716,-1536.1936"/>
<polygon fill="#000000" stroke="#000000" stroke-width="2" points="963.9843,-1539.5227 972.8247,-1533.6835 962.2724,-1532.7352 963.9843,-1539.5227"/>
</g>
<!-- 松屋 -->
<g id="node45" class="node">
<title>松屋</title>
<polygon fill="none" stroke="#000000" points="1027,-1371 973,-1371 973,-1335 1027,-1335 1027,-1371"/>
<text text-anchor="middle" x="1000" y="-1349.3" font-family="Times,serif" font-size="14.00" fill="#000000">松屋</text>
</g>
<!-- Suica&#45;&gt;松屋 -->
<g id="edge20" class="edge">
<title>Suica&#45;&gt;松屋</title>
<path fill="none" stroke="#000000" stroke-width="2" d="M513.0544,-1360.5642C599.9359,-1359.2146 864.5921,-1355.1034 962.8022,-1353.5778"/>
<polygon fill="#000000" stroke="#000000" stroke-width="2" points="962.9137,-1357.0766 972.8581,-1353.4216 962.8049,-1350.0775 962.9137,-1357.0766"/>
</g>
<!-- 吉野家 -->
<g id="node46" class="node">
<title>吉野家</title>
<polygon fill="none" stroke="#000000" points="1029.5,-1203 970.5,-1203 970.5,-1167 1029.5,-1167 1029.5,-1203"/>
<text text-anchor="middle" x="1000" y="-1181.3" font-family="Times,serif" font-size="14.00" fill="#000000">吉野家</text>
</g>
<!-- Suica&#45;&gt;吉野家 -->
<g id="edge21" class="edge">
<title>Suica&#45;&gt;吉野家</title>
<path fill="none" stroke="#000000" stroke-width="2" d="M513.323,-1342.7949C515.2967,-1341.2391 517.2105,-1339.6337 519,-1338 528.3302,-1329.4822 526.6953,-1323.3088 537,-1316 558.2158,-1300.9523 567.0127,-1303.2235 592,-1296 682.4453,-1269.8534 708.1541,-1275.7187 799,-1251 855.9691,-1235.499 920.6443,-1213.4424 960.8865,-1199.1745"/>
<polygon fill="#000000" stroke="#000000" stroke-width="2" points="962.079,-1202.4652 970.3244,-1195.8121 959.7297,-1195.8712 962.079,-1202.4652"/>
</g>
<!-- 切符 -->
<g id="node27" class="node">
<title>切符</title>
<polygon fill="none" stroke="#000000" points="888,-1636 834,-1636 834,-1600 888,-1600 888,-1636"/>
<text text-anchor="middle" x="861" y="-1614.3" font-family="Times,serif" font-size="14.00" fill="#000000">切符</text>
</g>
<!-- 現金&#45;&gt;切符 -->
<g id="edge61" class="edge">
<title>現金&#45;&gt;切符</title>
<path fill="none" stroke="#000000" stroke-width="2" d="M512.0653,-1571.5691C520.0357,-1573.3566 528.8147,-1575.5044 537,-1577 639.8094,-1595.7847 763.1261,-1604.1276 823.6955,-1610.7039"/>
<polygon fill="#000000" stroke="#000000" stroke-width="2" points="823.5761,-1614.2129 833.9089,-1611.8712 824.371,-1607.2582 823.5761,-1614.2129"/>
</g>
<!-- 回数カード -->
<g id="node28" class="node">
<title>回数カード</title>
<polygon fill="none" stroke="#000000" points="905,-1479 817,-1479 817,-1443 905,-1443 905,-1479"/>
<text text-anchor="middle" x="861" y="-1457.3" font-family="Times,serif" font-size="14.00" fill="#000000">回数カード</text>
</g>
<!-- 現金&#45;&gt;回数カード -->
<g id="edge64" class="edge">
<title>現金&#45;&gt;回数カード</title>
<path fill="none" stroke="#000000" stroke-width="2" d="M489.5434,-1553.9876C496.0971,-1531.9939 510.4412,-1495.4523 537,-1477 617.3417,-1421.1808 737.8291,-1433.7464 806.99,-1447.593"/>
<polygon fill="#000000" stroke="#000000" stroke-width="2" points="806.3074,-1451.0258 816.8108,-1449.6372 807.7339,-1444.1727 806.3074,-1451.0258"/>
</g>
<!-- 飲食店 -->
<g id="node42" class="node">
<title>飲食店</title>
<polygon fill="none" stroke="#000000" points="1029.5,-1598 970.5,-1598 970.5,-1562 1029.5,-1562 1029.5,-1598"/>
<text text-anchor="middle" x="1000" y="-1576.3" font-family="Times,serif" font-size="14.00" fill="#000000">飲食店</text>
</g>
<!-- 現金&#45;&gt;飲食店 -->
<g id="edge60" class="edge">
<title>現金&#45;&gt;飲食店</title>
<path fill="none" stroke="#000000" stroke-width="2" d="M512.325,-1572.4245C597.6823,-1573.7504 859.6214,-1577.8194 960.1469,-1579.3809"/>
<polygon fill="#000000" stroke="#000000" stroke-width="2" points="960.1449,-1582.8812 970.1981,-1579.5371 960.2537,-1575.8821 960.1449,-1582.8812"/>
</g>
<!-- nanacoポイント -->
<g id="node23" class="node">
<title>nanacoポイント</title>
<polygon fill="none" stroke="#000000" points="748.5,-217 623.5,-217 623.5,-181 748.5,-181 748.5,-217"/>
<text text-anchor="middle" x="686" y="-195.3" font-family="Times,serif" font-size="14.00" fill="#000000">nanacoポイント</text>
</g>
<!-- nanaco&#45;&gt;nanacoポイント -->
<g id="edge53" class="edge">
<title>nanaco&#45;&gt;nanacoポイント</title>
<path fill="none" stroke="#000000" d="M519.2474,-221.6586C525.0825,-219.4838 531.1493,-217.4859 537,-216 561.5078,-209.7758 588.865,-205.8275 613.3823,-203.324"/>
<polygon fill="#000000" stroke="#000000" points="613.7193,-206.8079 623.3396,-202.3694 613.0512,-199.8398 613.7193,-206.8079"/>
<text text-anchor="middle" x="555.5" y="-219.8" font-family="Times,serif" font-size="14.00" fill="#000000">1%</text>
</g>
<!-- セブンイレブン -->
<g id="node30" class="node">
<title>セブンイレブン</title>
<polygon fill="none" stroke="#000000" points="1057,-231 943,-231 943,-195 1057,-195 1057,-231"/>
<text text-anchor="middle" x="1000" y="-209.3" font-family="Times,serif" font-size="14.00" fill="#000000">セブンイレブン</text>
</g>
<!-- nanaco&#45;&gt;セブンイレブン -->
<g id="edge52" class="edge">
<title>nanaco&#45;&gt;セブンイレブン</title>
<path fill="none" stroke="#000000" stroke-width="2" d="M519.0788,-235.9701C574.0149,-234.2556 685.5517,-230.5509 780,-226 831.1246,-223.5366 888.893,-220.0979 932.4012,-217.3758"/>
<polygon fill="#000000" stroke="#000000" stroke-width="2" points="932.8188,-220.8566 942.5794,-216.7358 932.3794,-213.8703 932.8188,-220.8566"/>
</g>
<!-- Edy&#45;&gt;Ponta -->
<g id="edge44" class="edge">
<title>Edy&#45;&gt;Ponta</title>
<path fill="none" stroke="#000000" d="M512.0712,-672.3619C530.4569,-682.0791 554.8209,-696.2498 574,-712 583.2418,-719.5895 581.8605,-725.6594 592,-732 608.6074,-742.3853 629.3352,-748.8935 647.0975,-752.91"/>
<polygon fill="#000000" stroke="#000000" points="646.657,-756.3931 657.1595,-754.9974 648.079,-749.539 646.657,-756.3931"/>
<text text-anchor="middle" x="555.5" y="-715.8" font-family="Times,serif" font-size="14.00" fill="#000000">0.5%</text>
</g>
<!-- ヤマト運輸 -->
<g id="node36" class="node">
<title>ヤマト運輸</title>
<polygon fill="none" stroke="#000000" points="1044,-1028 956,-1028 956,-992 1044,-992 1044,-1028"/>
<text text-anchor="middle" x="1000" y="-1006.3" font-family="Times,serif" font-size="14.00" fill="#000000">ヤマト運輸</text>
</g>
<!-- Edy&#45;&gt;ヤマト運輸 -->
<g id="edge37" class="edge">
<title>Edy&#45;&gt;ヤマト運輸</title>
<path fill="none" stroke="#000000" stroke-width="2" d="M512.0731,-674.2616C514.6956,-676.5835 517.0867,-679.1644 519,-682 540.3553,-713.6501 528.2877,-728.8264 537,-766 559.6047,-862.4498 515.9136,-918.5619 592,-982 644.2732,-1025.5835 847.0728,-1019.592 945.6275,-1013.8347"/>
<polygon fill="#000000" stroke="#000000" stroke-width="2" points="945.9173,-1017.3237 955.6878,-1013.2265 945.4948,-1010.3364 945.9173,-1017.3237"/>
</g>
<!-- ウェルシア -->
<g id="node38" class="node">
<title>ウェルシア</title>
<polygon fill="none" stroke="#000000" points="1043.5,-1082 956.5,-1082 956.5,-1046 1043.5,-1046 1043.5,-1082"/>
<text text-anchor="middle" x="1000" y="-1060.3" font-family="Times,serif" font-size="14.00" fill="#000000">ウェルシア</text>
</g>
<!-- Edy&#45;&gt;ウェルシア -->
<g id="edge42" class="edge">
<title>Edy&#45;&gt;ウェルシア</title>
<path fill="none" stroke="#000000" stroke-width="2" d="M512.0951,-673.7509C514.7863,-676.1852 517.1877,-678.9321 519,-682 541.3589,-719.8494 526.5378,-836.303 537,-879 552.3213,-941.5272 540.8612,-973.8948 592,-1013 619.6448,-1034.1396 841.9164,-1052.6662 946.2624,-1060.2944"/>
<polygon fill="#000000" stroke="#000000" stroke-width="2" points="946.056,-1063.7885 956.2827,-1061.0198 946.5615,-1056.8068 946.056,-1063.7885"/>
</g>
<!-- ヨドバシカメラ -->
<g id="node40" class="node">
<title>ヨドバシカメラ</title>
<polygon fill="none" stroke="#000000" points="1058,-910 942,-910 942,-874 1058,-874 1058,-910"/>
<text text-anchor="middle" x="1000" y="-888.3" font-family="Times,serif" font-size="14.00" fill="#000000">ヨドバシカメラ</text>
</g>
<!-- Edy&#45;&gt;ヨドバシカメラ -->
<g id="edge39" class="edge">
<title>Edy&#45;&gt;ヨドバシカメラ</title>
<path fill="none" stroke="#000000" stroke-width="2" d="M512.0226,-674.8274C514.5876,-677.0219 516.9796,-679.4184 519,-682 533.2987,-700.2707 524.5052,-711.4513 537,-731 555.6177,-760.1281 561.9962,-768.8293 592,-786 701.1047,-848.439 847.4784,-874.8098 931.9899,-885.4038"/>
<polygon fill="#000000" stroke="#000000" stroke-width="2" points="931.6335,-888.8861 941.9829,-886.6189 932.4785,-881.9373 931.6335,-888.8861"/>
</g>
<!-- 餃子の王将 -->
<g id="node41" class="node">
<title>餃子の王将</title>
<polygon fill="none" stroke="#000000" points="1044,-555 956,-555 956,-519 1044,-519 1044,-555"/>
<text text-anchor="middle" x="1000" y="-533.3" font-family="Times,serif" font-size="14.00" fill="#000000">餃子の王将</text>
</g>
<!-- Edy&#45;&gt;餃子の王将 -->
<g id="edge59" class="edge">
<title>Edy&#45;&gt;餃子の王将</title>
<path fill="none" stroke="#000000" stroke-width="2" d="M494.8273,-640.9179C510.8755,-613.7173 545.6266,-563.774 592,-548 712.8599,-506.8892 865.6787,-518.1942 945.6156,-528.5003"/>
<polygon fill="#000000" stroke="#000000" stroke-width="2" points="945.5572,-532.0235 955.9324,-529.8776 946.4835,-525.085 945.5572,-532.0235"/>
</g>
<!-- FRESCO -->
<g id="node43" class="node">
<title>FRESCO</title>
<polygon fill="none" stroke="#000000" points="1040,-663 960,-663 960,-627 1040,-627 1040,-663"/>
<text text-anchor="middle" x="1000" y="-641.3" font-family="Times,serif" font-size="14.00" fill="#000000">FRESCO</text>
</g>
<!-- Edy&#45;&gt;FRESCO -->
<g id="edge56" class="edge">
<title>Edy&#45;&gt;FRESCO</title>
<path fill="none" stroke="#000000" stroke-width="2" d="M512.325,-658.2572C594.8362,-656.0142 842.35,-649.2856 949.5656,-646.371"/>
<polygon fill="#000000" stroke="#000000" stroke-width="2" points="949.8971,-649.8634 959.7983,-646.0929 949.7069,-642.866 949.8971,-649.8634"/>
</g>
<!-- 業務スーパー -->
<g id="node44" class="node">
<title>業務スーパー</title>
<polygon fill="none" stroke="#000000" points="1050.5,-609 949.5,-609 949.5,-573 1050.5,-573 1050.5,-609"/>
<text text-anchor="middle" x="1000" y="-587.3" font-family="Times,serif" font-size="14.00" fill="#000000">業務スーパー</text>
</g>
<!-- Edy&#45;&gt;業務スーパー -->
<g id="edge55" class="edge">
<title>Edy&#45;&gt;業務スーパー</title>
<path fill="none" stroke="#000000" stroke-width="2" d="M512.2556,-655.3163C520.2302,-654.2424 528.9638,-653.0703 537,-652 681.1759,-632.7983 850.6527,-610.5528 939.1686,-598.959"/>
<polygon fill="#000000" stroke="#000000" stroke-width="2" points="939.8345,-602.4018 949.2953,-597.6328 938.9255,-595.4611 939.8345,-602.4018"/>
</g>
<!-- Ponta&#45;&gt;じゃらん -->
<g id="edge47" class="edge">
<title>Ponta&#45;&gt;じゃらん</title>
<path fill="none" stroke="#000000" d="M714.7093,-756.1155C761.5162,-752.7504 855.8789,-751.6463 924,-788 938.378,-795.673 953.5129,-805.2839 966.4585,-814.0238"/>
<polygon fill="#000000" stroke="#000000" points="964.8073,-817.1353 975.0349,-819.9009 968.7643,-811.3609 964.8073,-817.1353"/>
</g>
<!-- Tポイント -->
<g id="node18" class="node">
<title>Tポイント</title>
<polygon fill="none" stroke="#000000" points="727.5,-1163 644.5,-1163 644.5,-1127 727.5,-1127 727.5,-1163"/>
<text text-anchor="middle" x="686" y="-1141.3" font-family="Times,serif" font-size="14.00" fill="#000000">Tポイント</text>
</g>
<!-- 楽天スーパーポイント -->
<g id="node19" class="node">
<title>楽天スーパーポイント</title>
<polygon fill="none" stroke="#000000" points="765,-593 607,-593 607,-557 765,-557 765,-593"/>
<text text-anchor="middle" x="686" y="-571.3" font-family="Times,serif" font-size="14.00" fill="#000000">楽天スーパーポイント</text>
</g>
<!-- 楽天スーパーポイント&#45;&gt;Edy -->
<g id="edge45" class="edge">
<title>楽天スーパーポイント&#45;&gt;Edy</title>
<path fill="none" stroke="#000000" d="M606.8365,-583.3213C583.3612,-588.0376 558.2631,-595.426 537,-607 525.0856,-613.4853 514.1036,-623.5447 505.3325,-633.0943"/>
<polygon fill="#000000" stroke="#000000" points="502.4526,-631.0712 498.5129,-640.9063 507.7259,-635.6747 502.4526,-631.0712"/>
</g>
<!-- JREポイント&#45;&gt;Suica -->
<g id="edge25" class="edge">
<title>JREポイント&#45;&gt;Suica</title>
<path fill="none" stroke="#000000" d="M635.2411,-1318.1687C605.9048,-1316.9749 568.6548,-1318.2249 537,-1328 529.9061,-1330.1906 522.8348,-1333.6207 516.2958,-1337.4568"/>
<polygon fill="#000000" stroke="#000000" points="514.3348,-1334.5557 507.7566,-1342.861 518.0783,-1340.4706 514.3348,-1334.5557"/>
</g>
<!-- ビックポイント&#45;&gt;ビックカメラ -->
<g id="edge17" class="edge">
<title>ビックポイント&#45;&gt;ビックカメラ</title>
<path fill="none" stroke="#000000" d="M744.0919,-1673.8736C789.0428,-1675.3097 852.3026,-1680.7134 905,-1698 926.7427,-1705.1324 948.9882,-1717.6734 966.4817,-1728.9804"/>
<polygon fill="#000000" stroke="#000000" points="964.9013,-1732.1322 975.1688,-1734.7456 968.7721,-1726.2997 964.9013,-1732.1322"/>
</g>
<!-- Amazonポイント -->
<g id="node22" class="node">
<title>Amazonポイント</title>
<polygon fill="none" stroke="#000000" points="751.5,-462 620.5,-462 620.5,-426 751.5,-426 751.5,-462"/>
<text text-anchor="middle" x="686" y="-440.3" font-family="Times,serif" font-size="14.00" fill="#000000">Amazonポイント</text>
</g>
<!-- Amazonポイント&#45;&gt;Amazon -->
<g id="edge50" class="edge">
<title>Amazonポイント&#45;&gt;Amazon</title>
<path fill="none" stroke="#000000" d="M751.8247,-435.241C811.8442,-430.6773 899.0692,-426.715 952.5283,-426.267"/>
<polygon fill="#000000" stroke="#000000" points="952.7663,-429.7661 962.7519,-426.2251 952.7376,-422.7662 952.7663,-429.7661"/>
</g>
<!-- nanacoポイント&#45;&gt;nanaco -->
<g id="edge54" class="edge">
<title>nanacoポイント&#45;&gt;nanaco</title>
<path fill="none" stroke="#000000" d="M623.1653,-193.8366C596.109,-193.4573 564.4507,-195.5231 537,-204 529.9061,-206.1906 522.8348,-209.6207 516.2958,-213.4568"/>
<polygon fill="#000000" stroke="#000000" points="514.3348,-210.5557 507.7566,-218.861 518.0783,-216.4706 514.3348,-210.5557"/>
</g>
<!-- FRESCOポイント -->
<g id="node24" class="node">
<title>FRESCOポイント</title>
<polygon fill="none" stroke="#000000" points="754.5,-723 617.5,-723 617.5,-687 754.5,-687 754.5,-723"/>
<text text-anchor="middle" x="686" y="-701.3" font-family="Times,serif" font-size="14.00" fill="#000000">FRESCOポイント</text>
</g>
<!-- FRESCOポイント&#45;&gt;FRESCO -->
<g id="edge58" class="edge">
<title>FRESCOポイント&#45;&gt;FRESCO</title>
<path fill="none" stroke="#000000" d="M754.5206,-691.9069C813.3929,-680.6574 896.9102,-664.6987 949.7605,-654.5999"/>
<polygon fill="#000000" stroke="#000000" points="950.7399,-657.9762 959.9053,-652.6614 949.426,-651.1006 950.7399,-657.9762"/>
</g>
<!-- ヨドバシゴールドポイント -->
<g id="node25" class="node">
<title>ヨドバシゴールドポイント</title>
<polygon fill="none" stroke="#000000" points="780,-973 592,-973 592,-937 780,-937 780,-973"/>
<text text-anchor="middle" x="686" y="-951.3" font-family="Times,serif" font-size="14.00" fill="#000000">ヨドバシゴールドポイント</text>
</g>
<!-- ヨドバシゴールドポイント&#45;&gt;ヨドバシカメラ -->
<g id="edge41" class="edge">
<title>ヨドバシゴールドポイント&#45;&gt;ヨドバシカメラ</title>
<path fill="none" stroke="#000000" d="M780.0151,-961.4771C819.3256,-961.6565 865.0608,-958.513 905,-947 927.4552,-940.527 950.1954,-927.6357 967.7953,-915.9601"/>
<polygon fill="#000000" stroke="#000000" points="970.2232,-918.5399 976.5017,-910.0058 966.2716,-912.762 970.2232,-918.5399"/>
</g>
<!-- はぴeポイント -->
<g id="node26" class="node">
<title>はぴeポイント</title>
<polygon fill="none" stroke="#000000" points="741,-108 631,-108 631,-72 741,-72 741,-108"/>
<text text-anchor="middle" x="686" y="-86.3" font-family="Times,serif" font-size="14.00" fill="#000000">はぴeポイント</text>
</g>
<!-- はぴeポイント&#45;&gt;関西電力 -->
<g id="edge12" class="edge">
<title>はぴeポイント&#45;&gt;関西電力</title>
<path fill="none" stroke="#000000" d="M741.0539,-101.0459C800.9941,-113.0721 895.8619,-132.106 952.6062,-143.4911"/>
<polygon fill="#000000" stroke="#000000" points="952.2478,-146.9888 962.741,-145.5245 953.6249,-140.1256 952.2478,-146.9888"/>
</g>
<!-- 切符&#45;&gt;現金 -->
<g id="edge63" class="edge">
<title>切符&#45;&gt;現金</title>
<path fill="none" stroke="#000000" d="M833.9089,-1621.7929C778.0083,-1623.0918 645.9822,-1614.9126 537,-1595 532.0121,-1594.0886 526.8037,-1592.9351 521.6922,-1591.5973"/>
<polygon fill="#000000" stroke="#000000" points="522.644,-1588.2292 512.0653,-1588.8127 520.699,-1594.9535 522.644,-1588.2292"/>
</g>
<!-- 切符&#45;&gt;電車 -->
<g id="edge62" class="edge">
<title>切符&#45;&gt;電車</title>
<path fill="none" stroke="#000000" stroke-width="2" d="M880.9543,-1599.7187C896.7565,-1585.8184 919.7933,-1566.7979 942,-1553 948.7661,-1548.7959 956.2933,-1544.8283 963.624,-1541.2947"/>
<polygon fill="#000000" stroke="#000000" stroke-width="2" points="965.1364,-1544.4514 972.7325,-1537.0656 962.1885,-1538.1023 965.1364,-1544.4514"/>
</g>
<!-- 回数カード&#45;&gt;現金 -->
<g id="edge66" class="edge">
<title>回数カード&#45;&gt;現金</title>
<path fill="none" stroke="#000000" d="M816.7566,-1474.0612C741.7915,-1496.1919 591.1919,-1540.6508 521.6885,-1561.1691"/>
<polygon fill="#000000" stroke="#000000" points="520.6408,-1557.829 512.041,-1564.0172 522.6228,-1564.5425 520.6408,-1557.829"/>
<text text-anchor="middle" x="686" y="-1543.8" font-family="Times,serif" font-size="14.00" fill="#000000">10%</text>
</g>
<!-- 大阪地下鉄 -->
<g id="node32" class="node">
<title>大阪地下鉄</title>
<polygon fill="none" stroke="#000000" points="1044,-1479 956,-1479 956,-1443 1044,-1443 1044,-1479"/>
<text text-anchor="middle" x="1000" y="-1457.3" font-family="Times,serif" font-size="14.00" fill="#000000">大阪地下鉄</text>
</g>
<!-- 回数カード&#45;&gt;大阪地下鉄 -->
<g id="edge65" class="edge">
<title>回数カード&#45;&gt;大阪地下鉄</title>
<path fill="none" stroke="#000000" stroke-width="2" d="M905.3626,-1461C918.1519,-1461 932.2536,-1461 945.5785,-1461"/>
<polygon fill="#000000" stroke="#000000" stroke-width="2" points="945.5821,-1464.5001 955.5821,-1461 945.582,-1457.5001 945.5821,-1464.5001"/>
</g>
<!-- 関西電力&#45;&gt;はぴeポイント -->
<g id="edge11" class="edge">
<title>関西電力&#45;&gt;はぴeポイント</title>
<path fill="none" stroke="#000000" d="M981.9173,-134.9878C964.0913,-118.6086 935.2034,-95.5793 905,-86 855.2301,-70.215 795.8489,-72.5131 751.4834,-78.0376"/>
<polygon fill="#000000" stroke="#000000" points="750.8514,-74.5907 741.4009,-79.3802 751.7755,-81.5295 750.8514,-74.5907"/>
<text text-anchor="middle" x="861" y="-89.8" font-family="Times,serif" font-size="14.00" fill="#000000">0.8%, 0.5%</text>
</g>
<!-- ヤマト運輸&#45;&gt;Tポイント -->
<g id="edge38" class="edge">
<title>ヤマト運輸&#45;&gt;Tポイント</title>
<path fill="none" stroke="#000000" d="M958.1308,-1028.0011C901.0327,-1052.5496 798.8192,-1096.495 737.221,-1122.9782"/>
<polygon fill="#000000" stroke="#000000" points="735.5012,-1119.9078 727.6968,-1127.073 738.2661,-1126.3386 735.5012,-1119.9078"/>
<text text-anchor="middle" x="861" y="-1091.8" font-family="Times,serif" font-size="14.00" fill="#000000">0.5%</text>
</g>
<!-- ウェルシア&#45;&gt;Tポイント -->
<g id="edge43" class="edge">
<title>ウェルシア&#45;&gt;Tポイント</title>
<path fill="none" stroke="#000000" d="M972.7631,-1082.1554C958.6706,-1090.9225 940.9142,-1101.0264 924,-1108 863.1854,-1133.0735 787.2417,-1141.3033 737.7262,-1143.9222"/>
<polygon fill="#000000" stroke="#000000" points="737.4005,-1140.4336 727.5762,-1144.4 737.7297,-1147.4258 737.4005,-1140.4336"/>
<text text-anchor="middle" x="861" y="-1138.8" font-family="Times,serif" font-size="14.00" fill="#000000">1%</text>
</g>
<!-- ビックカメラ&#45;&gt;ビックポイント -->
<g id="edge15" class="edge">
<title>ビックカメラ&#45;&gt;ビックポイント</title>
<path fill="none" stroke="#000000" stroke-dasharray="5,2" d="M949.4119,-1736.8211C935.1124,-1732.4487 919.497,-1727.8623 905,-1724 854.8304,-1710.6339 797.6147,-1697.6476 754.2492,-1688.2607"/>
<polygon fill="#000000" stroke="#000000" points="754.8902,-1684.8186 744.3774,-1686.1342 753.4161,-1691.6616 754.8902,-1684.8186"/>
<text text-anchor="middle" x="861" y="-1727.8" font-family="Times,serif" font-size="14.00" fill="#000000">9.5%</text>
</g>
<!-- ヨドバシカメラ&#45;&gt;ヨドバシゴールドポイント -->
<g id="edge40" class="edge">
<title>ヨドバシカメラ&#45;&gt;ヨドバシゴールドポイント</title>
<path fill="none" stroke="#000000" d="M941.7236,-903.6924C898.0322,-912.4585 837.1751,-924.6687 785.7898,-934.9785"/>
<polygon fill="#000000" stroke="#000000" points="785.0959,-931.5479 775.9798,-936.9467 786.4729,-938.4111 785.0959,-931.5479"/>
<text text-anchor="middle" x="861" y="-931.8" font-family="Times,serif" font-size="14.00" fill="#000000">10%</text>
</g>
<!-- FRESCO&#45;&gt;FRESCOポイント -->
<g id="edge57" class="edge">
<title>FRESCO&#45;&gt;FRESCOポイント</title>
<path fill="none" stroke="#000000" d="M968.0272,-663.1333C954.796,-669.8352 939.0499,-676.8115 924,-681 872.0966,-695.445 811.6784,-701.4131 764.7045,-703.7861"/>
<polygon fill="#000000" stroke="#000000" points="764.4183,-700.2955 754.5901,-704.2524 764.7407,-707.2881 764.4183,-700.2955"/>
<text text-anchor="middle" x="861" y="-702.8" font-family="Times,serif" font-size="14.00" fill="#000000">0.5%</text>
</g>
<!-- 吉野家&#45;&gt;Tポイント -->
<g id="edge22" class="edge">
<title>吉野家&#45;&gt;Tポイント</title>
<path fill="none" stroke="#000000" d="M970.4907,-1181.8871C934.2921,-1178.0056 871.0707,-1171.022 817,-1164 790.7777,-1160.5946 761.663,-1156.4121 737.5535,-1152.839"/>
<polygon fill="#000000" stroke="#000000" points="737.9568,-1149.3605 727.5502,-1151.349 736.9254,-1156.2841 737.9568,-1149.3605"/>
<text text-anchor="middle" x="861" y="-1177.8" font-family="Times,serif" font-size="14.00" fill="#000000">0.5%</text>
</g>
<!-- Amazon&#45;&gt;Amazonポイント -->
<g id="edge49" class="edge">
<title>Amazon&#45;&gt;Amazonポイント</title>
<path fill="none" stroke="#000000" d="M962.7519,-435.3337C913.5587,-440.0674 825.7426,-444.7053 762.2004,-446.2426"/>
<polygon fill="#000000" stroke="#000000" points="761.7456,-442.7516 751.8247,-446.47 761.899,-449.7499 761.7456,-442.7516"/>
</g>
<!-- じゃらん&#45;&gt;Ponta -->
<g id="edge48" class="edge">
<title>じゃらん&#45;&gt;Ponta</title>
<path fill="none" stroke="#000000" d="M962.8591,-828.6556C902.9474,-813.5823 785.5496,-784.0459 724.6735,-768.73"/>
<polygon fill="#000000" stroke="#000000" points="725.2496,-765.2659 714.6978,-766.2202 723.5416,-772.0543 725.2496,-765.2659"/>
<text text-anchor="middle" x="861" y="-817.8" font-family="Times,serif" font-size="14.00" fill="#000000">2%</text>
</g>
</g>
</svg>
