<?xml version="1.0" encoding="UTF-8" standalone="no"?>
<!DOCTYPE svg PUBLIC "-//W3C//DTD SVG 1.1//EN"
 "http://www.w3.org/Graphics/SVG/1.1/DTD/svg11.dtd">
<!-- Generated by graphviz version 2.42.4 (0)
 -->
<!-- Title: MoneyFlow Pages: 1 -->
<svg width="1075pt" height="1804pt"
 viewBox="0.00 0.00 1075.00 1804.00" xmlns="http://www.w3.org/2000/svg" xmlns:xlink="http://www.w3.org/1999/xlink">
<g id="graph0" class="graph" transform="scale(1 1) rotate(0) translate(4 1800)">
<title>MoneyFlow</title>
<polygon fill="white" stroke="transparent" points="-4,4 -4,-1800 1071,-1800 1071,4 -4,4"/>
<!-- 収入 -->
<g id="node1" class="node">
<title>収入</title>
<text text-anchor="middle" x="29.5" y="-14.3" font-family="Times,serif" font-size="14.00">収入</text>
</g>
<!-- 銀行口座 -->
<g id="node2" class="node">
<title>銀行口座</title>
<text text-anchor="middle" x="147" y="-14.3" font-family="Times,serif" font-size="14.00">銀行口座</text>
</g>
<!-- 収入&#45;&gt;銀行口座 -->
<g id="edge1" class="edge">
<title>収入&#45;&gt;銀行口座</title>
<path fill="none" stroke="black" d="M56.71,-18C72.42,-18 92.61,-18 109.83,-18"/>
</g>
<!-- クレジットカード -->
<g id="node3" class="node">
<title>クレジットカード</title>
<text text-anchor="middle" x="326.5" y="-14.3" font-family="Times,serif" font-size="14.00">クレジットカード</text>
</g>
<!-- 銀行口座&#45;&gt;クレジットカード -->
<g id="edge2" class="edge">
<title>銀行口座&#45;&gt;クレジットカード</title>
<path fill="none" stroke="black" d="M184.35,-18C206.66,-18 235.86,-18 261.91,-18"/>
</g>
<!-- マネー -->
<g id="node4" class="node">
<title>マネー</title>
<text text-anchor="middle" x="492" y="-14.3" font-family="Times,serif" font-size="14.00">マネー</text>
</g>
<!-- クレジットカード&#45;&gt;マネー -->
<g id="edge3" class="edge">
<title>クレジットカード&#45;&gt;マネー</title>
<path fill="none" stroke="black" d="M391.18,-18C415.75,-18 442.61,-18 462.27,-18"/>
</g>
<!-- ポイント -->
<g id="node5" class="node">
<title>ポイント</title>
<text text-anchor="middle" x="695.5" y="-14.3" font-family="Times,serif" font-size="14.00">ポイント</text>
</g>
<!-- マネー&#45;&gt;ポイント -->
<g id="edge4" class="edge">
<title>マネー&#45;&gt;ポイント</title>
<path fill="none" stroke="black" d="M521.87,-18C557.78,-18 619.11,-18 658.18,-18"/>
</g>
<!-- 金券 -->
<g id="node6" class="node">
<title>金券</title>
<text text-anchor="middle" x="870" y="-14.3" font-family="Times,serif" font-size="14.00">金券</text>
</g>
<!-- ポイント&#45;&gt;金券 -->
<g id="edge5" class="edge">
<title>ポイント&#45;&gt;金券</title>
<path fill="none" stroke="black" d="M732.66,-18C765.66,-18 813.62,-18 842.99,-18"/>
</g>
<!-- 支出 -->
<g id="node7" class="node">
<title>支出</title>
<text text-anchor="middle" x="1009" y="-14.3" font-family="Times,serif" font-size="14.00">支出</text>
</g>
<!-- 金券&#45;&gt;支出 -->
<g id="edge6" class="edge">
<title>金券&#45;&gt;支出</title>
<path fill="none" stroke="black" d="M897.09,-18C921.31,-18 957.2,-18 981.54,-18"/>
</g>
<!-- 給与 -->
<g id="node8" class="node">
<title>給与</title>
<polygon fill="none" stroke="black" points="56.5,-1716 2.5,-1716 2.5,-1680 56.5,-1680 56.5,-1716"/>
<text text-anchor="middle" x="29.5" y="-1694.3" font-family="Times,serif" font-size="14.00">給与</text>
</g>
<!-- 三井住友銀行 -->
<g id="node11" class="node">
<title>三井住友銀行</title>
<polygon fill="none" stroke="black" points="198,-1716 96,-1716 96,-1680 198,-1680 198,-1716"/>
<text text-anchor="middle" x="147" y="-1694.3" font-family="Times,serif" font-size="14.00">三井住友銀行</text>
</g>
<!-- 給与&#45;&gt;三井住友銀行 -->
<g id="edge7" class="edge">
<title>給与&#45;&gt;三井住友銀行</title>
<path fill="none" stroke="black" stroke-width="2" d="M56.71,-1698C65.39,-1698 75.45,-1698 85.62,-1698"/>
<polygon fill="black" stroke="black" stroke-width="2" points="85.78,-1701.5 95.78,-1698 85.78,-1694.5 85.78,-1701.5"/>
</g>
<!-- 譲渡 -->
<g id="node9" class="node">
<title>譲渡</title>
<polygon fill="none" stroke="black" points="56.5,-1258 2.5,-1258 2.5,-1222 56.5,-1222 56.5,-1258"/>
<text text-anchor="middle" x="29.5" y="-1236.3" font-family="Times,serif" font-size="14.00">譲渡</text>
</g>
<!-- メルペイ -->
<g id="node21" class="node">
<title>メルペイ</title>
<polygon fill="none" stroke="black" points="529,-1258 455,-1258 455,-1222 529,-1222 529,-1258"/>
<text text-anchor="middle" x="492" y="-1236.3" font-family="Times,serif" font-size="14.00">メルペイ</text>
</g>
<!-- 譲渡&#45;&gt;メルペイ -->
<g id="edge68" class="edge">
<title>譲渡&#45;&gt;メルペイ</title>
<path fill="none" stroke="black" stroke-width="2" d="M56.58,-1240C131.58,-1240 348.63,-1240 444.52,-1240"/>
<polygon fill="black" stroke="black" stroke-width="2" points="444.78,-1243.5 454.78,-1240 444.78,-1236.5 444.78,-1243.5"/>
</g>
<!-- 雑収入 -->
<g id="node10" class="node">
<title>雑収入</title>
<polygon fill="none" stroke="black" points="59,-328 0,-328 0,-292 59,-292 59,-328"/>
<text text-anchor="middle" x="29.5" y="-306.3" font-family="Times,serif" font-size="14.00">雑収入</text>
</g>
<!-- Ponta -->
<g id="node22" class="node">
<title>Ponta</title>
<polygon fill="none" stroke="black" points="724,-90 667,-90 667,-54 724,-54 724,-90"/>
<text text-anchor="middle" x="695.5" y="-68.3" font-family="Times,serif" font-size="14.00">Ponta</text>
</g>
<!-- 雑収入&#45;&gt;Ponta -->
<g id="edge73" class="edge">
<title>雑収入&#45;&gt;Ponta</title>
<path fill="none" stroke="black" stroke-width="2" d="M30.92,-291.72C33.25,-235.99 48.4,-72 146,-72 146,-72 146,-72 493,-72 550,-72 616.07,-72 656.57,-72"/>
<polygon fill="black" stroke="black" stroke-width="2" points="656.8,-75.5 666.8,-72 656.8,-68.5 656.8,-75.5"/>
</g>
<!-- 楽天ポイント -->
<g id="node23" class="node">
<title>楽天ポイント</title>
<polygon fill="none" stroke="black" points="746.5,-703 644.5,-703 644.5,-667 746.5,-667 746.5,-703"/>
<text text-anchor="middle" x="695.5" y="-681.3" font-family="Times,serif" font-size="14.00">楽天ポイント</text>
</g>
<!-- 雑収入&#45;&gt;楽天ポイント -->
<g id="edge72" class="edge">
<title>雑収入&#45;&gt;楽天ポイント</title>
<path fill="none" stroke="black" stroke-width="2" d="M30.55,-328.38C31.77,-386.12 43.92,-560 146,-560 146,-560 146,-560 437,-560 522.29,-560 523.78,-624 602,-658 612.32,-662.49 623.61,-666.48 634.64,-669.93"/>
<polygon fill="black" stroke="black" stroke-width="2" points="633.66,-673.29 644.24,-672.82 635.67,-666.59 633.66,-673.29"/>
</g>
<!-- 住信SBI銀行 -->
<g id="node12" class="node">
<title>住信SBI銀行</title>
<polygon fill="none" stroke="black" points="196.5,-1620 97.5,-1620 97.5,-1584 196.5,-1584 196.5,-1620"/>
<text text-anchor="middle" x="147" y="-1598.3" font-family="Times,serif" font-size="14.00">住信SBI銀行</text>
</g>
<!-- 三井住友銀行&#45;&gt;住信SBI銀行 -->
<g id="edge9" class="edge">
<title>三井住友銀行&#45;&gt;住信SBI銀行</title>
<path fill="none" stroke="black" stroke-width="2" d="M147,-1679.81C147,-1663.4 147,-1647 147,-1630.59"/>
<polygon fill="black" stroke="black" stroke-width="2" points="150.5,-1630.37 147,-1620.38 143.5,-1630.38 150.5,-1630.37"/>
</g>
<!-- 現金 -->
<g id="node17" class="node">
<title>現金</title>
<polygon fill="none" stroke="black" points="519,-1704 465,-1704 465,-1668 519,-1668 519,-1704"/>
<text text-anchor="middle" x="492" y="-1682.3" font-family="Times,serif" font-size="14.00">現金</text>
</g>
<!-- 三井住友銀行&#45;&gt;現金 -->
<g id="edge8" class="edge">
<title>三井住友銀行&#45;&gt;現金</title>
<path fill="none" stroke="black" stroke-width="2" d="M154.3,-1716.31C164.04,-1740.94 185.04,-1781.11 217,-1776 305.48,-1761.84 404.16,-1723.49 455.54,-1701.7"/>
<polygon fill="black" stroke="black" stroke-width="2" points="457.05,-1704.86 464.86,-1697.7 454.29,-1698.42 457.05,-1704.86"/>
</g>
<!-- ビックカメラSuicaカード -->
<g id="node13" class="node">
<title>ビックカメラSuicaカード</title>
<polygon fill="none" stroke="black" points="418,-1403 235,-1403 235,-1367 418,-1367 418,-1403"/>
<text text-anchor="middle" x="326.5" y="-1381.3" font-family="Times,serif" font-size="14.00">ビックカメラSuicaカード</text>
</g>
<!-- 住信SBI銀行&#45;&gt;ビックカメラSuicaカード -->
<g id="edge23" class="edge">
<title>住信SBI銀行&#45;&gt;ビックカメラSuicaカード</title>
<path fill="none" stroke="black" stroke-width="2" d="M162.83,-1583.87C194.28,-1545.42 267.79,-1455.56 304.23,-1411"/>
<polygon fill="black" stroke="black" stroke-width="2" points="306.97,-1413.19 310.59,-1403.23 301.55,-1408.75 306.97,-1413.19"/>
</g>
<!-- リクルートカード -->
<g id="node14" class="node">
<title>リクルートカード</title>
<polygon fill="none" stroke="black" points="390.5,-819 262.5,-819 262.5,-783 390.5,-783 390.5,-819"/>
<text text-anchor="middle" x="326.5" y="-797.3" font-family="Times,serif" font-size="14.00">リクルートカード</text>
</g>
<!-- 住信SBI銀行&#45;&gt;リクルートカード -->
<g id="edge24" class="edge">
<title>住信SBI銀行&#45;&gt;リクルートカード</title>
<path fill="none" stroke="black" stroke-width="2" d="M152.04,-1583.77C175.2,-1479.23 291.08,-956.33 319.3,-828.99"/>
<polygon fill="black" stroke="black" stroke-width="2" points="322.72,-829.73 321.47,-819.21 315.88,-828.21 322.72,-829.73"/>
</g>
<!-- PiTaPa -->
<g id="node15" class="node">
<title>PiTaPa</title>
<polygon fill="none" stroke="black" points="359,-1620 294,-1620 294,-1584 359,-1584 359,-1620"/>
<text text-anchor="middle" x="326.5" y="-1598.3" font-family="Times,serif" font-size="14.00">PiTaPa</text>
</g>
<!-- 住信SBI銀行&#45;&gt;PiTaPa -->
<g id="edge25" class="edge">
<title>住信SBI銀行&#45;&gt;PiTaPa</title>
<path fill="none" stroke="black" stroke-width="2" d="M196.5,-1602C223.75,-1602 257.41,-1602 283.52,-1602"/>
<polygon fill="black" stroke="black" stroke-width="2" points="283.84,-1605.5 293.84,-1602 283.84,-1598.5 283.84,-1605.5"/>
</g>
<!-- 住信SBI銀行&#45;&gt;現金 -->
<g id="edge21" class="edge">
<title>住信SBI銀行&#45;&gt;現金</title>
<path fill="none" stroke="black" stroke-width="2" d="M177.94,-1620.06C189.6,-1626.75 203.22,-1634.12 216,-1640 295.56,-1676.61 400.03,-1684.45 454.46,-1685.9"/>
<polygon fill="black" stroke="black" stroke-width="2" points="454.58,-1689.4 464.65,-1686.11 454.73,-1682.4 454.58,-1689.4"/>
</g>
<!-- PayPay -->
<g id="node20" class="node">
<title>PayPay</title>
<polygon fill="none" stroke="black" points="526,-1643 458,-1643 458,-1607 526,-1607 526,-1643"/>
<text text-anchor="middle" x="492" y="-1621.3" font-family="Times,serif" font-size="14.00">PayPay</text>
</g>
<!-- 住信SBI銀行&#45;&gt;PayPay -->
<g id="edge26" class="edge">
<title>住信SBI銀行&#45;&gt;PayPay</title>
<path fill="none" stroke="black" stroke-width="2" d="M196.63,-1619.91C208.97,-1623.67 222.33,-1627.08 235,-1629 309.01,-1640.22 396.42,-1634.95 447.58,-1630.03"/>
<polygon fill="black" stroke="black" stroke-width="2" points="448.02,-1633.5 457.62,-1629.02 447.33,-1626.53 448.02,-1633.5"/>
</g>
<!-- 株主優待券 -->
<g id="node30" class="node">
<title>株主優待券</title>
<polygon fill="none" stroke="black" points="914,-1581 826,-1581 826,-1545 914,-1545 914,-1581"/>
<text text-anchor="middle" x="870" y="-1559.3" font-family="Times,serif" font-size="14.00">株主優待券</text>
</g>
<!-- 住信SBI銀行&#45;&gt;株主優待券 -->
<g id="edge28" class="edge">
<title>住信SBI銀行&#45;&gt;株主優待券</title>
<path fill="none" stroke="black" stroke-width="2" d="M174.57,-1583.87C191.56,-1576.51 214.23,-1569.35 235,-1566 447.94,-1531.65 706.31,-1542.85 815.83,-1554.03"/>
<polygon fill="black" stroke="black" stroke-width="2" points="815.65,-1557.53 825.96,-1555.11 816.39,-1550.57 815.65,-1557.53"/>
</g>
<!-- 家賃 -->
<g id="node31" class="node">
<title>家賃</title>
<polygon fill="none" stroke="black" points="1036,-1796 982,-1796 982,-1760 1036,-1760 1036,-1796"/>
<text text-anchor="middle" x="1009" y="-1774.3" font-family="Times,serif" font-size="14.00">家賃</text>
</g>
<!-- 住信SBI銀行&#45;&gt;家賃 -->
<g id="edge22" class="edge">
<title>住信SBI銀行&#45;&gt;家賃</title>
<path fill="none" stroke="black" stroke-width="2" d="M162.51,-1620.04C196.88,-1661.89 283.49,-1762 325.5,-1762 325.5,-1762 325.5,-1762 871,-1762 905.4,-1762 944.33,-1767.04 971.88,-1771.46"/>
<polygon fill="black" stroke="black" stroke-width="2" points="971.4,-1774.93 981.84,-1773.11 972.55,-1768.02 971.4,-1774.93"/>
</g>
<!-- Suica -->
<g id="node16" class="node">
<title>Suica</title>
<polygon fill="none" stroke="black" points="520,-1439 464,-1439 464,-1403 520,-1403 520,-1439"/>
<text text-anchor="middle" x="492" y="-1417.3" font-family="Times,serif" font-size="14.00">Suica</text>
</g>
<!-- ビックカメラSuicaカード&#45;&gt;Suica -->
<g id="edge15" class="edge">
<title>ビックカメラSuicaカード&#45;&gt;Suica</title>
<path fill="none" stroke="black" stroke-width="2" d="M409.73,-1403.11C425.16,-1406.5 440.58,-1409.9 453.77,-1412.8"/>
<polygon fill="black" stroke="black" stroke-width="2" points="453.31,-1416.28 463.82,-1415.02 454.81,-1409.45 453.31,-1416.28"/>
</g>
<!-- JREポイント -->
<g id="node24" class="node">
<title>JREポイント</title>
<polygon fill="none" stroke="black" points="745.5,-1480 645.5,-1480 645.5,-1444 745.5,-1444 745.5,-1480"/>
<text text-anchor="middle" x="695.5" y="-1458.3" font-family="Times,serif" font-size="14.00">JREポイント</text>
</g>
<!-- ビックカメラSuicaカード&#45;&gt;JREポイント -->
<g id="edge10" class="edge">
<title>ビックカメラSuicaカード&#45;&gt;JREポイント</title>
<path fill="none" stroke="black" d="M356.97,-1403.14C397.82,-1426.97 474.8,-1467.16 547,-1479 575.87,-1483.73 608.14,-1480.93 635.11,-1476.34"/>
<polygon fill="black" stroke="black" points="635.96,-1479.74 645.17,-1474.5 634.7,-1472.85 635.96,-1479.74"/>
<text text-anchor="middle" x="492" y="-1479.8" font-family="Times,serif" font-size="14.00">0.5%</text>
</g>
<!-- ビックポイント -->
<g id="node25" class="node">
<title>ビックポイント</title>
<polygon fill="none" stroke="black" points="753.5,-1388 637.5,-1388 637.5,-1352 753.5,-1352 753.5,-1388"/>
<text text-anchor="middle" x="695.5" y="-1366.3" font-family="Times,serif" font-size="14.00">ビックポイント</text>
</g>
<!-- ビックカメラSuicaカード&#45;&gt;ビックポイント -->
<g id="edge13" class="edge">
<title>ビックカメラSuicaカード&#45;&gt;ビックポイント</title>
<path fill="none" stroke="black" d="M418.04,-1380.63C430.46,-1380.07 443.04,-1379.51 455,-1379 513.1,-1376.54 579.13,-1374.09 627.13,-1372.36"/>
<polygon fill="black" stroke="black" points="627.52,-1375.85 637.39,-1371.99 627.27,-1368.85 627.52,-1375.85"/>
<text text-anchor="middle" x="492" y="-1382.8" font-family="Times,serif" font-size="14.00">0.5%</text>
</g>
<!-- ビックカメラ -->
<g id="node41" class="node">
<title>ビックカメラ</title>
<polygon fill="none" stroke="black" points="1059.5,-1358 958.5,-1358 958.5,-1322 1059.5,-1322 1059.5,-1358"/>
<text text-anchor="middle" x="1009" y="-1336.3" font-family="Times,serif" font-size="14.00">ビックカメラ</text>
</g>
<!-- ビックカメラSuicaカード&#45;&gt;ビックカメラ -->
<g id="edge11" class="edge">
<title>ビックカメラSuicaカード&#45;&gt;ビックカメラ</title>
<path fill="none" stroke="black" stroke-width="2" stroke-dasharray="5,2" d="M356.71,-1366.86C388.51,-1348.88 441.47,-1324 491,-1324 491,-1324 491,-1324 871,-1324 896.46,-1324 924.4,-1326.76 948.37,-1329.99"/>
<polygon fill="black" stroke="black" stroke-width="2" points="947.99,-1333.47 958.38,-1331.39 948.96,-1326.54 947.99,-1333.47"/>
</g>
<!-- EX予約 -->
<g id="node50" class="node">
<title>EX予約</title>
<polygon fill="none" stroke="black" points="1041.5,-1304 976.5,-1304 976.5,-1268 1041.5,-1268 1041.5,-1304"/>
<text text-anchor="middle" x="1009" y="-1282.3" font-family="Times,serif" font-size="14.00">EX予約</text>
</g>
<!-- ビックカメラSuicaカード&#45;&gt;EX予約 -->
<g id="edge18" class="edge">
<title>ビックカメラSuicaカード&#45;&gt;EX予約</title>
<path fill="none" stroke="black" stroke-width="2" stroke-dasharray="5,2" d="M352.37,-1366.84C394.03,-1338.26 481.56,-1286 564.5,-1286 564.5,-1286 564.5,-1286 871,-1286 902.92,-1286 939.01,-1286 966.14,-1286"/>
<polygon fill="black" stroke="black" stroke-width="2" points="966.44,-1289.5 976.44,-1286 966.44,-1282.5 966.44,-1289.5"/>
</g>
<!-- nanaco -->
<g id="node18" class="node">
<title>nanaco</title>
<polygon fill="none" stroke="black" points="525.5,-773 458.5,-773 458.5,-737 525.5,-737 525.5,-773"/>
<text text-anchor="middle" x="492" y="-751.3" font-family="Times,serif" font-size="14.00">nanaco</text>
</g>
<!-- リクルートカード&#45;&gt;nanaco -->
<g id="edge58" class="edge">
<title>リクルートカード&#45;&gt;nanaco</title>
<path fill="none" stroke="black" stroke-width="2" d="M390.71,-783.22C409.94,-777.8 430.62,-771.99 448.17,-767.05"/>
<polygon fill="black" stroke="black" stroke-width="2" points="449.43,-770.33 458.11,-764.25 447.54,-763.59 449.43,-770.33"/>
</g>
<!-- Edy -->
<g id="node19" class="node">
<title>Edy</title>
<polygon fill="none" stroke="black" points="519,-907 465,-907 465,-871 519,-871 519,-907"/>
<text text-anchor="middle" x="492" y="-885.3" font-family="Times,serif" font-size="14.00">Edy</text>
</g>
<!-- リクルートカード&#45;&gt;Edy -->
<g id="edge47" class="edge">
<title>リクルートカード&#45;&gt;Edy</title>
<path fill="none" stroke="black" stroke-width="2" d="M360.98,-819.02C388.6,-833.88 427.66,-854.91 455.75,-870.03"/>
<polygon fill="black" stroke="black" stroke-width="2" points="454.36,-873.25 464.82,-874.91 457.68,-867.09 454.36,-873.25"/>
</g>
<!-- リクルートカード&#45;&gt;Ponta -->
<g id="edge53" class="edge">
<title>リクルートカード&#45;&gt;Ponta</title>
<path fill="none" stroke="black" d="M328.74,-782.99C335.42,-689.53 369.35,-259.85 436,-147 458.61,-108.71 590.47,-85.9 656.65,-76.72"/>
<polygon fill="black" stroke="black" points="657.24,-80.17 666.68,-75.36 656.3,-73.23 657.24,-80.17"/>
<text text-anchor="middle" x="492" y="-133.8" font-family="Times,serif" font-size="14.00">1.2%</text>
</g>
<!-- ASAHIネット -->
<g id="node34" class="node">
<title>ASAHIネット</title>
<polygon fill="none" stroke="black" points="1062,-527 956,-527 956,-491 1062,-491 1062,-527"/>
<text text-anchor="middle" x="1009" y="-505.3" font-family="Times,serif" font-size="14.00">ASAHIネット</text>
</g>
<!-- リクルートカード&#45;&gt;ASAHIネット -->
<g id="edge31" class="edge">
<title>リクルートカード&#45;&gt;ASAHIネット</title>
<path fill="none" stroke="black" stroke-width="2" d="M328.95,-782.73C335.11,-718.81 364.92,-509 491,-509 491,-509 491,-509 871,-509 895.45,-509 922.35,-509 945.79,-509"/>
<polygon fill="black" stroke="black" stroke-width="2" points="945.96,-512.5 955.96,-509 945.96,-505.5 945.96,-512.5"/>
</g>
<!-- 楽天モバイル -->
<g id="node35" class="node">
<title>楽天モバイル</title>
<polygon fill="none" stroke="black" points="1060,-581 958,-581 958,-545 1060,-545 1060,-581"/>
<text text-anchor="middle" x="1009" y="-559.3" font-family="Times,serif" font-size="14.00">楽天モバイル</text>
</g>
<!-- リクルートカード&#45;&gt;楽天モバイル -->
<g id="edge43" class="edge">
<title>リクルートカード&#45;&gt;楽天モバイル</title>
<path fill="none" stroke="black" stroke-width="2" d="M340.95,-782.69C376.9,-735.47 480.77,-610.11 602,-564 717.94,-519.91 866.32,-535.96 947.77,-550.31"/>
<polygon fill="black" stroke="black" stroke-width="2" points="947.38,-553.79 957.84,-552.13 948.63,-546.9 947.38,-553.79"/>
</g>
<!-- 楽天でんき -->
<g id="node36" class="node">
<title>楽天でんき</title>
<polygon fill="none" stroke="black" points="1053,-812 965,-812 965,-776 1053,-776 1053,-812"/>
<text text-anchor="middle" x="1009" y="-790.3" font-family="Times,serif" font-size="14.00">楽天でんき</text>
</g>
<!-- リクルートカード&#45;&gt;楽天でんき -->
<g id="edge38" class="edge">
<title>リクルートカード&#45;&gt;楽天でんき</title>
<path fill="none" stroke="black" stroke-width="2" d="M390.78,-801C421.1,-801 457.93,-801 491,-801 491,-801 491,-801 871,-801 898.63,-801 929.35,-799.56 954.69,-797.99"/>
<polygon fill="black" stroke="black" stroke-width="2" points="955.08,-801.47 964.84,-797.34 954.63,-794.49 955.08,-801.47"/>
</g>
<!-- 関西電力 -->
<g id="node37" class="node">
<title>関西電力</title>
<polygon fill="none" stroke="black" points="1046,-319 972,-319 972,-283 1046,-283 1046,-319"/>
<text text-anchor="middle" x="1009" y="-297.3" font-family="Times,serif" font-size="14.00">関西電力</text>
</g>
<!-- リクルートカード&#45;&gt;関西電力 -->
<g id="edge35" class="edge">
<title>リクルートカード&#45;&gt;関西電力</title>
<path fill="none" stroke="black" stroke-width="2" d="M329.27,-782.92C338.62,-692.43 385.84,-293 491,-293 491,-293 491,-293 871,-293 901.29,-293 935.28,-294.97 961.83,-296.96"/>
<polygon fill="black" stroke="black" stroke-width="2" points="961.74,-300.46 971.98,-297.75 962.28,-293.48 961.74,-300.46"/>
</g>
<!-- 楽天損保 -->
<g id="node38" class="node">
<title>楽天損保</title>
<polygon fill="none" stroke="black" points="1046,-1190 972,-1190 972,-1154 1046,-1154 1046,-1190"/>
<text text-anchor="middle" x="1009" y="-1168.3" font-family="Times,serif" font-size="14.00">楽天損保</text>
</g>
<!-- リクルートカード&#45;&gt;楽天損保 -->
<g id="edge40" class="edge">
<title>リクルートカード&#45;&gt;楽天損保</title>
<path fill="none" stroke="black" stroke-width="2" d="M327.42,-819.09C328.15,-891.43 341.04,-1156 491,-1156 491,-1156 491,-1156 871,-1156 901.34,-1156 935.2,-1159.92 961.67,-1163.88"/>
<polygon fill="black" stroke="black" stroke-width="2" points="961.37,-1167.37 971.79,-1165.45 962.44,-1160.46 961.37,-1167.37"/>
</g>
<!-- 郵便局 -->
<g id="node39" class="node">
<title>郵便局</title>
<polygon fill="none" stroke="black" points="1038.5,-1136 979.5,-1136 979.5,-1100 1038.5,-1100 1038.5,-1136"/>
<text text-anchor="middle" x="1009" y="-1114.3" font-family="Times,serif" font-size="14.00">郵便局</text>
</g>
<!-- リクルートカード&#45;&gt;郵便局 -->
<g id="edge63" class="edge">
<title>リクルートカード&#45;&gt;郵便局</title>
<path fill="none" stroke="black" stroke-width="2" d="M328.29,-819.41C332.25,-887.07 355.7,-1118 491,-1118 491,-1118 491,-1118 871,-1118 904.07,-1118 941.63,-1118 969.05,-1118"/>
<polygon fill="black" stroke="black" stroke-width="2" points="969.4,-1121.5 979.4,-1118 969.4,-1114.5 969.4,-1121.5"/>
</g>
<!-- アイハート -->
<g id="node40" class="node">
<title>アイハート</title>
<polygon fill="none" stroke="black" points="1052,-1082 966,-1082 966,-1046 1052,-1046 1052,-1082"/>
<text text-anchor="middle" x="1009" y="-1060.3" font-family="Times,serif" font-size="14.00">アイハート</text>
</g>
<!-- リクルートカード&#45;&gt;アイハート -->
<g id="edge34" class="edge">
<title>リクルートカード&#45;&gt;アイハート</title>
<path fill="none" stroke="black" stroke-width="2" d="M329.35,-819.31C336.71,-881.38 369.73,-1080 491,-1080 491,-1080 491,-1080 871,-1080 899.1,-1080 930.22,-1076.64 955.69,-1073"/>
<polygon fill="black" stroke="black" stroke-width="2" points="956.5,-1076.42 965.87,-1071.48 955.47,-1069.49 956.5,-1076.42"/>
</g>
<!-- Amazon -->
<g id="node49" class="node">
<title>Amazon</title>
<polygon fill="none" stroke="black" points="1045.5,-265 972.5,-265 972.5,-229 1045.5,-229 1045.5,-265"/>
<text text-anchor="middle" x="1009" y="-243.3" font-family="Times,serif" font-size="14.00">Amazon</text>
</g>
<!-- リクルートカード&#45;&gt;Amazon -->
<g id="edge32" class="edge">
<title>リクルートカード&#45;&gt;Amazon</title>
<path fill="none" stroke="black" stroke-width="2" d="M328.89,-782.83C336.63,-688.09 378.2,-255 491,-255 491,-255 491,-255 871,-255 901.39,-255 935.51,-253.01 962.1,-251.02"/>
<polygon fill="black" stroke="black" stroke-width="2" points="962.57,-254.49 972.26,-250.23 962.02,-247.52 962.57,-254.49"/>
</g>
<!-- じゃらん -->
<g id="node51" class="node">
<title>じゃらん</title>
<polygon fill="none" stroke="black" points="1046,-179 972,-179 972,-143 1046,-143 1046,-179"/>
<text text-anchor="middle" x="1009" y="-157.3" font-family="Times,serif" font-size="14.00">じゃらん</text>
</g>
<!-- リクルートカード&#45;&gt;じゃらん -->
<g id="edge33" class="edge">
<title>リクルートカード&#45;&gt;じゃらん</title>
<path fill="none" stroke="black" stroke-width="2" d="M328.12,-782.88C332.18,-678.73 358.98,-161 491,-161 491,-161 491,-161 871,-161 901.24,-161 935.23,-161 961.79,-161"/>
<polygon fill="black" stroke="black" stroke-width="2" points="961.94,-164.5 971.94,-161 961.94,-157.5 961.94,-164.5"/>
</g>
<!-- メルカリ -->
<g id="node52" class="node">
<title>メルカリ</title>
<polygon fill="none" stroke="black" points="1046,-1247 972,-1247 972,-1211 1046,-1211 1046,-1247"/>
<text text-anchor="middle" x="1009" y="-1225.3" font-family="Times,serif" font-size="14.00">メルカリ</text>
</g>
<!-- リクルートカード&#45;&gt;メルカリ -->
<g id="edge71" class="edge">
<title>リクルートカード&#45;&gt;メルカリ</title>
<path fill="none" stroke="black" stroke-width="2" d="M328.87,-819.08C333.87,-874.63 355.35,-1045.72 436,-1156 453.54,-1179.98 461.29,-1194 491,-1194 491,-1194 491,-1194 871,-1194 902.02,-1194 935.79,-1202.53 962.05,-1211.16"/>
<polygon fill="black" stroke="black" stroke-width="2" points="961.12,-1214.55 971.72,-1214.46 963.38,-1207.92 961.12,-1214.55"/>
</g>
<!-- 楽天市場 -->
<g id="node53" class="node">
<title>楽天市場</title>
<polygon fill="none" stroke="black" points="1046,-920 972,-920 972,-884 1046,-884 1046,-920"/>
<text text-anchor="middle" x="1009" y="-898.3" font-family="Times,serif" font-size="14.00">楽天市場</text>
</g>
<!-- リクルートカード&#45;&gt;楽天市場 -->
<g id="edge41" class="edge">
<title>リクルートカード&#45;&gt;楽天市場</title>
<path fill="none" stroke="black" stroke-width="2" d="M330.67,-819.11C341.63,-875.16 383.31,-1042 491,-1042 491,-1042 491,-1042 871,-1042 932.53,-1042 903.88,-968.57 951,-929 954.68,-925.91 958.78,-923.08 963.05,-920.52"/>
<polygon fill="black" stroke="black" stroke-width="2" points="964.86,-923.51 971.94,-915.63 961.49,-917.38 964.86,-923.51"/>
</g>
<!-- Suica&#45;&gt;JREポイント -->
<g id="edge19" class="edge">
<title>Suica&#45;&gt;JREポイント</title>
<path fill="none" stroke="black" d="M519.1,-1439.15C527.62,-1444.19 537.38,-1449.08 547,-1452 575.2,-1460.55 607.78,-1463.44 635.14,-1464.03"/>
<polygon fill="black" stroke="black" points="635.31,-1467.54 645.35,-1464.15 635.39,-1460.54 635.31,-1467.54"/>
<text text-anchor="middle" x="565.5" y="-1463.8" font-family="Times,serif" font-size="14.00">1.5%</text>
</g>
<!-- 電車 -->
<g id="node33" class="node">
<title>電車</title>
<polygon fill="none" stroke="black" points="1036,-1553 982,-1553 982,-1517 1036,-1517 1036,-1553"/>
<text text-anchor="middle" x="1009" y="-1531.3" font-family="Times,serif" font-size="14.00">電車</text>
</g>
<!-- Suica&#45;&gt;電車 -->
<g id="edge16" class="edge">
<title>Suica&#45;&gt;電車</title>
<path fill="none" stroke="black" stroke-width="2" d="M519.63,-1439.01C522.97,-1441.82 526.2,-1444.85 529,-1448 539.59,-1459.91 533.96,-1469.84 547,-1479 567.33,-1493.28 577.42,-1485.38 602,-1489 737.84,-1509.02 900.37,-1525.06 971.57,-1531.7"/>
<polygon fill="black" stroke="black" stroke-width="2" points="971.52,-1535.21 981.8,-1532.65 972.16,-1528.24 971.52,-1535.21"/>
</g>
<!-- 松屋 -->
<g id="node45" class="node">
<title>松屋</title>
<polygon fill="none" stroke="black" points="1036,-1469 982,-1469 982,-1433 1036,-1433 1036,-1469"/>
<text text-anchor="middle" x="1009" y="-1447.3" font-family="Times,serif" font-size="14.00">松屋</text>
</g>
<!-- Suica&#45;&gt;松屋 -->
<g id="edge17" class="edge">
<title>Suica&#45;&gt;松屋</title>
<path fill="none" stroke="black" stroke-width="2" d="M520.35,-1422.06C572.59,-1424.13 690.14,-1429.05 789,-1435 853.33,-1438.87 928.21,-1444.61 971.64,-1448.06"/>
<polygon fill="black" stroke="black" stroke-width="2" points="971.47,-1451.55 981.72,-1448.86 972.03,-1444.58 971.47,-1451.55"/>
</g>
<!-- 飲食店 -->
<g id="node43" class="node">
<title>飲食店</title>
<polygon fill="none" stroke="black" points="1038.5,-1631 979.5,-1631 979.5,-1595 1038.5,-1595 1038.5,-1631"/>
<text text-anchor="middle" x="1009" y="-1609.3" font-family="Times,serif" font-size="14.00">飲食店</text>
</g>
<!-- 現金&#45;&gt;飲食店 -->
<g id="edge65" class="edge">
<title>現金&#45;&gt;飲食店</title>
<path fill="none" stroke="black" stroke-width="2" d="M519.23,-1682.89C601.24,-1673.11 852.14,-1642.84 933,-1629 944.88,-1626.97 957.73,-1624.37 969.38,-1621.87"/>
<polygon fill="black" stroke="black" stroke-width="2" points="970.24,-1625.26 979.26,-1619.7 968.74,-1618.42 970.24,-1625.26"/>
</g>
<!-- 理髪店 -->
<g id="node47" class="node">
<title>理髪店</title>
<polygon fill="none" stroke="black" points="1038.5,-1688 979.5,-1688 979.5,-1652 1038.5,-1652 1038.5,-1688"/>
<text text-anchor="middle" x="1009" y="-1666.3" font-family="Times,serif" font-size="14.00">理髪店</text>
</g>
<!-- 現金&#45;&gt;理髪店 -->
<g id="edge66" class="edge">
<title>現金&#45;&gt;理髪店</title>
<path fill="none" stroke="black" stroke-width="2" d="M519.25,-1685.18C603.69,-1682.56 868.7,-1674.33 969.01,-1671.21"/>
<polygon fill="black" stroke="black" stroke-width="2" points="969.41,-1674.7 979.3,-1670.89 969.19,-1667.7 969.41,-1674.7"/>
</g>
<!-- クリーニング -->
<g id="node48" class="node">
<title>クリーニング</title>
<polygon fill="none" stroke="black" points="1059.5,-1742 958.5,-1742 958.5,-1706 1059.5,-1706 1059.5,-1742"/>
<text text-anchor="middle" x="1009" y="-1720.3" font-family="Times,serif" font-size="14.00">クリーニング</text>
</g>
<!-- 現金&#45;&gt;クリーニング -->
<g id="edge67" class="edge">
<title>現金&#45;&gt;クリーニング</title>
<path fill="none" stroke="black" stroke-width="2" d="M519.21,-1692.72C527.99,-1694.73 537.87,-1696.74 547,-1698 690.02,-1717.79 860,-1722.6 948.2,-1723.72"/>
<polygon fill="black" stroke="black" stroke-width="2" points="948.24,-1727.22 958.28,-1723.83 948.32,-1720.22 948.24,-1727.22"/>
</g>
<!-- nanacoポイント -->
<g id="node27" class="node">
<title>nanacoポイント</title>
<polygon fill="none" stroke="black" points="757.5,-649 633.5,-649 633.5,-613 757.5,-613 757.5,-649"/>
<text text-anchor="middle" x="695.5" y="-627.3" font-family="Times,serif" font-size="14.00">nanacoポイント</text>
</g>
<!-- nanaco&#45;&gt;nanacoポイント -->
<g id="edge60" class="edge">
<title>nanaco&#45;&gt;nanacoポイント</title>
<path fill="none" stroke="black" d="M508.54,-736.96C528.2,-715.21 564.1,-678.98 602,-658 608.79,-654.24 616.16,-650.96 623.68,-648.1"/>
<polygon fill="black" stroke="black" points="624.98,-651.35 633.24,-644.7 622.64,-644.75 624.98,-651.35"/>
<text text-anchor="middle" x="565.5" y="-701.8" font-family="Times,serif" font-size="14.00">1%</text>
</g>
<!-- セブンイレブン -->
<g id="node32" class="node">
<title>セブンイレブン</title>
<polygon fill="none" stroke="black" points="1066,-866 952,-866 952,-830 1066,-830 1066,-866"/>
<text text-anchor="middle" x="1009" y="-844.3" font-family="Times,serif" font-size="14.00">セブンイレブン</text>
</g>
<!-- nanaco&#45;&gt;セブンイレブン -->
<g id="edge59" class="edge">
<title>nanaco&#45;&gt;セブンイレブン</title>
<path fill="none" stroke="black" stroke-width="2" d="M525.95,-761.59C583.08,-772.95 704.27,-796.75 807,-815 851.84,-822.96 902.44,-831.27 941.65,-837.55"/>
<polygon fill="black" stroke="black" stroke-width="2" points="941.19,-841.02 951.62,-839.15 942.29,-834.11 941.19,-841.02"/>
</g>
<!-- Edy&#45;&gt;楽天ポイント -->
<g id="edge52" class="edge">
<title>Edy&#45;&gt;楽天ポイント</title>
<path fill="none" stroke="black" d="M510.88,-870.9C546.88,-834.45 628.16,-752.16 669.44,-710.37"/>
<polygon fill="black" stroke="black" points="672.12,-712.64 676.66,-703.06 667.14,-707.72 672.12,-712.64"/>
<text text-anchor="middle" x="565.5" y="-838.8" font-family="Times,serif" font-size="14.00">0.5%</text>
</g>
<!-- Edy&#45;&gt;セブンイレブン -->
<g id="edge64" class="edge">
<title>Edy&#45;&gt;セブンイレブン</title>
<path fill="none" stroke="black" stroke-width="2" d="M519.25,-886.91C596.85,-880.73 826.9,-862.42 941.53,-853.29"/>
<polygon fill="black" stroke="black" stroke-width="2" points="941.9,-856.77 951.59,-852.49 941.34,-849.8 941.9,-856.77"/>
</g>
<!-- ヨドバシカメラ -->
<g id="node42" class="node">
<title>ヨドバシカメラ</title>
<polygon fill="none" stroke="black" points="1067,-473 951,-473 951,-437 1067,-437 1067,-473"/>
<text text-anchor="middle" x="1009" y="-451.3" font-family="Times,serif" font-size="14.00">ヨドバシカメラ</text>
</g>
<!-- Edy&#45;&gt;ヨドバシカメラ -->
<g id="edge48" class="edge">
<title>Edy&#45;&gt;ヨドバシカメラ</title>
<path fill="none" stroke="black" stroke-width="2" d="M500.21,-870.72C508.27,-849.64 521.22,-813.79 529,-782 541.29,-731.75 525.13,-713.88 547,-667 562.71,-633.32 569.92,-622.77 602,-604 682.72,-556.76 720.31,-593.53 808,-561 876.08,-535.74 886.38,-515.11 951,-482 953.87,-480.53 956.84,-479.03 959.85,-477.55"/>
<polygon fill="black" stroke="black" stroke-width="2" points="961.45,-480.66 968.9,-473.12 958.38,-474.37 961.45,-480.66"/>
</g>
<!-- 業務スーパー -->
<g id="node44" class="node">
<title>業務スーパー</title>
<polygon fill="none" stroke="black" points="1060,-1028 958,-1028 958,-992 1060,-992 1060,-1028"/>
<text text-anchor="middle" x="1009" y="-1006.3" font-family="Times,serif" font-size="14.00">業務スーパー</text>
</g>
<!-- Edy&#45;&gt;業務スーパー -->
<g id="edge62" class="edge">
<title>Edy&#45;&gt;業務スーパー</title>
<path fill="none" stroke="black" stroke-width="2" d="M519.05,-902.4C527.82,-906.68 537.73,-911.27 547,-915 570.86,-924.6 577.09,-926.59 602,-933 723.18,-964.18 867.7,-988.62 947.51,-1001.03"/>
<polygon fill="black" stroke="black" stroke-width="2" points="947.44,-1004.56 957.86,-1002.62 948.51,-997.64 947.44,-1004.56"/>
</g>
<!-- 吉野家 -->
<g id="node46" class="node">
<title>吉野家</title>
<polygon fill="none" stroke="black" points="1038.5,-974 979.5,-974 979.5,-938 1038.5,-938 1038.5,-974"/>
<text text-anchor="middle" x="1009" y="-952.3" font-family="Times,serif" font-size="14.00">吉野家</text>
</g>
<!-- Edy&#45;&gt;吉野家 -->
<g id="edge51" class="edge">
<title>Edy&#45;&gt;吉野家</title>
<path fill="none" stroke="black" stroke-width="2" d="M519.06,-893.56C527.92,-895.05 537.88,-896.67 547,-898 703.21,-920.84 890.01,-942.65 969.33,-951.66"/>
<polygon fill="black" stroke="black" stroke-width="2" points="969.02,-955.15 979.35,-952.8 969.81,-948.2 969.02,-955.15"/>
</g>
<!-- PayPay&#45;&gt;飲食店 -->
<g id="edge27" class="edge">
<title>PayPay&#45;&gt;飲食店</title>
<path fill="none" stroke="black" stroke-width="2" d="M526.39,-1624.22C617.79,-1622.09 871.71,-1616.18 969.2,-1613.9"/>
<polygon fill="black" stroke="black" stroke-width="2" points="969.3,-1617.4 979.21,-1613.67 969.14,-1610.4 969.3,-1617.4"/>
</g>
<!-- メルペイ&#45;&gt;三井住友銀行 -->
<g id="edge70" class="edge">
<title>メルペイ&#45;&gt;三井住友銀行</title>
<path fill="none" stroke="black" stroke-width="2" d="M455,-1251.78C391.29,-1273.36 262.77,-1320.49 235,-1358 162.67,-1455.7 243.25,-1516.17 198,-1629 191.78,-1644.51 181.32,-1659.76 171.57,-1671.97"/>
<polygon fill="black" stroke="black" stroke-width="2" points="168.68,-1669.96 164.99,-1679.9 174.07,-1674.43 168.68,-1669.96"/>
</g>
<!-- メルペイ&#45;&gt;メルカリ -->
<g id="edge69" class="edge">
<title>メルペイ&#45;&gt;メルカリ</title>
<path fill="none" stroke="black" stroke-width="2" d="M529.21,-1239.23C620.54,-1237.28 860.17,-1232.16 961.59,-1229.99"/>
<polygon fill="black" stroke="black" stroke-width="2" points="961.9,-1233.49 971.83,-1229.77 961.75,-1226.49 961.9,-1233.49"/>
</g>
<!-- Ponta&#45;&gt;じゃらん -->
<g id="edge54" class="edge">
<title>Ponta&#45;&gt;じゃらん</title>
<path fill="none" stroke="black" d="M724.16,-69.27C770.65,-66.02 865.92,-65.22 933,-104 949.06,-113.29 965.62,-125.54 979.08,-136.3"/>
<polygon fill="black" stroke="black" points="977.06,-139.17 987.02,-142.77 981.48,-133.74 977.06,-139.17"/>
</g>
<!-- 楽天ポイント&#45;&gt;楽天モバイル -->
<g id="edge45" class="edge">
<title>楽天ポイント&#45;&gt;楽天モバイル</title>
<path fill="none" stroke="black" d="M746.73,-671.38C760.52,-667.35 775.42,-662.75 789,-658 793.08,-656.57 929.05,-600.76 933,-599 942.6,-594.73 952.8,-589.98 962.49,-585.37"/>
<polygon fill="black" stroke="black" points="964.08,-588.49 971.58,-581.01 961.05,-582.18 964.08,-588.49"/>
</g>
<!-- 楽天ポイント&#45;&gt;楽天でんき -->
<g id="edge46" class="edge">
<title>楽天ポイント&#45;&gt;楽天でんき</title>
<path fill="none" stroke="black" d="M728.11,-703.04C753.82,-717.11 791.38,-736.33 826,-749 868.33,-764.49 918.12,-776.38 954.91,-784.05"/>
<polygon fill="black" stroke="black" points="954.43,-787.52 964.93,-786.1 955.83,-780.66 954.43,-787.52"/>
</g>
<!-- JREポイント&#45;&gt;Suica -->
<g id="edge20" class="edge">
<title>JREポイント&#45;&gt;Suica</title>
<path fill="none" stroke="black" d="M645.37,-1452C609.84,-1444.77 562.56,-1435.15 530.14,-1428.56"/>
<polygon fill="black" stroke="black" points="530.67,-1425.09 520.18,-1426.53 529.28,-1431.95 530.67,-1425.09"/>
</g>
<!-- ビックポイント&#45;&gt;ビックカメラ -->
<g id="edge14" class="edge">
<title>ビックポイント&#45;&gt;ビックカメラ</title>
<path fill="none" stroke="black" d="M753.81,-1378.62C797.98,-1383.63 860.36,-1387.18 914,-1377 930.11,-1373.94 947,-1368.18 961.94,-1362.1"/>
<polygon fill="black" stroke="black" points="963.6,-1365.2 971.45,-1358.08 960.88,-1358.75 963.6,-1365.2"/>
</g>
<!-- Amazonポイント -->
<g id="node26" class="node">
<title>Amazonポイント</title>
<polygon fill="none" stroke="black" points="760.5,-226 630.5,-226 630.5,-190 760.5,-190 760.5,-226"/>
<text text-anchor="middle" x="695.5" y="-204.3" font-family="Times,serif" font-size="14.00">Amazonポイント</text>
</g>
<!-- Amazonポイント&#45;&gt;Amazon -->
<g id="edge57" class="edge">
<title>Amazonポイント&#45;&gt;Amazon</title>
<path fill="none" stroke="black" d="M760.67,-210.45C820.77,-216.23 909.11,-227.5 962.34,-236.34"/>
<polygon fill="black" stroke="black" points="962.05,-239.84 972.5,-238.07 963.23,-232.94 962.05,-239.84"/>
</g>
<!-- nanacoポイント&#45;&gt;nanaco -->
<g id="edge61" class="edge">
<title>nanacoポイント&#45;&gt;nanaco</title>
<path fill="none" stroke="black" d="M633.33,-635.77C604.9,-640.49 571.95,-649.79 547,-668 526.61,-682.88 512.22,-708.03 503.46,-727.47"/>
<polygon fill="black" stroke="black" points="500.2,-726.18 499.49,-736.75 506.64,-728.93 500.2,-726.18"/>
</g>
<!-- ヨドバシゴールドポイント -->
<g id="node28" class="node">
<title>ヨドバシゴールドポイント</title>
<polygon fill="none" stroke="black" points="789,-460 602,-460 602,-424 789,-424 789,-460"/>
<text text-anchor="middle" x="695.5" y="-438.3" font-family="Times,serif" font-size="14.00">ヨドバシゴールドポイント</text>
</g>
<!-- ヨドバシゴールドポイント&#45;&gt;ヨドバシカメラ -->
<g id="edge50" class="edge">
<title>ヨドバシゴールドポイント&#45;&gt;ヨドバシカメラ</title>
<path fill="none" stroke="black" d="M789.18,-440.66C827.81,-440.67 873.11,-441.42 914,-444 922.7,-444.55 931.83,-445.34 940.83,-446.25"/>
<polygon fill="black" stroke="black" points="940.61,-449.75 950.92,-447.33 941.35,-442.79 940.61,-449.75"/>
</g>
<!-- はぴeポイント -->
<g id="node29" class="node">
<title>はぴeポイント</title>
<polygon fill="none" stroke="black" points="750.5,-378 640.5,-378 640.5,-342 750.5,-342 750.5,-378"/>
<text text-anchor="middle" x="695.5" y="-356.3" font-family="Times,serif" font-size="14.00">はぴeポイント</text>
</g>
<!-- はぴeポイント&#45;&gt;関西電力 -->
<g id="edge37" class="edge">
<title>はぴeポイント&#45;&gt;関西電力</title>
<path fill="none" stroke="black" d="M750.77,-366.07C795.44,-369.35 859.98,-370.08 914,-355 936.07,-348.84 958.42,-336.32 975.78,-324.89"/>
<polygon fill="black" stroke="black" points="978.07,-327.56 984.38,-319.05 974.14,-321.77 978.07,-327.56"/>
</g>
<!-- 株主優待券&#45;&gt;住信SBI銀行 -->
<g id="edge30" class="edge">
<title>株主優待券&#45;&gt;住信SBI銀行</title>
<path fill="none" stroke="black" d="M825.96,-1564.24C723.02,-1561.62 454.81,-1548.54 235,-1584 225.61,-1585.51 215.84,-1587.81 206.37,-1590.31"/>
<polygon fill="black" stroke="black" points="205.37,-1586.96 196.65,-1592.97 207.22,-1593.71 205.37,-1586.96"/>
</g>
<!-- 株主優待券&#45;&gt;電車 -->
<g id="edge29" class="edge">
<title>株主優待券&#45;&gt;電車</title>
<path fill="none" stroke="black" stroke-width="2" d="M914.35,-1554.14C932.83,-1550.36 954.14,-1546.01 971.77,-1542.41"/>
<polygon fill="black" stroke="black" stroke-width="2" points="972.57,-1545.81 981.67,-1540.38 971.17,-1538.96 972.57,-1545.81"/>
</g>
<!-- 楽天モバイル&#45;&gt;楽天ポイント -->
<g id="edge44" class="edge">
<title>楽天モバイル&#45;&gt;楽天ポイント</title>
<path fill="none" stroke="black" d="M994.66,-581.26C981.1,-598.41 958.51,-623.41 933,-637 877.82,-666.39 806.62,-677.83 756.82,-682.25"/>
<polygon fill="black" stroke="black" points="756.52,-678.77 746.84,-683.07 757.09,-685.74 756.52,-678.77"/>
<text text-anchor="middle" x="870" y="-676.8" font-family="Times,serif" font-size="14.00">0.5%</text>
</g>
<!-- 楽天でんき&#45;&gt;楽天ポイント -->
<g id="edge39" class="edge">
<title>楽天でんき&#45;&gt;楽天ポイント</title>
<path fill="none" stroke="black" d="M984.54,-775.75C966.26,-762.37 939.73,-744.72 914,-734 863.12,-712.8 801.54,-700.02 756.91,-692.86"/>
<polygon fill="black" stroke="black" points="757.23,-689.36 746.81,-691.28 756.15,-696.28 757.23,-689.36"/>
<text text-anchor="middle" x="870" y="-737.8" font-family="Times,serif" font-size="14.00">0.5%</text>
</g>
<!-- 関西電力&#45;&gt;はぴeポイント -->
<g id="edge36" class="edge">
<title>関西電力&#45;&gt;はぴeポイント</title>
<path fill="none" stroke="black" d="M971.85,-307.85C920.22,-317.63 824.57,-335.74 760.72,-347.84"/>
<polygon fill="black" stroke="black" points="759.93,-344.42 750.76,-349.72 761.24,-351.3 759.93,-344.42"/>
<text text-anchor="middle" x="870" y="-339.8" font-family="Times,serif" font-size="14.00">0.5%</text>
</g>
<!-- ビックカメラ&#45;&gt;ビックポイント -->
<g id="edge12" class="edge">
<title>ビックカメラ&#45;&gt;ビックポイント</title>
<path fill="none" stroke="black" stroke-dasharray="5,2" d="M958.42,-1344.78C905.83,-1349.84 822.42,-1357.87 763.9,-1363.51"/>
<polygon fill="black" stroke="black" points="763.25,-1360.05 753.63,-1364.5 763.92,-1367.02 763.25,-1360.05"/>
<text text-anchor="middle" x="870" y="-1361.8" font-family="Times,serif" font-size="14.00">9.5%</text>
</g>
<!-- ヨドバシカメラ&#45;&gt;ヨドバシゴールドポイント -->
<g id="edge49" class="edge">
<title>ヨドバシカメラ&#45;&gt;ヨドバシゴールドポイント</title>
<path fill="none" stroke="black" d="M950.96,-452.62C908.66,-450.85 849.85,-448.4 799.41,-446.29"/>
<polygon fill="black" stroke="black" points="799.25,-442.79 789.12,-445.87 798.96,-449.78 799.25,-442.79"/>
<text text-anchor="middle" x="870" y="-455.8" font-family="Times,serif" font-size="14.00">10%</text>
</g>
<!-- Amazon&#45;&gt;Amazonポイント -->
<g id="edge56" class="edge">
<title>Amazon&#45;&gt;Amazonポイント</title>
<path fill="none" stroke="black" d="M972.5,-247.04C923.63,-243.38 834.44,-232.67 770.67,-223.13"/>
<polygon fill="black" stroke="black" points="771.08,-219.66 760.67,-221.62 770.03,-226.58 771.08,-219.66"/>
</g>
<!-- じゃらん&#45;&gt;Ponta -->
<g id="edge55" class="edge">
<title>じゃらん&#45;&gt;Ponta</title>
<path fill="none" stroke="black" d="M971.92,-149.59C954.46,-144.14 933.18,-137.6 914,-132 851,-113.6 777.28,-93.58 733.88,-81.94"/>
<polygon fill="black" stroke="black" points="734.61,-78.52 724.04,-79.31 732.8,-85.28 734.61,-78.52"/>
<text text-anchor="middle" x="870" y="-135.8" font-family="Times,serif" font-size="14.00">2%</text>
</g>
<!-- 楽天市場&#45;&gt;楽天ポイント -->
<g id="edge42" class="edge">
<title>楽天市場&#45;&gt;楽天ポイント</title>
<path fill="none" stroke="black" d="M971.99,-901.02C958.93,-899.58 944.35,-896.68 932,-891 838.62,-848.04 754.62,-756.04 717.15,-710.97"/>
<polygon fill="black" stroke="black" points="719.76,-708.63 710.7,-703.12 714.35,-713.07 719.76,-708.63"/>
<text text-anchor="middle" x="870" y="-884.8" font-family="Times,serif" font-size="14.00">3%</text>
</g>
</g>
</svg>
