<?xml version="1.0" encoding="UTF-8" standalone="no"?>
<!DOCTYPE svg PUBLIC "-//W3C//DTD SVG 1.1//EN"
 "http://www.w3.org/Graphics/SVG/1.1/DTD/svg11.dtd">
<!-- Generated by graphviz version 2.42.4 (0)
 -->
<!-- Title: MoneyFlow Pages: 1 -->
<svg width="1075pt" height="1788pt"
 viewBox="0.00 0.00 1075.00 1788.00" xmlns="http://www.w3.org/2000/svg" xmlns:xlink="http://www.w3.org/1999/xlink">
<g id="graph0" class="graph" transform="scale(1 1) rotate(0) translate(4 1784)">
<title>MoneyFlow</title>
<polygon fill="white" stroke="transparent" points="-4,4 -4,-1784 1071,-1784 1071,4 -4,4"/>
<!-- 収入 -->
<g id="node1" class="node">
<title>収入</title>
<text text-anchor="middle" x="29.5" y="-14.3" font-family="Times,serif" font-size="14.00">収入</text>
</g>
<!-- 銀行口座 -->
<g id="node2" class="node">
<title>銀行口座</title>
<text text-anchor="middle" x="147" y="-14.3" font-family="Times,serif" font-size="14.00">銀行口座</text>
</g>
<!-- 収入&#45;&gt;銀行口座 -->
<g id="edge1" class="edge">
<title>収入&#45;&gt;銀行口座</title>
<path fill="none" stroke="black" d="M56.71,-18C72.42,-18 92.61,-18 109.83,-18"/>
</g>
<!-- クレジットカード -->
<g id="node3" class="node">
<title>クレジットカード</title>
<text text-anchor="middle" x="326.5" y="-14.3" font-family="Times,serif" font-size="14.00">クレジットカード</text>
</g>
<!-- 銀行口座&#45;&gt;クレジットカード -->
<g id="edge2" class="edge">
<title>銀行口座&#45;&gt;クレジットカード</title>
<path fill="none" stroke="black" d="M184.35,-18C206.66,-18 235.86,-18 261.91,-18"/>
</g>
<!-- マネー -->
<g id="node4" class="node">
<title>マネー</title>
<text text-anchor="middle" x="492" y="-14.3" font-family="Times,serif" font-size="14.00">マネー</text>
</g>
<!-- クレジットカード&#45;&gt;マネー -->
<g id="edge3" class="edge">
<title>クレジットカード&#45;&gt;マネー</title>
<path fill="none" stroke="black" d="M391.18,-18C415.75,-18 442.61,-18 462.27,-18"/>
</g>
<!-- ポイント -->
<g id="node5" class="node">
<title>ポイント</title>
<text text-anchor="middle" x="695.5" y="-14.3" font-family="Times,serif" font-size="14.00">ポイント</text>
</g>
<!-- マネー&#45;&gt;ポイント -->
<g id="edge4" class="edge">
<title>マネー&#45;&gt;ポイント</title>
<path fill="none" stroke="black" d="M521.87,-18C557.78,-18 619.11,-18 658.18,-18"/>
</g>
<!-- 金券 -->
<g id="node6" class="node">
<title>金券</title>
<text text-anchor="middle" x="870" y="-14.3" font-family="Times,serif" font-size="14.00">金券</text>
</g>
<!-- ポイント&#45;&gt;金券 -->
<g id="edge5" class="edge">
<title>ポイント&#45;&gt;金券</title>
<path fill="none" stroke="black" d="M732.66,-18C765.66,-18 813.62,-18 842.99,-18"/>
</g>
<!-- 支出 -->
<g id="node7" class="node">
<title>支出</title>
<text text-anchor="middle" x="1009" y="-14.3" font-family="Times,serif" font-size="14.00">支出</text>
</g>
<!-- 金券&#45;&gt;支出 -->
<g id="edge6" class="edge">
<title>金券&#45;&gt;支出</title>
<path fill="none" stroke="black" d="M897.09,-18C921.31,-18 957.2,-18 981.54,-18"/>
</g>
<!-- 給与 -->
<g id="node8" class="node">
<title>給与</title>
<polygon fill="none" stroke="black" points="56.5,-1531 2.5,-1531 2.5,-1495 56.5,-1495 56.5,-1531"/>
<text text-anchor="middle" x="29.5" y="-1509.3" font-family="Times,serif" font-size="14.00">給与</text>
</g>
<!-- 三井住友銀行 -->
<g id="node11" class="node">
<title>三井住友銀行</title>
<polygon fill="none" stroke="black" points="198,-1531 96,-1531 96,-1495 198,-1495 198,-1531"/>
<text text-anchor="middle" x="147" y="-1509.3" font-family="Times,serif" font-size="14.00">三井住友銀行</text>
</g>
<!-- 給与&#45;&gt;三井住友銀行 -->
<g id="edge7" class="edge">
<title>給与&#45;&gt;三井住友銀行</title>
<path fill="none" stroke="black" stroke-width="2" d="M56.71,-1513C65.39,-1513 75.45,-1513 85.62,-1513"/>
<polygon fill="black" stroke="black" stroke-width="2" points="85.78,-1516.5 95.78,-1513 85.78,-1509.5 85.78,-1516.5"/>
</g>
<!-- 譲渡 -->
<g id="node9" class="node">
<title>譲渡</title>
<polygon fill="none" stroke="black" points="56.5,-1248 2.5,-1248 2.5,-1212 56.5,-1212 56.5,-1248"/>
<text text-anchor="middle" x="29.5" y="-1226.3" font-family="Times,serif" font-size="14.00">譲渡</text>
</g>
<!-- メルペイ -->
<g id="node21" class="node">
<title>メルペイ</title>
<polygon fill="none" stroke="black" points="529,-1248 455,-1248 455,-1212 529,-1212 529,-1248"/>
<text text-anchor="middle" x="492" y="-1226.3" font-family="Times,serif" font-size="14.00">メルペイ</text>
</g>
<!-- 譲渡&#45;&gt;メルペイ -->
<g id="edge66" class="edge">
<title>譲渡&#45;&gt;メルペイ</title>
<path fill="none" stroke="black" stroke-width="2" d="M56.58,-1230C131.58,-1230 348.63,-1230 444.52,-1230"/>
<polygon fill="black" stroke="black" stroke-width="2" points="444.78,-1233.5 454.78,-1230 444.78,-1226.5 444.78,-1233.5"/>
</g>
<!-- 雑収入 -->
<g id="node10" class="node">
<title>雑収入</title>
<polygon fill="none" stroke="black" points="59,-189 0,-189 0,-153 59,-153 59,-189"/>
<text text-anchor="middle" x="29.5" y="-167.3" font-family="Times,serif" font-size="14.00">雑収入</text>
</g>
<!-- Ponta -->
<g id="node22" class="node">
<title>Ponta</title>
<polygon fill="none" stroke="black" points="724,-184 667,-184 667,-148 724,-148 724,-184"/>
<text text-anchor="middle" x="695.5" y="-162.3" font-family="Times,serif" font-size="14.00">Ponta</text>
</g>
<!-- 雑収入&#45;&gt;Ponta -->
<g id="edge71" class="edge">
<title>雑収入&#45;&gt;Ponta</title>
<path fill="none" stroke="black" stroke-width="2" d="M59.03,-170.79C165.05,-169.99 536.4,-167.19 656.63,-166.29"/>
<polygon fill="black" stroke="black" stroke-width="2" points="656.84,-169.78 666.81,-166.21 656.79,-162.78 656.84,-169.78"/>
</g>
<!-- 楽天ポイント -->
<g id="node23" class="node">
<title>楽天ポイント</title>
<polygon fill="none" stroke="black" points="746.5,-476 644.5,-476 644.5,-440 746.5,-440 746.5,-476"/>
<text text-anchor="middle" x="695.5" y="-454.3" font-family="Times,serif" font-size="14.00">楽天ポイント</text>
</g>
<!-- 雑収入&#45;&gt;楽天ポイント -->
<g id="edge70" class="edge">
<title>雑収入&#45;&gt;楽天ポイント</title>
<path fill="none" stroke="black" stroke-width="2" d="M59.08,-180.74C82.23,-187.76 115.84,-196 146,-196 146,-196 146,-196 493,-196 586.52,-196 546.91,-300.42 602,-376 618.19,-398.21 641.32,-418.71 660.41,-433.67"/>
<polygon fill="black" stroke="black" stroke-width="2" points="658.51,-436.62 668.58,-439.93 662.77,-431.07 658.51,-436.62"/>
</g>
<!-- 住信SBI銀行 -->
<g id="node12" class="node">
<title>住信SBI銀行</title>
<polygon fill="none" stroke="black" points="196.5,-1459 97.5,-1459 97.5,-1423 196.5,-1423 196.5,-1459"/>
<text text-anchor="middle" x="147" y="-1437.3" font-family="Times,serif" font-size="14.00">住信SBI銀行</text>
</g>
<!-- 三井住友銀行&#45;&gt;住信SBI銀行 -->
<g id="edge9" class="edge">
<title>三井住友銀行&#45;&gt;住信SBI銀行</title>
<path fill="none" stroke="black" stroke-width="2" d="M147,-1494.95C147,-1486.41 147,-1477.86 147,-1469.31"/>
<polygon fill="black" stroke="black" stroke-width="2" points="150.5,-1469.28 147,-1459.28 143.5,-1469.28 150.5,-1469.28"/>
</g>
<!-- 現金 -->
<g id="node17" class="node">
<title>現金</title>
<polygon fill="none" stroke="black" points="519,-1688 465,-1688 465,-1652 519,-1652 519,-1688"/>
<text text-anchor="middle" x="492" y="-1666.3" font-family="Times,serif" font-size="14.00">現金</text>
</g>
<!-- 三井住友銀行&#45;&gt;現金 -->
<g id="edge8" class="edge">
<title>三井住友銀行&#45;&gt;現金</title>
<path fill="none" stroke="black" stroke-width="2" d="M150.41,-1531.24C155.74,-1563.39 171.78,-1629.55 216,-1659 289.01,-1707.61 398.72,-1692.16 454.95,-1679.53"/>
<polygon fill="black" stroke="black" stroke-width="2" points="455.87,-1682.91 464.81,-1677.22 454.27,-1676.09 455.87,-1682.91"/>
</g>
<!-- ビックカメラSuicaカード -->
<g id="node13" class="node">
<title>ビックカメラSuicaカード</title>
<polygon fill="none" stroke="black" points="418,-1371 235,-1371 235,-1335 418,-1335 418,-1371"/>
<text text-anchor="middle" x="326.5" y="-1349.3" font-family="Times,serif" font-size="14.00">ビックカメラSuicaカード</text>
</g>
<!-- 住信SBI銀行&#45;&gt;ビックカメラSuicaカード -->
<g id="edge23" class="edge">
<title>住信SBI銀行&#45;&gt;ビックカメラSuicaカード</title>
<path fill="none" stroke="black" stroke-width="2" d="M178.11,-1422.87C189.8,-1416.06 203.39,-1408.42 216,-1402 234.34,-1392.67 254.82,-1383.24 273.08,-1375.19"/>
<polygon fill="black" stroke="black" stroke-width="2" points="274.64,-1378.32 282.39,-1371.1 271.83,-1371.91 274.64,-1378.32"/>
</g>
<!-- リクルートカード -->
<g id="node14" class="node">
<title>リクルートカード</title>
<polygon fill="none" stroke="black" points="390.5,-996 262.5,-996 262.5,-960 390.5,-960 390.5,-996"/>
<text text-anchor="middle" x="326.5" y="-974.3" font-family="Times,serif" font-size="14.00">リクルートカード</text>
</g>
<!-- 住信SBI銀行&#45;&gt;リクルートカード -->
<g id="edge24" class="edge">
<title>住信SBI銀行&#45;&gt;リクルートカード</title>
<path fill="none" stroke="black" stroke-width="2" d="M154.96,-1422.85C182.24,-1351.68 282.05,-1091.34 314.92,-1005.59"/>
<polygon fill="black" stroke="black" stroke-width="2" points="318.28,-1006.61 318.59,-996.02 311.74,-1004.11 318.28,-1006.61"/>
</g>
<!-- PiTaPa -->
<g id="node15" class="node">
<title>PiTaPa</title>
<polygon fill="none" stroke="black" points="359,-1480 294,-1480 294,-1444 359,-1444 359,-1480"/>
<text text-anchor="middle" x="326.5" y="-1458.3" font-family="Times,serif" font-size="14.00">PiTaPa</text>
</g>
<!-- 住信SBI銀行&#45;&gt;PiTaPa -->
<g id="edge25" class="edge">
<title>住信SBI銀行&#45;&gt;PiTaPa</title>
<path fill="none" stroke="black" stroke-width="2" d="M196.5,-1446.74C223.87,-1449.98 257.71,-1453.98 283.87,-1457.07"/>
<polygon fill="black" stroke="black" stroke-width="2" points="283.5,-1460.56 293.84,-1458.25 284.32,-1453.6 283.5,-1460.56"/>
</g>
<!-- 住信SBI銀行&#45;&gt;現金 -->
<g id="edge21" class="edge">
<title>住信SBI銀行&#45;&gt;現金</title>
<path fill="none" stroke="black" stroke-width="2" d="M174.66,-1459.08C183.47,-1466.41 192.43,-1475.61 198,-1486 223.9,-1534.3 178.73,-1567.81 216,-1608 248.06,-1642.57 387.66,-1660.23 454.75,-1666.84"/>
<polygon fill="black" stroke="black" stroke-width="2" points="454.58,-1670.34 464.86,-1667.81 455.24,-1663.37 454.58,-1670.34"/>
</g>
<!-- PayPay -->
<g id="node20" class="node">
<title>PayPay</title>
<polygon fill="none" stroke="black" points="526,-1545 458,-1545 458,-1509 526,-1509 526,-1545"/>
<text text-anchor="middle" x="492" y="-1523.3" font-family="Times,serif" font-size="14.00">PayPay</text>
</g>
<!-- 住信SBI銀行&#45;&gt;PayPay -->
<g id="edge26" class="edge">
<title>住信SBI銀行&#45;&gt;PayPay</title>
<path fill="none" stroke="black" stroke-width="2" d="M196.57,-1426.47C253.25,-1412.42 348.11,-1398.16 418,-1435 443.74,-1448.56 436.72,-1466.37 455,-1489 458.34,-1493.14 462.03,-1497.37 465.75,-1501.43"/>
<polygon fill="black" stroke="black" stroke-width="2" points="463.42,-1504.07 472.82,-1508.98 468.53,-1499.29 463.42,-1504.07"/>
</g>
<!-- 株主優待券 -->
<g id="node30" class="node">
<title>株主優待券</title>
<polygon fill="none" stroke="black" points="914,-1603 826,-1603 826,-1567 914,-1567 914,-1603"/>
<text text-anchor="middle" x="870" y="-1581.3" font-family="Times,serif" font-size="14.00">株主優待券</text>
</g>
<!-- 住信SBI銀行&#45;&gt;株主優待券 -->
<g id="edge28" class="edge">
<title>住信SBI銀行&#45;&gt;株主優待券</title>
<path fill="none" stroke="black" stroke-width="2" d="M175.06,-1459.17C222.37,-1496.26 316.05,-1576 325.5,-1576 325.5,-1576 325.5,-1576 696.5,-1576 736.4,-1576 781.48,-1576 815.55,-1577.27"/>
<polygon fill="black" stroke="black" stroke-width="2" points="815.62,-1580.77 825.76,-1577.7 815.91,-1573.78 815.62,-1580.77"/>
</g>
<!-- 家賃 -->
<g id="node31" class="node">
<title>家賃</title>
<polygon fill="none" stroke="black" points="1036,-1780 982,-1780 982,-1744 1036,-1744 1036,-1780"/>
<text text-anchor="middle" x="1009" y="-1758.3" font-family="Times,serif" font-size="14.00">家賃</text>
</g>
<!-- 住信SBI銀行&#45;&gt;家賃 -->
<g id="edge22" class="edge">
<title>住信SBI銀行&#45;&gt;家賃</title>
<path fill="none" stroke="black" stroke-width="2" d="M174.75,-1459.04C183.56,-1466.36 192.5,-1475.56 198,-1486 234.24,-1554.8 177.85,-1604.27 235,-1657 306.81,-1723.25 338.3,-1746 436,-1746 436,-1746 436,-1746 871,-1746 905.4,-1746 944.33,-1751.04 971.88,-1755.46"/>
<polygon fill="black" stroke="black" stroke-width="2" points="971.4,-1758.93 981.84,-1757.11 972.55,-1752.02 971.4,-1758.93"/>
</g>
<!-- Suica -->
<g id="node16" class="node">
<title>Suica</title>
<polygon fill="none" stroke="black" points="520,-1431 464,-1431 464,-1395 520,-1395 520,-1431"/>
<text text-anchor="middle" x="492" y="-1409.3" font-family="Times,serif" font-size="14.00">Suica</text>
</g>
<!-- ビックカメラSuicaカード&#45;&gt;Suica -->
<g id="edge15" class="edge">
<title>ビックカメラSuicaカード&#45;&gt;Suica</title>
<path fill="none" stroke="black" stroke-width="2" d="M412.05,-1371.06C420.6,-1373.71 429.05,-1376.68 437,-1380 443.4,-1382.67 449.94,-1386.03 456.14,-1389.58"/>
<polygon fill="black" stroke="black" stroke-width="2" points="454.57,-1392.72 464.95,-1394.86 458.17,-1386.72 454.57,-1392.72"/>
</g>
<!-- JREポイント -->
<g id="node24" class="node">
<title>JREポイント</title>
<polygon fill="none" stroke="black" points="745.5,-1472 645.5,-1472 645.5,-1436 745.5,-1436 745.5,-1472"/>
<text text-anchor="middle" x="695.5" y="-1450.3" font-family="Times,serif" font-size="14.00">JREポイント</text>
</g>
<!-- ビックカメラSuicaカード&#45;&gt;JREポイント -->
<g id="edge10" class="edge">
<title>ビックカメラSuicaカード&#45;&gt;JREポイント</title>
<path fill="none" stroke="black" d="M360.17,-1371.08C377.76,-1381.25 399.57,-1394.58 418,-1408 435.57,-1420.8 436.12,-1429.22 455,-1440 492.47,-1461.4 504.42,-1464.02 547,-1471 575.87,-1475.73 608.14,-1472.93 635.11,-1468.34"/>
<polygon fill="black" stroke="black" points="635.96,-1471.74 645.17,-1466.5 634.7,-1464.85 635.96,-1471.74"/>
<text text-anchor="middle" x="492" y="-1471.8" font-family="Times,serif" font-size="14.00">0.5%</text>
</g>
<!-- ビックポイント -->
<g id="node25" class="node">
<title>ビックポイント</title>
<polygon fill="none" stroke="black" points="753.5,-1380 637.5,-1380 637.5,-1344 753.5,-1344 753.5,-1380"/>
<text text-anchor="middle" x="695.5" y="-1358.3" font-family="Times,serif" font-size="14.00">ビックポイント</text>
</g>
<!-- ビックカメラSuicaカード&#45;&gt;ビックポイント -->
<g id="edge13" class="edge">
<title>ビックカメラSuicaカード&#45;&gt;ビックポイント</title>
<path fill="none" stroke="black" d="M418.22,-1355.22C482.9,-1356.81 568.44,-1358.91 627.11,-1360.35"/>
<polygon fill="black" stroke="black" points="627.3,-1363.85 637.38,-1360.6 627.47,-1356.86 627.3,-1363.85"/>
<text text-anchor="middle" x="492" y="-1361.8" font-family="Times,serif" font-size="14.00">0.5%</text>
</g>
<!-- ビックカメラ -->
<g id="node41" class="node">
<title>ビックカメラ</title>
<polygon fill="none" stroke="black" points="1059.5,-1350 958.5,-1350 958.5,-1314 1059.5,-1314 1059.5,-1350"/>
<text text-anchor="middle" x="1009" y="-1328.3" font-family="Times,serif" font-size="14.00">ビックカメラ</text>
</g>
<!-- ビックカメラSuicaカード&#45;&gt;ビックカメラ -->
<g id="edge11" class="edge">
<title>ビックカメラSuicaカード&#45;&gt;ビックカメラ</title>
<path fill="none" stroke="black" stroke-width="2" stroke-dasharray="5,2" d="M379.84,-1334.93C411.59,-1325.54 453.17,-1316 491,-1316 491,-1316 491,-1316 871,-1316 896.46,-1316 924.4,-1318.76 948.37,-1321.99"/>
<polygon fill="black" stroke="black" stroke-width="2" points="947.99,-1325.47 958.38,-1323.39 948.96,-1318.54 947.99,-1325.47"/>
</g>
<!-- EX予約 -->
<g id="node51" class="node">
<title>EX予約</title>
<polygon fill="none" stroke="black" points="1041.5,-1296 976.5,-1296 976.5,-1260 1041.5,-1260 1041.5,-1296"/>
<text text-anchor="middle" x="1009" y="-1274.3" font-family="Times,serif" font-size="14.00">EX予約</text>
</g>
<!-- ビックカメラSuicaカード&#45;&gt;EX予約 -->
<g id="edge18" class="edge">
<title>ビックカメラSuicaカード&#45;&gt;EX予約</title>
<path fill="none" stroke="black" stroke-width="2" stroke-dasharray="5,2" d="M361.76,-1334.84C406.91,-1312.65 489.41,-1278 564.5,-1278 564.5,-1278 564.5,-1278 871,-1278 902.92,-1278 939.01,-1278 966.14,-1278"/>
<polygon fill="black" stroke="black" stroke-width="2" points="966.44,-1281.5 976.44,-1278 966.44,-1274.5 966.44,-1281.5"/>
</g>
<!-- nanaco -->
<g id="node18" class="node">
<title>nanaco</title>
<polygon fill="none" stroke="black" points="525.5,-996 458.5,-996 458.5,-960 525.5,-960 525.5,-996"/>
<text text-anchor="middle" x="492" y="-974.3" font-family="Times,serif" font-size="14.00">nanaco</text>
</g>
<!-- リクルートカード&#45;&gt;nanaco -->
<g id="edge55" class="edge">
<title>リクルートカード&#45;&gt;nanaco</title>
<path fill="none" stroke="black" stroke-width="2" d="M390.71,-978C409.76,-978 430.23,-978 447.68,-978"/>
<polygon fill="black" stroke="black" stroke-width="2" points="448.11,-981.5 458.11,-978 448.11,-974.5 448.11,-981.5"/>
</g>
<!-- Edy -->
<g id="node19" class="node">
<title>Edy</title>
<polygon fill="none" stroke="black" points="519,-836 465,-836 465,-800 519,-800 519,-836"/>
<text text-anchor="middle" x="492" y="-814.3" font-family="Times,serif" font-size="14.00">Edy</text>
</g>
<!-- リクルートカード&#45;&gt;Edy -->
<g id="edge44" class="edge">
<title>リクルートカード&#45;&gt;Edy</title>
<path fill="none" stroke="black" stroke-width="2" d="M345.94,-959.96C375.01,-931.51 431.6,-876.13 464.86,-843.58"/>
<polygon fill="black" stroke="black" stroke-width="2" points="467.68,-845.72 472.38,-836.22 462.78,-840.72 467.68,-845.72"/>
</g>
<!-- リクルートカード&#45;&gt;Ponta -->
<g id="edge50" class="edge">
<title>リクルートカード&#45;&gt;Ponta</title>
<path fill="none" stroke="black" d="M328.5,-959.85C334.15,-861.63 364.52,-393.73 436,-271 481.19,-193.41 596.47,-173.13 656.65,-167.85"/>
<polygon fill="black" stroke="black" points="657.17,-171.32 666.86,-167.05 656.62,-164.34 657.17,-171.32"/>
<text text-anchor="middle" x="492" y="-248.8" font-family="Times,serif" font-size="14.00">1.2%</text>
</g>
<!-- ASAHIネット -->
<g id="node34" class="node">
<title>ASAHIネット</title>
<polygon fill="none" stroke="black" points="1062,-1188 956,-1188 956,-1152 1062,-1152 1062,-1188"/>
<text text-anchor="middle" x="1009" y="-1166.3" font-family="Times,serif" font-size="14.00">ASAHIネット</text>
</g>
<!-- リクルートカード&#45;&gt;ASAHIネット -->
<g id="edge31" class="edge">
<title>リクルートカード&#45;&gt;ASAHIネット</title>
<path fill="none" stroke="black" stroke-width="2" d="M332.81,-996.27C348.29,-1045.29 398.27,-1176 491,-1176 491,-1176 491,-1176 808,-1176 854.18,-1176 906.32,-1174.38 945.79,-1172.83"/>
<polygon fill="black" stroke="black" stroke-width="2" points="945.94,-1176.32 955.8,-1172.42 945.66,-1169.33 945.94,-1176.32"/>
</g>
<!-- 楽天モバイル -->
<g id="node35" class="node">
<title>楽天モバイル</title>
<polygon fill="none" stroke="black" points="1060,-557 958,-557 958,-521 1060,-521 1060,-557"/>
<text text-anchor="middle" x="1009" y="-535.3" font-family="Times,serif" font-size="14.00">楽天モバイル</text>
</g>
<!-- リクルートカード&#45;&gt;楽天モバイル -->
<g id="edge40" class="edge">
<title>リクルートカード&#45;&gt;楽天モバイル</title>
<path fill="none" stroke="black" stroke-width="2" d="M330.13,-959.97C342.67,-877.36 399.61,-539 491,-539 491,-539 491,-539 871,-539 896.18,-539 923.97,-539 947.9,-539"/>
<polygon fill="black" stroke="black" stroke-width="2" points="947.9,-542.5 957.9,-539 947.9,-535.5 947.9,-542.5"/>
</g>
<!-- 楽天でんき -->
<g id="node36" class="node">
<title>楽天でんき</title>
<polygon fill="none" stroke="black" points="1053,-633 965,-633 965,-597 1053,-597 1053,-633"/>
<text text-anchor="middle" x="1009" y="-611.3" font-family="Times,serif" font-size="14.00">楽天でんき</text>
</g>
<!-- リクルートカード&#45;&gt;楽天でんき -->
<g id="edge38" class="edge">
<title>リクルートカード&#45;&gt;楽天でんき</title>
<path fill="none" stroke="black" stroke-width="2" d="M327.27,-960C327.33,-886.75 337.9,-615 491,-615 491,-615 491,-615 871,-615 898.59,-615 929.31,-615 954.66,-615"/>
<polygon fill="black" stroke="black" stroke-width="2" points="954.81,-618.5 964.81,-615 954.81,-611.5 954.81,-618.5"/>
</g>
<!-- 関西電力 -->
<g id="node37" class="node">
<title>関西電力</title>
<polygon fill="none" stroke="black" points="1046,-430 972,-430 972,-394 1046,-394 1046,-430"/>
<text text-anchor="middle" x="1009" y="-408.3" font-family="Times,serif" font-size="14.00">関西電力</text>
</g>
<!-- リクルートカード&#45;&gt;関西電力 -->
<g id="edge35" class="edge">
<title>リクルートカード&#45;&gt;関西電力</title>
<path fill="none" stroke="black" stroke-width="2" d="M328.71,-959.81C335.63,-862.93 374.14,-412 491,-412 491,-412 491,-412 871,-412 901.24,-412 935.23,-412 961.79,-412"/>
<polygon fill="black" stroke="black" stroke-width="2" points="961.94,-415.5 971.94,-412 961.94,-408.5 961.94,-415.5"/>
</g>
<!-- 楽天損保 -->
<g id="node38" class="node">
<title>楽天損保</title>
<polygon fill="none" stroke="black" points="1046,-1134 972,-1134 972,-1098 1046,-1098 1046,-1134"/>
<text text-anchor="middle" x="1009" y="-1112.3" font-family="Times,serif" font-size="14.00">楽天損保</text>
</g>
<!-- リクルートカード&#45;&gt;楽天損保 -->
<g id="edge39" class="edge">
<title>リクルートカード&#45;&gt;楽天損保</title>
<path fill="none" stroke="black" stroke-width="2" d="M339.53,-996C363.82,-1029.94 422.29,-1100 491,-1100 491,-1100 491,-1100 871,-1100 901.34,-1100 935.2,-1103.92 961.67,-1107.88"/>
<polygon fill="black" stroke="black" stroke-width="2" points="961.37,-1111.37 971.79,-1109.45 962.44,-1104.46 961.37,-1111.37"/>
</g>
<!-- 郵便局 -->
<g id="node39" class="node">
<title>郵便局</title>
<polygon fill="none" stroke="black" points="1038.5,-1080 979.5,-1080 979.5,-1044 1038.5,-1044 1038.5,-1080"/>
<text text-anchor="middle" x="1009" y="-1058.3" font-family="Times,serif" font-size="14.00">郵便局</text>
</g>
<!-- リクルートカード&#45;&gt;郵便局 -->
<g id="edge61" class="edge">
<title>リクルートカード&#45;&gt;郵便局</title>
<path fill="none" stroke="black" stroke-width="2" d="M347.47,-996.23C376.7,-1020.93 433.88,-1062 491,-1062 491,-1062 491,-1062 871,-1062 904.07,-1062 941.63,-1062 969.05,-1062"/>
<polygon fill="black" stroke="black" stroke-width="2" points="969.4,-1065.5 979.4,-1062 969.4,-1058.5 969.4,-1065.5"/>
</g>
<!-- アイハート -->
<g id="node40" class="node">
<title>アイハート</title>
<polygon fill="none" stroke="black" points="1052,-1026 966,-1026 966,-990 1052,-990 1052,-1026"/>
<text text-anchor="middle" x="1009" y="-1004.3" font-family="Times,serif" font-size="14.00">アイハート</text>
</g>
<!-- リクルートカード&#45;&gt;アイハート -->
<g id="edge34" class="edge">
<title>リクルートカード&#45;&gt;アイハート</title>
<path fill="none" stroke="black" stroke-width="2" d="M367.94,-996.05C400.5,-1008.94 447.8,-1024 491,-1024 491,-1024 491,-1024 871,-1024 899.1,-1024 930.22,-1020.64 955.69,-1017"/>
<polygon fill="black" stroke="black" stroke-width="2" points="956.5,-1020.42 965.87,-1015.48 955.47,-1013.49 956.5,-1020.42"/>
</g>
<!-- Amazon -->
<g id="node50" class="node">
<title>Amazon</title>
<polygon fill="none" stroke="black" points="1045.5,-138 972.5,-138 972.5,-102 1045.5,-102 1045.5,-138"/>
<text text-anchor="middle" x="1009" y="-116.3" font-family="Times,serif" font-size="14.00">Amazon</text>
</g>
<!-- リクルートカード&#45;&gt;Amazon -->
<g id="edge32" class="edge">
<title>リクルートカード&#45;&gt;Amazon</title>
<path fill="none" stroke="black" stroke-width="2" d="M328.33,-959.73C333.42,-854.29 363.33,-323.62 455,-194 488.92,-146.04 505.76,-120 564.5,-120 564.5,-120 564.5,-120 871,-120 901.34,-120 935.46,-120 962.06,-120"/>
<polygon fill="black" stroke="black" stroke-width="2" points="962.23,-123.5 972.23,-120 962.23,-116.5 962.23,-123.5"/>
</g>
<!-- じゃらん -->
<g id="node52" class="node">
<title>じゃらん</title>
<polygon fill="none" stroke="black" points="1046,-303 972,-303 972,-267 1046,-267 1046,-303"/>
<text text-anchor="middle" x="1009" y="-281.3" font-family="Times,serif" font-size="14.00">じゃらん</text>
</g>
<!-- リクルートカード&#45;&gt;じゃらん -->
<g id="edge33" class="edge">
<title>リクルートカード&#45;&gt;じゃらん</title>
<path fill="none" stroke="black" stroke-width="2" d="M327.78,-959.82C329.95,-850.48 348.07,-285 491,-285 491,-285 491,-285 871,-285 901.24,-285 935.23,-285 961.79,-285"/>
<polygon fill="black" stroke="black" stroke-width="2" points="961.94,-288.5 971.94,-285 961.94,-281.5 961.94,-288.5"/>
</g>
<!-- メルカリ -->
<g id="node53" class="node">
<title>メルカリ</title>
<polygon fill="none" stroke="black" points="1046,-1242 972,-1242 972,-1206 1046,-1206 1046,-1242"/>
<text text-anchor="middle" x="1009" y="-1220.3" font-family="Times,serif" font-size="14.00">メルカリ</text>
</g>
<!-- リクルートカード&#45;&gt;メルカリ -->
<g id="edge69" class="edge">
<title>リクルートカード&#45;&gt;メルカリ</title>
<path fill="none" stroke="black" stroke-width="2" d="M335.4,-996.04C355.08,-1037.89 410.58,-1138 491,-1138 491,-1138 491,-1138 808,-1138 816.24,-1138 906.08,-1177.92 962.51,-1203.36"/>
<polygon fill="black" stroke="black" stroke-width="2" points="961.4,-1206.7 971.95,-1207.62 964.28,-1200.32 961.4,-1206.7"/>
</g>
<!-- Suica&#45;&gt;JREポイント -->
<g id="edge19" class="edge">
<title>Suica&#45;&gt;JREポイント</title>
<path fill="none" stroke="black" d="M519.1,-1431.15C527.62,-1436.19 537.38,-1441.08 547,-1444 575.2,-1452.55 607.78,-1455.44 635.14,-1456.03"/>
<polygon fill="black" stroke="black" points="635.31,-1459.54 645.35,-1456.15 635.39,-1452.54 635.31,-1459.54"/>
<text text-anchor="middle" x="565.5" y="-1455.8" font-family="Times,serif" font-size="14.00">1.5%</text>
</g>
<!-- 電車 -->
<g id="node33" class="node">
<title>電車</title>
<polygon fill="none" stroke="black" points="1036,-1530 982,-1530 982,-1494 1036,-1494 1036,-1530"/>
<text text-anchor="middle" x="1009" y="-1508.3" font-family="Times,serif" font-size="14.00">電車</text>
</g>
<!-- Suica&#45;&gt;電車 -->
<g id="edge16" class="edge">
<title>Suica&#45;&gt;電車</title>
<path fill="none" stroke="black" stroke-width="2" d="M520.2,-1428.11C523.38,-1430.51 526.4,-1433.15 529,-1436 540.78,-1448.93 532.95,-1460.58 547,-1471 566.96,-1485.79 577.36,-1477.83 602,-1481 737.71,-1498.47 900.31,-1507.24 971.55,-1510.49"/>
<polygon fill="black" stroke="black" stroke-width="2" points="971.63,-1513.99 981.78,-1510.94 971.95,-1507 971.63,-1513.99"/>
</g>
<!-- 松屋 -->
<g id="node46" class="node">
<title>松屋</title>
<polygon fill="none" stroke="black" points="1036,-1461 982,-1461 982,-1425 1036,-1425 1036,-1461"/>
<text text-anchor="middle" x="1009" y="-1439.3" font-family="Times,serif" font-size="14.00">松屋</text>
</g>
<!-- Suica&#45;&gt;松屋 -->
<g id="edge17" class="edge">
<title>Suica&#45;&gt;松屋</title>
<path fill="none" stroke="black" stroke-width="2" d="M520.35,-1414.06C572.59,-1416.13 690.14,-1421.05 789,-1427 853.33,-1430.87 928.21,-1436.61 971.64,-1440.06"/>
<polygon fill="black" stroke="black" stroke-width="2" points="971.47,-1443.55 981.72,-1440.86 972.03,-1436.58 971.47,-1443.55"/>
</g>
<!-- 飲食店 -->
<g id="node44" class="node">
<title>飲食店</title>
<polygon fill="none" stroke="black" points="1038.5,-1607 979.5,-1607 979.5,-1571 1038.5,-1571 1038.5,-1607"/>
<text text-anchor="middle" x="1009" y="-1585.3" font-family="Times,serif" font-size="14.00">飲食店</text>
</g>
<!-- 現金&#45;&gt;飲食店 -->
<g id="edge63" class="edge">
<title>現金&#45;&gt;飲食店</title>
<path fill="none" stroke="black" stroke-width="2" d="M519.24,-1666.55C605.2,-1655.21 875.09,-1619.42 914,-1612 932.31,-1608.51 952.41,-1603.72 969.31,-1599.42"/>
<polygon fill="black" stroke="black" stroke-width="2" points="970.56,-1602.71 979.37,-1596.82 968.81,-1595.93 970.56,-1602.71"/>
</g>
<!-- 理髪店 -->
<g id="node48" class="node">
<title>理髪店</title>
<polygon fill="none" stroke="black" points="1038.5,-1726 979.5,-1726 979.5,-1690 1038.5,-1690 1038.5,-1726"/>
<text text-anchor="middle" x="1009" y="-1704.3" font-family="Times,serif" font-size="14.00">理髪店</text>
</g>
<!-- 現金&#45;&gt;理髪店 -->
<g id="edge64" class="edge">
<title>現金&#45;&gt;理髪店</title>
<path fill="none" stroke="black" stroke-width="2" d="M519.24,-1676.13C528.02,-1677.97 537.89,-1679.81 547,-1681 702.59,-1701.3 889.72,-1706.34 969.23,-1707.59"/>
<polygon fill="black" stroke="black" stroke-width="2" points="969.22,-1711.09 979.27,-1707.74 969.33,-1704.09 969.22,-1711.09"/>
</g>
<!-- クリーニング -->
<g id="node49" class="node">
<title>クリーニング</title>
<polygon fill="none" stroke="black" points="1059.5,-1672 958.5,-1672 958.5,-1636 1059.5,-1636 1059.5,-1672"/>
<text text-anchor="middle" x="1009" y="-1650.3" font-family="Times,serif" font-size="14.00">クリーニング</text>
</g>
<!-- 現金&#45;&gt;クリーニング -->
<g id="edge65" class="edge">
<title>現金&#45;&gt;クリーニング</title>
<path fill="none" stroke="black" stroke-width="2" d="M519.25,-1669.18C598.36,-1666.73 835.92,-1659.35 948.1,-1655.86"/>
<polygon fill="black" stroke="black" stroke-width="2" points="948.35,-1659.36 958.23,-1655.55 948.13,-1652.36 948.35,-1659.36"/>
</g>
<!-- nanacoポイント -->
<g id="node27" class="node">
<title>nanacoポイント</title>
<polygon fill="none" stroke="black" points="757.5,-958 633.5,-958 633.5,-922 757.5,-922 757.5,-958"/>
<text text-anchor="middle" x="695.5" y="-936.3" font-family="Times,serif" font-size="14.00">nanacoポイント</text>
</g>
<!-- nanaco&#45;&gt;nanacoポイント -->
<g id="edge57" class="edge">
<title>nanaco&#45;&gt;nanacoポイント</title>
<path fill="none" stroke="black" d="M508.45,-959.56C518.29,-949.31 531.98,-937.53 547,-932 570.9,-923.2 598.46,-922.43 623.24,-924.79"/>
<polygon fill="black" stroke="black" points="622.97,-928.28 633.3,-925.93 623.76,-921.33 622.97,-928.28"/>
<text text-anchor="middle" x="565.5" y="-935.8" font-family="Times,serif" font-size="14.00">1%</text>
</g>
<!-- セブンイレブン -->
<g id="node32" class="node">
<title>セブンイレブン</title>
<polygon fill="none" stroke="black" points="1066,-958 952,-958 952,-922 1066,-922 1066,-958"/>
<text text-anchor="middle" x="1009" y="-936.3" font-family="Times,serif" font-size="14.00">セブンイレブン</text>
</g>
<!-- nanaco&#45;&gt;セブンイレブン -->
<g id="edge56" class="edge">
<title>nanaco&#45;&gt;セブンイレブン</title>
<path fill="none" stroke="black" stroke-width="2" d="M525.9,-977.69C580.6,-976.98 693.66,-974.63 789,-967 840.44,-962.88 898.38,-955.62 941.74,-949.67"/>
<polygon fill="black" stroke="black" stroke-width="2" points="942.45,-953.1 951.87,-948.26 941.49,-946.17 942.45,-953.1"/>
</g>
<!-- Edy&#45;&gt;楽天ポイント -->
<g id="edge49" class="edge">
<title>Edy&#45;&gt;楽天ポイント</title>
<path fill="none" stroke="black" d="M502.09,-799.65C512.61,-778.57 530.6,-743.05 547,-713 592.97,-628.8 650.76,-531.08 678.37,-484.87"/>
<polygon fill="black" stroke="black" points="681.51,-486.45 683.64,-476.07 675.5,-482.85 681.51,-486.45"/>
<text text-anchor="middle" x="565.5" y="-716.8" font-family="Times,serif" font-size="14.00">0.5%</text>
</g>
<!-- Edy&#45;&gt;セブンイレブン -->
<g id="edge62" class="edge">
<title>Edy&#45;&gt;セブンイレブン</title>
<path fill="none" stroke="black" stroke-width="2" d="M519.27,-834.75C527.88,-839.79 537.65,-845.02 547,-849 570.43,-858.96 577.23,-859.12 602,-865 720.72,-893.16 861.06,-917.03 941.78,-929.87"/>
<polygon fill="black" stroke="black" stroke-width="2" points="941.38,-933.35 951.81,-931.45 942.48,-926.43 941.38,-933.35"/>
</g>
<!-- ヨドバシカメラ -->
<g id="node42" class="node">
<title>ヨドバシカメラ</title>
<polygon fill="none" stroke="black" points="1067,-728 951,-728 951,-692 1067,-692 1067,-728"/>
<text text-anchor="middle" x="1009" y="-706.3" font-family="Times,serif" font-size="14.00">ヨドバシカメラ</text>
</g>
<!-- Edy&#45;&gt;ヨドバシカメラ -->
<g id="edge45" class="edge">
<title>Edy&#45;&gt;ヨドバシカメラ</title>
<path fill="none" stroke="black" stroke-width="2" d="M519.15,-808.52C541.05,-800.84 573.27,-790.16 602,-783 719.79,-753.64 859.58,-731.16 940.61,-719.31"/>
<polygon fill="black" stroke="black" stroke-width="2" points="941.28,-722.75 950.68,-717.85 940.28,-715.83 941.28,-722.75"/>
</g>
<!-- 餃子の王将 -->
<g id="node43" class="node">
<title>餃子の王将</title>
<polygon fill="none" stroke="black" points="1053,-890 965,-890 965,-854 1053,-854 1053,-890"/>
<text text-anchor="middle" x="1009" y="-868.3" font-family="Times,serif" font-size="14.00">餃子の王将</text>
</g>
<!-- Edy&#45;&gt;餃子の王将 -->
<g id="edge60" class="edge">
<title>Edy&#45;&gt;餃子の王将</title>
<path fill="none" stroke="black" stroke-width="2" d="M519.18,-825.73C527.95,-828.06 537.84,-830.43 547,-832 693.27,-857.13 868.5,-866.82 954.73,-870.27"/>
<polygon fill="black" stroke="black" stroke-width="2" points="954.66,-873.77 964.79,-870.66 954.94,-866.77 954.66,-873.77"/>
</g>
<!-- 業務スーパー -->
<g id="node45" class="node">
<title>業務スーパー</title>
<polygon fill="none" stroke="black" points="1060,-836 958,-836 958,-800 1060,-800 1060,-836"/>
<text text-anchor="middle" x="1009" y="-814.3" font-family="Times,serif" font-size="14.00">業務スーパー</text>
</g>
<!-- Edy&#45;&gt;業務スーパー -->
<g id="edge59" class="edge">
<title>Edy&#45;&gt;業務スーパー</title>
<path fill="none" stroke="black" stroke-width="2" d="M519.25,-818C598.26,-818 835.33,-818 947.68,-818"/>
<polygon fill="black" stroke="black" stroke-width="2" points="947.83,-821.5 957.83,-818 947.83,-814.5 947.83,-821.5"/>
</g>
<!-- 吉野家 -->
<g id="node47" class="node">
<title>吉野家</title>
<polygon fill="none" stroke="black" points="1038.5,-782 979.5,-782 979.5,-746 1038.5,-746 1038.5,-782"/>
<text text-anchor="middle" x="1009" y="-760.3" font-family="Times,serif" font-size="14.00">吉野家</text>
</g>
<!-- Edy&#45;&gt;吉野家 -->
<g id="edge48" class="edge">
<title>Edy&#45;&gt;吉野家</title>
<path fill="none" stroke="black" stroke-width="2" d="M519.25,-815.25C603.78,-806.38 869.23,-778.55 969.31,-768.06"/>
<polygon fill="black" stroke="black" stroke-width="2" points="969.72,-771.53 979.3,-767.01 968.99,-764.57 969.72,-771.53"/>
</g>
<!-- PayPay&#45;&gt;飲食店 -->
<g id="edge27" class="edge">
<title>PayPay&#45;&gt;飲食店</title>
<path fill="none" stroke="black" stroke-width="2" d="M526.12,-1526.7C597.66,-1526.65 771.67,-1529.74 914,-1558 932.74,-1561.72 952.93,-1568.06 969.78,-1574.03"/>
<polygon fill="black" stroke="black" stroke-width="2" points="968.68,-1577.36 979.28,-1577.49 971.08,-1570.78 968.68,-1577.36"/>
</g>
<!-- メルペイ&#45;&gt;三井住友銀行 -->
<g id="edge68" class="edge">
<title>メルペイ&#45;&gt;三井住友銀行</title>
<path fill="none" stroke="black" stroke-width="2" d="M454.9,-1241.49C388.05,-1263.06 250.33,-1308.99 235,-1326 191.34,-1374.45 231.89,-1412.28 198,-1468 193.65,-1475.16 187.81,-1481.83 181.66,-1487.74"/>
<polygon fill="black" stroke="black" stroke-width="2" points="178.91,-1485.51 173.79,-1494.79 183.58,-1490.72 178.91,-1485.51"/>
</g>
<!-- メルペイ&#45;&gt;メルカリ -->
<g id="edge67" class="edge">
<title>メルペイ&#45;&gt;メルカリ</title>
<path fill="none" stroke="black" stroke-width="2" d="M529.21,-1229.58C620.54,-1228.51 860.17,-1225.72 961.59,-1224.54"/>
<polygon fill="black" stroke="black" stroke-width="2" points="961.87,-1228.04 971.83,-1224.42 961.79,-1221.04 961.87,-1228.04"/>
</g>
<!-- Ponta&#45;&gt;じゃらん -->
<g id="edge51" class="edge">
<title>Ponta&#45;&gt;じゃらん</title>
<path fill="none" stroke="black" d="M724.14,-176.56C777.82,-197.07 896.63,-242.45 962.24,-267.52"/>
<polygon fill="black" stroke="black" points="961.32,-270.91 971.91,-271.21 963.82,-264.38 961.32,-270.91"/>
</g>
<!-- 楽天ポイント&#45;&gt;楽天モバイル -->
<g id="edge42" class="edge">
<title>楽天ポイント&#45;&gt;楽天モバイル</title>
<path fill="none" stroke="black" d="M746.55,-471.01C801.42,-485.28 889.42,-508.17 947.97,-523.39"/>
<polygon fill="black" stroke="black" points="947.26,-526.82 957.82,-525.95 949.02,-520.05 947.26,-526.82"/>
</g>
<!-- 楽天ポイント&#45;&gt;楽天でんき -->
<g id="edge43" class="edge">
<title>楽天ポイント&#45;&gt;楽天でんき</title>
<path fill="none" stroke="black" d="M732.23,-476.01C789.23,-504.74 900.65,-560.9 963,-592.32"/>
<polygon fill="black" stroke="black" points="961.7,-595.58 972.21,-596.96 964.85,-589.33 961.7,-595.58"/>
</g>
<!-- JREポイント&#45;&gt;Suica -->
<g id="edge20" class="edge">
<title>JREポイント&#45;&gt;Suica</title>
<path fill="none" stroke="black" d="M645.37,-1444C609.84,-1436.77 562.56,-1427.15 530.14,-1420.56"/>
<polygon fill="black" stroke="black" points="530.67,-1417.09 520.18,-1418.53 529.28,-1423.95 530.67,-1417.09"/>
</g>
<!-- ビックポイント&#45;&gt;ビックカメラ -->
<g id="edge14" class="edge">
<title>ビックポイント&#45;&gt;ビックカメラ</title>
<path fill="none" stroke="black" d="M753.63,-1356.5C808.86,-1351.18 892.19,-1343.15 948.27,-1337.75"/>
<polygon fill="black" stroke="black" points="948.8,-1341.22 958.42,-1336.78 948.13,-1334.25 948.8,-1341.22"/>
</g>
<!-- Amazonポイント -->
<g id="node26" class="node">
<title>Amazonポイント</title>
<polygon fill="none" stroke="black" points="760.5,-91 630.5,-91 630.5,-55 760.5,-55 760.5,-91"/>
<text text-anchor="middle" x="695.5" y="-69.3" font-family="Times,serif" font-size="14.00">Amazonポイント</text>
</g>
<!-- Amazonポイント&#45;&gt;Amazon -->
<g id="edge54" class="edge">
<title>Amazonポイント&#45;&gt;Amazon</title>
<path fill="none" stroke="black" d="M760.61,-73.68C808.25,-78.38 874.8,-87.51 933,-97 942.51,-98.55 952.67,-100.35 962.34,-102.34"/>
<polygon fill="black" stroke="black" points="961.68,-105.78 972.2,-104.48 963.17,-98.94 961.68,-105.78"/>
</g>
<!-- nanacoポイント&#45;&gt;nanaco -->
<g id="edge58" class="edge">
<title>nanacoポイント&#45;&gt;nanaco</title>
<path fill="none" stroke="black" d="M633.21,-951.56C601.73,-957.5 564.14,-964.58 535.81,-969.93"/>
<polygon fill="black" stroke="black" points="535,-966.52 525.82,-971.81 536.3,-973.4 535,-966.52"/>
</g>
<!-- ヨドバシゴールドポイント -->
<g id="node28" class="node">
<title>ヨドバシゴールドポイント</title>
<polygon fill="none" stroke="black" points="789,-697 602,-697 602,-661 789,-661 789,-697"/>
<text text-anchor="middle" x="695.5" y="-675.3" font-family="Times,serif" font-size="14.00">ヨドバシゴールドポイント</text>
</g>
<!-- ヨドバシゴールドポイント&#45;&gt;ヨドバシカメラ -->
<g id="edge47" class="edge">
<title>ヨドバシゴールドポイント&#45;&gt;ヨドバシカメラ</title>
<path fill="none" stroke="black" d="M789.12,-688.22C837.87,-693.07 896.55,-698.91 940.88,-703.32"/>
<polygon fill="black" stroke="black" points="940.66,-706.82 950.96,-704.32 941.36,-699.85 940.66,-706.82"/>
</g>
<!-- はぴeポイント -->
<g id="node29" class="node">
<title>はぴeポイント</title>
<polygon fill="none" stroke="black" points="750.5,-367 640.5,-367 640.5,-331 750.5,-331 750.5,-367"/>
<text text-anchor="middle" x="695.5" y="-345.3" font-family="Times,serif" font-size="14.00">はぴeポイント</text>
</g>
<!-- はぴeポイント&#45;&gt;関西電力 -->
<g id="edge37" class="edge">
<title>はぴeポイント&#45;&gt;関西電力</title>
<path fill="none" stroke="black" d="M750.72,-346.34C795.36,-345.59 859.88,-347.88 914,-363 934.19,-368.64 955.02,-378.96 971.93,-388.68"/>
<polygon fill="black" stroke="black" points="970.5,-391.9 980.89,-393.99 974.07,-385.88 970.5,-391.9"/>
</g>
<!-- 株主優待券&#45;&gt;住信SBI銀行 -->
<g id="edge30" class="edge">
<title>株主優待券&#45;&gt;住信SBI銀行</title>
<path fill="none" stroke="black" d="M825.76,-1592.3C790.87,-1594 740.52,-1594 696.5,-1594 325.5,-1594 325.5,-1594 325.5,-1594 315.79,-1594 217.22,-1509.87 171.3,-1466.2"/>
<polygon fill="black" stroke="black" points="173.52,-1463.47 163.89,-1459.05 168.66,-1468.51 173.52,-1463.47"/>
</g>
<!-- 株主優待券&#45;&gt;電車 -->
<g id="edge29" class="edge">
<title>株主優待券&#45;&gt;電車</title>
<path fill="none" stroke="black" stroke-width="2" d="M904.87,-1566.96C925.57,-1555.92 952.01,-1541.83 972.93,-1530.69"/>
<polygon fill="black" stroke="black" stroke-width="2" points="974.64,-1533.74 981.82,-1525.95 971.35,-1527.56 974.64,-1533.74"/>
</g>
<!-- 楽天モバイル&#45;&gt;楽天ポイント -->
<g id="edge41" class="edge">
<title>楽天モバイル&#45;&gt;楽天ポイント</title>
<path fill="none" stroke="black" d="M989.32,-520.8C971.55,-504.78 943.27,-482.41 914,-472 863.23,-453.94 801.64,-451.64 756.98,-453.16"/>
<polygon fill="black" stroke="black" points="756.71,-449.66 746.86,-453.57 757,-456.66 756.71,-449.66"/>
<text text-anchor="middle" x="870" y="-475.8" font-family="Times,serif" font-size="14.00">0.5%</text>
</g>
<!-- 関西電力&#45;&gt;はぴeポイント -->
<g id="edge36" class="edge">
<title>関西電力&#45;&gt;はぴeポイント</title>
<path fill="none" stroke="black" d="M971.73,-399.47C954.41,-393.83 933.3,-387.46 914,-383 862.98,-371.21 804.27,-362.3 760.71,-356.56"/>
<polygon fill="black" stroke="black" points="760.91,-353.06 750.54,-355.25 760.01,-360 760.91,-353.06"/>
<text text-anchor="middle" x="870" y="-386.8" font-family="Times,serif" font-size="14.00">0.5%</text>
</g>
<!-- ビックカメラ&#45;&gt;ビックポイント -->
<g id="edge12" class="edge">
<title>ビックカメラ&#45;&gt;ビックポイント</title>
<path fill="none" stroke="black" stroke-dasharray="5,2" d="M978.12,-1350.14C964.81,-1357.2 948.63,-1364.44 933,-1368 877.03,-1380.74 811.7,-1377.78 763.89,-1372.47"/>
<polygon fill="black" stroke="black" points="764.01,-1368.96 753.67,-1371.27 763.19,-1375.91 764.01,-1368.96"/>
<text text-anchor="middle" x="870" y="-1381.8" font-family="Times,serif" font-size="14.00">9.5%</text>
</g>
<!-- ヨドバシカメラ&#45;&gt;ヨドバシゴールドポイント -->
<g id="edge46" class="edge">
<title>ヨドバシカメラ&#45;&gt;ヨドバシゴールドポイント</title>
<path fill="none" stroke="black" d="M969.09,-691.96C952.49,-685.21 932.68,-678.36 914,-675 876.97,-668.33 835.82,-667.46 799.36,-668.88"/>
<polygon fill="black" stroke="black" points="799.04,-665.39 789.21,-669.34 799.36,-672.38 799.04,-665.39"/>
<text text-anchor="middle" x="870" y="-678.8" font-family="Times,serif" font-size="14.00">10%</text>
</g>
<!-- Amazon&#45;&gt;Amazonポイント -->
<g id="edge53" class="edge">
<title>Amazon&#45;&gt;Amazonポイント</title>
<path fill="none" stroke="black" d="M972.2,-121.47C959.81,-119.63 945.81,-117.09 933,-115 878.77,-106.16 817.31,-97.63 770.64,-90.21"/>
<polygon fill="black" stroke="black" points="771.04,-86.73 760.61,-88.59 769.93,-93.64 771.04,-86.73"/>
</g>
<!-- じゃらん&#45;&gt;Ponta -->
<g id="edge52" class="edge">
<title>じゃらん&#45;&gt;Ponta</title>
<path fill="none" stroke="black" d="M994.32,-266.71C977.77,-246.06 947.87,-213.23 914,-197 855.73,-169.07 779.33,-164.53 734.31,-164.65"/>
<polygon fill="black" stroke="black" points="734.08,-161.16 724.12,-164.76 734.15,-168.16 734.08,-161.16"/>
<text text-anchor="middle" x="870" y="-200.8" font-family="Times,serif" font-size="14.00">2%</text>
</g>
</g>
</svg>
