<?xml version="1.0" encoding="UTF-8" standalone="no"?>
<!DOCTYPE svg PUBLIC "-//W3C//DTD SVG 1.1//EN"
 "http://www.w3.org/Graphics/SVG/1.1/DTD/svg11.dtd">
<!-- Generated by graphviz version 2.40.1 (0)
 -->
<!-- Title: MoneyFlow Pages: 1 -->
<svg width="1085pt" height="1738pt"
 viewBox="0.00 0.00 1085.00 1738.00" xmlns="http://www.w3.org/2000/svg" xmlns:xlink="http://www.w3.org/1999/xlink">
<g id="graph0" class="graph" transform="scale(1 1) rotate(0) translate(4 1734)">
<title>MoneyFlow</title>
<polygon fill="#ffffff" stroke="transparent" points="-4,4 -4,-1734 1081,-1734 1081,4 -4,4"/>
<!-- 収入 -->
<g id="node1" class="node">
<title>収入</title>
<text text-anchor="middle" x="27" y="-14.3" font-family="Times,serif" font-size="14.00" fill="#000000">収入</text>
</g>
<!-- 銀行口座 -->
<g id="node2" class="node">
<title>銀行口座</title>
<text text-anchor="middle" x="142" y="-14.3" font-family="Times,serif" font-size="14.00" fill="#000000">銀行口座</text>
</g>
<!-- 収入&#45;&gt;銀行口座 -->
<g id="edge1" class="edge">
<title>収入&#45;&gt;銀行口座</title>
<path fill="none" stroke="#000000" d="M54.2534,-18C69.3972,-18 88.4539,-18 104.9357,-18"/>
</g>
<!-- クレジットカード -->
<g id="node3" class="node">
<title>クレジットカード</title>
<text text-anchor="middle" x="322" y="-14.3" font-family="Times,serif" font-size="14.00" fill="#000000">クレジットカード</text>
</g>
<!-- 銀行口座&#45;&gt;クレジットカード -->
<g id="edge2" class="edge">
<title>銀行口座&#45;&gt;クレジットカード</title>
<path fill="none" stroke="#000000" d="M179.2961,-18C201.6417,-18 230.6798,-18 256.7236,-18"/>
</g>
<!-- マネー -->
<g id="node4" class="node">
<title>マネー</title>
<text text-anchor="middle" x="485" y="-14.3" font-family="Times,serif" font-size="14.00" fill="#000000">マネー</text>
</g>
<!-- クレジットカード&#45;&gt;マネー -->
<g id="edge3" class="edge">
<title>クレジットカード&#45;&gt;マネー</title>
<path fill="none" stroke="#000000" d="M387.3591,-18C410.9188,-18 436.353,-18 455.3549,-18"/>
</g>
<!-- ポイント -->
<g id="node5" class="node">
<title>ポイント</title>
<text text-anchor="middle" x="686" y="-14.3" font-family="Times,serif" font-size="14.00" fill="#000000">ポイント</text>
</g>
<!-- マネー&#45;&gt;ポイント -->
<g id="edge4" class="edge">
<title>マネー&#45;&gt;ポイント</title>
<path fill="none" stroke="#000000" d="M514.6582,-18C550.2582,-18 609.9876,-18 648.6865,-18"/>
</g>
<!-- 金券 -->
<g id="node6" class="node">
<title>金券</title>
<text text-anchor="middle" x="870.5" y="-14.3" font-family="Times,serif" font-size="14.00" fill="#000000">金券</text>
</g>
<!-- ポイント&#45;&gt;金券 -->
<g id="edge5" class="edge">
<title>ポイント&#45;&gt;金券</title>
<path fill="none" stroke="#000000" d="M723.3363,-18C758.9263,-18 811.6612,-18 843.3941,-18"/>
</g>
<!-- 支出 -->
<g id="node7" class="node">
<title>支出</title>
<text text-anchor="middle" x="1019" y="-14.3" font-family="Times,serif" font-size="14.00" fill="#000000">支出</text>
</g>
<!-- 金券&#45;&gt;支出 -->
<g id="edge6" class="edge">
<title>金券&#45;&gt;支出</title>
<path fill="none" stroke="#000000" d="M897.7372,-18C924.5314,-18 965.2011,-18 991.9355,-18"/>
</g>
<!-- 給与 -->
<g id="node8" class="node">
<title>給与</title>
<polygon fill="none" stroke="#000000" points="54,-1401 0,-1401 0,-1365 54,-1365 54,-1401"/>
<text text-anchor="middle" x="27" y="-1379.3" font-family="Times,serif" font-size="14.00" fill="#000000">給与</text>
</g>
<!-- 三井住友銀行 -->
<g id="node9" class="node">
<title>三井住友銀行</title>
<polygon fill="none" stroke="#000000" points="193,-1401 91,-1401 91,-1365 193,-1365 193,-1401"/>
<text text-anchor="middle" x="142" y="-1379.3" font-family="Times,serif" font-size="14.00" fill="#000000">三井住友銀行</text>
</g>
<!-- 給与&#45;&gt;三井住友銀行 -->
<g id="edge7" class="edge">
<title>給与&#45;&gt;三井住友銀行</title>
<path fill="none" stroke="#000000" stroke-width="2" d="M54.2534,-1383C62.2529,-1383 71.3442,-1383 80.571,-1383"/>
<polygon fill="#000000" stroke="#000000" stroke-width="2" points="80.5912,-1386.5001 90.5911,-1383 80.5911,-1379.5001 80.5912,-1386.5001"/>
</g>
<!-- 住信SBI銀行 -->
<g id="node10" class="node">
<title>住信SBI銀行</title>
<polygon fill="none" stroke="#000000" points="192,-1329 92,-1329 92,-1293 192,-1293 192,-1329"/>
<text text-anchor="middle" x="142" y="-1307.3" font-family="Times,serif" font-size="14.00" fill="#000000">住信SBI銀行</text>
</g>
<!-- 三井住友銀行&#45;&gt;住信SBI銀行 -->
<g id="edge9" class="edge">
<title>三井住友銀行&#45;&gt;住信SBI銀行</title>
<path fill="none" stroke="#000000" stroke-width="2" d="M142,-1364.9539C142,-1356.4073 142,-1347.8607 142,-1339.3142"/>
<polygon fill="#000000" stroke="#000000" stroke-width="2" points="145.5001,-1339.2812 142,-1329.2813 138.5001,-1339.2813 145.5001,-1339.2812"/>
</g>
<!-- 現金 -->
<g id="node14" class="node">
<title>現金</title>
<polygon fill="none" stroke="#000000" points="512,-1595 458,-1595 458,-1559 512,-1559 512,-1595"/>
<text text-anchor="middle" x="485" y="-1573.3" font-family="Times,serif" font-size="14.00" fill="#000000">現金</text>
</g>
<!-- 三井住友銀行&#45;&gt;現金 -->
<g id="edge8" class="edge">
<title>三井住友銀行&#45;&gt;現金</title>
<path fill="none" stroke="#000000" stroke-width="2" d="M155.4221,-1401.1358C171.2836,-1421.4838 199.4126,-1454.3396 230,-1475 300.381,-1522.5391 396.2751,-1553.3049 448.104,-1567.6236"/>
<polygon fill="#000000" stroke="#000000" stroke-width="2" points="447.2943,-1571.0303 457.8616,-1570.2681 449.1254,-1564.2741 447.2943,-1571.0303"/>
</g>
<!-- 関西電力 -->
<g id="node35" class="node">
<title>関西電力</title>
<polygon fill="none" stroke="#000000" points="1056,-171 982,-171 982,-135 1056,-135 1056,-171"/>
<text text-anchor="middle" x="1019" y="-149.3" font-family="Times,serif" font-size="14.00" fill="#000000">関西電力</text>
</g>
<!-- 三井住友銀行&#45;&gt;関西電力 -->
<g id="edge10" class="edge">
<title>三井住友銀行&#45;&gt;関西電力</title>
<path fill="none" stroke="#000000" stroke-width="2" d="M170.3368,-1364.8886C179.1974,-1357.6703 187.9652,-1348.5502 193,-1338 275.9597,-1164.1605 151.4978,-647.8973 230,-472 307.3712,-298.6369 362.5115,-249.7988 537,-175 614.2116,-141.9013 866.3074,-147.1625 971.8549,-150.9924"/>
<polygon fill="#000000" stroke="#000000" stroke-width="2" points="971.7756,-154.4918 981.8997,-151.3688 972.0378,-147.4967 971.7756,-154.4918"/>
</g>
<!-- ビックカメラSuicaカード -->
<g id="node11" class="node">
<title>ビックカメラSuicaカード</title>
<polygon fill="none" stroke="#000000" points="414,-1425 230,-1425 230,-1389 414,-1389 414,-1425"/>
<text text-anchor="middle" x="322" y="-1403.3" font-family="Times,serif" font-size="14.00" fill="#000000">ビックカメラSuicaカード</text>
</g>
<!-- 住信SBI銀行&#45;&gt;ビックカメラSuicaカード -->
<g id="edge28" class="edge">
<title>住信SBI銀行&#45;&gt;ビックカメラSuicaカード</title>
<path fill="none" stroke="#000000" stroke-width="2" d="M192.0182,-1324.7731C198.8542,-1327.2153 205.6861,-1329.9629 212,-1333 240.3819,-1346.6523 269.8504,-1366.8521 291.135,-1382.6995"/>
<polygon fill="#000000" stroke="#000000" stroke-width="2" points="289.0668,-1385.5235 299.1569,-1388.7548 293.2842,-1379.9365 289.0668,-1385.5235"/>
</g>
<!-- リクルートカード -->
<g id="node12" class="node">
<title>リクルートカード</title>
<polygon fill="none" stroke="#000000" points="386.5,-517 257.5,-517 257.5,-481 386.5,-481 386.5,-517"/>
<text text-anchor="middle" x="322" y="-495.3" font-family="Times,serif" font-size="14.00" fill="#000000">リクルートカード</text>
</g>
<!-- 住信SBI銀行&#45;&gt;リクルートカード -->
<g id="edge29" class="edge">
<title>住信SBI銀行&#45;&gt;リクルートカード</title>
<path fill="none" stroke="#000000" stroke-width="2" d="M146.0119,-1292.9017C169.3217,-1187.7486 287.2794,-655.6284 315.79,-527.0138"/>
<polygon fill="#000000" stroke="#000000" stroke-width="2" points="319.2312,-527.6624 317.9784,-517.1419 312.3971,-526.1474 319.2312,-527.6624"/>
</g>
<!-- 住信SBI銀行&#45;&gt;現金 -->
<g id="edge26" class="edge">
<title>住信SBI銀行&#45;&gt;現金</title>
<path fill="none" stroke="#000000" stroke-width="2" d="M166.5152,-1329.161C175.6227,-1336.7451 185.5424,-1346.0951 193,-1356 216.0789,-1386.6523 200.0103,-1410.0664 230,-1434 295.4857,-1486.2616 344.4265,-1428.3183 414,-1475 441.3999,-1493.3845 461.4008,-1526.2041 473.0647,-1549.6515"/>
<polygon fill="#000000" stroke="#000000" stroke-width="2" points="469.9407,-1551.2317 477.4086,-1558.7471 476.2573,-1548.2149 469.9407,-1551.2317"/>
</g>
<!-- 家賃 -->
<g id="node29" class="node">
<title>家賃</title>
<polygon fill="none" stroke="#000000" points="1046,-1241 992,-1241 992,-1205 1046,-1205 1046,-1241"/>
<text text-anchor="middle" x="1019" y="-1219.3" font-family="Times,serif" font-size="14.00" fill="#000000">家賃</text>
</g>
<!-- 住信SBI銀行&#45;&gt;家賃 -->
<g id="edge27" class="edge">
<title>住信SBI銀行&#45;&gt;家賃</title>
<path fill="none" stroke="#000000" stroke-width="2" d="M162.8195,-1292.9795C194.7753,-1267.234 258.8658,-1223 322,-1223 322,-1223 322,-1223 870.5,-1223 908.4372,-1223 951.8261,-1223 981.8647,-1223"/>
<polygon fill="#000000" stroke="#000000" stroke-width="2" points="981.9022,-1226.5001 991.9022,-1223 981.9022,-1219.5001 981.9022,-1226.5001"/>
</g>
<!-- Suica -->
<g id="node13" class="node">
<title>Suica</title>
<polygon fill="none" stroke="#000000" points="513,-1404 457,-1404 457,-1368 513,-1368 513,-1404"/>
<text text-anchor="middle" x="485" y="-1382.3" font-family="Times,serif" font-size="14.00" fill="#000000">Suica</text>
</g>
<!-- ビックカメラSuicaカード&#45;&gt;Suica -->
<g id="edge18" class="edge">
<title>ビックカメラSuicaカード&#45;&gt;Suica</title>
<path fill="none" stroke="#000000" stroke-width="2" d="M414.4538,-1395.0888C425.7462,-1393.6339 436.7529,-1392.2159 446.5853,-1390.9491"/>
<polygon fill="#000000" stroke="#000000" stroke-width="2" points="447.2808,-1394.3886 456.7515,-1389.6394 446.3862,-1387.4459 447.2808,-1394.3886"/>
</g>
<!-- JREポイント -->
<g id="node19" class="node">
<title>JREポイント</title>
<polygon fill="none" stroke="#000000" points="736.5,-1379 635.5,-1379 635.5,-1343 736.5,-1343 736.5,-1379"/>
<text text-anchor="middle" x="686" y="-1357.3" font-family="Times,serif" font-size="14.00" fill="#000000">JREポイント</text>
</g>
<!-- ビックカメラSuicaカード&#45;&gt;JREポイント -->
<g id="edge13" class="edge">
<title>ビックカメラSuicaカード&#45;&gt;JREポイント</title>
<path fill="none" stroke="#000000" d="M414.2926,-1411.8141C426.6308,-1412.3049 439.1206,-1412.7239 451,-1413 481.2141,-1413.7023 489.1214,-1417.5442 519,-1413 557.4971,-1407.1451 599.3296,-1394.1082 631.4965,-1382.5535"/>
<polygon fill="#000000" stroke="#000000" points="632.9631,-1385.744 641.1546,-1379.0247 630.5608,-1379.1691 632.9631,-1385.744"/>
<text text-anchor="middle" x="485" y="-1418.8" font-family="Times,serif" font-size="14.00" fill="#000000">0.5%</text>
</g>
<!-- ビックポイント -->
<g id="node20" class="node">
<title>ビックポイント</title>
<polygon fill="none" stroke="#000000" points="744,-1325 628,-1325 628,-1289 744,-1289 744,-1325"/>
<text text-anchor="middle" x="686" y="-1303.3" font-family="Times,serif" font-size="14.00" fill="#000000">ビックポイント</text>
</g>
<!-- ビックカメラSuicaカード&#45;&gt;ビックポイント -->
<g id="edge16" class="edge">
<title>ビックカメラSuicaカード&#45;&gt;ビックポイント</title>
<path fill="none" stroke="#000000" d="M352.4629,-1388.8866C377.9452,-1374.5402 415.6988,-1355.1227 451,-1344 505.682,-1326.7708 570.1587,-1317.3474 617.7298,-1312.3304"/>
<polygon fill="#000000" stroke="#000000" points="618.3227,-1315.7883 627.9179,-1311.2958 617.6154,-1308.8241 618.3227,-1315.7883"/>
<text text-anchor="middle" x="485" y="-1347.8" font-family="Times,serif" font-size="14.00" fill="#000000">0.5%</text>
</g>
<!-- ビックカメラ -->
<g id="node39" class="node">
<title>ビックカメラ</title>
<polygon fill="none" stroke="#000000" points="1069.5,-1371 968.5,-1371 968.5,-1335 1069.5,-1335 1069.5,-1371"/>
<text text-anchor="middle" x="1019" y="-1349.3" font-family="Times,serif" font-size="14.00" fill="#000000">ビックカメラ</text>
</g>
<!-- ビックカメラSuicaカード&#45;&gt;ビックカメラ -->
<g id="edge14" class="edge">
<title>ビックカメラSuicaカード&#45;&gt;ビックカメラ</title>
<path fill="none" stroke="#000000" stroke-width="2" stroke-dasharray="5,2" d="M397.5044,-1425.1384C403.1072,-1426.7097 408.6551,-1428.3368 414,-1430 478.1228,-1449.9537 488.3444,-1483 555.5,-1483 555.5,-1483 555.5,-1483 870.5,-1483 931.4379,-1483 912.2239,-1416.5284 961,-1380 962.7697,-1378.6747 964.6149,-1377.3922 966.5132,-1376.1539"/>
<polygon fill="#000000" stroke="#000000" stroke-width="2" points="968.3221,-1379.1502 975.106,-1371.012 964.7277,-1373.1435 968.3221,-1379.1502"/>
</g>
<!-- EX予約 -->
<g id="node49" class="node">
<title>EX予約</title>
<polygon fill="none" stroke="#000000" points="1052,-1730 986,-1730 986,-1694 1052,-1694 1052,-1730"/>
<text text-anchor="middle" x="1019" y="-1708.3" font-family="Times,serif" font-size="14.00" fill="#000000">EX予約</text>
</g>
<!-- ビックカメラSuicaカード&#45;&gt;EX予約 -->
<g id="edge23" class="edge">
<title>ビックカメラSuicaカード&#45;&gt;EX予約</title>
<path fill="none" stroke="#000000" stroke-width="2" stroke-dasharray="5,2" d="M323.2708,-1425.1316C328.8623,-1489.6147 357.0719,-1704 485,-1704 485,-1704 485,-1704 870.5,-1704 906.0672,-1704 946.3568,-1706.3166 975.9873,-1708.4565"/>
<polygon fill="#000000" stroke="#000000" stroke-width="2" points="975.7659,-1711.9496 985.9982,-1709.202 976.2858,-1704.969 975.7659,-1711.9496"/>
</g>
<!-- nanaco -->
<g id="node15" class="node">
<title>nanaco</title>
<polygon fill="none" stroke="#000000" points="519,-301 451,-301 451,-265 519,-265 519,-301"/>
<text text-anchor="middle" x="485" y="-279.3" font-family="Times,serif" font-size="14.00" fill="#000000">nanaco</text>
</g>
<!-- リクルートカード&#45;&gt;nanaco -->
<g id="edge49" class="edge">
<title>リクルートカード&#45;&gt;nanaco</title>
<path fill="none" stroke="#000000" stroke-width="2" d="M337.6261,-480.9217C357.669,-456.9618 392.4128,-412.7192 414,-370 425.6002,-347.0442 415.9889,-335.129 432,-315 435.0193,-311.2041 438.621,-307.7522 442.5059,-304.6409"/>
<polygon fill="#000000" stroke="#000000" stroke-width="2" points="444.6773,-307.3911 450.7821,-298.7318 440.6098,-301.6941 444.6773,-307.3911"/>
</g>
<!-- Edy -->
<g id="node16" class="node">
<title>Edy</title>
<polygon fill="none" stroke="#000000" points="512,-847 458,-847 458,-811 512,-811 512,-847"/>
<text text-anchor="middle" x="485" y="-825.3" font-family="Times,serif" font-size="14.00" fill="#000000">Edy</text>
</g>
<!-- リクルートカード&#45;&gt;Edy -->
<g id="edge35" class="edge">
<title>リクルートカード&#45;&gt;Edy</title>
<path fill="none" stroke="#000000" stroke-width="2" d="M330.9958,-517.2123C358.1025,-572.0909 439.1132,-736.1004 471.4506,-801.5687"/>
<polygon fill="#000000" stroke="#000000" stroke-width="2" points="468.4653,-803.4281 476.032,-810.844 474.7414,-800.3281 468.4653,-803.4281"/>
</g>
<!-- Ponta -->
<g id="node17" class="node">
<title>Ponta</title>
<polygon fill="none" stroke="#000000" points="714.5,-784 657.5,-784 657.5,-748 714.5,-748 714.5,-784"/>
<text text-anchor="middle" x="686" y="-762.3" font-family="Times,serif" font-size="14.00" fill="#000000">Ponta</text>
</g>
<!-- リクルートカード&#45;&gt;Ponta -->
<g id="edge44" class="edge">
<title>リクルートカード&#45;&gt;Ponta</title>
<path fill="none" stroke="#000000" d="M329.2821,-517.2045C343.8279,-551.3937 379.6421,-625.5724 432,-668 497.0674,-720.7266 593.7437,-747.4124 647.1024,-758.8462"/>
<polygon fill="#000000" stroke="#000000" points="646.6723,-762.3313 657.1744,-760.9327 648.0924,-755.4768 646.6723,-762.3313"/>
<text text-anchor="middle" x="485" y="-720.8" font-family="Times,serif" font-size="14.00" fill="#000000">1.2%</text>
</g>
<!-- NHK -->
<g id="node33" class="node">
<title>NHK</title>
<polygon fill="none" stroke="#000000" points="1046,-513 992,-513 992,-477 1046,-477 1046,-513"/>
<text text-anchor="middle" x="1019" y="-491.3" font-family="Times,serif" font-size="14.00" fill="#000000">NHK</text>
</g>
<!-- リクルートカード&#45;&gt;NHK -->
<g id="edge30" class="edge">
<title>リクルートカード&#45;&gt;NHK</title>
<path fill="none" stroke="#000000" stroke-width="2" d="M386.6479,-499C416.5731,-499 452.5981,-499 485,-499 485,-499 485,-499 870.5,-499 908.451,-499 951.8378,-497.6784 981.8722,-496.5545"/>
<polygon fill="#000000" stroke="#000000" stroke-width="2" points="982.0503,-500.0503 991.9081,-496.1677 981.7807,-493.0555 982.0503,-500.0503"/>
</g>
<!-- ASAHIネット -->
<g id="node34" class="node">
<title>ASAHIネット</title>
<polygon fill="none" stroke="#000000" points="1073.5,-401 964.5,-401 964.5,-365 1073.5,-365 1073.5,-401"/>
<text text-anchor="middle" x="1019" y="-379.3" font-family="Times,serif" font-size="14.00" fill="#000000">ASAHIネット</text>
</g>
<!-- リクルートカード&#45;&gt;ASAHIネット -->
<g id="edge31" class="edge">
<title>リクルートカード&#45;&gt;ASAHIネット</title>
<path fill="none" stroke="#000000" stroke-width="2" d="M332.7267,-480.9227C355.703,-444.7713 413.4463,-367 485,-367 485,-367 485,-367 870.5,-367 898.0845,-367 928.3863,-369.7628 954.3839,-372.9923"/>
<polygon fill="#000000" stroke="#000000" stroke-width="2" points="954.127,-376.4881 964.493,-374.2977 955.0236,-369.5458 954.127,-376.4881"/>
</g>
<!-- アイハート -->
<g id="node37" class="node">
<title>アイハート</title>
<polygon fill="none" stroke="#000000" points="1062,-347 976,-347 976,-311 1062,-311 1062,-347"/>
<text text-anchor="middle" x="1019" y="-325.3" font-family="Times,serif" font-size="14.00" fill="#000000">アイハート</text>
</g>
<!-- リクルートカード&#45;&gt;アイハート -->
<g id="edge34" class="edge">
<title>リクルートカード&#45;&gt;アイハート</title>
<path fill="none" stroke="#000000" stroke-width="2" d="M334.2815,-480.807C364.5502,-436.9517 443.2936,-329 485,-329 485,-329 485,-329 870.5,-329 902.072,-329 937.4196,-329 965.7061,-329"/>
<polygon fill="#000000" stroke="#000000" stroke-width="2" points="965.7878,-332.5001 975.7878,-329 965.7878,-325.5001 965.7878,-332.5001"/>
</g>
<!-- Amazon -->
<g id="node47" class="node">
<title>Amazon</title>
<polygon fill="none" stroke="#000000" points="1056,-455 982,-455 982,-419 1056,-419 1056,-455"/>
<text text-anchor="middle" x="1019" y="-433.3" font-family="Times,serif" font-size="14.00" fill="#000000">Amazon</text>
</g>
<!-- リクルートカード&#45;&gt;Amazon -->
<g id="edge32" class="edge">
<title>リクルートカード&#45;&gt;Amazon</title>
<path fill="none" stroke="#000000" stroke-width="2" d="M339.1643,-480.8759C366.9836,-453.5605 424.8926,-405 485,-405 485,-405 485,-405 870.5,-405 905.0616,-405 943.153,-413.3856 972.1034,-421.5715"/>
<polygon fill="#000000" stroke="#000000" stroke-width="2" points="971.3613,-425.001 981.9415,-424.4446 973.3236,-418.2816 971.3613,-425.001"/>
</g>
<!-- じゃらん -->
<g id="node50" class="node">
<title>じゃらん</title>
<polygon fill="none" stroke="#000000" points="1056,-732 982,-732 982,-696 1056,-696 1056,-732"/>
<text text-anchor="middle" x="1019" y="-710.3" font-family="Times,serif" font-size="14.00" fill="#000000">じゃらん</text>
</g>
<!-- リクルートカード&#45;&gt;じゃらん -->
<g id="edge33" class="edge">
<title>リクルートカード&#45;&gt;じゃらん</title>
<path fill="none" stroke="#000000" stroke-width="2" d="M352.4856,-517.0375C401.3814,-545.2097 501.0912,-599.5725 592,-630 662.337,-653.5421 875.9638,-690.3849 971.7051,-706.2771"/>
<polygon fill="#000000" stroke="#000000" stroke-width="2" points="971.2513,-709.7495 981.6885,-707.9292 972.3942,-702.8434 971.2513,-709.7495"/>
</g>
<!-- Suica&#45;&gt;JREポイント -->
<g id="edge24" class="edge">
<title>Suica&#45;&gt;JREポイント</title>
<path fill="none" stroke="#000000" d="M507.443,-1367.845C516.1445,-1361.8996 526.5269,-1356.0427 537,-1353 565.2351,-1344.797 597.7221,-1345.4403 625.1408,-1348.6981"/>
<polygon fill="#000000" stroke="#000000" points="625.0071,-1352.2112 635.3817,-1350.0618 625.9311,-1345.2724 625.0071,-1352.2112"/>
<text text-anchor="middle" x="555.5" y="-1356.8" font-family="Times,serif" font-size="14.00" fill="#000000">1.5%</text>
</g>
<!-- 電車 -->
<g id="node31" class="node">
<title>電車</title>
<polygon fill="none" stroke="#000000" points="1046,-1508 992,-1508 992,-1472 1046,-1472 1046,-1508"/>
<text text-anchor="middle" x="1019" y="-1486.3" font-family="Times,serif" font-size="14.00" fill="#000000">電車</text>
</g>
<!-- Suica&#45;&gt;電車 -->
<g id="edge19" class="edge">
<title>Suica&#45;&gt;電車</title>
<path fill="none" stroke="#000000" stroke-width="2" d="M513.1688,-1395.3299C520.8478,-1397.6913 529.2006,-1400.0951 537,-1402 700.902,-1442.0299 900.1667,-1472.8563 981.6083,-1484.7111"/>
<polygon fill="#000000" stroke="#000000" stroke-width="2" points="981.4536,-1488.225 991.8516,-1486.1922 982.4554,-1481.2971 981.4536,-1488.225"/>
</g>
<!-- 松屋 -->
<g id="node45" class="node">
<title>松屋</title>
<polygon fill="none" stroke="#000000" points="1046,-1425 992,-1425 992,-1389 1046,-1389 1046,-1425"/>
<text text-anchor="middle" x="1019" y="-1403.3" font-family="Times,serif" font-size="14.00" fill="#000000">松屋</text>
</g>
<!-- Suica&#45;&gt;松屋 -->
<g id="edge20" class="edge">
<title>Suica&#45;&gt;松屋</title>
<path fill="none" stroke="#000000" stroke-width="2" d="M513.3331,-1387.1142C602.9849,-1390.6399 880.5028,-1401.5535 981.6385,-1405.5307"/>
<polygon fill="#000000" stroke="#000000" stroke-width="2" points="981.5672,-1409.0305 991.697,-1405.9263 981.8423,-1402.0359 981.5672,-1409.0305"/>
</g>
<!-- 吉野家 -->
<g id="node46" class="node">
<title>吉野家</title>
<polygon fill="none" stroke="#000000" points="1048.5,-1295 989.5,-1295 989.5,-1259 1048.5,-1259 1048.5,-1295"/>
<text text-anchor="middle" x="1019" y="-1273.3" font-family="Times,serif" font-size="14.00" fill="#000000">吉野家</text>
</g>
<!-- Suica&#45;&gt;吉野家 -->
<g id="edge21" class="edge">
<title>Suica&#45;&gt;吉野家</title>
<path fill="none" stroke="#000000" stroke-width="2" d="M513.3216,-1368.418C515.3406,-1366.6986 517.2621,-1364.8873 519,-1363 530.0536,-1350.9963 526.8956,-1343.813 537,-1331 557.6426,-1304.8238 561.0091,-1292.2831 592,-1280 725.7271,-1226.9977 902.048,-1252.6193 979.5669,-1268.1271"/>
<polygon fill="#000000" stroke="#000000" stroke-width="2" points="978.8982,-1271.5627 989.3979,-1270.1467 980.3068,-1264.7059 978.8982,-1271.5627"/>
</g>
<!-- 切符 -->
<g id="node26" class="node">
<title>切符</title>
<polygon fill="none" stroke="#000000" points="897.5,-1547 843.5,-1547 843.5,-1511 897.5,-1511 897.5,-1547"/>
<text text-anchor="middle" x="870.5" y="-1525.3" font-family="Times,serif" font-size="14.00" fill="#000000">切符</text>
</g>
<!-- 現金&#45;&gt;切符 -->
<g id="edge61" class="edge">
<title>現金&#45;&gt;切符</title>
<path fill="none" stroke="#000000" stroke-width="2" d="M512.1076,-1569.9573C579.7091,-1557.614 755.8639,-1535.5045 833.1889,-1529.4508"/>
<polygon fill="#000000" stroke="#000000" stroke-width="2" points="833.7029,-1532.9228 843.4223,-1528.7059 833.1946,-1525.9412 833.7029,-1532.9228"/>
</g>
<!-- 回数カード -->
<g id="node27" class="node">
<title>回数カード</title>
<polygon fill="none" stroke="#000000" points="914.5,-1601 826.5,-1601 826.5,-1565 914.5,-1565 914.5,-1601"/>
<text text-anchor="middle" x="870.5" y="-1579.3" font-family="Times,serif" font-size="14.00" fill="#000000">回数カード</text>
</g>
<!-- 現金&#45;&gt;回数カード -->
<g id="edge64" class="edge">
<title>現金&#45;&gt;回数カード</title>
<path fill="none" stroke="#000000" stroke-width="2" d="M512.1076,-1577.4219C575.1191,-1578.4026 732.4432,-1580.8513 816.1363,-1582.1539"/>
<polygon fill="#000000" stroke="#000000" stroke-width="2" points="816.1589,-1585.6546 826.2121,-1582.3107 816.2679,-1578.6554 816.1589,-1585.6546"/>
</g>
<!-- 飲食店 -->
<g id="node42" class="node">
<title>飲食店</title>
<polygon fill="none" stroke="#000000" points="1048.5,-1676 989.5,-1676 989.5,-1640 1048.5,-1640 1048.5,-1676"/>
<text text-anchor="middle" x="1019" y="-1654.3" font-family="Times,serif" font-size="14.00" fill="#000000">飲食店</text>
</g>
<!-- 現金&#45;&gt;飲食店 -->
<g id="edge60" class="edge">
<title>現金&#45;&gt;飲食店</title>
<path fill="none" stroke="#000000" stroke-width="2" d="M511.561,-1595.0193C519.4475,-1599.612 528.3082,-1604.0719 537,-1607 560.3522,-1614.8668 567.5201,-1611.1813 592,-1614 734.4797,-1630.4054 904.0512,-1647.0109 979.4624,-1654.2445"/>
<polygon fill="#000000" stroke="#000000" stroke-width="2" points="979.1777,-1657.7332 989.4657,-1655.202 979.8448,-1650.765 979.1777,-1657.7332"/>
</g>
<!-- nanacoポイント -->
<g id="node22" class="node">
<title>nanacoポイント</title>
<polygon fill="none" stroke="#000000" points="748.5,-217 623.5,-217 623.5,-181 748.5,-181 748.5,-217"/>
<text text-anchor="middle" x="686" y="-195.3" font-family="Times,serif" font-size="14.00" fill="#000000">nanacoポイント</text>
</g>
<!-- nanaco&#45;&gt;nanacoポイント -->
<g id="edge51" class="edge">
<title>nanaco&#45;&gt;nanacoポイント</title>
<path fill="none" stroke="#000000" d="M492.6126,-264.874C503.2657,-240.4928 522.8963,-199.229 537,-191 560.1111,-177.5155 588.8286,-176.2146 614.8661,-179.4609"/>
<polygon fill="#000000" stroke="#000000" points="614.6684,-182.9698 625.074,-180.9762 615.6963,-176.0457 614.6684,-182.9698"/>
<text text-anchor="middle" x="555.5" y="-194.8" font-family="Times,serif" font-size="14.00" fill="#000000">1%</text>
</g>
<!-- iTunesカード -->
<g id="node28" class="node">
<title>iTunesカード</title>
<polygon fill="none" stroke="#000000" points="924,-301 817,-301 817,-265 924,-265 924,-301"/>
<text text-anchor="middle" x="870.5" y="-279.3" font-family="Times,serif" font-size="14.00" fill="#000000">iTunesカード</text>
</g>
<!-- nanaco&#45;&gt;iTunesカード -->
<g id="edge53" class="edge">
<title>nanaco&#45;&gt;iTunesカード</title>
<path fill="none" stroke="#000000" stroke-width="2" d="M519.2106,-283C583.7105,-283 724.2047,-283 806.6402,-283"/>
<polygon fill="#000000" stroke="#000000" stroke-width="2" points="806.8884,-286.5001 816.8884,-283 806.8883,-279.5001 806.8884,-286.5001"/>
</g>
<!-- セブンイレブン -->
<g id="node30" class="node">
<title>セブンイレブン</title>
<polygon fill="none" stroke="#000000" points="1076,-239 962,-239 962,-203 1076,-203 1076,-239"/>
<text text-anchor="middle" x="1019" y="-217.3" font-family="Times,serif" font-size="14.00" fill="#000000">セブンイレブン</text>
</g>
<!-- nanaco&#45;&gt;セブンイレブン -->
<g id="edge50" class="edge">
<title>nanaco&#45;&gt;セブンイレブン</title>
<path fill="none" stroke="#000000" stroke-width="2" d="M519.2164,-279.0273C606.1386,-268.9352 836.6898,-242.1671 951.7369,-228.8096"/>
<polygon fill="#000000" stroke="#000000" stroke-width="2" points="952.3013,-232.2676 961.8309,-227.6376 951.4939,-225.3144 952.3013,-232.2676"/>
</g>
<!-- Edy&#45;&gt;Ponta -->
<g id="edge43" class="edge">
<title>Edy&#45;&gt;Ponta</title>
<path fill="none" stroke="#000000" d="M512.0883,-811.9852C519.9095,-807.6046 528.6044,-803.223 537,-800 573.1175,-786.135 616.4287,-777.0343 647.0224,-771.7686"/>
<polygon fill="#000000" stroke="#000000" points="647.9895,-775.156 657.2807,-770.0645 646.8423,-768.2506 647.9895,-775.156"/>
<text text-anchor="middle" x="555.5" y="-803.8" font-family="Times,serif" font-size="14.00" fill="#000000">0.5%</text>
</g>
<!-- ヤマト運輸 -->
<g id="node36" class="node">
<title>ヤマト運輸</title>
<polygon fill="none" stroke="#000000" points="1063,-901 975,-901 975,-865 1063,-865 1063,-901"/>
<text text-anchor="middle" x="1019" y="-879.3" font-family="Times,serif" font-size="14.00" fill="#000000">ヤマト運輸</text>
</g>
<!-- Edy&#45;&gt;ヤマト運輸 -->
<g id="edge36" class="edge">
<title>Edy&#45;&gt;ヤマト運輸</title>
<path fill="none" stroke="#000000" stroke-width="2" d="M512.0506,-837.2727C520.0208,-839.4403 528.8032,-841.5685 537,-843 690.5623,-869.8181 874.8862,-878.7758 964.5963,-881.6738"/>
<polygon fill="#000000" stroke="#000000" stroke-width="2" points="964.6957,-885.1785 974.7994,-881.9903 964.9128,-878.1818 964.6957,-885.1785"/>
</g>
<!-- ウェルシア -->
<g id="node38" class="node">
<title>ウェルシア</title>
<polygon fill="none" stroke="#000000" points="1062.5,-847 975.5,-847 975.5,-811 1062.5,-811 1062.5,-847"/>
<text text-anchor="middle" x="1019" y="-825.3" font-family="Times,serif" font-size="14.00" fill="#000000">ウェルシア</text>
</g>
<!-- Edy&#45;&gt;ウェルシア -->
<g id="edge41" class="edge">
<title>Edy&#45;&gt;ウェルシア</title>
<path fill="none" stroke="#000000" stroke-width="2" d="M512.2153,-829C596.3051,-829 853.0574,-829 965.4082,-829"/>
<polygon fill="#000000" stroke="#000000" stroke-width="2" points="965.4987,-832.5001 975.4987,-829 965.4986,-825.5001 965.4987,-832.5001"/>
</g>
<!-- ヨドバシカメラ -->
<g id="node40" class="node">
<title>ヨドバシカメラ</title>
<polygon fill="none" stroke="#000000" points="1077,-1025 961,-1025 961,-989 1077,-989 1077,-1025"/>
<text text-anchor="middle" x="1019" y="-1003.3" font-family="Times,serif" font-size="14.00" fill="#000000">ヨドバシカメラ</text>
</g>
<!-- Edy&#45;&gt;ヨドバシカメラ -->
<g id="edge38" class="edge">
<title>Edy&#45;&gt;ヨドバシカメラ</title>
<path fill="none" stroke="#000000" stroke-width="2" d="M490.9797,-847.1691C503.4545,-881.7728 535.8563,-956.4879 592,-988 651.4928,-1021.3919 845.8158,-1016.6173 950.5873,-1011.2767"/>
<polygon fill="#000000" stroke="#000000" stroke-width="2" points="950.9452,-1014.7628 960.7476,-1010.7427 950.5777,-1007.7725 950.9452,-1014.7628"/>
</g>
<!-- 餃子の王将 -->
<g id="node41" class="node">
<title>餃子の王将</title>
<polygon fill="none" stroke="#000000" points="1063,-567 975,-567 975,-531 1063,-531 1063,-567"/>
<text text-anchor="middle" x="1019" y="-545.3" font-family="Times,serif" font-size="14.00" fill="#000000">餃子の王将</text>
</g>
<!-- Edy&#45;&gt;餃子の王将 -->
<g id="edge59" class="edge">
<title>Edy&#45;&gt;餃子の王将</title>
<path fill="none" stroke="#000000" stroke-width="2" d="M492.1658,-810.6056C514.4472,-753.6136 581.643,-583.3458 592,-576 704.1893,-496.4282 877.4817,-517.8413 964.7882,-535.7823"/>
<polygon fill="#000000" stroke="#000000" stroke-width="2" points="964.2369,-539.2431 974.745,-537.8905 965.687,-532.3949 964.2369,-539.2431"/>
</g>
<!-- FRESCO -->
<g id="node43" class="node">
<title>FRESCO</title>
<polygon fill="none" stroke="#000000" points="1059,-678 979,-678 979,-642 1059,-642 1059,-678"/>
<text text-anchor="middle" x="1019" y="-656.3" font-family="Times,serif" font-size="14.00" fill="#000000">FRESCO</text>
</g>
<!-- Edy&#45;&gt;FRESCO -->
<g id="edge56" class="edge">
<title>Edy&#45;&gt;FRESCO</title>
<path fill="none" stroke="#000000" stroke-width="2" d="M500.7801,-810.8629C520.0749,-789.9559 554.7861,-756.2628 592,-739 718.9069,-680.1304 886.1886,-665.0969 968.6339,-661.2808"/>
<polygon fill="#000000" stroke="#000000" stroke-width="2" points="968.8952,-664.7729 978.7371,-660.8502 968.5971,-657.7793 968.8952,-664.7729"/>
</g>
<!-- 業務スーパー -->
<g id="node44" class="node">
<title>業務スーパー</title>
<polygon fill="none" stroke="#000000" points="1069.5,-1187 968.5,-1187 968.5,-1151 1069.5,-1151 1069.5,-1187"/>
<text text-anchor="middle" x="1019" y="-1165.3" font-family="Times,serif" font-size="14.00" fill="#000000">業務スーパー</text>
</g>
<!-- Edy&#45;&gt;業務スーパー -->
<g id="edge55" class="edge">
<title>Edy&#45;&gt;業務スーパー</title>
<path fill="none" stroke="#000000" stroke-width="2" d="M489.0008,-847.2496C502.217,-905.7948 546.2483,-1087.1584 592,-1123 698.3924,-1206.3472 868.1976,-1194.7265 958.2749,-1180.838"/>
<polygon fill="#000000" stroke="#000000" stroke-width="2" points="959.0058,-1184.2657 968.3261,-1179.2275 957.8982,-1177.3538 959.0058,-1184.2657"/>
</g>
<!-- Ponta&#45;&gt;じゃらん -->
<g id="edge45" class="edge">
<title>Ponta&#45;&gt;じゃらん</title>
<path fill="none" stroke="#000000" d="M714.875,-772.463C764.0752,-782.007 866.2761,-795.3758 943,-762 957.8827,-755.5258 973.2162,-746.3901 986.178,-737.8237"/>
<polygon fill="#000000" stroke="#000000" points="988.4225,-740.5307 994.7379,-732.0239 984.496,-734.7356 988.4225,-740.5307"/>
</g>
<!-- Tポイント -->
<g id="node18" class="node">
<title>Tポイント</title>
<polygon fill="none" stroke="#000000" points="727.5,-979 644.5,-979 644.5,-943 727.5,-943 727.5,-979"/>
<text text-anchor="middle" x="686" y="-957.3" font-family="Times,serif" font-size="14.00" fill="#000000">Tポイント</text>
</g>
<!-- JREポイント&#45;&gt;Suica -->
<g id="edge25" class="edge">
<title>JREポイント&#45;&gt;Suica</title>
<path fill="none" stroke="#000000" d="M635.3513,-1342.9787C605.8837,-1335.3063 568.465,-1330.4741 537,-1342 526.1177,-1345.9863 515.9468,-1353.3686 507.5374,-1360.9626"/>
<polygon fill="#000000" stroke="#000000" points="505.1075,-1358.4435 500.3398,-1367.9049 509.9672,-1363.4818 505.1075,-1358.4435"/>
</g>
<!-- ビックポイント&#45;&gt;ビックカメラ -->
<g id="edge17" class="edge">
<title>ビックポイント&#45;&gt;ビックカメラ</title>
<path fill="none" stroke="#000000" d="M744.2484,-1306.1304C792.7664,-1306.4282 863.4589,-1309.2418 924,-1321 937.0695,-1323.5383 950.8113,-1327.4172 963.6565,-1331.6087"/>
<polygon fill="#000000" stroke="#000000" points="962.6843,-1334.9745 973.2785,-1334.8579 964.9239,-1328.3424 962.6843,-1334.9745"/>
</g>
<!-- Amazonポイント -->
<g id="node21" class="node">
<title>Amazonポイント</title>
<polygon fill="none" stroke="#000000" points="751.5,-470 620.5,-470 620.5,-434 751.5,-434 751.5,-470"/>
<text text-anchor="middle" x="686" y="-448.3" font-family="Times,serif" font-size="14.00" fill="#000000">Amazonポイント</text>
</g>
<!-- Amazonポイント&#45;&gt;Amazon -->
<g id="edge48" class="edge">
<title>Amazonポイント&#45;&gt;Amazon</title>
<path fill="none" stroke="#000000" d="M751.7901,-443.5327C816.563,-438.7699 913.908,-434.5887 971.4901,-434.2473"/>
<polygon fill="#000000" stroke="#000000" points="971.7687,-437.7469 981.7624,-434.229 971.7562,-430.747 971.7687,-437.7469"/>
</g>
<!-- nanacoポイント&#45;&gt;nanaco -->
<g id="edge52" class="edge">
<title>nanacoポイント&#45;&gt;nanaco</title>
<path fill="none" stroke="#000000" d="M623.2216,-206.2545C595.5783,-211.2984 563.4479,-219.7838 537,-234 526.0142,-239.905 515.6365,-248.7304 507.0837,-257.2711"/>
<polygon fill="#000000" stroke="#000000" points="504.4399,-254.9719 500.0681,-264.6227 509.504,-259.8046 504.4399,-254.9719"/>
</g>
<!-- FRESCOポイント -->
<g id="node23" class="node">
<title>FRESCOポイント</title>
<polygon fill="none" stroke="#000000" points="754.5,-621 617.5,-621 617.5,-585 754.5,-585 754.5,-621"/>
<text text-anchor="middle" x="686" y="-599.3" font-family="Times,serif" font-size="14.00" fill="#000000">FRESCOポイント</text>
</g>
<!-- FRESCOポイント&#45;&gt;FRESCO -->
<g id="edge58" class="edge">
<title>FRESCOポイント&#45;&gt;FRESCO</title>
<path fill="none" stroke="#000000" d="M754.594,-614.7413C818.3553,-625.6554 911.8265,-641.655 968.8629,-651.418"/>
<polygon fill="#000000" stroke="#000000" points="968.281,-654.8692 978.7282,-653.1066 969.4621,-647.9695 968.281,-654.8692"/>
</g>
<!-- ヨドバシゴールドポイント -->
<g id="node24" class="node">
<title>ヨドバシゴールドポイント</title>
<polygon fill="none" stroke="#000000" points="780,-1114 592,-1114 592,-1078 780,-1078 780,-1114"/>
<text text-anchor="middle" x="686" y="-1092.3" font-family="Times,serif" font-size="14.00" fill="#000000">ヨドバシゴールドポイント</text>
</g>
<!-- ヨドバシゴールドポイント&#45;&gt;ヨドバシカメラ -->
<g id="edge40" class="edge">
<title>ヨドバシゴールドポイント&#45;&gt;ヨドバシカメラ</title>
<path fill="none" stroke="#000000" d="M753.3875,-1077.9895C810.9663,-1062.6006 893.4083,-1040.5666 951.1264,-1025.1404"/>
<polygon fill="#000000" stroke="#000000" points="952.1286,-1028.4955 960.8858,-1022.532 950.3211,-1021.7328 952.1286,-1028.4955"/>
</g>
<!-- はぴeポイント -->
<g id="node25" class="node">
<title>はぴeポイント</title>
<polygon fill="none" stroke="#000000" points="741,-108 631,-108 631,-72 741,-72 741,-108"/>
<text text-anchor="middle" x="686" y="-86.3" font-family="Times,serif" font-size="14.00" fill="#000000">はぴeポイント</text>
</g>
<!-- はぴeポイント&#45;&gt;関西電力 -->
<g id="edge12" class="edge">
<title>はぴeポイント&#45;&gt;関西電力</title>
<path fill="none" stroke="#000000" d="M741.362,-100.4739C805.6984,-112.6456 910.7787,-132.5257 971.536,-144.0203"/>
<polygon fill="#000000" stroke="#000000" points="971.1428,-147.508 981.6192,-145.928 972.4441,-140.63 971.1428,-147.508"/>
</g>
<!-- 切符&#45;&gt;現金 -->
<g id="edge63" class="edge">
<title>切符&#45;&gt;現金</title>
<path fill="none" stroke="#000000" d="M843.4223,-1536.0372C775.8529,-1548.3777 599.6996,-1570.4881 522.3453,-1576.5465"/>
<polygon fill="#000000" stroke="#000000" points="521.8269,-1573.0749 512.1076,-1577.2921 522.3355,-1580.0564 521.8269,-1573.0749"/>
</g>
<!-- 切符&#45;&gt;電車 -->
<g id="edge62" class="edge">
<title>切符&#45;&gt;電車</title>
<path fill="none" stroke="#000000" stroke-width="2" d="M897.7372,-1521.8468C921.3914,-1515.6346 955.8597,-1506.5823 982.0073,-1499.7152"/>
<polygon fill="#000000" stroke="#000000" stroke-width="2" points="983.1525,-1503.0333 991.9355,-1497.1079 981.3744,-1496.2628 983.1525,-1503.0333"/>
</g>
<!-- 回数カード&#45;&gt;現金 -->
<g id="edge66" class="edge">
<title>回数カード&#45;&gt;現金</title>
<path fill="none" stroke="#000000" d="M826.4012,-1591.5802C817.3714,-1593.0043 807.9058,-1594.2579 799,-1595 798.5571,-1595.0369 798.4444,-1595.0011 798,-1595 608.4856,-1594.54 571.2823,-1597.483 537,-1592 532.1523,-1591.2247 527.1172,-1590.141 522.1732,-1588.9071"/>
<polygon fill="#000000" stroke="#000000" points="522.8096,-1585.4533 512.2422,-1586.2141 520.9776,-1592.2093 522.8096,-1585.4533"/>
<text text-anchor="middle" x="686" y="-1598.8" font-family="Times,serif" font-size="14.00" fill="#000000">10%</text>
</g>
<!-- 大阪地下鉄 -->
<g id="node32" class="node">
<title>大阪地下鉄</title>
<polygon fill="none" stroke="#000000" points="1063,-1601 975,-1601 975,-1565 1063,-1565 1063,-1601"/>
<text text-anchor="middle" x="1019" y="-1579.3" font-family="Times,serif" font-size="14.00" fill="#000000">大阪地下鉄</text>
</g>
<!-- 回数カード&#45;&gt;大阪地下鉄 -->
<g id="edge65" class="edge">
<title>回数カード&#45;&gt;大阪地下鉄</title>
<path fill="none" stroke="#000000" stroke-width="2" d="M914.6528,-1583C930.3707,-1583 948.2545,-1583 964.7223,-1583"/>
<polygon fill="#000000" stroke="#000000" stroke-width="2" points="964.7609,-1586.5001 974.7609,-1583 964.7608,-1579.5001 964.7609,-1586.5001"/>
</g>
<!-- iTunes -->
<g id="node48" class="node">
<title>iTunes</title>
<polygon fill="none" stroke="#000000" points="1051.5,-293 986.5,-293 986.5,-257 1051.5,-257 1051.5,-293"/>
<text text-anchor="middle" x="1019" y="-271.3" font-family="Times,serif" font-size="14.00" fill="#000000">iTunes</text>
</g>
<!-- iTunesカード&#45;&gt;iTunes -->
<g id="edge54" class="edge">
<title>iTunesカード&#45;&gt;iTunes</title>
<path fill="none" stroke="#000000" stroke-width="2" d="M924.1119,-280.1118C941.1494,-279.194 959.7618,-278.1913 975.954,-277.319"/>
<polygon fill="#000000" stroke="#000000" stroke-width="2" points="976.407,-280.7997 986.2042,-276.7668 976.0304,-273.8099 976.407,-280.7997"/>
</g>
<!-- 関西電力&#45;&gt;はぴeポイント -->
<g id="edge11" class="edge">
<title>関西電力&#45;&gt;はぴeポイント</title>
<path fill="none" stroke="#000000" d="M1000.9173,-134.9878C983.0913,-118.6086 954.2034,-95.5793 924,-86 867.7332,-68.1544 800.1604,-71.4687 751.4158,-77.8856"/>
<polygon fill="#000000" stroke="#000000" points="750.7313,-74.4471 741.3109,-79.2955 751.6986,-81.3799 750.7313,-74.4471"/>
<text text-anchor="middle" x="870.5" y="-89.8" font-family="Times,serif" font-size="14.00" fill="#000000">0.8%, 0.5%</text>
</g>
<!-- ヤマト運輸&#45;&gt;Tポイント -->
<g id="edge37" class="edge">
<title>ヤマト運輸&#45;&gt;Tポイント</title>
<path fill="none" stroke="#000000" d="M991.7631,-901.1554C977.6706,-909.9225 959.9142,-920.0264 943,-927 875.9054,-954.6627 791.3689,-960.9665 737.9832,-961.8433"/>
<polygon fill="#000000" stroke="#000000" points="737.6984,-958.346 727.7358,-961.951 737.772,-965.3456 737.6984,-958.346"/>
<text text-anchor="middle" x="870.5" y="-959.8" font-family="Times,serif" font-size="14.00" fill="#000000">0.5%</text>
</g>
<!-- ウェルシア&#45;&gt;Tポイント -->
<g id="edge42" class="edge">
<title>ウェルシア&#45;&gt;Tポイント</title>
<path fill="none" stroke="#000000" d="M975.3872,-846.2879C914.0123,-870.6167 802.3833,-914.8661 737.1652,-940.7183"/>
<polygon fill="#000000" stroke="#000000" points="735.5079,-937.6102 727.5014,-944.549 738.0874,-944.1176 735.5079,-937.6102"/>
<text text-anchor="middle" x="870.5" y="-911.8" font-family="Times,serif" font-size="14.00" fill="#000000">1%</text>
</g>
<!-- ビックカメラ&#45;&gt;ビックポイント -->
<g id="edge15" class="edge">
<title>ビックカメラ&#45;&gt;ビックポイント</title>
<path fill="none" stroke="#000000" stroke-dasharray="5,2" d="M968.4641,-1346.0191C911.1981,-1338.1084 817.5747,-1325.1755 753.9481,-1316.3862"/>
<polygon fill="#000000" stroke="#000000" points="754.3891,-1312.914 744.0042,-1315.0126 753.4311,-1319.8481 754.3891,-1312.914"/>
<text text-anchor="middle" x="870.5" y="-1342.8" font-family="Times,serif" font-size="14.00" fill="#000000">9.5%</text>
</g>
<!-- ヨドバシカメラ&#45;&gt;ヨドバシゴールドポイント -->
<g id="edge39" class="edge">
<title>ヨドバシカメラ&#45;&gt;ヨドバシゴールドポイント</title>
<path fill="none" stroke="#000000" d="M1008.9626,-1025.02C994.098,-1049.6158 963.6626,-1092.625 924,-1110 870.7965,-1133.3069 804.4051,-1126.8546 755.2716,-1116.2658"/>
<polygon fill="#000000" stroke="#000000" points="755.8981,-1112.8191 745.3723,-1114.0267 754.3538,-1119.6467 755.8981,-1112.8191"/>
<text text-anchor="middle" x="870.5" y="-1128.8" font-family="Times,serif" font-size="14.00" fill="#000000">10%</text>
</g>
<!-- FRESCO&#45;&gt;FRESCOポイント -->
<g id="edge57" class="edge">
<title>FRESCO&#45;&gt;FRESCOポイント</title>
<path fill="none" stroke="#000000" d="M999.318,-641.8552C981.2615,-626.5354 952.9904,-605.7391 924,-597 872.5686,-581.4961 812.0179,-583.2804 764.8626,-588.7952"/>
<polygon fill="#000000" stroke="#000000" points="764.1966,-585.3511 754.7077,-590.064 765.0645,-592.2971 764.1966,-585.3511"/>
<text text-anchor="middle" x="870.5" y="-600.8" font-family="Times,serif" font-size="14.00" fill="#000000">0.5%</text>
</g>
<!-- 吉野家&#45;&gt;Tポイント -->
<g id="edge22" class="edge">
<title>吉野家&#45;&gt;Tポイント</title>
<path fill="none" stroke="#000000" d="M989.3383,-1269.1131C979.0075,-1264.9877 968.2102,-1258.8821 961,-1250 915.2724,-1193.669 967.8946,-1148.7707 924,-1091 877.2083,-1029.4163 792.4655,-993.3379 737.746,-975.3901"/>
<polygon fill="#000000" stroke="#000000" points="738.4847,-971.952 727.894,-972.2478 736.3576,-978.621 738.4847,-971.952"/>
<text text-anchor="middle" x="870.5" y="-1094.8" font-family="Times,serif" font-size="14.00" fill="#000000">0.5%</text>
</g>
<!-- Amazon&#45;&gt;Amazonポイント -->
<g id="edge47" class="edge">
<title>Amazon&#45;&gt;Amazonポイント</title>
<path fill="none" stroke="#000000" d="M981.7624,-443.1257C928.8672,-448.0419 830.7837,-452.902 762.1216,-454.3454"/>
<polygon fill="#000000" stroke="#000000" points="761.7223,-450.8522 751.7901,-454.5402 761.8543,-457.851 761.7223,-450.8522"/>
</g>
<!-- じゃらん&#45;&gt;Ponta -->
<g id="edge46" class="edge">
<title>じゃらん&#45;&gt;Ponta</title>
<path fill="none" stroke="#000000" d="M981.7612,-719.8151C918.2218,-729.7371 789.4805,-749.8409 724.8544,-759.9326"/>
<polygon fill="#000000" stroke="#000000" points="724.0198,-756.5205 714.6796,-761.5215 725.0999,-763.4366 724.0198,-756.5205"/>
<text text-anchor="middle" x="870.5" y="-748.8" font-family="Times,serif" font-size="14.00" fill="#000000">2%</text>
</g>
</g>
</svg>
