<?xml version="1.0" encoding="UTF-8" standalone="no"?>
<!DOCTYPE svg PUBLIC "-//W3C//DTD SVG 1.1//EN"
 "http://www.w3.org/Graphics/SVG/1.1/DTD/svg11.dtd">
<!-- Generated by graphviz version 2.40.1 (0)
 -->
<!-- Title: MoneyFlow Pages: 1 -->
<svg width="1066pt" height="1742pt"
 viewBox="0.00 0.00 1066.00 1742.00" xmlns="http://www.w3.org/2000/svg" xmlns:xlink="http://www.w3.org/1999/xlink">
<g id="graph0" class="graph" transform="scale(1 1) rotate(0) translate(4 1738)">
<title>MoneyFlow</title>
<polygon fill="#ffffff" stroke="transparent" points="-4,4 -4,-1738 1062,-1738 1062,4 -4,4"/>
<!-- 収入 -->
<g id="node1" class="node">
<title>収入</title>
<text text-anchor="middle" x="27" y="-14.3" font-family="Times,serif" font-size="14.00" fill="#000000">収入</text>
</g>
<!-- 銀行口座 -->
<g id="node2" class="node">
<title>銀行口座</title>
<text text-anchor="middle" x="142" y="-14.3" font-family="Times,serif" font-size="14.00" fill="#000000">銀行口座</text>
</g>
<!-- 収入&#45;&gt;銀行口座 -->
<g id="edge1" class="edge">
<title>収入&#45;&gt;銀行口座</title>
<path fill="none" stroke="#000000" d="M54.2534,-18C69.3972,-18 88.4539,-18 104.9357,-18"/>
</g>
<!-- クレジットカード -->
<g id="node3" class="node">
<title>クレジットカード</title>
<text text-anchor="middle" x="322" y="-14.3" font-family="Times,serif" font-size="14.00" fill="#000000">クレジットカード</text>
</g>
<!-- 銀行口座&#45;&gt;クレジットカード -->
<g id="edge2" class="edge">
<title>銀行口座&#45;&gt;クレジットカード</title>
<path fill="none" stroke="#000000" d="M179.2961,-18C201.6417,-18 230.6798,-18 256.7236,-18"/>
</g>
<!-- マネー -->
<g id="node4" class="node">
<title>マネー</title>
<text text-anchor="middle" x="485" y="-14.3" font-family="Times,serif" font-size="14.00" fill="#000000">マネー</text>
</g>
<!-- クレジットカード&#45;&gt;マネー -->
<g id="edge3" class="edge">
<title>クレジットカード&#45;&gt;マネー</title>
<path fill="none" stroke="#000000" d="M387.3591,-18C410.9188,-18 436.353,-18 455.3549,-18"/>
</g>
<!-- ポイント -->
<g id="node5" class="node">
<title>ポイント</title>
<text text-anchor="middle" x="686" y="-14.3" font-family="Times,serif" font-size="14.00" fill="#000000">ポイント</text>
</g>
<!-- マネー&#45;&gt;ポイント -->
<g id="edge4" class="edge">
<title>マネー&#45;&gt;ポイント</title>
<path fill="none" stroke="#000000" d="M514.6582,-18C550.2582,-18 609.9876,-18 648.6865,-18"/>
</g>
<!-- 金券 -->
<g id="node6" class="node">
<title>金券</title>
<text text-anchor="middle" x="861" y="-14.3" font-family="Times,serif" font-size="14.00" fill="#000000">金券</text>
</g>
<!-- ポイント&#45;&gt;金券 -->
<g id="edge5" class="edge">
<title>ポイント&#45;&gt;金券</title>
<path fill="none" stroke="#000000" d="M723.113,-18C756.3227,-18 804.2221,-18 833.9381,-18"/>
</g>
<!-- 支出 -->
<g id="node7" class="node">
<title>支出</title>
<text text-anchor="middle" x="1000" y="-14.3" font-family="Times,serif" font-size="14.00" fill="#000000">支出</text>
</g>
<!-- 金券&#45;&gt;支出 -->
<g id="edge6" class="edge">
<title>金券&#45;&gt;支出</title>
<path fill="none" stroke="#000000" d="M888.1306,-18C912.6227,-18 948.4669,-18 972.9379,-18"/>
</g>
<!-- 給与 -->
<g id="node8" class="node">
<title>給与</title>
<polygon fill="none" stroke="#000000" points="54,-291 0,-291 0,-255 54,-255 54,-291"/>
<text text-anchor="middle" x="27" y="-269.3" font-family="Times,serif" font-size="14.00" fill="#000000">給与</text>
</g>
<!-- 三井住友銀行 -->
<g id="node9" class="node">
<title>三井住友銀行</title>
<polygon fill="none" stroke="#000000" points="193,-291 91,-291 91,-255 193,-255 193,-291"/>
<text text-anchor="middle" x="142" y="-269.3" font-family="Times,serif" font-size="14.00" fill="#000000">三井住友銀行</text>
</g>
<!-- 給与&#45;&gt;三井住友銀行 -->
<g id="edge7" class="edge">
<title>給与&#45;&gt;三井住友銀行</title>
<path fill="none" stroke="#000000" stroke-width="2" d="M54.2534,-273C62.2529,-273 71.3442,-273 80.571,-273"/>
<polygon fill="#000000" stroke="#000000" stroke-width="2" points="80.5912,-276.5001 90.5911,-273 80.5911,-269.5001 80.5912,-276.5001"/>
</g>
<!-- 住信SBI銀行 -->
<g id="node10" class="node">
<title>住信SBI銀行</title>
<polygon fill="none" stroke="#000000" points="192,-219 92,-219 92,-183 192,-183 192,-219"/>
<text text-anchor="middle" x="142" y="-197.3" font-family="Times,serif" font-size="14.00" fill="#000000">住信SBI銀行</text>
</g>
<!-- 三井住友銀行&#45;&gt;住信SBI銀行 -->
<g id="edge9" class="edge">
<title>三井住友銀行&#45;&gt;住信SBI銀行</title>
<path fill="none" stroke="#000000" stroke-width="2" d="M142,-254.9539C142,-246.4073 142,-237.8607 142,-229.3142"/>
<polygon fill="#000000" stroke="#000000" stroke-width="2" points="145.5001,-229.2812 142,-219.2813 138.5001,-229.2813 145.5001,-229.2812"/>
</g>
<!-- 現金 -->
<g id="node14" class="node">
<title>現金</title>
<polygon fill="none" stroke="#000000" points="512,-1676 458,-1676 458,-1640 512,-1640 512,-1676"/>
<text text-anchor="middle" x="485" y="-1654.3" font-family="Times,serif" font-size="14.00" fill="#000000">現金</text>
</g>
<!-- 三井住友銀行&#45;&gt;現金 -->
<g id="edge8" class="edge">
<title>三井住友銀行&#45;&gt;現金</title>
<path fill="none" stroke="#000000" stroke-width="2" d="M142.2128,-291.2369C144.1565,-450.5563 159.9434,-1601.1787 211,-1651 274.1015,-1712.5748 389.3899,-1688.6862 448.2703,-1670.7892"/>
<polygon fill="#000000" stroke="#000000" stroke-width="2" points="449.412,-1674.0992 457.9019,-1667.7609 447.3125,-1667.4215 449.412,-1674.0992"/>
</g>
<!-- 関西電力 -->
<g id="node36" class="node">
<title>関西電力</title>
<polygon fill="none" stroke="#000000" points="1037,-131 963,-131 963,-95 1037,-95 1037,-131"/>
<text text-anchor="middle" x="1000" y="-109.3" font-family="Times,serif" font-size="14.00" fill="#000000">関西電力</text>
</g>
<!-- 三井住友銀行&#45;&gt;関西電力 -->
<g id="edge10" class="edge">
<title>三井住友銀行&#45;&gt;関西電力</title>
<path fill="none" stroke="#000000" stroke-width="2" d="M193.3034,-267.8193C302.2351,-256.2825 564.3159,-225.6764 780,-178 840.5573,-164.614 908.8457,-143.462 953.0524,-128.945"/>
<polygon fill="#000000" stroke="#000000" stroke-width="2" points="954.2588,-132.2325 962.6554,-125.7713 952.0622,-125.5861 954.2588,-132.2325"/>
</g>
<!-- ビックカメラSuicaカード -->
<g id="node11" class="node">
<title>ビックカメラSuicaカード</title>
<polygon fill="none" stroke="#000000" points="414,-1430 230,-1430 230,-1394 414,-1394 414,-1430"/>
<text text-anchor="middle" x="322" y="-1408.3" font-family="Times,serif" font-size="14.00" fill="#000000">ビックカメラSuicaカード</text>
</g>
<!-- 住信SBI銀行&#45;&gt;ビックカメラSuicaカード -->
<g id="edge28" class="edge">
<title>住信SBI銀行&#45;&gt;ビックカメラSuicaカード</title>
<path fill="none" stroke="#000000" stroke-width="2" d="M169.671,-219.0911C178.5852,-226.3621 187.5577,-235.5208 193,-246 220.1671,-298.3106 303.7141,-1209.7819 319.435,-1383.5203"/>
<polygon fill="#000000" stroke="#000000" stroke-width="2" points="315.9658,-1384.0204 320.3516,-1393.6648 322.9374,-1383.3904 315.9658,-1384.0204"/>
</g>
<!-- リクルートカード -->
<g id="node12" class="node">
<title>リクルートカード</title>
<polygon fill="none" stroke="#000000" points="386.5,-434 257.5,-434 257.5,-398 386.5,-398 386.5,-434"/>
<text text-anchor="middle" x="322" y="-412.3" font-family="Times,serif" font-size="14.00" fill="#000000">リクルートカード</text>
</g>
<!-- 住信SBI銀行&#45;&gt;リクルートカード -->
<g id="edge29" class="edge">
<title>住信SBI銀行&#45;&gt;リクルートカード</title>
<path fill="none" stroke="#000000" stroke-width="2" d="M192.1359,-196.0023C199.1729,-197.091 206.0306,-199.2464 212,-203 278.3298,-244.7081 306.5911,-340.2645 316.9031,-387.9133"/>
<polygon fill="#000000" stroke="#000000" stroke-width="2" points="313.505,-388.7658 318.9435,-397.8583 320.3622,-387.3589 313.505,-388.7658"/>
</g>
<!-- 住信SBI銀行&#45;&gt;現金 -->
<g id="edge26" class="edge">
<title>住信SBI銀行&#45;&gt;現金</title>
<path fill="none" stroke="#000000" stroke-width="2" d="M170.4065,-219.0784C179.2732,-226.2938 188.027,-235.4205 193,-246 249.4171,-366.0208 174.5341,-1318.5367 230,-1439 275.5238,-1537.8705 390.079,-1608.9248 448.9064,-1640.2104"/>
<polygon fill="#000000" stroke="#000000" stroke-width="2" points="447.367,-1643.355 457.8503,-1644.8883 450.6112,-1637.1522 447.367,-1643.355"/>
</g>
<!-- 家賃 -->
<g id="node29" class="node">
<title>家賃</title>
<polygon fill="none" stroke="#000000" points="1027,-185 973,-185 973,-149 1027,-149 1027,-185"/>
<text text-anchor="middle" x="1000" y="-163.3" font-family="Times,serif" font-size="14.00" fill="#000000">家賃</text>
</g>
<!-- 住信SBI銀行&#45;&gt;家賃 -->
<g id="edge27" class="edge">
<title>住信SBI銀行&#45;&gt;家賃</title>
<path fill="none" stroke="#000000" stroke-width="2" d="M192.2532,-184.9865C228.0441,-174.9868 277.4948,-164 322,-164 322,-164 322,-164 798.5,-164 855.828,-164 922.3203,-165.2291 962.7588,-166.1138"/>
<polygon fill="#000000" stroke="#000000" stroke-width="2" points="962.8747,-169.6172 972.9505,-166.3416 963.0312,-162.6189 962.8747,-169.6172"/>
</g>
<!-- Suica -->
<g id="node13" class="node">
<title>Suica</title>
<polygon fill="none" stroke="#000000" points="513,-1373 457,-1373 457,-1337 513,-1337 513,-1373"/>
<text text-anchor="middle" x="485" y="-1351.3" font-family="Times,serif" font-size="14.00" fill="#000000">Suica</text>
</g>
<!-- ビックカメラSuicaカード&#45;&gt;Suica -->
<g id="edge18" class="edge">
<title>ビックカメラSuicaカード&#45;&gt;Suica</title>
<path fill="none" stroke="#000000" stroke-width="2" d="M373.5742,-1393.9648C397.5153,-1385.5928 425.4573,-1375.8217 447.371,-1368.1586"/>
<polygon fill="#000000" stroke="#000000" stroke-width="2" points="448.6952,-1371.4035 456.9793,-1364.7986 446.3845,-1364.7958 448.6952,-1371.4035"/>
</g>
<!-- JREポイント -->
<g id="node20" class="node">
<title>JREポイント</title>
<polygon fill="none" stroke="#000000" points="736.5,-1273 635.5,-1273 635.5,-1237 736.5,-1237 736.5,-1273"/>
<text text-anchor="middle" x="686" y="-1251.3" font-family="Times,serif" font-size="14.00" fill="#000000">JREポイント</text>
</g>
<!-- ビックカメラSuicaカード&#45;&gt;JREポイント -->
<g id="edge13" class="edge">
<title>ビックカメラSuicaカード&#45;&gt;JREポイント</title>
<path fill="none" stroke="#000000" d="M341.7163,-1393.9279C365.9797,-1372.4118 409.1261,-1336.4491 451,-1313 505.5404,-1282.4578 576.0419,-1267.8267 625.5411,-1260.9281"/>
<polygon fill="#000000" stroke="#000000" points="626.0088,-1264.3968 635.4604,-1259.6097 625.0864,-1257.4578 626.0088,-1264.3968"/>
<text text-anchor="middle" x="485" y="-1316.8" font-family="Times,serif" font-size="14.00" fill="#000000">0.5%</text>
</g>
<!-- ビックポイント -->
<g id="node21" class="node">
<title>ビックポイント</title>
<polygon fill="none" stroke="#000000" points="744,-1584 628,-1584 628,-1548 744,-1548 744,-1584"/>
<text text-anchor="middle" x="686" y="-1562.3" font-family="Times,serif" font-size="14.00" fill="#000000">ビックポイント</text>
</g>
<!-- ビックカメラSuicaカード&#45;&gt;ビックポイント -->
<g id="edge16" class="edge">
<title>ビックカメラSuicaカード&#45;&gt;ビックポイント</title>
<path fill="none" stroke="#000000" d="M364.8258,-1430.1186C431.9119,-1458.5012 561.5758,-1513.359 633.9467,-1543.9774"/>
<polygon fill="#000000" stroke="#000000" points="632.7638,-1547.2773 643.3373,-1547.9504 635.4913,-1540.8305 632.7638,-1547.2773"/>
<text text-anchor="middle" x="485" y="-1497.8" font-family="Times,serif" font-size="14.00" fill="#000000">0.5%</text>
</g>
<!-- ビックカメラ -->
<g id="node40" class="node">
<title>ビックカメラ</title>
<polygon fill="none" stroke="#000000" points="1050.5,-1622 949.5,-1622 949.5,-1586 1050.5,-1586 1050.5,-1622"/>
<text text-anchor="middle" x="1000" y="-1600.3" font-family="Times,serif" font-size="14.00" fill="#000000">ビックカメラ</text>
</g>
<!-- ビックカメラSuicaカード&#45;&gt;ビックカメラ -->
<g id="edge14" class="edge">
<title>ビックカメラSuicaカード&#45;&gt;ビックカメラ</title>
<path fill="none" stroke="#000000" stroke-width="2" stroke-dasharray="5,2" d="M407.732,-1430.1768C409.9181,-1431.664 412.0146,-1433.2687 414,-1435 445.941,-1462.8536 442.6202,-1612 485,-1612 485,-1612 485,-1612 861,-1612 886.592,-1612 914.7907,-1610.6317 939.0626,-1609.0268"/>
<polygon fill="#000000" stroke="#000000" stroke-width="2" points="939.4697,-1612.5071 949.2053,-1608.3278 938.9883,-1605.5237 939.4697,-1612.5071"/>
</g>
<!-- EX予約 -->
<g id="node50" class="node">
<title>EX予約</title>
<polygon fill="none" stroke="#000000" points="1033,-1473 967,-1473 967,-1437 1033,-1437 1033,-1473"/>
<text text-anchor="middle" x="1000" y="-1451.3" font-family="Times,serif" font-size="14.00" fill="#000000">EX予約</text>
</g>
<!-- ビックカメラSuicaカード&#45;&gt;EX予約 -->
<g id="edge23" class="edge">
<title>ビックカメラSuicaカード&#45;&gt;EX予約</title>
<path fill="none" stroke="#000000" stroke-width="2" stroke-dasharray="5,2" d="M414.0195,-1426.4973C437.1309,-1429.0979 461.9229,-1431 485,-1431 485,-1431 485,-1431 798.5,-1431 853.4328,-1431 916.2021,-1439.9037 956.8821,-1446.8649"/>
<polygon fill="#000000" stroke="#000000" stroke-width="2" points="956.5301,-1450.3564 966.9836,-1448.6315 957.7361,-1443.461 956.5301,-1450.3564"/>
</g>
<!-- nanaco -->
<g id="node15" class="node">
<title>nanaco</title>
<polygon fill="none" stroke="#000000" points="519,-1015 451,-1015 451,-979 519,-979 519,-1015"/>
<text text-anchor="middle" x="485" y="-993.3" font-family="Times,serif" font-size="14.00" fill="#000000">nanaco</text>
</g>
<!-- リクルートカード&#45;&gt;nanaco -->
<g id="edge52" class="edge">
<title>リクルートカード&#45;&gt;nanaco</title>
<path fill="none" stroke="#000000" stroke-width="2" d="M327.057,-434.0253C350.4894,-517.5481 448.5767,-867.1721 477.155,-969.037"/>
<polygon fill="#000000" stroke="#000000" stroke-width="2" points="473.8503,-970.2153 479.9215,-978.8981 480.5901,-968.3244 473.8503,-970.2153"/>
</g>
<!-- Edy -->
<g id="node16" class="node">
<title>Edy</title>
<polygon fill="none" stroke="#000000" points="512,-757 458,-757 458,-721 512,-721 512,-757"/>
<text text-anchor="middle" x="485" y="-735.3" font-family="Times,serif" font-size="14.00" fill="#000000">Edy</text>
</g>
<!-- リクルートカード&#45;&gt;Edy -->
<g id="edge37" class="edge">
<title>リクルートカード&#45;&gt;Edy</title>
<path fill="none" stroke="#000000" stroke-width="2" d="M331.2306,-434.2913C358.5195,-488.3669 438.9244,-647.6967 471.2811,-711.8147"/>
<polygon fill="#000000" stroke="#000000" stroke-width="2" points="468.2406,-713.5585 475.8706,-720.9093 474.49,-710.4048 468.2406,-713.5585"/>
</g>
<!-- Ponta -->
<g id="node17" class="node">
<title>Ponta</title>
<polygon fill="none" stroke="#000000" points="714.5,-443 657.5,-443 657.5,-407 714.5,-407 714.5,-443"/>
<text text-anchor="middle" x="686" y="-421.3" font-family="Times,serif" font-size="14.00" fill="#000000">Ponta</text>
</g>
<!-- リクルートカード&#45;&gt;Ponta -->
<g id="edge47" class="edge">
<title>リクルートカード&#45;&gt;Ponta</title>
<path fill="none" stroke="#000000" d="M386.6565,-417.5986C462.1674,-419.4657 584.6578,-422.4943 646.9453,-424.0344"/>
<polygon fill="#000000" stroke="#000000" points="647.0468,-427.5378 657.1303,-424.2862 647.2199,-420.54 647.0468,-427.5378"/>
<text text-anchor="middle" x="485" y="-423.8" font-family="Times,serif" font-size="14.00" fill="#000000">1.2%</text>
</g>
<!-- NHK -->
<g id="node33" class="node">
<title>NHK</title>
<polygon fill="none" stroke="#000000" points="1027,-537 973,-537 973,-501 1027,-501 1027,-537"/>
<text text-anchor="middle" x="1000" y="-515.3" font-family="Times,serif" font-size="14.00" fill="#000000">NHK</text>
</g>
<!-- リクルートカード&#45;&gt;NHK -->
<g id="edge30" class="edge">
<title>リクルートカード&#45;&gt;NHK</title>
<path fill="none" stroke="#000000" stroke-width="2" d="M357.4749,-434.0409C382.874,-446.1567 418.2356,-461.4206 451,-470 638.4714,-519.0894 872.9035,-521.176 962.6743,-519.9053"/>
<polygon fill="#000000" stroke="#000000" stroke-width="2" points="962.9511,-523.4013 972.8919,-519.7366 962.8355,-516.4023 962.9511,-523.4013"/>
</g>
<!-- NTT -->
<g id="node34" class="node">
<title>NTT</title>
<polygon fill="none" stroke="#000000" points="1027,-483 973,-483 973,-447 1027,-447 1027,-483"/>
<text text-anchor="middle" x="1000" y="-461.3" font-family="Times,serif" font-size="14.00" fill="#000000">NTT</text>
</g>
<!-- リクルートカード&#45;&gt;NTT -->
<g id="edge31" class="edge">
<title>リクルートカード&#45;&gt;NTT</title>
<path fill="none" stroke="#000000" stroke-width="2" d="M384.3949,-434.119C426.9708,-445.5151 484.8804,-459.136 537,-465 694.1568,-482.6819 883.2235,-473.1853 962.3269,-467.8419"/>
<polygon fill="#000000" stroke="#000000" stroke-width="2" points="963.0106,-471.3029 972.7442,-467.1187 962.5258,-464.3197 963.0106,-471.3029"/>
</g>
<!-- ASAHIネット -->
<g id="node35" class="node">
<title>ASAHIネット</title>
<polygon fill="none" stroke="#000000" points="1054.5,-350 945.5,-350 945.5,-314 1054.5,-314 1054.5,-350"/>
<text text-anchor="middle" x="1000" y="-328.3" font-family="Times,serif" font-size="14.00" fill="#000000">ASAHIネット</text>
</g>
<!-- リクルートカード&#45;&gt;ASAHIネット -->
<g id="edge32" class="edge">
<title>リクルートカード&#45;&gt;ASAHIネット</title>
<path fill="none" stroke="#000000" stroke-width="2" d="M338.0456,-397.6585C365.1831,-368.7893 423.2486,-316 485,-316 485,-316 485,-316 861,-316 885.334,-316 911.908,-318.45 935.2428,-321.4326"/>
<polygon fill="#000000" stroke="#000000" stroke-width="2" points="934.9962,-324.9306 945.3716,-322.7854 935.923,-317.9923 934.9962,-324.9306"/>
</g>
<!-- アイハート -->
<g id="node38" class="node">
<title>アイハート</title>
<polygon fill="none" stroke="#000000" points="1043,-296 957,-296 957,-260 1043,-260 1043,-296"/>
<text text-anchor="middle" x="1000" y="-274.3" font-family="Times,serif" font-size="14.00" fill="#000000">アイハート</text>
</g>
<!-- リクルートカード&#45;&gt;アイハート -->
<g id="edge36" class="edge">
<title>リクルートカード&#45;&gt;アイハート</title>
<path fill="none" stroke="#000000" stroke-width="2" d="M332.004,-397.9589C354.2262,-360.5524 411.5846,-278 485,-278 485,-278 485,-278 861,-278 889.2089,-278 920.638,-278 946.4649,-278"/>
<polygon fill="#000000" stroke="#000000" stroke-width="2" points="946.798,-281.5001 956.7979,-278 946.7979,-274.5001 946.798,-281.5001"/>
</g>
<!-- Amazon -->
<g id="node48" class="node">
<title>Amazon</title>
<polygon fill="none" stroke="#000000" points="1037,-1281 963,-1281 963,-1245 1037,-1245 1037,-1281"/>
<text text-anchor="middle" x="1000" y="-1259.3" font-family="Times,serif" font-size="14.00" fill="#000000">Amazon</text>
</g>
<!-- リクルートカード&#45;&gt;Amazon -->
<g id="edge34" class="edge">
<title>リクルートカード&#45;&gt;Amazon</title>
<path fill="none" stroke="#000000" stroke-width="2" d="M323.9381,-434.2889C336.3946,-549.5897 407.1403,-1171 485,-1171 485,-1171 485,-1171 798.5,-1171 800.6104,-1171 894.6392,-1214.2896 953.4889,-1241.4791"/>
<polygon fill="#000000" stroke="#000000" stroke-width="2" points="952.0666,-1244.6774 962.6124,-1245.6955 955.0033,-1238.3232 952.0666,-1244.6774"/>
</g>
<!-- iTunes -->
<g id="node49" class="node">
<title>iTunes</title>
<polygon fill="none" stroke="#000000" points="1032.5,-242 967.5,-242 967.5,-206 1032.5,-206 1032.5,-242"/>
<text text-anchor="middle" x="1000" y="-220.3" font-family="Times,serif" font-size="14.00" fill="#000000">iTunes</text>
</g>
<!-- リクルートカード&#45;&gt;iTunes -->
<g id="edge33" class="edge">
<title>リクルートカード&#45;&gt;iTunes</title>
<path fill="none" stroke="#000000" stroke-width="2" stroke-dasharray="5,2" d="M328.6647,-397.8278C346.4592,-352.8601 399.6241,-240 485,-240 485,-240 485,-240 861,-240 893.417,-240 929.8093,-235.652 957.2231,-231.4893"/>
<polygon fill="#000000" stroke="#000000" stroke-width="2" points="957.9272,-234.9217 967.263,-229.9124 956.8411,-228.0064 957.9272,-234.9217"/>
</g>
<!-- じゃらん -->
<g id="node51" class="node">
<title>じゃらん</title>
<polygon fill="none" stroke="#000000" points="1037,-404 963,-404 963,-368 1037,-368 1037,-404"/>
<text text-anchor="middle" x="1000" y="-382.3" font-family="Times,serif" font-size="14.00" fill="#000000">じゃらん</text>
</g>
<!-- リクルートカード&#45;&gt;じゃらん -->
<g id="edge35" class="edge">
<title>リクルートカード&#45;&gt;じゃらん</title>
<path fill="none" stroke="#000000" stroke-width="2" d="M350.4967,-397.9004C382.0934,-379.6002 435.195,-354 485,-354 485,-354 485,-354 861,-354 892.1803,-354 926.3151,-361.7414 952.9549,-369.6089"/>
<polygon fill="#000000" stroke="#000000" stroke-width="2" points="952.1896,-373.0349 962.7761,-372.6145 954.2381,-366.3413 952.1896,-373.0349"/>
</g>
<!-- Suica&#45;&gt;JREポイント -->
<g id="edge24" class="edge">
<title>Suica&#45;&gt;JREポイント</title>
<path fill="none" stroke="#000000" d="M513.2207,-1339.4192C535.1951,-1327.0621 563.6461,-1310.5028 574,-1302 583.2418,-1294.4105 581.8605,-1288.3406 592,-1282 602.1224,-1275.6701 613.7754,-1270.7805 625.3548,-1267.0176"/>
<polygon fill="#000000" stroke="#000000" points="626.4566,-1270.3412 635.0288,-1264.1148 624.4448,-1263.6365 626.4566,-1270.3412"/>
<text text-anchor="middle" x="555.5" y="-1328.8" font-family="Times,serif" font-size="14.00" fill="#000000">1.5%</text>
</g>
<!-- 電車 -->
<g id="node31" class="node">
<title>電車</title>
<polygon fill="none" stroke="#000000" points="1027,-1419 973,-1419 973,-1383 1027,-1383 1027,-1419"/>
<text text-anchor="middle" x="1000" y="-1397.3" font-family="Times,serif" font-size="14.00" fill="#000000">電車</text>
</g>
<!-- Suica&#45;&gt;電車 -->
<g id="edge19" class="edge">
<title>Suica&#45;&gt;電車</title>
<path fill="none" stroke="#000000" stroke-width="2" d="M513.1857,-1362.3339C520.8646,-1364.1043 529.2132,-1365.8227 537,-1367 693.9826,-1390.7337 883.5142,-1398.0736 962.5563,-1400.1963"/>
<polygon fill="#000000" stroke="#000000" stroke-width="2" points="962.875,-1403.7055 972.9613,-1400.4624 963.054,-1396.7078 962.875,-1403.7055"/>
</g>
<!-- 松屋 -->
<g id="node46" class="node">
<title>松屋</title>
<polygon fill="none" stroke="#000000" points="1027,-1365 973,-1365 973,-1329 1027,-1329 1027,-1365"/>
<text text-anchor="middle" x="1000" y="-1343.3" font-family="Times,serif" font-size="14.00" fill="#000000">松屋</text>
</g>
<!-- Suica&#45;&gt;松屋 -->
<g id="edge20" class="edge">
<title>Suica&#45;&gt;松屋</title>
<path fill="none" stroke="#000000" stroke-width="2" d="M513.0544,-1354.5642C599.9359,-1353.2146 864.5921,-1349.1034 962.8022,-1347.5778"/>
<polygon fill="#000000" stroke="#000000" stroke-width="2" points="962.9137,-1351.0766 972.8581,-1347.4216 962.8049,-1344.0775 962.9137,-1351.0766"/>
</g>
<!-- 吉野家 -->
<g id="node47" class="node">
<title>吉野家</title>
<polygon fill="none" stroke="#000000" points="1029.5,-1227 970.5,-1227 970.5,-1191 1029.5,-1191 1029.5,-1227"/>
<text text-anchor="middle" x="1000" y="-1205.3" font-family="Times,serif" font-size="14.00" fill="#000000">吉野家</text>
</g>
<!-- Suica&#45;&gt;吉野家 -->
<g id="edge21" class="edge">
<title>Suica&#45;&gt;吉野家</title>
<path fill="none" stroke="#000000" stroke-width="2" d="M513.0622,-1338.3386C515.241,-1336.3775 517.2643,-1334.2613 519,-1332 533.891,-1312.5994 523.7338,-1300.5459 537,-1280 555.2476,-1251.7391 561.0411,-1241.1605 592,-1228 717.5889,-1174.6127 884.9275,-1190.7559 960.271,-1202.061"/>
<polygon fill="#000000" stroke="#000000" stroke-width="2" points="959.8589,-1205.5389 970.2779,-1203.6164 960.9341,-1198.622 959.8589,-1205.5389"/>
</g>
<!-- 切符 -->
<g id="node27" class="node">
<title>切符</title>
<polygon fill="none" stroke="#000000" points="888,-1495 834,-1495 834,-1459 888,-1459 888,-1495"/>
<text text-anchor="middle" x="861" y="-1473.3" font-family="Times,serif" font-size="14.00" fill="#000000">切符</text>
</g>
<!-- 現金&#45;&gt;切符 -->
<g id="edge62" class="edge">
<title>現金&#45;&gt;切符</title>
<path fill="none" stroke="#000000" stroke-width="2" d="M492.8575,-1639.7289C508.4461,-1611.0351 545.8025,-1557.2225 592,-1530 666.3226,-1486.2045 769.1185,-1473.3446 823.6032,-1472.6974"/>
<polygon fill="#000000" stroke="#000000" stroke-width="2" points="823.8237,-1476.1979 833.8333,-1472.7253 823.8429,-1469.198 823.8237,-1476.1979"/>
</g>
<!-- 回数カード -->
<g id="node28" class="node">
<title>回数カード</title>
<polygon fill="none" stroke="#000000" points="905,-1730 817,-1730 817,-1694 905,-1694 905,-1730"/>
<text text-anchor="middle" x="861" y="-1708.3" font-family="Times,serif" font-size="14.00" fill="#000000">回数カード</text>
</g>
<!-- 現金&#45;&gt;回数カード -->
<g id="edge65" class="edge">
<title>現金&#45;&gt;回数カード</title>
<path fill="none" stroke="#000000" stroke-width="2" d="M512.0893,-1666.0636C520.0603,-1668.2266 528.8335,-1670.4047 537,-1672 630.924,-1690.3475 741.8998,-1701.8934 806.5736,-1707.6282"/>
<polygon fill="#000000" stroke="#000000" stroke-width="2" points="806.667,-1711.1495 816.9334,-1708.5321 807.2755,-1704.176 806.667,-1711.1495"/>
</g>
<!-- 飲食店 -->
<g id="node43" class="node">
<title>飲食店</title>
<polygon fill="none" stroke="#000000" points="1029.5,-1676 970.5,-1676 970.5,-1640 1029.5,-1640 1029.5,-1676"/>
<text text-anchor="middle" x="1000" y="-1654.3" font-family="Times,serif" font-size="14.00" fill="#000000">飲食店</text>
</g>
<!-- 現金&#45;&gt;飲食店 -->
<g id="edge61" class="edge">
<title>現金&#45;&gt;飲食店</title>
<path fill="none" stroke="#000000" stroke-width="2" d="M512.325,-1658C597.6823,-1658 859.6214,-1658 960.1469,-1658"/>
<polygon fill="#000000" stroke="#000000" stroke-width="2" points="960.1981,-1661.5001 970.1981,-1658 960.198,-1654.5001 960.1981,-1661.5001"/>
</g>
<!-- nanacoポイント -->
<g id="node23" class="node">
<title>nanacoポイント</title>
<polygon fill="none" stroke="#000000" points="748.5,-1006 623.5,-1006 623.5,-970 748.5,-970 748.5,-1006"/>
<text text-anchor="middle" x="686" y="-984.3" font-family="Times,serif" font-size="14.00" fill="#000000">nanacoポイント</text>
</g>
<!-- nanaco&#45;&gt;nanacoポイント -->
<g id="edge54" class="edge">
<title>nanaco&#45;&gt;nanacoポイント</title>
<path fill="none" stroke="#000000" d="M519.1458,-986.4432C525.0464,-985.0123 531.1608,-983.7723 537,-983 561.6969,-979.7336 588.8853,-979.6301 613.2006,-980.773"/>
<polygon fill="#000000" stroke="#000000" points="613.2534,-984.2811 623.4299,-981.3335 613.6364,-977.2915 613.2534,-984.2811"/>
<text text-anchor="middle" x="555.5" y="-986.8" font-family="Times,serif" font-size="14.00" fill="#000000">1%</text>
</g>
<!-- セブンイレブン -->
<g id="node30" class="node">
<title>セブンイレブン</title>
<polygon fill="none" stroke="#000000" points="1057,-1151 943,-1151 943,-1115 1057,-1115 1057,-1151"/>
<text text-anchor="middle" x="1000" y="-1129.3" font-family="Times,serif" font-size="14.00" fill="#000000">セブンイレブン</text>
</g>
<!-- nanaco&#45;&gt;セブンイレブン -->
<g id="edge53" class="edge">
<title>nanaco&#45;&gt;セブンイレブン</title>
<path fill="none" stroke="#000000" stroke-width="2" d="M506.5326,-1015.0687C527.1913,-1031.4994 559.9033,-1055.2217 592,-1069 704.8967,-1117.4638 849.4539,-1129.723 932.7071,-1132.5315"/>
<polygon fill="#000000" stroke="#000000" stroke-width="2" points="932.6967,-1136.0327 942.7976,-1132.8355 932.9076,-1129.0358 932.6967,-1136.0327"/>
</g>
<!-- Edy&#45;&gt;Ponta -->
<g id="edge45" class="edge">
<title>Edy&#45;&gt;Ponta</title>
<path fill="none" stroke="#000000" d="M486.6711,-720.8892C490.5768,-686.2235 502.7292,-609.1309 537,-555 565.6573,-509.7357 614.7444,-471.3488 648.7048,-448.2747"/>
<polygon fill="#000000" stroke="#000000" points="651.0435,-450.922 657.4213,-442.4617 647.1597,-445.0982 651.0435,-450.922"/>
<text text-anchor="middle" x="555.5" y="-558.8" font-family="Times,serif" font-size="14.00" fill="#000000">0.5%</text>
</g>
<!-- ヤマト運輸 -->
<g id="node37" class="node">
<title>ヤマト運輸</title>
<polygon fill="none" stroke="#000000" points="1044,-992 956,-992 956,-956 1044,-956 1044,-992"/>
<text text-anchor="middle" x="1000" y="-970.3" font-family="Times,serif" font-size="14.00" fill="#000000">ヤマト運輸</text>
</g>
<!-- Edy&#45;&gt;ヤマト運輸 -->
<g id="edge38" class="edge">
<title>Edy&#45;&gt;ヤマト運輸</title>
<path fill="none" stroke="#000000" stroke-width="2" d="M490.3045,-757.1945C501.8661,-792.9519 533.1393,-871.3922 592,-900 719.103,-961.7752 766.0178,-930.401 905,-956 918.1554,-958.4231 932.3259,-961.0818 945.6047,-963.5946"/>
<polygon fill="#000000" stroke="#000000" stroke-width="2" points="945.0766,-967.0568 955.5537,-965.4814 946.381,-960.1793 945.0766,-967.0568"/>
</g>
<!-- ウェルシア -->
<g id="node39" class="node">
<title>ウェルシア</title>
<polygon fill="none" stroke="#000000" points="1043.5,-938 956.5,-938 956.5,-902 1043.5,-902 1043.5,-938"/>
<text text-anchor="middle" x="1000" y="-916.3" font-family="Times,serif" font-size="14.00" fill="#000000">ウェルシア</text>
</g>
<!-- Edy&#45;&gt;ウェルシア -->
<g id="edge43" class="edge">
<title>Edy&#45;&gt;ウェルシア</title>
<path fill="none" stroke="#000000" stroke-width="2" d="M493.7043,-757.1109C508.8886,-786.2465 543.3109,-842.3467 592,-863 711.0951,-913.5186 865.5786,-921.1043 945.9873,-921.2062"/>
<polygon fill="#000000" stroke="#000000" stroke-width="2" points="946.3696,-924.7053 956.36,-921.1779 946.3505,-917.7053 946.3696,-924.7053"/>
</g>
<!-- ヨドバシカメラ -->
<g id="node41" class="node">
<title>ヨドバシカメラ</title>
<polygon fill="none" stroke="#000000" points="1058,-757 942,-757 942,-721 1058,-721 1058,-757"/>
<text text-anchor="middle" x="1000" y="-735.3" font-family="Times,serif" font-size="14.00" fill="#000000">ヨドバシカメラ</text>
</g>
<!-- Edy&#45;&gt;ヨドバシカメラ -->
<g id="edge40" class="edge">
<title>Edy&#45;&gt;ヨドバシカメラ</title>
<path fill="none" stroke="#000000" stroke-width="2" d="M512.325,-739C590.5442,-739 817.0466,-739 931.7386,-739"/>
<polygon fill="#000000" stroke="#000000" stroke-width="2" points="931.8105,-742.5001 941.8105,-739 931.8105,-735.5001 931.8105,-742.5001"/>
</g>
<!-- 餃子の王将 -->
<g id="node42" class="node">
<title>餃子の王将</title>
<polygon fill="none" stroke="#000000" points="1044,-592 956,-592 956,-556 1044,-556 1044,-592"/>
<text text-anchor="middle" x="1000" y="-570.3" font-family="Times,serif" font-size="14.00" fill="#000000">餃子の王将</text>
</g>
<!-- Edy&#45;&gt;餃子の王将 -->
<g id="edge60" class="edge">
<title>Edy&#45;&gt;餃子の王将</title>
<path fill="none" stroke="#000000" stroke-width="2" d="M494.9129,-720.9353C511.0756,-693.6225 545.9775,-642.8948 592,-623 623.7743,-609.2644 841.88,-588.1917 945.5223,-578.8019"/>
<polygon fill="#000000" stroke="#000000" stroke-width="2" points="946.1382,-582.2607 955.7834,-577.8766 945.5094,-575.289 946.1382,-582.2607"/>
</g>
<!-- FRESCO -->
<g id="node44" class="node">
<title>FRESCO</title>
<polygon fill="none" stroke="#000000" points="1040,-646 960,-646 960,-610 1040,-610 1040,-646"/>
<text text-anchor="middle" x="1000" y="-624.3" font-family="Times,serif" font-size="14.00" fill="#000000">FRESCO</text>
</g>
<!-- Edy&#45;&gt;FRESCO -->
<g id="edge57" class="edge">
<title>Edy&#45;&gt;FRESCO</title>
<path fill="none" stroke="#000000" stroke-width="2" d="M504.9793,-720.7854C525.2733,-703.4588 558.4157,-678.2702 592,-666 714.4617,-621.2579 870.6894,-621.1022 949.5727,-624.6249"/>
<polygon fill="#000000" stroke="#000000" stroke-width="2" points="949.5619,-628.1284 959.72,-625.1179 949.9017,-621.1367 949.5619,-628.1284"/>
</g>
<!-- 業務スーパー -->
<g id="node45" class="node">
<title>業務スーパー</title>
<polygon fill="none" stroke="#000000" points="1050.5,-884 949.5,-884 949.5,-848 1050.5,-848 1050.5,-884"/>
<text text-anchor="middle" x="1000" y="-862.3" font-family="Times,serif" font-size="14.00" fill="#000000">業務スーパー</text>
</g>
<!-- Edy&#45;&gt;業務スーパー -->
<g id="edge56" class="edge">
<title>Edy&#45;&gt;業務スーパー</title>
<path fill="none" stroke="#000000" stroke-width="2" d="M500.2172,-757.2719C519.2235,-778.6461 553.91,-813.1253 592,-829 707.5277,-877.1483 857.0146,-876.5856 939.1852,-871.5288"/>
<polygon fill="#000000" stroke="#000000" stroke-width="2" points="939.603,-875.0089 949.3512,-870.8587 939.1426,-868.0241 939.603,-875.0089"/>
</g>
<!-- Ponta&#45;&gt;じゃらん -->
<g id="edge48" class="edge">
<title>Ponta&#45;&gt;じゃらん</title>
<path fill="none" stroke="#000000" d="M714.6978,-421.4356C768.8755,-414.7065 886.6933,-400.0731 952.7239,-391.8719"/>
<polygon fill="#000000" stroke="#000000" points="953.3668,-395.319 962.8591,-390.613 952.5039,-388.3724 953.3668,-395.319"/>
</g>
<!-- Tポイント -->
<g id="node18" class="node">
<title>Tポイント</title>
<polygon fill="none" stroke="#000000" points="727.5,-1060 644.5,-1060 644.5,-1024 727.5,-1024 727.5,-1060"/>
<text text-anchor="middle" x="686" y="-1038.3" font-family="Times,serif" font-size="14.00" fill="#000000">Tポイント</text>
</g>
<!-- 楽天スーパーポイント -->
<g id="node19" class="node">
<title>楽天スーパーポイント</title>
<polygon fill="none" stroke="#000000" points="765,-581 607,-581 607,-545 765,-545 765,-581"/>
<text text-anchor="middle" x="686" y="-559.3" font-family="Times,serif" font-size="14.00" fill="#000000">楽天スーパーポイント</text>
</g>
<!-- 楽天スーパーポイント&#45;&gt;Edy -->
<g id="edge46" class="edge">
<title>楽天スーパーポイント&#45;&gt;Edy</title>
<path fill="none" stroke="#000000" d="M606.949,-565.2281C582.1346,-569.5248 556.2302,-578.2049 537,-595 503.1854,-624.5326 491.3551,-677.781 487.2193,-710.5942"/>
<polygon fill="#000000" stroke="#000000" points="483.7029,-710.5528 486.0911,-720.8749 490.6611,-711.3164 483.7029,-710.5528"/>
</g>
<!-- JREポイント&#45;&gt;Suica -->
<g id="edge25" class="edge">
<title>JREポイント&#45;&gt;Suica</title>
<path fill="none" stroke="#000000" d="M635.4904,-1263.9196C605.1961,-1270.9135 566.8799,-1282.77 537,-1302 525.5675,-1309.3577 514.7289,-1319.6487 505.9354,-1329.2072"/>
<polygon fill="#000000" stroke="#000000" points="503.0622,-1327.173 499.0617,-1336.9836 508.307,-1331.809 503.0622,-1327.173"/>
</g>
<!-- ビックポイント&#45;&gt;ビックカメラ -->
<g id="edge17" class="edge">
<title>ビックポイント&#45;&gt;ビックカメラ</title>
<path fill="none" stroke="#000000" d="M744.3251,-1573.0585C799.7573,-1579.7668 882.788,-1589.8151 939.0662,-1596.6259"/>
<polygon fill="#000000" stroke="#000000" points="938.9025,-1600.1315 949.2506,-1597.8584 939.7436,-1593.1822 938.9025,-1600.1315"/>
</g>
<!-- Amazonポイント -->
<g id="node22" class="node">
<title>Amazonポイント</title>
<polygon fill="none" stroke="#000000" points="751.5,-1327 620.5,-1327 620.5,-1291 751.5,-1291 751.5,-1327"/>
<text text-anchor="middle" x="686" y="-1305.3" font-family="Times,serif" font-size="14.00" fill="#000000">Amazonポイント</text>
</g>
<!-- Amazonポイント&#45;&gt;Amazon -->
<g id="edge51" class="edge">
<title>Amazonポイント&#45;&gt;Amazon</title>
<path fill="none" stroke="#000000" d="M751.8247,-1293.7424C811.8442,-1283.2532 899.0692,-1270.6795 952.5283,-1264.9537"/>
<polygon fill="#000000" stroke="#000000" points="953.1623,-1268.407 962.7519,-1263.9024 952.4463,-1261.4437 953.1623,-1268.407"/>
</g>
<!-- nanacoポイント&#45;&gt;nanaco -->
<g id="edge55" class="edge">
<title>nanacoポイント&#45;&gt;nanaco</title>
<path fill="none" stroke="#000000" d="M623.2758,-994.5918C607.2303,-996.0054 589.992,-997.2875 574,-998 557.5719,-998.7319 553.4437,-998.1581 537,-998 534.4719,-997.9757 531.8747,-997.9447 529.2538,-997.9089"/>
<polygon fill="#000000" stroke="#000000" points="529.1773,-994.4074 519.1236,-997.75 529.0675,-1001.4065 529.1773,-994.4074"/>
</g>
<!-- FRESCOポイント -->
<g id="node24" class="node">
<title>FRESCOポイント</title>
<polygon fill="none" stroke="#000000" points="754.5,-711 617.5,-711 617.5,-675 754.5,-675 754.5,-711"/>
<text text-anchor="middle" x="686" y="-689.3" font-family="Times,serif" font-size="14.00" fill="#000000">FRESCOポイント</text>
</g>
<!-- FRESCOポイント&#45;&gt;FRESCO -->
<g id="edge59" class="edge">
<title>FRESCOポイント&#45;&gt;FRESCO</title>
<path fill="none" stroke="#000000" d="M754.6378,-678.1797C774.7273,-673.8825 796.735,-669.2142 817,-665 861.9617,-655.6499 913.2079,-645.3164 950.0111,-637.9518"/>
<polygon fill="#000000" stroke="#000000" points="950.8714,-641.3492 959.9913,-635.9566 949.4991,-634.485 950.8714,-641.3492"/>
</g>
<!-- ヨドバシゴールドポイント -->
<g id="node25" class="node">
<title>ヨドバシゴールドポイント</title>
<polygon fill="none" stroke="#000000" points="780,-820 592,-820 592,-784 780,-784 780,-820"/>
<text text-anchor="middle" x="686" y="-798.3" font-family="Times,serif" font-size="14.00" fill="#000000">ヨドバシゴールドポイント</text>
</g>
<!-- ヨドバシゴールドポイント&#45;&gt;ヨドバシカメラ -->
<g id="edge42" class="edge">
<title>ヨドバシゴールドポイント&#45;&gt;ヨドバシカメラ</title>
<path fill="none" stroke="#000000" d="M780.0151,-808.4771C819.3256,-808.6565 865.0608,-805.513 905,-794 927.4552,-787.527 950.1954,-774.6357 967.7953,-762.9601"/>
<polygon fill="#000000" stroke="#000000" points="970.2232,-765.5399 976.5017,-757.0058 966.2716,-759.762 970.2232,-765.5399"/>
</g>
<!-- はぴeポイント -->
<g id="node26" class="node">
<title>はぴeポイント</title>
<polygon fill="none" stroke="#000000" points="741,-116 631,-116 631,-80 741,-80 741,-116"/>
<text text-anchor="middle" x="686" y="-94.3" font-family="Times,serif" font-size="14.00" fill="#000000">はぴeポイント</text>
</g>
<!-- はぴeポイント&#45;&gt;関西電力 -->
<g id="edge12" class="edge">
<title>はぴeポイント&#45;&gt;関西電力</title>
<path fill="none" stroke="#000000" d="M741.0539,-100.63C800.9941,-103.4933 895.8619,-108.0252 952.6062,-110.736"/>
<polygon fill="#000000" stroke="#000000" points="952.5853,-114.2389 962.741,-111.2201 952.9194,-107.2468 952.5853,-114.2389"/>
</g>
<!-- 切符&#45;&gt;現金 -->
<g id="edge64" class="edge">
<title>切符&#45;&gt;現金</title>
<path fill="none" stroke="#000000" d="M833.8333,-1483.1315C782.9512,-1489.7674 671.2774,-1501.2848 592,-1548 556.0858,-1569.1629 525.5149,-1606.3957 506.3605,-1631.7803"/>
<polygon fill="#000000" stroke="#000000" points="503.4822,-1629.7852 500.3111,-1639.8944 509.0942,-1633.9692 503.4822,-1629.7852"/>
</g>
<!-- 切符&#45;&gt;電車 -->
<g id="edge63" class="edge">
<title>切符&#45;&gt;電車</title>
<path fill="none" stroke="#000000" stroke-width="2" d="M888.3126,-1459.4636C903.8191,-1449.7659 923.7268,-1437.7435 942,-1428 948.8054,-1424.3713 956.1862,-1420.7246 963.3295,-1417.3367"/>
<polygon fill="#000000" stroke="#000000" stroke-width="2" points="965.26,-1420.2986 972.8468,-1412.9033 962.3041,-1413.9533 965.26,-1420.2986"/>
</g>
<!-- 回数カード&#45;&gt;現金 -->
<g id="edge67" class="edge">
<title>回数カード&#45;&gt;現金</title>
<path fill="none" stroke="#000000" d="M816.6835,-1719.4042C810.4255,-1719.9307 804.0609,-1720.1911 798,-1720 706.3079,-1717.1097 682.0928,-1724.2944 592,-1707 566.7409,-1702.1512 560.4116,-1699.6503 537,-1689 531.668,-1686.5744 526.1929,-1683.7355 520.8898,-1680.7784"/>
<polygon fill="#000000" stroke="#000000" points="522.5918,-1677.7196 512.1831,-1675.7422 519.0868,-1683.7789 522.5918,-1677.7196"/>
<text text-anchor="middle" x="686" y="-1722.8" font-family="Times,serif" font-size="14.00" fill="#000000">10%</text>
</g>
<!-- 大阪地下鉄 -->
<g id="node32" class="node">
<title>大阪地下鉄</title>
<polygon fill="none" stroke="#000000" points="1044,-1730 956,-1730 956,-1694 1044,-1694 1044,-1730"/>
<text text-anchor="middle" x="1000" y="-1708.3" font-family="Times,serif" font-size="14.00" fill="#000000">大阪地下鉄</text>
</g>
<!-- 回数カード&#45;&gt;大阪地下鉄 -->
<g id="edge66" class="edge">
<title>回数カード&#45;&gt;大阪地下鉄</title>
<path fill="none" stroke="#000000" stroke-width="2" d="M905.3626,-1712C918.1519,-1712 932.2536,-1712 945.5785,-1712"/>
<polygon fill="#000000" stroke="#000000" stroke-width="2" points="945.5821,-1715.5001 955.5821,-1712 945.582,-1708.5001 945.5821,-1715.5001"/>
</g>
<!-- 関西電力&#45;&gt;はぴeポイント -->
<g id="edge11" class="edge">
<title>関西電力&#45;&gt;はぴeポイント</title>
<path fill="none" stroke="#000000" d="M962.6077,-99.7841C945.3159,-94.3469 924.3597,-88.6977 905,-86 853.5675,-78.8331 794.7828,-82.7076 751.0754,-87.8935"/>
<polygon fill="#000000" stroke="#000000" points="750.64,-84.4206 741.1468,-89.1246 751.5015,-91.3674 750.64,-84.4206"/>
<text text-anchor="middle" x="861" y="-89.8" font-family="Times,serif" font-size="14.00" fill="#000000">0.8%, 0.5%</text>
</g>
<!-- ヤマト運輸&#45;&gt;Tポイント -->
<g id="edge39" class="edge">
<title>ヤマト運輸&#45;&gt;Tポイント</title>
<path fill="none" stroke="#000000" d="M955.5481,-991.2542C939.7684,-996.8934 921.7631,-1002.7838 905,-1007 848.5336,-1021.2021 782.3609,-1030.8383 737.652,-1036.3473"/>
<polygon fill="#000000" stroke="#000000" points="737.118,-1032.8862 727.6096,-1037.5597 737.9571,-1039.8358 737.118,-1032.8862"/>
<text text-anchor="middle" x="861" y="-1027.8" font-family="Times,serif" font-size="14.00" fill="#000000">0.5%</text>
</g>
<!-- ウェルシア&#45;&gt;Tポイント -->
<g id="edge44" class="edge">
<title>ウェルシア&#45;&gt;Tポイント</title>
<path fill="none" stroke="#000000" d="M956.4016,-932.4757C918.3866,-944.2138 862.3808,-963.6142 817,-988 799.0677,-997.6361 798.2857,-1006.0528 780,-1015 766.8683,-1021.4254 751.9365,-1026.5829 737.901,-1030.5985"/>
<polygon fill="#000000" stroke="#000000" points="736.6099,-1027.3223 727.8779,-1033.3225 738.4458,-1034.0773 736.6099,-1027.3223"/>
<text text-anchor="middle" x="861" y="-991.8" font-family="Times,serif" font-size="14.00" fill="#000000">1%</text>
</g>
<!-- ビックカメラ&#45;&gt;ビックポイント -->
<g id="edge15" class="edge">
<title>ビックカメラ&#45;&gt;ビックポイント</title>
<path fill="none" stroke="#000000" stroke-dasharray="5,2" d="M978.6641,-1585.8536C960.4369,-1571.6204 932.8186,-1552.9355 905,-1545 855.7606,-1530.9541 798.0361,-1537.3775 754.2158,-1546.6838"/>
<polygon fill="#000000" stroke="#000000" points="753.2409,-1543.3151 744.2393,-1548.9028 754.7607,-1550.1481 753.2409,-1543.3151"/>
<text text-anchor="middle" x="861" y="-1548.8" font-family="Times,serif" font-size="14.00" fill="#000000">9.5%</text>
</g>
<!-- ヨドバシカメラ&#45;&gt;ヨドバシゴールドポイント -->
<g id="edge41" class="edge">
<title>ヨドバシカメラ&#45;&gt;ヨドバシゴールドポイント</title>
<path fill="none" stroke="#000000" d="M941.7236,-750.6924C898.0322,-759.4585 837.1751,-771.6687 785.7898,-781.9785"/>
<polygon fill="#000000" stroke="#000000" points="785.0959,-778.5479 775.9798,-783.9467 786.4729,-785.4111 785.0959,-778.5479"/>
<text text-anchor="middle" x="861" y="-778.8" font-family="Times,serif" font-size="14.00" fill="#000000">10%</text>
</g>
<!-- FRESCO&#45;&gt;FRESCOポイント -->
<g id="edge58" class="edge">
<title>FRESCO&#45;&gt;FRESCOポイント</title>
<path fill="none" stroke="#000000" d="M967.6105,-646.1622C954.4504,-652.7844 938.8654,-659.6962 924,-664 872.1296,-679.0174 811.7109,-686.2617 764.7285,-689.7546"/>
<polygon fill="#000000" stroke="#000000" points="764.3426,-686.273 754.6122,-690.4645 764.8327,-693.2558 764.3426,-686.273"/>
<text text-anchor="middle" x="861" y="-687.8" font-family="Times,serif" font-size="14.00" fill="#000000">0.5%</text>
</g>
<!-- 吉野家&#45;&gt;Tポイント -->
<g id="edge22" class="edge">
<title>吉野家&#45;&gt;Tポイント</title>
<path fill="none" stroke="#000000" d="M976.9907,-1190.9398C958.2324,-1176.6734 930.7272,-1156.7748 905,-1142 849.6743,-1110.2272 782.4654,-1080.7915 737.214,-1062.2019"/>
<polygon fill="#000000" stroke="#000000" points="738.4845,-1058.9402 727.9033,-1058.4028 735.8398,-1065.4214 738.4845,-1058.9402"/>
<text text-anchor="middle" x="861" y="-1145.8" font-family="Times,serif" font-size="14.00" fill="#000000">0.5%</text>
</g>
<!-- Amazon&#45;&gt;Amazonポイント -->
<g id="edge50" class="edge">
<title>Amazon&#45;&gt;Amazonポイント</title>
<path fill="none" stroke="#000000" d="M962.7519,-1273.011C913.4572,-1282.6212 825.3804,-1295.9639 761.8076,-1303.7678"/>
<polygon fill="#000000" stroke="#000000" points="761.3339,-1300.2995 751.8247,-1304.9714 762.1717,-1307.2492 761.3339,-1300.2995"/>
</g>
<!-- じゃらん&#45;&gt;Ponta -->
<g id="edge49" class="edge">
<title>じゃらん&#45;&gt;Ponta</title>
<path fill="none" stroke="#000000" d="M962.6083,-400.0031C945.3166,-405.9069 924.3602,-412.2645 905,-416 842.7368,-428.0135 768.7375,-428.2003 724.6634,-426.8671"/>
<polygon fill="#000000" stroke="#000000" points="724.7764,-423.369 714.6618,-426.5224 724.5353,-430.3648 724.7764,-423.369"/>
<text text-anchor="middle" x="861" y="-428.8" font-family="Times,serif" font-size="14.00" fill="#000000">2%</text>
</g>
</g>
</svg>
