<?xml version="1.0" encoding="UTF-8" standalone="no"?>
<!DOCTYPE svg PUBLIC "-//W3C//DTD SVG 1.1//EN"
 "http://www.w3.org/Graphics/SVG/1.1/DTD/svg11.dtd">
<!-- Generated by graphviz version 2.40.1 (0)
 -->
<!-- Title: MoneyFlow Pages: 1 -->
<svg width="1066pt" height="2050pt"
 viewBox="0.00 0.00 1066.00 2050.00" xmlns="http://www.w3.org/2000/svg" xmlns:xlink="http://www.w3.org/1999/xlink">
<g id="graph0" class="graph" transform="scale(1 1) rotate(0) translate(4 2046)">
<title>MoneyFlow</title>
<polygon fill="#ffffff" stroke="transparent" points="-4,4 -4,-2046 1062,-2046 1062,4 -4,4"/>
<!-- 収入 -->
<g id="node1" class="node">
<title>収入</title>
<text text-anchor="middle" x="27" y="-14.3" font-family="Times,serif" font-size="14.00" fill="#000000">収入</text>
</g>
<!-- 銀行口座 -->
<g id="node2" class="node">
<title>銀行口座</title>
<text text-anchor="middle" x="142" y="-14.3" font-family="Times,serif" font-size="14.00" fill="#000000">銀行口座</text>
</g>
<!-- 収入&#45;&gt;銀行口座 -->
<g id="edge1" class="edge">
<title>収入&#45;&gt;銀行口座</title>
<path fill="none" stroke="#000000" d="M54.2534,-18C69.3972,-18 88.4539,-18 104.9357,-18"/>
</g>
<!-- クレジットカード -->
<g id="node3" class="node">
<title>クレジットカード</title>
<text text-anchor="middle" x="322" y="-14.3" font-family="Times,serif" font-size="14.00" fill="#000000">クレジットカード</text>
</g>
<!-- 銀行口座&#45;&gt;クレジットカード -->
<g id="edge2" class="edge">
<title>銀行口座&#45;&gt;クレジットカード</title>
<path fill="none" stroke="#000000" d="M179.2961,-18C201.6417,-18 230.6798,-18 256.7236,-18"/>
</g>
<!-- マネー -->
<g id="node4" class="node">
<title>マネー</title>
<text text-anchor="middle" x="485" y="-14.3" font-family="Times,serif" font-size="14.00" fill="#000000">マネー</text>
</g>
<!-- クレジットカード&#45;&gt;マネー -->
<g id="edge3" class="edge">
<title>クレジットカード&#45;&gt;マネー</title>
<path fill="none" stroke="#000000" d="M387.3591,-18C410.9188,-18 436.353,-18 455.3549,-18"/>
</g>
<!-- ポイント -->
<g id="node5" class="node">
<title>ポイント</title>
<text text-anchor="middle" x="686" y="-14.3" font-family="Times,serif" font-size="14.00" fill="#000000">ポイント</text>
</g>
<!-- マネー&#45;&gt;ポイント -->
<g id="edge4" class="edge">
<title>マネー&#45;&gt;ポイント</title>
<path fill="none" stroke="#000000" d="M514.6582,-18C550.2582,-18 609.9876,-18 648.6865,-18"/>
</g>
<!-- 金券 -->
<g id="node6" class="node">
<title>金券</title>
<text text-anchor="middle" x="861" y="-14.3" font-family="Times,serif" font-size="14.00" fill="#000000">金券</text>
</g>
<!-- ポイント&#45;&gt;金券 -->
<g id="edge5" class="edge">
<title>ポイント&#45;&gt;金券</title>
<path fill="none" stroke="#000000" d="M723.113,-18C756.3227,-18 804.2221,-18 833.9381,-18"/>
</g>
<!-- 支出 -->
<g id="node7" class="node">
<title>支出</title>
<text text-anchor="middle" x="1000" y="-14.3" font-family="Times,serif" font-size="14.00" fill="#000000">支出</text>
</g>
<!-- 金券&#45;&gt;支出 -->
<g id="edge6" class="edge">
<title>金券&#45;&gt;支出</title>
<path fill="none" stroke="#000000" d="M888.1306,-18C912.6227,-18 948.4669,-18 972.9379,-18"/>
</g>
<!-- 給与 -->
<g id="node8" class="node">
<title>給与</title>
<polygon fill="none" stroke="#000000" points="54,-1964 0,-1964 0,-1928 54,-1928 54,-1964"/>
<text text-anchor="middle" x="27" y="-1942.3" font-family="Times,serif" font-size="14.00" fill="#000000">給与</text>
</g>
<!-- 三井住友銀行 -->
<g id="node9" class="node">
<title>三井住友銀行</title>
<polygon fill="none" stroke="#000000" points="193,-1964 91,-1964 91,-1928 193,-1928 193,-1964"/>
<text text-anchor="middle" x="142" y="-1942.3" font-family="Times,serif" font-size="14.00" fill="#000000">三井住友銀行</text>
</g>
<!-- 給与&#45;&gt;三井住友銀行 -->
<g id="edge7" class="edge">
<title>給与&#45;&gt;三井住友銀行</title>
<path fill="none" stroke="#000000" stroke-width="2" d="M54.2534,-1946C62.2529,-1946 71.3442,-1946 80.571,-1946"/>
<polygon fill="#000000" stroke="#000000" stroke-width="2" points="80.5912,-1949.5001 90.5911,-1946 80.5911,-1942.5001 80.5912,-1949.5001"/>
</g>
<!-- 住信SBI銀行 -->
<g id="node10" class="node">
<title>住信SBI銀行</title>
<polygon fill="none" stroke="#000000" points="192,-1639 92,-1639 92,-1603 192,-1603 192,-1639"/>
<text text-anchor="middle" x="142" y="-1617.3" font-family="Times,serif" font-size="14.00" fill="#000000">住信SBI銀行</text>
</g>
<!-- 三井住友銀行&#45;&gt;住信SBI銀行 -->
<g id="edge9" class="edge">
<title>三井住友銀行&#45;&gt;住信SBI銀行</title>
<path fill="none" stroke="#000000" stroke-width="2" d="M142,-1927.7173C142,-1834.8908 142,-1742.0643 142,-1649.2378"/>
<polygon fill="#000000" stroke="#000000" stroke-width="2" points="145.5001,-1649.0908 142,-1639.0908 138.5001,-1649.0909 145.5001,-1649.0908"/>
</g>
<!-- 現金 -->
<g id="node15" class="node">
<title>現金</title>
<polygon fill="none" stroke="#000000" points="512,-1964 458,-1964 458,-1928 512,-1928 512,-1964"/>
<text text-anchor="middle" x="485" y="-1942.3" font-family="Times,serif" font-size="14.00" fill="#000000">現金</text>
</g>
<!-- 三井住友銀行&#45;&gt;現金 -->
<g id="edge8" class="edge">
<title>三井住友銀行&#45;&gt;現金</title>
<path fill="none" stroke="#000000" stroke-width="2" d="M193.3506,-1946C263.1334,-1946 386.2513,-1946 447.795,-1946"/>
<polygon fill="#000000" stroke="#000000" stroke-width="2" points="447.8357,-1949.5001 457.8357,-1946 447.8357,-1942.5001 447.8357,-1949.5001"/>
</g>
<!-- PayPay -->
<g id="node18" class="node">
<title>PayPay</title>
<polygon fill="none" stroke="#000000" points="519,-2039 451,-2039 451,-2003 519,-2003 519,-2039"/>
<text text-anchor="middle" x="485" y="-2017.3" font-family="Times,serif" font-size="14.00" fill="#000000">PayPay</text>
</g>
<!-- 三井住友銀行&#45;&gt;PayPay -->
<g id="edge10" class="edge">
<title>三井住友銀行&#45;&gt;PayPay</title>
<path fill="none" stroke="#000000" stroke-width="2" d="M193.3506,-1957.2283C260.4451,-1971.8991 376.8445,-1997.3508 440.4147,-2011.251"/>
<polygon fill="#000000" stroke="#000000" stroke-width="2" points="440.006,-2014.7443 450.5228,-2013.4613 441.5013,-2007.9058 440.006,-2014.7443"/>
</g>
<!-- ビックカメラSuicaカード -->
<g id="node11" class="node">
<title>ビックカメラSuicaカード</title>
<polygon fill="none" stroke="#000000" points="414,-1557 230,-1557 230,-1521 414,-1521 414,-1557"/>
<text text-anchor="middle" x="322" y="-1535.3" font-family="Times,serif" font-size="14.00" fill="#000000">ビックカメラSuicaカード</text>
</g>
<!-- 住信SBI銀行&#45;&gt;ビックカメラSuicaカード -->
<g id="edge25" class="edge">
<title>住信SBI銀行&#45;&gt;ビックカメラSuicaカード</title>
<path fill="none" stroke="#000000" stroke-width="2" d="M181.9478,-1602.8015C208.8404,-1590.5505 244.4753,-1574.3168 273.0695,-1561.2906"/>
<polygon fill="#000000" stroke="#000000" stroke-width="2" points="274.8247,-1564.3371 282.4739,-1557.0063 271.9227,-1557.967 274.8247,-1564.3371"/>
</g>
<!-- リクルートカード -->
<g id="node12" class="node">
<title>リクルートカード</title>
<polygon fill="none" stroke="#000000" points="386.5,-644 257.5,-644 257.5,-608 386.5,-608 386.5,-644"/>
<text text-anchor="middle" x="322" y="-622.3" font-family="Times,serif" font-size="14.00" fill="#000000">リクルートカード</text>
</g>
<!-- 住信SBI銀行&#45;&gt;リクルートカード -->
<g id="edge26" class="edge">
<title>住信SBI銀行&#45;&gt;リクルートカード</title>
<path fill="none" stroke="#000000" stroke-width="2" d="M145.2779,-1602.8805C167.0097,-1482.752 290.2558,-801.475 316.9151,-654.1083"/>
<polygon fill="#000000" stroke="#000000" stroke-width="2" points="320.3958,-654.5283 318.732,-644.065 313.5076,-653.2822 320.3958,-654.5283"/>
</g>
<!-- PiTaPa -->
<g id="node13" class="node">
<title>PiTaPa</title>
<polygon fill="none" stroke="#000000" points="354.5,-1733 289.5,-1733 289.5,-1697 354.5,-1697 354.5,-1733"/>
<text text-anchor="middle" x="322" y="-1711.3" font-family="Times,serif" font-size="14.00" fill="#000000">PiTaPa</text>
</g>
<!-- 住信SBI銀行&#45;&gt;PiTaPa -->
<g id="edge27" class="edge">
<title>住信SBI銀行&#45;&gt;PiTaPa</title>
<path fill="none" stroke="#000000" stroke-width="2" d="M176.7058,-1639.1241C206.2739,-1654.5653 248.8423,-1676.7954 280.2645,-1693.2048"/>
<polygon fill="#000000" stroke="#000000" stroke-width="2" points="278.7364,-1696.3553 289.2207,-1697.8819 281.9767,-1690.1504 278.7364,-1696.3553"/>
</g>
<!-- 住信SBI銀行&#45;&gt;現金 -->
<g id="edge23" class="edge">
<title>住信SBI銀行&#45;&gt;現金</title>
<path fill="none" stroke="#000000" stroke-width="2" d="M153.1597,-1639.3784C168.6718,-1664.146 198.4249,-1708.9399 230,-1742 300.3306,-1815.6384 397.4949,-1886.3648 449.2204,-1922.0174"/>
<polygon fill="#000000" stroke="#000000" stroke-width="2" points="447.4997,-1925.0812 457.7273,-1927.8467 451.4566,-1919.3068 447.4997,-1925.0812"/>
</g>
<!-- 家賃 -->
<g id="node31" class="node">
<title>家賃</title>
<polygon fill="none" stroke="#000000" points="1027,-1371 973,-1371 973,-1335 1027,-1335 1027,-1371"/>
<text text-anchor="middle" x="1000" y="-1349.3" font-family="Times,serif" font-size="14.00" fill="#000000">家賃</text>
</g>
<!-- 住信SBI銀行&#45;&gt;家賃 -->
<g id="edge24" class="edge">
<title>住信SBI銀行&#45;&gt;家賃</title>
<path fill="none" stroke="#000000" stroke-width="2" d="M145.0208,-1602.9996C156.2313,-1542.9107 201.2162,-1353 322,-1353 322,-1353 322,-1353 861,-1353 895.4512,-1353 934.7054,-1353 962.6918,-1353"/>
<polygon fill="#000000" stroke="#000000" stroke-width="2" points="962.8327,-1356.5001 972.8326,-1353 962.8326,-1349.5001 962.8327,-1356.5001"/>
</g>
<!-- Suica -->
<g id="node14" class="node">
<title>Suica</title>
<polygon fill="none" stroke="#000000" points="513,-1492 457,-1492 457,-1456 513,-1456 513,-1492"/>
<text text-anchor="middle" x="485" y="-1470.3" font-family="Times,serif" font-size="14.00" fill="#000000">Suica</text>
</g>
<!-- ビックカメラSuicaカード&#45;&gt;Suica -->
<g id="edge17" class="edge">
<title>ビックカメラSuicaカード&#45;&gt;Suica</title>
<path fill="none" stroke="#000000" stroke-width="2" d="M367.4046,-1520.8939C392.5736,-1510.8571 423.4982,-1498.5252 447.3171,-1489.0269"/>
<polygon fill="#000000" stroke="#000000" stroke-width="2" points="448.7317,-1492.2309 456.7239,-1485.2757 446.1388,-1485.7288 448.7317,-1492.2309"/>
</g>
<!-- JREポイント -->
<g id="node22" class="node">
<title>JREポイント</title>
<polygon fill="none" stroke="#000000" points="736.5,-1471 635.5,-1471 635.5,-1435 736.5,-1435 736.5,-1471"/>
<text text-anchor="middle" x="686" y="-1449.3" font-family="Times,serif" font-size="14.00" fill="#000000">JREポイント</text>
</g>
<!-- ビックカメラSuicaカード&#45;&gt;JREポイント -->
<g id="edge12" class="edge">
<title>ビックカメラSuicaカード&#45;&gt;JREポイント</title>
<path fill="none" stroke="#000000" d="M336.6938,-1520.5796C358.4583,-1494.9454 402.0064,-1449.6747 451,-1432 507.7743,-1411.5184 577.0461,-1421.5716 625.6198,-1433.7945"/>
<polygon fill="#000000" stroke="#000000" points="624.7931,-1437.196 635.3535,-1436.3424 626.5657,-1430.4241 624.7931,-1437.196"/>
<text text-anchor="middle" x="485" y="-1435.8" font-family="Times,serif" font-size="14.00" fill="#000000">0.5%</text>
</g>
<!-- ビックポイント -->
<g id="node23" class="node">
<title>ビックポイント</title>
<polygon fill="none" stroke="#000000" points="744,-1622 628,-1622 628,-1586 744,-1586 744,-1622"/>
<text text-anchor="middle" x="686" y="-1600.3" font-family="Times,serif" font-size="14.00" fill="#000000">ビックポイント</text>
</g>
<!-- ビックカメラSuicaカード&#45;&gt;ビックポイント -->
<g id="edge15" class="edge">
<title>ビックカメラSuicaカード&#45;&gt;ビックポイント</title>
<path fill="none" stroke="#000000" d="M375.5297,-1557.0039C393.333,-1562.4681 413.3711,-1568.0607 432,-1572 494.2708,-1585.1678 566.3548,-1593.617 617.7878,-1598.5064"/>
<polygon fill="#000000" stroke="#000000" points="617.5087,-1601.9954 627.79,-1599.4371 618.1574,-1595.0255 617.5087,-1601.9954"/>
<text text-anchor="middle" x="485" y="-1590.8" font-family="Times,serif" font-size="14.00" fill="#000000">0.5%</text>
</g>
<!-- ビックカメラ -->
<g id="node43" class="node">
<title>ビックカメラ</title>
<polygon fill="none" stroke="#000000" points="1050.5,-1592 949.5,-1592 949.5,-1556 1050.5,-1556 1050.5,-1592"/>
<text text-anchor="middle" x="1000" y="-1570.3" font-family="Times,serif" font-size="14.00" fill="#000000">ビックカメラ</text>
</g>
<!-- ビックカメラSuicaカード&#45;&gt;ビックカメラ -->
<g id="edge13" class="edge">
<title>ビックカメラSuicaカード&#45;&gt;ビックカメラ</title>
<path fill="none" stroke="#000000" stroke-width="2" stroke-dasharray="5,2" d="M414.0195,-1553.4973C437.1309,-1556.0979 461.9229,-1558 485,-1558 485,-1558 485,-1558 861,-1558 886.7184,-1558 914.9389,-1560.7367 939.193,-1563.9464"/>
<polygon fill="#000000" stroke="#000000" stroke-width="2" points="938.9413,-1567.4448 949.3259,-1565.3444 939.8981,-1560.5105 938.9413,-1567.4448"/>
</g>
<!-- EX予約 -->
<g id="node52" class="node">
<title>EX予約</title>
<polygon fill="none" stroke="#000000" points="1033,-1538 967,-1538 967,-1502 1033,-1502 1033,-1538"/>
<text text-anchor="middle" x="1000" y="-1516.3" font-family="Times,serif" font-size="14.00" fill="#000000">EX予約</text>
</g>
<!-- ビックカメラSuicaカード&#45;&gt;EX予約 -->
<g id="edge20" class="edge">
<title>ビックカメラSuicaカード&#45;&gt;EX予約</title>
<path fill="none" stroke="#000000" stroke-width="2" stroke-dasharray="5,2" d="M414.0195,-1524.5027C437.1309,-1521.9021 461.9229,-1520 485,-1520 485,-1520 485,-1520 861,-1520 893.0974,-1520 929.3639,-1520 956.8028,-1520"/>
<polygon fill="#000000" stroke="#000000" stroke-width="2" points="956.8597,-1523.5001 966.8597,-1520 956.8597,-1516.5001 956.8597,-1523.5001"/>
</g>
<!-- nanaco -->
<g id="node16" class="node">
<title>nanaco</title>
<polygon fill="none" stroke="#000000" points="519,-1266 451,-1266 451,-1230 519,-1230 519,-1266"/>
<text text-anchor="middle" x="485" y="-1244.3" font-family="Times,serif" font-size="14.00" fill="#000000">nanaco</text>
</g>
<!-- リクルートカード&#45;&gt;nanaco -->
<g id="edge57" class="edge">
<title>リクルートカード&#45;&gt;nanaco</title>
<path fill="none" stroke="#000000" stroke-width="2" d="M326.464,-644.1464C341.1262,-703.6136 389.3128,-897.9742 432,-1058 447.384,-1115.6714 466.3877,-1182.886 476.951,-1219.9158"/>
<polygon fill="#000000" stroke="#000000" stroke-width="2" points="473.7085,-1221.3073 479.8209,-1229.9611 480.4392,-1219.3843 473.7085,-1221.3073"/>
</g>
<!-- Edy -->
<g id="node17" class="node">
<title>Edy</title>
<polygon fill="none" stroke="#000000" points="512,-644 458,-644 458,-608 512,-608 512,-644"/>
<text text-anchor="middle" x="485" y="-622.3" font-family="Times,serif" font-size="14.00" fill="#000000">Edy</text>
</g>
<!-- リクルートカード&#45;&gt;Edy -->
<g id="edge41" class="edge">
<title>リクルートカード&#45;&gt;Edy</title>
<path fill="none" stroke="#000000" stroke-width="2" d="M386.8903,-626C407.522,-626 429.6367,-626 447.6378,-626"/>
<polygon fill="#000000" stroke="#000000" stroke-width="2" points="447.7189,-629.5001 457.7189,-626 447.7189,-622.5001 447.7189,-629.5001"/>
</g>
<!-- Ponta -->
<g id="node19" class="node">
<title>Ponta</title>
<polygon fill="none" stroke="#000000" points="714.5,-357 657.5,-357 657.5,-321 714.5,-321 714.5,-357"/>
<text text-anchor="middle" x="686" y="-335.3" font-family="Times,serif" font-size="14.00" fill="#000000">Ponta</text>
</g>
<!-- リクルートカード&#45;&gt;Ponta -->
<g id="edge52" class="edge">
<title>リクルートカード&#45;&gt;Ponta</title>
<path fill="none" stroke="#000000" d="M323.0535,-607.9652C327.3395,-554.1134 348.5706,-395.7583 451,-356 516.2318,-330.6801 599.2156,-331.6077 647.1007,-335.0105"/>
<polygon fill="#000000" stroke="#000000" points="647.0968,-338.5209 657.3402,-335.8148 647.645,-331.5424 647.0968,-338.5209"/>
<text text-anchor="middle" x="485" y="-359.8" font-family="Times,serif" font-size="14.00" fill="#000000">1.2%</text>
</g>
<!-- ASAHIネット -->
<g id="node35" class="node">
<title>ASAHIネット</title>
<polygon fill="none" stroke="#000000" points="1054.5,-276 945.5,-276 945.5,-240 1054.5,-240 1054.5,-276"/>
<text text-anchor="middle" x="1000" y="-254.3" font-family="Times,serif" font-size="14.00" fill="#000000">ASAHIネット</text>
</g>
<!-- リクルートカード&#45;&gt;ASAHIネット -->
<g id="edge28" class="edge">
<title>リクルートカード&#45;&gt;ASAHIネット</title>
<path fill="none" stroke="#000000" stroke-width="2" d="M325.8667,-607.7508C342.1149,-533.496 407.6128,-258 485,-258 485,-258 485,-258 861,-258 885.1744,-258 911.7137,-258 935.0653,-258"/>
<polygon fill="#000000" stroke="#000000" stroke-width="2" points="935.2048,-261.5001 945.2048,-258 935.2048,-254.5001 935.2048,-261.5001"/>
</g>
<!-- 楽天モバイル -->
<g id="node36" class="node">
<title>楽天モバイル</title>
<polygon fill="none" stroke="#000000" points="1051,-941 949,-941 949,-905 1051,-905 1051,-941"/>
<text text-anchor="middle" x="1000" y="-919.3" font-family="Times,serif" font-size="14.00" fill="#000000">楽天モバイル</text>
</g>
<!-- リクルートカード&#45;&gt;楽天モバイル -->
<g id="edge37" class="edge">
<title>リクルートカード&#45;&gt;楽天モバイル</title>
<path fill="none" stroke="#000000" stroke-width="2" d="M324.2225,-644.3811C333.2614,-715.737 369.7751,-972.7679 432,-1020 600.3802,-1147.8097 703.0822,-1032.5811 905,-970 922.8552,-964.4661 925.2969,-958.3927 942,-950 944.9278,-948.5289 947.951,-947.0383 951.0087,-945.5523"/>
<polygon fill="#000000" stroke="#000000" stroke-width="2" points="952.722,-948.6123 960.2247,-941.1317 949.6946,-942.3008 952.722,-948.6123"/>
</g>
<!-- 楽天でんき -->
<g id="node37" class="node">
<title>楽天でんき</title>
<polygon fill="none" stroke="#000000" points="1044,-887 956,-887 956,-851 1044,-851 1044,-887"/>
<text text-anchor="middle" x="1000" y="-865.3" font-family="Times,serif" font-size="14.00" fill="#000000">楽天でんき</text>
</g>
<!-- リクルートカード&#45;&gt;楽天でんき -->
<g id="edge35" class="edge">
<title>リクルートカード&#45;&gt;楽天でんき</title>
<path fill="none" stroke="#000000" stroke-width="2" d="M326.7189,-644.2123C345.169,-713.3932 414.8703,-956 485,-956 485,-956 485,-956 861,-956 905.8008,-956 903.4962,-918.9035 942,-896 944.461,-894.5361 947.0146,-893.0932 949.6172,-891.6819"/>
<polygon fill="#000000" stroke="#000000" stroke-width="2" points="951.3299,-894.7363 958.591,-887.0209 948.1033,-888.5243 951.3299,-894.7363"/>
</g>
<!-- 関西電力 -->
<g id="node38" class="node">
<title>関西電力</title>
<polygon fill="none" stroke="#000000" points="1037,-1103 963,-1103 963,-1067 1037,-1067 1037,-1103"/>
<text text-anchor="middle" x="1000" y="-1081.3" font-family="Times,serif" font-size="14.00" fill="#000000">関西電力</text>
</g>
<!-- リクルートカード&#45;&gt;関西電力 -->
<g id="edge32" class="edge">
<title>リクルートカード&#45;&gt;関西電力</title>
<path fill="none" stroke="#000000" stroke-width="2" d="M326.2489,-644.2461C341.5917,-708.4457 396.127,-922.1847 451,-962 607.718,-1075.7129 850.9192,-1087.0715 952.6945,-1086.4077"/>
<polygon fill="#000000" stroke="#000000" stroke-width="2" points="952.997,-1089.9047 962.9583,-1086.2961 952.9208,-1082.9051 952.997,-1089.9047"/>
</g>
<!-- 楽天損保 -->
<g id="node40" class="node">
<title>楽天損保</title>
<polygon fill="none" stroke="#000000" points="1037,-144 963,-144 963,-108 1037,-108 1037,-144"/>
<text text-anchor="middle" x="1000" y="-122.3" font-family="Times,serif" font-size="14.00" fill="#000000">楽天損保</text>
</g>
<!-- リクルートカード&#45;&gt;楽天損保 -->
<g id="edge36" class="edge">
<title>リクルートカード&#45;&gt;楽天損保</title>
<path fill="none" stroke="#000000" stroke-width="2" d="M323.8435,-607.9093C333.4657,-518.2696 381.4866,-126 485,-126 485,-126 485,-126 861,-126 891.4647,-126 925.6852,-126 952.5488,-126"/>
<polygon fill="#000000" stroke="#000000" stroke-width="2" points="952.8319,-129.5001 962.8318,-126 952.8318,-122.5001 952.8319,-129.5001"/>
</g>
<!-- アイハート -->
<g id="node41" class="node">
<title>アイハート</title>
<polygon fill="none" stroke="#000000" points="1043,-90 957,-90 957,-54 1043,-54 1043,-90"/>
<text text-anchor="middle" x="1000" y="-68.3" font-family="Times,serif" font-size="14.00" fill="#000000">アイハート</text>
</g>
<!-- リクルートカード&#45;&gt;アイハート -->
<g id="edge31" class="edge">
<title>リクルートカード&#45;&gt;アイハート</title>
<path fill="none" stroke="#000000" stroke-width="2" d="M323.2973,-607.8824C330.617,-512.4042 370.5814,-72 485,-72 485,-72 485,-72 861,-72 889.2089,-72 920.638,-72 946.4649,-72"/>
<polygon fill="#000000" stroke="#000000" stroke-width="2" points="946.798,-75.5001 956.7979,-72 946.7979,-68.5001 946.798,-75.5001"/>
</g>
<!-- Amazon -->
<g id="node51" class="node">
<title>Amazon</title>
<polygon fill="none" stroke="#000000" points="1037,-222 963,-222 963,-186 1037,-186 1037,-222"/>
<text text-anchor="middle" x="1000" y="-200.3" font-family="Times,serif" font-size="14.00" fill="#000000">Amazon</text>
</g>
<!-- リクルートカード&#45;&gt;Amazon -->
<g id="edge29" class="edge">
<title>リクルートカード&#45;&gt;Amazon</title>
<path fill="none" stroke="#000000" stroke-width="2" d="M325.1577,-607.7663C339.3446,-528.7657 400.2157,-220 485,-220 485,-220 485,-220 861,-220 891.8015,-220 926.192,-216.0746 953.0594,-212.1124"/>
<polygon fill="#000000" stroke="#000000" stroke-width="2" points="953.6078,-215.5693 962.965,-210.6002 952.5513,-208.6495 953.6078,-215.5693"/>
</g>
<!-- じゃらん -->
<g id="node53" class="node">
<title>じゃらん</title>
<polygon fill="none" stroke="#000000" points="1037,-387 963,-387 963,-351 1037,-351 1037,-387"/>
<text text-anchor="middle" x="1000" y="-365.3" font-family="Times,serif" font-size="14.00" fill="#000000">じゃらん</text>
</g>
<!-- リクルートカード&#45;&gt;じゃらん -->
<g id="edge30" class="edge">
<title>リクルートカード&#45;&gt;じゃらん</title>
<path fill="none" stroke="#000000" stroke-width="2" d="M325.145,-607.8858C336.0156,-551.8385 377.4103,-385 485,-385 485,-385 485,-385 861,-385 891.8015,-385 926.192,-381.0746 953.0594,-377.1124"/>
<polygon fill="#000000" stroke="#000000" stroke-width="2" points="953.6078,-380.5693 962.965,-375.6002 952.5513,-373.6495 953.6078,-380.5693"/>
</g>
<!-- 電車 -->
<g id="node33" class="node">
<title>電車</title>
<polygon fill="none" stroke="#000000" points="1027,-1741 973,-1741 973,-1705 1027,-1705 1027,-1741"/>
<text text-anchor="middle" x="1000" y="-1719.3" font-family="Times,serif" font-size="14.00" fill="#000000">電車</text>
</g>
<!-- PiTaPa&#45;&gt;電車 -->
<g id="edge66" class="edge">
<title>PiTaPa&#45;&gt;電車</title>
<path fill="none" stroke="#000000" stroke-width="2" d="M354.7013,-1715.3859C467.9361,-1716.722 842.919,-1721.1465 962.801,-1722.5611"/>
<polygon fill="#000000" stroke="#000000" stroke-width="2" points="962.9035,-1726.0624 972.9441,-1722.6808 962.9862,-1719.0629 962.9035,-1726.0624"/>
</g>
<!-- バス -->
<g id="node34" class="node">
<title>バス</title>
<polygon fill="none" stroke="#000000" points="1027,-1868 973,-1868 973,-1832 1027,-1832 1027,-1868"/>
<text text-anchor="middle" x="1000" y="-1846.3" font-family="Times,serif" font-size="14.00" fill="#000000">バス</text>
</g>
<!-- PiTaPa&#45;&gt;バス -->
<g id="edge68" class="edge">
<title>PiTaPa&#45;&gt;バス</title>
<path fill="none" stroke="#000000" stroke-width="2" d="M354.5553,-1718.1907C373.0737,-1721.1709 396.0737,-1726.9209 414,-1738 424.4568,-1744.4627 423.2874,-1750.3281 432,-1759 453.9013,-1780.799 454.0991,-1804 485,-1804 485,-1804 485,-1804 861,-1804 897.2673,-1804 936.2851,-1818.2886 963.7219,-1830.9388"/>
<polygon fill="#000000" stroke="#000000" stroke-width="2" points="962.3868,-1834.1795 972.9202,-1835.3188 965.3964,-1827.8595 962.3868,-1834.1795"/>
</g>
<!-- Suica&#45;&gt;JREポイント -->
<g id="edge21" class="edge">
<title>Suica&#45;&gt;JREポイント</title>
<path fill="none" stroke="#000000" d="M507.443,-1455.845C516.1445,-1449.8996 526.5269,-1444.0427 537,-1441 565.4104,-1432.7461 598.0649,-1434.2229 625.5498,-1438.4009"/>
<polygon fill="#000000" stroke="#000000" points="624.9847,-1441.8549 635.4245,-1440.0493 626.1373,-1434.9504 624.9847,-1441.8549"/>
<text text-anchor="middle" x="555.5" y="-1444.8" font-family="Times,serif" font-size="14.00" fill="#000000">1.5%</text>
</g>
<!-- Suica&#45;&gt;電車 -->
<g id="edge18" class="edge">
<title>Suica&#45;&gt;電車</title>
<path fill="none" stroke="#000000" stroke-width="2" d="M492.0069,-1492.1128C505.8045,-1525.2485 539.7659,-1595.4807 592,-1631 622.9269,-1652.0304 868.3316,-1698.798 962.9633,-1716.2555"/>
<polygon fill="#000000" stroke="#000000" stroke-width="2" points="962.4827,-1719.7258 972.9509,-1718.0924 963.7489,-1712.8412 962.4827,-1719.7258"/>
</g>
<!-- 松屋 -->
<g id="node49" class="node">
<title>松屋</title>
<polygon fill="none" stroke="#000000" points="1027,-1425 973,-1425 973,-1389 1027,-1389 1027,-1425"/>
<text text-anchor="middle" x="1000" y="-1403.3" font-family="Times,serif" font-size="14.00" fill="#000000">松屋</text>
</g>
<!-- Suica&#45;&gt;松屋 -->
<g id="edge19" class="edge">
<title>Suica&#45;&gt;松屋</title>
<path fill="none" stroke="#000000" stroke-width="2" d="M512.8377,-1455.914C514.9653,-1454.3076 517.0437,-1452.6598 519,-1451 527.8699,-1443.4744 526.5797,-1437.1697 537,-1432 559.0276,-1421.0717 567.4845,-1427.9062 592,-1426 728.1706,-1415.4122 890.4,-1410.001 962.3901,-1407.9704"/>
<polygon fill="#000000" stroke="#000000" stroke-width="2" points="962.8483,-1411.4591 972.7477,-1407.6841 962.6548,-1404.4618 962.8483,-1411.4591"/>
</g>
<!-- 株主優待券 -->
<g id="node29" class="node">
<title>株主優待券</title>
<polygon fill="none" stroke="#000000" points="905,-1920 817,-1920 817,-1884 905,-1884 905,-1920"/>
<text text-anchor="middle" x="861" y="-1898.3" font-family="Times,serif" font-size="14.00" fill="#000000">株主優待券</text>
</g>
<!-- 現金&#45;&gt;株主優待券 -->
<g id="edge71" class="edge">
<title>現金&#45;&gt;株主優待券</title>
<path fill="none" stroke="#000000" stroke-width="2" d="M512.041,-1939.1327C573.5645,-1928.3259 724.9875,-1910.2017 806.671,-1903.4413"/>
<polygon fill="#000000" stroke="#000000" stroke-width="2" points="807.0662,-1906.921 816.7566,-1902.6377 806.5101,-1899.9431 807.0662,-1906.921"/>
</g>
<!-- 昼間回数券 -->
<g id="node30" class="node">
<title>昼間回数券</title>
<polygon fill="none" stroke="#000000" points="905,-1976 817,-1976 817,-1940 905,-1940 905,-1976"/>
<text text-anchor="middle" x="861" y="-1954.3" font-family="Times,serif" font-size="14.00" fill="#000000">昼間回数券</text>
</g>
<!-- 現金&#45;&gt;昼間回数券 -->
<g id="edge74" class="edge">
<title>現金&#45;&gt;昼間回数券</title>
<path fill="none" stroke="#000000" stroke-width="2" d="M512.041,-1943.1601C573.5645,-1941.5164 724.9875,-1945.9446 806.671,-1951.3498"/>
<polygon fill="#000000" stroke="#000000" stroke-width="2" points="806.5386,-1954.8489 816.7566,-1952.0483 807.0223,-1947.8656 806.5386,-1954.8489"/>
</g>
<!-- 飲食店 -->
<g id="node46" class="node">
<title>飲食店</title>
<polygon fill="none" stroke="#000000" points="1029.5,-2042 970.5,-2042 970.5,-2006 1029.5,-2006 1029.5,-2042"/>
<text text-anchor="middle" x="1000" y="-2020.3" font-family="Times,serif" font-size="14.00" fill="#000000">飲食店</text>
</g>
<!-- 現金&#45;&gt;飲食店 -->
<g id="edge70" class="edge">
<title>現金&#45;&gt;飲食店</title>
<path fill="none" stroke="#000000" stroke-width="2" d="M512.0562,-1961.7744C519.877,-1965.7069 528.5798,-1969.508 537,-1972 616.138,-1995.4216 863.3053,-2014.5446 960.3354,-2021.3397"/>
<polygon fill="#000000" stroke="#000000" stroke-width="2" points="960.1103,-2024.8324 970.3286,-2022.033 960.5948,-2017.8492 960.1103,-2024.8324"/>
</g>
<!-- nanacoポイント -->
<g id="node25" class="node">
<title>nanacoポイント</title>
<polygon fill="none" stroke="#000000" points="748.5,-1271 623.5,-1271 623.5,-1235 748.5,-1235 748.5,-1271"/>
<text text-anchor="middle" x="686" y="-1249.3" font-family="Times,serif" font-size="14.00" fill="#000000">nanacoポイント</text>
</g>
<!-- nanaco&#45;&gt;nanacoポイント -->
<g id="edge59" class="edge">
<title>nanaco&#45;&gt;nanacoポイント</title>
<path fill="none" stroke="#000000" d="M519.1458,-1237.4432C525.0464,-1236.0123 531.1608,-1234.7723 537,-1234 561.7698,-1230.7239 588.8699,-1232.5616 613.0863,-1236.144"/>
<polygon fill="#000000" stroke="#000000" points="612.8452,-1239.6499 623.273,-1237.7763 613.9528,-1232.7381 612.8452,-1239.6499"/>
<text text-anchor="middle" x="555.5" y="-1237.8" font-family="Times,serif" font-size="14.00" fill="#000000">1%</text>
</g>
<!-- セブンイレブン -->
<g id="node32" class="node">
<title>セブンイレブン</title>
<polygon fill="none" stroke="#000000" points="1057,-1317 943,-1317 943,-1281 1057,-1281 1057,-1317"/>
<text text-anchor="middle" x="1000" y="-1295.3" font-family="Times,serif" font-size="14.00" fill="#000000">セブンイレブン</text>
</g>
<!-- nanaco&#45;&gt;セブンイレブン -->
<g id="edge58" class="edge">
<title>nanaco&#45;&gt;セブンイレブン</title>
<path fill="none" stroke="#000000" stroke-width="2" d="M519.176,-1260.6195C539.9315,-1267.6771 567.1354,-1275.8644 592,-1280 710.7319,-1299.748 851.384,-1301.6613 932.6896,-1300.7085"/>
<polygon fill="#000000" stroke="#000000" stroke-width="2" points="932.8382,-1304.2069 942.7898,-1300.5717 932.7433,-1297.2076 932.8382,-1304.2069"/>
</g>
<!-- 楽天ポイント -->
<g id="node21" class="node">
<title>楽天ポイント</title>
<polygon fill="none" stroke="#000000" points="737,-874 635,-874 635,-838 737,-838 737,-874"/>
<text text-anchor="middle" x="686" y="-852.3" font-family="Times,serif" font-size="14.00" fill="#000000">楽天ポイント</text>
</g>
<!-- Edy&#45;&gt;楽天ポイント -->
<g id="edge51" class="edge">
<title>Edy&#45;&gt;楽天ポイント</title>
<path fill="none" stroke="#000000" d="M488.1148,-644.2818C495.393,-685.0222 514.6061,-781.5266 537,-805 559.891,-828.9944 594.5375,-841.7005 624.662,-848.4287"/>
<polygon fill="#000000" stroke="#000000" points="624.1813,-851.903 634.6813,-850.4889 625.5912,-845.0465 624.1813,-851.903"/>
<text text-anchor="middle" x="555.5" y="-833.8" font-family="Times,serif" font-size="14.00" fill="#000000">0.5%</text>
</g>
<!-- ヤマト運輸 -->
<g id="node39" class="node">
<title>ヤマト運輸</title>
<polygon fill="none" stroke="#000000" points="1044,-1049 956,-1049 956,-1013 1044,-1013 1044,-1049"/>
<text text-anchor="middle" x="1000" y="-1027.3" font-family="Times,serif" font-size="14.00" fill="#000000">ヤマト運輸</text>
</g>
<!-- Edy&#45;&gt;ヤマト運輸 -->
<g id="edge42" class="edge">
<title>Edy&#45;&gt;ヤマト運輸</title>
<path fill="none" stroke="#000000" stroke-width="2" d="M487.394,-644.0495C493.9023,-691.0106 513.0473,-815.6678 537,-849 633.7489,-983.6347 845.7274,-1018.6917 945.7332,-1027.806"/>
<polygon fill="#000000" stroke="#000000" stroke-width="2" points="945.6574,-1031.3123 955.9199,-1028.6795 946.2555,-1024.3379 945.6574,-1031.3123"/>
</g>
<!-- ウェルシア -->
<g id="node42" class="node">
<title>ウェルシア</title>
<polygon fill="none" stroke="#000000" points="1043.5,-995 956.5,-995 956.5,-959 1043.5,-959 1043.5,-995"/>
<text text-anchor="middle" x="1000" y="-973.3" font-family="Times,serif" font-size="14.00" fill="#000000">ウェルシア</text>
</g>
<!-- Edy&#45;&gt;ウェルシア -->
<g id="edge47" class="edge">
<title>Edy&#45;&gt;ウェルシア</title>
<path fill="none" stroke="#000000" stroke-width="2" d="M493.9437,-644.068C503.2246,-661.7619 518.9005,-688.9156 537,-709 557.7718,-732.0499 565.1681,-736.4174 592,-752 722.2595,-827.6481 793.4333,-780.7921 905,-882 930.4833,-905.1172 916.9211,-926.4447 942,-950 943.8418,-951.7299 945.8143,-953.3656 947.8798,-954.9102"/>
<polygon fill="#000000" stroke="#000000" stroke-width="2" points="945.9535,-957.8324 956.227,-960.4222 949.8109,-951.9911 945.9535,-957.8324"/>
</g>
<!-- ヨドバシカメラ -->
<g id="node44" class="node">
<title>ヨドバシカメラ</title>
<polygon fill="none" stroke="#000000" points="1058,-771 942,-771 942,-735 1058,-735 1058,-771"/>
<text text-anchor="middle" x="1000" y="-749.3" font-family="Times,serif" font-size="14.00" fill="#000000">ヨドバシカメラ</text>
</g>
<!-- Edy&#45;&gt;ヨドバシカメラ -->
<g id="edge44" class="edge">
<title>Edy&#45;&gt;ヨドバシカメラ</title>
<path fill="none" stroke="#000000" stroke-width="2" d="M499.8582,-644.0499C518.765,-665.5854 553.6098,-700.7183 592,-717 703.8609,-764.4413 848.1657,-764.5898 931.7673,-759.4427"/>
<polygon fill="#000000" stroke="#000000" stroke-width="2" points="932.1567,-762.9247 941.9046,-758.7741 931.6959,-755.9399 932.1567,-762.9247"/>
</g>
<!-- 餃子の王将 -->
<g id="node45" class="node">
<title>餃子の王将</title>
<polygon fill="none" stroke="#000000" points="1044,-441 956,-441 956,-405 1044,-405 1044,-441"/>
<text text-anchor="middle" x="1000" y="-419.3" font-family="Times,serif" font-size="14.00" fill="#000000">餃子の王将</text>
</g>
<!-- Edy&#45;&gt;餃子の王将 -->
<g id="edge65" class="edge">
<title>Edy&#45;&gt;餃子の王将</title>
<path fill="none" stroke="#000000" stroke-width="2" d="M489.1363,-607.7285C499.002,-569.2755 528.022,-481.2172 592,-453 709.6278,-401.1207 864.8901,-407.6072 945.7601,-415.8593"/>
<polygon fill="#000000" stroke="#000000" stroke-width="2" points="945.4042,-419.3411 955.7195,-416.9234 946.1479,-412.3807 945.4042,-419.3411"/>
</g>
<!-- FRESCO -->
<g id="node47" class="node">
<title>FRESCO</title>
<polygon fill="none" stroke="#000000" points="1040,-590 960,-590 960,-554 1040,-554 1040,-590"/>
<text text-anchor="middle" x="1000" y="-568.3" font-family="Times,serif" font-size="14.00" fill="#000000">FRESCO</text>
</g>
<!-- Edy&#45;&gt;FRESCO -->
<g id="edge62" class="edge">
<title>Edy&#45;&gt;FRESCO</title>
<path fill="none" stroke="#000000" stroke-width="2" d="M512.325,-623.1349C594.8362,-614.4832 842.35,-588.5303 949.5656,-577.2883"/>
<polygon fill="#000000" stroke="#000000" stroke-width="2" points="950.2178,-580.7392 959.7983,-576.2153 949.4878,-573.7773 950.2178,-580.7392"/>
</g>
<!-- 業務スーパー -->
<g id="node48" class="node">
<title>業務スーパー</title>
<polygon fill="none" stroke="#000000" points="1050.5,-644 949.5,-644 949.5,-608 1050.5,-608 1050.5,-644"/>
<text text-anchor="middle" x="1000" y="-622.3" font-family="Times,serif" font-size="14.00" fill="#000000">業務スーパー</text>
</g>
<!-- Edy&#45;&gt;業務スーパー -->
<g id="edge61" class="edge">
<title>Edy&#45;&gt;業務スーパー</title>
<path fill="none" stroke="#000000" stroke-width="2" d="M512.325,-626C592.2804,-626 827.1747,-626 939.2077,-626"/>
<polygon fill="#000000" stroke="#000000" stroke-width="2" points="939.3326,-629.5001 949.3326,-626 939.3326,-622.5001 939.3326,-629.5001"/>
</g>
<!-- 吉野家 -->
<g id="node50" class="node">
<title>吉野家</title>
<polygon fill="none" stroke="#000000" points="1029.5,-495 970.5,-495 970.5,-459 1029.5,-459 1029.5,-495"/>
<text text-anchor="middle" x="1000" y="-473.3" font-family="Times,serif" font-size="14.00" fill="#000000">吉野家</text>
</g>
<!-- Edy&#45;&gt;吉野家 -->
<g id="edge50" class="edge">
<title>Edy&#45;&gt;吉野家</title>
<path fill="none" stroke="#000000" stroke-width="2" d="M493.8136,-607.9196C509.1552,-578.7283 543.7984,-522.0602 592,-498 714.4316,-436.8872 884.0488,-455.9589 960.1985,-469.0667"/>
<polygon fill="#000000" stroke="#000000" stroke-width="2" points="959.8497,-472.5596 970.3085,-470.8677 961.0774,-465.6681 959.8497,-472.5596"/>
</g>
<!-- PayPay&#45;&gt;飲食店 -->
<g id="edge11" class="edge">
<title>PayPay&#45;&gt;飲食店</title>
<path fill="none" stroke="#000000" stroke-width="2" d="M519.1894,-2021.1992C610.9857,-2021.7339 862.4975,-2023.199 960.3305,-2023.7689"/>
<polygon fill="#000000" stroke="#000000" stroke-width="2" points="960.3772,-2027.2691 970.3975,-2023.8276 960.4181,-2020.2693 960.3772,-2027.2691"/>
</g>
<!-- Ponta&#45;&gt;じゃらん -->
<g id="edge53" class="edge">
<title>Ponta&#45;&gt;じゃらん</title>
<path fill="none" stroke="#000000" d="M714.6978,-341.7418C768.8755,-346.918 886.6933,-358.1745 952.7239,-364.4832"/>
<polygon fill="#000000" stroke="#000000" points="952.5715,-367.9845 962.8591,-365.4515 953.2373,-361.0162 952.5715,-367.9845"/>
</g>
<!-- Tポイント -->
<g id="node20" class="node">
<title>Tポイント</title>
<polygon fill="none" stroke="#000000" points="727.5,-1217 644.5,-1217 644.5,-1181 727.5,-1181 727.5,-1217"/>
<text text-anchor="middle" x="686" y="-1195.3" font-family="Times,serif" font-size="14.00" fill="#000000">Tポイント</text>
</g>
<!-- はぴeポイント -->
<g id="node28" class="node">
<title>はぴeポイント</title>
<polygon fill="none" stroke="#000000" points="741,-1145 631,-1145 631,-1109 741,-1109 741,-1145"/>
<text text-anchor="middle" x="686" y="-1123.3" font-family="Times,serif" font-size="14.00" fill="#000000">はぴeポイント</text>
</g>
<!-- Tポイント&#45;&gt;はぴeポイント -->
<g id="edge49" class="edge">
<title>Tポイント&#45;&gt;はぴeポイント</title>
<path fill="none" stroke="#000000" d="M686,-1180.9539C686,-1172.4073 686,-1163.8607 686,-1155.3142"/>
<polygon fill="#000000" stroke="#000000" points="689.5001,-1155.2812 686,-1145.2813 682.5001,-1155.2813 689.5001,-1155.2812"/>
</g>
<!-- 楽天ポイント&#45;&gt;楽天モバイル -->
<g id="edge39" class="edge">
<title>楽天ポイント&#45;&gt;楽天モバイル</title>
<path fill="none" stroke="#000000" d="M737.2387,-857.901C782.1319,-860.5499 848.8006,-866.8812 905,-882 914.5715,-884.5749 933.5445,-892.5488 952.0347,-900.7884"/>
<polygon fill="#000000" stroke="#000000" points="950.7618,-904.0535 961.3175,-904.9626 953.6326,-897.6692 950.7618,-904.0535"/>
</g>
<!-- 楽天ポイント&#45;&gt;楽天でんき -->
<g id="edge40" class="edge">
<title>楽天ポイント&#45;&gt;楽天でんき</title>
<path fill="none" stroke="#000000" d="M737.2256,-851.9283C785.5303,-848.8984 859.8832,-846.324 924,-853 931.0995,-853.7392 938.5127,-854.8569 945.8062,-856.1649"/>
<polygon fill="#000000" stroke="#000000" points="945.1571,-859.6041 955.6371,-858.0488 946.4746,-852.7292 945.1571,-859.6041"/>
</g>
<!-- JREポイント&#45;&gt;Suica -->
<g id="edge22" class="edge">
<title>JREポイント&#45;&gt;Suica</title>
<path fill="none" stroke="#000000" d="M635.2752,-1458.2996C600.5957,-1461.9228 555.338,-1466.6512 523.5872,-1469.9685"/>
<polygon fill="#000000" stroke="#000000" points="522.9542,-1466.5155 513.3721,-1471.0358 523.6817,-1473.4776 522.9542,-1466.5155"/>
</g>
<!-- ビックポイント&#45;&gt;ビックカメラ -->
<g id="edge16" class="edge">
<title>ビックポイント&#45;&gt;ビックカメラ</title>
<path fill="none" stroke="#000000" d="M744.1619,-1612.6547C788.6004,-1617.6348 851.1638,-1621.1139 905,-1611 921.2675,-1607.9439 938.327,-1602.1833 953.4291,-1596.1018"/>
<polygon fill="#000000" stroke="#000000" points="955.1655,-1599.1695 963.0427,-1592.0843 952.4664,-1592.7108 955.1655,-1599.1695"/>
</g>
<!-- Amazonポイント -->
<g id="node24" class="node">
<title>Amazonポイント</title>
<polygon fill="none" stroke="#000000" points="751.5,-191 620.5,-191 620.5,-155 751.5,-155 751.5,-191"/>
<text text-anchor="middle" x="686" y="-169.3" font-family="Times,serif" font-size="14.00" fill="#000000">Amazonポイント</text>
</g>
<!-- Amazonポイント&#45;&gt;Amazon -->
<g id="edge56" class="edge">
<title>Amazonポイント&#45;&gt;Amazon</title>
<path fill="none" stroke="#000000" d="M751.8247,-173.8842C811.8442,-178.113 899.0692,-186.929 952.5283,-194.3125"/>
<polygon fill="#000000" stroke="#000000" points="952.3583,-197.8235 962.7519,-195.7684 953.3452,-190.8935 952.3583,-197.8235"/>
</g>
<!-- nanacoポイント&#45;&gt;nanaco -->
<g id="edge60" class="edge">
<title>nanacoポイント&#45;&gt;nanaco</title>
<path fill="none" stroke="#000000" d="M623.242,-1251.4389C592.7412,-1250.6801 556.8142,-1249.7864 529.2311,-1249.1003"/>
<polygon fill="#000000" stroke="#000000" points="529.1809,-1245.598 519.0969,-1248.8482 529.0067,-1252.5959 529.1809,-1245.598"/>
</g>
<!-- FRESCOポイント -->
<g id="node26" class="node">
<title>FRESCOポイント</title>
<polygon fill="none" stroke="#000000" points="754.5,-543 617.5,-543 617.5,-507 754.5,-507 754.5,-543"/>
<text text-anchor="middle" x="686" y="-521.3" font-family="Times,serif" font-size="14.00" fill="#000000">FRESCOポイント</text>
</g>
<!-- FRESCOポイント&#45;&gt;FRESCO -->
<g id="edge64" class="edge">
<title>FRESCOポイント&#45;&gt;FRESCO</title>
<path fill="none" stroke="#000000" d="M754.6331,-525.756C798.0828,-527.2801 855.2504,-531.2166 905,-541 919.9376,-543.9375 935.7967,-548.5036 950.1904,-553.2365"/>
<polygon fill="#000000" stroke="#000000" points="949.2976,-556.6294 959.8919,-556.5219 951.5429,-549.9992 949.2976,-556.6294"/>
</g>
<!-- ヨドバシゴールドポイント -->
<g id="node27" class="node">
<title>ヨドバシゴールドポイント</title>
<polygon fill="none" stroke="#000000" points="780,-708 592,-708 592,-672 780,-672 780,-708"/>
<text text-anchor="middle" x="686" y="-686.3" font-family="Times,serif" font-size="14.00" fill="#000000">ヨドバシゴールドポイント</text>
</g>
<!-- ヨドバシゴールドポイント&#45;&gt;ヨドバシカメラ -->
<g id="edge46" class="edge">
<title>ヨドバシゴールドポイント&#45;&gt;ヨドバシカメラ</title>
<path fill="none" stroke="#000000" d="M775.9798,-708.0533C825.5133,-717.9915 886.0038,-730.1282 931.6362,-739.2837"/>
<polygon fill="#000000" stroke="#000000" points="931.2305,-742.772 941.7236,-741.3076 932.6076,-735.9088 931.2305,-742.772"/>
</g>
<!-- はぴeポイント&#45;&gt;関西電力 -->
<g id="edge34" class="edge">
<title>はぴeポイント&#45;&gt;関西電力</title>
<path fill="none" stroke="#000000" d="M741.1564,-1134.2764C785.8721,-1138.5653 850.2306,-1141.0677 905,-1129 924.3202,-1124.7431 944.3848,-1116.1521 961.0683,-1107.682"/>
<polygon fill="#000000" stroke="#000000" points="962.7326,-1110.7614 969.9629,-1103.0171 959.4813,-1104.5622 962.7326,-1110.7614"/>
</g>
<!-- 株主優待券&#45;&gt;現金 -->
<g id="edge73" class="edge">
<title>株主優待券&#45;&gt;現金</title>
<path fill="none" stroke="#000000" d="M816.7566,-1911.7171C741.9451,-1923.5189 591.8088,-1940.9845 522.1168,-1945.8856"/>
<polygon fill="#000000" stroke="#000000" points="521.7937,-1942.3991 512.041,-1946.5386 522.2464,-1949.3844 521.7937,-1942.3991"/>
</g>
<!-- 株主優待券&#45;&gt;電車 -->
<g id="edge72" class="edge">
<title>株主優待券&#45;&gt;電車</title>
<path fill="none" stroke="#000000" stroke-width="2" d="M875.093,-1883.8515C899.7571,-1852.0897 950.8394,-1786.3076 979.4477,-1749.4666"/>
<polygon fill="#000000" stroke="#000000" stroke-width="2" points="982.5008,-1751.2415 985.8697,-1741.1966 976.972,-1746.9482 982.5008,-1751.2415"/>
</g>
<!-- 昼間回数券&#45;&gt;現金 -->
<g id="edge75" class="edge">
<title>昼間回数券&#45;&gt;現金</title>
<path fill="none" stroke="#000000" d="M816.7566,-1961.1277C741.9451,-1961.7873 591.8088,-1956.8922 522.1168,-1951.4136"/>
<polygon fill="#000000" stroke="#000000" points="522.2992,-1947.9167 512.041,-1950.566 521.7123,-1954.892 522.2992,-1947.9167"/>
</g>
<!-- 昼間回数券&#45;&gt;バス -->
<g id="edge76" class="edge">
<title>昼間回数券&#45;&gt;バス</title>
<path fill="none" stroke="#000000" stroke-width="2" d="M889.7201,-1939.7335C894.8767,-1936.2674 900.1504,-1932.5974 905,-1929 928.1114,-1911.8564 953.0877,-1890.9869 971.6282,-1875.004"/>
<polygon fill="#000000" stroke="#000000" stroke-width="2" points="974.1467,-1877.4527 979.4094,-1868.2574 969.5611,-1872.1638 974.1467,-1877.4527"/>
</g>
<!-- 電車&#45;&gt;PiTaPa -->
<g id="edge67" class="edge">
<title>電車&#45;&gt;PiTaPa</title>
<path fill="none" stroke="#000000" d="M972.9285,-1731.4334C934.5312,-1742.6285 861.8667,-1761 798.5,-1761 485,-1761 485,-1761 485,-1761 451.83,-1761 445.8862,-1747.1389 414,-1738 397.9014,-1733.386 380.0712,-1728.8074 364.4271,-1724.9646"/>
<polygon fill="#000000" stroke="#000000" points="365.0463,-1721.5133 354.5025,-1722.5526 363.3931,-1728.3153 365.0463,-1721.5133"/>
<text text-anchor="middle" x="686" y="-1764.8" font-family="Times,serif" font-size="14.00" fill="#000000">10%</text>
</g>
<!-- バス&#45;&gt;PiTaPa -->
<g id="edge69" class="edge">
<title>バス&#45;&gt;PiTaPa</title>
<path fill="none" stroke="#000000" d="M972.8326,-1850C944.8135,-1850 899.8524,-1850 861,-1850 485,-1850 485,-1850 485,-1850 443.4545,-1850 451.1965,-1809.8445 432,-1773 423.9176,-1757.4871 427.7066,-1748.8676 414,-1738 400.1115,-1726.9882 381.6342,-1721.1705 364.8837,-1718.1258"/>
<polygon fill="#000000" stroke="#000000" points="365.1492,-1714.6256 354.7337,-1716.5667 364.0864,-1721.5445 365.1492,-1714.6256"/>
<text text-anchor="middle" x="686" y="-1853.8" font-family="Times,serif" font-size="14.00" fill="#000000">10%</text>
</g>
<!-- 楽天モバイル&#45;&gt;楽天ポイント -->
<g id="edge38" class="edge">
<title>楽天モバイル&#45;&gt;楽天ポイント</title>
<path fill="none" stroke="#000000" d="M948.8996,-912.5901C908.0358,-904.2138 849.2973,-892.0574 798,-881 781.5492,-877.4539 763.7609,-873.5262 747.3088,-869.8547"/>
<polygon fill="#000000" stroke="#000000" points="747.7844,-866.3747 737.2616,-867.6075 746.2565,-873.2059 747.7844,-866.3747"/>
<text text-anchor="middle" x="861" y="-907.8" font-family="Times,serif" font-size="14.00" fill="#000000">0.5%</text>
</g>
<!-- 関西電力&#45;&gt;はぴeポイント -->
<g id="edge33" class="edge">
<title>関西電力&#45;&gt;はぴeポイント</title>
<path fill="none" stroke="#000000" d="M962.741,-1089.9837C910.5961,-1096.9585 815.0699,-1109.7359 751.0472,-1118.2994"/>
<polygon fill="#000000" stroke="#000000" points="750.5016,-1114.8411 741.0539,-1119.6361 751.4297,-1121.7793 750.5016,-1114.8411"/>
<text text-anchor="middle" x="861" y="-1113.8" font-family="Times,serif" font-size="14.00" fill="#000000">0.5%</text>
</g>
<!-- ヤマト運輸&#45;&gt;Tポイント -->
<g id="edge43" class="edge">
<title>ヤマト運輸&#45;&gt;Tポイント</title>
<path fill="none" stroke="#000000" d="M955.7689,-1045.4483C950.456,-1048.8224 945.6356,-1052.9532 942,-1058 900.689,-1115.346 966.3693,-1159.4314 924,-1216 902.4608,-1244.7577 800.8313,-1226.7362 737.5424,-1212.1278"/>
<polygon fill="#000000" stroke="#000000" points="738.2681,-1208.703 727.7323,-1209.8202 736.6652,-1215.517 738.2681,-1208.703"/>
<text text-anchor="middle" x="861" y="-1235.8" font-family="Times,serif" font-size="14.00" fill="#000000">0.5%</text>
</g>
<!-- ウェルシア&#45;&gt;Tポイント -->
<g id="edge48" class="edge">
<title>ウェルシア&#45;&gt;Tポイント</title>
<path fill="none" stroke="#000000" d="M956.2578,-992.2396C950.9406,-995.488 945.9887,-999.373 942,-1004 904.1703,-1047.8834 945.5239,-1087.5916 905,-1129 860.8207,-1174.1435 787.5799,-1190.2238 738.0867,-1195.9219"/>
<polygon fill="#000000" stroke="#000000" points="737.4864,-1192.4655 727.9048,-1196.987 738.2147,-1199.4276 737.4864,-1192.4655"/>
<text text-anchor="middle" x="861" y="-1183.8" font-family="Times,serif" font-size="14.00" fill="#000000">1%</text>
</g>
<!-- ビックカメラ&#45;&gt;ビックポイント -->
<g id="edge14" class="edge">
<title>ビックカメラ&#45;&gt;ビックポイント</title>
<path fill="none" stroke="#000000" stroke-dasharray="5,2" d="M949.2506,-1578.8487C896.4037,-1583.8977 813.2963,-1591.8379 754.6184,-1597.4441"/>
<polygon fill="#000000" stroke="#000000" points="753.9469,-1593.9922 744.3251,-1598.4275 754.6127,-1600.9605 753.9469,-1593.9922"/>
<text text-anchor="middle" x="861" y="-1595.8" font-family="Times,serif" font-size="14.00" fill="#000000">9.5%</text>
</g>
<!-- ヨドバシカメラ&#45;&gt;ヨドバシゴールドポイント -->
<g id="edge45" class="edge">
<title>ヨドバシカメラ&#45;&gt;ヨドバシゴールドポイント</title>
<path fill="none" stroke="#000000" d="M981.9173,-734.9878C964.0913,-718.6086 935.2034,-695.5793 905,-686 868.7197,-674.4933 827.332,-672.5958 790.3766,-674.5524"/>
<polygon fill="#000000" stroke="#000000" points="789.8386,-671.0793 780.0787,-675.2017 790.2792,-678.0654 789.8386,-671.0793"/>
<text text-anchor="middle" x="861" y="-689.8" font-family="Times,serif" font-size="14.00" fill="#000000">10%</text>
</g>
<!-- FRESCO&#45;&gt;FRESCOポイント -->
<g id="edge63" class="edge">
<title>FRESCO&#45;&gt;FRESCOポイント</title>
<path fill="none" stroke="#000000" d="M959.9053,-565.9986C910.8844,-558.661 826.7896,-546.0736 764.6794,-536.7769"/>
<polygon fill="#000000" stroke="#000000" points="764.9286,-533.2752 754.5206,-535.2563 763.8923,-540.1981 764.9286,-533.2752"/>
<text text-anchor="middle" x="861" y="-561.8" font-family="Times,serif" font-size="14.00" fill="#000000">0.5%</text>
</g>
<!-- Amazon&#45;&gt;Amazonポイント -->
<g id="edge55" class="edge">
<title>Amazon&#45;&gt;Amazonポイント</title>
<path fill="none" stroke="#000000" d="M962.7519,-204.8769C913.4572,-202.399 825.3804,-194.1432 761.8076,-186.3576"/>
<polygon fill="#000000" stroke="#000000" points="762.1809,-182.8771 751.8247,-185.1131 761.3149,-189.8234 762.1809,-182.8771"/>
</g>
<!-- じゃらん&#45;&gt;Ponta -->
<g id="edge54" class="edge">
<title>じゃらん&#45;&gt;Ponta</title>
<path fill="none" stroke="#000000" d="M962.9938,-351.4016C945.78,-344.1568 924.7779,-336.6217 905,-333 842.6548,-321.5833 768.6802,-327.5721 724.6335,-333.1441"/>
<polygon fill="#000000" stroke="#000000" points="724.0927,-329.685 714.6384,-334.4669 725.0112,-336.6245 724.0927,-329.685"/>
<text text-anchor="middle" x="861" y="-336.8" font-family="Times,serif" font-size="14.00" fill="#000000">2%</text>
</g>
</g>
</svg>
