<?xml version="1.0" encoding="UTF-8" standalone="no"?>
<!DOCTYPE svg PUBLIC "-//W3C//DTD SVG 1.1//EN"
 "http://www.w3.org/Graphics/SVG/1.1/DTD/svg11.dtd">
<!-- Generated by graphviz version 2.40.1 (0)
 -->
<!-- Title: MoneyFlow Pages: 1 -->
<svg width="1066pt" height="1990pt"
 viewBox="0.00 0.00 1066.00 1990.00" xmlns="http://www.w3.org/2000/svg" xmlns:xlink="http://www.w3.org/1999/xlink">
<g id="graph0" class="graph" transform="scale(1 1) rotate(0) translate(4 1986)">
<title>MoneyFlow</title>
<polygon fill="#ffffff" stroke="transparent" points="-4,4 -4,-1986 1062,-1986 1062,4 -4,4"/>
<!-- 収入 -->
<g id="node1" class="node">
<title>収入</title>
<text text-anchor="middle" x="27" y="-14.3" font-family="Times,serif" font-size="14.00" fill="#000000">収入</text>
</g>
<!-- 銀行口座 -->
<g id="node2" class="node">
<title>銀行口座</title>
<text text-anchor="middle" x="142" y="-14.3" font-family="Times,serif" font-size="14.00" fill="#000000">銀行口座</text>
</g>
<!-- 収入&#45;&gt;銀行口座 -->
<g id="edge1" class="edge">
<title>収入&#45;&gt;銀行口座</title>
<path fill="none" stroke="#000000" d="M54.2534,-18C69.3972,-18 88.4539,-18 104.9357,-18"/>
</g>
<!-- クレジットカード -->
<g id="node3" class="node">
<title>クレジットカード</title>
<text text-anchor="middle" x="322" y="-14.3" font-family="Times,serif" font-size="14.00" fill="#000000">クレジットカード</text>
</g>
<!-- 銀行口座&#45;&gt;クレジットカード -->
<g id="edge2" class="edge">
<title>銀行口座&#45;&gt;クレジットカード</title>
<path fill="none" stroke="#000000" d="M179.2961,-18C201.6417,-18 230.6798,-18 256.7236,-18"/>
</g>
<!-- マネー -->
<g id="node4" class="node">
<title>マネー</title>
<text text-anchor="middle" x="485" y="-14.3" font-family="Times,serif" font-size="14.00" fill="#000000">マネー</text>
</g>
<!-- クレジットカード&#45;&gt;マネー -->
<g id="edge3" class="edge">
<title>クレジットカード&#45;&gt;マネー</title>
<path fill="none" stroke="#000000" d="M387.3591,-18C410.9188,-18 436.353,-18 455.3549,-18"/>
</g>
<!-- ポイント -->
<g id="node5" class="node">
<title>ポイント</title>
<text text-anchor="middle" x="686" y="-14.3" font-family="Times,serif" font-size="14.00" fill="#000000">ポイント</text>
</g>
<!-- マネー&#45;&gt;ポイント -->
<g id="edge4" class="edge">
<title>マネー&#45;&gt;ポイント</title>
<path fill="none" stroke="#000000" d="M514.6582,-18C550.2582,-18 609.9876,-18 648.6865,-18"/>
</g>
<!-- 金券 -->
<g id="node6" class="node">
<title>金券</title>
<text text-anchor="middle" x="861" y="-14.3" font-family="Times,serif" font-size="14.00" fill="#000000">金券</text>
</g>
<!-- ポイント&#45;&gt;金券 -->
<g id="edge5" class="edge">
<title>ポイント&#45;&gt;金券</title>
<path fill="none" stroke="#000000" d="M723.113,-18C756.3227,-18 804.2221,-18 833.9381,-18"/>
</g>
<!-- 支出 -->
<g id="node7" class="node">
<title>支出</title>
<text text-anchor="middle" x="1000" y="-14.3" font-family="Times,serif" font-size="14.00" fill="#000000">支出</text>
</g>
<!-- 金券&#45;&gt;支出 -->
<g id="edge6" class="edge">
<title>金券&#45;&gt;支出</title>
<path fill="none" stroke="#000000" d="M888.1306,-18C912.6227,-18 948.4669,-18 972.9379,-18"/>
</g>
<!-- 給与 -->
<g id="node8" class="node">
<title>給与</title>
<polygon fill="none" stroke="#000000" points="54,-1905 0,-1905 0,-1869 54,-1869 54,-1905"/>
<text text-anchor="middle" x="27" y="-1883.3" font-family="Times,serif" font-size="14.00" fill="#000000">給与</text>
</g>
<!-- 三井住友銀行 -->
<g id="node9" class="node">
<title>三井住友銀行</title>
<polygon fill="none" stroke="#000000" points="193,-1905 91,-1905 91,-1869 193,-1869 193,-1905"/>
<text text-anchor="middle" x="142" y="-1883.3" font-family="Times,serif" font-size="14.00" fill="#000000">三井住友銀行</text>
</g>
<!-- 給与&#45;&gt;三井住友銀行 -->
<g id="edge7" class="edge">
<title>給与&#45;&gt;三井住友銀行</title>
<path fill="none" stroke="#000000" stroke-width="2" d="M54.2534,-1887C62.2529,-1887 71.3442,-1887 80.571,-1887"/>
<polygon fill="#000000" stroke="#000000" stroke-width="2" points="80.5912,-1890.5001 90.5911,-1887 80.5911,-1883.5001 80.5912,-1890.5001"/>
</g>
<!-- 住信SBI銀行 -->
<g id="node10" class="node">
<title>住信SBI銀行</title>
<polygon fill="none" stroke="#000000" points="192,-1665 92,-1665 92,-1629 192,-1629 192,-1665"/>
<text text-anchor="middle" x="142" y="-1643.3" font-family="Times,serif" font-size="14.00" fill="#000000">住信SBI銀行</text>
</g>
<!-- 三井住友銀行&#45;&gt;住信SBI銀行 -->
<g id="edge9" class="edge">
<title>三井住友銀行&#45;&gt;住信SBI銀行</title>
<path fill="none" stroke="#000000" stroke-width="2" d="M142,-1868.8121C142,-1804.4137 142,-1740.0152 142,-1675.6168"/>
<polygon fill="#000000" stroke="#000000" stroke-width="2" points="145.5001,-1675.2812 142,-1665.2813 138.5001,-1675.2813 145.5001,-1675.2812"/>
</g>
<!-- 現金 -->
<g id="node15" class="node">
<title>現金</title>
<polygon fill="none" stroke="#000000" points="512,-1867 458,-1867 458,-1831 512,-1831 512,-1867"/>
<text text-anchor="middle" x="485" y="-1845.3" font-family="Times,serif" font-size="14.00" fill="#000000">現金</text>
</g>
<!-- 三井住友銀行&#45;&gt;現金 -->
<g id="edge8" class="edge">
<title>三井住友銀行&#45;&gt;現金</title>
<path fill="none" stroke="#000000" stroke-width="2" d="M193.0825,-1885.5776C251.4714,-1883.3076 349.7271,-1877.5209 433,-1863 437.867,-1862.1513 442.9405,-1861.0564 447.9277,-1859.8532"/>
<polygon fill="#000000" stroke="#000000" stroke-width="2" points="449.137,-1863.1562 457.9498,-1857.2754 447.3932,-1856.3768 449.137,-1863.1562"/>
</g>
<!-- PayPay -->
<g id="node18" class="node">
<title>PayPay</title>
<polygon fill="none" stroke="#000000" points="519,-1982 451,-1982 451,-1946 519,-1946 519,-1982"/>
<text text-anchor="middle" x="485" y="-1960.3" font-family="Times,serif" font-size="14.00" fill="#000000">PayPay</text>
</g>
<!-- 三井住友銀行&#45;&gt;PayPay -->
<g id="edge10" class="edge">
<title>三井住友銀行&#45;&gt;PayPay</title>
<path fill="none" stroke="#000000" stroke-width="2" d="M193.3506,-1898.5277C260.4451,-1913.5897 376.8445,-1939.7202 440.4147,-1953.9911"/>
<polygon fill="#000000" stroke="#000000" stroke-width="2" points="439.999,-1957.4848 450.5228,-1956.2602 441.5323,-1950.6548 439.999,-1957.4848"/>
</g>
<!-- ビックカメラSuicaカード -->
<g id="node11" class="node">
<title>ビックカメラSuicaカード</title>
<polygon fill="none" stroke="#000000" points="414,-1606 230,-1606 230,-1570 414,-1570 414,-1606"/>
<text text-anchor="middle" x="322" y="-1584.3" font-family="Times,serif" font-size="14.00" fill="#000000">ビックカメラSuicaカード</text>
</g>
<!-- 住信SBI銀行&#45;&gt;ビックカメラSuicaカード -->
<g id="edge25" class="edge">
<title>住信SBI銀行&#45;&gt;ビックカメラSuicaカード</title>
<path fill="none" stroke="#000000" stroke-width="2" d="M192.14,-1630.5652C212.3468,-1623.9419 235.913,-1616.2174 257.3809,-1609.1807"/>
<polygon fill="#000000" stroke="#000000" stroke-width="2" points="258.6649,-1612.4431 267.0773,-1606.0025 256.4845,-1605.7914 258.6649,-1612.4431"/>
</g>
<!-- リクルートカード -->
<g id="node12" class="node">
<title>リクルートカード</title>
<polygon fill="none" stroke="#000000" points="386.5,-441 257.5,-441 257.5,-405 386.5,-405 386.5,-441"/>
<text text-anchor="middle" x="322" y="-419.3" font-family="Times,serif" font-size="14.00" fill="#000000">リクルートカード</text>
</g>
<!-- 住信SBI銀行&#45;&gt;リクルートカード -->
<g id="edge26" class="edge">
<title>住信SBI銀行&#45;&gt;リクルートカード</title>
<path fill="none" stroke="#000000" stroke-width="2" d="M144.6842,-1628.7475C164.8828,-1491.397 292.9273,-620.6945 317.8126,-451.4744"/>
<polygon fill="#000000" stroke="#000000" stroke-width="2" points="321.3081,-451.7607 319.3003,-441.3578 314.3825,-450.7422 321.3081,-451.7607"/>
</g>
<!-- PiTaPa -->
<g id="node13" class="node">
<title>PiTaPa</title>
<polygon fill="none" stroke="#000000" points="354.5,-1728 289.5,-1728 289.5,-1692 354.5,-1692 354.5,-1728"/>
<text text-anchor="middle" x="322" y="-1706.3" font-family="Times,serif" font-size="14.00" fill="#000000">PiTaPa</text>
</g>
<!-- 住信SBI銀行&#45;&gt;PiTaPa -->
<g id="edge27" class="edge">
<title>住信SBI銀行&#45;&gt;PiTaPa</title>
<path fill="none" stroke="#000000" stroke-width="2" d="M192.14,-1664.549C219.7199,-1674.202 253.5581,-1686.0453 279.7776,-1695.2222"/>
<polygon fill="#000000" stroke="#000000" stroke-width="2" points="278.8297,-1698.5985 289.4245,-1698.5986 281.1422,-1691.9915 278.8297,-1698.5985"/>
</g>
<!-- 住信SBI銀行&#45;&gt;現金 -->
<g id="edge23" class="edge">
<title>住信SBI銀行&#45;&gt;現金</title>
<path fill="none" stroke="#000000" stroke-width="2" d="M156.2128,-1665.2549C172.3621,-1685.0271 200.3477,-1716.4848 230,-1737 300.829,-1786.0037 396.5476,-1821.0373 448.2284,-1837.817"/>
<polygon fill="#000000" stroke="#000000" stroke-width="2" points="447.366,-1841.2158 457.9569,-1840.9283 449.4983,-1834.5485 447.366,-1841.2158"/>
</g>
<!-- 家賃 -->
<g id="node30" class="node">
<title>家賃</title>
<polygon fill="none" stroke="#000000" points="1027,-1409 973,-1409 973,-1373 1027,-1373 1027,-1409"/>
<text text-anchor="middle" x="1000" y="-1387.3" font-family="Times,serif" font-size="14.00" fill="#000000">家賃</text>
</g>
<!-- 住信SBI銀行&#45;&gt;家賃 -->
<g id="edge24" class="edge">
<title>住信SBI銀行&#45;&gt;家賃</title>
<path fill="none" stroke="#000000" stroke-width="2" d="M145.8443,-1628.764C159.0911,-1571.4914 208.4159,-1399 322,-1399 322,-1399 322,-1399 861,-1399 895.5082,-1399 934.7558,-1396.5121 962.7253,-1394.3111"/>
<polygon fill="#000000" stroke="#000000" stroke-width="2" points="963.1757,-1397.7861 972.8592,-1393.4874 962.6085,-1390.8091 963.1757,-1397.7861"/>
</g>
<!-- Suica -->
<g id="node14" class="node">
<title>Suica</title>
<polygon fill="none" stroke="#000000" points="513,-1542 457,-1542 457,-1506 513,-1506 513,-1542"/>
<text text-anchor="middle" x="485" y="-1520.3" font-family="Times,serif" font-size="14.00" fill="#000000">Suica</text>
</g>
<!-- ビックカメラSuicaカード&#45;&gt;Suica -->
<g id="edge17" class="edge">
<title>ビックカメラSuicaカード&#45;&gt;Suica</title>
<path fill="none" stroke="#000000" stroke-width="2" d="M368.2733,-1569.8314C393.1447,-1560.0659 423.436,-1548.1724 446.9276,-1538.9487"/>
<polygon fill="#000000" stroke="#000000" stroke-width="2" points="448.5145,-1542.0858 456.5435,-1535.1731 445.9561,-1535.57 448.5145,-1542.0858"/>
</g>
<!-- JREポイント -->
<g id="node22" class="node">
<title>JREポイント</title>
<polygon fill="none" stroke="#000000" points="736.5,-1552 635.5,-1552 635.5,-1516 736.5,-1516 736.5,-1552"/>
<text text-anchor="middle" x="686" y="-1530.3" font-family="Times,serif" font-size="14.00" fill="#000000">JREポイント</text>
</g>
<!-- ビックカメラSuicaカード&#45;&gt;JREポイント -->
<g id="edge12" class="edge">
<title>ビックカメラSuicaカード&#45;&gt;JREポイント</title>
<path fill="none" stroke="#000000" d="M414.3231,-1574.3037C480.4878,-1564.4881 567.7333,-1551.5451 625.2837,-1543.0074"/>
<polygon fill="#000000" stroke="#000000" points="625.9397,-1546.4484 635.3178,-1541.5188 624.9124,-1539.5242 625.9397,-1546.4484"/>
<text text-anchor="middle" x="485" y="-1572.8" font-family="Times,serif" font-size="14.00" fill="#000000">0.5%</text>
</g>
<!-- ビックポイント -->
<g id="node23" class="node">
<title>ビックポイント</title>
<polygon fill="none" stroke="#000000" points="744,-1644 628,-1644 628,-1608 744,-1608 744,-1644"/>
<text text-anchor="middle" x="686" y="-1622.3" font-family="Times,serif" font-size="14.00" fill="#000000">ビックポイント</text>
</g>
<!-- ビックカメラSuicaカード&#45;&gt;ビックポイント -->
<g id="edge15" class="edge">
<title>ビックカメラSuicaカード&#45;&gt;ビックポイント</title>
<path fill="none" stroke="#000000" d="M354.5604,-1606.0468C375.8763,-1616.8038 404.7369,-1629.4196 432,-1635 494.0061,-1647.6918 566.2683,-1643.3356 617.8275,-1637.0511"/>
<polygon fill="#000000" stroke="#000000" points="618.377,-1640.5095 627.8541,-1635.773 617.4918,-1633.5656 618.377,-1640.5095"/>
<text text-anchor="middle" x="485" y="-1647.8" font-family="Times,serif" font-size="14.00" fill="#000000">0.5%</text>
</g>
<!-- ビックカメラ -->
<g id="node42" class="node">
<title>ビックカメラ</title>
<polygon fill="none" stroke="#000000" points="1050.5,-1571 949.5,-1571 949.5,-1535 1050.5,-1535 1050.5,-1571"/>
<text text-anchor="middle" x="1000" y="-1549.3" font-family="Times,serif" font-size="14.00" fill="#000000">ビックカメラ</text>
</g>
<!-- ビックカメラSuicaカード&#45;&gt;ビックカメラ -->
<g id="edge13" class="edge">
<title>ビックカメラSuicaカード&#45;&gt;ビックカメラ</title>
<path fill="none" stroke="#000000" stroke-width="2" stroke-dasharray="5,2" d="M414.2291,-1589.3835C447.2847,-1589.5135 484.8212,-1589.2419 519,-1588 670.2654,-1582.5038 847.7605,-1567.316 939.0043,-1558.8655"/>
<polygon fill="#000000" stroke="#000000" stroke-width="2" points="939.5307,-1562.3318 949.163,-1557.9195 938.8816,-1555.3619 939.5307,-1562.3318"/>
</g>
<!-- EX予約 -->
<g id="node51" class="node">
<title>EX予約</title>
<polygon fill="none" stroke="#000000" points="1033,-1463 967,-1463 967,-1427 1033,-1427 1033,-1463"/>
<text text-anchor="middle" x="1000" y="-1441.3" font-family="Times,serif" font-size="14.00" fill="#000000">EX予約</text>
</g>
<!-- ビックカメラSuicaカード&#45;&gt;EX予約 -->
<g id="edge20" class="edge">
<title>ビックカメラSuicaカード&#45;&gt;EX予約</title>
<path fill="none" stroke="#000000" stroke-width="2" stroke-dasharray="5,2" d="M331.5023,-1569.889C353.145,-1531.4097 410.0861,-1445 485,-1445 485,-1445 485,-1445 861,-1445 893.0974,-1445 929.3639,-1445 956.8028,-1445"/>
<polygon fill="#000000" stroke="#000000" stroke-width="2" points="956.8597,-1448.5001 966.8597,-1445 956.8597,-1441.5001 956.8597,-1448.5001"/>
</g>
<!-- nanaco -->
<g id="node16" class="node">
<title>nanaco</title>
<polygon fill="none" stroke="#000000" points="519,-1325 451,-1325 451,-1289 519,-1289 519,-1325"/>
<text text-anchor="middle" x="485" y="-1303.3" font-family="Times,serif" font-size="14.00" fill="#000000">nanaco</text>
</g>
<!-- リクルートカード&#45;&gt;nanaco -->
<g id="edge57" class="edge">
<title>リクルートカード&#45;&gt;nanaco</title>
<path fill="none" stroke="#000000" stroke-width="2" d="M322.2438,-441.3009C324.0236,-551.8507 337.7826,-1130.565 432,-1275 434.8628,-1279.3887 438.5573,-1283.2663 442.6628,-1286.6684"/>
<polygon fill="#000000" stroke="#000000" stroke-width="2" points="440.7926,-1289.6346 450.954,-1292.634 444.8809,-1283.9525 440.7926,-1289.6346"/>
</g>
<!-- Edy -->
<g id="node17" class="node">
<title>Edy</title>
<polygon fill="none" stroke="#000000" points="512,-644 458,-644 458,-608 512,-608 512,-644"/>
<text text-anchor="middle" x="485" y="-622.3" font-family="Times,serif" font-size="14.00" fill="#000000">Edy</text>
</g>
<!-- リクルートカード&#45;&gt;Edy -->
<g id="edge41" class="edge">
<title>リクルートカード&#45;&gt;Edy</title>
<path fill="none" stroke="#000000" stroke-width="2" d="M336.4652,-441.0149C365.3909,-477.039 430.4633,-558.0801 464.0545,-599.9145"/>
<polygon fill="#000000" stroke="#000000" stroke-width="2" points="461.3428,-602.1276 470.3329,-607.7337 466.801,-597.7449 461.3428,-602.1276"/>
</g>
<!-- Ponta -->
<g id="node19" class="node">
<title>Ponta</title>
<polygon fill="none" stroke="#000000" points="714.5,-395 657.5,-395 657.5,-359 714.5,-359 714.5,-395"/>
<text text-anchor="middle" x="686" y="-373.3" font-family="Times,serif" font-size="14.00" fill="#000000">Ponta</text>
</g>
<!-- リクルートカード&#45;&gt;Ponta -->
<g id="edge52" class="edge">
<title>リクルートカード&#45;&gt;Ponta</title>
<path fill="none" stroke="#000000" d="M386.6105,-406.4955C407.0821,-401.8003 429.8813,-397.1199 451,-394 519.6579,-383.857 600.5333,-379.6914 647.2729,-378.0355"/>
<polygon fill="#000000" stroke="#000000" points="647.3944,-381.5335 657.2719,-377.7013 647.1606,-374.5374 647.3944,-381.5335"/>
<text text-anchor="middle" x="485" y="-397.8" font-family="Times,serif" font-size="14.00" fill="#000000">1.2%</text>
</g>
<!-- ASAHIネット -->
<g id="node34" class="node">
<title>ASAHIネット</title>
<polygon fill="none" stroke="#000000" points="1054.5,-276 945.5,-276 945.5,-240 1054.5,-240 1054.5,-276"/>
<text text-anchor="middle" x="1000" y="-254.3" font-family="Times,serif" font-size="14.00" fill="#000000">ASAHIネット</text>
</g>
<!-- リクルートカード&#45;&gt;ASAHIネット -->
<g id="edge28" class="edge">
<title>リクルートカード&#45;&gt;ASAHIネット</title>
<path fill="none" stroke="#000000" stroke-width="2" d="M329.5559,-404.7117C348.6598,-361.7519 403.2589,-258 485,-258 485,-258 485,-258 861,-258 885.1744,-258 911.7137,-258 935.0653,-258"/>
<polygon fill="#000000" stroke="#000000" stroke-width="2" points="935.2048,-261.5001 945.2048,-258 935.2048,-254.5001 935.2048,-261.5001"/>
</g>
<!-- 楽天モバイル -->
<g id="node35" class="node">
<title>楽天モバイル</title>
<polygon fill="none" stroke="#000000" points="1051,-441 949,-441 949,-405 1051,-405 1051,-441"/>
<text text-anchor="middle" x="1000" y="-419.3" font-family="Times,serif" font-size="14.00" fill="#000000">楽天モバイル</text>
</g>
<!-- リクルートカード&#45;&gt;楽天モバイル -->
<g id="edge37" class="edge">
<title>リクルートカード&#45;&gt;楽天モバイル</title>
<path fill="none" stroke="#000000" stroke-width="2" d="M386.6479,-423C416.5731,-423 452.5981,-423 485,-423 485,-423 485,-423 861,-423 886.4441,-423 914.5081,-423 938.7178,-423"/>
<polygon fill="#000000" stroke="#000000" stroke-width="2" points="938.8385,-426.5001 948.8385,-423 938.8384,-419.5001 938.8385,-426.5001"/>
</g>
<!-- 楽天でんき -->
<g id="node36" class="node">
<title>楽天でんき</title>
<polygon fill="none" stroke="#000000" points="1044,-940 956,-940 956,-904 1044,-904 1044,-940"/>
<text text-anchor="middle" x="1000" y="-918.3" font-family="Times,serif" font-size="14.00" fill="#000000">楽天でんき</text>
</g>
<!-- リクルートカード&#45;&gt;楽天でんき -->
<g id="edge35" class="edge">
<title>リクルートカード&#45;&gt;楽天でんき</title>
<path fill="none" stroke="#000000" stroke-width="2" d="M324.1028,-441.2432C334.4928,-521.6691 388.3412,-845.5008 592,-957 706.6038,-1019.7433 866.9304,-974.3636 948.2695,-943.7657"/>
<polygon fill="#000000" stroke="#000000" stroke-width="2" points="949.7048,-946.9639 957.7889,-940.1158 947.1987,-940.4278 949.7048,-946.9639"/>
</g>
<!-- 関西電力 -->
<g id="node37" class="node">
<title>関西電力</title>
<polygon fill="none" stroke="#000000" points="1037,-1271 963,-1271 963,-1235 1037,-1235 1037,-1271"/>
<text text-anchor="middle" x="1000" y="-1249.3" font-family="Times,serif" font-size="14.00" fill="#000000">関西電力</text>
</g>
<!-- リクルートカード&#45;&gt;関西電力 -->
<g id="edge32" class="edge">
<title>リクルートカード&#45;&gt;関西電力</title>
<path fill="none" stroke="#000000" stroke-width="2" d="M323.5511,-441.2822C334.1848,-563.8313 398.4808,-1261 485,-1261 485,-1261 485,-1261 861,-1261 891.5151,-1261 925.7363,-1259.0546 952.5877,-1257.0824"/>
<polygon fill="#000000" stroke="#000000" stroke-width="2" points="953.1597,-1260.5491 962.8652,-1256.3001 952.6284,-1253.5693 953.1597,-1260.5491"/>
</g>
<!-- 楽天損保 -->
<g id="node39" class="node">
<title>楽天損保</title>
<polygon fill="none" stroke="#000000" points="1037,-144 963,-144 963,-108 1037,-108 1037,-144"/>
<text text-anchor="middle" x="1000" y="-122.3" font-family="Times,serif" font-size="14.00" fill="#000000">楽天損保</text>
</g>
<!-- リクルートカード&#45;&gt;楽天損保 -->
<g id="edge36" class="edge">
<title>リクルートカード&#45;&gt;楽天損保</title>
<path fill="none" stroke="#000000" stroke-width="2" d="M323.2708,-404.8684C328.8623,-340.3853 357.0719,-126 485,-126 485,-126 485,-126 861,-126 891.4647,-126 925.6852,-126 952.5488,-126"/>
<polygon fill="#000000" stroke="#000000" stroke-width="2" points="952.8319,-129.5001 962.8318,-126 952.8318,-122.5001 952.8319,-129.5001"/>
</g>
<!-- アイハート -->
<g id="node40" class="node">
<title>アイハート</title>
<polygon fill="none" stroke="#000000" points="1043,-90 957,-90 957,-54 1043,-54 1043,-90"/>
<text text-anchor="middle" x="1000" y="-68.3" font-family="Times,serif" font-size="14.00" fill="#000000">アイハート</text>
</g>
<!-- リクルートカード&#45;&gt;アイハート -->
<g id="edge31" class="edge">
<title>リクルートカード&#45;&gt;アイハート</title>
<path fill="none" stroke="#000000" stroke-width="2" d="M326.2608,-404.6229C343.5285,-332.402 410.9255,-72 485,-72 485,-72 485,-72 861,-72 889.2089,-72 920.638,-72 946.4649,-72"/>
<polygon fill="#000000" stroke="#000000" stroke-width="2" points="946.798,-75.5001 956.7979,-72 946.7979,-68.5001 946.798,-75.5001"/>
</g>
<!-- Amazon -->
<g id="node50" class="node">
<title>Amazon</title>
<polygon fill="none" stroke="#000000" points="1037,-198 963,-198 963,-162 1037,-162 1037,-198"/>
<text text-anchor="middle" x="1000" y="-176.3" font-family="Times,serif" font-size="14.00" fill="#000000">Amazon</text>
</g>
<!-- リクルートカード&#45;&gt;Amazon -->
<g id="edge29" class="edge">
<title>リクルートカード&#45;&gt;Amazon</title>
<path fill="none" stroke="#000000" stroke-width="2" d="M324.4773,-404.7876C333.6156,-345.8337 371.0384,-164 485,-164 485,-164 485,-164 861,-164 891.8015,-164 926.192,-167.9254 953.0594,-171.8876"/>
<polygon fill="#000000" stroke="#000000" stroke-width="2" points="952.5513,-175.3505 962.965,-173.3998 953.6078,-168.4307 952.5513,-175.3505"/>
</g>
<!-- じゃらん -->
<g id="node52" class="node">
<title>じゃらん</title>
<polygon fill="none" stroke="#000000" points="1037,-330 963,-330 963,-294 1037,-294 1037,-330"/>
<text text-anchor="middle" x="1000" y="-308.3" font-family="Times,serif" font-size="14.00" fill="#000000">じゃらん</text>
</g>
<!-- リクルートカード&#45;&gt;じゃらん -->
<g id="edge30" class="edge">
<title>リクルートカード&#45;&gt;じゃらん</title>
<path fill="none" stroke="#000000" stroke-width="2" d="M333.4383,-404.804C357.0872,-369.6874 415.0455,-296 485,-296 485,-296 485,-296 861,-296 891.8015,-296 926.192,-299.9254 953.0594,-303.8876"/>
<polygon fill="#000000" stroke="#000000" stroke-width="2" points="952.5513,-307.3505 962.965,-305.3998 953.6078,-300.4307 952.5513,-307.3505"/>
</g>
<!-- 電車 -->
<g id="node32" class="node">
<title>電車</title>
<polygon fill="none" stroke="#000000" points="1027,-1728 973,-1728 973,-1692 1027,-1692 1027,-1728"/>
<text text-anchor="middle" x="1000" y="-1706.3" font-family="Times,serif" font-size="14.00" fill="#000000">電車</text>
</g>
<!-- PiTaPa&#45;&gt;電車 -->
<g id="edge66" class="edge">
<title>PiTaPa&#45;&gt;電車</title>
<path fill="none" stroke="#000000" stroke-width="2" d="M354.7816,-1710C387.6969,-1710 439.8637,-1710 485,-1710 485,-1710 485,-1710 861,-1710 895.4512,-1710 934.7054,-1710 962.6918,-1710"/>
<polygon fill="#000000" stroke="#000000" stroke-width="2" points="962.8327,-1713.5001 972.8326,-1710 962.8326,-1706.5001 962.8327,-1713.5001"/>
</g>
<!-- バス -->
<g id="node33" class="node">
<title>バス</title>
<polygon fill="none" stroke="#000000" points="1027,-1817 973,-1817 973,-1781 1027,-1781 1027,-1817"/>
<text text-anchor="middle" x="1000" y="-1795.3" font-family="Times,serif" font-size="14.00" fill="#000000">バス</text>
</g>
<!-- PiTaPa&#45;&gt;バス -->
<g id="edge68" class="edge">
<title>PiTaPa&#45;&gt;バス</title>
<path fill="none" stroke="#000000" stroke-width="2" d="M354.5379,-1714.0413C372.8345,-1717.2933 395.6201,-1723.0317 414,-1733 451.8723,-1753.5399 441.9164,-1799 485,-1799 485,-1799 485,-1799 861,-1799 895.4512,-1799 934.7054,-1799 962.6918,-1799"/>
<polygon fill="#000000" stroke="#000000" stroke-width="2" points="962.8327,-1802.5001 972.8326,-1799 962.8326,-1795.5001 962.8327,-1802.5001"/>
</g>
<!-- Suica&#45;&gt;JREポイント -->
<g id="edge21" class="edge">
<title>Suica&#45;&gt;JREポイント</title>
<path fill="none" stroke="#000000" d="M513.2678,-1519.4956C520.9465,-1518.4633 529.2745,-1517.5177 537,-1517 566.1391,-1515.0475 598.3489,-1518.0698 625.3442,-1522.0823"/>
<polygon fill="#000000" stroke="#000000" points="624.9966,-1525.5704 635.4178,-1523.6602 626.0799,-1518.6547 624.9966,-1525.5704"/>
<text text-anchor="middle" x="555.5" y="-1520.8" font-family="Times,serif" font-size="14.00" fill="#000000">1.5%</text>
</g>
<!-- Suica&#45;&gt;電車 -->
<g id="edge18" class="edge">
<title>Suica&#45;&gt;電車</title>
<path fill="none" stroke="#000000" stroke-width="2" d="M505.3361,-1542.0673C509.9775,-1546.4798 514.7816,-1551.2903 519,-1556 554.9983,-1596.1912 545.3712,-1625.8529 592,-1653 720.5836,-1727.8607 777.0069,-1672.9588 924,-1696 936.7368,-1697.9965 950.6201,-1700.4668 962.9945,-1702.7738"/>
<polygon fill="#000000" stroke="#000000" stroke-width="2" points="962.4999,-1706.2422 972.9759,-1704.6594 963.7994,-1699.3639 962.4999,-1706.2422"/>
</g>
<!-- 松屋 -->
<g id="node48" class="node">
<title>松屋</title>
<polygon fill="none" stroke="#000000" points="1027,-1517 973,-1517 973,-1481 1027,-1481 1027,-1517"/>
<text text-anchor="middle" x="1000" y="-1495.3" font-family="Times,serif" font-size="14.00" fill="#000000">松屋</text>
</g>
<!-- Suica&#45;&gt;松屋 -->
<g id="edge19" class="edge">
<title>Suica&#45;&gt;松屋</title>
<path fill="none" stroke="#000000" stroke-width="2" d="M513.2416,-1517.4905C520.9204,-1515.8672 529.255,-1514.2385 537,-1513 561.281,-1509.1173 567.4611,-1508.5759 592,-1507 728.1794,-1498.2544 890.4044,-1498.1403 962.3917,-1498.62"/>
<polygon fill="#000000" stroke="#000000" stroke-width="2" points="962.723,-1502.1224 972.749,-1498.6974 962.7754,-1495.1226 962.723,-1502.1224"/>
</g>
<!-- 株主優待券 -->
<g id="node29" class="node">
<title>株主優待券</title>
<polygon fill="none" stroke="#000000" points="905,-1864 817,-1864 817,-1828 905,-1828 905,-1864"/>
<text text-anchor="middle" x="861" y="-1842.3" font-family="Times,serif" font-size="14.00" fill="#000000">株主優待券</text>
</g>
<!-- 現金&#45;&gt;株主優待券 -->
<g id="edge71" class="edge">
<title>現金&#45;&gt;株主優待券</title>
<path fill="none" stroke="#000000" stroke-width="2" d="M512.041,-1845.0813C573.5645,-1840.9832 724.9875,-1839.3706 806.671,-1841.5172"/>
<polygon fill="#000000" stroke="#000000" stroke-width="2" points="806.6581,-1845.0182 816.7566,-1841.8133 806.8636,-1838.0212 806.6581,-1845.0182"/>
</g>
<!-- 飲食店 -->
<g id="node45" class="node">
<title>飲食店</title>
<polygon fill="none" stroke="#000000" points="1029.5,-1955 970.5,-1955 970.5,-1919 1029.5,-1919 1029.5,-1955"/>
<text text-anchor="middle" x="1000" y="-1933.3" font-family="Times,serif" font-size="14.00" fill="#000000">飲食店</text>
</g>
<!-- 現金&#45;&gt;飲食店 -->
<g id="edge70" class="edge">
<title>現金&#45;&gt;飲食店</title>
<path fill="none" stroke="#000000" stroke-width="2" d="M512.2676,-1862.7555C520.0905,-1866.2323 528.7415,-1869.6435 537,-1872 616.641,-1894.7251 863.5094,-1922.5224 960.3975,-1932.8657"/>
<polygon fill="#000000" stroke="#000000" stroke-width="2" points="960.062,-1936.3496 970.3758,-1933.9257 960.8015,-1929.3888 960.062,-1936.3496"/>
</g>
<!-- nanacoポイント -->
<g id="node25" class="node">
<title>nanacoポイント</title>
<polygon fill="none" stroke="#000000" points="748.5,-1371 623.5,-1371 623.5,-1335 748.5,-1335 748.5,-1371"/>
<text text-anchor="middle" x="686" y="-1349.3" font-family="Times,serif" font-size="14.00" fill="#000000">nanacoポイント</text>
</g>
<!-- nanaco&#45;&gt;nanacoポイント -->
<g id="edge59" class="edge">
<title>nanaco&#45;&gt;nanacoポイント</title>
<path fill="none" stroke="#000000" d="M505.8198,-1325.2609C514.8017,-1332.0683 525.8057,-1339.087 537,-1343 560.9841,-1351.3838 588.4402,-1354.8143 613.1954,-1355.8552"/>
<polygon fill="#000000" stroke="#000000" points="613.1574,-1359.3555 623.2576,-1356.156 613.3667,-1352.3586 613.1574,-1359.3555"/>
<text text-anchor="middle" x="555.5" y="-1355.8" font-family="Times,serif" font-size="14.00" fill="#000000">1%</text>
</g>
<!-- セブンイレブン -->
<g id="node31" class="node">
<title>セブンイレブン</title>
<polygon fill="none" stroke="#000000" points="1057,-1325 943,-1325 943,-1289 1057,-1289 1057,-1325"/>
<text text-anchor="middle" x="1000" y="-1303.3" font-family="Times,serif" font-size="14.00" fill="#000000">セブンイレブン</text>
</g>
<!-- nanaco&#45;&gt;セブンイレブン -->
<g id="edge58" class="edge">
<title>nanaco&#45;&gt;セブンイレブン</title>
<path fill="none" stroke="#000000" stroke-width="2" d="M519.1894,-1307C603.2808,-1307 821.4013,-1307 932.6328,-1307"/>
<polygon fill="#000000" stroke="#000000" stroke-width="2" points="932.7305,-1310.5001 942.7304,-1307 932.7304,-1303.5001 932.7305,-1310.5001"/>
</g>
<!-- 楽天ポイント -->
<g id="node21" class="node">
<title>楽天ポイント</title>
<polygon fill="none" stroke="#000000" points="737,-522 635,-522 635,-486 737,-486 737,-522"/>
<text text-anchor="middle" x="686" y="-500.3" font-family="Times,serif" font-size="14.00" fill="#000000">楽天ポイント</text>
</g>
<!-- Edy&#45;&gt;楽天ポイント -->
<g id="edge51" class="edge">
<title>Edy&#45;&gt;楽天ポイント</title>
<path fill="none" stroke="#000000" d="M488.4771,-607.6754C494.1105,-583.4895 507.7017,-541.5769 537,-521 562.1579,-503.331 595.807,-498.3447 624.762,-498.1006"/>
<polygon fill="#000000" stroke="#000000" points="624.7525,-501.6005 634.7864,-498.1989 624.8213,-494.6009 624.7525,-501.6005"/>
<text text-anchor="middle" x="555.5" y="-524.8" font-family="Times,serif" font-size="14.00" fill="#000000">0.5%</text>
</g>
<!-- ヤマト運輸 -->
<g id="node38" class="node">
<title>ヤマト運輸</title>
<polygon fill="none" stroke="#000000" points="1044,-1050 956,-1050 956,-1014 1044,-1014 1044,-1050"/>
<text text-anchor="middle" x="1000" y="-1028.3" font-family="Times,serif" font-size="14.00" fill="#000000">ヤマト運輸</text>
</g>
<!-- Edy&#45;&gt;ヤマト運輸 -->
<g id="edge42" class="edge">
<title>Edy&#45;&gt;ヤマト運輸</title>
<path fill="none" stroke="#000000" stroke-width="2" d="M486.6095,-644.1786C490.7639,-685.7388 503.9301,-790.3337 537,-871 554.2099,-912.9796 554.8736,-930.9212 592,-957 699.9152,-1032.8031 862.1956,-1038.5371 945.8556,-1035.6573"/>
<polygon fill="#000000" stroke="#000000" stroke-width="2" points="946.0512,-1039.1524 955.9037,-1035.2565 945.7721,-1032.158 946.0512,-1039.1524"/>
</g>
<!-- ウェルシア -->
<g id="node41" class="node">
<title>ウェルシア</title>
<polygon fill="none" stroke="#000000" points="1043.5,-994 956.5,-994 956.5,-958 1043.5,-958 1043.5,-994"/>
<text text-anchor="middle" x="1000" y="-972.3" font-family="Times,serif" font-size="14.00" fill="#000000">ウェルシア</text>
</g>
<!-- Edy&#45;&gt;ウェルシア -->
<g id="edge47" class="edge">
<title>Edy&#45;&gt;ウェルシア</title>
<path fill="none" stroke="#000000" stroke-width="2" d="M489.0432,-644.1961C502.3897,-702.5777 546.7744,-883.4968 592,-920 645.3984,-963.0998 848.114,-973.0503 946.1982,-975.3315"/>
<polygon fill="#000000" stroke="#000000" stroke-width="2" points="946.1345,-978.8308 956.2073,-975.546 946.2846,-971.8324 946.1345,-978.8308"/>
</g>
<!-- ヨドバシカメラ -->
<g id="node43" class="node">
<title>ヨドバシカメラ</title>
<polygon fill="none" stroke="#000000" points="1058,-825 942,-825 942,-789 1058,-789 1058,-825"/>
<text text-anchor="middle" x="1000" y="-803.3" font-family="Times,serif" font-size="14.00" fill="#000000">ヨドバシカメラ</text>
</g>
<!-- Edy&#45;&gt;ヨドバシカメラ -->
<g id="edge44" class="edge">
<title>Edy&#45;&gt;ヨドバシカメラ</title>
<path fill="none" stroke="#000000" stroke-width="2" d="M493.5918,-644.4613C508.6143,-674.1506 542.8093,-731.2734 592,-752 704.3891,-799.3553 848.2175,-808.0174 931.6433,-808.5286"/>
<polygon fill="#000000" stroke="#000000" stroke-width="2" points="931.7521,-812.0288 941.7603,-808.5523 931.7685,-805.0288 931.7521,-812.0288"/>
</g>
<!-- 餃子の王将 -->
<g id="node44" class="node">
<title>餃子の王将</title>
<polygon fill="none" stroke="#000000" points="1044,-552 956,-552 956,-516 1044,-516 1044,-552"/>
<text text-anchor="middle" x="1000" y="-530.3" font-family="Times,serif" font-size="14.00" fill="#000000">餃子の王将</text>
</g>
<!-- Edy&#45;&gt;餃子の王将 -->
<g id="edge65" class="edge">
<title>Edy&#45;&gt;餃子の王将</title>
<path fill="none" stroke="#000000" stroke-width="2" d="M512.158,-619.1259C533.7212,-613.7962 564.6821,-606.4281 592,-601 718.0013,-575.9635 867.2279,-553.1882 945.6284,-541.7483"/>
<polygon fill="#000000" stroke="#000000" stroke-width="2" points="946.3591,-545.179 955.7516,-540.2768 945.3521,-538.2518 946.3591,-545.179"/>
</g>
<!-- FRESCO -->
<g id="node46" class="node">
<title>FRESCO</title>
<polygon fill="none" stroke="#000000" points="1040,-660 960,-660 960,-624 1040,-624 1040,-660"/>
<text text-anchor="middle" x="1000" y="-638.3" font-family="Times,serif" font-size="14.00" fill="#000000">FRESCO</text>
</g>
<!-- Edy&#45;&gt;FRESCO -->
<g id="edge62" class="edge">
<title>Edy&#45;&gt;FRESCO</title>
<path fill="none" stroke="#000000" stroke-width="2" d="M512.325,-626.8489C594.8362,-629.4124 842.35,-637.1021 949.5656,-640.4331"/>
<polygon fill="#000000" stroke="#000000" stroke-width="2" points="949.6944,-643.9387 959.7983,-640.751 949.9118,-636.9421 949.6944,-643.9387"/>
</g>
<!-- 業務スーパー -->
<g id="node47" class="node">
<title>業務スーパー</title>
<polygon fill="none" stroke="#000000" points="1050.5,-771 949.5,-771 949.5,-735 1050.5,-735 1050.5,-771"/>
<text text-anchor="middle" x="1000" y="-749.3" font-family="Times,serif" font-size="14.00" fill="#000000">業務スーパー</text>
</g>
<!-- Edy&#45;&gt;業務スーパー -->
<g id="edge61" class="edge">
<title>Edy&#45;&gt;業務スーパー</title>
<path fill="none" stroke="#000000" stroke-width="2" d="M499.8329,-644.11C518.7142,-665.7061 553.5332,-700.9001 592,-717 707.4298,-765.312 856.9534,-764.2155 939.1565,-758.8088"/>
<polygon fill="#000000" stroke="#000000" stroke-width="2" points="939.5963,-762.2867 949.3266,-758.095 939.1061,-755.3039 939.5963,-762.2867"/>
</g>
<!-- 吉野家 -->
<g id="node49" class="node">
<title>吉野家</title>
<polygon fill="none" stroke="#000000" points="1029.5,-606 970.5,-606 970.5,-570 1029.5,-570 1029.5,-606"/>
<text text-anchor="middle" x="1000" y="-584.3" font-family="Times,serif" font-size="14.00" fill="#000000">吉野家</text>
</g>
<!-- Edy&#45;&gt;吉野家 -->
<g id="edge50" class="edge">
<title>Edy&#45;&gt;吉野家</title>
<path fill="none" stroke="#000000" stroke-width="2" d="M512.325,-623.9838C597.6823,-617.6856 859.6214,-598.358 960.1469,-590.9406"/>
<polygon fill="#000000" stroke="#000000" stroke-width="2" points="960.4828,-594.4254 970.1981,-590.199 959.9676,-587.4444 960.4828,-594.4254"/>
</g>
<!-- PayPay&#45;&gt;飲食店 -->
<g id="edge11" class="edge">
<title>PayPay&#45;&gt;飲食店</title>
<path fill="none" stroke="#000000" stroke-width="2" d="M519.0963,-1964.0523C574.0566,-1963.9689 685.6263,-1963.1063 780,-1958 835.6888,-1954.9868 849.4883,-1952.3638 905,-1947 923.1812,-1945.2432 943.3029,-1943.1471 960.3298,-1941.3288"/>
<polygon fill="#000000" stroke="#000000" stroke-width="2" points="960.9175,-1944.7859 970.4865,-1940.238 960.17,-1937.8259 960.9175,-1944.7859"/>
</g>
<!-- Ponta&#45;&gt;じゃらん -->
<g id="edge53" class="edge">
<title>Ponta&#45;&gt;じゃらん</title>
<path fill="none" stroke="#000000" d="M714.6978,-371.0594C768.8755,-359.8442 886.6933,-335.4552 952.7239,-321.7865"/>
<polygon fill="#000000" stroke="#000000" points="953.7762,-325.1429 962.8591,-319.6884 952.3572,-318.2882 953.7762,-325.1429"/>
</g>
<!-- Tポイント -->
<g id="node20" class="node">
<title>Tポイント</title>
<polygon fill="none" stroke="#000000" points="727.5,-1198 644.5,-1198 644.5,-1162 727.5,-1162 727.5,-1198"/>
<text text-anchor="middle" x="686" y="-1176.3" font-family="Times,serif" font-size="14.00" fill="#000000">Tポイント</text>
</g>
<!-- はぴeポイント -->
<g id="node28" class="node">
<title>はぴeポイント</title>
<polygon fill="none" stroke="#000000" points="741,-1126 631,-1126 631,-1090 741,-1090 741,-1126"/>
<text text-anchor="middle" x="686" y="-1104.3" font-family="Times,serif" font-size="14.00" fill="#000000">はぴeポイント</text>
</g>
<!-- Tポイント&#45;&gt;はぴeポイント -->
<g id="edge49" class="edge">
<title>Tポイント&#45;&gt;はぴeポイント</title>
<path fill="none" stroke="#000000" d="M686,-1161.9539C686,-1153.4073 686,-1144.8607 686,-1136.3142"/>
<polygon fill="#000000" stroke="#000000" points="689.5001,-1136.2812 686,-1126.2813 682.5001,-1136.2813 689.5001,-1136.2812"/>
</g>
<!-- 楽天ポイント&#45;&gt;楽天モバイル -->
<g id="edge39" class="edge">
<title>楽天ポイント&#45;&gt;楽天モバイル</title>
<path fill="none" stroke="#000000" d="M737.1484,-490.8057C792.3454,-476.567 880.2162,-453.8996 938.9792,-438.741"/>
<polygon fill="#000000" stroke="#000000" points="940.0648,-442.0757 948.8735,-436.1887 938.3162,-435.2975 940.0648,-442.0757"/>
</g>
<!-- 楽天ポイント&#45;&gt;楽天でんき -->
<g id="edge40" class="edge">
<title>楽天ポイント&#45;&gt;楽天でんき</title>
<path fill="none" stroke="#000000" d="M698.3542,-522.071C721.2529,-555.4236 772.0519,-628.7513 817,-689 873.9491,-765.3349 944.2494,-853.1345 978.797,-895.8829"/>
<polygon fill="#000000" stroke="#000000" points="976.2042,-898.2428 985.2153,-903.8151 981.646,-893.8396 976.2042,-898.2428"/>
</g>
<!-- JREポイント&#45;&gt;Suica -->
<g id="edge22" class="edge">
<title>JREポイント&#45;&gt;Suica</title>
<path fill="none" stroke="#000000" d="M635.2271,-1535.0661C606.3775,-1535.2345 569.6133,-1534.7143 537,-1532 532.527,-1531.6277 527.8551,-1531.1036 523.2257,-1530.4996"/>
<polygon fill="#000000" stroke="#000000" points="523.6461,-1527.0243 513.2522,-1529.0779 522.6581,-1533.9542 523.6461,-1527.0243"/>
</g>
<!-- ビックポイント&#45;&gt;ビックカメラ -->
<g id="edge16" class="edge">
<title>ビックポイント&#45;&gt;ビックカメラ</title>
<path fill="none" stroke="#000000" d="M744.3251,-1612.4403C799.8723,-1599.5265 883.1326,-1580.1698 939.4162,-1567.0848"/>
<polygon fill="#000000" stroke="#000000" points="940.303,-1570.472 949.2506,-1564.7984 938.7178,-1563.6539 940.303,-1570.472"/>
</g>
<!-- Amazonポイント -->
<g id="node24" class="node">
<title>Amazonポイント</title>
<polygon fill="none" stroke="#000000" points="751.5,-229 620.5,-229 620.5,-193 751.5,-193 751.5,-229"/>
<text text-anchor="middle" x="686" y="-207.3" font-family="Times,serif" font-size="14.00" fill="#000000">Amazonポイント</text>
</g>
<!-- Amazonポイント&#45;&gt;Amazon -->
<g id="edge56" class="edge">
<title>Amazonポイント&#45;&gt;Amazon</title>
<path fill="none" stroke="#000000" d="M751.8247,-198.8869C811.8442,-191.2648 899.0692,-182.858 952.5283,-179.6859"/>
<polygon fill="#000000" stroke="#000000" points="952.9594,-183.1676 962.7519,-179.1231 952.5746,-176.1782 952.9594,-183.1676"/>
</g>
<!-- nanacoポイント&#45;&gt;nanaco -->
<g id="edge60" class="edge">
<title>nanacoポイント&#45;&gt;nanaco</title>
<path fill="none" stroke="#000000" d="M623.242,-1338.6375C592.6068,-1331.6264 556.4975,-1323.3626 528.8671,-1317.0392"/>
<polygon fill="#000000" stroke="#000000" points="529.6257,-1313.6224 519.0969,-1314.8033 528.0641,-1320.446 529.6257,-1313.6224"/>
</g>
<!-- FRESCOポイント -->
<g id="node26" class="node">
<title>FRESCOポイント</title>
<polygon fill="none" stroke="#000000" points="754.5,-708 617.5,-708 617.5,-672 754.5,-672 754.5,-708"/>
<text text-anchor="middle" x="686" y="-686.3" font-family="Times,serif" font-size="14.00" fill="#000000">FRESCOポイント</text>
</g>
<!-- FRESCOポイント&#45;&gt;FRESCO -->
<g id="edge64" class="edge">
<title>FRESCOポイント&#45;&gt;FRESCO</title>
<path fill="none" stroke="#000000" d="M754.5133,-697.549C798.1679,-700.4409 855.6015,-700.6704 905,-689 925.0963,-684.2522 945.8287,-674.6356 962.7779,-665.331"/>
<polygon fill="#000000" stroke="#000000" points="964.8054,-668.2049 971.7769,-660.2268 961.3518,-662.1161 964.8054,-668.2049"/>
</g>
<!-- ヨドバシゴールドポイント -->
<g id="node27" class="node">
<title>ヨドバシゴールドポイント</title>
<polygon fill="none" stroke="#000000" points="780,-911 592,-911 592,-875 780,-875 780,-911"/>
<text text-anchor="middle" x="686" y="-889.3" font-family="Times,serif" font-size="14.00" fill="#000000">ヨドバシゴールドポイント</text>
</g>
<!-- ヨドバシゴールドポイント&#45;&gt;ヨドバシカメラ -->
<g id="edge46" class="edge">
<title>ヨドバシゴールドポイント&#45;&gt;ヨドバシカメラ</title>
<path fill="none" stroke="#000000" d="M780.0345,-896.8628C819.6653,-895.6723 865.6352,-890.4952 905,-876 931.0434,-866.4101 956.2556,-847.5044 974.1545,-831.9042"/>
<polygon fill="#000000" stroke="#000000" points="976.7304,-834.2956 981.8404,-825.0145 972.0579,-829.0832 976.7304,-834.2956"/>
</g>
<!-- はぴeポイント&#45;&gt;関西電力 -->
<g id="edge34" class="edge">
<title>はぴeポイント&#45;&gt;関西電力</title>
<path fill="none" stroke="#000000" d="M741.0967,-1107.2804C787.5275,-1108.9306 854.3063,-1116.7531 905,-1145 939.3875,-1164.1609 967.4475,-1200.6764 983.9333,-1225.9074"/>
<polygon fill="#000000" stroke="#000000" points="981.1608,-1228.0708 989.4737,-1234.6395 987.0715,-1224.3205 981.1608,-1228.0708"/>
</g>
<!-- 株主優待券&#45;&gt;現金 -->
<g id="edge73" class="edge">
<title>株主優待券&#45;&gt;現金</title>
<path fill="none" stroke="#000000" d="M816.7566,-1850.8927C741.9451,-1854.5368 591.8088,-1855.6312 522.1168,-1852.9329"/>
<polygon fill="#000000" stroke="#000000" points="522.1859,-1849.4326 512.041,-1852.4872 521.8765,-1856.4258 522.1859,-1849.4326"/>
</g>
<!-- 株主優待券&#45;&gt;電車 -->
<g id="edge72" class="edge">
<title>株主優待券&#45;&gt;電車</title>
<path fill="none" stroke="#000000" stroke-width="2" d="M879.4581,-1827.9403C903.7591,-1804.1638 946.615,-1762.2328 974.1375,-1735.3043"/>
<polygon fill="#000000" stroke="#000000" stroke-width="2" points="976.7655,-1737.6297 981.4655,-1728.1344 971.87,-1732.6263 976.7655,-1737.6297"/>
</g>
<!-- 電車&#45;&gt;PiTaPa -->
<g id="edge67" class="edge">
<title>電車&#45;&gt;PiTaPa</title>
<path fill="none" stroke="#000000" d="M972.7282,-1716.2681C958.3248,-1719.2618 940.3002,-1722.5112 924,-1724 706.2398,-1743.8895 650.2288,-1737.8315 432,-1724 409.6472,-1722.5833 384.8921,-1719.5627 364.5351,-1716.6886"/>
<polygon fill="#000000" stroke="#000000" points="365.0251,-1713.2232 354.6266,-1715.2529 364.0213,-1720.1508 365.0251,-1713.2232"/>
<text text-anchor="middle" x="686" y="-1740.8" font-family="Times,serif" font-size="14.00" fill="#000000">10%</text>
</g>
<!-- バス&#45;&gt;PiTaPa -->
<g id="edge69" class="edge">
<title>バス&#45;&gt;PiTaPa</title>
<path fill="none" stroke="#000000" d="M981.0399,-1817.0831C962.8094,-1833.6256 933.8414,-1857.7739 905,-1873 780.9792,-1938.4737 731.0896,-1930.9456 592,-1913 527.7443,-1904.7096 505.0721,-1911.6895 451,-1876 397.0321,-1840.3793 355.9779,-1774.5563 335.8112,-1737.3954"/>
<polygon fill="#000000" stroke="#000000" points="338.6903,-1735.3541 330.9109,-1728.1617 332.5071,-1738.6356 338.6903,-1735.3541"/>
<text text-anchor="middle" x="686" y="-1929.8" font-family="Times,serif" font-size="14.00" fill="#000000">10%</text>
</g>
<!-- 楽天モバイル&#45;&gt;楽天ポイント -->
<g id="edge38" class="edge">
<title>楽天モバイル&#45;&gt;楽天ポイント</title>
<path fill="none" stroke="#000000" d="M979.2859,-441.2521C964.8184,-452.922 944.4936,-467.2709 924,-475 866.7316,-496.5985 796.7319,-502.953 747.5195,-504.4495"/>
<polygon fill="#000000" stroke="#000000" points="747.2569,-500.9548 737.3457,-504.6989 747.4285,-507.9527 747.2569,-500.9548"/>
<text text-anchor="middle" x="861" y="-503.8" font-family="Times,serif" font-size="14.00" fill="#000000">0.5%</text>
</g>
<!-- 関西電力&#45;&gt;はぴeポイント -->
<g id="edge33" class="edge">
<title>関西電力&#45;&gt;はぴeポイント</title>
<path fill="none" stroke="#000000" d="M995.6033,-1234.7379C986.0399,-1199.5823 959.6753,-1123.2221 905,-1092 855.8588,-1063.9381 790.0733,-1073.7991 743.4683,-1087.0391"/>
<polygon fill="#000000" stroke="#000000" points="742.4166,-1083.7003 733.8274,-1089.9032 744.4101,-1090.4104 742.4166,-1083.7003"/>
<text text-anchor="middle" x="861" y="-1095.8" font-family="Times,serif" font-size="14.00" fill="#000000">0.5%</text>
</g>
<!-- ヤマト運輸&#45;&gt;Tポイント -->
<g id="edge43" class="edge">
<title>ヤマト運輸&#45;&gt;Tポイント</title>
<path fill="none" stroke="#000000" d="M995.1905,-1050.0211C985.0532,-1083.928 957.9424,-1156.4537 905,-1186 853.6354,-1214.6657 784.4066,-1206.5072 737.643,-1195.5547"/>
<polygon fill="#000000" stroke="#000000" points="738.2749,-1192.1058 727.7279,-1193.1121 736.6004,-1198.9026 738.2749,-1192.1058"/>
<text text-anchor="middle" x="861" y="-1209.8" font-family="Times,serif" font-size="14.00" fill="#000000">0.5%</text>
</g>
<!-- ウェルシア&#45;&gt;Tポイント -->
<g id="edge48" class="edge">
<title>ウェルシア&#45;&gt;Tポイント</title>
<path fill="none" stroke="#000000" d="M956.4448,-992.9615C951.0994,-996.361 946.0898,-1000.351 942,-1005 909.0417,-1042.465 940.8196,-1076.2605 905,-1111 859.7173,-1154.9174 786.7372,-1170.9053 737.604,-1176.7116"/>
<polygon fill="#000000" stroke="#000000" points="737.0665,-1173.2492 727.5,-1177.8025 737.818,-1180.2088 737.0665,-1173.2492"/>
<text text-anchor="middle" x="861" y="-1163.8" font-family="Times,serif" font-size="14.00" fill="#000000">1%</text>
</g>
<!-- ビックカメラ&#45;&gt;ビックポイント -->
<g id="edge14" class="edge">
<title>ビックカメラ&#45;&gt;ビックポイント</title>
<path fill="none" stroke="#000000" stroke-dasharray="5,2" d="M974.8611,-1571.0209C960.6154,-1580.3182 942.0721,-1590.9504 924,-1597 868.7235,-1615.5037 802.7036,-1622.4413 754.2351,-1624.9297"/>
<polygon fill="#000000" stroke="#000000" points="753.9964,-1621.4369 744.169,-1625.3957 754.3202,-1628.4294 753.9964,-1621.4369"/>
<text text-anchor="middle" x="861" y="-1623.8" font-family="Times,serif" font-size="14.00" fill="#000000">9.5%</text>
</g>
<!-- ヨドバシカメラ&#45;&gt;ヨドバシゴールドポイント -->
<g id="edge45" class="edge">
<title>ヨドバシカメラ&#45;&gt;ヨドバシゴールドポイント</title>
<path fill="none" stroke="#000000" d="M941.9221,-822.9067C891.1222,-836.82 817.0068,-857.1192 761.5944,-872.2958"/>
<polygon fill="#000000" stroke="#000000" points="760.5449,-868.9543 751.8247,-874.9716 762.3941,-875.7056 760.5449,-868.9543"/>
<text text-anchor="middle" x="861" y="-860.8" font-family="Times,serif" font-size="14.00" fill="#000000">10%</text>
</g>
<!-- FRESCO&#45;&gt;FRESCOポイント -->
<g id="edge63" class="edge">
<title>FRESCO&#45;&gt;FRESCOポイント</title>
<path fill="none" stroke="#000000" d="M959.9053,-648.1291C910.8844,-655.6228 826.7896,-668.478 764.6794,-677.9726"/>
<polygon fill="#000000" stroke="#000000" points="763.8769,-674.5545 754.5206,-679.5255 764.9347,-681.4741 763.8769,-674.5545"/>
<text text-anchor="middle" x="861" y="-673.8" font-family="Times,serif" font-size="14.00" fill="#000000">0.5%</text>
</g>
<!-- Amazon&#45;&gt;Amazonポイント -->
<g id="edge55" class="edge">
<title>Amazon&#45;&gt;Amazonポイント</title>
<path fill="none" stroke="#000000" d="M962.7519,-188.2316C913.4572,-195.487 825.3804,-204.6222 761.8076,-209.3892"/>
<polygon fill="#000000" stroke="#000000" points="761.5442,-205.8991 751.8247,-210.1158 762.0524,-212.8806 761.5442,-205.8991"/>
</g>
<!-- じゃらん&#45;&gt;Ponta -->
<g id="edge54" class="edge">
<title>じゃらん&#45;&gt;Ponta</title>
<path fill="none" stroke="#000000" d="M967.1235,-330.0502C949.2654,-339.0309 926.495,-349.1846 905,-355 843.3621,-371.676 768.8807,-375.9553 724.5856,-376.9164"/>
<polygon fill="#000000" stroke="#000000" points="724.4752,-373.4177 714.5366,-377.0883 724.595,-380.4167 724.4752,-373.4177"/>
<text text-anchor="middle" x="861" y="-374.8" font-family="Times,serif" font-size="14.00" fill="#000000">2%</text>
</g>
</g>
</svg>
