<?xml version="1.0" encoding="UTF-8" standalone="no"?>
<!DOCTYPE svg PUBLIC "-//W3C//DTD SVG 1.1//EN"
 "http://www.w3.org/Graphics/SVG/1.1/DTD/svg11.dtd">
<!-- Generated by graphviz version 2.40.1 (0)
 -->
<!-- Title: MoneyFlow Pages: 1 -->
<svg width="1072pt" height="1858pt"
 viewBox="0.00 0.00 1072.00 1857.89" xmlns="http://www.w3.org/2000/svg" xmlns:xlink="http://www.w3.org/1999/xlink">
<g id="graph0" class="graph" transform="scale(1 1) rotate(0) translate(4 1853.8861)">
<title>MoneyFlow</title>
<polygon fill="#ffffff" stroke="transparent" points="-4,4 -4,-1853.8861 1068,-1853.8861 1068,4 -4,4"/>
<!-- 収入 -->
<g id="node1" class="node">
<title>収入</title>
<text text-anchor="middle" x="27" y="-14.3" font-family="Times,serif" font-size="14.00" fill="#000000">収入</text>
</g>
<!-- 銀行口座 -->
<g id="node2" class="node">
<title>銀行口座</title>
<text text-anchor="middle" x="142" y="-14.3" font-family="Times,serif" font-size="14.00" fill="#000000">銀行口座</text>
</g>
<!-- 収入&#45;&gt;銀行口座 -->
<g id="edge1" class="edge">
<title>収入&#45;&gt;銀行口座</title>
<path fill="none" stroke="#000000" d="M54.2534,-18C69.3972,-18 88.4539,-18 104.9357,-18"/>
</g>
<!-- クレジットカード -->
<g id="node3" class="node">
<title>クレジットカード</title>
<text text-anchor="middle" x="322" y="-14.3" font-family="Times,serif" font-size="14.00" fill="#000000">クレジットカード</text>
</g>
<!-- 銀行口座&#45;&gt;クレジットカード -->
<g id="edge2" class="edge">
<title>銀行口座&#45;&gt;クレジットカード</title>
<path fill="none" stroke="#000000" d="M179.2961,-18C201.6417,-18 230.6798,-18 256.7236,-18"/>
</g>
<!-- マネー -->
<g id="node4" class="node">
<title>マネー</title>
<text text-anchor="middle" x="485" y="-14.3" font-family="Times,serif" font-size="14.00" fill="#000000">マネー</text>
</g>
<!-- クレジットカード&#45;&gt;マネー -->
<g id="edge3" class="edge">
<title>クレジットカード&#45;&gt;マネー</title>
<path fill="none" stroke="#000000" d="M387.3591,-18C410.9188,-18 436.353,-18 455.3549,-18"/>
</g>
<!-- ポイント -->
<g id="node5" class="node">
<title>ポイント</title>
<text text-anchor="middle" x="692" y="-14.3" font-family="Times,serif" font-size="14.00" fill="#000000">ポイント</text>
</g>
<!-- マネー&#45;&gt;ポイント -->
<g id="edge4" class="edge">
<title>マネー&#45;&gt;ポイント</title>
<path fill="none" stroke="#000000" d="M514.6581,-18C551.5493,-18 614.5569,-18 654.6899,-18"/>
</g>
<!-- 金券 -->
<g id="node6" class="node">
<title>金券</title>
<text text-anchor="middle" x="870" y="-14.3" font-family="Times,serif" font-size="14.00" fill="#000000">金券</text>
</g>
<!-- ポイント&#45;&gt;金券 -->
<g id="edge5" class="edge">
<title>ポイント&#45;&gt;金券</title>
<path fill="none" stroke="#000000" d="M729.3146,-18C763.262,-18 812.5623,-18 842.8847,-18"/>
</g>
<!-- 支出 -->
<g id="node7" class="node">
<title>支出</title>
<text text-anchor="middle" x="1006" y="-14.3" font-family="Times,serif" font-size="14.00" fill="#000000">支出</text>
</g>
<!-- 金券&#45;&gt;支出 -->
<g id="edge6" class="edge">
<title>金券&#45;&gt;支出</title>
<path fill="none" stroke="#000000" d="M897.1948,-18C920.9147,-18 955.1464,-18 978.8524,-18"/>
</g>
<!-- 給与 -->
<g id="node8" class="node">
<title>給与</title>
<polygon fill="none" stroke="#000000" points="54,-1682 0,-1682 0,-1646 54,-1646 54,-1682"/>
<text text-anchor="middle" x="27" y="-1660.3" font-family="Times,serif" font-size="14.00" fill="#000000">給与</text>
</g>
<!-- 三井住友銀行 -->
<g id="node9" class="node">
<title>三井住友銀行</title>
<polygon fill="none" stroke="#000000" points="193,-1682 91,-1682 91,-1646 193,-1646 193,-1682"/>
<text text-anchor="middle" x="142" y="-1660.3" font-family="Times,serif" font-size="14.00" fill="#000000">三井住友銀行</text>
</g>
<!-- 給与&#45;&gt;三井住友銀行 -->
<g id="edge7" class="edge">
<title>給与&#45;&gt;三井住友銀行</title>
<path fill="none" stroke="#000000" stroke-width="2" d="M54.2534,-1664C62.2529,-1664 71.3442,-1664 80.571,-1664"/>
<polygon fill="#000000" stroke="#000000" stroke-width="2" points="80.5912,-1667.5001 90.5911,-1664 80.5911,-1660.5001 80.5912,-1667.5001"/>
</g>
<!-- 住信SBI銀行 -->
<g id="node10" class="node">
<title>住信SBI銀行</title>
<polygon fill="none" stroke="#000000" points="192,-1306 92,-1306 92,-1270 192,-1270 192,-1306"/>
<text text-anchor="middle" x="142" y="-1284.3" font-family="Times,serif" font-size="14.00" fill="#000000">住信SBI銀行</text>
</g>
<!-- 三井住友銀行&#45;&gt;住信SBI銀行 -->
<g id="edge9" class="edge">
<title>三井住友銀行&#45;&gt;住信SBI銀行</title>
<path fill="none" stroke="#000000" stroke-width="2" d="M142,-1645.8386C142,-1536.1046 142,-1426.3706 142,-1316.6366"/>
<polygon fill="#000000" stroke="#000000" stroke-width="2" points="145.5001,-1316.3593 142,-1306.3594 138.5001,-1316.3594 145.5001,-1316.3593"/>
</g>
<!-- 三井住友VISAカード -->
<g id="node11" class="node">
<title>三井住友VISAカード</title>
<polygon fill="none" stroke="#000000" points="398.5,-1768 245.5,-1768 245.5,-1732 398.5,-1732 398.5,-1768"/>
<text text-anchor="middle" x="322" y="-1746.3" font-family="Times,serif" font-size="14.00" fill="#000000">三井住友VISAカード</text>
</g>
<!-- 三井住友銀行&#45;&gt;三井住友VISAカード -->
<g id="edge13" class="edge">
<title>三井住友銀行&#45;&gt;三井住友VISAカード</title>
<path fill="none" stroke="#000000" stroke-width="2" d="M179.7339,-1682.0284C207.4545,-1695.2727 245.2986,-1713.3538 274.9866,-1727.538"/>
<polygon fill="#000000" stroke="#000000" stroke-width="2" points="273.7839,-1730.8423 284.3158,-1731.9953 276.8016,-1724.5262 273.7839,-1730.8423"/>
</g>
<!-- 現金 -->
<g id="node16" class="node">
<title>現金</title>
<polygon fill="none" stroke="#000000" points="512,-1575 458,-1575 458,-1539 512,-1539 512,-1575"/>
<text text-anchor="middle" x="485" y="-1553.3" font-family="Times,serif" font-size="14.00" fill="#000000">現金</text>
</g>
<!-- 三井住友銀行&#45;&gt;現金 -->
<g id="edge8" class="edge">
<title>三井住友銀行&#45;&gt;現金</title>
<path fill="none" stroke="#000000" stroke-width="2" d="M193.3506,-1647.981C263.2776,-1626.167 386.7603,-1587.6462 448.1757,-1568.4875"/>
<polygon fill="#000000" stroke="#000000" stroke-width="2" points="449.3317,-1571.7933 457.8357,-1565.474 447.2471,-1565.1109 449.3317,-1571.7933"/>
</g>
<!-- 関西電力 -->
<g id="node39" class="node">
<title>関西電力</title>
<polygon fill="none" stroke="#000000" points="1043,-1697 969,-1697 969,-1661 1043,-1661 1043,-1697"/>
<text text-anchor="middle" x="1006" y="-1675.3" font-family="Times,serif" font-size="14.00" fill="#000000">関西電力</text>
</g>
<!-- 三井住友銀行&#45;&gt;関西電力 -->
<g id="edge10" class="edge">
<title>三井住友銀行&#45;&gt;関西電力</title>
<path fill="none" stroke="#000000" stroke-width="2" d="M193.1133,-1670.5356C229.0911,-1674.5778 278.4119,-1679 322,-1679 322,-1679 322,-1679 870,-1679 899.4945,-1679 932.5871,-1679 958.7435,-1679"/>
<polygon fill="#000000" stroke="#000000" stroke-width="2" points="958.7685,-1682.5001 968.7684,-1679 958.7684,-1675.5001 958.7685,-1682.5001"/>
</g>
<!-- ビックカメラSuicaカード -->
<g id="node12" class="node">
<title>ビックカメラSuicaカード</title>
<polygon fill="none" stroke="#000000" points="414,-1306 230,-1306 230,-1270 414,-1270 414,-1306"/>
<text text-anchor="middle" x="322" y="-1284.3" font-family="Times,serif" font-size="14.00" fill="#000000">ビックカメラSuicaカード</text>
</g>
<!-- 住信SBI銀行&#45;&gt;ビックカメラSuicaカード -->
<g id="edge34" class="edge">
<title>住信SBI銀行&#45;&gt;ビックカメラSuicaカード</title>
<path fill="none" stroke="#000000" stroke-width="2" d="M192.14,-1288C200.7724,-1288 210.018,-1288 219.4511,-1288"/>
<polygon fill="#000000" stroke="#000000" stroke-width="2" points="219.7405,-1291.5001 229.7405,-1288 219.7404,-1284.5001 219.7405,-1291.5001"/>
</g>
<!-- リクルートカード -->
<g id="node13" class="node">
<title>リクルートカード</title>
<polygon fill="none" stroke="#000000" points="386.5,-444 257.5,-444 257.5,-408 386.5,-408 386.5,-444"/>
<text text-anchor="middle" x="322" y="-422.3" font-family="Times,serif" font-size="14.00" fill="#000000">リクルートカード</text>
</g>
<!-- 住信SBI銀行&#45;&gt;リクルートカード -->
<g id="edge35" class="edge">
<title>住信SBI銀行&#45;&gt;リクルートカード</title>
<path fill="none" stroke="#000000" stroke-width="2" d="M145.7596,-1269.9959C168.5426,-1160.8904 288.0799,-588.4394 316.1128,-454.1931"/>
<polygon fill="#000000" stroke="#000000" stroke-width="2" points="319.5672,-454.7728 318.1852,-444.2685 312.715,-453.3419 319.5672,-454.7728"/>
</g>
<!-- 住信SBI銀行&#45;&gt;現金 -->
<g id="edge32" class="edge">
<title>住信SBI銀行&#45;&gt;現金</title>
<path fill="none" stroke="#000000" stroke-width="2" d="M165.0378,-1306.0675C224.8161,-1352.9491 384.9834,-1478.5613 453.3566,-1532.1835"/>
<polygon fill="#000000" stroke="#000000" stroke-width="2" points="451.5821,-1535.2398 461.6108,-1538.6569 455.9019,-1529.7316 451.5821,-1535.2398"/>
</g>
<!-- 家賃 -->
<g id="node31" class="node">
<title>家賃</title>
<polygon fill="none" stroke="#000000" points="1033,-90 979,-90 979,-54 1033,-54 1033,-90"/>
<text text-anchor="middle" x="1006" y="-68.3" font-family="Times,serif" font-size="14.00" fill="#000000">家賃</text>
</g>
<!-- 住信SBI銀行&#45;&gt;家賃 -->
<g id="edge33" class="edge">
<title>住信SBI銀行&#45;&gt;家賃</title>
<path fill="none" stroke="#000000" stroke-width="2" d="M142.699,-1269.8668C148.7616,-1118.6003 195.2869,-72 322,-72 322,-72 322,-72 870,-72 903.3507,-72 941.3018,-72 968.6235,-72"/>
<polygon fill="#000000" stroke="#000000" stroke-width="2" points="968.9063,-75.5001 978.9063,-72 968.9062,-68.5001 968.9063,-75.5001"/>
</g>
<!-- PiTaPa -->
<g id="node15" class="node">
<title>PiTaPa</title>
<polygon fill="none" stroke="#000000" points="517.5,-1840 452.5,-1840 452.5,-1804 517.5,-1804 517.5,-1840"/>
<text text-anchor="middle" x="485" y="-1818.3" font-family="Times,serif" font-size="14.00" fill="#000000">PiTaPa</text>
</g>
<!-- 三井住友VISAカード&#45;&gt;PiTaPa -->
<g id="edge15" class="edge">
<title>三井住友VISAカード&#45;&gt;PiTaPa</title>
<path fill="none" stroke="#000000" stroke-width="2" d="M363.1318,-1768.1686C387.5267,-1778.9443 418.3773,-1792.5716 442.9344,-1803.4189"/>
<polygon fill="#000000" stroke="#000000" stroke-width="2" points="441.7897,-1806.7395 452.3513,-1807.5785 444.6181,-1800.3363 441.7897,-1806.7395"/>
</g>
<!-- ワールドプレゼントポイント -->
<g id="node22" class="node">
<title>ワールドプレゼントポイント</title>
<polygon fill="none" stroke="#000000" points="792,-1743 592,-1743 592,-1707 792,-1707 792,-1743"/>
<text text-anchor="middle" x="692" y="-1721.3" font-family="Times,serif" font-size="14.00" fill="#000000">ワールドプレゼントポイント</text>
</g>
<!-- 三井住友VISAカード&#45;&gt;ワールドプレゼントポイント -->
<g id="edge14" class="edge">
<title>三井住友VISAカード&#45;&gt;ワールドプレゼントポイント</title>
<path fill="none" stroke="#000000" stroke-dasharray="5,2" d="M398.6642,-1744.82C451.5893,-1741.244 522.7788,-1736.4339 581.7721,-1732.4478"/>
<polygon fill="#000000" stroke="#000000" points="582.1409,-1735.931 591.8822,-1731.7647 581.669,-1728.9469 582.1409,-1735.931"/>
<text text-anchor="middle" x="485" y="-1744.8" font-family="Times,serif" font-size="14.00" fill="#000000">0.5%</text>
</g>
<!-- Suica -->
<g id="node14" class="node">
<title>Suica</title>
<polygon fill="none" stroke="#000000" points="513,-1306 457,-1306 457,-1270 513,-1270 513,-1306"/>
<text text-anchor="middle" x="485" y="-1284.3" font-family="Times,serif" font-size="14.00" fill="#000000">Suica</text>
</g>
<!-- ビックカメラSuicaカード&#45;&gt;Suica -->
<g id="edge24" class="edge">
<title>ビックカメラSuicaカード&#45;&gt;Suica</title>
<path fill="none" stroke="#000000" stroke-width="2" d="M414.4538,-1288C425.7462,-1288 436.7529,-1288 446.5853,-1288"/>
<polygon fill="#000000" stroke="#000000" stroke-width="2" points="446.7516,-1291.5001 456.7515,-1288 446.7515,-1284.5001 446.7516,-1291.5001"/>
</g>
<!-- JREポイント -->
<g id="node23" class="node">
<title>JREポイント</title>
<polygon fill="none" stroke="#000000" points="742.5,-1339 641.5,-1339 641.5,-1303 742.5,-1303 742.5,-1339"/>
<text text-anchor="middle" x="692" y="-1317.3" font-family="Times,serif" font-size="14.00" fill="#000000">JREポイント</text>
</g>
<!-- ビックカメラSuicaカード&#45;&gt;JREポイント -->
<g id="edge19" class="edge">
<title>ビックカメラSuicaカード&#45;&gt;JREポイント</title>
<path fill="none" stroke="#000000" d="M361.2193,-1269.9165C400.9576,-1253.8829 464.2142,-1234.6355 519,-1246 566.9035,-1255.9369 617.8357,-1279.8322 651.9345,-1298.0019"/>
<polygon fill="#000000" stroke="#000000" points="650.629,-1301.2751 661.0892,-1302.9585 653.9619,-1295.1195 650.629,-1301.2751"/>
<text text-anchor="middle" x="485" y="-1249.8" font-family="Times,serif" font-size="14.00" fill="#000000">0.5%</text>
</g>
<!-- ビックポイント -->
<g id="node24" class="node">
<title>ビックポイント</title>
<polygon fill="none" stroke="#000000" points="750,-1465 634,-1465 634,-1429 750,-1429 750,-1465"/>
<text text-anchor="middle" x="692" y="-1443.3" font-family="Times,serif" font-size="14.00" fill="#000000">ビックポイント</text>
</g>
<!-- ビックカメラSuicaカード&#45;&gt;ビックポイント -->
<g id="edge22" class="edge">
<title>ビックカメラSuicaカード&#45;&gt;ビックポイント</title>
<path fill="none" stroke="#000000" d="M338.4572,-1306.2224C358.5186,-1327.3269 394.4199,-1361.663 432,-1381 492.7857,-1412.2775 569.3465,-1429.3859 623.6063,-1438.2907"/>
<polygon fill="#000000" stroke="#000000" points="623.3839,-1441.7992 633.8092,-1439.9118 624.4823,-1434.8859 623.3839,-1441.7992"/>
<text text-anchor="middle" x="485" y="-1417.8" font-family="Times,serif" font-size="14.00" fill="#000000">0.5%</text>
</g>
<!-- ビックカメラ -->
<g id="node43" class="node">
<title>ビックカメラ</title>
<polygon fill="none" stroke="#000000" points="1056.5,-1385 955.5,-1385 955.5,-1349 1056.5,-1349 1056.5,-1385"/>
<text text-anchor="middle" x="1006" y="-1363.3" font-family="Times,serif" font-size="14.00" fill="#000000">ビックカメラ</text>
</g>
<!-- ビックカメラSuicaカード&#45;&gt;ビックカメラ -->
<g id="edge20" class="edge">
<title>ビックカメラSuicaカード&#45;&gt;ビックカメラ</title>
<path fill="none" stroke="#000000" stroke-width="2" stroke-dasharray="5,2" d="M343.5903,-1306.3228C373.3652,-1329.6602 429.6531,-1367 485,-1367 485,-1367 485,-1367 870,-1367 894.5782,-1367 921.6548,-1367 945.1343,-1367"/>
<polygon fill="#000000" stroke="#000000" stroke-width="2" points="945.3018,-1370.5001 955.3018,-1367 945.3018,-1363.5001 945.3018,-1370.5001"/>
</g>
<!-- EX予約 -->
<g id="node53" class="node">
<title>EX予約</title>
<polygon fill="none" stroke="#000000" points="1039,-1228 973,-1228 973,-1192 1039,-1192 1039,-1228"/>
<text text-anchor="middle" x="1006" y="-1206.3" font-family="Times,serif" font-size="14.00" fill="#000000">EX予約</text>
</g>
<!-- ビックカメラSuicaカード&#45;&gt;EX予約 -->
<g id="edge29" class="edge">
<title>ビックカメラSuicaカード&#45;&gt;EX予約</title>
<path fill="none" stroke="#000000" stroke-width="2" stroke-dasharray="5,2" d="M338.601,-1269.755C366.084,-1241.6565 424.0789,-1191 485,-1191 485,-1191 485,-1191 870,-1191 901.2542,-1191 936.1634,-1195.9827 962.7878,-1200.8448"/>
<polygon fill="#000000" stroke="#000000" stroke-width="2" points="962.4482,-1204.3426 972.9246,-1202.7627 963.7496,-1197.4646 962.4482,-1204.3426"/>
</g>
<!-- nanaco -->
<g id="node17" class="node">
<title>nanaco</title>
<polygon fill="none" stroke="#000000" points="519,-974 451,-974 451,-938 519,-938 519,-974"/>
<text text-anchor="middle" x="485" y="-952.3" font-family="Times,serif" font-size="14.00" fill="#000000">nanaco</text>
</g>
<!-- リクルートカード&#45;&gt;nanaco -->
<g id="edge58" class="edge">
<title>リクルートカード&#45;&gt;nanaco</title>
<path fill="none" stroke="#000000" stroke-width="2" d="M327.6108,-444.2438C351.7838,-522.8431 447.1329,-832.8739 476.4064,-928.0577"/>
<polygon fill="#000000" stroke="#000000" stroke-width="2" points="473.1277,-929.3036 479.4128,-937.8329 479.8185,-927.2459 473.1277,-929.3036"/>
</g>
<!-- Edy -->
<g id="node18" class="node">
<title>Edy</title>
<polygon fill="none" stroke="#000000" points="512,-714 458,-714 458,-678 512,-678 512,-714"/>
<text text-anchor="middle" x="485" y="-692.3" font-family="Times,serif" font-size="14.00" fill="#000000">Edy</text>
</g>
<!-- リクルートカード&#45;&gt;Edy -->
<g id="edge43" class="edge">
<title>リクルートカード&#45;&gt;Edy</title>
<path fill="none" stroke="#000000" stroke-width="2" d="M332.948,-444.1347C361.0182,-490.6314 435.6683,-614.2849 468.786,-669.1425"/>
<polygon fill="#000000" stroke="#000000" stroke-width="2" points="465.935,-671.1922 474.0997,-677.9442 471.9277,-667.5744 465.935,-671.1922"/>
</g>
<!-- Ponta -->
<g id="node19" class="node">
<title>Ponta</title>
<polygon fill="none" stroke="#000000" points="720.5,-444 663.5,-444 663.5,-408 720.5,-408 720.5,-444"/>
<text text-anchor="middle" x="692" y="-422.3" font-family="Times,serif" font-size="14.00" fill="#000000">Ponta</text>
</g>
<!-- リクルートカード&#45;&gt;Ponta -->
<g id="edge53" class="edge">
<title>リクルートカード&#45;&gt;Ponta</title>
<path fill="none" stroke="#000000" d="M386.8725,-426C463.8692,-426 589.7769,-426 653.0772,-426"/>
<polygon fill="#000000" stroke="#000000" points="653.4131,-429.5001 663.4131,-426 653.413,-422.5001 653.4131,-429.5001"/>
<text text-anchor="middle" x="485" y="-429.8" font-family="Times,serif" font-size="14.00" fill="#000000">1.2%</text>
</g>
<!-- NHK -->
<g id="node36" class="node">
<title>NHK</title>
<polygon fill="none" stroke="#000000" points="1033,-198 979,-198 979,-162 1033,-162 1033,-198"/>
<text text-anchor="middle" x="1006" y="-176.3" font-family="Times,serif" font-size="14.00" fill="#000000">NHK</text>
</g>
<!-- リクルートカード&#45;&gt;NHK -->
<g id="edge36" class="edge">
<title>リクルートカード&#45;&gt;NHK</title>
<path fill="none" stroke="#000000" stroke-width="2" d="M324.9417,-407.911C335.3103,-351.1004 375.6177,-180 485,-180 485,-180 485,-180 870,-180 903.3507,-180 941.3018,-180 968.6235,-180"/>
<polygon fill="#000000" stroke="#000000" stroke-width="2" points="968.9063,-183.5001 978.9063,-180 968.9062,-176.5001 968.9063,-183.5001"/>
</g>
<!-- NTT -->
<g id="node37" class="node">
<title>NTT</title>
<polygon fill="none" stroke="#000000" points="1033,-306 979,-306 979,-270 1033,-270 1033,-306"/>
<text text-anchor="middle" x="1006" y="-284.3" font-family="Times,serif" font-size="14.00" fill="#000000">NTT</text>
</g>
<!-- リクルートカード&#45;&gt;NTT -->
<g id="edge37" class="edge">
<title>リクルートカード&#45;&gt;NTT</title>
<path fill="none" stroke="#000000" stroke-width="2" d="M330.5026,-407.7294C350.8916,-366.9364 406.7485,-272 485,-272 485,-272 485,-272 870,-272 903.6239,-272 941.6055,-276.8835 968.8672,-281.2546"/>
<polygon fill="#000000" stroke="#000000" stroke-width="2" points="968.3215,-284.7118 978.7592,-282.8935 969.4658,-277.806 968.3215,-284.7118"/>
</g>
<!-- ASAHIネット -->
<g id="node38" class="node">
<title>ASAHIネット</title>
<polygon fill="none" stroke="#000000" points="1060.5,-252 951.5,-252 951.5,-216 1060.5,-216 1060.5,-252"/>
<text text-anchor="middle" x="1006" y="-230.3" font-family="Times,serif" font-size="14.00" fill="#000000">ASAHIネット</text>
</g>
<!-- リクルートカード&#45;&gt;ASAHIネット -->
<g id="edge38" class="edge">
<title>リクルートカード&#45;&gt;ASAHIネット</title>
<path fill="none" stroke="#000000" stroke-width="2" d="M327.565,-407.9371C343.5329,-360.1414 394.2695,-234 485,-234 485,-234 485,-234 870,-234 893.2394,-234 918.7126,-234 941.2666,-234"/>
<polygon fill="#000000" stroke="#000000" stroke-width="2" points="941.4053,-237.5001 951.4053,-234 941.4053,-230.5001 941.4053,-237.5001"/>
</g>
<!-- アイハート -->
<g id="node41" class="node">
<title>アイハート</title>
<polygon fill="none" stroke="#000000" points="1049,-144 963,-144 963,-108 1049,-108 1049,-144"/>
<text text-anchor="middle" x="1006" y="-122.3" font-family="Times,serif" font-size="14.00" fill="#000000">アイハート</text>
</g>
<!-- リクルートカード&#45;&gt;アイハート -->
<g id="edge42" class="edge">
<title>リクルートカード&#45;&gt;アイハート</title>
<path fill="none" stroke="#000000" stroke-width="2" d="M323.2034,-407.6853C328.5633,-342.5508 356.0776,-126 485,-126 485,-126 485,-126 870,-126 897.2888,-126 927.6577,-126 952.7633,-126"/>
<polygon fill="#000000" stroke="#000000" stroke-width="2" points="952.8188,-129.5001 962.8188,-126 952.8187,-122.5001 952.8188,-129.5001"/>
</g>
<!-- Amazon -->
<g id="node51" class="node">
<title>Amazon</title>
<polygon fill="none" stroke="#000000" points="1043,-591 969,-591 969,-555 1043,-555 1043,-591"/>
<text text-anchor="middle" x="1006" y="-569.3" font-family="Times,serif" font-size="14.00" fill="#000000">Amazon</text>
</g>
<!-- リクルートカード&#45;&gt;Amazon -->
<g id="edge40" class="edge">
<title>リクルートカード&#45;&gt;Amazon</title>
<path fill="none" stroke="#000000" stroke-width="2" d="M338.0456,-444.3415C365.1831,-473.2107 423.2486,-526 485,-526 485,-526 485,-526 870,-526 887.6587,-526 927.2902,-540.3339 959.2402,-553.1699"/>
<polygon fill="#000000" stroke="#000000" stroke-width="2" points="958.2945,-556.5636 968.8763,-557.0879 960.9311,-550.0791 958.2945,-556.5636"/>
</g>
<!-- iTunes -->
<g id="node52" class="node">
<title>iTunes</title>
<polygon fill="none" stroke="#000000" points="1038.5,-1120 973.5,-1120 973.5,-1084 1038.5,-1084 1038.5,-1120"/>
<text text-anchor="middle" x="1006" y="-1098.3" font-family="Times,serif" font-size="14.00" fill="#000000">iTunes</text>
</g>
<!-- リクルートカード&#45;&gt;iTunes -->
<g id="edge39" class="edge">
<title>リクルートカード&#45;&gt;iTunes</title>
<path fill="none" stroke="#000000" stroke-width="2" stroke-dasharray="5,2" d="M322.3705,-444.0814C325.0477,-551.5844 345.563,-1102 485,-1102 485,-1102 485,-1102 870,-1102 901.1621,-1102 936.3405,-1102 963.1115,-1102"/>
<polygon fill="#000000" stroke="#000000" stroke-width="2" points="963.299,-1105.5001 973.299,-1102 963.2989,-1098.5001 963.299,-1105.5001"/>
</g>
<!-- じゃらん -->
<g id="node54" class="node">
<title>じゃらん</title>
<polygon fill="none" stroke="#000000" points="1043,-360 969,-360 969,-324 1043,-324 1043,-360"/>
<text text-anchor="middle" x="1006" y="-338.3" font-family="Times,serif" font-size="14.00" fill="#000000">じゃらん</text>
</g>
<!-- リクルートカード&#45;&gt;じゃらん -->
<g id="edge41" class="edge">
<title>リクルートカード&#45;&gt;じゃらん</title>
<path fill="none" stroke="#000000" stroke-width="2" d="M334.9648,-407.875C359.9688,-375.25 418.3125,-310 485,-310 485,-310 485,-310 870,-310 900.219,-310 933.2349,-317.5787 959.1686,-325.3596"/>
<polygon fill="#000000" stroke="#000000" stroke-width="2" points="958.1523,-328.7089 968.7406,-328.3363 960.231,-322.0246 958.1523,-328.7089"/>
</g>
<!-- Suica&#45;&gt;JREポイント -->
<g id="edge30" class="edge">
<title>Suica&#45;&gt;JREポイント</title>
<path fill="none" stroke="#000000" d="M513.3484,-1292.5193C543.5366,-1297.3319 592.2313,-1305.0948 631.1635,-1311.3014"/>
<polygon fill="#000000" stroke="#000000" points="630.9202,-1314.8068 641.3466,-1312.9248 632.0223,-1307.8941 630.9202,-1314.8068"/>
<text text-anchor="middle" x="555.5" y="-1305.8" font-family="Times,serif" font-size="14.00" fill="#000000">1.5%</text>
</g>
<!-- 電車 -->
<g id="node33" class="node">
<title>電車</title>
<polygon fill="none" stroke="#000000" points="1033,-1530 979,-1530 979,-1494 1033,-1494 1033,-1530"/>
<text text-anchor="middle" x="1006" y="-1508.3" font-family="Times,serif" font-size="14.00" fill="#000000">電車</text>
</g>
<!-- Suica&#45;&gt;電車 -->
<g id="edge25" class="edge">
<title>Suica&#45;&gt;電車</title>
<path fill="none" stroke="#000000" stroke-width="2" d="M489.4263,-1306.1853C499.8553,-1344.6933 529.9053,-1434.1865 592,-1474 623.3322,-1494.0894 872.9446,-1506.4752 968.7452,-1510.5294"/>
<polygon fill="#000000" stroke="#000000" stroke-width="2" points="968.7141,-1514.031 978.851,-1510.9502 969.0053,-1507.0371 968.7141,-1514.031"/>
</g>
<!-- 松屋 -->
<g id="node49" class="node">
<title>松屋</title>
<polygon fill="none" stroke="#000000" points="1033,-1293 979,-1293 979,-1257 1033,-1257 1033,-1293"/>
<text text-anchor="middle" x="1006" y="-1271.3" font-family="Times,serif" font-size="14.00" fill="#000000">松屋</text>
</g>
<!-- Suica&#45;&gt;松屋 -->
<g id="edge26" class="edge">
<title>Suica&#45;&gt;松屋</title>
<path fill="none" stroke="#000000" stroke-width="2" d="M513.0112,-1287.3011C600.5995,-1285.1156 869.3557,-1278.4096 968.6359,-1275.9323"/>
<polygon fill="#000000" stroke="#000000" stroke-width="2" points="968.8868,-1279.4272 978.7963,-1275.6788 968.7121,-1272.4294 968.8868,-1279.4272"/>
</g>
<!-- 吉野家 -->
<g id="node50" class="node">
<title>吉野家</title>
<polygon fill="none" stroke="#000000" points="1035.5,-1174 976.5,-1174 976.5,-1138 1035.5,-1138 1035.5,-1174"/>
<text text-anchor="middle" x="1006" y="-1152.3" font-family="Times,serif" font-size="14.00" fill="#000000">吉野家</text>
</g>
<!-- Suica&#45;&gt;吉野家 -->
<g id="edge27" class="edge">
<title>Suica&#45;&gt;吉野家</title>
<path fill="none" stroke="#000000" stroke-width="2" d="M513.0112,-1280.9031C599.9594,-1258.874 865.4374,-1191.6128 966.4323,-1166.0248"/>
<polygon fill="#000000" stroke="#000000" stroke-width="2" points="967.4078,-1169.3883 976.2419,-1163.5395 965.6886,-1162.6027 967.4078,-1169.3883"/>
</g>
<!-- 大阪地下鉄 -->
<g id="node34" class="node">
<title>大阪地下鉄</title>
<polygon fill="none" stroke="#000000" points="1050,-1786 962,-1786 962,-1750 1050,-1750 1050,-1786"/>
<text text-anchor="middle" x="1006" y="-1764.3" font-family="Times,serif" font-size="14.00" fill="#000000">大阪地下鉄</text>
</g>
<!-- PiTaPa&#45;&gt;大阪地下鉄 -->
<g id="edge16" class="edge">
<title>PiTaPa&#45;&gt;大阪地下鉄</title>
<path fill="none" stroke="#000000" stroke-width="2" d="M517.7452,-1832.2127C524.0741,-1833.7879 530.6974,-1835.1664 537,-1836 657.7264,-1851.9673 690.932,-1856.3345 811,-1836 862.4897,-1827.2798 918.5139,-1806.4693 957.2441,-1790.1494"/>
<polygon fill="#000000" stroke="#000000" stroke-width="2" points="958.8842,-1793.2548 966.7048,-1786.1071 956.1338,-1786.8177 958.8842,-1793.2548"/>
</g>
<!-- 山陽バス -->
<g id="node35" class="node">
<title>山陽バス</title>
<polygon fill="none" stroke="#000000" points="1043,-1840 969,-1840 969,-1804 1043,-1804 1043,-1840"/>
<text text-anchor="middle" x="1006" y="-1818.3" font-family="Times,serif" font-size="14.00" fill="#000000">山陽バス</text>
</g>
<!-- PiTaPa&#45;&gt;山陽バス -->
<g id="edge18" class="edge">
<title>PiTaPa&#45;&gt;山陽バス</title>
<path fill="none" stroke="#000000" stroke-width="2" stroke-dasharray="5,2" d="M517.5909,-1822C606.6488,-1822 854.3929,-1822 958.7239,-1822"/>
<polygon fill="#000000" stroke="#000000" stroke-width="2" points="958.9535,-1825.5001 968.9535,-1822 958.9535,-1818.5001 958.9535,-1825.5001"/>
</g>
<!-- 切符 -->
<g id="node30" class="node">
<title>切符</title>
<polygon fill="none" stroke="#000000" points="897,-1558 843,-1558 843,-1522 897,-1522 897,-1558"/>
<text text-anchor="middle" x="870" y="-1536.3" font-family="Times,serif" font-size="14.00" fill="#000000">切符</text>
</g>
<!-- 現金&#45;&gt;切符 -->
<g id="edge68" class="edge">
<title>現金&#45;&gt;切符</title>
<path fill="none" stroke="#000000" stroke-width="2" d="M512.0725,-1552.1372C579.5862,-1545.23 755.5126,-1537.286 832.7373,-1537.4504"/>
<polygon fill="#000000" stroke="#000000" stroke-width="2" points="832.931,-1540.9519 842.9575,-1537.5284 832.9845,-1533.9521 832.931,-1540.9519"/>
</g>
<!-- 飲食店 -->
<g id="node46" class="node">
<title>飲食店</title>
<polygon fill="none" stroke="#000000" points="1035.5,-1605 976.5,-1605 976.5,-1569 1035.5,-1569 1035.5,-1605"/>
<text text-anchor="middle" x="1006" y="-1583.3" font-family="Times,serif" font-size="14.00" fill="#000000">飲食店</text>
</g>
<!-- 現金&#45;&gt;飲食店 -->
<g id="edge67" class="edge">
<title>現金&#45;&gt;飲食店</title>
<path fill="none" stroke="#000000" stroke-width="2" d="M512.1961,-1566.8728C520.0926,-1569.3264 528.7998,-1571.6415 537,-1573 694.0916,-1599.024 884.7272,-1593.4683 966.0903,-1589.3865"/>
<polygon fill="#000000" stroke="#000000" stroke-width="2" points="966.5721,-1592.8662 976.3756,-1588.8486 966.2064,-1585.8757 966.5721,-1592.8662"/>
</g>
<!-- nanacoポイント -->
<g id="node26" class="node">
<title>nanacoポイント</title>
<polygon fill="none" stroke="#000000" points="754.5,-1074 629.5,-1074 629.5,-1038 754.5,-1038 754.5,-1074"/>
<text text-anchor="middle" x="692" y="-1052.3" font-family="Times,serif" font-size="14.00" fill="#000000">nanacoポイント</text>
</g>
<!-- nanaco&#45;&gt;nanacoポイント -->
<g id="edge60" class="edge">
<title>nanaco&#45;&gt;nanacoポイント</title>
<path fill="none" stroke="#000000" d="M504.4439,-974.1987C513.887,-982.5715 525.6297,-992.3252 537,-1000 559.9048,-1015.4605 566.2807,-1018.892 592,-1029 600.8194,-1032.4662 610.2451,-1035.6494 619.6537,-1038.5192"/>
<polygon fill="#000000" stroke="#000000" points="618.8449,-1041.9296 629.4263,-1041.3953 620.8212,-1035.2143 618.8449,-1041.9296"/>
<text text-anchor="middle" x="555.5" y="-1025.8" font-family="Times,serif" font-size="14.00" fill="#000000">1%</text>
</g>
<!-- セブンイレブン -->
<g id="node32" class="node">
<title>セブンイレブン</title>
<polygon fill="none" stroke="#000000" points="1063,-974 949,-974 949,-938 1063,-938 1063,-974"/>
<text text-anchor="middle" x="1006" y="-952.3" font-family="Times,serif" font-size="14.00" fill="#000000">セブンイレブン</text>
</g>
<!-- nanaco&#45;&gt;セブンイレブン -->
<g id="edge59" class="edge">
<title>nanaco&#45;&gt;セブンイレブン</title>
<path fill="none" stroke="#000000" stroke-width="2" d="M519.1843,-956C604.1425,-956 826.1002,-956 938.5782,-956"/>
<polygon fill="#000000" stroke="#000000" stroke-width="2" points="938.7848,-959.5001 948.7847,-956 938.7847,-952.5001 938.7848,-959.5001"/>
</g>
<!-- Edy&#45;&gt;Ponta -->
<g id="edge51" class="edge">
<title>Edy&#45;&gt;Ponta</title>
<path fill="none" stroke="#000000" d="M486.8601,-677.8047C492.6741,-631.3562 515.0049,-508.1826 592,-453 609.9234,-440.1542 633.6206,-433.4198 653.4477,-429.8894"/>
<polygon fill="#000000" stroke="#000000" points="654.0786,-433.3333 663.4122,-428.3199 652.9893,-426.4185 654.0786,-433.3333"/>
<text text-anchor="middle" x="555.5" y="-514.8" font-family="Times,serif" font-size="14.00" fill="#000000">0.5%</text>
</g>
<!-- ヤマト運輸 -->
<g id="node40" class="node">
<title>ヤマト運輸</title>
<polygon fill="none" stroke="#000000" points="1050,-844 962,-844 962,-808 1050,-808 1050,-844"/>
<text text-anchor="middle" x="1006" y="-822.3" font-family="Times,serif" font-size="14.00" fill="#000000">ヤマト運輸</text>
</g>
<!-- Edy&#45;&gt;ヤマト運輸 -->
<g id="edge44" class="edge">
<title>Edy&#45;&gt;ヤマト運輸</title>
<path fill="none" stroke="#000000" stroke-width="2" d="M493.6329,-714.4105C508.7145,-744.0517 542.9925,-801.2293 592,-823 711.4931,-876.0828 870.2115,-855.2396 952.0709,-838.7294"/>
<polygon fill="#000000" stroke="#000000" stroke-width="2" points="952.8223,-842.1481 961.9042,-836.6918 951.402,-835.2937 952.8223,-842.1481"/>
</g>
<!-- ウェルシア -->
<g id="node42" class="node">
<title>ウェルシア</title>
<polygon fill="none" stroke="#000000" points="1049.5,-730 962.5,-730 962.5,-694 1049.5,-694 1049.5,-730"/>
<text text-anchor="middle" x="1006" y="-708.3" font-family="Times,serif" font-size="14.00" fill="#000000">ウェルシア</text>
</g>
<!-- Edy&#45;&gt;ウェルシア -->
<g id="edge49" class="edge">
<title>Edy&#45;&gt;ウェルシア</title>
<path fill="none" stroke="#000000" stroke-width="2" d="M512.2777,-696.8377C594.6272,-699.3667 841.809,-706.9577 951.9831,-710.3411"/>
<polygon fill="#000000" stroke="#000000" stroke-width="2" points="952.1045,-713.8464 962.2072,-710.6551 952.3194,-706.8497 952.1045,-713.8464"/>
</g>
<!-- ヨドバシカメラ -->
<g id="node44" class="node">
<title>ヨドバシカメラ</title>
<polygon fill="none" stroke="#000000" points="1064,-1028 948,-1028 948,-992 1064,-992 1064,-1028"/>
<text text-anchor="middle" x="1006" y="-1006.3" font-family="Times,serif" font-size="14.00" fill="#000000">ヨドバシカメラ</text>
</g>
<!-- Edy&#45;&gt;ヨドバシカメラ -->
<g id="edge46" class="edge">
<title>Edy&#45;&gt;ヨドバシカメラ</title>
<path fill="none" stroke="#000000" stroke-width="2" d="M488.0846,-714.2308C493.7479,-743.5914 507.9818,-802.1833 537,-843 555.1386,-868.5136 564.257,-872.4991 592,-887 681.98,-934.0313 713.6751,-923.0828 811,-952 853.2685,-964.5588 900.6862,-978.6622 938.1785,-989.8169"/>
<polygon fill="#000000" stroke="#000000" stroke-width="2" points="937.3982,-993.2363 947.9811,-992.7335 939.3945,-986.527 937.3982,-993.2363"/>
</g>
<!-- 餃子の王将 -->
<g id="node45" class="node">
<title>餃子の王将</title>
<polygon fill="none" stroke="#000000" points="1050,-898 962,-898 962,-862 1050,-862 1050,-898"/>
<text text-anchor="middle" x="1006" y="-876.3" font-family="Times,serif" font-size="14.00" fill="#000000">餃子の王将</text>
</g>
<!-- Edy&#45;&gt;餃子の王将 -->
<g id="edge66" class="edge">
<title>Edy&#45;&gt;餃子の王将</title>
<path fill="none" stroke="#000000" stroke-width="2" d="M490.2083,-714.1976C497.7091,-738.18 513.3101,-780.8481 537,-811 556.1696,-835.3986 562.995,-842.9784 592,-854 714.0165,-900.365 870.781,-894.11 951.9278,-886.5038"/>
<polygon fill="#000000" stroke="#000000" stroke-width="2" points="952.3054,-889.9837 961.9161,-885.5245 951.6223,-883.0171 952.3054,-889.9837"/>
</g>
<!-- FRESCO -->
<g id="node47" class="node">
<title>FRESCO</title>
<polygon fill="none" stroke="#000000" points="1046,-537 966,-537 966,-501 1046,-501 1046,-537"/>
<text text-anchor="middle" x="1006" y="-515.3" font-family="Times,serif" font-size="14.00" fill="#000000">FRESCO</text>
</g>
<!-- Edy&#45;&gt;FRESCO -->
<g id="edge63" class="edge">
<title>Edy&#45;&gt;FRESCO</title>
<path fill="none" stroke="#000000" stroke-width="2" d="M496.6412,-677.7535C514.0288,-652.1801 549.3474,-606.3128 592,-584 623.7866,-567.3715 852.3214,-537.7846 955.5818,-525.0757"/>
<polygon fill="#000000" stroke="#000000" stroke-width="2" points="956.2647,-528.5182 965.7644,-523.8272 955.4127,-521.5703 956.2647,-528.5182"/>
</g>
<!-- 業務スーパー -->
<g id="node48" class="node">
<title>業務スーパー</title>
<polygon fill="none" stroke="#000000" points="1056.5,-676 955.5,-676 955.5,-640 1056.5,-640 1056.5,-676"/>
<text text-anchor="middle" x="1006" y="-654.3" font-family="Times,serif" font-size="14.00" fill="#000000">業務スーパー</text>
</g>
<!-- Edy&#45;&gt;業務スーパー -->
<g id="edge62" class="edge">
<title>Edy&#45;&gt;業務スーパー</title>
<path fill="none" stroke="#000000" stroke-width="2" d="M512.2777,-694.0105C592.9844,-688.124 832.0126,-670.6901 945.2283,-662.4325"/>
<polygon fill="#000000" stroke="#000000" stroke-width="2" points="945.7362,-665.9048 955.4551,-661.6866 945.2269,-658.9234 945.7362,-665.9048"/>
</g>
<!-- Ponta&#45;&gt;じゃらん -->
<g id="edge54" class="edge">
<title>Ponta&#45;&gt;じゃらん</title>
<path fill="none" stroke="#000000" d="M720.578,-420.7005C765.636,-412.0277 855.7069,-393.402 930,-370 939.5559,-366.9899 949.6797,-363.4864 959.3151,-359.9974"/>
<polygon fill="#000000" stroke="#000000" points="960.5688,-363.2656 968.7486,-356.5319 958.155,-356.6949 960.5688,-363.2656"/>
</g>
<!-- Tポイント -->
<g id="node20" class="node">
<title>Tポイント</title>
<polygon fill="none" stroke="#000000" points="733.5,-760 650.5,-760 650.5,-724 733.5,-724 733.5,-760"/>
<text text-anchor="middle" x="692" y="-738.3" font-family="Times,serif" font-size="14.00" fill="#000000">Tポイント</text>
</g>
<!-- 楽天スーパーポイント -->
<g id="node21" class="node">
<title>楽天スーパーポイント</title>
<polygon fill="none" stroke="#000000" points="771,-814 613,-814 613,-778 771,-778 771,-814"/>
<text text-anchor="middle" x="692" y="-792.3" font-family="Times,serif" font-size="14.00" fill="#000000">楽天スーパーポイント</text>
</g>
<!-- 楽天スーパーポイント&#45;&gt;Edy -->
<g id="edge52" class="edge">
<title>楽天スーパーポイント&#45;&gt;Edy</title>
<path fill="none" stroke="#000000" d="M614.6355,-777.9227C606.8594,-775.2751 599.1881,-772.3072 592,-769 563.9895,-756.1127 535.29,-736.0899 514.6744,-720.2715"/>
<polygon fill="#000000" stroke="#000000" points="516.6743,-717.3927 506.6365,-714.0024 512.3692,-722.9123 516.6743,-717.3927"/>
</g>
<!-- JREポイント&#45;&gt;Suica -->
<g id="edge31" class="edge">
<title>JREポイント&#45;&gt;Suica</title>
<path fill="none" stroke="#000000" d="M641.437,-1328.0344C610.6463,-1330.6044 570.852,-1330.8349 537,-1321 529.7998,-1318.9082 522.6424,-1315.4862 516.0446,-1311.6197"/>
<polygon fill="#000000" stroke="#000000" points="517.7605,-1308.5633 507.443,-1306.155 514.0068,-1314.4717 517.7605,-1308.5633"/>
</g>
<!-- ビックポイント&#45;&gt;ビックカメラ -->
<g id="edge23" class="edge">
<title>ビックポイント&#45;&gt;ビックカメラ</title>
<path fill="none" stroke="#000000" d="M750.3251,-1432.1401C805.8723,-1417.988 889.1326,-1396.7751 945.4162,-1382.4354"/>
<polygon fill="#000000" stroke="#000000" points="946.4243,-1385.7904 955.2506,-1379.9298 944.696,-1379.0071 946.4243,-1385.7904"/>
</g>
<!-- Amazonポイント -->
<g id="node25" class="node">
<title>Amazonポイント</title>
<polygon fill="none" stroke="#000000" points="757.5,-629 626.5,-629 626.5,-593 757.5,-593 757.5,-629"/>
<text text-anchor="middle" x="692" y="-607.3" font-family="Times,serif" font-size="14.00" fill="#000000">Amazonポイント</text>
</g>
<!-- Amazonポイント&#45;&gt;Amazon -->
<g id="edge57" class="edge">
<title>Amazonポイント&#45;&gt;Amazon</title>
<path fill="none" stroke="#000000" d="M757.8247,-597.4195C817.8442,-588.4594 905.0692,-578.1081 958.5283,-573.7442"/>
<polygon fill="#000000" stroke="#000000" points="959.0516,-577.2143 968.7519,-572.9535 958.5117,-570.2351 959.0516,-577.2143"/>
</g>
<!-- nanacoポイント&#45;&gt;nanaco -->
<g id="edge61" class="edge">
<title>nanacoポイント&#45;&gt;nanaco</title>
<path fill="none" stroke="#000000" d="M629.472,-1046.8232C616.2347,-1042.8496 602.9662,-1037.1564 592,-1029 579.8279,-1019.9466 585.2308,-1010.1977 574,-1000 561.0019,-988.1976 544.2573,-978.8214 528.8054,-971.8092"/>
<polygon fill="#000000" stroke="#000000" points="529.9649,-968.4975 519.3966,-967.748 527.1908,-974.9244 529.9649,-968.4975"/>
</g>
<!-- FRESCOポイント -->
<g id="node27" class="node">
<title>FRESCOポイント</title>
<polygon fill="none" stroke="#000000" points="760.5,-498 623.5,-498 623.5,-462 760.5,-462 760.5,-498"/>
<text text-anchor="middle" x="692" y="-476.3" font-family="Times,serif" font-size="14.00" fill="#000000">FRESCOポイント</text>
</g>
<!-- FRESCOポイント&#45;&gt;FRESCO -->
<g id="edge65" class="edge">
<title>FRESCOポイント&#45;&gt;FRESCO</title>
<path fill="none" stroke="#000000" d="M760.5206,-488.5105C819.3929,-495.8227 902.9102,-506.1959 955.7605,-512.7601"/>
<polygon fill="#000000" stroke="#000000" points="955.5501,-516.2607 965.9053,-514.0201 956.4129,-509.3141 955.5501,-516.2607"/>
</g>
<!-- ヨドバシゴールドポイント -->
<g id="node28" class="node">
<title>ヨドバシゴールドポイント</title>
<polygon fill="none" stroke="#000000" points="786,-1020 598,-1020 598,-984 786,-984 786,-1020"/>
<text text-anchor="middle" x="692" y="-998.3" font-family="Times,serif" font-size="14.00" fill="#000000">ヨドバシゴールドポイント</text>
</g>
<!-- ヨドバシゴールドポイント&#45;&gt;ヨドバシカメラ -->
<g id="edge48" class="edge">
<title>ヨドバシゴールドポイント&#45;&gt;ヨドバシカメラ</title>
<path fill="none" stroke="#000000" d="M777.5448,-1020.0614C794.5192,-1022.9509 812.265,-1025.4856 829,-1027 865.2961,-1030.2846 874.6983,-1030.2225 911,-1027 919.7307,-1026.225 928.8601,-1025.0569 937.8608,-1023.6886"/>
<polygon fill="#000000" stroke="#000000" points="938.6219,-1027.1113 947.94,-1022.0691 937.5114,-1020.1999 938.6219,-1027.1113"/>
</g>
<!-- はぴeポイント -->
<g id="node29" class="node">
<title>はぴeポイント</title>
<polygon fill="none" stroke="#000000" points="747,-1651 637,-1651 637,-1615 747,-1615 747,-1651"/>
<text text-anchor="middle" x="692" y="-1629.3" font-family="Times,serif" font-size="14.00" fill="#000000">はぴeポイント</text>
</g>
<!-- はぴeポイント&#45;&gt;Ponta -->
<g id="edge12" class="edge">
<title>はぴeポイント&#45;&gt;Ponta</title>
<path fill="none" stroke="#000000" d="M671.5567,-1614.8738C647.6686,-1592.2888 609.2215,-1551.2425 592,-1507 523.2256,-1330.3171 568.2821,-1270.975 561.5,-1081.5 556.4981,-941.7585 504.2516,-561.8712 592,-453 606.5468,-434.9515 631.799,-428.2334 653.2871,-426.0113"/>
<polygon fill="#000000" stroke="#000000" points="653.7582,-429.486 663.4701,-425.2516 653.2374,-422.5054 653.7582,-429.486"/>
<text text-anchor="middle" x="555.5" y="-1070.3" font-family="Times,serif" font-size="14.00" fill="#000000">80%</text>
</g>
<!-- 切符&#45;&gt;現金 -->
<g id="edge70" class="edge">
<title>切符&#45;&gt;現金</title>
<path fill="none" stroke="#000000" d="M842.9575,-1544.8598C775.4757,-1551.7666 599.5508,-1559.7117 522.2969,-1559.5496"/>
<polygon fill="#000000" stroke="#000000" points="522.0988,-1556.0481 512.0725,-1559.472 522.0456,-1563.0479 522.0988,-1556.0481"/>
</g>
<!-- 切符&#45;&gt;電車 -->
<g id="edge69" class="edge">
<title>切符&#45;&gt;電車</title>
<path fill="none" stroke="#000000" stroke-width="2" d="M897.1948,-1534.4011C917.7644,-1530.1662 946.239,-1524.3037 968.8993,-1519.6384"/>
<polygon fill="#000000" stroke="#000000" stroke-width="2" points="969.7636,-1523.0339 978.8524,-1517.5892 968.352,-1516.1777 969.7636,-1523.0339"/>
</g>
<!-- 大阪地下鉄&#45;&gt;三井住友VISAカード -->
<g id="edge17" class="edge">
<title>大阪地下鉄&#45;&gt;三井住友VISAカード</title>
<path fill="none" stroke="#000000" d="M961.7269,-1768.3071C867.6448,-1768.7516 640.8782,-1768.7195 451,-1760 437.3672,-1759.374 422.9397,-1758.4819 408.8625,-1757.4852"/>
<polygon fill="#000000" stroke="#000000" points="408.9185,-1753.9801 398.6904,-1756.7434 408.4093,-1760.9616 408.9185,-1753.9801"/>
<text text-anchor="middle" x="692" y="-1771.8" font-family="Times,serif" font-size="14.00" fill="#000000">10%</text>
</g>
<!-- 関西電力&#45;&gt;はぴeポイント -->
<g id="edge11" class="edge">
<title>関西電力&#45;&gt;はぴeポイント</title>
<path fill="none" stroke="#000000" d="M968.5678,-1665.5018C951.2679,-1659.8026 930.3164,-1653.6523 911,-1650 860.0054,-1640.3579 801.3391,-1636.1631 757.5686,-1634.3489"/>
<polygon fill="#000000" stroke="#000000" points="757.4671,-1630.8425 747.3404,-1633.9569 757.199,-1637.8374 757.4671,-1630.8425"/>
<text text-anchor="middle" x="870" y="-1653.8" font-family="Times,serif" font-size="14.00" fill="#000000">0.8%, 0.5%</text>
</g>
<!-- ヤマト運輸&#45;&gt;Tポイント -->
<g id="edge45" class="edge">
<title>ヤマト運輸&#45;&gt;Tポイント</title>
<path fill="none" stroke="#000000" d="M961.8518,-814.1896C904.4271,-798.8276 804.2851,-772.0381 743.4732,-755.7699"/>
<polygon fill="#000000" stroke="#000000" points="744.2616,-752.3578 733.6968,-753.1546 742.4526,-759.12 744.2616,-752.3578"/>
<text text-anchor="middle" x="870" y="-804.8" font-family="Times,serif" font-size="14.00" fill="#000000">0.5%</text>
</g>
<!-- ウェルシア&#45;&gt;Tポイント -->
<g id="edge50" class="edge">
<title>ウェルシア&#45;&gt;Tポイント</title>
<path fill="none" stroke="#000000" d="M962.3622,-716.1692C905.1494,-721.6354 804.9115,-731.2123 743.8795,-737.0434"/>
<polygon fill="#000000" stroke="#000000" points="743.3185,-733.5809 733.6968,-738.0162 743.9844,-740.5492 743.3185,-733.5809"/>
<text text-anchor="middle" x="870" y="-732.8" font-family="Times,serif" font-size="14.00" fill="#000000">1%</text>
</g>
<!-- ビックカメラ&#45;&gt;ビックポイント -->
<g id="edge21" class="edge">
<title>ビックカメラ&#45;&gt;ビックポイント</title>
<path fill="none" stroke="#000000" stroke-dasharray="5,2" d="M985.6121,-1385.0242C971.1299,-1396.7516 950.6592,-1411.2573 930,-1419 875.2614,-1439.515 808.915,-1445.9453 760.192,-1447.5718"/>
<polygon fill="#000000" stroke="#000000" points="759.9733,-1444.0764 750.073,-1447.8493 760.1652,-1451.0738 759.9733,-1444.0764"/>
<text text-anchor="middle" x="870" y="-1445.8" font-family="Times,serif" font-size="14.00" fill="#000000">9.5%</text>
</g>
<!-- ヨドバシカメラ&#45;&gt;ヨドバシゴールドポイント -->
<g id="edge47" class="edge">
<title>ヨドバシカメラ&#45;&gt;ヨドバシゴールドポイント</title>
<path fill="none" stroke="#000000" d="M947.8841,-1008.5193C905.5098,-1007.4397 846.9271,-1005.9472 796.507,-1004.6626"/>
<polygon fill="#000000" stroke="#000000" points="796.2963,-1001.1562 786.2104,-1004.4003 796.1179,-1008.1539 796.2963,-1001.1562"/>
<text text-anchor="middle" x="870" y="-1011.8" font-family="Times,serif" font-size="14.00" fill="#000000">10%</text>
</g>
<!-- FRESCO&#45;&gt;FRESCOポイント -->
<g id="edge64" class="edge">
<title>FRESCO&#45;&gt;FRESCOポイント</title>
<path fill="none" stroke="#000000" d="M985.0825,-500.8414C966.8923,-486.3345 939.1077,-467.133 911,-459 863.1756,-445.162 807.2764,-450.8599 763.9239,-459.7873"/>
<polygon fill="#000000" stroke="#000000" points="763.0665,-456.3916 754.0312,-461.9245 764.5448,-463.2338 763.0665,-456.3916"/>
<text text-anchor="middle" x="870" y="-462.8" font-family="Times,serif" font-size="14.00" fill="#000000">0.5%</text>
</g>
<!-- 吉野家&#45;&gt;Tポイント -->
<g id="edge28" class="edge">
<title>吉野家&#45;&gt;Tポイント</title>
<path fill="none" stroke="#000000" d="M976.3362,-1144.2822C934.9139,-1126.138 861.2117,-1086.9589 829,-1027 774.1778,-924.954 868.7969,-855.7243 792,-769 779.8416,-755.2699 761.5001,-748.1943 743.8314,-744.6502"/>
<polygon fill="#000000" stroke="#000000" points="743.9956,-741.1298 733.5579,-742.948 742.8513,-748.0356 743.9956,-741.1298"/>
<text text-anchor="middle" x="870" y="-1111.8" font-family="Times,serif" font-size="14.00" fill="#000000">0.5%</text>
</g>
<!-- Amazon&#45;&gt;Amazonポイント -->
<g id="edge56" class="edge">
<title>Amazon&#45;&gt;Amazonポイント</title>
<path fill="none" stroke="#000000" d="M968.7519,-582.062C919.4572,-590.4163 831.3804,-601.515 767.8076,-607.6993"/>
<polygon fill="#000000" stroke="#000000" points="767.4485,-604.2175 757.8247,-608.6484 768.1111,-611.1861 767.4485,-604.2175"/>
</g>
<!-- じゃらん&#45;&gt;Ponta -->
<g id="edge55" class="edge">
<title>じゃらん&#45;&gt;Ponta</title>
<path fill="none" stroke="#000000" d="M968.6572,-341.0831C932.3215,-341.136 875.8879,-343.7426 829,-357 792.9679,-367.1879 755.1883,-386.9995 728.4504,-402.79"/>
<polygon fill="#000000" stroke="#000000" points="726.5948,-399.8216 719.8245,-407.9711 730.1992,-405.8224 726.5948,-399.8216"/>
<text text-anchor="middle" x="870" y="-360.8" font-family="Times,serif" font-size="14.00" fill="#000000">2%</text>
</g>
</g>
</svg>
