<?xml version="1.0" encoding="UTF-8" standalone="no"?>
<!DOCTYPE svg PUBLIC "-//W3C//DTD SVG 1.1//EN"
 "http://www.w3.org/Graphics/SVG/1.1/DTD/svg11.dtd">
<!-- Generated by graphviz version 2.42.4 (0)
 -->
<!-- Title: MoneyFlow Pages: 1 -->
<svg width="1075pt" height="1744pt"
 viewBox="0.00 0.00 1075.00 1744.00" xmlns="http://www.w3.org/2000/svg" xmlns:xlink="http://www.w3.org/1999/xlink">
<g id="graph0" class="graph" transform="scale(1 1) rotate(0) translate(4 1740)">
<title>MoneyFlow</title>
<polygon fill="white" stroke="transparent" points="-4,4 -4,-1740 1071,-1740 1071,4 -4,4"/>
<!-- 収入 -->
<g id="node1" class="node">
<title>収入</title>
<text text-anchor="middle" x="29.5" y="-14.3" font-family="Times,serif" font-size="14.00">収入</text>
</g>
<!-- 銀行口座 -->
<g id="node2" class="node">
<title>銀行口座</title>
<text text-anchor="middle" x="147" y="-14.3" font-family="Times,serif" font-size="14.00">銀行口座</text>
</g>
<!-- 収入&#45;&gt;銀行口座 -->
<g id="edge1" class="edge">
<title>収入&#45;&gt;銀行口座</title>
<path fill="none" stroke="black" d="M56.71,-18C72.42,-18 92.61,-18 109.83,-18"/>
</g>
<!-- クレジットカード -->
<g id="node3" class="node">
<title>クレジットカード</title>
<text text-anchor="middle" x="326.5" y="-14.3" font-family="Times,serif" font-size="14.00">クレジットカード</text>
</g>
<!-- 銀行口座&#45;&gt;クレジットカード -->
<g id="edge2" class="edge">
<title>銀行口座&#45;&gt;クレジットカード</title>
<path fill="none" stroke="black" d="M184.35,-18C206.66,-18 235.86,-18 261.91,-18"/>
</g>
<!-- マネー -->
<g id="node4" class="node">
<title>マネー</title>
<text text-anchor="middle" x="492" y="-14.3" font-family="Times,serif" font-size="14.00">マネー</text>
</g>
<!-- クレジットカード&#45;&gt;マネー -->
<g id="edge3" class="edge">
<title>クレジットカード&#45;&gt;マネー</title>
<path fill="none" stroke="black" d="M391.18,-18C415.75,-18 442.61,-18 462.27,-18"/>
</g>
<!-- ポイント -->
<g id="node5" class="node">
<title>ポイント</title>
<text text-anchor="middle" x="695.5" y="-14.3" font-family="Times,serif" font-size="14.00">ポイント</text>
</g>
<!-- マネー&#45;&gt;ポイント -->
<g id="edge4" class="edge">
<title>マネー&#45;&gt;ポイント</title>
<path fill="none" stroke="black" d="M521.87,-18C557.78,-18 619.11,-18 658.18,-18"/>
</g>
<!-- 金券 -->
<g id="node6" class="node">
<title>金券</title>
<text text-anchor="middle" x="870" y="-14.3" font-family="Times,serif" font-size="14.00">金券</text>
</g>
<!-- ポイント&#45;&gt;金券 -->
<g id="edge5" class="edge">
<title>ポイント&#45;&gt;金券</title>
<path fill="none" stroke="black" d="M732.66,-18C765.66,-18 813.62,-18 842.99,-18"/>
</g>
<!-- 支出 -->
<g id="node7" class="node">
<title>支出</title>
<text text-anchor="middle" x="1009" y="-14.3" font-family="Times,serif" font-size="14.00">支出</text>
</g>
<!-- 金券&#45;&gt;支出 -->
<g id="edge6" class="edge">
<title>金券&#45;&gt;支出</title>
<path fill="none" stroke="black" d="M897.09,-18C921.31,-18 957.2,-18 981.54,-18"/>
</g>
<!-- 給与 -->
<g id="node8" class="node">
<title>給与</title>
<polygon fill="none" stroke="black" points="56.5,-1599 2.5,-1599 2.5,-1563 56.5,-1563 56.5,-1599"/>
<text text-anchor="middle" x="29.5" y="-1577.3" font-family="Times,serif" font-size="14.00">給与</text>
</g>
<!-- 三井住友銀行 -->
<g id="node11" class="node">
<title>三井住友銀行</title>
<polygon fill="none" stroke="black" points="198,-1599 96,-1599 96,-1563 198,-1563 198,-1599"/>
<text text-anchor="middle" x="147" y="-1577.3" font-family="Times,serif" font-size="14.00">三井住友銀行</text>
</g>
<!-- 給与&#45;&gt;三井住友銀行 -->
<g id="edge7" class="edge">
<title>給与&#45;&gt;三井住友銀行</title>
<path fill="none" stroke="black" stroke-width="2" d="M56.71,-1581C65.39,-1581 75.45,-1581 85.62,-1581"/>
<polygon fill="black" stroke="black" stroke-width="2" points="85.78,-1584.5 95.78,-1581 85.78,-1577.5 85.78,-1584.5"/>
</g>
<!-- 譲渡 -->
<g id="node9" class="node">
<title>譲渡</title>
<polygon fill="none" stroke="black" points="56.5,-1234 2.5,-1234 2.5,-1198 56.5,-1198 56.5,-1234"/>
<text text-anchor="middle" x="29.5" y="-1212.3" font-family="Times,serif" font-size="14.00">譲渡</text>
</g>
<!-- メルペイ -->
<g id="node21" class="node">
<title>メルペイ</title>
<polygon fill="none" stroke="black" points="529,-1234 455,-1234 455,-1198 529,-1198 529,-1234"/>
<text text-anchor="middle" x="492" y="-1212.3" font-family="Times,serif" font-size="14.00">メルペイ</text>
</g>
<!-- 譲渡&#45;&gt;メルペイ -->
<g id="edge67" class="edge">
<title>譲渡&#45;&gt;メルペイ</title>
<path fill="none" stroke="black" stroke-width="2" d="M56.58,-1216C131.58,-1216 348.63,-1216 444.52,-1216"/>
<polygon fill="black" stroke="black" stroke-width="2" points="444.78,-1219.5 454.78,-1216 444.78,-1212.5 444.78,-1219.5"/>
</g>
<!-- 雑収入 -->
<g id="node10" class="node">
<title>雑収入</title>
<polygon fill="none" stroke="black" points="59,-257 0,-257 0,-221 59,-221 59,-257"/>
<text text-anchor="middle" x="29.5" y="-235.3" font-family="Times,serif" font-size="14.00">雑収入</text>
</g>
<!-- Ponta -->
<g id="node22" class="node">
<title>Ponta</title>
<polygon fill="none" stroke="black" points="724,-138 667,-138 667,-102 724,-102 724,-138"/>
<text text-anchor="middle" x="695.5" y="-116.3" font-family="Times,serif" font-size="14.00">Ponta</text>
</g>
<!-- 雑収入&#45;&gt;Ponta -->
<g id="edge72" class="edge">
<title>雑収入&#45;&gt;Ponta</title>
<path fill="none" stroke="black" stroke-width="2" d="M37.95,-220.93C53,-187.64 90.43,-120 146,-120 146,-120 146,-120 493,-120 550,-120 616.07,-120 656.57,-120"/>
<polygon fill="black" stroke="black" stroke-width="2" points="656.8,-123.5 666.8,-120 656.8,-116.5 656.8,-123.5"/>
</g>
<!-- 楽天ポイント -->
<g id="node23" class="node">
<title>楽天ポイント</title>
<polygon fill="none" stroke="black" points="746.5,-551 644.5,-551 644.5,-515 746.5,-515 746.5,-551"/>
<text text-anchor="middle" x="695.5" y="-529.3" font-family="Times,serif" font-size="14.00">楽天ポイント</text>
</g>
<!-- 雑収入&#45;&gt;楽天ポイント -->
<g id="edge71" class="edge">
<title>雑収入&#45;&gt;楽天ポイント</title>
<path fill="none" stroke="black" stroke-width="2" d="M38.11,-257.18C53.32,-290.28 90.82,-357 146,-357 146,-357 146,-357 493,-357 537.54,-357 551.06,-369.01 584,-399 595.78,-409.73 592.63,-417.12 602,-430 622.44,-458.09 649.28,-487.3 668.78,-507.4"/>
<polygon fill="black" stroke="black" stroke-width="2" points="666.37,-509.94 675.87,-514.64 671.38,-505.05 666.37,-509.94"/>
</g>
<!-- 住信SBI銀行 -->
<g id="node12" class="node">
<title>住信SBI銀行</title>
<polygon fill="none" stroke="black" points="196.5,-1527 97.5,-1527 97.5,-1491 196.5,-1491 196.5,-1527"/>
<text text-anchor="middle" x="147" y="-1505.3" font-family="Times,serif" font-size="14.00">住信SBI銀行</text>
</g>
<!-- 三井住友銀行&#45;&gt;住信SBI銀行 -->
<g id="edge9" class="edge">
<title>三井住友銀行&#45;&gt;住信SBI銀行</title>
<path fill="none" stroke="black" stroke-width="2" d="M147,-1562.95C147,-1554.41 147,-1545.86 147,-1537.31"/>
<polygon fill="black" stroke="black" stroke-width="2" points="150.5,-1537.28 147,-1527.28 143.5,-1537.28 150.5,-1537.28"/>
</g>
<!-- 現金 -->
<g id="node17" class="node">
<title>現金</title>
<polygon fill="none" stroke="black" points="519,-1644 465,-1644 465,-1608 519,-1608 519,-1644"/>
<text text-anchor="middle" x="492" y="-1622.3" font-family="Times,serif" font-size="14.00">現金</text>
</g>
<!-- 三井住友銀行&#45;&gt;現金 -->
<g id="edge8" class="edge">
<title>三井住友銀行&#45;&gt;現金</title>
<path fill="none" stroke="black" stroke-width="2" d="M167.39,-1599.19C180.14,-1609.85 197.78,-1622.32 216,-1628 298.25,-1653.66 401.2,-1642.15 454.79,-1633.12"/>
<polygon fill="black" stroke="black" stroke-width="2" points="455.58,-1636.53 464.83,-1631.36 454.37,-1629.64 455.58,-1636.53"/>
</g>
<!-- ビックカメラSuicaカード -->
<g id="node13" class="node">
<title>ビックカメラSuicaカード</title>
<polygon fill="none" stroke="black" points="418,-1383 235,-1383 235,-1347 418,-1347 418,-1383"/>
<text text-anchor="middle" x="326.5" y="-1361.3" font-family="Times,serif" font-size="14.00">ビックカメラSuicaカード</text>
</g>
<!-- 住信SBI銀行&#45;&gt;ビックカメラSuicaカード -->
<g id="edge22" class="edge">
<title>住信SBI銀行&#45;&gt;ビックカメラSuicaカード</title>
<path fill="none" stroke="black" stroke-width="2" d="M169.32,-1490.88C182.66,-1479.61 200.25,-1464.86 216,-1452 242.19,-1430.63 272.27,-1406.77 294.28,-1389.45"/>
<polygon fill="black" stroke="black" stroke-width="2" points="296.59,-1392.09 302.29,-1383.16 292.26,-1386.58 296.59,-1392.09"/>
</g>
<!-- リクルートカード -->
<g id="node14" class="node">
<title>リクルートカード</title>
<polygon fill="none" stroke="black" points="390.5,-956 262.5,-956 262.5,-920 390.5,-920 390.5,-956"/>
<text text-anchor="middle" x="326.5" y="-934.3" font-family="Times,serif" font-size="14.00">リクルートカード</text>
</g>
<!-- 住信SBI銀行&#45;&gt;リクルートカード -->
<g id="edge23" class="edge">
<title>住信SBI銀行&#45;&gt;リクルートカード</title>
<path fill="none" stroke="black" stroke-width="2" d="M153.61,-1490.97C179.27,-1408.4 285.68,-1066.09 316.87,-965.76"/>
<polygon fill="black" stroke="black" stroke-width="2" points="320.27,-966.62 319.89,-956.04 313.58,-964.55 320.27,-966.62"/>
</g>
<!-- PiTaPa -->
<g id="node15" class="node">
<title>PiTaPa</title>
<polygon fill="none" stroke="black" points="359,-1548 294,-1548 294,-1512 359,-1512 359,-1548"/>
<text text-anchor="middle" x="326.5" y="-1526.3" font-family="Times,serif" font-size="14.00">PiTaPa</text>
</g>
<!-- 住信SBI銀行&#45;&gt;PiTaPa -->
<g id="edge24" class="edge">
<title>住信SBI銀行&#45;&gt;PiTaPa</title>
<path fill="none" stroke="black" stroke-width="2" d="M196.5,-1514.74C223.87,-1517.98 257.71,-1521.98 283.87,-1525.07"/>
<polygon fill="black" stroke="black" stroke-width="2" points="283.5,-1528.56 293.84,-1526.25 284.32,-1521.6 283.5,-1528.56"/>
</g>
<!-- 住信SBI銀行&#45;&gt;現金 -->
<g id="edge20" class="edge">
<title>住信SBI銀行&#45;&gt;現金</title>
<path fill="none" stroke="black" stroke-width="2" d="M167.98,-1527.18C188.81,-1545.74 220.41,-1572.69 235,-1579 308.76,-1610.91 403.59,-1621.17 454.62,-1624.46"/>
<polygon fill="black" stroke="black" stroke-width="2" points="454.63,-1627.96 464.82,-1625.06 455.04,-1620.97 454.63,-1627.96"/>
</g>
<!-- PayPay -->
<g id="node20" class="node">
<title>PayPay</title>
<polygon fill="none" stroke="black" points="526,-1583 458,-1583 458,-1547 526,-1547 526,-1583"/>
<text text-anchor="middle" x="492" y="-1561.3" font-family="Times,serif" font-size="14.00">PayPay</text>
</g>
<!-- 住信SBI銀行&#45;&gt;PayPay -->
<g id="edge25" class="edge">
<title>住信SBI銀行&#45;&gt;PayPay</title>
<path fill="none" stroke="black" stroke-width="2" d="M173.26,-1527.15C189.92,-1538.02 212.71,-1550.89 235,-1557 307.61,-1576.92 396.17,-1573.99 447.81,-1569.72"/>
<polygon fill="black" stroke="black" stroke-width="2" points="448.29,-1573.19 457.94,-1568.82 447.67,-1566.22 448.29,-1573.19"/>
</g>
<!-- 株主優待券 -->
<g id="node30" class="node">
<title>株主優待券</title>
<polygon fill="none" stroke="black" points="914,-1521 826,-1521 826,-1485 914,-1485 914,-1521"/>
<text text-anchor="middle" x="870" y="-1499.3" font-family="Times,serif" font-size="14.00">株主優待券</text>
</g>
<!-- 住信SBI銀行&#45;&gt;株主優待券 -->
<g id="edge27" class="edge">
<title>住信SBI銀行&#45;&gt;株主優待券</title>
<path fill="none" stroke="black" stroke-width="2" d="M196.74,-1496.34C209.21,-1495.2 222.59,-1494.43 235,-1494 450.26,-1486.59 706.89,-1490.51 815.86,-1496.79"/>
<polygon fill="black" stroke="black" stroke-width="2" points="815.74,-1500.28 825.93,-1497.4 816.17,-1493.3 815.74,-1500.28"/>
</g>
<!-- 家賃 -->
<g id="node31" class="node">
<title>家賃</title>
<polygon fill="none" stroke="black" points="1036,-1736 982,-1736 982,-1700 1036,-1700 1036,-1736"/>
<text text-anchor="middle" x="1009" y="-1714.3" font-family="Times,serif" font-size="14.00">家賃</text>
</g>
<!-- 住信SBI銀行&#45;&gt;家賃 -->
<g id="edge21" class="edge">
<title>住信SBI銀行&#45;&gt;家賃</title>
<path fill="none" stroke="black" stroke-width="2" d="M171,-1527.21C179.99,-1534.93 190.03,-1544.38 198,-1554 218.22,-1578.42 211.1,-1594.16 235,-1615 308.37,-1678.97 338.66,-1702 436,-1702 436,-1702 436,-1702 871,-1702 905.4,-1702 944.33,-1707.04 971.88,-1711.46"/>
<polygon fill="black" stroke="black" stroke-width="2" points="971.4,-1714.93 981.84,-1713.11 972.55,-1708.02 971.4,-1714.93"/>
</g>
<!-- Suica -->
<g id="node16" class="node">
<title>Suica</title>
<polygon fill="none" stroke="black" points="520,-1415 464,-1415 464,-1379 520,-1379 520,-1415"/>
<text text-anchor="middle" x="492" y="-1393.3" font-family="Times,serif" font-size="14.00">Suica</text>
</g>
<!-- ビックカメラSuicaカード&#45;&gt;Suica -->
<g id="edge15" class="edge">
<title>ビックカメラSuicaカード&#45;&gt;Suica</title>
<path fill="none" stroke="black" stroke-width="2" d="M418.33,-1382.78C430.92,-1385.24 443.22,-1387.65 454.01,-1389.76"/>
<polygon fill="black" stroke="black" stroke-width="2" points="453.37,-1393.2 463.86,-1391.69 454.72,-1386.33 453.37,-1393.2"/>
</g>
<!-- JREポイント -->
<g id="node24" class="node">
<title>JREポイント</title>
<polygon fill="none" stroke="black" points="745.5,-1418 645.5,-1418 645.5,-1382 745.5,-1382 745.5,-1418"/>
<text text-anchor="middle" x="695.5" y="-1396.3" font-family="Times,serif" font-size="14.00">JREポイント</text>
</g>
<!-- ビックカメラSuicaカード&#45;&gt;JREポイント -->
<g id="edge10" class="edge">
<title>ビックカメラSuicaカード&#45;&gt;JREポイント</title>
<path fill="none" stroke="black" d="M356.85,-1383.07C381.89,-1397.36 419.39,-1416.16 455,-1424 515.71,-1437.37 586.73,-1427.1 635.58,-1416.14"/>
<polygon fill="black" stroke="black" points="636.4,-1419.55 645.35,-1413.88 634.82,-1412.73 636.4,-1419.55"/>
<text text-anchor="middle" x="492" y="-1434.8" font-family="Times,serif" font-size="14.00">0.5%</text>
</g>
<!-- ビックポイント -->
<g id="node25" class="node">
<title>ビックポイント</title>
<polygon fill="none" stroke="black" points="753.5,-1364 637.5,-1364 637.5,-1328 753.5,-1328 753.5,-1364"/>
<text text-anchor="middle" x="695.5" y="-1342.3" font-family="Times,serif" font-size="14.00">ビックポイント</text>
</g>
<!-- ビックカメラSuicaカード&#45;&gt;ビックポイント -->
<g id="edge13" class="edge">
<title>ビックカメラSuicaカード&#45;&gt;ビックポイント</title>
<path fill="none" stroke="black" d="M418.02,-1357.44C430.44,-1356.54 443.03,-1355.69 455,-1355 513.05,-1351.63 579.09,-1349.26 627.1,-1347.8"/>
<polygon fill="black" stroke="black" points="627.48,-1351.29 637.37,-1347.49 627.27,-1344.29 627.48,-1351.29"/>
<text text-anchor="middle" x="492" y="-1358.8" font-family="Times,serif" font-size="14.00">0.5%</text>
</g>
<!-- ビックカメラ -->
<g id="node40" class="node">
<title>ビックカメラ</title>
<polygon fill="none" stroke="black" points="1059.5,-1334 958.5,-1334 958.5,-1298 1059.5,-1298 1059.5,-1334"/>
<text text-anchor="middle" x="1009" y="-1312.3" font-family="Times,serif" font-size="14.00">ビックカメラ</text>
</g>
<!-- ビックカメラSuicaカード&#45;&gt;ビックカメラ -->
<g id="edge11" class="edge">
<title>ビックカメラSuicaカード&#45;&gt;ビックカメラ</title>
<path fill="none" stroke="black" stroke-width="2" stroke-dasharray="5,2" d="M354.55,-1346.89C385.95,-1327.66 439.99,-1300 491,-1300 491,-1300 491,-1300 871,-1300 896.46,-1300 924.4,-1302.76 948.37,-1305.99"/>
<polygon fill="black" stroke="black" stroke-width="2" points="947.99,-1309.47 958.38,-1307.39 948.96,-1302.54 947.99,-1309.47"/>
</g>
<!-- EX予約 -->
<g id="node47" class="node">
<title>EX予約</title>
<polygon fill="none" stroke="black" points="1041.5,-1280 976.5,-1280 976.5,-1244 1041.5,-1244 1041.5,-1280"/>
<text text-anchor="middle" x="1009" y="-1258.3" font-family="Times,serif" font-size="14.00">EX予約</text>
</g>
<!-- ビックカメラSuicaカード&#45;&gt;EX予約 -->
<g id="edge17" class="edge">
<title>ビックカメラSuicaカード&#45;&gt;EX予約</title>
<path fill="none" stroke="black" stroke-width="2" stroke-dasharray="5,2" d="M351.26,-1346.82C392.35,-1317.25 480.38,-1262 564.5,-1262 564.5,-1262 564.5,-1262 871,-1262 902.92,-1262 939.01,-1262 966.14,-1262"/>
<polygon fill="black" stroke="black" stroke-width="2" points="966.44,-1265.5 976.44,-1262 966.44,-1258.5 966.44,-1265.5"/>
</g>
<!-- nanaco -->
<g id="node18" class="node">
<title>nanaco</title>
<polygon fill="none" stroke="black" points="525.5,-421 458.5,-421 458.5,-385 525.5,-385 525.5,-421"/>
<text text-anchor="middle" x="492" y="-399.3" font-family="Times,serif" font-size="14.00">nanaco</text>
</g>
<!-- リクルートカード&#45;&gt;nanaco -->
<g id="edge57" class="edge">
<title>リクルートカード&#45;&gt;nanaco</title>
<path fill="none" stroke="black" stroke-width="2" d="M329.44,-919.91C338.32,-839.62 377.27,-515.87 436,-435 439.75,-429.84 444.61,-425.38 449.88,-421.56"/>
<polygon fill="black" stroke="black" stroke-width="2" points="451.88,-424.44 458.41,-416.09 448.1,-418.54 451.88,-424.44"/>
</g>
<!-- Edy -->
<g id="node19" class="node">
<title>Edy</title>
<polygon fill="none" stroke="black" points="519,-956 465,-956 465,-920 519,-920 519,-956"/>
<text text-anchor="middle" x="492" y="-934.3" font-family="Times,serif" font-size="14.00">Edy</text>
</g>
<!-- リクルートカード&#45;&gt;Edy -->
<g id="edge45" class="edge">
<title>リクルートカード&#45;&gt;Edy</title>
<path fill="none" stroke="black" stroke-width="2" d="M390.71,-938C412.3,-938 435.7,-938 454.47,-938"/>
<polygon fill="black" stroke="black" stroke-width="2" points="454.65,-941.5 464.65,-938 454.65,-934.5 454.65,-941.5"/>
</g>
<!-- リクルートカード&#45;&gt;Ponta -->
<g id="edge50" class="edge">
<title>リクルートカード&#45;&gt;Ponta</title>
<path fill="none" stroke="black" d="M328.34,-919.93C333.31,-818.96 361.18,-324.54 436,-195 458.24,-156.49 590.28,-133.79 656.57,-124.67"/>
<polygon fill="black" stroke="black" points="657.18,-128.12 666.62,-123.33 656.25,-121.19 657.18,-128.12"/>
<text text-anchor="middle" x="492" y="-181.8" font-family="Times,serif" font-size="14.00">1.2%</text>
</g>
<!-- 楽天モバイル -->
<g id="node34" class="node">
<title>楽天モバイル</title>
<polygon fill="none" stroke="black" points="1060,-494 958,-494 958,-458 1060,-458 1060,-494"/>
<text text-anchor="middle" x="1009" y="-472.3" font-family="Times,serif" font-size="14.00">楽天モバイル</text>
</g>
<!-- リクルートカード&#45;&gt;楽天モバイル -->
<g id="edge41" class="edge">
<title>リクルートカード&#45;&gt;楽天モバイル</title>
<path fill="none" stroke="black" stroke-width="2" d="M332.26,-919.95C351.62,-850.68 431.65,-600.99 602,-506 659.68,-473.84 849.52,-472.65 947.82,-474.35"/>
<polygon fill="black" stroke="black" stroke-width="2" points="947.83,-477.85 957.9,-474.54 947.97,-470.85 947.83,-477.85"/>
</g>
<!-- 楽天でんき -->
<g id="node35" class="node">
<title>楽天でんき</title>
<polygon fill="none" stroke="black" points="1053,-724 965,-724 965,-688 1053,-688 1053,-724"/>
<text text-anchor="middle" x="1009" y="-702.3" font-family="Times,serif" font-size="14.00">楽天でんき</text>
</g>
<!-- リクルートカード&#45;&gt;楽天でんき -->
<g id="edge36" class="edge">
<title>リクルートカード&#45;&gt;楽天でんき</title>
<path fill="none" stroke="black" stroke-width="2" d="M331.78,-919.96C345.26,-868.04 392,-722 491,-722 491,-722 491,-722 808,-722 857.83,-722 914.42,-717 954.65,-712.6"/>
<polygon fill="black" stroke="black" stroke-width="2" points="955.23,-716.05 964.77,-711.46 954.45,-709.1 955.23,-716.05"/>
</g>
<!-- 関西電力 -->
<g id="node36" class="node">
<title>関西電力</title>
<polygon fill="none" stroke="black" points="1046,-440 972,-440 972,-404 1046,-404 1046,-440"/>
<text text-anchor="middle" x="1009" y="-418.3" font-family="Times,serif" font-size="14.00">関西電力</text>
</g>
<!-- リクルートカード&#45;&gt;関西電力 -->
<g id="edge33" class="edge">
<title>リクルートカード&#45;&gt;関西電力</title>
<path fill="none" stroke="black" stroke-width="2" d="M329.05,-919.94C334.93,-861.18 360.59,-672.62 455,-557 502.73,-498.54 530.44,-495.98 602,-472 727.25,-430.02 884.82,-422.65 961.63,-421.75"/>
<polygon fill="black" stroke="black" stroke-width="2" points="961.95,-425.25 971.92,-421.67 961.89,-418.25 961.95,-425.25"/>
</g>
<!-- 楽天損保 -->
<g id="node37" class="node">
<title>楽天損保</title>
<polygon fill="none" stroke="black" points="1046,-1168 972,-1168 972,-1132 1046,-1132 1046,-1168"/>
<text text-anchor="middle" x="1009" y="-1146.3" font-family="Times,serif" font-size="14.00">楽天損保</text>
</g>
<!-- リクルートカード&#45;&gt;楽天損保 -->
<g id="edge38" class="edge">
<title>リクルートカード&#45;&gt;楽天損保</title>
<path fill="none" stroke="black" stroke-width="2" d="M333.04,-956.25C348.95,-1004.54 399.6,-1132 491,-1132 491,-1132 491,-1132 871,-1132 901.39,-1132 935.25,-1136.41 961.71,-1140.86"/>
<polygon fill="black" stroke="black" stroke-width="2" points="961.37,-1144.36 971.83,-1142.63 962.58,-1137.46 961.37,-1144.36"/>
</g>
<!-- 郵便局 -->
<g id="node38" class="node">
<title>郵便局</title>
<polygon fill="none" stroke="black" points="1038.5,-1114 979.5,-1114 979.5,-1078 1038.5,-1078 1038.5,-1114"/>
<text text-anchor="middle" x="1009" y="-1092.3" font-family="Times,serif" font-size="14.00">郵便局</text>
</g>
<!-- リクルートカード&#45;&gt;郵便局 -->
<g id="edge62" class="edge">
<title>リクルートカード&#45;&gt;郵便局</title>
<path fill="none" stroke="black" stroke-width="2" d="M335.83,-956.2C356.04,-997.35 411.95,-1094 491,-1094 491,-1094 491,-1094 871,-1094 904.07,-1094 941.64,-1094.59 969.05,-1095.13"/>
<polygon fill="black" stroke="black" stroke-width="2" points="969.33,-1098.64 979.4,-1095.34 969.47,-1091.64 969.33,-1098.64"/>
</g>
<!-- アイハート -->
<g id="node39" class="node">
<title>アイハート</title>
<polygon fill="none" stroke="black" points="1052,-1060 966,-1060 966,-1024 1052,-1024 1052,-1060"/>
<text text-anchor="middle" x="1009" y="-1038.3" font-family="Times,serif" font-size="14.00">アイハート</text>
</g>
<!-- リクルートカード&#45;&gt;アイハート -->
<g id="edge32" class="edge">
<title>リクルートカード&#45;&gt;アイハート</title>
<path fill="none" stroke="black" stroke-width="2" d="M340.79,-956.06C366.12,-988.21 424.73,-1052 491,-1052 491,-1052 491,-1052 871,-1052 898.98,-1052 930.09,-1049.9 955.59,-1047.62"/>
<polygon fill="black" stroke="black" stroke-width="2" points="956.15,-1051.09 965.78,-1046.68 955.5,-1044.12 956.15,-1051.09"/>
</g>
<!-- Amazon -->
<g id="node46" class="node">
<title>Amazon</title>
<polygon fill="none" stroke="black" points="1045.5,-321 972.5,-321 972.5,-285 1045.5,-285 1045.5,-321"/>
<text text-anchor="middle" x="1009" y="-299.3" font-family="Times,serif" font-size="14.00">Amazon</text>
</g>
<!-- リクルートカード&#45;&gt;Amazon -->
<g id="edge30" class="edge">
<title>リクルートカード&#45;&gt;Amazon</title>
<path fill="none" stroke="black" stroke-width="2" d="M328.17,-919.68C332.43,-815.57 360.09,-303 491,-303 491,-303 491,-303 871,-303 901.34,-303 935.46,-303 962.06,-303"/>
<polygon fill="black" stroke="black" stroke-width="2" points="962.23,-306.5 972.23,-303 962.23,-299.5 962.23,-306.5"/>
</g>
<!-- じゃらん -->
<g id="node48" class="node">
<title>じゃらん</title>
<polygon fill="none" stroke="black" points="1046,-227 972,-227 972,-191 1046,-191 1046,-227"/>
<text text-anchor="middle" x="1009" y="-205.3" font-family="Times,serif" font-size="14.00">じゃらん</text>
</g>
<!-- リクルートカード&#45;&gt;じゃらん -->
<g id="edge31" class="edge">
<title>リクルートカード&#45;&gt;じゃらん</title>
<path fill="none" stroke="black" stroke-width="2" d="M327.57,-919.98C328.51,-807.72 340.54,-209 491,-209 491,-209 491,-209 871,-209 901.24,-209 935.23,-209 961.79,-209"/>
<polygon fill="black" stroke="black" stroke-width="2" points="961.94,-212.5 971.94,-209 961.94,-205.5 961.94,-212.5"/>
</g>
<!-- メルカリ -->
<g id="node50" class="node">
<title>メルカリ</title>
<polygon fill="none" stroke="black" points="1046,-1223 972,-1223 972,-1187 1046,-1187 1046,-1223"/>
<text text-anchor="middle" x="1009" y="-1201.3" font-family="Times,serif" font-size="14.00">メルカリ</text>
</g>
<!-- リクルートカード&#45;&gt;メルカリ -->
<g id="edge70" class="edge">
<title>リクルートカード&#45;&gt;メルカリ</title>
<path fill="none" stroke="black" stroke-width="2" d="M331.07,-956.2C342.96,-1010.9 386.54,-1170 491,-1170 491,-1170 491,-1170 871,-1170 902.02,-1170 935.79,-1178.53 962.05,-1187.16"/>
<polygon fill="black" stroke="black" stroke-width="2" points="961.12,-1190.55 971.72,-1190.46 963.38,-1183.92 961.12,-1190.55"/>
</g>
<!-- 楽天市場 -->
<g id="node51" class="node">
<title>楽天市場</title>
<polygon fill="none" stroke="black" points="1046,-898 972,-898 972,-862 1046,-862 1046,-898"/>
<text text-anchor="middle" x="1009" y="-876.3" font-family="Times,serif" font-size="14.00">楽天市場</text>
</g>
<!-- リクルートカード&#45;&gt;楽天市場 -->
<g id="edge39" class="edge">
<title>リクルートカード&#45;&gt;楽天市場</title>
<path fill="none" stroke="black" stroke-width="2" d="M349.8,-956.01C379.93,-978.49 436.22,-1014 491,-1014 491,-1014 491,-1014 808,-1014 887.38,-1014 883.01,-947.97 951,-907 954.8,-904.71 958.82,-902.47 962.89,-900.33"/>
<polygon fill="black" stroke="black" stroke-width="2" points="964.52,-903.43 971.85,-895.78 961.35,-897.18 964.52,-903.43"/>
</g>
<!-- Suica&#45;&gt;JREポイント -->
<g id="edge18" class="edge">
<title>Suica&#45;&gt;JREポイント</title>
<path fill="none" stroke="black" d="M520,-1389.79C528.57,-1387.82 538.12,-1385.97 547,-1385 576.04,-1381.81 608.32,-1384.4 635.27,-1388.27"/>
<polygon fill="black" stroke="black" points="634.9,-1391.75 645.31,-1389.8 635.96,-1384.83 634.9,-1391.75"/>
<text text-anchor="middle" x="565.5" y="-1388.8" font-family="Times,serif" font-size="14.00">1.5%</text>
</g>
<!-- 電車 -->
<g id="node33" class="node">
<title>電車</title>
<polygon fill="none" stroke="black" points="1036,-1484 982,-1484 982,-1448 1036,-1448 1036,-1484"/>
<text text-anchor="middle" x="1009" y="-1462.3" font-family="Times,serif" font-size="14.00">電車</text>
</g>
<!-- Suica&#45;&gt;電車 -->
<g id="edge16" class="edge">
<title>Suica&#45;&gt;電車</title>
<path fill="none" stroke="black" stroke-width="2" d="M520.02,-1406.64C528.59,-1409.52 538.14,-1412.56 547,-1415 571.12,-1421.63 577.28,-1423.13 602,-1427 737.41,-1448.2 900.16,-1459.64 971.49,-1463.96"/>
<polygon fill="black" stroke="black" stroke-width="2" points="971.55,-1467.46 981.74,-1464.56 971.97,-1460.48 971.55,-1467.46"/>
</g>
<!-- 飲食店 -->
<g id="node42" class="node">
<title>飲食店</title>
<polygon fill="none" stroke="black" points="1038.5,-1571 979.5,-1571 979.5,-1535 1038.5,-1535 1038.5,-1571"/>
<text text-anchor="middle" x="1009" y="-1549.3" font-family="Times,serif" font-size="14.00">飲食店</text>
</g>
<!-- 現金&#45;&gt;飲食店 -->
<g id="edge64" class="edge">
<title>現金&#45;&gt;飲食店</title>
<path fill="none" stroke="black" stroke-width="2" d="M519.09,-1622.62C527.95,-1621.47 537.91,-1620.18 547,-1619 568.44,-1616.22 911.69,-1572.65 933,-1569 944.88,-1566.97 957.73,-1564.37 969.38,-1561.87"/>
<polygon fill="black" stroke="black" stroke-width="2" points="970.24,-1565.26 979.26,-1559.7 968.74,-1558.42 970.24,-1565.26"/>
</g>
<!-- 理髪店 -->
<g id="node44" class="node">
<title>理髪店</title>
<polygon fill="none" stroke="black" points="1038.5,-1682 979.5,-1682 979.5,-1646 1038.5,-1646 1038.5,-1682"/>
<text text-anchor="middle" x="1009" y="-1660.3" font-family="Times,serif" font-size="14.00">理髪店</text>
</g>
<!-- 現金&#45;&gt;理髪店 -->
<g id="edge65" class="edge">
<title>現金&#45;&gt;理髪店</title>
<path fill="none" stroke="black" stroke-width="2" d="M519.24,-1632.13C528.02,-1633.97 537.89,-1635.81 547,-1637 702.59,-1657.3 889.72,-1662.34 969.23,-1663.59"/>
<polygon fill="black" stroke="black" stroke-width="2" points="969.22,-1667.09 979.27,-1663.74 969.33,-1660.09 969.22,-1667.09"/>
</g>
<!-- クリーニング -->
<g id="node45" class="node">
<title>クリーニング</title>
<polygon fill="none" stroke="black" points="1059.5,-1628 958.5,-1628 958.5,-1592 1059.5,-1592 1059.5,-1628"/>
<text text-anchor="middle" x="1009" y="-1606.3" font-family="Times,serif" font-size="14.00">クリーニング</text>
</g>
<!-- 現金&#45;&gt;クリーニング -->
<g id="edge66" class="edge">
<title>現金&#45;&gt;クリーニング</title>
<path fill="none" stroke="black" stroke-width="2" d="M519.25,-1625.18C598.36,-1622.73 835.92,-1615.35 948.1,-1611.86"/>
<polygon fill="black" stroke="black" stroke-width="2" points="948.35,-1615.36 958.23,-1611.55 948.13,-1608.36 948.35,-1615.36"/>
</g>
<!-- nanacoポイント -->
<g id="node27" class="node">
<title>nanacoポイント</title>
<polygon fill="none" stroke="black" points="757.5,-421 633.5,-421 633.5,-385 757.5,-385 757.5,-421"/>
<text text-anchor="middle" x="695.5" y="-399.3" font-family="Times,serif" font-size="14.00">nanacoポイント</text>
</g>
<!-- nanaco&#45;&gt;nanacoポイント -->
<g id="edge59" class="edge">
<title>nanaco&#45;&gt;nanacoポイント</title>
<path fill="none" stroke="black" d="M525.82,-403C552.1,-403 589.91,-403 623.08,-403"/>
<polygon fill="black" stroke="black" points="623.21,-406.5 633.21,-403 623.21,-399.5 623.21,-406.5"/>
<text text-anchor="middle" x="565.5" y="-406.8" font-family="Times,serif" font-size="14.00">0.5%</text>
</g>
<!-- セブンイレブン -->
<g id="node32" class="node">
<title>セブンイレブン</title>
<polygon fill="none" stroke="black" points="1066,-778 952,-778 952,-742 1066,-742 1066,-778"/>
<text text-anchor="middle" x="1009" y="-756.3" font-family="Times,serif" font-size="14.00">セブンイレブン</text>
</g>
<!-- nanaco&#45;&gt;セブンイレブン -->
<g id="edge58" class="edge">
<title>nanaco&#45;&gt;セブンイレブン</title>
<path fill="none" stroke="black" stroke-width="2" d="M501.73,-421.21C517.74,-452.98 554.52,-519.02 602,-560 705.81,-649.6 856.77,-709.99 942.35,-739.35"/>
<polygon fill="black" stroke="black" stroke-width="2" points="941.35,-742.7 951.94,-742.6 943.6,-736.08 941.35,-742.7"/>
</g>
<!-- Edy&#45;&gt;楽天ポイント -->
<g id="edge49" class="edge">
<title>Edy&#45;&gt;楽天ポイント</title>
<path fill="none" stroke="black" d="M496.53,-919.79C503.43,-886.28 520.39,-813.05 547,-756 582.63,-679.61 641.92,-599.39 673.39,-559.21"/>
<polygon fill="black" stroke="black" points="676.21,-561.28 679.66,-551.26 670.72,-556.94 676.21,-561.28"/>
<text text-anchor="middle" x="565.5" y="-759.8" font-family="Times,serif" font-size="14.00">0.5%</text>
</g>
<!-- Edy&#45;&gt;セブンイレブン -->
<g id="edge63" class="edge">
<title>Edy&#45;&gt;セブンイレブン</title>
<path fill="none" stroke="black" stroke-width="2" d="M510.72,-919.75C531.1,-899.69 566.34,-867.7 602,-848 693.78,-797.31 723.2,-794.62 826,-774 863.9,-766.4 906.99,-762.86 941.73,-761.24"/>
<polygon fill="black" stroke="black" stroke-width="2" points="941.92,-764.74 951.76,-760.82 941.62,-757.75 941.92,-764.74"/>
</g>
<!-- ヨドバシカメラ -->
<g id="node41" class="node">
<title>ヨドバシカメラ</title>
<polygon fill="none" stroke="black" points="1067,-952 951,-952 951,-916 1067,-916 1067,-952"/>
<text text-anchor="middle" x="1009" y="-930.3" font-family="Times,serif" font-size="14.00">ヨドバシカメラ</text>
</g>
<!-- Edy&#45;&gt;ヨドバシカメラ -->
<g id="edge46" class="edge">
<title>Edy&#45;&gt;ヨドバシカメラ</title>
<path fill="none" stroke="black" stroke-width="2" d="M519.25,-937.8C596.65,-937.19 825.72,-935.42 940.65,-934.52"/>
<polygon fill="black" stroke="black" stroke-width="2" points="940.76,-938.02 950.74,-934.44 940.71,-931.02 940.76,-938.02"/>
</g>
<!-- 業務スーパー -->
<g id="node43" class="node">
<title>業務スーパー</title>
<polygon fill="none" stroke="black" points="1060,-1006 958,-1006 958,-970 1060,-970 1060,-1006"/>
<text text-anchor="middle" x="1009" y="-984.3" font-family="Times,serif" font-size="14.00">業務スーパー</text>
</g>
<!-- Edy&#45;&gt;業務スーパー -->
<g id="edge61" class="edge">
<title>Edy&#45;&gt;業務スーパー</title>
<path fill="none" stroke="black" stroke-width="2" d="M519.17,-945.77C527.94,-948.11 537.83,-950.47 547,-952 689.42,-975.83 859.3,-983.95 947.74,-986.67"/>
<polygon fill="black" stroke="black" stroke-width="2" points="947.75,-990.17 957.85,-986.96 947.96,-983.17 947.75,-990.17"/>
</g>
<!-- PayPay&#45;&gt;飲食店 -->
<g id="edge26" class="edge">
<title>PayPay&#45;&gt;飲食店</title>
<path fill="none" stroke="black" stroke-width="2" d="M526.39,-1564.22C617.79,-1562.09 871.71,-1556.18 969.2,-1553.9"/>
<polygon fill="black" stroke="black" stroke-width="2" points="969.3,-1557.4 979.21,-1553.67 969.14,-1550.4 969.3,-1557.4"/>
</g>
<!-- メルペイ&#45;&gt;三井住友銀行 -->
<g id="edge69" class="edge">
<title>メルペイ&#45;&gt;三井住友銀行</title>
<path fill="none" stroke="black" stroke-width="2" d="M454.91,-1228.57C391.38,-1251.42 263.58,-1300.82 235,-1338 180.44,-1408.97 241.81,-1457.93 198,-1536 193.94,-1543.23 188.29,-1549.92 182.23,-1555.8"/>
<polygon fill="black" stroke="black" stroke-width="2" points="179.54,-1553.51 174.44,-1562.8 184.22,-1558.72 179.54,-1553.51"/>
</g>
<!-- メルペイ&#45;&gt;メルカリ -->
<g id="edge68" class="edge">
<title>メルペイ&#45;&gt;メルカリ</title>
<path fill="none" stroke="black" stroke-width="2" d="M529.21,-1215.23C620.54,-1213.28 860.17,-1208.16 961.59,-1205.99"/>
<polygon fill="black" stroke="black" stroke-width="2" points="961.9,-1209.49 971.83,-1205.77 961.75,-1202.49 961.9,-1209.49"/>
</g>
<!-- Ponta&#45;&gt;じゃらん -->
<g id="edge51" class="edge">
<title>Ponta&#45;&gt;じゃらん</title>
<path fill="none" stroke="black" d="M724.14,-127.9C777.82,-143.23 896.63,-177.18 962.24,-195.93"/>
<polygon fill="black" stroke="black" points="961.34,-199.31 971.91,-198.69 963.26,-192.58 961.34,-199.31"/>
</g>
<!-- ホットペッパー -->
<g id="node49" class="node">
<title>ホットペッパー</title>
<polygon fill="none" stroke="black" points="1067,-91 951,-91 951,-55 1067,-55 1067,-91"/>
<text text-anchor="middle" x="1009" y="-69.3" font-family="Times,serif" font-size="14.00">ホットペッパー</text>
</g>
<!-- Ponta&#45;&gt;ホットペッパー -->
<g id="edge53" class="edge">
<title>Ponta&#45;&gt;ホットペッパー</title>
<path fill="none" stroke="black" d="M724.14,-111.78C772.37,-101.56 873.16,-85.82 940.73,-77.48"/>
<polygon fill="black" stroke="black" points="941.35,-80.93 950.86,-76.26 940.51,-73.98 941.35,-80.93"/>
</g>
<!-- 楽天ポイント&#45;&gt;楽天モバイル -->
<g id="edge43" class="edge">
<title>楽天ポイント&#45;&gt;楽天モバイル</title>
<path fill="none" stroke="black" d="M746.72,-538.95C791.45,-542.65 858.25,-544.18 914,-529 935.86,-523.05 958.04,-510.89 975.36,-499.72"/>
<polygon fill="black" stroke="black" points="977.56,-502.46 983.95,-494.01 973.69,-496.64 977.56,-502.46"/>
</g>
<!-- 楽天ポイント&#45;&gt;楽天でんき -->
<g id="edge44" class="edge">
<title>楽天ポイント&#45;&gt;楽天でんき</title>
<path fill="none" stroke="black" d="M716.82,-551.3C741.34,-572.72 784.48,-608.26 826,-632 837.83,-638.77 905.84,-665.93 955.27,-685.39"/>
<polygon fill="black" stroke="black" points="954.29,-688.76 964.88,-689.17 956.85,-682.25 954.29,-688.76"/>
</g>
<!-- JREポイント&#45;&gt;Suica -->
<g id="edge19" class="edge">
<title>JREポイント&#45;&gt;Suica</title>
<path fill="none" stroke="black" d="M645.32,-1400.68C616.64,-1400.91 579.77,-1400.91 547,-1400 541.68,-1399.85 536.07,-1399.62 530.56,-1399.36"/>
<polygon fill="black" stroke="black" points="530.35,-1395.84 520.18,-1398.81 529.98,-1402.83 530.35,-1395.84"/>
</g>
<!-- ビックポイント&#45;&gt;ビックカメラ -->
<g id="edge14" class="edge">
<title>ビックポイント&#45;&gt;ビックカメラ</title>
<path fill="none" stroke="black" d="M753.81,-1354.62C797.98,-1359.63 860.36,-1363.18 914,-1353 930.11,-1349.94 947,-1344.18 961.94,-1338.1"/>
<polygon fill="black" stroke="black" points="963.6,-1341.2 971.45,-1334.08 960.88,-1334.75 963.6,-1341.2"/>
</g>
<!-- Amazonポイント -->
<g id="node26" class="node">
<title>Amazonポイント</title>
<polygon fill="none" stroke="black" points="760.5,-274 630.5,-274 630.5,-238 760.5,-238 760.5,-274"/>
<text text-anchor="middle" x="695.5" y="-252.3" font-family="Times,serif" font-size="14.00">Amazonポイント</text>
</g>
<!-- Amazonポイント&#45;&gt;Amazon -->
<g id="edge56" class="edge">
<title>Amazonポイント&#45;&gt;Amazon</title>
<path fill="none" stroke="black" d="M760.61,-256.68C808.25,-261.38 874.8,-270.51 933,-280 942.51,-281.55 952.67,-283.35 962.34,-285.34"/>
<polygon fill="black" stroke="black" points="961.68,-288.78 972.2,-287.48 963.17,-281.94 961.68,-288.78"/>
</g>
<!-- nanacoポイント&#45;&gt;nanaco -->
<g id="edge60" class="edge">
<title>nanacoポイント&#45;&gt;nanaco</title>
<path fill="none" stroke="black" d="M633.49,-399.59C606.92,-398.56 575.42,-397.95 547,-399 543.31,-399.14 539.47,-399.33 535.63,-399.55"/>
<polygon fill="black" stroke="black" points="535.29,-396.06 525.53,-400.2 535.74,-403.05 535.29,-396.06"/>
</g>
<!-- ヨドバシゴールドポイント -->
<g id="node28" class="node">
<title>ヨドバシゴールドポイント</title>
<polygon fill="none" stroke="black" points="789,-893 602,-893 602,-857 789,-857 789,-893"/>
<text text-anchor="middle" x="695.5" y="-871.3" font-family="Times,serif" font-size="14.00">ヨドバシゴールドポイント</text>
</g>
<!-- ヨドバシゴールドポイント&#45;&gt;ヨドバシカメラ -->
<g id="edge48" class="edge">
<title>ヨドバシゴールドポイント&#45;&gt;ヨドバシカメラ</title>
<path fill="none" stroke="black" d="M789.12,-892.54C837.87,-901.78 896.55,-912.89 940.88,-921.29"/>
<polygon fill="black" stroke="black" points="940.48,-924.77 950.96,-923.2 941.79,-917.9 940.48,-924.77"/>
</g>
<!-- はぴeポイント -->
<g id="node29" class="node">
<title>はぴeポイント</title>
<polygon fill="none" stroke="black" points="750.5,-367 640.5,-367 640.5,-331 750.5,-331 750.5,-367"/>
<text text-anchor="middle" x="695.5" y="-345.3" font-family="Times,serif" font-size="14.00">はぴeポイント</text>
</g>
<!-- はぴeポイント&#45;&gt;関西電力 -->
<g id="edge35" class="edge">
<title>はぴeポイント&#45;&gt;関西電力</title>
<path fill="none" stroke="black" d="M750.76,-361.72C810.49,-375.71 905.5,-397.98 961.8,-411.17"/>
<polygon fill="black" stroke="black" points="961.31,-414.65 971.85,-413.53 962.91,-407.84 961.31,-414.65"/>
</g>
<!-- 株主優待券&#45;&gt;住信SBI銀行 -->
<g id="edge29" class="edge">
<title>株主優待券&#45;&gt;住信SBI銀行</title>
<path fill="none" stroke="black" d="M825.93,-1506.56C723.49,-1508.77 457.21,-1504.35 235,-1512 225.89,-1512.31 216.25,-1512.81 206.84,-1513.27"/>
<polygon fill="black" stroke="black" points="206.57,-1509.78 196.74,-1513.75 206.9,-1516.77 206.57,-1509.78"/>
</g>
<!-- 株主優待券&#45;&gt;電車 -->
<g id="edge28" class="edge">
<title>株主優待券&#45;&gt;電車</title>
<path fill="none" stroke="black" stroke-width="2" d="M914.35,-1491.29C932.83,-1486.3 954.14,-1480.55 971.77,-1475.79"/>
<polygon fill="black" stroke="black" stroke-width="2" points="972.92,-1479.1 981.67,-1473.11 971.1,-1472.34 972.92,-1479.1"/>
</g>
<!-- 楽天モバイル&#45;&gt;楽天ポイント -->
<g id="edge42" class="edge">
<title>楽天モバイル&#45;&gt;楽天ポイント</title>
<path fill="none" stroke="black" d="M957.82,-485.18C902.9,-495.23 814.88,-511.34 756.39,-522.04"/>
<polygon fill="black" stroke="black" points="755.75,-518.6 746.55,-523.84 757.01,-525.48 755.75,-518.6"/>
<text text-anchor="middle" x="870" y="-513.8" font-family="Times,serif" font-size="14.00">0.5%</text>
</g>
<!-- 楽天でんき&#45;&gt;楽天ポイント -->
<g id="edge37" class="edge">
<title>楽天でんき&#45;&gt;楽天ポイント</title>
<path fill="none" stroke="black" d="M990.65,-687.79C975.78,-672.45 953.56,-650.16 933,-632 882.23,-587.15 808.24,-560.64 756.58,-546.51"/>
<polygon fill="black" stroke="black" points="757.45,-543.12 746.88,-543.93 755.65,-549.89 757.45,-543.12"/>
<text text-anchor="middle" x="870" y="-620.8" font-family="Times,serif" font-size="14.00">0.5%</text>
</g>
<!-- 関西電力&#45;&gt;はぴeポイント -->
<g id="edge34" class="edge">
<title>関西電力&#45;&gt;はぴeポイント</title>
<path fill="none" stroke="black" d="M986.05,-403.75C967.95,-389.87 940.95,-371.7 914,-363 864.23,-346.92 804.79,-344.13 760.64,-344.96"/>
<polygon fill="black" stroke="black" points="760.52,-341.46 750.61,-345.21 760.7,-348.46 760.52,-341.46"/>
<text text-anchor="middle" x="870" y="-366.8" font-family="Times,serif" font-size="14.00">0.5%</text>
</g>
<!-- ビックカメラ&#45;&gt;ビックポイント -->
<g id="edge12" class="edge">
<title>ビックカメラ&#45;&gt;ビックポイント</title>
<path fill="none" stroke="black" stroke-dasharray="5,2" d="M958.42,-1320.78C905.83,-1325.84 822.42,-1333.87 763.9,-1339.51"/>
<polygon fill="black" stroke="black" points="763.25,-1336.05 753.63,-1340.5 763.92,-1343.02 763.25,-1336.05"/>
<text text-anchor="middle" x="870" y="-1337.8" font-family="Times,serif" font-size="14.00">9.5%</text>
</g>
<!-- ヨドバシカメラ&#45;&gt;ヨドバシゴールドポイント -->
<g id="edge47" class="edge">
<title>ヨドバシカメラ&#45;&gt;ヨドバシゴールドポイント</title>
<path fill="none" stroke="black" d="M964.83,-915.98C959.98,-913.26 955.26,-910.26 951,-907 932.77,-893.07 935.67,-878.52 914,-871 877.96,-858.49 836.51,-856.47 799.51,-858.62"/>
<polygon fill="black" stroke="black" points="798.94,-855.15 789.21,-859.33 799.42,-862.13 798.94,-855.15"/>
<text text-anchor="middle" x="870" y="-874.8" font-family="Times,serif" font-size="14.00">10%</text>
</g>
<!-- Amazon&#45;&gt;Amazonポイント -->
<g id="edge55" class="edge">
<title>Amazon&#45;&gt;Amazonポイント</title>
<path fill="none" stroke="black" d="M972.2,-304.47C959.81,-302.63 945.81,-300.09 933,-298 878.77,-289.16 817.31,-280.63 770.64,-273.21"/>
<polygon fill="black" stroke="black" points="771.04,-269.73 760.61,-271.59 769.93,-276.64 771.04,-269.73"/>
</g>
<!-- じゃらん&#45;&gt;Ponta -->
<g id="edge52" class="edge">
<title>じゃらん&#45;&gt;Ponta</title>
<path fill="none" stroke="black" d="M990.09,-190.79C972.45,-174.12 943.86,-150.36 914,-139 854.15,-116.22 778.56,-115.24 734.08,-117.2"/>
<polygon fill="black" stroke="black" points="733.81,-113.71 724,-117.72 734.17,-120.7 733.81,-113.71"/>
<text text-anchor="middle" x="870" y="-142.8" font-family="Times,serif" font-size="14.00">2%</text>
</g>
<!-- ホットペッパー&#45;&gt;Ponta -->
<g id="edge54" class="edge">
<title>ホットペッパー&#45;&gt;Ponta</title>
<path fill="none" stroke="black" d="M950.86,-86.99C887.85,-98.57 788.28,-113.34 734.31,-118.89"/>
<polygon fill="black" stroke="black" points="733.76,-115.43 724.14,-119.88 734.43,-122.4 733.76,-115.43"/>
</g>
<!-- 楽天市場&#45;&gt;楽天ポイント -->
<g id="edge40" class="edge">
<title>楽天市場&#45;&gt;楽天ポイント</title>
<path fill="none" stroke="black" d="M991.48,-861.59C939.57,-803.77 779.69,-625.67 719.63,-558.76"/>
<polygon fill="black" stroke="black" points="722.09,-556.27 712.81,-551.17 716.88,-560.95 722.09,-556.27"/>
<text text-anchor="middle" x="870" y="-778.8" font-family="Times,serif" font-size="14.00">3%</text>
</g>
</g>
</svg>
