<?xml version="1.0" encoding="UTF-8" standalone="no"?>
<!DOCTYPE svg PUBLIC "-//W3C//DTD SVG 1.1//EN"
 "http://www.w3.org/Graphics/SVG/1.1/DTD/svg11.dtd">
<!-- Generated by graphviz version 2.40.1 (0)
 -->
<!-- Title: MoneyFlow Pages: 1 -->
<svg width="1085pt" height="1782pt"
 viewBox="0.00 0.00 1085.00 1782.00" xmlns="http://www.w3.org/2000/svg" xmlns:xlink="http://www.w3.org/1999/xlink">
<g id="graph0" class="graph" transform="scale(1 1) rotate(0) translate(4 1778)">
<title>MoneyFlow</title>
<polygon fill="#ffffff" stroke="transparent" points="-4,4 -4,-1778 1081,-1778 1081,4 -4,4"/>
<!-- 収入 -->
<g id="node1" class="node">
<title>収入</title>
<text text-anchor="middle" x="27" y="-14.3" font-family="Times,serif" font-size="14.00" fill="#000000">収入</text>
</g>
<!-- 銀行口座 -->
<g id="node2" class="node">
<title>銀行口座</title>
<text text-anchor="middle" x="142" y="-14.3" font-family="Times,serif" font-size="14.00" fill="#000000">銀行口座</text>
</g>
<!-- 収入&#45;&gt;銀行口座 -->
<g id="edge1" class="edge">
<title>収入&#45;&gt;銀行口座</title>
<path fill="none" stroke="#000000" d="M54.2534,-18C69.3972,-18 88.4539,-18 104.9357,-18"/>
</g>
<!-- クレジットカード -->
<g id="node3" class="node">
<title>クレジットカード</title>
<text text-anchor="middle" x="322" y="-14.3" font-family="Times,serif" font-size="14.00" fill="#000000">クレジットカード</text>
</g>
<!-- 銀行口座&#45;&gt;クレジットカード -->
<g id="edge2" class="edge">
<title>銀行口座&#45;&gt;クレジットカード</title>
<path fill="none" stroke="#000000" d="M179.2961,-18C201.6417,-18 230.6798,-18 256.7236,-18"/>
</g>
<!-- マネー -->
<g id="node4" class="node">
<title>マネー</title>
<text text-anchor="middle" x="485" y="-14.3" font-family="Times,serif" font-size="14.00" fill="#000000">マネー</text>
</g>
<!-- クレジットカード&#45;&gt;マネー -->
<g id="edge3" class="edge">
<title>クレジットカード&#45;&gt;マネー</title>
<path fill="none" stroke="#000000" d="M387.3591,-18C410.9188,-18 436.353,-18 455.3549,-18"/>
</g>
<!-- ポイント -->
<g id="node5" class="node">
<title>ポイント</title>
<text text-anchor="middle" x="686" y="-14.3" font-family="Times,serif" font-size="14.00" fill="#000000">ポイント</text>
</g>
<!-- マネー&#45;&gt;ポイント -->
<g id="edge4" class="edge">
<title>マネー&#45;&gt;ポイント</title>
<path fill="none" stroke="#000000" d="M514.6582,-18C550.2582,-18 609.9876,-18 648.6865,-18"/>
</g>
<!-- 金券 -->
<g id="node6" class="node">
<title>金券</title>
<text text-anchor="middle" x="870.5" y="-14.3" font-family="Times,serif" font-size="14.00" fill="#000000">金券</text>
</g>
<!-- ポイント&#45;&gt;金券 -->
<g id="edge5" class="edge">
<title>ポイント&#45;&gt;金券</title>
<path fill="none" stroke="#000000" d="M723.3363,-18C758.9263,-18 811.6612,-18 843.3941,-18"/>
</g>
<!-- 支出 -->
<g id="node7" class="node">
<title>支出</title>
<text text-anchor="middle" x="1019" y="-14.3" font-family="Times,serif" font-size="14.00" fill="#000000">支出</text>
</g>
<!-- 金券&#45;&gt;支出 -->
<g id="edge6" class="edge">
<title>金券&#45;&gt;支出</title>
<path fill="none" stroke="#000000" d="M897.7372,-18C924.5314,-18 965.2011,-18 991.9355,-18"/>
</g>
<!-- 給与 -->
<g id="node8" class="node">
<title>給与</title>
<polygon fill="none" stroke="#000000" points="54,-1448 0,-1448 0,-1412 54,-1412 54,-1448"/>
<text text-anchor="middle" x="27" y="-1426.3" font-family="Times,serif" font-size="14.00" fill="#000000">給与</text>
</g>
<!-- 三井住友銀行 -->
<g id="node9" class="node">
<title>三井住友銀行</title>
<polygon fill="none" stroke="#000000" points="193,-1448 91,-1448 91,-1412 193,-1412 193,-1448"/>
<text text-anchor="middle" x="142" y="-1426.3" font-family="Times,serif" font-size="14.00" fill="#000000">三井住友銀行</text>
</g>
<!-- 給与&#45;&gt;三井住友銀行 -->
<g id="edge7" class="edge">
<title>給与&#45;&gt;三井住友銀行</title>
<path fill="none" stroke="#000000" stroke-width="2" d="M54.2534,-1430C62.2529,-1430 71.3442,-1430 80.571,-1430"/>
<polygon fill="#000000" stroke="#000000" stroke-width="2" points="80.5912,-1433.5001 90.5911,-1430 80.5911,-1426.5001 80.5912,-1433.5001"/>
</g>
<!-- 住信SBI銀行 -->
<g id="node10" class="node">
<title>住信SBI銀行</title>
<polygon fill="none" stroke="#000000" points="192,-1376 92,-1376 92,-1340 192,-1340 192,-1376"/>
<text text-anchor="middle" x="142" y="-1354.3" font-family="Times,serif" font-size="14.00" fill="#000000">住信SBI銀行</text>
</g>
<!-- 三井住友銀行&#45;&gt;住信SBI銀行 -->
<g id="edge9" class="edge">
<title>三井住友銀行&#45;&gt;住信SBI銀行</title>
<path fill="none" stroke="#000000" stroke-width="2" d="M142,-1411.9539C142,-1403.4073 142,-1394.8607 142,-1386.3142"/>
<polygon fill="#000000" stroke="#000000" stroke-width="2" points="145.5001,-1386.2812 142,-1376.2813 138.5001,-1386.2813 145.5001,-1386.2812"/>
</g>
<!-- 現金 -->
<g id="node14" class="node">
<title>現金</title>
<polygon fill="none" stroke="#000000" points="512,-1638 458,-1638 458,-1602 512,-1602 512,-1638"/>
<text text-anchor="middle" x="485" y="-1616.3" font-family="Times,serif" font-size="14.00" fill="#000000">現金</text>
</g>
<!-- 三井住友銀行&#45;&gt;現金 -->
<g id="edge8" class="edge">
<title>三井住友銀行&#45;&gt;現金</title>
<path fill="none" stroke="#000000" stroke-width="2" d="M160.3977,-1448.0669C177.4399,-1464.1455 204.0048,-1487.5914 230,-1504 302.8738,-1549.9992 397.0293,-1587.8933 448.0961,-1606.8657"/>
<polygon fill="#000000" stroke="#000000" stroke-width="2" points="447.1224,-1610.2368 457.7159,-1610.4047 449.5393,-1603.6672 447.1224,-1610.2368"/>
</g>
<!-- 関西電力 -->
<g id="node36" class="node">
<title>関西電力</title>
<polygon fill="none" stroke="#000000" points="1056,-171 982,-171 982,-135 1056,-135 1056,-171"/>
<text text-anchor="middle" x="1019" y="-149.3" font-family="Times,serif" font-size="14.00" fill="#000000">関西電力</text>
</g>
<!-- 三井住友銀行&#45;&gt;関西電力 -->
<g id="edge10" class="edge">
<title>三井住友銀行&#45;&gt;関西電力</title>
<path fill="none" stroke="#000000" stroke-width="2" d="M170.3504,-1411.8951C179.2122,-1404.6774 187.9773,-1395.556 193,-1385 280.4356,-1201.2418 146.8441,-655.7341 230,-470 306.4488,-299.2467 368.1502,-262.5656 537,-182 612.8765,-145.796 865.7293,-148.5209 971.6672,-151.3981"/>
<polygon fill="#000000" stroke="#000000" stroke-width="2" points="971.6542,-154.899 981.7496,-151.6846 971.8531,-147.9019 971.6542,-154.899"/>
</g>
<!-- ビックカメラSuicaカード -->
<g id="node11" class="node">
<title>ビックカメラSuicaカード</title>
<polygon fill="none" stroke="#000000" points="414,-1447 230,-1447 230,-1411 414,-1411 414,-1447"/>
<text text-anchor="middle" x="322" y="-1425.3" font-family="Times,serif" font-size="14.00" fill="#000000">ビックカメラSuicaカード</text>
</g>
<!-- 住信SBI銀行&#45;&gt;ビックカメラSuicaカード -->
<g id="edge28" class="edge">
<title>住信SBI銀行&#45;&gt;ビックカメラSuicaカード</title>
<path fill="none" stroke="#000000" stroke-width="2" d="M192.3296,-1373.0536C198.9852,-1375.2671 205.6855,-1377.6103 212,-1380 233.0041,-1387.9489 255.7494,-1397.8547 275.0764,-1406.6754"/>
<polygon fill="#000000" stroke="#000000" stroke-width="2" points="273.7195,-1409.9038 284.2669,-1410.9051 276.646,-1403.5449 273.7195,-1409.9038"/>
</g>
<!-- リクルートカード -->
<g id="node12" class="node">
<title>リクルートカード</title>
<polygon fill="none" stroke="#000000" points="386.5,-515 257.5,-515 257.5,-479 386.5,-479 386.5,-515"/>
<text text-anchor="middle" x="322" y="-493.3" font-family="Times,serif" font-size="14.00" fill="#000000">リクルートカード</text>
</g>
<!-- 住信SBI銀行&#45;&gt;リクルートカード -->
<g id="edge29" class="edge">
<title>住信SBI銀行&#45;&gt;リクルートカード</title>
<path fill="none" stroke="#000000" stroke-width="2" d="M145.8428,-1339.6185C168.8356,-1229.6365 288.1483,-658.9242 316.1249,-525.1026"/>
<polygon fill="#000000" stroke="#000000" stroke-width="2" points="319.5726,-525.7141 318.1931,-515.2095 312.7208,-524.2816 319.5726,-525.7141"/>
</g>
<!-- 住信SBI銀行&#45;&gt;現金 -->
<g id="edge26" class="edge">
<title>住信SBI銀行&#45;&gt;現金</title>
<path fill="none" stroke="#000000" stroke-width="2" d="M164.9136,-1376.1904C174.1048,-1383.9897 184.5085,-1393.4854 193,-1403 212.1285,-1424.4333 206.4248,-1439.5838 230,-1456 299.3564,-1504.2951 346.1288,-1453.6391 414,-1504 444.0968,-1526.3321 464.1663,-1565.5638 475.0729,-1592.1545"/>
<polygon fill="#000000" stroke="#000000" stroke-width="2" points="471.8942,-1593.6355 478.8061,-1601.6652 478.4102,-1591.0777 471.8942,-1593.6355"/>
</g>
<!-- 家賃 -->
<g id="node30" class="node">
<title>家賃</title>
<polygon fill="none" stroke="#000000" points="1046,-1293 992,-1293 992,-1257 1046,-1257 1046,-1293"/>
<text text-anchor="middle" x="1019" y="-1271.3" font-family="Times,serif" font-size="14.00" fill="#000000">家賃</text>
</g>
<!-- 住信SBI銀行&#45;&gt;家賃 -->
<g id="edge27" class="edge">
<title>住信SBI銀行&#45;&gt;家賃</title>
<path fill="none" stroke="#000000" stroke-width="2" d="M164.3391,-1339.9902C196.9418,-1315.5793 260.4021,-1275 322,-1275 322,-1275 322,-1275 870.5,-1275 908.4372,-1275 951.8261,-1275 981.8647,-1275"/>
<polygon fill="#000000" stroke="#000000" stroke-width="2" points="981.9022,-1278.5001 991.9022,-1275 981.9022,-1271.5001 981.9022,-1278.5001"/>
</g>
<!-- Suica -->
<g id="node13" class="node">
<title>Suica</title>
<polygon fill="none" stroke="#000000" points="513,-1418 457,-1418 457,-1382 513,-1382 513,-1418"/>
<text text-anchor="middle" x="485" y="-1396.3" font-family="Times,serif" font-size="14.00" fill="#000000">Suica</text>
</g>
<!-- ビックカメラSuicaカード&#45;&gt;Suica -->
<g id="edge18" class="edge">
<title>ビックカメラSuicaカード&#45;&gt;Suica</title>
<path fill="none" stroke="#000000" stroke-width="2" d="M414.4538,-1412.5512C425.8664,-1410.5207 436.987,-1408.5422 446.8987,-1406.7788"/>
<polygon fill="#000000" stroke="#000000" stroke-width="2" points="447.5192,-1410.2234 456.7515,-1405.0258 446.293,-1403.3316 447.5192,-1410.2234"/>
</g>
<!-- JREポイント -->
<g id="node20" class="node">
<title>JREポイント</title>
<polygon fill="none" stroke="#000000" points="736.5,-1431 635.5,-1431 635.5,-1395 736.5,-1395 736.5,-1431"/>
<text text-anchor="middle" x="686" y="-1409.3" font-family="Times,serif" font-size="14.00" fill="#000000">JREポイント</text>
</g>
<!-- ビックカメラSuicaカード&#45;&gt;JREポイント -->
<g id="edge13" class="edge">
<title>ビックカメラSuicaカード&#45;&gt;JREポイント</title>
<path fill="none" stroke="#000000" d="M414.2439,-1429.4633C447.3009,-1429.2593 484.8344,-1428.6033 519,-1427 554.2721,-1425.3447 593.6344,-1422.1124 625.2812,-1419.1703"/>
<polygon fill="#000000" stroke="#000000" points="625.6431,-1422.6518 635.27,-1418.2276 624.9854,-1415.6827 625.6431,-1422.6518"/>
<text text-anchor="middle" x="485" y="-1432.8" font-family="Times,serif" font-size="14.00" fill="#000000">0.5%</text>
</g>
<!-- ビックポイント -->
<g id="node21" class="node">
<title>ビックポイント</title>
<polygon fill="none" stroke="#000000" points="744,-1377 628,-1377 628,-1341 744,-1341 744,-1377"/>
<text text-anchor="middle" x="686" y="-1355.3" font-family="Times,serif" font-size="14.00" fill="#000000">ビックポイント</text>
</g>
<!-- ビックカメラSuicaカード&#45;&gt;ビックポイント -->
<g id="edge16" class="edge">
<title>ビックカメラSuicaカード&#45;&gt;ビックポイント</title>
<path fill="none" stroke="#000000" d="M346.1039,-1410.8305C370.8983,-1393.3706 411.3852,-1368.1816 451,-1358 505.6681,-1343.9495 569.882,-1345.3775 617.3578,-1349.6577"/>
<polygon fill="#000000" stroke="#000000" points="617.2373,-1353.1623 627.5278,-1350.6409 617.911,-1346.1947 617.2373,-1353.1623"/>
<text text-anchor="middle" x="485" y="-1361.8" font-family="Times,serif" font-size="14.00" fill="#000000">0.5%</text>
</g>
<!-- ビックカメラ -->
<g id="node40" class="node">
<title>ビックカメラ</title>
<polygon fill="none" stroke="#000000" points="1069.5,-1423 968.5,-1423 968.5,-1387 1069.5,-1387 1069.5,-1423"/>
<text text-anchor="middle" x="1019" y="-1401.3" font-family="Times,serif" font-size="14.00" fill="#000000">ビックカメラ</text>
</g>
<!-- ビックカメラSuicaカード&#45;&gt;ビックカメラ -->
<g id="edge14" class="edge">
<title>ビックカメラSuicaカード&#45;&gt;ビックカメラ</title>
<path fill="none" stroke="#000000" stroke-width="2" stroke-dasharray="5,2" d="M395.9239,-1447.0473C402.0515,-1448.6749 408.1397,-1450.3374 414,-1452 477.4869,-1470.0117 489.5075,-1497 555.5,-1497 555.5,-1497 555.5,-1497 870.5,-1497 920.0217,-1497 918.2541,-1457.0037 961,-1432 963.4717,-1430.5542 966.0339,-1429.1258 968.6431,-1427.7259"/>
<polygon fill="#000000" stroke="#000000" stroke-width="2" points="970.3477,-1430.7849 977.6331,-1423.0924 967.1408,-1424.5627 970.3477,-1430.7849"/>
</g>
<!-- EX予約 -->
<g id="node50" class="node">
<title>EX予約</title>
<polygon fill="none" stroke="#000000" points="1052,-1774 986,-1774 986,-1738 1052,-1738 1052,-1774"/>
<text text-anchor="middle" x="1019" y="-1752.3" font-family="Times,serif" font-size="14.00" fill="#000000">EX予約</text>
</g>
<!-- ビックカメラSuicaカード&#45;&gt;EX予約 -->
<g id="edge23" class="edge">
<title>ビックカメラSuicaカード&#45;&gt;EX予約</title>
<path fill="none" stroke="#000000" stroke-width="2" stroke-dasharray="5,2" d="M322.5044,-1447.0467C325.4631,-1515.5987 345.7647,-1756 485,-1756 485,-1756 485,-1756 870.5,-1756 906.0157,-1756 946.3093,-1756 975.9544,-1756"/>
<polygon fill="#000000" stroke="#000000" stroke-width="2" points="975.9708,-1759.5001 985.9708,-1756 975.9708,-1752.5001 975.9708,-1759.5001"/>
</g>
<!-- nanaco -->
<g id="node15" class="node">
<title>nanaco</title>
<polygon fill="none" stroke="#000000" points="519,-301 451,-301 451,-265 519,-265 519,-301"/>
<text text-anchor="middle" x="485" y="-279.3" font-family="Times,serif" font-size="14.00" fill="#000000">nanaco</text>
</g>
<!-- リクルートカード&#45;&gt;nanaco -->
<g id="edge50" class="edge">
<title>リクルートカード&#45;&gt;nanaco</title>
<path fill="none" stroke="#000000" stroke-width="2" d="M335.6591,-478.8056C354.7335,-452.8888 389.7321,-403.4366 414,-358 423.7606,-339.7253 418.4635,-330.6844 432,-315 435.1273,-311.3765 438.7703,-308.0453 442.655,-305.0144"/>
<polygon fill="#000000" stroke="#000000" stroke-width="2" points="444.7228,-307.839 450.8805,-299.2174 440.6902,-302.1173 444.7228,-307.839"/>
</g>
<!-- Edy -->
<g id="node16" class="node">
<title>Edy</title>
<polygon fill="none" stroke="#000000" points="512,-683 458,-683 458,-647 512,-647 512,-683"/>
<text text-anchor="middle" x="485" y="-661.3" font-family="Times,serif" font-size="14.00" fill="#000000">Edy</text>
</g>
<!-- リクルートカード&#45;&gt;Edy -->
<g id="edge35" class="edge">
<title>リクルートカード&#45;&gt;Edy</title>
<path fill="none" stroke="#000000" stroke-width="2" d="M339.7541,-515.2988C368.9807,-545.4218 427.2848,-605.5144 460.4455,-639.6923"/>
<polygon fill="#000000" stroke="#000000" stroke-width="2" points="458.039,-642.2382 467.5145,-646.9781 463.0629,-637.3638 458.039,-642.2382"/>
</g>
<!-- Ponta -->
<g id="node17" class="node">
<title>Ponta</title>
<polygon fill="none" stroke="#000000" points="714.5,-930 657.5,-930 657.5,-894 714.5,-894 714.5,-930"/>
<text text-anchor="middle" x="686" y="-908.3" font-family="Times,serif" font-size="14.00" fill="#000000">Ponta</text>
</g>
<!-- リクルートカード&#45;&gt;Ponta -->
<g id="edge45" class="edge">
<title>リクルートカード&#45;&gt;Ponta</title>
<path fill="none" stroke="#000000" d="M326.5104,-515.4015C342.8003,-577.7389 404.746,-782.4708 537,-880 569.0883,-903.6631 615.0275,-910.556 647.3929,-912.2228"/>
<polygon fill="#000000" stroke="#000000" points="647.2661,-915.7204 657.3894,-912.5949 647.5266,-908.7252 647.2661,-915.7204"/>
<text text-anchor="middle" x="485" y="-867.8" font-family="Times,serif" font-size="14.00" fill="#000000">1.2%</text>
</g>
<!-- NHK -->
<g id="node34" class="node">
<title>NHK</title>
<polygon fill="none" stroke="#000000" points="1046,-517 992,-517 992,-481 1046,-481 1046,-517"/>
<text text-anchor="middle" x="1019" y="-495.3" font-family="Times,serif" font-size="14.00" fill="#000000">NHK</text>
</g>
<!-- リクルートカード&#45;&gt;NHK -->
<g id="edge30" class="edge">
<title>リクルートカード&#45;&gt;NHK</title>
<path fill="none" stroke="#000000" stroke-width="2" d="M386.6342,-497.1855C529.5042,-497.5954 868.4414,-498.568 981.5362,-498.8925"/>
<polygon fill="#000000" stroke="#000000" stroke-width="2" points="981.7516,-502.393 991.7617,-498.9218 981.7718,-495.3931 981.7516,-502.393"/>
</g>
<!-- ASAHIネット -->
<g id="node35" class="node">
<title>ASAHIネット</title>
<polygon fill="none" stroke="#000000" points="1073.5,-401 964.5,-401 964.5,-365 1073.5,-365 1073.5,-401"/>
<text text-anchor="middle" x="1019" y="-379.3" font-family="Times,serif" font-size="14.00" fill="#000000">ASAHIネット</text>
</g>
<!-- リクルートカード&#45;&gt;ASAHIネット -->
<g id="edge31" class="edge">
<title>リクルートカード&#45;&gt;ASAHIネット</title>
<path fill="none" stroke="#000000" stroke-width="2" d="M332.973,-478.9241C356.1968,-443.2036 414.0547,-367 485,-367 485,-367 485,-367 870.5,-367 898.0845,-367 928.3863,-369.7628 954.3839,-372.9923"/>
<polygon fill="#000000" stroke="#000000" stroke-width="2" points="954.127,-376.4881 964.493,-374.2977 955.0236,-369.5458 954.127,-376.4881"/>
</g>
<!-- アイハート -->
<g id="node38" class="node">
<title>アイハート</title>
<polygon fill="none" stroke="#000000" points="1062,-347 976,-347 976,-311 1062,-311 1062,-347"/>
<text text-anchor="middle" x="1019" y="-325.3" font-family="Times,serif" font-size="14.00" fill="#000000">アイハート</text>
</g>
<!-- リクルートカード&#45;&gt;アイハート -->
<g id="edge34" class="edge">
<title>リクルートカード&#45;&gt;アイハート</title>
<path fill="none" stroke="#000000" stroke-width="2" d="M334.537,-478.7012C365.0403,-435.1593 443.6501,-329 485,-329 485,-329 485,-329 870.5,-329 902.072,-329 937.4196,-329 965.7061,-329"/>
<polygon fill="#000000" stroke="#000000" stroke-width="2" points="965.7878,-332.5001 975.7878,-329 965.7878,-325.5001 965.7878,-332.5001"/>
</g>
<!-- Amazon -->
<g id="node48" class="node">
<title>Amazon</title>
<polygon fill="none" stroke="#000000" points="1056,-455 982,-455 982,-419 1056,-419 1056,-455"/>
<text text-anchor="middle" x="1019" y="-433.3" font-family="Times,serif" font-size="14.00" fill="#000000">Amazon</text>
</g>
<!-- リクルートカード&#45;&gt;Amazon -->
<g id="edge32" class="edge">
<title>リクルートカード&#45;&gt;Amazon</title>
<path fill="none" stroke="#000000" stroke-width="2" d="M339.6973,-478.8238C367.7927,-452.0121 425.5342,-405 485,-405 485,-405 485,-405 870.5,-405 905.0616,-405 943.153,-413.3856 972.1034,-421.5715"/>
<polygon fill="#000000" stroke="#000000" stroke-width="2" points="971.3613,-425.001 981.9415,-424.4446 973.3236,-418.2816 971.3613,-425.001"/>
</g>
<!-- じゃらん -->
<g id="node51" class="node">
<title>じゃらん</title>
<polygon fill="none" stroke="#000000" points="1056,-983 982,-983 982,-947 1056,-947 1056,-983"/>
<text text-anchor="middle" x="1019" y="-961.3" font-family="Times,serif" font-size="14.00" fill="#000000">じゃらん</text>
</g>
<!-- リクルートカード&#45;&gt;じゃらん -->
<g id="edge33" class="edge">
<title>リクルートカード&#45;&gt;じゃらん</title>
<path fill="none" stroke="#000000" stroke-width="2" d="M324.0782,-515.3482C331.5307,-574.2268 361.4121,-761.6301 451,-883 496.779,-945.0194 520.7791,-954.5091 592,-984 678.14,-1019.6685 706.4178,-1028.9947 799,-1018 859.7521,-1010.7853 927.9983,-992.7369 972.142,-979.7045"/>
<polygon fill="#000000" stroke="#000000" stroke-width="2" points="973.1506,-983.0561 981.7306,-976.8405 971.1472,-976.3489 973.1506,-983.0561"/>
</g>
<!-- Suica&#45;&gt;JREポイント -->
<g id="edge24" class="edge">
<title>Suica&#45;&gt;JREポイント</title>
<path fill="none" stroke="#000000" d="M513.0655,-1401.4674C530.5882,-1402.4106 553.6135,-1403.6993 574,-1405 590.594,-1406.0587 608.5639,-1407.3 625.1506,-1408.4848"/>
<polygon fill="#000000" stroke="#000000" points="625.0494,-1411.9864 635.2747,-1409.213 625.5516,-1405.0045 625.0494,-1411.9864"/>
<text text-anchor="middle" x="555.5" y="-1408.8" font-family="Times,serif" font-size="14.00" fill="#000000">1.5%</text>
</g>
<!-- 電車 -->
<g id="node32" class="node">
<title>電車</title>
<polygon fill="none" stroke="#000000" points="1046,-1545 992,-1545 992,-1509 1046,-1509 1046,-1545"/>
<text text-anchor="middle" x="1019" y="-1523.3" font-family="Times,serif" font-size="14.00" fill="#000000">電車</text>
</g>
<!-- Suica&#45;&gt;電車 -->
<g id="edge19" class="edge">
<title>Suica&#45;&gt;電車</title>
<path fill="none" stroke="#000000" stroke-width="2" d="M513.2811,-1418.2515C515.2644,-1419.7966 517.192,-1421.3869 519,-1423 528.1728,-1431.1836 526.8363,-1437.0855 537,-1444 558.3827,-1458.5471 567.1508,-1455.8337 592,-1463 682.3269,-1489.0495 705.0559,-1496.896 798,-1511 862.1232,-1520.7305 937.6411,-1524.5841 981.7321,-1526.0811"/>
<polygon fill="#000000" stroke="#000000" stroke-width="2" points="981.8676,-1529.5871 991.9734,-1526.4053 982.0892,-1522.5906 981.8676,-1529.5871"/>
</g>
<!-- 松屋 -->
<g id="node46" class="node">
<title>松屋</title>
<polygon fill="none" stroke="#000000" points="1046,-1477 992,-1477 992,-1441 1046,-1441 1046,-1477"/>
<text text-anchor="middle" x="1019" y="-1455.3" font-family="Times,serif" font-size="14.00" fill="#000000">松屋</text>
</g>
<!-- Suica&#45;&gt;松屋 -->
<g id="edge20" class="edge">
<title>Suica&#45;&gt;松屋</title>
<path fill="none" stroke="#000000" stroke-width="2" d="M513.2284,-1414.0002C534.3328,-1423.6034 564.2154,-1435.4083 592,-1440 734.3521,-1463.5254 906.79,-1462.2753 981.493,-1460.3136"/>
<polygon fill="#000000" stroke="#000000" stroke-width="2" points="981.8935,-1463.8037 991.7903,-1460.0218 981.6952,-1456.8065 981.8935,-1463.8037"/>
</g>
<!-- 吉野家 -->
<g id="node47" class="node">
<title>吉野家</title>
<polygon fill="none" stroke="#000000" points="1048.5,-1239 989.5,-1239 989.5,-1203 1048.5,-1203 1048.5,-1239"/>
<text text-anchor="middle" x="1019" y="-1217.3" font-family="Times,serif" font-size="14.00" fill="#000000">吉野家</text>
</g>
<!-- Suica&#45;&gt;吉野家 -->
<g id="edge21" class="edge">
<title>Suica&#45;&gt;吉野家</title>
<path fill="none" stroke="#000000" stroke-width="2" d="M512.2373,-1381.9693C541.0583,-1363.0069 583.536,-1335.4344 592,-1332 679.0691,-1296.67 708.0107,-1312.4561 799,-1289 862.9273,-1272.5202 935.924,-1249.0061 979.6887,-1234.3902"/>
<polygon fill="#000000" stroke="#000000" stroke-width="2" points="980.9979,-1237.6428 989.3657,-1231.1442 978.7717,-1231.0062 980.9979,-1237.6428"/>
</g>
<!-- 切符 -->
<g id="node27" class="node">
<title>切符</title>
<polygon fill="none" stroke="#000000" points="897.5,-1638 843.5,-1638 843.5,-1602 897.5,-1602 897.5,-1638"/>
<text text-anchor="middle" x="870.5" y="-1616.3" font-family="Times,serif" font-size="14.00" fill="#000000">切符</text>
</g>
<!-- 現金&#45;&gt;切符 -->
<g id="edge62" class="edge">
<title>現金&#45;&gt;切符</title>
<path fill="none" stroke="#000000" stroke-width="2" d="M512.1076,-1616.3326C579.7091,-1612.4065 755.8639,-1612.2307 833.1889,-1615.8051"/>
<polygon fill="#000000" stroke="#000000" stroke-width="2" points="833.2549,-1619.3131 843.4223,-1616.3343 833.6165,-1612.3224 833.2549,-1619.3131"/>
</g>
<!-- 回数カード -->
<g id="node28" class="node">
<title>回数カード</title>
<polygon fill="none" stroke="#000000" points="914.5,-1720 826.5,-1720 826.5,-1684 914.5,-1684 914.5,-1720"/>
<text text-anchor="middle" x="870.5" y="-1698.3" font-family="Times,serif" font-size="14.00" fill="#000000">回数カード</text>
</g>
<!-- 現金&#45;&gt;回数カード -->
<g id="edge65" class="edge">
<title>現金&#45;&gt;回数カード</title>
<path fill="none" stroke="#000000" stroke-width="2" d="M493.2449,-1638.1514C501.7161,-1654.488 516.5529,-1677.6212 537,-1689 624.95,-1737.9442 747.0946,-1726.4524 816.5347,-1714.0065"/>
<polygon fill="#000000" stroke="#000000" stroke-width="2" points="817.1978,-1717.4433 826.3872,-1712.1704 815.9153,-1710.5618 817.1978,-1717.4433"/>
</g>
<!-- 飲食店 -->
<g id="node43" class="node">
<title>飲食店</title>
<polygon fill="none" stroke="#000000" points="1048.5,-1599 989.5,-1599 989.5,-1563 1048.5,-1563 1048.5,-1599"/>
<text text-anchor="middle" x="1019" y="-1577.3" font-family="Times,serif" font-size="14.00" fill="#000000">飲食店</text>
</g>
<!-- 現金&#45;&gt;飲食店 -->
<g id="edge61" class="edge">
<title>現金&#45;&gt;飲食店</title>
<path fill="none" stroke="#000000" stroke-width="2" d="M512.0969,-1617.5949C568.7016,-1612.615 703.6459,-1600.9753 817,-1593 873.2559,-1589.042 938.3869,-1585.3294 979.1428,-1583.1107"/>
<polygon fill="#000000" stroke="#000000" stroke-width="2" points="979.4137,-1586.6012 989.21,-1582.5661 979.0355,-1579.6115 979.4137,-1586.6012"/>
</g>
<!-- nanacoポイント -->
<g id="node23" class="node">
<title>nanacoポイント</title>
<polygon fill="none" stroke="#000000" points="748.5,-217 623.5,-217 623.5,-181 748.5,-181 748.5,-217"/>
<text text-anchor="middle" x="686" y="-195.3" font-family="Times,serif" font-size="14.00" fill="#000000">nanacoポイント</text>
</g>
<!-- nanaco&#45;&gt;nanacoポイント -->
<g id="edge52" class="edge">
<title>nanaco&#45;&gt;nanacoポイント</title>
<path fill="none" stroke="#000000" d="M493.7737,-264.8593C502.4318,-249.1014 517.2346,-227.113 537,-216 559.8401,-203.1583 587.7499,-197.7861 613.2134,-195.9952"/>
<polygon fill="#000000" stroke="#000000" points="613.4074,-199.4899 623.2068,-195.4622 613.0346,-192.4998 613.4074,-199.4899"/>
<text text-anchor="middle" x="555.5" y="-219.8" font-family="Times,serif" font-size="14.00" fill="#000000">1%</text>
</g>
<!-- iTunesカード -->
<g id="node29" class="node">
<title>iTunesカード</title>
<polygon fill="none" stroke="#000000" points="924,-301 817,-301 817,-265 924,-265 924,-301"/>
<text text-anchor="middle" x="870.5" y="-279.3" font-family="Times,serif" font-size="14.00" fill="#000000">iTunesカード</text>
</g>
<!-- nanaco&#45;&gt;iTunesカード -->
<g id="edge54" class="edge">
<title>nanaco&#45;&gt;iTunesカード</title>
<path fill="none" stroke="#000000" stroke-width="2" d="M519.2106,-283C583.7105,-283 724.2047,-283 806.6402,-283"/>
<polygon fill="#000000" stroke="#000000" stroke-width="2" points="806.8884,-286.5001 816.8884,-283 806.8883,-279.5001 806.8884,-286.5001"/>
</g>
<!-- セブンイレブン -->
<g id="node31" class="node">
<title>セブンイレブン</title>
<polygon fill="none" stroke="#000000" points="1076,-239 962,-239 962,-203 1076,-203 1076,-239"/>
<text text-anchor="middle" x="1019" y="-217.3" font-family="Times,serif" font-size="14.00" fill="#000000">セブンイレブン</text>
</g>
<!-- nanaco&#45;&gt;セブンイレブン -->
<g id="edge51" class="edge">
<title>nanaco&#45;&gt;セブンイレブン</title>
<path fill="none" stroke="#000000" stroke-width="2" d="M519.2164,-279.0273C606.1386,-268.9352 836.6898,-242.1671 951.7369,-228.8096"/>
<polygon fill="#000000" stroke="#000000" stroke-width="2" points="952.3013,-232.2676 961.8309,-227.6376 951.4939,-225.3144 952.3013,-232.2676"/>
</g>
<!-- Edy&#45;&gt;Ponta -->
<g id="edge43" class="edge">
<title>Edy&#45;&gt;Ponta</title>
<path fill="none" stroke="#000000" d="M488.3409,-683.1458C497.0785,-725.0413 524.7575,-828.6873 592,-878 608.4127,-890.0364 629.5161,-898.1803 647.5676,-903.4721"/>
<polygon fill="#000000" stroke="#000000" points="646.6632,-906.8532 657.233,-906.1251 648.5162,-900.1029 646.6632,-906.8532"/>
<text text-anchor="middle" x="555.5" y="-864.8" font-family="Times,serif" font-size="14.00" fill="#000000">0.5%</text>
</g>
<!-- ヤマト運輸 -->
<g id="node37" class="node">
<title>ヤマト運輸</title>
<polygon fill="none" stroke="#000000" points="1063,-1102 975,-1102 975,-1066 1063,-1066 1063,-1102"/>
<text text-anchor="middle" x="1019" y="-1080.3" font-family="Times,serif" font-size="14.00" fill="#000000">ヤマト運輸</text>
</g>
<!-- Edy&#45;&gt;ヤマト運輸 -->
<g id="edge36" class="edge">
<title>Edy&#45;&gt;ヤマト運輸</title>
<path fill="none" stroke="#000000" stroke-width="2" d="M490.8428,-683.0014C498.3234,-706.6387 511.2429,-749.5361 519,-787 537.932,-878.4341 512.5461,-934.9521 592,-984 711.1005,-1057.5222 879.3374,-1077.0186 964.7258,-1082.168"/>
<polygon fill="#000000" stroke="#000000" stroke-width="2" points="964.7885,-1085.6769 974.9682,-1082.7404 965.1791,-1078.6878 964.7885,-1085.6769"/>
</g>
<!-- ウェルシア -->
<g id="node39" class="node">
<title>ウェルシア</title>
<polygon fill="none" stroke="#000000" points="1062.5,-1037 975.5,-1037 975.5,-1001 1062.5,-1001 1062.5,-1037"/>
<text text-anchor="middle" x="1019" y="-1015.3" font-family="Times,serif" font-size="14.00" fill="#000000">ウェルシア</text>
</g>
<!-- Edy&#45;&gt;ウェルシア -->
<g id="edge41" class="edge">
<title>Edy&#45;&gt;ウェルシア</title>
<path fill="none" stroke="#000000" stroke-width="2" d="M490.5287,-683.0709C497.6697,-706.7834 510.2225,-749.7619 519,-787 528.6589,-827.9774 517.905,-842.479 537,-880 553.2595,-911.9494 560.5886,-921.7239 592,-939 713.4874,-1005.8174 880.6831,-1017.9251 965.2949,-1019.4416"/>
<polygon fill="#000000" stroke="#000000" stroke-width="2" points="965.3952,-1022.9432 975.4418,-1019.5793 965.4902,-1015.9438 965.3952,-1022.9432"/>
</g>
<!-- ヨドバシカメラ -->
<g id="node41" class="node">
<title>ヨドバシカメラ</title>
<polygon fill="none" stroke="#000000" points="1077,-810 961,-810 961,-774 1077,-774 1077,-810"/>
<text text-anchor="middle" x="1019" y="-788.3" font-family="Times,serif" font-size="14.00" fill="#000000">ヨドバシカメラ</text>
</g>
<!-- Edy&#45;&gt;ヨドバシカメラ -->
<g id="edge38" class="edge">
<title>Edy&#45;&gt;ヨドバシカメラ</title>
<path fill="none" stroke="#000000" stroke-width="2" d="M499.8225,-683.1348C518.6934,-704.7559 553.5019,-739.9751 592,-756 710.7546,-805.4318 863.8802,-804.5128 950.7753,-798.7079"/>
<polygon fill="#000000" stroke="#000000" stroke-width="2" points="951.0518,-802.1972 960.7791,-797.9983 950.5564,-795.2148 951.0518,-802.1972"/>
</g>
<!-- 餃子の王将 -->
<g id="node42" class="node">
<title>餃子の王将</title>
<polygon fill="none" stroke="#000000" points="1063,-591 975,-591 975,-555 1063,-555 1063,-591"/>
<text text-anchor="middle" x="1019" y="-569.3" font-family="Times,serif" font-size="14.00" fill="#000000">餃子の王将</text>
</g>
<!-- Edy&#45;&gt;餃子の王将 -->
<g id="edge60" class="edge">
<title>Edy&#45;&gt;餃子の王将</title>
<path fill="none" stroke="#000000" stroke-width="2" d="M512.1474,-658.072C533.7048,-652.7125 564.6629,-645.3307 592,-640 725.3157,-614.0034 883.58,-591.2734 964.8627,-580.1873"/>
<polygon fill="#000000" stroke="#000000" stroke-width="2" points="965.4236,-583.6434 974.8616,-578.8294 964.4815,-576.707 965.4236,-583.6434"/>
</g>
<!-- FRESCO -->
<g id="node44" class="node">
<title>FRESCO</title>
<polygon fill="none" stroke="#000000" points="1059,-699 979,-699 979,-663 1059,-663 1059,-699"/>
<text text-anchor="middle" x="1019" y="-677.3" font-family="Times,serif" font-size="14.00" fill="#000000">FRESCO</text>
</g>
<!-- Edy&#45;&gt;FRESCO -->
<g id="edge57" class="edge">
<title>Edy&#45;&gt;FRESCO</title>
<path fill="none" stroke="#000000" stroke-width="2" d="M512.2153,-665.8154C597.147,-668.3602 858.2155,-676.1825 968.7388,-679.494"/>
<polygon fill="#000000" stroke="#000000" stroke-width="2" points="968.8533,-682.999 978.9537,-679.8001 969.063,-676.0021 968.8533,-682.999"/>
</g>
<!-- 業務スーパー -->
<g id="node45" class="node">
<title>業務スーパー</title>
<polygon fill="none" stroke="#000000" points="1069.5,-645 968.5,-645 968.5,-609 1069.5,-609 1069.5,-645"/>
<text text-anchor="middle" x="1019" y="-623.3" font-family="Times,serif" font-size="14.00" fill="#000000">業務スーパー</text>
</g>
<!-- Edy&#45;&gt;業務スーパー -->
<g id="edge56" class="edge">
<title>Edy&#45;&gt;業務スーパー</title>
<path fill="none" stroke="#000000" stroke-width="2" d="M512.2153,-663.0633C594.533,-657.2055 842.3125,-639.5733 958.1158,-631.3326"/>
<polygon fill="#000000" stroke="#000000" stroke-width="2" points="958.5058,-634.8138 968.2322,-630.6127 958.0089,-627.8314 958.5058,-634.8138"/>
</g>
<!-- Ponta&#45;&gt;じゃらん -->
<g id="edge46" class="edge">
<title>Ponta&#45;&gt;じゃらん</title>
<path fill="none" stroke="#000000" d="M714.7154,-914.821C759.5847,-919.4355 848.9589,-929.4576 924,-943 939.7167,-945.8364 956.7505,-949.5697 971.9964,-953.1539"/>
<polygon fill="#000000" stroke="#000000" points="971.1858,-956.5586 981.7252,-955.4767 972.8114,-949.75 971.1858,-956.5586"/>
</g>
<!-- Tポイント -->
<g id="node18" class="node">
<title>Tポイント</title>
<polygon fill="none" stroke="#000000" points="727.5,-1199 644.5,-1199 644.5,-1163 727.5,-1163 727.5,-1199"/>
<text text-anchor="middle" x="686" y="-1177.3" font-family="Times,serif" font-size="14.00" fill="#000000">Tポイント</text>
</g>
<!-- 楽天スーパーポイント -->
<g id="node19" class="node">
<title>楽天スーパーポイント</title>
<polygon fill="none" stroke="#000000" points="765,-561 607,-561 607,-525 765,-525 765,-561"/>
<text text-anchor="middle" x="686" y="-539.3" font-family="Times,serif" font-size="14.00" fill="#000000">楽天スーパーポイント</text>
</g>
<!-- 楽天スーパーポイント&#45;&gt;Edy -->
<g id="edge44" class="edge">
<title>楽天スーパーポイント&#45;&gt;Edy</title>
<path fill="none" stroke="#000000" d="M606.6708,-547.6415C582.5377,-552.1612 557.1075,-560.3635 537,-575 515.9362,-590.3326 502.092,-616.9962 494.0236,-637.3335"/>
<polygon fill="#000000" stroke="#000000" points="490.7336,-636.1391 490.5204,-646.7318 497.2928,-638.5841 490.7336,-636.1391"/>
</g>
<!-- JREポイント&#45;&gt;Suica -->
<g id="edge25" class="edge">
<title>JREポイント&#45;&gt;Suica</title>
<path fill="none" stroke="#000000" d="M635.4074,-1404.771C616.2303,-1402.0349 594.1618,-1399.3441 574,-1398 557.592,-1396.9061 553.4414,-1397.6839 537,-1398 532.509,-1398.0863 527.8011,-1398.2146 523.1298,-1398.3652"/>
<polygon fill="#000000" stroke="#000000" points="522.9301,-1394.87 513.0608,-1398.723 523.1788,-1401.8656 522.9301,-1394.87"/>
</g>
<!-- ビックポイント&#45;&gt;ビックカメラ -->
<g id="edge17" class="edge">
<title>ビックポイント&#45;&gt;ビックカメラ</title>
<path fill="none" stroke="#000000" d="M744.2484,-1358.1304C792.7664,-1358.4282 863.4589,-1361.2418 924,-1373 937.0695,-1375.5383 950.8113,-1379.4172 963.6565,-1383.6087"/>
<polygon fill="#000000" stroke="#000000" points="962.6843,-1386.9745 973.2785,-1386.8579 964.9239,-1380.3424 962.6843,-1386.9745"/>
</g>
<!-- Amazonポイント -->
<g id="node22" class="node">
<title>Amazonポイント</title>
<polygon fill="none" stroke="#000000" points="751.5,-469 620.5,-469 620.5,-433 751.5,-433 751.5,-469"/>
<text text-anchor="middle" x="686" y="-447.3" font-family="Times,serif" font-size="14.00" fill="#000000">Amazonポイント</text>
</g>
<!-- Amazonポイント&#45;&gt;Amazon -->
<g id="edge49" class="edge">
<title>Amazonポイント&#45;&gt;Amazon</title>
<path fill="none" stroke="#000000" d="M751.7901,-442.7303C816.563,-438.162 913.908,-434.2731 971.4901,-434.1047"/>
<polygon fill="#000000" stroke="#000000" points="971.7581,-437.6049 981.7624,-434.1172 971.7667,-430.6049 971.7581,-437.6049"/>
</g>
<!-- nanacoポイント&#45;&gt;nanaco -->
<g id="edge53" class="edge">
<title>nanacoポイント&#45;&gt;nanaco</title>
<path fill="none" stroke="#000000" d="M623.4388,-185.1473C595.3695,-182.1901 562.8375,-183.5175 537,-198 515.3122,-210.1565 501.5866,-235.4532 493.7186,-255.3049"/>
<polygon fill="#000000" stroke="#000000" points="490.3894,-254.2173 490.2222,-264.8108 496.9591,-256.6338 490.3894,-254.2173"/>
</g>
<!-- FRESCOポイント -->
<g id="node24" class="node">
<title>FRESCOポイント</title>
<polygon fill="none" stroke="#000000" points="754.5,-747 617.5,-747 617.5,-711 754.5,-711 754.5,-747"/>
<text text-anchor="middle" x="686" y="-725.3" font-family="Times,serif" font-size="14.00" fill="#000000">FRESCOポイント</text>
</g>
<!-- FRESCOポイント&#45;&gt;FRESCO -->
<g id="edge59" class="edge">
<title>FRESCOポイント&#45;&gt;FRESCO</title>
<path fill="none" stroke="#000000" d="M754.6881,-737.3424C802.7656,-741.1689 868.1302,-742.313 924,-729 944.4752,-724.121 965.5375,-714.0809 982.6108,-704.4384"/>
<polygon fill="#000000" stroke="#000000" points="984.785,-707.222 991.6566,-699.1577 981.2559,-701.1767 984.785,-707.222"/>
</g>
<!-- ヨドバシゴールドポイント -->
<g id="node25" class="node">
<title>ヨドバシゴールドポイント</title>
<polygon fill="none" stroke="#000000" points="780,-869 592,-869 592,-833 780,-833 780,-869"/>
<text text-anchor="middle" x="686" y="-847.3" font-family="Times,serif" font-size="14.00" fill="#000000">ヨドバシゴールドポイント</text>
</g>
<!-- ヨドバシゴールドポイント&#45;&gt;ヨドバシカメラ -->
<g id="edge40" class="edge">
<title>ヨドバシゴールドポイント&#45;&gt;ヨドバシカメラ</title>
<path fill="none" stroke="#000000" d="M780.0251,-834.7414C828.6894,-826.2745 889.0544,-815.6913 943,-806 945.6328,-805.527 948.3164,-805.0428 951.027,-804.552"/>
<polygon fill="#000000" stroke="#000000" points="951.7047,-807.9862 960.9174,-802.7539 950.4526,-801.0991 951.7047,-807.9862"/>
</g>
<!-- はぴeポイント -->
<g id="node26" class="node">
<title>はぴeポイント</title>
<polygon fill="none" stroke="#000000" points="741,-108 631,-108 631,-72 741,-72 741,-108"/>
<text text-anchor="middle" x="686" y="-86.3" font-family="Times,serif" font-size="14.00" fill="#000000">はぴeポイント</text>
</g>
<!-- はぴeポイント&#45;&gt;関西電力 -->
<g id="edge12" class="edge">
<title>はぴeポイント&#45;&gt;関西電力</title>
<path fill="none" stroke="#000000" d="M741.362,-100.4739C805.6984,-112.6456 910.7787,-132.5257 971.536,-144.0203"/>
<polygon fill="#000000" stroke="#000000" points="971.1428,-147.508 981.6192,-145.928 972.4441,-140.63 971.1428,-147.508"/>
</g>
<!-- 切符&#45;&gt;現金 -->
<g id="edge64" class="edge">
<title>切符&#45;&gt;現金</title>
<path fill="none" stroke="#000000" d="M843.4223,-1623.6657C775.8529,-1627.5928 599.6996,-1627.7698 522.3453,-1624.1965"/>
<polygon fill="#000000" stroke="#000000" points="522.275,-1620.6883 512.1076,-1623.6674 521.9136,-1627.679 522.275,-1620.6883"/>
</g>
<!-- 切符&#45;&gt;電車 -->
<g id="edge63" class="edge">
<title>切符&#45;&gt;電車</title>
<path fill="none" stroke="#000000" stroke-width="2" d="M892.7227,-1601.9043C910.5486,-1587.8623 936.5453,-1568.4237 961,-1554 967.8613,-1549.9531 975.4303,-1546.0546 982.772,-1542.539"/>
<polygon fill="#000000" stroke="#000000" stroke-width="2" points="984.2848,-1545.6955 991.8795,-1538.3083 981.3357,-1539.347 984.2848,-1545.6955"/>
</g>
<!-- 回数カード&#45;&gt;現金 -->
<g id="edge67" class="edge">
<title>回数カード&#45;&gt;現金</title>
<path fill="none" stroke="#000000" d="M826.2726,-1697.6143C761.6457,-1690.439 638.1008,-1673.8061 537,-1643 531.9363,-1641.4571 526.7123,-1639.5513 521.6174,-1637.5025"/>
<polygon fill="#000000" stroke="#000000" points="522.6274,-1634.129 512.0547,-1633.4438 519.8925,-1640.5726 522.6274,-1634.129"/>
<text text-anchor="middle" x="686" y="-1694.8" font-family="Times,serif" font-size="14.00" fill="#000000">10%</text>
</g>
<!-- 大阪地下鉄 -->
<g id="node33" class="node">
<title>大阪地下鉄</title>
<polygon fill="none" stroke="#000000" points="1063,-1720 975,-1720 975,-1684 1063,-1684 1063,-1720"/>
<text text-anchor="middle" x="1019" y="-1698.3" font-family="Times,serif" font-size="14.00" fill="#000000">大阪地下鉄</text>
</g>
<!-- 回数カード&#45;&gt;大阪地下鉄 -->
<g id="edge66" class="edge">
<title>回数カード&#45;&gt;大阪地下鉄</title>
<path fill="none" stroke="#000000" stroke-width="2" d="M914.6528,-1702C930.3707,-1702 948.2545,-1702 964.7223,-1702"/>
<polygon fill="#000000" stroke="#000000" stroke-width="2" points="964.7609,-1705.5001 974.7609,-1702 964.7608,-1698.5001 964.7609,-1705.5001"/>
</g>
<!-- iTunes -->
<g id="node49" class="node">
<title>iTunes</title>
<polygon fill="none" stroke="#000000" points="1051.5,-293 986.5,-293 986.5,-257 1051.5,-257 1051.5,-293"/>
<text text-anchor="middle" x="1019" y="-271.3" font-family="Times,serif" font-size="14.00" fill="#000000">iTunes</text>
</g>
<!-- iTunesカード&#45;&gt;iTunes -->
<g id="edge55" class="edge">
<title>iTunesカード&#45;&gt;iTunes</title>
<path fill="none" stroke="#000000" stroke-width="2" d="M924.1119,-280.1118C941.1494,-279.194 959.7618,-278.1913 975.954,-277.319"/>
<polygon fill="#000000" stroke="#000000" stroke-width="2" points="976.407,-280.7997 986.2042,-276.7668 976.0304,-273.8099 976.407,-280.7997"/>
</g>
<!-- 関西電力&#45;&gt;はぴeポイント -->
<g id="edge11" class="edge">
<title>関西電力&#45;&gt;はぴeポイント</title>
<path fill="none" stroke="#000000" d="M1000.9173,-134.9878C983.0913,-118.6086 954.2034,-95.5793 924,-86 867.7332,-68.1544 800.1604,-71.4687 751.4158,-77.8856"/>
<polygon fill="#000000" stroke="#000000" points="750.7313,-74.4471 741.3109,-79.2955 751.6986,-81.3799 750.7313,-74.4471"/>
<text text-anchor="middle" x="870.5" y="-89.8" font-family="Times,serif" font-size="14.00" fill="#000000">0.8%, 0.5%</text>
</g>
<!-- ヤマト運輸&#45;&gt;Tポイント -->
<g id="edge37" class="edge">
<title>ヤマト運輸&#45;&gt;Tポイント</title>
<path fill="none" stroke="#000000" d="M1000.526,-1102.1983C986.0002,-1115.5589 964.6609,-1133.1923 943,-1144 877.4438,-1176.7092 791.5415,-1182.7996 737.5498,-1182.8862"/>
<polygon fill="#000000" stroke="#000000" points="737.5406,-1179.3862 727.5223,-1182.8337 737.5038,-1186.3861 737.5406,-1179.3862"/>
<text text-anchor="middle" x="870.5" y="-1181.8" font-family="Times,serif" font-size="14.00" fill="#000000">0.5%</text>
</g>
<!-- ウェルシア&#45;&gt;Tポイント -->
<g id="edge42" class="edge">
<title>ウェルシア&#45;&gt;Tポイント</title>
<path fill="none" stroke="#000000" d="M986.2865,-1037.1546C972.9476,-1044.4242 957.321,-1052.7726 943,-1060 871.7107,-1095.9777 787.7866,-1134.851 735.7313,-1158.5635"/>
<polygon fill="#000000" stroke="#000000" points="734.0464,-1155.4847 726.3925,-1162.8106 736.9443,-1161.8567 734.0464,-1155.4847"/>
<text text-anchor="middle" x="870.5" y="-1123.8" font-family="Times,serif" font-size="14.00" fill="#000000">1%</text>
</g>
<!-- ビックカメラ&#45;&gt;ビックポイント -->
<g id="edge15" class="edge">
<title>ビックカメラ&#45;&gt;ビックポイント</title>
<path fill="none" stroke="#000000" stroke-dasharray="5,2" d="M968.4641,-1398.0191C911.1981,-1390.1084 817.5747,-1377.1755 753.9481,-1368.3862"/>
<polygon fill="#000000" stroke="#000000" points="754.3891,-1364.914 744.0042,-1367.0126 753.4311,-1371.8481 754.3891,-1364.914"/>
<text text-anchor="middle" x="870.5" y="-1394.8" font-family="Times,serif" font-size="14.00" fill="#000000">9.5%</text>
</g>
<!-- ヨドバシカメラ&#45;&gt;ヨドバシゴールドポイント -->
<g id="edge39" class="edge">
<title>ヨドバシカメラ&#45;&gt;ヨドバシゴールドポイント</title>
<path fill="none" stroke="#000000" d="M999.4422,-810.1009C985.0239,-822.1902 964.2904,-837.0946 943,-844 894.3447,-859.7812 837.75,-862.8362 790.0741,-861.3964"/>
<polygon fill="#000000" stroke="#000000" points="790.1651,-857.8974 780.0421,-861.0239 789.9053,-864.8926 790.1651,-857.8974"/>
<text text-anchor="middle" x="870.5" y="-864.8" font-family="Times,serif" font-size="14.00" fill="#000000">10%</text>
</g>
<!-- FRESCO&#45;&gt;FRESCOポイント -->
<g id="edge58" class="edge">
<title>FRESCO&#45;&gt;FRESCOポイント</title>
<path fill="none" stroke="#000000" d="M978.7282,-686.8049C925.8713,-694.424 831.9362,-707.9642 764.7245,-717.6523"/>
<polygon fill="#000000" stroke="#000000" points="763.9924,-714.2216 754.594,-719.1126 764.9911,-721.15 763.9924,-714.2216"/>
<text text-anchor="middle" x="870.5" y="-713.8" font-family="Times,serif" font-size="14.00" fill="#000000">0.5%</text>
</g>
<!-- 吉野家&#45;&gt;Tポイント -->
<g id="edge22" class="edge">
<title>吉野家&#45;&gt;Tポイント</title>
<path fill="none" stroke="#000000" d="M989.1802,-1218.2803C949.7309,-1214.5952 878.055,-1207.5981 817,-1200 790.7599,-1196.7345 761.6435,-1192.5661 737.5373,-1188.9662"/>
<polygon fill="#000000" stroke="#000000" points="737.9451,-1185.4882 727.5358,-1187.4624 736.9042,-1192.4104 737.9451,-1185.4882"/>
<text text-anchor="middle" x="870.5" y="-1214.8" font-family="Times,serif" font-size="14.00" fill="#000000">0.5%</text>
</g>
<!-- Amazon&#45;&gt;Amazonポイント -->
<g id="edge48" class="edge">
<title>Amazon&#45;&gt;Amazonポイント</title>
<path fill="none" stroke="#000000" d="M981.7624,-443.0139C928.8672,-447.7712 830.7837,-452.3368 762.1216,-453.574"/>
<polygon fill="#000000" stroke="#000000" points="761.7333,-450.0796 751.7901,-453.7378 761.8443,-457.0787 761.7333,-450.0796"/>
</g>
<!-- じゃらん&#45;&gt;Ponta -->
<g id="edge47" class="edge">
<title>じゃらん&#45;&gt;Ponta</title>
<path fill="none" stroke="#000000" d="M981.9482,-962.3495C941.2888,-959.1195 874.1897,-952.842 817,-943 785.5848,-937.5936 750.4586,-929.1483 724.4935,-922.437"/>
<polygon fill="#000000" stroke="#000000" points="725.228,-919.0115 714.6678,-919.8672 723.4567,-925.7837 725.228,-919.0115"/>
<text text-anchor="middle" x="870.5" y="-960.8" font-family="Times,serif" font-size="14.00" fill="#000000">2%</text>
</g>
</g>
</svg>
