<?xml version="1.0" encoding="UTF-8" standalone="no"?>
<!DOCTYPE svg PUBLIC "-//W3C//DTD SVG 1.1//EN"
 "http://www.w3.org/Graphics/SVG/1.1/DTD/svg11.dtd">
<!-- Generated by graphviz version 2.40.1 (0)
 -->
<!-- Title: MoneyFlow Pages: 1 -->
<svg width="1077pt" height="1996pt"
 viewBox="0.00 0.00 1077.00 1996.00" xmlns="http://www.w3.org/2000/svg" xmlns:xlink="http://www.w3.org/1999/xlink">
<g id="graph0" class="graph" transform="scale(1 1) rotate(0) translate(4 1992)">
<title>MoneyFlow</title>
<polygon fill="#ffffff" stroke="transparent" points="-4,4 -4,-1992 1073,-1992 1073,4 -4,4"/>
<!-- 収入 -->
<g id="node1" class="node">
<title>収入</title>
<text text-anchor="middle" x="29.5" y="-14.3" font-family="Times,serif" font-size="14.00" fill="#000000">収入</text>
</g>
<!-- 銀行口座 -->
<g id="node2" class="node">
<title>銀行口座</title>
<text text-anchor="middle" x="147" y="-14.3" font-family="Times,serif" font-size="14.00" fill="#000000">銀行口座</text>
</g>
<!-- 収入&#45;&gt;銀行口座 -->
<g id="edge1" class="edge">
<title>収入&#45;&gt;銀行口座</title>
<path fill="none" stroke="#000000" d="M56.7522,-18C72.4805,-18 92.4849,-18 109.6608,-18"/>
</g>
<!-- クレジットカード -->
<g id="node3" class="node">
<title>クレジットカード</title>
<text text-anchor="middle" x="327" y="-14.3" font-family="Times,serif" font-size="14.00" fill="#000000">クレジットカード</text>
</g>
<!-- 銀行口座&#45;&gt;クレジットカード -->
<g id="edge2" class="edge">
<title>銀行口座&#45;&gt;クレジットカード</title>
<path fill="none" stroke="#000000" d="M184.2961,-18C206.6417,-18 235.6798,-18 261.7236,-18"/>
</g>
<!-- マネー -->
<g id="node4" class="node">
<title>マネー</title>
<text text-anchor="middle" x="493" y="-14.3" font-family="Times,serif" font-size="14.00" fill="#000000">マネー</text>
</g>
<!-- クレジットカード&#45;&gt;マネー -->
<g id="edge3" class="edge">
<title>クレジットカード&#45;&gt;マネー</title>
<path fill="none" stroke="#000000" d="M392.1312,-18C416.6557,-18 443.3653,-18 463.1353,-18"/>
</g>
<!-- ポイント -->
<g id="node5" class="node">
<title>ポイント</title>
<text text-anchor="middle" x="697" y="-14.3" font-family="Times,serif" font-size="14.00" fill="#000000">ポイント</text>
</g>
<!-- マネー&#45;&gt;ポイント -->
<g id="edge4" class="edge">
<title>マネー&#45;&gt;ポイント</title>
<path fill="none" stroke="#000000" d="M522.6634,-18C558.9092,-18 620.2629,-18 659.6797,-18"/>
</g>
<!-- 金券 -->
<g id="node6" class="node">
<title>金券</title>
<text text-anchor="middle" x="872" y="-14.3" font-family="Times,serif" font-size="14.00" fill="#000000">金券</text>
</g>
<!-- ポイント&#45;&gt;金券 -->
<g id="edge5" class="edge">
<title>ポイント&#45;&gt;金券</title>
<path fill="none" stroke="#000000" d="M734.113,-18C767.3227,-18 815.2221,-18 844.9381,-18"/>
</g>
<!-- 支出 -->
<g id="node7" class="node">
<title>支出</title>
<text text-anchor="middle" x="1011" y="-14.3" font-family="Times,serif" font-size="14.00" fill="#000000">支出</text>
</g>
<!-- 金券&#45;&gt;支出 -->
<g id="edge6" class="edge">
<title>金券&#45;&gt;支出</title>
<path fill="none" stroke="#000000" d="M899.1306,-18C923.6227,-18 959.4669,-18 983.9379,-18"/>
</g>
<!-- 給与 -->
<g id="node8" class="node">
<title>給与</title>
<polygon fill="none" stroke="#000000" points="56.5,-1878 2.5,-1878 2.5,-1842 56.5,-1842 56.5,-1878"/>
<text text-anchor="middle" x="29.5" y="-1856.3" font-family="Times,serif" font-size="14.00" fill="#000000">給与</text>
</g>
<!-- 三井住友銀行 -->
<g id="node11" class="node">
<title>三井住友銀行</title>
<polygon fill="none" stroke="#000000" points="198,-1878 96,-1878 96,-1842 198,-1842 198,-1878"/>
<text text-anchor="middle" x="147" y="-1856.3" font-family="Times,serif" font-size="14.00" fill="#000000">三井住友銀行</text>
</g>
<!-- 給与&#45;&gt;三井住友銀行 -->
<g id="edge7" class="edge">
<title>給与&#45;&gt;三井住友銀行</title>
<path fill="none" stroke="#000000" stroke-width="2" d="M56.7522,-1860C65.4977,-1860 75.5652,-1860 85.7334,-1860"/>
<polygon fill="#000000" stroke="#000000" stroke-width="2" points="85.89,-1863.5001 95.89,-1860 85.89,-1856.5001 85.89,-1863.5001"/>
</g>
<!-- 譲渡 -->
<g id="node9" class="node">
<title>譲渡</title>
<polygon fill="none" stroke="#000000" points="56.5,-1213 2.5,-1213 2.5,-1177 56.5,-1177 56.5,-1213"/>
<text text-anchor="middle" x="29.5" y="-1191.3" font-family="Times,serif" font-size="14.00" fill="#000000">譲渡</text>
</g>
<!-- メルペイ -->
<g id="node21" class="node">
<title>メルペイ</title>
<polygon fill="none" stroke="#000000" points="530,-1213 456,-1213 456,-1177 530,-1177 530,-1213"/>
<text text-anchor="middle" x="493" y="-1191.3" font-family="Times,serif" font-size="14.00" fill="#000000">メルペイ</text>
</g>
<!-- 譲渡&#45;&gt;メルペイ -->
<g id="edge74" class="edge">
<title>譲渡&#45;&gt;メルペイ</title>
<path fill="none" stroke="#000000" stroke-width="2" d="M56.7636,-1195C133.0593,-1195 349.4249,-1195 445.7447,-1195"/>
<polygon fill="#000000" stroke="#000000" stroke-width="2" points="445.7829,-1198.5001 455.7829,-1195 445.7828,-1191.5001 445.7829,-1198.5001"/>
</g>
<!-- 雑収入 -->
<g id="node10" class="node">
<title>雑収入</title>
<polygon fill="none" stroke="#000000" points="59,-727 0,-727 0,-691 59,-691 59,-727"/>
<text text-anchor="middle" x="29.5" y="-705.3" font-family="Times,serif" font-size="14.00" fill="#000000">雑収入</text>
</g>
<!-- 楽天ポイント -->
<g id="node23" class="node">
<title>楽天ポイント</title>
<polygon fill="none" stroke="#000000" points="748,-644 646,-644 646,-608 748,-608 748,-644"/>
<text text-anchor="middle" x="697" y="-622.3" font-family="Times,serif" font-size="14.00" fill="#000000">楽天ポイント</text>
</g>
<!-- 雑収入&#45;&gt;楽天ポイント -->
<g id="edge78" class="edge">
<title>雑収入&#45;&gt;楽天ポイント</title>
<path fill="none" stroke="#000000" stroke-width="2" d="M59.0429,-705.3265C160.5787,-692.7011 496.6232,-650.9158 635.8037,-633.6094"/>
<polygon fill="#000000" stroke="#000000" stroke-width="2" points="636.3844,-637.0643 645.8761,-632.357 635.5206,-630.1178 636.3844,-637.0643"/>
</g>
<!-- 住信SBI銀行 -->
<g id="node12" class="node">
<title>住信SBI銀行</title>
<polygon fill="none" stroke="#000000" points="197,-1765 97,-1765 97,-1729 197,-1729 197,-1765"/>
<text text-anchor="middle" x="147" y="-1743.3" font-family="Times,serif" font-size="14.00" fill="#000000">住信SBI銀行</text>
</g>
<!-- 三井住友銀行&#45;&gt;住信SBI銀行 -->
<g id="edge9" class="edge">
<title>三井住友銀行&#45;&gt;住信SBI銀行</title>
<path fill="none" stroke="#000000" stroke-width="2" d="M147,-1841.8351C147,-1819.6532 147,-1797.4713 147,-1775.2893"/>
<polygon fill="#000000" stroke="#000000" stroke-width="2" points="150.5001,-1775.0976 147,-1765.0977 143.5001,-1775.0977 150.5001,-1775.0976"/>
</g>
<!-- 現金 -->
<g id="node17" class="node">
<title>現金</title>
<polygon fill="none" stroke="#000000" points="520,-1919 466,-1919 466,-1883 520,-1883 520,-1919"/>
<text text-anchor="middle" x="493" y="-1897.3" font-family="Times,serif" font-size="14.00" fill="#000000">現金</text>
</g>
<!-- 三井住友銀行&#45;&gt;現金 -->
<g id="edge8" class="edge">
<title>三井住友銀行&#45;&gt;現金</title>
<path fill="none" stroke="#000000" stroke-width="2" d="M198.1163,-1871.8302C204.1251,-1873.0076 210.1852,-1874.0984 216,-1875 301.2452,-1888.2172 402.364,-1895.6469 455.7206,-1898.9315"/>
<polygon fill="#000000" stroke="#000000" stroke-width="2" points="455.5442,-1902.4271 465.7362,-1899.5336 455.9643,-1895.4397 455.5442,-1902.4271"/>
</g>
<!-- PayPay -->
<g id="node20" class="node">
<title>PayPay</title>
<polygon fill="none" stroke="#000000" points="527,-1988 459,-1988 459,-1952 527,-1952 527,-1988"/>
<text text-anchor="middle" x="493" y="-1966.3" font-family="Times,serif" font-size="14.00" fill="#000000">PayPay</text>
</g>
<!-- 三井住友銀行&#45;&gt;PayPay -->
<g id="edge10" class="edge">
<title>三井住友銀行&#45;&gt;PayPay</title>
<path fill="none" stroke="#000000" stroke-width="2" d="M181.046,-1878.088C197.1079,-1886.1407 216.7224,-1895.297 235,-1902 308.3878,-1928.9137 397.1297,-1949.8927 449.0952,-1961.0666"/>
<polygon fill="#000000" stroke="#000000" stroke-width="2" points="448.4731,-1964.5125 458.9825,-1963.1695 449.9294,-1957.6656 448.4731,-1964.5125"/>
</g>
<!-- ビックカメラSuicaカード -->
<g id="node13" class="node">
<title>ビックカメラSuicaカード</title>
<polygon fill="none" stroke="#000000" points="419,-1477 235,-1477 235,-1441 419,-1441 419,-1477"/>
<text text-anchor="middle" x="327" y="-1455.3" font-family="Times,serif" font-size="14.00" fill="#000000">ビックカメラSuicaカード</text>
</g>
<!-- 住信SBI銀行&#45;&gt;ビックカメラSuicaカード -->
<g id="edge25" class="edge">
<title>住信SBI銀行&#45;&gt;ビックカメラSuicaカード</title>
<path fill="none" stroke="#000000" stroke-width="2" d="M158.2598,-1728.9843C188.9438,-1679.8899 274.1513,-1543.5579 310.3683,-1485.6107"/>
<polygon fill="#000000" stroke="#000000" stroke-width="2" points="313.4124,-1487.3439 315.7444,-1477.0089 307.4764,-1483.6339 313.4124,-1487.3439"/>
</g>
<!-- リクルートカード -->
<g id="node14" class="node">
<title>リクルートカード</title>
<polygon fill="none" stroke="#000000" points="391.5,-431 262.5,-431 262.5,-395 391.5,-395 391.5,-431"/>
<text text-anchor="middle" x="327" y="-409.3" font-family="Times,serif" font-size="14.00" fill="#000000">リクルートカード</text>
</g>
<!-- 住信SBI銀行&#45;&gt;リクルートカード -->
<g id="edge26" class="edge">
<title>住信SBI銀行&#45;&gt;リクルートカード</title>
<path fill="none" stroke="#000000" stroke-width="2" d="M149.4421,-1728.9012C168.929,-1584.4817 299.0766,-619.9434 323.168,-441.3994"/>
<polygon fill="#000000" stroke="#000000" stroke-width="2" points="326.671,-441.6114 324.5398,-431.2331 319.7339,-440.6753 326.671,-441.6114"/>
</g>
<!-- PiTaPa -->
<g id="node15" class="node">
<title>PiTaPa</title>
<polygon fill="none" stroke="#000000" points="359.5,-1765 294.5,-1765 294.5,-1729 359.5,-1729 359.5,-1765"/>
<text text-anchor="middle" x="327" y="-1743.3" font-family="Times,serif" font-size="14.00" fill="#000000">PiTaPa</text>
</g>
<!-- 住信SBI銀行&#45;&gt;PiTaPa -->
<g id="edge27" class="edge">
<title>住信SBI銀行&#45;&gt;PiTaPa</title>
<path fill="none" stroke="#000000" stroke-width="2" d="M197.14,-1747C224.4769,-1747 257.9623,-1747 284.0828,-1747"/>
<polygon fill="#000000" stroke="#000000" stroke-width="2" points="284.4246,-1750.5001 294.4245,-1747 284.4245,-1743.5001 284.4246,-1750.5001"/>
</g>
<!-- 住信SBI銀行&#45;&gt;現金 -->
<g id="edge23" class="edge">
<title>住信SBI銀行&#45;&gt;現金</title>
<path fill="none" stroke="#000000" stroke-width="2" d="M160.7498,-1765.1689C176.4937,-1784.6131 204.1262,-1814.836 235,-1831 309.4916,-1870.0002 338.3392,-1851.2544 419,-1875 431.2464,-1878.6052 444.4475,-1883.0567 456.2616,-1887.2513"/>
<polygon fill="#000000" stroke="#000000" stroke-width="2" points="455.2134,-1890.5938 465.8078,-1890.69 457.5858,-1884.008 455.2134,-1890.5938"/>
</g>
<!-- 株主優待券 -->
<g id="node31" class="node">
<title>株主優待券</title>
<polygon fill="none" stroke="#000000" points="916,-1863 828,-1863 828,-1827 916,-1827 916,-1863"/>
<text text-anchor="middle" x="872" y="-1841.3" font-family="Times,serif" font-size="14.00" fill="#000000">株主優待券</text>
</g>
<!-- 住信SBI銀行&#45;&gt;株主優待券 -->
<g id="edge28" class="edge">
<title>住信SBI銀行&#45;&gt;株主優待券</title>
<path fill="none" stroke="#000000" stroke-width="2" d="M197.3026,-1755.4636C209.5253,-1758.8861 222.6379,-1762.438 235,-1765 447.9568,-1809.134 707.0336,-1827.2627 817.6832,-1837.3747"/>
<polygon fill="#000000" stroke="#000000" stroke-width="2" points="817.6397,-1840.8857 827.9213,-1838.3289 818.2893,-1833.9159 817.6397,-1840.8857"/>
</g>
<!-- 家賃 -->
<g id="node33" class="node">
<title>家賃</title>
<polygon fill="none" stroke="#000000" points="1038,-1245 984,-1245 984,-1209 1038,-1209 1038,-1245"/>
<text text-anchor="middle" x="1011" y="-1223.3" font-family="Times,serif" font-size="14.00" fill="#000000">家賃</text>
</g>
<!-- 住信SBI銀行&#45;&gt;家賃 -->
<g id="edge24" class="edge">
<title>住信SBI銀行&#45;&gt;家賃</title>
<path fill="none" stroke="#000000" stroke-width="2" d="M149.9088,-1728.8422C159.8606,-1668.723 194.1972,-1477.3985 235,-1432 435.475,-1208.9454 847.3576,-1216.0487 973.4728,-1223.9696"/>
<polygon fill="#000000" stroke="#000000" stroke-width="2" points="973.5478,-1227.4824 983.7593,-1224.6586 974.0156,-1220.498 973.5478,-1227.4824"/>
</g>
<!-- Suica -->
<g id="node16" class="node">
<title>Suica</title>
<polygon fill="none" stroke="#000000" points="521,-1551 465,-1551 465,-1515 521,-1515 521,-1551"/>
<text text-anchor="middle" x="493" y="-1529.3" font-family="Times,serif" font-size="14.00" fill="#000000">Suica</text>
</g>
<!-- ビックカメラSuicaカード&#45;&gt;Suica -->
<g id="edge17" class="edge">
<title>ビックカメラSuicaカード&#45;&gt;Suica</title>
<path fill="none" stroke="#000000" stroke-width="2" d="M367.6082,-1477.1024C394.4508,-1489.0684 429.3796,-1504.6391 455.5529,-1516.3067"/>
<polygon fill="#000000" stroke="#000000" stroke-width="2" points="454.2097,-1519.5399 464.7684,-1520.4148 457.0599,-1513.1464 454.2097,-1519.5399"/>
</g>
<!-- JREポイント -->
<g id="node24" class="node">
<title>JREポイント</title>
<polygon fill="none" stroke="#000000" points="747.5,-1592 646.5,-1592 646.5,-1556 747.5,-1556 747.5,-1592"/>
<text text-anchor="middle" x="697" y="-1570.3" font-family="Times,serif" font-size="14.00" fill="#000000">JREポイント</text>
</g>
<!-- ビックカメラSuicaカード&#45;&gt;JREポイント -->
<g id="edge12" class="edge">
<title>ビックカメラSuicaカード&#45;&gt;JREポイント</title>
<path fill="none" stroke="#000000" d="M419.1055,-1463.8243C454.834,-1468.1573 495.3935,-1476.1945 530,-1491 558.2775,-1503.0978 560.6386,-1514.2251 585,-1533 593.0275,-1539.1867 593.9658,-1542.4067 603,-1547 613.5238,-1552.3507 625.2653,-1556.7866 636.7867,-1560.4099"/>
<polygon fill="#000000" stroke="#000000" points="635.7985,-1563.7675 646.3814,-1563.2647 637.7948,-1557.0581 635.7985,-1563.7675"/>
<text text-anchor="middle" x="493" y="-1494.8" font-family="Times,serif" font-size="14.00" fill="#000000">0.5%</text>
</g>
<!-- ビックポイント -->
<g id="node25" class="node">
<title>ビックポイント</title>
<polygon fill="none" stroke="#000000" points="755,-1370 639,-1370 639,-1334 755,-1334 755,-1370"/>
<text text-anchor="middle" x="697" y="-1348.3" font-family="Times,serif" font-size="14.00" fill="#000000">ビックポイント</text>
</g>
<!-- ビックカメラSuicaカード&#45;&gt;ビックポイント -->
<g id="edge15" class="edge">
<title>ビックカメラSuicaカード&#45;&gt;ビックポイント</title>
<path fill="none" stroke="#000000" d="M367.07,-1440.9291C392.2388,-1430.0615 425.5854,-1416.5343 456,-1407 513.3475,-1389.0229 580.0703,-1374.2556 628.7507,-1364.5658"/>
<polygon fill="#000000" stroke="#000000" points="629.7197,-1367.9423 638.8549,-1362.5759 628.367,-1361.0742 629.7197,-1367.9423"/>
<text text-anchor="middle" x="493" y="-1410.8" font-family="Times,serif" font-size="14.00" fill="#000000">0.5%</text>
</g>
<!-- ビックカメラ -->
<g id="node45" class="node">
<title>ビックカメラ</title>
<polygon fill="none" stroke="#000000" points="1061.5,-1438 960.5,-1438 960.5,-1402 1061.5,-1402 1061.5,-1438"/>
<text text-anchor="middle" x="1011" y="-1416.3" font-family="Times,serif" font-size="14.00" fill="#000000">ビックカメラ</text>
</g>
<!-- ビックカメラSuicaカード&#45;&gt;ビックカメラ -->
<g id="edge13" class="edge">
<title>ビックカメラSuicaカード&#45;&gt;ビックカメラ</title>
<path fill="none" stroke="#000000" stroke-width="2" stroke-dasharray="5,2" d="M419.3161,-1441.6264C443.2245,-1438.3887 468.9968,-1436 493,-1436 493,-1436 493,-1436 872,-1436 897.7184,-1436 925.9389,-1433.2633 950.193,-1430.0536"/>
<polygon fill="#000000" stroke="#000000" stroke-width="2" points="950.8981,-1433.4895 960.3259,-1428.6556 949.9413,-1426.5552 950.8981,-1433.4895"/>
</g>
<!-- EX予約 -->
<g id="node54" class="node">
<title>EX予約</title>
<polygon fill="none" stroke="#000000" points="1044,-1299 978,-1299 978,-1263 1044,-1263 1044,-1299"/>
<text text-anchor="middle" x="1011" y="-1277.3" font-family="Times,serif" font-size="14.00" fill="#000000">EX予約</text>
</g>
<!-- ビックカメラSuicaカード&#45;&gt;EX予約 -->
<g id="edge20" class="edge">
<title>ビックカメラSuicaカード&#45;&gt;EX予約</title>
<path fill="none" stroke="#000000" stroke-width="2" stroke-dasharray="5,2" d="M354.9854,-1440.7817C380.6516,-1424.4954 420.0267,-1400.5595 456,-1383 519.1169,-1352.191 534.8053,-1341.8053 603,-1325 733.3174,-1292.8857 892.7839,-1284.2091 967.9259,-1281.866"/>
<polygon fill="#000000" stroke="#000000" stroke-width="2" points="968.0627,-1285.3636 977.9573,-1281.5757 967.8601,-1278.3666 968.0627,-1285.3636"/>
</g>
<!-- nanaco -->
<g id="node18" class="node">
<title>nanaco</title>
<polygon fill="none" stroke="#000000" points="527,-127 459,-127 459,-91 527,-91 527,-127"/>
<text text-anchor="middle" x="493" y="-105.3" font-family="Times,serif" font-size="14.00" fill="#000000">nanaco</text>
</g>
<!-- リクルートカード&#45;&gt;nanaco -->
<g id="edge57" class="edge">
<title>リクルートカード&#45;&gt;nanaco</title>
<path fill="none" stroke="#000000" stroke-width="2" d="M331.0359,-394.6696C341.759,-349.2216 374.5018,-229.2961 437,-150 441.7176,-144.0144 447.5225,-138.4837 453.5895,-133.5486"/>
<polygon fill="#000000" stroke="#000000" stroke-width="2" points="456.1005,-136.0365 461.9475,-127.2012 451.8669,-130.4619 456.1005,-136.0365"/>
</g>
<!-- Edy -->
<g id="node19" class="node">
<title>Edy</title>
<polygon fill="none" stroke="#000000" points="520,-931 466,-931 466,-895 520,-895 520,-931"/>
<text text-anchor="middle" x="493" y="-909.3" font-family="Times,serif" font-size="14.00" fill="#000000">Edy</text>
</g>
<!-- リクルートカード&#45;&gt;Edy -->
<g id="edge44" class="edge">
<title>リクルートカード&#45;&gt;Edy</title>
<path fill="none" stroke="#000000" stroke-width="2" d="M333.0061,-431.0907C357.9682,-506.2776 453.6163,-794.3743 483.8104,-885.3205"/>
<polygon fill="#000000" stroke="#000000" stroke-width="2" points="480.5293,-886.5459 487.002,-894.9337 487.1727,-884.3402 480.5293,-886.5459"/>
</g>
<!-- Ponta -->
<g id="node22" class="node">
<title>Ponta</title>
<polygon fill="none" stroke="#000000" points="725.5,-385 668.5,-385 668.5,-349 725.5,-349 725.5,-385"/>
<text text-anchor="middle" x="697" y="-363.3" font-family="Times,serif" font-size="14.00" fill="#000000">Ponta</text>
</g>
<!-- リクルートカード&#45;&gt;Ponta -->
<g id="edge52" class="edge">
<title>リクルートカード&#45;&gt;Ponta</title>
<path fill="none" stroke="#000000" d="M391.6071,-396.4725C412.0785,-391.7762 434.8785,-387.101 456,-384 526.7969,-373.6057 610.2606,-369.5154 658.069,-367.9432"/>
<polygon fill="#000000" stroke="#000000" points="658.3963,-371.4348 668.2836,-367.628 658.1804,-364.4382 658.3963,-371.4348"/>
<text text-anchor="middle" x="493" y="-387.8" font-family="Times,serif" font-size="14.00" fill="#000000">1.2%</text>
</g>
<!-- ASAHIネット -->
<g id="node37" class="node">
<title>ASAHIネット</title>
<polygon fill="none" stroke="#000000" points="1065.5,-282 956.5,-282 956.5,-246 1065.5,-246 1065.5,-282"/>
<text text-anchor="middle" x="1011" y="-260.3" font-family="Times,serif" font-size="14.00" fill="#000000">ASAHIネット</text>
</g>
<!-- リクルートカード&#45;&gt;ASAHIネット -->
<g id="edge31" class="edge">
<title>リクルートカード&#45;&gt;ASAHIネット</title>
<path fill="none" stroke="#000000" stroke-width="2" d="M334.7924,-394.7117C354.4643,-351.7519 410.5124,-248 493,-248 493,-248 493,-248 872,-248 896.334,-248 922.908,-250.45 946.2428,-253.4326"/>
<polygon fill="#000000" stroke="#000000" stroke-width="2" points="945.9962,-256.9306 956.3716,-254.7854 946.923,-249.9923 945.9962,-256.9306"/>
</g>
<!-- 楽天モバイル -->
<g id="node38" class="node">
<title>楽天モバイル</title>
<polygon fill="none" stroke="#000000" points="1062,-690 960,-690 960,-654 1062,-654 1062,-690"/>
<text text-anchor="middle" x="1011" y="-668.3" font-family="Times,serif" font-size="14.00" fill="#000000">楽天モバイル</text>
</g>
<!-- リクルートカード&#45;&gt;楽天モバイル -->
<g id="edge40" class="edge">
<title>リクルートカード&#45;&gt;楽天モバイル</title>
<path fill="none" stroke="#000000" stroke-width="2" d="M340.5741,-431.3294C376.8424,-478.6161 481.5497,-604.4148 603,-653 718.5408,-699.2211 867.4064,-690.9998 949.6093,-681.2579"/>
<polygon fill="#000000" stroke="#000000" stroke-width="2" points="950.2865,-684.701 959.7831,-680.0037 949.43,-677.7536 950.2865,-684.701"/>
</g>
<!-- 楽天でんき -->
<g id="node39" class="node">
<title>楽天でんき</title>
<polygon fill="none" stroke="#000000" points="1055,-525 967,-525 967,-489 1055,-489 1055,-525"/>
<text text-anchor="middle" x="1011" y="-503.3" font-family="Times,serif" font-size="14.00" fill="#000000">楽天でんき</text>
</g>
<!-- リクルートカード&#45;&gt;楽天でんき -->
<g id="edge38" class="edge">
<title>リクルートカード&#45;&gt;楽天でんき</title>
<path fill="none" stroke="#000000" stroke-width="2" d="M344.5453,-431.1241C372.9657,-458.4395 432.0606,-507 493,-507 493,-507 493,-507 872,-507 899.8908,-507 930.9295,-507 956.589,-507"/>
<polygon fill="#000000" stroke="#000000" stroke-width="2" points="956.8663,-510.5001 966.8662,-507 956.8662,-503.5001 956.8663,-510.5001"/>
</g>
<!-- 関西電力 -->
<g id="node40" class="node">
<title>関西電力</title>
<polygon fill="none" stroke="#000000" points="1048,-807 974,-807 974,-771 1048,-771 1048,-807"/>
<text text-anchor="middle" x="1011" y="-785.3" font-family="Times,serif" font-size="14.00" fill="#000000">関西電力</text>
</g>
<!-- リクルートカード&#45;&gt;関西電力 -->
<g id="edge35" class="edge">
<title>リクルートカード&#45;&gt;関西電力</title>
<path fill="none" stroke="#000000" stroke-width="2" d="M335.9998,-431.181C354.4566,-467.0509 399.6406,-547.958 456,-600 511.4463,-651.1988 533.1099,-656.5224 603,-685 604.0669,-685.4347 856.8331,-749.7715 963.9299,-777.0237"/>
<polygon fill="#000000" stroke="#000000" stroke-width="2" points="963.2718,-780.4677 973.8261,-779.5418 964.998,-773.6839 963.2718,-780.4677"/>
</g>
<!-- 楽天損保 -->
<g id="node42" class="node">
<title>楽天損保</title>
<polygon fill="none" stroke="#000000" points="1048,-174 974,-174 974,-138 1048,-138 1048,-174"/>
<text text-anchor="middle" x="1011" y="-152.3" font-family="Times,serif" font-size="14.00" fill="#000000">楽天損保</text>
</g>
<!-- リクルートカード&#45;&gt;楽天損保 -->
<g id="edge39" class="edge">
<title>リクルートカード&#45;&gt;楽天損保</title>
<path fill="none" stroke="#000000" stroke-width="2" d="M330.0348,-394.6904C340.7118,-337.187 382.0761,-164 493,-164 493,-164 493,-164 872,-164 902.5151,-164 936.7363,-162.0546 963.5877,-160.0824"/>
<polygon fill="#000000" stroke="#000000" stroke-width="2" points="964.1597,-163.5491 973.8652,-159.3001 963.6284,-156.5693 964.1597,-163.5491"/>
</g>
<!-- アイハート -->
<g id="node43" class="node">
<title>アイハート</title>
<polygon fill="none" stroke="#000000" points="1054,-228 968,-228 968,-192 1054,-192 1054,-228"/>
<text text-anchor="middle" x="1011" y="-206.3" font-family="Times,serif" font-size="14.00" fill="#000000">アイハート</text>
</g>
<!-- リクルートカード&#45;&gt;アイハート -->
<g id="edge34" class="edge">
<title>リクルートカード&#45;&gt;アイハート</title>
<path fill="none" stroke="#000000" stroke-width="2" d="M332.1099,-394.9851C347.42,-345.3034 397.8503,-210 493,-210 493,-210 493,-210 872,-210 900.2089,-210 931.638,-210 957.4649,-210"/>
<polygon fill="#000000" stroke="#000000" stroke-width="2" points="957.798,-213.5001 967.7979,-210 957.7979,-206.5001 957.798,-213.5001"/>
</g>
<!-- Amazon -->
<g id="node53" class="node">
<title>Amazon</title>
<polygon fill="none" stroke="#000000" points="1048,-431 974,-431 974,-395 1048,-395 1048,-431"/>
<text text-anchor="middle" x="1011" y="-409.3" font-family="Times,serif" font-size="14.00" fill="#000000">Amazon</text>
</g>
<!-- リクルートカード&#45;&gt;Amazon -->
<g id="edge32" class="edge">
<title>リクルートカード&#45;&gt;Amazon</title>
<path fill="none" stroke="#000000" stroke-width="2" d="M391.6432,-413C422.3518,-413 459.5694,-413 493,-413 493,-413 493,-413 872,-413 902.4647,-413 936.6852,-413 963.5488,-413"/>
<polygon fill="#000000" stroke="#000000" stroke-width="2" points="963.8319,-416.5001 973.8318,-413 963.8318,-409.5001 963.8319,-416.5001"/>
</g>
<!-- じゃらん -->
<g id="node55" class="node">
<title>じゃらん</title>
<polygon fill="none" stroke="#000000" points="1048,-336 974,-336 974,-300 1048,-300 1048,-336"/>
<text text-anchor="middle" x="1011" y="-314.3" font-family="Times,serif" font-size="14.00" fill="#000000">じゃらん</text>
</g>
<!-- リクルートカード&#45;&gt;じゃらん -->
<g id="edge33" class="edge">
<title>リクルートカード&#45;&gt;じゃらん</title>
<path fill="none" stroke="#000000" stroke-width="2" d="M338.7312,-394.804C362.9634,-359.6874 422.2416,-286 493,-286 493,-286 493,-286 872,-286 903.1803,-286 937.3151,-293.7414 963.9549,-301.6089"/>
<polygon fill="#000000" stroke="#000000" stroke-width="2" points="963.1896,-305.0349 973.7761,-304.6145 965.2381,-298.3413 963.1896,-305.0349"/>
</g>
<!-- メルカリ -->
<g id="node56" class="node">
<title>メルカリ</title>
<polygon fill="none" stroke="#000000" points="1048,-1179 974,-1179 974,-1143 1048,-1143 1048,-1179"/>
<text text-anchor="middle" x="1011" y="-1157.3" font-family="Times,serif" font-size="14.00" fill="#000000">メルカリ</text>
</g>
<!-- リクルートカード&#45;&gt;メルカリ -->
<g id="edge77" class="edge">
<title>リクルートカード&#45;&gt;メルカリ</title>
<path fill="none" stroke="#000000" stroke-width="2" d="M328.4579,-431.3143C334.623,-501.1464 362.6938,-756.0228 456,-940 501.9448,-1030.592 513.4811,-1066.998 603,-1115 664.4588,-1147.9556 870.315,-1157.4064 963.935,-1160.0307"/>
<polygon fill="#000000" stroke="#000000" stroke-width="2" points="963.8874,-1163.5306 973.977,-1160.2979 964.0736,-1156.533 963.8874,-1163.5306"/>
</g>
<!-- 電車 -->
<g id="node35" class="node">
<title>電車</title>
<polygon fill="none" stroke="#000000" points="1038,-1727 984,-1727 984,-1691 1038,-1691 1038,-1727"/>
<text text-anchor="middle" x="1011" y="-1705.3" font-family="Times,serif" font-size="14.00" fill="#000000">電車</text>
</g>
<!-- PiTaPa&#45;&gt;電車 -->
<g id="edge66" class="edge">
<title>PiTaPa&#45;&gt;電車</title>
<path fill="none" stroke="#000000" stroke-width="2" d="M359.5671,-1734.9766C392.6784,-1723.8438 445.6961,-1709 493,-1709 493,-1709 493,-1709 872,-1709 906.4512,-1709 945.7054,-1709 973.6918,-1709"/>
<polygon fill="#000000" stroke="#000000" stroke-width="2" points="973.8327,-1712.5001 983.8326,-1709 973.8326,-1705.5001 973.8327,-1712.5001"/>
</g>
<!-- バス -->
<g id="node36" class="node">
<title>バス</title>
<polygon fill="none" stroke="#000000" points="1038,-1815 984,-1815 984,-1779 1038,-1779 1038,-1815"/>
<text text-anchor="middle" x="1011" y="-1793.3" font-family="Times,serif" font-size="14.00" fill="#000000">バス</text>
</g>
<!-- PiTaPa&#45;&gt;バス -->
<g id="edge68" class="edge">
<title>PiTaPa&#45;&gt;バス</title>
<path fill="none" stroke="#000000" stroke-width="2" d="M359.7568,-1747C393.2396,-1747 446.7448,-1747 493,-1747 493,-1747 493,-1747 872,-1747 908.476,-1747 947.327,-1762.4339 974.6546,-1776.1519"/>
<polygon fill="#000000" stroke="#000000" stroke-width="2" points="973.3288,-1779.407 983.8173,-1780.9045 976.5519,-1773.1932 973.3288,-1779.407"/>
</g>
<!-- Suica&#45;&gt;JREポイント -->
<g id="edge21" class="edge">
<title>Suica&#45;&gt;JREポイント</title>
<path fill="none" stroke="#000000" d="M521.3738,-1534.4468C539.6571,-1535.7052 563.8736,-1537.9828 585,-1542 586.4808,-1542.2816 610.8902,-1549.246 636.5431,-1556.6055"/>
<polygon fill="#000000" stroke="#000000" points="635.8129,-1560.0372 646.3905,-1559.4323 637.7444,-1553.3089 635.8129,-1560.0372"/>
<text text-anchor="middle" x="566.5" y="-1545.8" font-family="Times,serif" font-size="14.00" fill="#000000">1.5%</text>
</g>
<!-- Suica&#45;&gt;電車 -->
<g id="edge18" class="edge">
<title>Suica&#45;&gt;電車</title>
<path fill="none" stroke="#000000" stroke-width="2" d="M514.457,-1551.0658C524.3288,-1558.9294 536.4039,-1567.94 548,-1575 571.0946,-1589.0606 577.1457,-1593.087 603,-1601 745.7501,-1644.6902 797.38,-1594.1455 935,-1652 953.1749,-1659.6406 970.9475,-1672.574 984.7305,-1684.1914"/>
<polygon fill="#000000" stroke="#000000" stroke-width="2" points="982.5167,-1686.9045 992.3577,-1690.8294 987.1122,-1681.6242 982.5167,-1686.9045"/>
</g>
<!-- 松屋 -->
<g id="node51" class="node">
<title>松屋</title>
<polygon fill="none" stroke="#000000" points="1038,-1492 984,-1492 984,-1456 1038,-1456 1038,-1492"/>
<text text-anchor="middle" x="1011" y="-1470.3" font-family="Times,serif" font-size="14.00" fill="#000000">松屋</text>
</g>
<!-- Suica&#45;&gt;松屋 -->
<g id="edge19" class="edge">
<title>Suica&#45;&gt;松屋</title>
<path fill="none" stroke="#000000" stroke-width="2" d="M521.2657,-1520.03C543.0898,-1510.6841 574.308,-1498.7461 603,-1493 737.253,-1466.1134 901.0936,-1468.9763 973.5134,-1472.0071"/>
<polygon fill="#000000" stroke="#000000" stroke-width="2" points="973.7813,-1475.5225 983.9272,-1472.4712 974.093,-1468.5294 973.7813,-1475.5225"/>
</g>
<!-- 昼間回数券 -->
<g id="node32" class="node">
<title>昼間回数券</title>
<polygon fill="none" stroke="#000000" points="916,-1919 828,-1919 828,-1883 916,-1883 916,-1919"/>
<text text-anchor="middle" x="872" y="-1897.3" font-family="Times,serif" font-size="14.00" fill="#000000">昼間回数券</text>
</g>
<!-- 現金&#45;&gt;昼間回数券 -->
<g id="edge71" class="edge">
<title>現金&#45;&gt;昼間回数券</title>
<path fill="none" stroke="#000000" stroke-width="2" d="M520.2567,-1897.2971C582.3526,-1893.6851 735.3031,-1893.2843 817.5613,-1896.0947"/>
<polygon fill="#000000" stroke="#000000" stroke-width="2" points="817.5919,-1899.5982 827.7153,-1896.4729 817.8525,-1892.603 817.5919,-1899.5982"/>
</g>
<!-- 飲食店 -->
<g id="node48" class="node">
<title>飲食店</title>
<polygon fill="none" stroke="#000000" points="1040.5,-1985 981.5,-1985 981.5,-1949 1040.5,-1949 1040.5,-1985"/>
<text text-anchor="middle" x="1011" y="-1963.3" font-family="Times,serif" font-size="14.00" fill="#000000">飲食店</text>
</g>
<!-- 現金&#45;&gt;飲食店 -->
<g id="edge70" class="edge">
<title>現金&#45;&gt;飲食店</title>
<path fill="none" stroke="#000000" stroke-width="2" d="M520.1392,-1914.2671C528.8482,-1917.9993 538.6605,-1921.6714 548,-1924 627.8409,-1943.9064 874.1241,-1959.3765 971.1378,-1964.8525"/>
<polygon fill="#000000" stroke="#000000" stroke-width="2" points="971.2225,-1968.3626 981.4022,-1965.426 971.613,-1961.3735 971.2225,-1968.3626"/>
</g>
<!-- nanacoポイント -->
<g id="node27" class="node">
<title>nanacoポイント</title>
<polygon fill="none" stroke="#000000" points="759.5,-136 634.5,-136 634.5,-100 759.5,-100 759.5,-136"/>
<text text-anchor="middle" x="697" y="-114.3" font-family="Times,serif" font-size="14.00" fill="#000000">nanacoポイント</text>
</g>
<!-- nanaco&#45;&gt;nanacoポイント -->
<g id="edge59" class="edge">
<title>nanaco&#45;&gt;nanacoポイント</title>
<path fill="none" stroke="#000000" d="M527.145,-110.5064C553.5625,-111.6719 591.0936,-113.3277 624.1608,-114.7865"/>
<polygon fill="#000000" stroke="#000000" points="624.1178,-118.2879 634.2624,-115.2322 624.4264,-111.2947 624.1178,-118.2879"/>
<text text-anchor="middle" x="566.5" y="-116.8" font-family="Times,serif" font-size="14.00" fill="#000000">1%</text>
</g>
<!-- セブンイレブン -->
<g id="node34" class="node">
<title>セブンイレブン</title>
<polygon fill="none" stroke="#000000" points="1068,-90 954,-90 954,-54 1068,-54 1068,-90"/>
<text text-anchor="middle" x="1011" y="-68.3" font-family="Times,serif" font-size="14.00" fill="#000000">セブンイレブン</text>
</g>
<!-- nanaco&#45;&gt;セブンイレブン -->
<g id="edge58" class="edge">
<title>nanaco&#45;&gt;セブンイレブン</title>
<path fill="none" stroke="#000000" stroke-width="2" d="M527.0517,-102.384C548.7124,-98.4349 577.4029,-93.6812 603,-91 722.539,-78.4786 862.6454,-74.2089 943.6786,-72.7531"/>
<polygon fill="#000000" stroke="#000000" stroke-width="2" points="943.8067,-76.2515 953.7455,-72.5813 943.6872,-69.2525 943.8067,-76.2515"/>
</g>
<!-- Edy&#45;&gt;楽天ポイント -->
<g id="edge51" class="edge">
<title>Edy&#45;&gt;楽天ポイント</title>
<path fill="none" stroke="#000000" d="M495.3669,-894.9473C500.3673,-862.2741 514.4332,-792.2515 548,-744 576.1095,-703.5933 622.0509,-670.2112 655.499,-649.3868"/>
<polygon fill="#000000" stroke="#000000" points="657.4334,-652.3066 664.1451,-644.1088 653.7861,-646.3319 657.4334,-652.3066"/>
<text text-anchor="middle" x="566.5" y="-747.8" font-family="Times,serif" font-size="14.00" fill="#000000">0.5%</text>
</g>
<!-- ヤマト運輸 -->
<g id="node41" class="node">
<title>ヤマト運輸</title>
<polygon fill="none" stroke="#000000" points="1055,-1023 967,-1023 967,-987 1055,-987 1055,-1023"/>
<text text-anchor="middle" x="1011" y="-1001.3" font-family="Times,serif" font-size="14.00" fill="#000000">ヤマト運輸</text>
</g>
<!-- Edy&#45;&gt;ヤマト運輸 -->
<g id="edge45" class="edge">
<title>Edy&#45;&gt;ヤマト運輸</title>
<path fill="none" stroke="#000000" stroke-width="2" d="M520.2738,-929.3632C528.9065,-933.9956 538.6418,-938.6758 548,-942 571.4906,-950.3442 578.3982,-948.9772 603,-953 729.1173,-973.6222 878.2977,-990.8244 956.6599,-999.3099"/>
<polygon fill="#000000" stroke="#000000" stroke-width="2" points="956.4607,-1002.8086 966.778,-1000.3997 957.2103,-995.8489 956.4607,-1002.8086"/>
</g>
<!-- ウェルシア -->
<g id="node44" class="node">
<title>ウェルシア</title>
<polygon fill="none" stroke="#000000" points="1054.5,-915 967.5,-915 967.5,-879 1054.5,-879 1054.5,-915"/>
<text text-anchor="middle" x="1011" y="-893.3" font-family="Times,serif" font-size="14.00" fill="#000000">ウェルシア</text>
</g>
<!-- Edy&#45;&gt;ウェルシア -->
<g id="edge49" class="edge">
<title>Edy&#45;&gt;ウェルシア</title>
<path fill="none" stroke="#000000" stroke-width="2" d="M520.1206,-912.1623C601.996,-909.6333 847.7545,-902.0423 957.2941,-898.6589"/>
<polygon fill="#000000" stroke="#000000" stroke-width="2" points="957.5722,-902.152 967.4594,-898.3449 957.3561,-895.1554 957.5722,-902.152"/>
</g>
<!-- ヨドバシカメラ -->
<g id="node46" class="node">
<title>ヨドバシカメラ</title>
<polygon fill="none" stroke="#000000" points="1069,-1546 953,-1546 953,-1510 1069,-1510 1069,-1546"/>
<text text-anchor="middle" x="1011" y="-1524.3" font-family="Times,serif" font-size="14.00" fill="#000000">ヨドバシカメラ</text>
</g>
<!-- Edy&#45;&gt;ヨドバシカメラ -->
<g id="edge46" class="edge">
<title>Edy&#45;&gt;ヨドバシカメラ</title>
<path fill="none" stroke="#000000" stroke-width="2" d="M496.1153,-931.2258C510.3097,-1013.3591 569.6053,-1346.4947 603,-1379 670.3332,-1444.5399 721.8874,-1389.3594 810,-1422 878.0876,-1447.2225 888.2706,-1468.1032 953,-1501 955.921,-1502.4845 958.939,-1503.9854 961.9928,-1505.4792"/>
<polygon fill="#000000" stroke="#000000" stroke-width="2" points="960.6726,-1508.7282 971.2006,-1509.9159 963.7111,-1502.422 960.6726,-1508.7282"/>
</g>
<!-- 餃子の王将 -->
<g id="node47" class="node">
<title>餃子の王将</title>
<polygon fill="none" stroke="#000000" points="1055,-969 967,-969 967,-933 1055,-933 1055,-969"/>
<text text-anchor="middle" x="1011" y="-947.3" font-family="Times,serif" font-size="14.00" fill="#000000">餃子の王将</text>
</g>
<!-- Edy&#45;&gt;餃子の王将 -->
<g id="edge65" class="edge">
<title>Edy&#45;&gt;餃子の王将</title>
<path fill="none" stroke="#000000" stroke-width="2" d="M520.2638,-919.844C529.0639,-921.8119 538.8973,-923.7594 548,-925 694.7944,-945.0067 869.7868,-949.6852 956.5879,-950.7345"/>
<polygon fill="#000000" stroke="#000000" stroke-width="2" points="956.6907,-954.2357 966.7284,-950.8452 956.7672,-947.2361 956.6907,-954.2357"/>
</g>
<!-- FRESCO -->
<g id="node49" class="node">
<title>FRESCO</title>
<polygon fill="none" stroke="#000000" points="1051,-1077 971,-1077 971,-1041 1051,-1041 1051,-1077"/>
<text text-anchor="middle" x="1011" y="-1055.3" font-family="Times,serif" font-size="14.00" fill="#000000">FRESCO</text>
</g>
<!-- Edy&#45;&gt;FRESCO -->
<g id="edge62" class="edge">
<title>Edy&#45;&gt;FRESCO</title>
<path fill="none" stroke="#000000" stroke-width="2" d="M510.5053,-931.2836C520.709,-941.1291 534.2476,-952.8838 548,-961 570.4004,-974.2199 577.9238,-974.0914 603,-981 729.922,-1015.9674 883.3007,-1040.7282 960.8622,-1052.0577"/>
<polygon fill="#000000" stroke="#000000" stroke-width="2" points="960.4432,-1055.5335 970.8415,-1053.5022 961.446,-1048.6057 960.4432,-1055.5335"/>
</g>
<!-- 業務スーパー -->
<g id="node50" class="node">
<title>業務スーパー</title>
<polygon fill="none" stroke="#000000" points="1061.5,-861 960.5,-861 960.5,-825 1061.5,-825 1061.5,-861"/>
<text text-anchor="middle" x="1011" y="-839.3" font-family="Times,serif" font-size="14.00" fill="#000000">業務スーパー</text>
</g>
<!-- Edy&#45;&gt;業務スーパー -->
<g id="edge61" class="edge">
<title>Edy&#45;&gt;業務スーパー</title>
<path fill="none" stroke="#000000" stroke-width="2" d="M520.1206,-909.3351C600.2617,-898.5052 837.4168,-866.4572 950.1529,-851.2226"/>
<polygon fill="#000000" stroke="#000000" stroke-width="2" points="950.8977,-854.6538 960.3389,-849.8461 949.9602,-847.7169 950.8977,-854.6538"/>
</g>
<!-- 吉野家 -->
<g id="node52" class="node">
<title>吉野家</title>
<polygon fill="none" stroke="#000000" points="1040.5,-753 981.5,-753 981.5,-717 1040.5,-717 1040.5,-753"/>
<text text-anchor="middle" x="1011" y="-731.3" font-family="Times,serif" font-size="14.00" fill="#000000">吉野家</text>
</g>
<!-- Edy&#45;&gt;吉野家 -->
<g id="edge50" class="edge">
<title>Edy&#45;&gt;吉野家</title>
<path fill="none" stroke="#000000" stroke-width="2" d="M503.4338,-894.6904C520.3747,-866.8602 556.6831,-814.5602 603,-790 724.9749,-725.321 895.1702,-726.935 971.3708,-731.624"/>
<polygon fill="#000000" stroke="#000000" stroke-width="2" points="971.2734,-735.1252 981.4844,-732.2995 971.7399,-728.1408 971.2734,-735.1252"/>
</g>
<!-- PayPay&#45;&gt;飲食店 -->
<g id="edge11" class="edge">
<title>PayPay&#45;&gt;飲食店</title>
<path fill="none" stroke="#000000" stroke-width="2" d="M527.3886,-1969.8008C619.7196,-1969.2661 872.6965,-1967.801 971.0994,-1967.2311"/>
<polygon fill="#000000" stroke="#000000" stroke-width="2" points="971.2455,-1970.7304 981.225,-1967.1724 971.2049,-1963.7305 971.2455,-1970.7304"/>
</g>
<!-- メルペイ&#45;&gt;三井住友銀行 -->
<g id="edge76" class="edge">
<title>メルペイ&#45;&gt;三井住友銀行</title>
<path fill="none" stroke="#000000" stroke-width="2" d="M461.6787,-1213.0241C405.2173,-1247.4178 287.3817,-1328.3107 235,-1432 166.062,-1568.4624 246.3138,-1628.9476 198,-1774 190.9186,-1795.2604 178.0103,-1816.9478 166.9525,-1833.2251"/>
<polygon fill="#000000" stroke="#000000" stroke-width="2" points="163.9073,-1831.4726 161.0484,-1841.6744 169.6453,-1835.4821 163.9073,-1831.4726"/>
</g>
<!-- メルペイ&#45;&gt;メルカリ -->
<g id="edge75" class="edge">
<title>メルペイ&#45;&gt;メルカリ</title>
<path fill="none" stroke="#000000" stroke-width="2" d="M530.2809,-1193.1116C606.3957,-1189.1704 785.14,-1179.4759 935,-1168 944.3142,-1167.2867 954.2621,-1166.4355 963.7884,-1165.5763"/>
<polygon fill="#000000" stroke="#000000" stroke-width="2" points="964.2718,-1169.0467 973.9099,-1164.647 963.6318,-1162.076 964.2718,-1169.0467"/>
</g>
<!-- Ponta&#45;&gt;じゃらん -->
<g id="edge53" class="edge">
<title>Ponta&#45;&gt;じゃらん</title>
<path fill="none" stroke="#000000" d="M725.6137,-368.3926C771.1005,-369.7472 862.203,-368.9308 935,-346 944.5559,-342.9899 954.6797,-339.4864 964.3151,-335.9974"/>
<polygon fill="#000000" stroke="#000000" points="965.5688,-339.2656 973.7486,-332.5319 963.155,-332.6949 965.5688,-339.2656"/>
</g>
<!-- 楽天ポイント&#45;&gt;楽天モバイル -->
<g id="edge42" class="edge">
<title>楽天ポイント&#45;&gt;楽天モバイル</title>
<path fill="none" stroke="#000000" d="M748.1742,-632.1519C796.4426,-638.1269 870.7708,-647.7724 935,-658 939.7988,-658.7641 944.761,-659.5923 949.7443,-660.451"/>
<polygon fill="#000000" stroke="#000000" points="949.5023,-663.9621 959.9572,-662.246 950.7141,-657.0678 949.5023,-663.9621"/>
</g>
<!-- 楽天ポイント&#45;&gt;楽天でんき -->
<g id="edge43" class="edge">
<title>楽天ポイント&#45;&gt;楽天でんき</title>
<path fill="none" stroke="#000000" d="M744.6898,-607.9265C801.8956,-586.2466 897.5389,-549.9996 957.2931,-527.3539"/>
<polygon fill="#000000" stroke="#000000" points="958.8156,-530.5199 966.9262,-523.7031 956.3348,-523.9742 958.8156,-530.5199"/>
</g>
<!-- JREポイント&#45;&gt;Suica -->
<g id="edge22" class="edge">
<title>JREポイント&#45;&gt;Suica</title>
<path fill="none" stroke="#000000" d="M646.2954,-1571.9621C617.1431,-1569.8656 580.0583,-1565.6151 548,-1557 542.2636,-1555.4584 536.3542,-1553.4131 530.6334,-1551.1648"/>
<polygon fill="#000000" stroke="#000000" points="531.824,-1547.869 521.2477,-1547.2426 529.1249,-1554.3278 531.824,-1547.869"/>
</g>
<!-- ビックポイント&#45;&gt;ビックカメラ -->
<g id="edge16" class="edge">
<title>ビックポイント&#45;&gt;ビックカメラ</title>
<path fill="none" stroke="#000000" d="M755.3657,-1341.2117C800.4637,-1335.2873 863.788,-1332.2941 916,-1350 942.7515,-1359.0719 968.245,-1378.6781 986.0753,-1394.8393"/>
<polygon fill="#000000" stroke="#000000" points="984.01,-1397.6997 993.7053,-1401.972 988.7903,-1392.5862 984.01,-1397.6997"/>
</g>
<!-- Amazonポイント -->
<g id="node26" class="node">
<title>Amazonポイント</title>
<polygon fill="none" stroke="#000000" points="762.5,-478 631.5,-478 631.5,-442 762.5,-442 762.5,-478"/>
<text text-anchor="middle" x="697" y="-456.3" font-family="Times,serif" font-size="14.00" fill="#000000">Amazonポイント</text>
</g>
<!-- Amazonポイント&#45;&gt;Amazon -->
<g id="edge56" class="edge">
<title>Amazonポイント&#45;&gt;Amazon</title>
<path fill="none" stroke="#000000" d="M762.5259,-444.222C810.3958,-436.4606 876.8303,-427.3858 935,-418 944.3378,-416.4933 954.2964,-414.7547 963.8256,-413.2142"/>
<polygon fill="#000000" stroke="#000000" points="964.604,-416.6353 973.9477,-411.6407 963.5287,-409.7184 964.604,-416.6353"/>
</g>
<!-- nanacoポイント&#45;&gt;nanaco -->
<g id="edge60" class="edge">
<title>nanacoポイント&#45;&gt;nanaco</title>
<path fill="none" stroke="#000000" d="M634.2105,-115.184C618.1662,-114.468 600.9449,-113.7025 585,-113 569.4275,-112.3139 552.3719,-111.5702 537.2218,-110.9123"/>
<polygon fill="#000000" stroke="#000000" points="537.2216,-107.4091 527.0793,-110.4723 536.9181,-114.4025 537.2216,-107.4091"/>
</g>
<!-- FRESCOポイント -->
<g id="node28" class="node">
<title>FRESCOポイント</title>
<polygon fill="none" stroke="#000000" points="765.5,-1106 628.5,-1106 628.5,-1070 765.5,-1070 765.5,-1106"/>
<text text-anchor="middle" x="697" y="-1084.3" font-family="Times,serif" font-size="14.00" fill="#000000">FRESCOポイント</text>
</g>
<!-- FRESCOポイント&#45;&gt;FRESCO -->
<g id="edge64" class="edge">
<title>FRESCOポイント&#45;&gt;FRESCO</title>
<path fill="none" stroke="#000000" d="M765.5206,-1081.6717C824.3929,-1076.2344 907.9102,-1068.521 960.7605,-1063.64"/>
<polygon fill="#000000" stroke="#000000" points="961.2695,-1067.1079 970.9053,-1062.703 960.6257,-1060.1376 961.2695,-1067.1079"/>
</g>
<!-- ヨドバシゴールドポイント -->
<g id="node29" class="node">
<title>ヨドバシゴールドポイント</title>
<polygon fill="none" stroke="#000000" points="791,-1538 603,-1538 603,-1502 791,-1502 791,-1538"/>
<text text-anchor="middle" x="697" y="-1516.3" font-family="Times,serif" font-size="14.00" fill="#000000">ヨドバシゴールドポイント</text>
</g>
<!-- ヨドバシゴールドポイント&#45;&gt;ヨドバシカメラ -->
<g id="edge48" class="edge">
<title>ヨドバシゴールドポイント&#45;&gt;ヨドバシカメラ</title>
<path fill="none" stroke="#000000" d="M778.7694,-1538.0605C795.0029,-1540.95 811.9798,-1543.485 828,-1545 866.9374,-1548.6822 877.0421,-1548.4582 916,-1545 924.7307,-1544.225 933.8601,-1543.0569 942.8608,-1541.6886"/>
<polygon fill="#000000" stroke="#000000" points="943.6219,-1545.1113 952.94,-1540.0691 942.5114,-1538.1999 943.6219,-1545.1113"/>
</g>
<!-- はぴeポイント -->
<g id="node30" class="node">
<title>はぴeポイント</title>
<polygon fill="none" stroke="#000000" points="752,-835 642,-835 642,-799 752,-799 752,-835"/>
<text text-anchor="middle" x="697" y="-813.3" font-family="Times,serif" font-size="14.00" fill="#000000">はぴeポイント</text>
</g>
<!-- はぴeポイント&#45;&gt;関西電力 -->
<g id="edge37" class="edge">
<title>はぴeポイント&#45;&gt;関西電力</title>
<path fill="none" stroke="#000000" d="M752.3375,-824.5368C796.8788,-829.1634 860.9119,-832.5609 916,-823 932.1403,-820.1987 949.1656,-814.9071 964.2754,-809.3183"/>
<polygon fill="#000000" stroke="#000000" points="965.8168,-812.4757 973.8996,-805.6259 963.3094,-805.9402 965.8168,-812.4757"/>
</g>
<!-- 株主優待券&#45;&gt;住信SBI銀行 -->
<g id="edge30" class="edge">
<title>株主優待券&#45;&gt;住信SBI銀行</title>
<path fill="none" stroke="#000000" d="M827.9213,-1847.5185C723.7962,-1846.4053 454.8264,-1828.5577 235,-1783 218.441,-1779.5683 200.5354,-1774.3602 185.2258,-1768.795"/>
<polygon fill="#000000" stroke="#000000" points="186.1708,-1765.4091 175.5804,-1765.1015 183.6674,-1771.9462 186.1708,-1765.4091"/>
</g>
<!-- 株主優待券&#45;&gt;電車 -->
<g id="edge29" class="edge">
<title>株主優待券&#45;&gt;電車</title>
<path fill="none" stroke="#000000" stroke-width="2" d="M890.4581,-1826.9403C914.7591,-1803.1638 957.615,-1761.2328 985.1375,-1734.3043"/>
<polygon fill="#000000" stroke="#000000" stroke-width="2" points="987.7655,-1736.6297 992.4655,-1727.1344 982.87,-1731.6263 987.7655,-1736.6297"/>
</g>
<!-- 昼間回数券&#45;&gt;現金 -->
<g id="edge72" class="edge">
<title>昼間回数券&#45;&gt;現金</title>
<path fill="none" stroke="#000000" d="M827.7153,-1905.5271C752.418,-1908.587 600.7783,-1908.4879 530.4271,-1905.2297"/>
<polygon fill="#000000" stroke="#000000" points="530.4244,-1901.7249 520.2567,-1904.7029 530.0623,-1908.7156 530.4244,-1901.7249"/>
</g>
<!-- 昼間回数券&#45;&gt;バス -->
<g id="edge73" class="edge">
<title>昼間回数券&#45;&gt;バス</title>
<path fill="none" stroke="#000000" stroke-width="2" d="M900.1761,-1882.9449C905.4882,-1879.3962 910.9567,-1875.6426 916,-1872 938.4067,-1855.8164 962.8679,-1836.4634 981.3569,-1821.4703"/>
<polygon fill="#000000" stroke="#000000" stroke-width="2" points="983.6038,-1824.1543 989.1467,-1815.1251 979.1829,-1818.727 983.6038,-1824.1543"/>
</g>
<!-- 電車&#45;&gt;PiTaPa -->
<g id="edge67" class="edge">
<title>電車&#45;&gt;PiTaPa</title>
<path fill="none" stroke="#000000" d="M983.8123,-1695.2763C956.333,-1682.6921 912.2901,-1666 872,-1666 493,-1666 493,-1666 493,-1666 440.7497,-1666 387.7639,-1698.8139 356.1461,-1722.6707"/>
<polygon fill="#000000" stroke="#000000" points="353.9638,-1719.9338 348.1975,-1728.822 358.248,-1725.4697 353.9638,-1719.9338"/>
<text text-anchor="middle" x="697" y="-1669.8" font-family="Times,serif" font-size="14.00" fill="#000000">10%</text>
</g>
<!-- バス&#45;&gt;PiTaPa -->
<g id="edge69" class="edge">
<title>バス&#45;&gt;PiTaPa</title>
<path fill="none" stroke="#000000" d="M983.7629,-1795.9112C901.2771,-1792.4808 646.9867,-1780.9272 437,-1761 414.7025,-1758.884 389.9525,-1755.7998 369.5845,-1753.0644"/>
<polygon fill="#000000" stroke="#000000" points="370.05,-1749.5955 359.6692,-1751.7141 369.1055,-1756.5315 370.05,-1749.5955"/>
<text text-anchor="middle" x="697" y="-1790.8" font-family="Times,serif" font-size="14.00" fill="#000000">10%</text>
</g>
<!-- 楽天モバイル&#45;&gt;楽天ポイント -->
<g id="edge41" class="edge">
<title>楽天モバイル&#45;&gt;楽天ポイント</title>
<path fill="none" stroke="#000000" d="M992.9173,-653.9878C975.0913,-637.6086 946.2034,-614.5793 916,-605 864.3818,-588.6288 802.7673,-596.8319 758.0609,-607.4112"/>
<polygon fill="#000000" stroke="#000000" points="757.0878,-604.0463 748.2192,-609.8427 758.7668,-610.842 757.0878,-604.0463"/>
<text text-anchor="middle" x="872" y="-608.8" font-family="Times,serif" font-size="14.00" fill="#000000">0.5%</text>
</g>
<!-- 関西電力&#45;&gt;はぴeポイント -->
<g id="edge36" class="edge">
<title>関西電力&#45;&gt;はぴeポイント</title>
<path fill="none" stroke="#000000" d="M973.741,-792.3225C921.5961,-796.9723 826.0699,-805.4906 762.0472,-811.1996"/>
<polygon fill="#000000" stroke="#000000" points="761.7035,-807.7163 752.0539,-812.0907 762.3253,-814.6886 761.7035,-807.7163"/>
<text text-anchor="middle" x="872" y="-809.8" font-family="Times,serif" font-size="14.00" fill="#000000">0.5%</text>
</g>
<!-- ビックカメラ&#45;&gt;ビックポイント -->
<g id="edge14" class="edge">
<title>ビックカメラ&#45;&gt;ビックポイント</title>
<path fill="none" stroke="#000000" stroke-dasharray="5,2" d="M984.455,-1401.8604C966.0874,-1390.3113 940.6106,-1376.2124 916,-1369 867.0435,-1354.6528 809.4503,-1350.658 765.6153,-1350.1138"/>
<polygon fill="#000000" stroke="#000000" points="765.3725,-1346.6122 755.3495,-1350.0459 765.3261,-1353.6121 765.3725,-1346.6122"/>
<text text-anchor="middle" x="872" y="-1372.8" font-family="Times,serif" font-size="14.00" fill="#000000">9.5%</text>
</g>
<!-- ヨドバシカメラ&#45;&gt;ヨドバシゴールドポイント -->
<g id="edge47" class="edge">
<title>ヨドバシカメラ&#45;&gt;ヨドバシゴールドポイント</title>
<path fill="none" stroke="#000000" d="M952.8841,-1526.5193C910.5098,-1525.4397 851.9271,-1523.9472 801.507,-1522.6626"/>
<polygon fill="#000000" stroke="#000000" points="801.2963,-1519.1562 791.2104,-1522.4003 801.1179,-1526.1539 801.2963,-1519.1562"/>
<text text-anchor="middle" x="872" y="-1529.8" font-family="Times,serif" font-size="14.00" fill="#000000">10%</text>
</g>
<!-- FRESCO&#45;&gt;FRESCOポイント -->
<g id="edge63" class="edge">
<title>FRESCO&#45;&gt;FRESCOポイント</title>
<path fill="none" stroke="#000000" d="M970.717,-1071.3587C959.2793,-1074.3859 946.741,-1077.2548 935,-1079 882.2263,-1086.8443 822.1884,-1089.0675 775.6161,-1089.3432"/>
<polygon fill="#000000" stroke="#000000" points="775.5792,-1085.8432 765.59,-1089.3738 775.6007,-1092.8431 775.5792,-1085.8432"/>
<text text-anchor="middle" x="872" y="-1092.8" font-family="Times,serif" font-size="14.00" fill="#000000">0.5%</text>
</g>
<!-- Amazon&#45;&gt;Amazonポイント -->
<g id="edge55" class="edge">
<title>Amazon&#45;&gt;Amazonポイント</title>
<path fill="none" stroke="#000000" d="M973.9477,-428.6914C961.5817,-431.4667 947.7153,-433.9484 935,-436 880.8067,-444.7442 819.44,-453.2185 772.5946,-458.1673"/>
<polygon fill="#000000" stroke="#000000" points="772.1173,-454.6978 762.5259,-459.1985 772.8305,-461.6614 772.1173,-454.6978"/>
</g>
<!-- じゃらん&#45;&gt;Ponta -->
<g id="edge54" class="edge">
<title>じゃらん&#45;&gt;Ponta</title>
<path fill="none" stroke="#000000" d="M973.9639,-319.1662C936.8314,-320.7729 878.1298,-324.5052 828,-333 796.4024,-338.3544 761.2881,-347.6547 735.374,-355.1763"/>
<polygon fill="#000000" stroke="#000000" points="734.1738,-351.8811 725.5703,-358.0642 736.1518,-358.5958 734.1738,-351.8811"/>
<text text-anchor="middle" x="872" y="-336.8" font-family="Times,serif" font-size="14.00" fill="#000000">2%</text>
</g>
</g>
</svg>
