<?xml version="1.0" encoding="UTF-8" standalone="no"?>
<!DOCTYPE svg PUBLIC "-//W3C//DTD SVG 1.1//EN"
 "http://www.w3.org/Graphics/SVG/1.1/DTD/svg11.dtd">
<!-- Generated by graphviz version 2.40.1 (0)
 -->
<!-- Title: MoneyFlow Pages: 1 -->
<svg width="1072pt" height="1860pt"
 viewBox="0.00 0.00 1072.00 1860.00" xmlns="http://www.w3.org/2000/svg" xmlns:xlink="http://www.w3.org/1999/xlink">
<g id="graph0" class="graph" transform="scale(1 1) rotate(0) translate(4 1856)">
<title>MoneyFlow</title>
<polygon fill="#ffffff" stroke="transparent" points="-4,4 -4,-1856 1068,-1856 1068,4 -4,4"/>
<!-- 収入 -->
<g id="node1" class="node">
<title>収入</title>
<text text-anchor="middle" x="27" y="-14.3" font-family="Times,serif" font-size="14.00" fill="#000000">収入</text>
</g>
<!-- 銀行口座 -->
<g id="node2" class="node">
<title>銀行口座</title>
<text text-anchor="middle" x="142" y="-14.3" font-family="Times,serif" font-size="14.00" fill="#000000">銀行口座</text>
</g>
<!-- 収入&#45;&gt;銀行口座 -->
<g id="edge1" class="edge">
<title>収入&#45;&gt;銀行口座</title>
<path fill="none" stroke="#000000" d="M54.2534,-18C69.3972,-18 88.4539,-18 104.9357,-18"/>
</g>
<!-- クレジットカード -->
<g id="node3" class="node">
<title>クレジットカード</title>
<text text-anchor="middle" x="322" y="-14.3" font-family="Times,serif" font-size="14.00" fill="#000000">クレジットカード</text>
</g>
<!-- 銀行口座&#45;&gt;クレジットカード -->
<g id="edge2" class="edge">
<title>銀行口座&#45;&gt;クレジットカード</title>
<path fill="none" stroke="#000000" d="M179.2961,-18C201.6417,-18 230.6798,-18 256.7236,-18"/>
</g>
<!-- マネー -->
<g id="node4" class="node">
<title>マネー</title>
<text text-anchor="middle" x="485" y="-14.3" font-family="Times,serif" font-size="14.00" fill="#000000">マネー</text>
</g>
<!-- クレジットカード&#45;&gt;マネー -->
<g id="edge3" class="edge">
<title>クレジットカード&#45;&gt;マネー</title>
<path fill="none" stroke="#000000" d="M387.3591,-18C410.9188,-18 436.353,-18 455.3549,-18"/>
</g>
<!-- ポイント -->
<g id="node5" class="node">
<title>ポイント</title>
<text text-anchor="middle" x="692" y="-14.3" font-family="Times,serif" font-size="14.00" fill="#000000">ポイント</text>
</g>
<!-- マネー&#45;&gt;ポイント -->
<g id="edge4" class="edge">
<title>マネー&#45;&gt;ポイント</title>
<path fill="none" stroke="#000000" d="M514.6581,-18C551.5493,-18 614.5569,-18 654.6899,-18"/>
</g>
<!-- 金券 -->
<g id="node6" class="node">
<title>金券</title>
<text text-anchor="middle" x="870" y="-14.3" font-family="Times,serif" font-size="14.00" fill="#000000">金券</text>
</g>
<!-- ポイント&#45;&gt;金券 -->
<g id="edge5" class="edge">
<title>ポイント&#45;&gt;金券</title>
<path fill="none" stroke="#000000" d="M729.3146,-18C763.262,-18 812.5623,-18 842.8847,-18"/>
</g>
<!-- 支出 -->
<g id="node7" class="node">
<title>支出</title>
<text text-anchor="middle" x="1006" y="-14.3" font-family="Times,serif" font-size="14.00" fill="#000000">支出</text>
</g>
<!-- 金券&#45;&gt;支出 -->
<g id="edge6" class="edge">
<title>金券&#45;&gt;支出</title>
<path fill="none" stroke="#000000" d="M897.1948,-18C920.9147,-18 955.1464,-18 978.8524,-18"/>
</g>
<!-- 給与 -->
<g id="node8" class="node">
<title>給与</title>
<polygon fill="none" stroke="#000000" points="54,-1446 0,-1446 0,-1410 54,-1410 54,-1446"/>
<text text-anchor="middle" x="27" y="-1424.3" font-family="Times,serif" font-size="14.00" fill="#000000">給与</text>
</g>
<!-- 三井住友銀行 -->
<g id="node9" class="node">
<title>三井住友銀行</title>
<polygon fill="none" stroke="#000000" points="193,-1446 91,-1446 91,-1410 193,-1410 193,-1446"/>
<text text-anchor="middle" x="142" y="-1424.3" font-family="Times,serif" font-size="14.00" fill="#000000">三井住友銀行</text>
</g>
<!-- 給与&#45;&gt;三井住友銀行 -->
<g id="edge7" class="edge">
<title>給与&#45;&gt;三井住友銀行</title>
<path fill="none" stroke="#000000" stroke-width="2" d="M54.2534,-1428C62.2529,-1428 71.3442,-1428 80.571,-1428"/>
<polygon fill="#000000" stroke="#000000" stroke-width="2" points="80.5912,-1431.5001 90.5911,-1428 80.5911,-1424.5001 80.5912,-1431.5001"/>
</g>
<!-- 住信SBI銀行 -->
<g id="node10" class="node">
<title>住信SBI銀行</title>
<polygon fill="none" stroke="#000000" points="192,-1225 92,-1225 92,-1189 192,-1189 192,-1225"/>
<text text-anchor="middle" x="142" y="-1203.3" font-family="Times,serif" font-size="14.00" fill="#000000">住信SBI銀行</text>
</g>
<!-- 三井住友銀行&#45;&gt;住信SBI銀行 -->
<g id="edge9" class="edge">
<title>三井住友銀行&#45;&gt;住信SBI銀行</title>
<path fill="none" stroke="#000000" stroke-width="2" d="M142,-1409.7733C142,-1351.5911 142,-1293.4089 142,-1235.2266"/>
<polygon fill="#000000" stroke="#000000" stroke-width="2" points="145.5001,-1235.1289 142,-1225.1289 138.5001,-1235.1289 145.5001,-1235.1289"/>
</g>
<!-- 三井住友VISAカード -->
<g id="node11" class="node">
<title>三井住友VISAカード</title>
<polygon fill="none" stroke="#000000" points="398.5,-1745 245.5,-1745 245.5,-1709 398.5,-1709 398.5,-1745"/>
<text text-anchor="middle" x="322" y="-1723.3" font-family="Times,serif" font-size="14.00" fill="#000000">三井住友VISAカード</text>
</g>
<!-- 三井住友銀行&#45;&gt;三井住友VISAカード -->
<g id="edge13" class="edge">
<title>三井住友銀行&#45;&gt;三井住友VISAカード</title>
<path fill="none" stroke="#000000" stroke-width="2" d="M147.7877,-1446.1667C158.0666,-1477.1523 181.2538,-1541.6542 211,-1591 236.0961,-1632.6318 273.0089,-1675.1799 297.2717,-1701.3417"/>
<polygon fill="#000000" stroke="#000000" stroke-width="2" points="294.9769,-1704.0114 304.3683,-1708.9156 300.0849,-1699.2252 294.9769,-1704.0114"/>
</g>
<!-- 現金 -->
<g id="node16" class="node">
<title>現金</title>
<polygon fill="none" stroke="#000000" points="512,-1595 458,-1595 458,-1559 512,-1559 512,-1595"/>
<text text-anchor="middle" x="485" y="-1573.3" font-family="Times,serif" font-size="14.00" fill="#000000">現金</text>
</g>
<!-- 三井住友銀行&#45;&gt;現金 -->
<g id="edge8" class="edge">
<title>三井住友銀行&#45;&gt;現金</title>
<path fill="none" stroke="#000000" stroke-width="2" d="M146.2321,-1446.1979C153.8509,-1474.4316 172.7714,-1528.1232 211,-1553 283.7564,-1600.3453 391.3451,-1592.553 447.6114,-1584.0557"/>
<polygon fill="#000000" stroke="#000000" stroke-width="2" points="448.5076,-1587.4569 457.8278,-1582.4186 447.3999,-1580.545 448.5076,-1587.4569"/>
</g>
<!-- 関西電力 -->
<g id="node39" class="node">
<title>関西電力</title>
<polygon fill="none" stroke="#000000" points="1043,-183 969,-183 969,-147 1043,-147 1043,-183"/>
<text text-anchor="middle" x="1006" y="-161.3" font-family="Times,serif" font-size="14.00" fill="#000000">関西電力</text>
</g>
<!-- 三井住友銀行&#45;&gt;関西電力 -->
<g id="edge10" class="edge">
<title>三井住友銀行&#45;&gt;関西電力</title>
<path fill="none" stroke="#000000" stroke-width="2" d="M148.0225,-1409.7927C159.0148,-1375.7184 182.1905,-1299.8079 193,-1234 268.2344,-775.9735 109.7868,-536.6777 451,-222 524.252,-154.4447 838.2693,-158.6606 958.7159,-162.9181"/>
<polygon fill="#000000" stroke="#000000" stroke-width="2" points="958.6209,-166.4169 968.7433,-163.2887 958.8795,-159.4216 958.6209,-166.4169"/>
</g>
<!-- ビックカメラSuicaカード -->
<g id="node12" class="node">
<title>ビックカメラSuicaカード</title>
<polygon fill="none" stroke="#000000" points="414,-1422 230,-1422 230,-1386 414,-1386 414,-1422"/>
<text text-anchor="middle" x="322" y="-1400.3" font-family="Times,serif" font-size="14.00" fill="#000000">ビックカメラSuicaカード</text>
</g>
<!-- 住信SBI銀行&#45;&gt;ビックカメラSuicaカード -->
<g id="edge34" class="edge">
<title>住信SBI銀行&#45;&gt;ビックカメラSuicaカード</title>
<path fill="none" stroke="#000000" stroke-width="2" d="M158.6113,-1225.1802C190.7589,-1260.3639 261.5604,-1337.8523 298.5114,-1378.2931"/>
<polygon fill="#000000" stroke="#000000" stroke-width="2" points="296.0996,-1380.8422 305.4288,-1385.8638 301.2673,-1376.1204 296.0996,-1380.8422"/>
</g>
<!-- リクルートカード -->
<g id="node13" class="node">
<title>リクルートカード</title>
<polygon fill="none" stroke="#000000" points="386.5,-740 257.5,-740 257.5,-704 386.5,-704 386.5,-740"/>
<text text-anchor="middle" x="322" y="-718.3" font-family="Times,serif" font-size="14.00" fill="#000000">リクルートカード</text>
</g>
<!-- 住信SBI銀行&#45;&gt;リクルートカード -->
<g id="edge35" class="edge">
<title>住信SBI銀行&#45;&gt;リクルートカード</title>
<path fill="none" stroke="#000000" stroke-width="2" d="M148.7277,-1188.8726C176.0442,-1115.2697 278.7744,-838.469 311.7456,-749.63"/>
<polygon fill="#000000" stroke="#000000" stroke-width="2" points="315.0403,-750.8114 315.2385,-740.2184 308.4777,-748.3758 315.0403,-750.8114"/>
</g>
<!-- 住信SBI銀行&#45;&gt;現金 -->
<g id="edge32" class="edge">
<title>住信SBI銀行&#45;&gt;現金</title>
<path fill="none" stroke="#000000" stroke-width="2" d="M144.8922,-1225.0815C152.2725,-1266.1113 175.2306,-1367.61 230,-1431 290.5972,-1501.1351 393.6273,-1545.259 448.3344,-1564.9652"/>
<polygon fill="#000000" stroke="#000000" stroke-width="2" points="447.3711,-1568.3367 457.9659,-1568.3614 449.699,-1561.7351 447.3711,-1568.3367"/>
</g>
<!-- 家賃 -->
<g id="node31" class="node">
<title>家賃</title>
<polygon fill="none" stroke="#000000" points="1033,-1212 979,-1212 979,-1176 1033,-1176 1033,-1212"/>
<text text-anchor="middle" x="1006" y="-1190.3" font-family="Times,serif" font-size="14.00" fill="#000000">家賃</text>
</g>
<!-- 住信SBI銀行&#45;&gt;家賃 -->
<g id="edge33" class="edge">
<title>住信SBI銀行&#45;&gt;家賃</title>
<path fill="none" stroke="#000000" stroke-width="2" d="M192.1736,-1196.2527C228.138,-1189.4768 277.83,-1182 322,-1182 322,-1182 322,-1182 810.5,-1182 865.6337,-1182 929.3494,-1186.8134 968.6613,-1190.3432"/>
<polygon fill="#000000" stroke="#000000" stroke-width="2" points="968.5552,-1193.8481 978.8333,-1191.277 969.1952,-1186.8774 968.5552,-1193.8481"/>
</g>
<!-- PiTaPa -->
<g id="node15" class="node">
<title>PiTaPa</title>
<polygon fill="none" stroke="#000000" points="517.5,-1771 452.5,-1771 452.5,-1735 517.5,-1735 517.5,-1771"/>
<text text-anchor="middle" x="485" y="-1749.3" font-family="Times,serif" font-size="14.00" fill="#000000">PiTaPa</text>
</g>
<!-- 三井住友VISAカード&#45;&gt;PiTaPa -->
<g id="edge15" class="edge">
<title>三井住友VISAカード&#45;&gt;PiTaPa</title>
<path fill="none" stroke="#000000" stroke-width="2" d="M398.727,-1739.2387C413.5824,-1741.6082 428.6499,-1744.0116 441.9463,-1746.1325"/>
<polygon fill="#000000" stroke="#000000" stroke-width="2" points="441.7657,-1749.6479 452.1922,-1747.7669 442.8684,-1742.7353 441.7657,-1749.6479"/>
</g>
<!-- ワールドプレゼントポイント -->
<g id="node22" class="node">
<title>ワールドプレゼントポイント</title>
<polygon fill="none" stroke="#000000" points="792,-1725 592,-1725 592,-1689 792,-1689 792,-1725"/>
<text text-anchor="middle" x="692" y="-1703.3" font-family="Times,serif" font-size="14.00" fill="#000000">ワールドプレゼントポイント</text>
</g>
<!-- 三井住友VISAカード&#45;&gt;ワールドプレゼントポイント -->
<g id="edge14" class="edge">
<title>三井住友VISAカード&#45;&gt;ワールドプレゼントポイント</title>
<path fill="none" stroke="#000000" stroke-dasharray="5,2" d="M398.6084,-1716.1314C415.8117,-1714.0721 434.0033,-1712.1917 451,-1711 493.7095,-1708.0055 540.7753,-1706.7657 581.8933,-1706.3563"/>
<polygon fill="#000000" stroke="#000000" points="581.967,-1709.8559 591.9371,-1706.2714 581.9078,-1702.8561 581.967,-1709.8559"/>
<text text-anchor="middle" x="485" y="-1714.8" font-family="Times,serif" font-size="14.00" fill="#000000">0.5%</text>
</g>
<!-- Suica -->
<g id="node14" class="node">
<title>Suica</title>
<polygon fill="none" stroke="#000000" points="513,-1384 457,-1384 457,-1348 513,-1348 513,-1384"/>
<text text-anchor="middle" x="485" y="-1362.3" font-family="Times,serif" font-size="14.00" fill="#000000">Suica</text>
</g>
<!-- ビックカメラSuicaカード&#45;&gt;Suica -->
<g id="edge24" class="edge">
<title>ビックカメラSuicaカード&#45;&gt;Suica</title>
<path fill="none" stroke="#000000" stroke-width="2" d="M399.6809,-1385.8903C416.1764,-1382.0448 432.8809,-1378.1505 447.0837,-1374.8394"/>
<polygon fill="#000000" stroke="#000000" stroke-width="2" points="448.0003,-1378.2196 456.9445,-1372.5405 446.411,-1371.4024 448.0003,-1378.2196"/>
</g>
<!-- JREポイント -->
<g id="node23" class="node">
<title>JREポイント</title>
<polygon fill="none" stroke="#000000" points="742.5,-1284 641.5,-1284 641.5,-1248 742.5,-1248 742.5,-1284"/>
<text text-anchor="middle" x="692" y="-1262.3" font-family="Times,serif" font-size="14.00" fill="#000000">JREポイント</text>
</g>
<!-- ビックカメラSuicaカード&#45;&gt;JREポイント -->
<g id="edge19" class="edge">
<title>ビックカメラSuicaカード&#45;&gt;JREポイント</title>
<path fill="none" stroke="#000000" d="M346.8802,-1385.8216C385.3696,-1358.8721 462.6865,-1309.3198 537,-1289 567.6329,-1280.6239 602.5587,-1275.1043 631.4927,-1271.5777"/>
<polygon fill="#000000" stroke="#000000" points="631.9345,-1275.05 641.4602,-1270.4121 631.1213,-1268.0974 631.9345,-1275.05"/>
<text text-anchor="middle" x="485" y="-1326.8" font-family="Times,serif" font-size="14.00" fill="#000000">0.5%</text>
</g>
<!-- ビックポイント -->
<g id="node24" class="node">
<title>ビックポイント</title>
<polygon fill="none" stroke="#000000" points="750,-1600 634,-1600 634,-1564 750,-1564 750,-1600"/>
<text text-anchor="middle" x="692" y="-1578.3" font-family="Times,serif" font-size="14.00" fill="#000000">ビックポイント</text>
</g>
<!-- ビックカメラSuicaカード&#45;&gt;ビックポイント -->
<g id="edge22" class="edge">
<title>ビックカメラSuicaカード&#45;&gt;ビックポイント</title>
<path fill="none" stroke="#000000" d="M339.9433,-1422.1879C360.5576,-1442.1976 396.1735,-1474.1458 432,-1494 493.2135,-1527.9231 569.7595,-1551.8854 623.9013,-1566.1513"/>
<polygon fill="#000000" stroke="#000000" points="623.1829,-1569.5808 633.7412,-1568.7025 624.9397,-1562.8048 623.1829,-1569.5808"/>
<text text-anchor="middle" x="485" y="-1534.8" font-family="Times,serif" font-size="14.00" fill="#000000">0.5%</text>
</g>
<!-- ビックカメラ -->
<g id="node43" class="node">
<title>ビックカメラ</title>
<polygon fill="none" stroke="#000000" points="1056.5,-1546 955.5,-1546 955.5,-1510 1056.5,-1510 1056.5,-1546"/>
<text text-anchor="middle" x="1006" y="-1524.3" font-family="Times,serif" font-size="14.00" fill="#000000">ビックカメラ</text>
</g>
<!-- ビックカメラSuicaカード&#45;&gt;ビックカメラ -->
<g id="edge20" class="edge">
<title>ビックカメラSuicaカード&#45;&gt;ビックカメラ</title>
<path fill="none" stroke="#000000" stroke-width="2" stroke-dasharray="5,2" d="M404.1151,-1422.1598C407.5125,-1423.6503 410.8229,-1425.2606 414,-1427 423.6521,-1432.2843 423.4212,-1437.1087 432,-1444 454.2,-1461.8332 456.5243,-1480 485,-1480 485,-1480 485,-1480 810.5,-1480 858.6668,-1480 911.6336,-1493.9119 950.2718,-1506.7565"/>
<polygon fill="#000000" stroke="#000000" stroke-width="2" points="949.1803,-1510.0821 959.7747,-1509.99 951.4352,-1503.4553 949.1803,-1510.0821"/>
</g>
<!-- EX予約 -->
<g id="node53" class="node">
<title>EX予約</title>
<polygon fill="none" stroke="#000000" points="1039,-1438 973,-1438 973,-1402 1039,-1402 1039,-1438"/>
<text text-anchor="middle" x="1006" y="-1416.3" font-family="Times,serif" font-size="14.00" fill="#000000">EX予約</text>
</g>
<!-- ビックカメラSuicaカード&#45;&gt;EX予約 -->
<g id="edge29" class="edge">
<title>ビックカメラSuicaカード&#45;&gt;EX予約</title>
<path fill="none" stroke="#000000" stroke-width="2" stroke-dasharray="5,2" d="M396.3063,-1422.1097C437.0187,-1431.897 480.2055,-1442 485,-1442 485,-1442 485,-1442 870,-1442 901.4947,-1442 936.5717,-1436.1794 963.2131,-1430.526"/>
<polygon fill="#000000" stroke="#000000" stroke-width="2" points="963.969,-1433.9435 972.9856,-1428.38 962.4675,-1427.1064 963.969,-1433.9435"/>
</g>
<!-- nanaco -->
<g id="node17" class="node">
<title>nanaco</title>
<polygon fill="none" stroke="#000000" points="519,-267 451,-267 451,-231 519,-231 519,-267"/>
<text text-anchor="middle" x="485" y="-245.3" font-family="Times,serif" font-size="14.00" fill="#000000">nanaco</text>
</g>
<!-- リクルートカード&#45;&gt;nanaco -->
<g id="edge58" class="edge">
<title>リクルートカード&#45;&gt;nanaco</title>
<path fill="none" stroke="#000000" stroke-width="2" d="M329.1771,-703.8698C346.6209,-659.039 391.4618,-539.0663 414,-435 421.2931,-401.3255 413.3494,-309.971 432,-281 434.8363,-276.5941 438.5144,-272.7059 442.6107,-269.2978"/>
<polygon fill="#000000" stroke="#000000" stroke-width="2" points="444.8283,-272.0138 450.8924,-263.326 440.7341,-266.336 444.8283,-272.0138"/>
</g>
<!-- Edy -->
<g id="node18" class="node">
<title>Edy</title>
<polygon fill="none" stroke="#000000" points="512,-740 458,-740 458,-704 512,-704 512,-740"/>
<text text-anchor="middle" x="485" y="-718.3" font-family="Times,serif" font-size="14.00" fill="#000000">Edy</text>
</g>
<!-- リクルートカード&#45;&gt;Edy -->
<g id="edge43" class="edge">
<title>リクルートカード&#45;&gt;Edy</title>
<path fill="none" stroke="#000000" stroke-width="2" d="M386.8903,-722C407.522,-722 429.6367,-722 447.6378,-722"/>
<polygon fill="#000000" stroke="#000000" stroke-width="2" points="447.7189,-725.5001 457.7189,-722 447.7189,-718.5001 447.7189,-725.5001"/>
</g>
<!-- Ponta -->
<g id="node19" class="node">
<title>Ponta</title>
<polygon fill="none" stroke="#000000" points="720.5,-556 663.5,-556 663.5,-520 720.5,-520 720.5,-556"/>
<text text-anchor="middle" x="692" y="-534.3" font-family="Times,serif" font-size="14.00" fill="#000000">Ponta</text>
</g>
<!-- リクルートカード&#45;&gt;Ponta -->
<g id="edge53" class="edge">
<title>リクルートカード&#45;&gt;Ponta</title>
<path fill="none" stroke="#000000" d="M336.2649,-703.8609C367.6535,-665.5625 447.108,-577.171 537,-543 574.5338,-528.7321 620.9417,-529.3916 653.145,-532.4282"/>
<polygon fill="#000000" stroke="#000000" points="653.1734,-535.951 663.4882,-533.531 653.9156,-528.9905 653.1734,-535.951"/>
<text text-anchor="middle" x="485" y="-593.8" font-family="Times,serif" font-size="14.00" fill="#000000">1.2%</text>
</g>
<!-- NHK -->
<g id="node36" class="node">
<title>NHK</title>
<polygon fill="none" stroke="#000000" points="1033,-1035 979,-1035 979,-999 1033,-999 1033,-1035"/>
<text text-anchor="middle" x="1006" y="-1013.3" font-family="Times,serif" font-size="14.00" fill="#000000">NHK</text>
</g>
<!-- リクルートカード&#45;&gt;NHK -->
<g id="edge36" class="edge">
<title>リクルートカード&#45;&gt;NHK</title>
<path fill="none" stroke="#000000" stroke-width="2" d="M323.3157,-740.0095C329.0613,-804.0584 357.7334,-1017 485,-1017 485,-1017 485,-1017 870,-1017 903.3507,-1017 941.3018,-1017 968.6235,-1017"/>
<polygon fill="#000000" stroke="#000000" stroke-width="2" points="968.9063,-1020.5001 978.9063,-1017 968.9062,-1013.5001 968.9063,-1020.5001"/>
</g>
<!-- NTT -->
<g id="node37" class="node">
<title>NTT</title>
<polygon fill="none" stroke="#000000" points="1033,-1143 979,-1143 979,-1107 1033,-1107 1033,-1143"/>
<text text-anchor="middle" x="1006" y="-1121.3" font-family="Times,serif" font-size="14.00" fill="#000000">NTT</text>
</g>
<!-- リクルートカード&#45;&gt;NTT -->
<g id="edge37" class="edge">
<title>リクルートカード&#45;&gt;NTT</title>
<path fill="none" stroke="#000000" stroke-width="2" d="M325.504,-740.0061C340.7818,-815.9243 404.4281,-1106 485,-1106 485,-1106 485,-1106 870,-1106 903.7179,-1106 941.6897,-1111.7992 968.9237,-1116.9898"/>
<polygon fill="#000000" stroke="#000000" stroke-width="2" points="968.3164,-1120.4374 978.8044,-1118.936 969.6693,-1113.5694 968.3164,-1120.4374"/>
</g>
<!-- ASAHIネット -->
<g id="node38" class="node">
<title>ASAHIネット</title>
<polygon fill="none" stroke="#000000" points="1060.5,-908 951.5,-908 951.5,-872 1060.5,-872 1060.5,-908"/>
<text text-anchor="middle" x="1006" y="-886.3" font-family="Times,serif" font-size="14.00" fill="#000000">ASAHIネット</text>
</g>
<!-- リクルートカード&#45;&gt;ASAHIネット -->
<g id="edge38" class="edge">
<title>リクルートカード&#45;&gt;ASAHIネット</title>
<path fill="none" stroke="#000000" stroke-width="2" d="M329.3198,-740.2988C348.0803,-783.8407 402.3002,-890 485,-890 485,-890 485,-890 870,-890 893.2394,-890 918.7126,-890 941.2666,-890"/>
<polygon fill="#000000" stroke="#000000" stroke-width="2" points="941.4053,-893.5001 951.4053,-890 941.4053,-886.5001 941.4053,-893.5001"/>
</g>
<!-- アイハート -->
<g id="node41" class="node">
<title>アイハート</title>
<polygon fill="none" stroke="#000000" points="1049,-854 963,-854 963,-818 1049,-818 1049,-854"/>
<text text-anchor="middle" x="1006" y="-832.3" font-family="Times,serif" font-size="14.00" fill="#000000">アイハート</text>
</g>
<!-- リクルートカード&#45;&gt;アイハート -->
<g id="edge42" class="edge">
<title>リクルートカード&#45;&gt;アイハート</title>
<path fill="none" stroke="#000000" stroke-width="2" d="M332.973,-740.0759C356.1968,-775.7964 414.0547,-852 485,-852 485,-852 485,-852 870,-852 897.477,-852 927.8641,-848.7388 952.9332,-845.1611"/>
<polygon fill="#000000" stroke="#000000" stroke-width="2" points="953.5926,-848.6016 962.9707,-843.672 952.5653,-841.6774 953.5926,-848.6016"/>
</g>
<!-- Amazon -->
<g id="node51" class="node">
<title>Amazon</title>
<polygon fill="none" stroke="#000000" points="1043,-367 969,-367 969,-331 1043,-331 1043,-367"/>
<text text-anchor="middle" x="1006" y="-345.3" font-family="Times,serif" font-size="14.00" fill="#000000">Amazon</text>
</g>
<!-- リクルートカード&#45;&gt;Amazon -->
<g id="edge40" class="edge">
<title>リクルートカード&#45;&gt;Amazon</title>
<path fill="none" stroke="#000000" stroke-width="2" d="M327.5508,-703.7595C351.2089,-626.8527 444.2692,-333 485,-333 485,-333 485,-333 870,-333 899.6979,-333 932.7954,-336.8097 958.9035,-340.7111"/>
<polygon fill="#000000" stroke="#000000" stroke-width="2" points="958.4887,-344.1885 968.9067,-342.2609 959.5605,-337.2711 958.4887,-344.1885"/>
</g>
<!-- iTunes -->
<g id="node52" class="node">
<title>iTunes</title>
<polygon fill="none" stroke="#000000" points="1038.5,-313 973.5,-313 973.5,-277 1038.5,-277 1038.5,-313"/>
<text text-anchor="middle" x="1006" y="-291.3" font-family="Times,serif" font-size="14.00" fill="#000000">iTunes</text>
</g>
<!-- リクルートカード&#45;&gt;iTunes -->
<g id="edge39" class="edge">
<title>リクルートカード&#45;&gt;iTunes</title>
<path fill="none" stroke="#000000" stroke-width="2" stroke-dasharray="5,2" d="M327.8627,-703.7522C352.394,-627.4481 445.7753,-337.4972 451,-329 462.1933,-310.7956 463.6297,-295 485,-295 485,-295 485,-295 870,-295 901.1621,-295 936.3405,-295 963.1115,-295"/>
<polygon fill="#000000" stroke="#000000" stroke-width="2" points="963.299,-298.5001 973.299,-295 963.2989,-291.5001 963.299,-298.5001"/>
</g>
<!-- じゃらん -->
<g id="node54" class="node">
<title>じゃらん</title>
<polygon fill="none" stroke="#000000" points="1043,-531 969,-531 969,-495 1043,-495 1043,-531"/>
<text text-anchor="middle" x="1006" y="-509.3" font-family="Times,serif" font-size="14.00" fill="#000000">じゃらん</text>
</g>
<!-- リクルートカード&#45;&gt;じゃらん -->
<g id="edge41" class="edge">
<title>リクルートカード&#45;&gt;じゃらん</title>
<path fill="none" stroke="#000000" stroke-width="2" d="M323.3157,-703.9905C329.0613,-639.9416 357.7334,-427 485,-427 485,-427 485,-427 810.5,-427 818.4962,-427 904.5008,-466.0567 959.742,-491.5291"/>
<polygon fill="#000000" stroke="#000000" stroke-width="2" points="958.4532,-494.789 968.9994,-495.8033 961.3875,-488.4337 958.4532,-494.789"/>
</g>
<!-- Suica&#45;&gt;JREポイント -->
<g id="edge30" class="edge">
<title>Suica&#45;&gt;JREポイント</title>
<path fill="none" stroke="#000000" d="M498.1963,-1347.9033C507.7688,-1335.9311 521.6828,-1320.7071 537,-1311 565.388,-1293.0095 601.1996,-1281.9988 631.2471,-1275.3767"/>
<polygon fill="#000000" stroke="#000000" points="632.1255,-1278.7688 641.1971,-1273.2954 630.6923,-1271.917 632.1255,-1278.7688"/>
<text text-anchor="middle" x="555.5" y="-1314.8" font-family="Times,serif" font-size="14.00" fill="#000000">1.5%</text>
</g>
<!-- 電車 -->
<g id="node33" class="node">
<title>電車</title>
<polygon fill="none" stroke="#000000" points="1033,-1492 979,-1492 979,-1456 1033,-1456 1033,-1492"/>
<text text-anchor="middle" x="1006" y="-1470.3" font-family="Times,serif" font-size="14.00" fill="#000000">電車</text>
</g>
<!-- Suica&#45;&gt;電車 -->
<g id="edge25" class="edge">
<title>Suica&#45;&gt;電車</title>
<path fill="none" stroke="#000000" stroke-width="2" d="M513.2237,-1374.0919C520.9025,-1376.1583 529.2416,-1378.2797 537,-1380 657.7006,-1406.7641 689.895,-1403.1301 811,-1428 866.3609,-1439.3688 929.9998,-1454.8365 969.1077,-1464.6203"/>
<polygon fill="#000000" stroke="#000000" stroke-width="2" points="968.4295,-1468.0586 978.9809,-1467.1001 970.1347,-1461.2695 968.4295,-1468.0586"/>
</g>
<!-- 松屋 -->
<g id="node49" class="node">
<title>松屋</title>
<polygon fill="none" stroke="#000000" points="1033,-1384 979,-1384 979,-1348 1033,-1348 1033,-1384"/>
<text text-anchor="middle" x="1006" y="-1362.3" font-family="Times,serif" font-size="14.00" fill="#000000">松屋</text>
</g>
<!-- Suica&#45;&gt;松屋 -->
<g id="edge26" class="edge">
<title>Suica&#45;&gt;松屋</title>
<path fill="none" stroke="#000000" stroke-width="2" d="M513.0112,-1366C600.5995,-1366 869.3557,-1366 968.6359,-1366"/>
<polygon fill="#000000" stroke="#000000" stroke-width="2" points="968.7964,-1369.5001 978.7963,-1366 968.7963,-1362.5001 968.7964,-1369.5001"/>
</g>
<!-- 吉野家 -->
<g id="node50" class="node">
<title>吉野家</title>
<polygon fill="none" stroke="#000000" points="1035.5,-1089 976.5,-1089 976.5,-1053 1035.5,-1053 1035.5,-1089"/>
<text text-anchor="middle" x="1006" y="-1067.3" font-family="Times,serif" font-size="14.00" fill="#000000">吉野家</text>
</g>
<!-- Suica&#45;&gt;吉野家 -->
<g id="edge27" class="edge">
<title>Suica&#45;&gt;吉野家</title>
<path fill="none" stroke="#000000" stroke-width="2" d="M513.0742,-1348.5191C515.2505,-1346.4926 517.27,-1344.3151 519,-1342 533.8917,-1322.0726 523.3629,-1309.8061 537,-1289 555.1096,-1261.3703 562.6185,-1254.1025 592,-1239 672.8631,-1197.4353 707.7811,-1230.2586 792,-1196 867.8443,-1165.148 876.0773,-1137.1322 948,-1098 954.0962,-1094.6831 960.6719,-1091.3769 967.1297,-1088.2737"/>
<polygon fill="#000000" stroke="#000000" stroke-width="2" points="968.8787,-1091.3189 976.4374,-1083.8949 965.8987,-1084.9849 968.8787,-1091.3189"/>
</g>
<!-- 大阪地下鉄 -->
<g id="node34" class="node">
<title>大阪地下鉄</title>
<polygon fill="none" stroke="#000000" points="1050,-1825 962,-1825 962,-1789 1050,-1789 1050,-1825"/>
<text text-anchor="middle" x="1006" y="-1803.3" font-family="Times,serif" font-size="14.00" fill="#000000">大阪地下鉄</text>
</g>
<!-- PiTaPa&#45;&gt;大阪地下鉄 -->
<g id="edge16" class="edge">
<title>PiTaPa&#45;&gt;大阪地下鉄</title>
<path fill="none" stroke="#000000" stroke-width="2" d="M517.533,-1762.7089C523.9402,-1764.351 530.6465,-1765.8829 537,-1767 685.6452,-1793.1344 863.9146,-1802.379 951.6991,-1805.5014"/>
<polygon fill="#000000" stroke="#000000" stroke-width="2" points="951.5791,-1808.9993 961.6933,-1805.8442 951.8191,-1802.0034 951.5791,-1808.9993"/>
</g>
<!-- 山陽バス -->
<g id="node35" class="node">
<title>山陽バス</title>
<polygon fill="none" stroke="#000000" points="1043,-1771 969,-1771 969,-1735 1043,-1735 1043,-1771"/>
<text text-anchor="middle" x="1006" y="-1749.3" font-family="Times,serif" font-size="14.00" fill="#000000">山陽バス</text>
</g>
<!-- PiTaPa&#45;&gt;山陽バス -->
<g id="edge18" class="edge">
<title>PiTaPa&#45;&gt;山陽バス</title>
<path fill="none" stroke="#000000" stroke-width="2" stroke-dasharray="5,2" d="M517.5909,-1753C606.6488,-1753 854.3929,-1753 958.7239,-1753"/>
<polygon fill="#000000" stroke="#000000" stroke-width="2" points="958.9535,-1756.5001 968.9535,-1753 958.9535,-1749.5001 958.9535,-1756.5001"/>
</g>
<!-- 切符 -->
<g id="node30" class="node">
<title>切符</title>
<polygon fill="none" stroke="#000000" points="897,-1544 843,-1544 843,-1508 897,-1508 897,-1544"/>
<text text-anchor="middle" x="870" y="-1522.3" font-family="Times,serif" font-size="14.00" fill="#000000">切符</text>
</g>
<!-- 現金&#45;&gt;切符 -->
<g id="edge68" class="edge">
<title>現金&#45;&gt;切符</title>
<path fill="none" stroke="#000000" stroke-width="2" d="M512.1325,-1563.3173C533.6817,-1556.7906 564.6361,-1550.2298 592,-1546 677.6469,-1532.7612 779.0936,-1523.88 832.6118,-1522.7754"/>
<polygon fill="#000000" stroke="#000000" stroke-width="2" points="832.6987,-1526.2747 842.6575,-1522.6591 832.6176,-1519.2752 832.6987,-1526.2747"/>
</g>
<!-- 飲食店 -->
<g id="node46" class="node">
<title>飲食店</title>
<polygon fill="none" stroke="#000000" points="1035.5,-1679 976.5,-1679 976.5,-1643 1035.5,-1643 1035.5,-1679"/>
<text text-anchor="middle" x="1006" y="-1657.3" font-family="Times,serif" font-size="14.00" fill="#000000">飲食店</text>
</g>
<!-- 現金&#45;&gt;飲食店 -->
<g id="edge67" class="edge">
<title>現金&#45;&gt;飲食店</title>
<path fill="none" stroke="#000000" stroke-width="2" d="M512.3886,-1586.5602C533.8165,-1593.7046 564.4901,-1603.2005 592,-1609 727.625,-1637.592 891.7883,-1652.4927 966.0643,-1658.1958"/>
<polygon fill="#000000" stroke="#000000" stroke-width="2" points="966.1221,-1661.71 976.3568,-1658.971 966.6479,-1654.7298 966.1221,-1661.71"/>
</g>
<!-- nanacoポイント -->
<g id="node26" class="node">
<title>nanacoポイント</title>
<polygon fill="none" stroke="#000000" points="754.5,-229 629.5,-229 629.5,-193 754.5,-193 754.5,-229"/>
<text text-anchor="middle" x="692" y="-207.3" font-family="Times,serif" font-size="14.00" fill="#000000">nanacoポイント</text>
</g>
<!-- nanaco&#45;&gt;nanacoポイント -->
<g id="edge60" class="edge">
<title>nanaco&#45;&gt;nanacoポイント</title>
<path fill="none" stroke="#000000" d="M499.7417,-230.5732C509.1666,-220.3264 522.3471,-208.551 537,-203 562.8068,-193.2236 592.7727,-192.5499 619.4395,-195.2604"/>
<polygon fill="#000000" stroke="#000000" points="619.1398,-198.7493 629.4827,-196.453 619.9652,-191.7981 619.1398,-198.7493"/>
<text text-anchor="middle" x="555.5" y="-206.8" font-family="Times,serif" font-size="14.00" fill="#000000">1%</text>
</g>
<!-- セブンイレブン -->
<g id="node32" class="node">
<title>セブンイレブン</title>
<polygon fill="none" stroke="#000000" points="1063,-259 949,-259 949,-223 1063,-223 1063,-259"/>
<text text-anchor="middle" x="1006" y="-237.3" font-family="Times,serif" font-size="14.00" fill="#000000">セブンイレブン</text>
</g>
<!-- nanaco&#45;&gt;セブンイレブン -->
<g id="edge59" class="edge">
<title>nanaco&#45;&gt;セブンイレブン</title>
<path fill="none" stroke="#000000" stroke-width="2" d="M519.1843,-248.4751C604.1425,-247.1706 826.1002,-243.7624 938.5782,-242.0353"/>
<polygon fill="#000000" stroke="#000000" stroke-width="2" points="938.8397,-245.5318 948.7847,-241.8785 938.7322,-238.5326 938.8397,-245.5318"/>
</g>
<!-- Edy&#45;&gt;Ponta -->
<g id="edge51" class="edge">
<title>Edy&#45;&gt;Ponta</title>
<path fill="none" stroke="#000000" d="M488.4901,-703.8055C496.087,-666.1522 515.2002,-581.636 537,-563 568.9197,-535.7128 618.557,-532.2145 653.0263,-533.7552"/>
<polygon fill="#000000" stroke="#000000" points="653.0062,-537.2603 663.2003,-534.3743 653.4314,-530.2733 653.0062,-537.2603"/>
<text text-anchor="middle" x="555.5" y="-566.8" font-family="Times,serif" font-size="14.00" fill="#000000">0.5%</text>
</g>
<!-- ヤマト運輸 -->
<g id="node40" class="node">
<title>ヤマト運輸</title>
<polygon fill="none" stroke="#000000" points="1050,-664 962,-664 962,-628 1050,-628 1050,-664"/>
<text text-anchor="middle" x="1006" y="-642.3" font-family="Times,serif" font-size="14.00" fill="#000000">ヤマト運輸</text>
</g>
<!-- Edy&#45;&gt;ヤマト運輸 -->
<g id="edge44" class="edge">
<title>Edy&#45;&gt;ヤマト運輸</title>
<path fill="none" stroke="#000000" stroke-width="2" d="M503.9926,-703.7653C524.0317,-685.8906 557.4437,-659.8024 592,-649 716.0128,-610.2334 871.3148,-624.7192 951.883,-636.5812"/>
<polygon fill="#000000" stroke="#000000" stroke-width="2" points="951.3907,-640.0465 961.8023,-638.0844 952.4396,-633.1255 951.3907,-640.0465"/>
</g>
<!-- ウェルシア -->
<g id="node42" class="node">
<title>ウェルシア</title>
<polygon fill="none" stroke="#000000" points="1049.5,-718 962.5,-718 962.5,-682 1049.5,-682 1049.5,-718"/>
<text text-anchor="middle" x="1006" y="-696.3" font-family="Times,serif" font-size="14.00" fill="#000000">ウェルシア</text>
</g>
<!-- Edy&#45;&gt;ウェルシア -->
<g id="edge49" class="edge">
<title>Edy&#45;&gt;ウェルシア</title>
<path fill="none" stroke="#000000" stroke-width="2" d="M512.1049,-723.2227C566.1237,-725.0277 690.7188,-726.0192 792,-703 809.3031,-699.0673 811.5836,-691.3961 829,-688 864.7707,-681.0249 874.6275,-685.7119 911,-688 924.3534,-688.84 938.7004,-690.338 952.0964,-691.9971"/>
<polygon fill="#000000" stroke="#000000" stroke-width="2" points="951.7575,-695.4823 962.1228,-693.2891 952.6522,-688.5397 951.7575,-695.4823"/>
</g>
<!-- ヨドバシカメラ -->
<g id="node44" class="node">
<title>ヨドバシカメラ</title>
<polygon fill="none" stroke="#000000" points="1064,-1266 948,-1266 948,-1230 1064,-1230 1064,-1266"/>
<text text-anchor="middle" x="1006" y="-1244.3" font-family="Times,serif" font-size="14.00" fill="#000000">ヨドバシカメラ</text>
</g>
<!-- Edy&#45;&gt;ヨドバシカメラ -->
<g id="edge46" class="edge">
<title>Edy&#45;&gt;ヨドバシカメラ</title>
<path fill="none" stroke="#000000" stroke-width="2" d="M488.6814,-740.2015C498.5541,-785.3003 529.2311,-904.1209 592,-981 692.0715,-1103.5672 863.7262,-1188.4273 951.2335,-1226.0668"/>
<polygon fill="#000000" stroke="#000000" stroke-width="2" points="949.8845,-1229.2964 960.4564,-1229.9927 952.6261,-1222.8556 949.8845,-1229.2964"/>
</g>
<!-- 餃子の王将 -->
<g id="node45" class="node">
<title>餃子の王将</title>
<polygon fill="none" stroke="#000000" points="1050,-610 962,-610 962,-574 1050,-574 1050,-610"/>
<text text-anchor="middle" x="1006" y="-588.3" font-family="Times,serif" font-size="14.00" fill="#000000">餃子の王将</text>
</g>
<!-- Edy&#45;&gt;餃子の王将 -->
<g id="edge66" class="edge">
<title>Edy&#45;&gt;餃子の王将</title>
<path fill="none" stroke="#000000" stroke-width="2" d="M495.7073,-703.777C505.2112,-688.6594 520.1716,-667.2475 537,-652 558.1253,-632.8593 564.7898,-627.4998 592,-619 716.0278,-580.2566 870.8404,-582.7095 951.4598,-587.5369"/>
<polygon fill="#000000" stroke="#000000" stroke-width="2" points="951.6587,-591.0565 961.8606,-588.198 952.1028,-584.0706 951.6587,-591.0565"/>
</g>
<!-- FRESCO -->
<g id="node47" class="node">
<title>FRESCO</title>
<polygon fill="none" stroke="#000000" points="1046,-962 966,-962 966,-926 1046,-926 1046,-962"/>
<text text-anchor="middle" x="1006" y="-940.3" font-family="Times,serif" font-size="14.00" fill="#000000">FRESCO</text>
</g>
<!-- Edy&#45;&gt;FRESCO -->
<g id="edge63" class="edge">
<title>Edy&#45;&gt;FRESCO</title>
<path fill="none" stroke="#000000" stroke-width="2" d="M506.017,-740.1936C526.5653,-757.0031 559.4304,-781.3718 592,-795 683.5042,-833.2883 718.1135,-803.199 811,-838 876.819,-862.6599 885.6356,-884.5819 948,-917 950.858,-918.4856 953.8127,-919.9811 956.8057,-921.4653"/>
<polygon fill="#000000" stroke="#000000" stroke-width="2" points="955.3171,-924.6332 965.8404,-925.862 958.3802,-918.339 955.3171,-924.6332"/>
</g>
<!-- 業務スーパー -->
<g id="node48" class="node">
<title>業務スーパー</title>
<polygon fill="none" stroke="#000000" points="1056.5,-477 955.5,-477 955.5,-441 1056.5,-441 1056.5,-477"/>
<text text-anchor="middle" x="1006" y="-455.3" font-family="Times,serif" font-size="14.00" fill="#000000">業務スーパー</text>
</g>
<!-- Edy&#45;&gt;業務スーパー -->
<g id="edge62" class="edge">
<title>Edy&#45;&gt;業務スーパー</title>
<path fill="none" stroke="#000000" stroke-width="2" d="M490.7848,-703.6738C497.7589,-681.3809 509.701,-642.5633 519,-609 527.6919,-577.628 516.4957,-563.2849 537,-538 587.3578,-475.901 829.9086,-462.5465 945.0607,-459.725"/>
<polygon fill="#000000" stroke="#000000" stroke-width="2" points="945.2117,-463.2226 955.13,-459.4973 945.0534,-456.2244 945.2117,-463.2226"/>
</g>
<!-- Ponta&#45;&gt;じゃらん -->
<g id="edge54" class="edge">
<title>Ponta&#45;&gt;じゃらん</title>
<path fill="none" stroke="#000000" d="M720.7899,-538.2339C762.7472,-538.2837 843.0961,-537.2794 911,-530 926.5663,-528.3313 943.4252,-525.616 958.5594,-522.8404"/>
<polygon fill="#000000" stroke="#000000" points="959.5473,-526.2158 968.7243,-520.9213 958.2486,-519.3373 959.5473,-526.2158"/>
</g>
<!-- Tポイント -->
<g id="node20" class="node">
<title>Tポイント</title>
<polygon fill="none" stroke="#000000" points="733.5,-786 650.5,-786 650.5,-750 733.5,-750 733.5,-786"/>
<text text-anchor="middle" x="692" y="-764.3" font-family="Times,serif" font-size="14.00" fill="#000000">Tポイント</text>
</g>
<!-- 楽天スーパーポイント -->
<g id="node21" class="node">
<title>楽天スーパーポイント</title>
<polygon fill="none" stroke="#000000" points="771,-694 613,-694 613,-658 771,-658 771,-694"/>
<text text-anchor="middle" x="692" y="-672.3" font-family="Times,serif" font-size="14.00" fill="#000000">楽天スーパーポイント</text>
</g>
<!-- 楽天スーパーポイント&#45;&gt;Edy -->
<g id="edge52" class="edge">
<title>楽天スーパーポイント&#45;&gt;Edy</title>
<path fill="none" stroke="#000000" d="M612.9472,-691.3768C588.5297,-696.3795 561.5942,-702.1559 537,-708 532.1933,-709.1422 527.1554,-710.4093 522.1864,-711.7012"/>
<polygon fill="#000000" stroke="#000000" points="520.9483,-708.4085 512.18,-714.3556 522.7432,-715.1745 520.9483,-708.4085"/>
</g>
<!-- JREポイント&#45;&gt;Suica -->
<g id="edge31" class="edge">
<title>JREポイント&#45;&gt;Suica</title>
<path fill="none" stroke="#000000" d="M641.331,-1271.5148C624.2869,-1275.3775 606.0517,-1281.9227 592,-1293 578.8799,-1303.3429 586.2591,-1314.6498 574,-1326 559.6603,-1339.2765 540.1717,-1348.7101 523.0866,-1355.0682"/>
<polygon fill="#000000" stroke="#000000" points="521.6501,-1351.8624 513.3619,-1358.4621 523.9568,-1358.4715 521.6501,-1351.8624"/>
</g>
<!-- ビックポイント&#45;&gt;ビックカメラ -->
<g id="edge23" class="edge">
<title>ビックポイント&#45;&gt;ビックカメラ</title>
<path fill="none" stroke="#000000" d="M750.4231,-1576.2833C794.7277,-1571.4607 857.0014,-1563.6366 911,-1553 922.2595,-1550.7821 934.1634,-1548.0029 945.595,-1545.1108"/>
<polygon fill="#000000" stroke="#000000" points="946.6862,-1548.4438 955.4913,-1542.5513 944.9335,-1541.6668 946.6862,-1548.4438"/>
</g>
<!-- Amazonポイント -->
<g id="node25" class="node">
<title>Amazonポイント</title>
<polygon fill="none" stroke="#000000" points="757.5,-398 626.5,-398 626.5,-362 757.5,-362 757.5,-398"/>
<text text-anchor="middle" x="692" y="-376.3" font-family="Times,serif" font-size="14.00" fill="#000000">Amazonポイント</text>
</g>
<!-- Amazonポイント&#45;&gt;Amazon -->
<g id="edge57" class="edge">
<title>Amazonポイント&#45;&gt;Amazon</title>
<path fill="none" stroke="#000000" d="M757.8247,-367.8869C817.8442,-360.2648 905.0692,-351.858 958.5283,-348.6859"/>
<polygon fill="#000000" stroke="#000000" points="958.9594,-352.1676 968.7519,-348.1231 958.5746,-345.1782 958.9594,-352.1676"/>
</g>
<!-- nanacoポイント&#45;&gt;nanaco -->
<g id="edge61" class="edge">
<title>nanacoポイント&#45;&gt;nanaco</title>
<path fill="none" stroke="#000000" d="M629.3139,-222.5076C596.9523,-228.4484 558.252,-235.5528 529.0778,-240.9084"/>
<polygon fill="#000000" stroke="#000000" points="528.3855,-237.4769 519.1818,-242.7251 529.6495,-244.3619 528.3855,-237.4769"/>
</g>
<!-- FRESCOポイント -->
<g id="node27" class="node">
<title>FRESCOポイント</title>
<polygon fill="none" stroke="#000000" points="760.5,-972 623.5,-972 623.5,-936 760.5,-936 760.5,-972"/>
<text text-anchor="middle" x="692" y="-950.3" font-family="Times,serif" font-size="14.00" fill="#000000">FRESCOポイント</text>
</g>
<!-- FRESCOポイント&#45;&gt;FRESCO -->
<g id="edge65" class="edge">
<title>FRESCOポイント&#45;&gt;FRESCO</title>
<path fill="none" stroke="#000000" d="M760.7185,-963.0334C803.9526,-967.3367 860.857,-970.476 911,-965 925.5928,-963.4064 941.226,-960.4746 955.5115,-957.2969"/>
<polygon fill="#000000" stroke="#000000" points="956.6865,-960.6176 965.6412,-954.9551 955.1098,-953.7975 956.6865,-960.6176"/>
</g>
<!-- ヨドバシゴールドポイント -->
<g id="node28" class="node">
<title>ヨドバシゴールドポイント</title>
<polygon fill="none" stroke="#000000" points="786,-1338 598,-1338 598,-1302 786,-1302 786,-1338"/>
<text text-anchor="middle" x="692" y="-1316.3" font-family="Times,serif" font-size="14.00" fill="#000000">ヨドバシゴールドポイント</text>
</g>
<!-- ヨドバシゴールドポイント&#45;&gt;ヨドバシカメラ -->
<g id="edge48" class="edge">
<title>ヨドバシゴールドポイント&#45;&gt;ヨドバシカメラ</title>
<path fill="none" stroke="#000000" d="M786.0935,-1320.4843C825.4167,-1318.4821 871.1403,-1313.2302 911,-1301 932.5254,-1294.3953 954.6052,-1282.4479 972.0547,-1271.5662"/>
<polygon fill="#000000" stroke="#000000" points="974.1989,-1274.3492 980.7302,-1266.007 970.4222,-1268.4555 974.1989,-1274.3492"/>
</g>
<!-- はぴeポイント -->
<g id="node29" class="node">
<title>はぴeポイント</title>
<polygon fill="none" stroke="#000000" points="747,-107 637,-107 637,-71 747,-71 747,-107"/>
<text text-anchor="middle" x="692" y="-85.3" font-family="Times,serif" font-size="14.00" fill="#000000">はぴeポイント</text>
</g>
<!-- はぴeポイント&#45;&gt;関西電力 -->
<g id="edge12" class="edge">
<title>はぴeポイント&#45;&gt;関西電力</title>
<path fill="none" stroke="#000000" d="M747.2148,-89.1344C792.2454,-90.6363 857.0047,-96.0018 911,-113 931.9231,-119.5868 953.5056,-130.9695 970.8013,-141.4089"/>
<polygon fill="#000000" stroke="#000000" points="969.0843,-144.4624 979.4289,-146.7517 972.7698,-138.5111 969.0843,-144.4624"/>
</g>
<!-- 切符&#45;&gt;現金 -->
<g id="edge70" class="edge">
<title>切符&#45;&gt;現金</title>
<path fill="none" stroke="#000000" d="M842.6575,-1533.242C792.6901,-1540.7152 683.3566,-1549.8786 592,-1564 568.591,-1567.6184 542.5545,-1572.9428 522.0263,-1576.402"/>
<polygon fill="#000000" stroke="#000000" points="521.4572,-1572.9484 512.1325,-1577.9784 522.5587,-1579.8613 521.4572,-1572.9484"/>
</g>
<!-- 切符&#45;&gt;電車 -->
<g id="edge69" class="edge">
<title>切符&#45;&gt;電車</title>
<path fill="none" stroke="#000000" stroke-width="2" d="M897.1948,-1515.602C917.9497,-1507.6663 946.7527,-1496.6534 969.5103,-1487.9519"/>
<polygon fill="#000000" stroke="#000000" stroke-width="2" points="970.7618,-1491.2206 978.8524,-1484.38 968.2618,-1484.6822 970.7618,-1491.2206"/>
</g>
<!-- 大阪地下鉄&#45;&gt;三井住友VISAカード -->
<g id="edge17" class="edge">
<title>大阪地下鉄&#45;&gt;三井住友VISAカード</title>
<path fill="none" stroke="#000000" d="M961.8257,-1821.8242C935.4802,-1829.3824 901.1906,-1837 870,-1837 485,-1837 485,-1837 485,-1837 425.2023,-1837 370.9262,-1785.5051 342.6093,-1752.9814"/>
<polygon fill="#000000" stroke="#000000" points="345.1184,-1750.5285 335.9819,-1745.1643 339.779,-1755.0553 345.1184,-1750.5285"/>
<text text-anchor="middle" x="692" y="-1840.8" font-family="Times,serif" font-size="14.00" fill="#000000">10%</text>
</g>
<!-- 関西電力&#45;&gt;はぴeポイント -->
<g id="edge11" class="edge">
<title>関西電力&#45;&gt;はぴeポイント</title>
<path fill="none" stroke="#000000" d="M968.7581,-152.8309C951.3159,-147.338 930.1956,-140.9801 911,-136 859.6671,-122.6823 800.8759,-110.2156 757.1407,-101.4727"/>
<polygon fill="#000000" stroke="#000000" points="757.6955,-98.0146 747.2052,-99.4987 756.3314,-104.8804 757.6955,-98.0146"/>
<text text-anchor="middle" x="870" y="-139.8" font-family="Times,serif" font-size="14.00" fill="#000000">0.8%, 0.5%</text>
</g>
<!-- ヤマト運輸&#45;&gt;Tポイント -->
<g id="edge45" class="edge">
<title>ヤマト運輸&#45;&gt;Tポイント</title>
<path fill="none" stroke="#000000" d="M962.2942,-664.0991C926.4333,-678.9912 874.3628,-700.7101 829,-720 812.5126,-727.011 808.7744,-729.7066 792,-736 776.3119,-741.8858 758.997,-747.6706 743.2461,-752.668"/>
<polygon fill="#000000" stroke="#000000" points="742.1638,-749.3393 733.6697,-755.6717 744.2588,-756.0184 742.1638,-749.3393"/>
<text text-anchor="middle" x="870" y="-723.8" font-family="Times,serif" font-size="14.00" fill="#000000">0.5%</text>
</g>
<!-- ウェルシア&#45;&gt;Tポイント -->
<g id="edge50" class="edge">
<title>ウェルシア&#45;&gt;Tポイント</title>
<path fill="none" stroke="#000000" d="M968.4106,-718.0529C951.2572,-725.602 930.4663,-733.809 911,-739 854.961,-753.9436 788.7107,-761.3518 743.8667,-764.9126"/>
<polygon fill="#000000" stroke="#000000" points="743.4988,-761.4303 733.792,-765.6764 744.028,-768.4103 743.4988,-761.4303"/>
<text text-anchor="middle" x="870" y="-758.8" font-family="Times,serif" font-size="14.00" fill="#000000">1%</text>
</g>
<!-- ビックカメラ&#45;&gt;ビックポイント -->
<g id="edge21" class="edge">
<title>ビックカメラ&#45;&gt;ビックポイント</title>
<path fill="none" stroke="#000000" stroke-dasharray="5,2" d="M989.2592,-1546.0588C975.0367,-1559.9782 953.2715,-1578.1345 930,-1586 875.1753,-1604.5301 809.1129,-1601.5903 760.5132,-1595.1249"/>
<polygon fill="#000000" stroke="#000000" points="760.8093,-1591.6321 750.4179,-1593.6982 759.8297,-1598.5632 760.8093,-1591.6321"/>
<text text-anchor="middle" x="870" y="-1603.8" font-family="Times,serif" font-size="14.00" fill="#000000">9.5%</text>
</g>
<!-- ヨドバシカメラ&#45;&gt;ヨドバシゴールドポイント -->
<g id="edge47" class="edge">
<title>ヨドバシカメラ&#45;&gt;ヨドバシゴールドポイント</title>
<path fill="none" stroke="#000000" d="M947.7013,-1260.0296C913.1359,-1267.2832 868.5004,-1276.8608 829,-1286 810.7856,-1290.2143 791.2606,-1294.9362 772.8238,-1299.489"/>
<polygon fill="#000000" stroke="#000000" points="771.8667,-1296.1203 763.0025,-1301.9234 773.5509,-1302.9146 771.8667,-1296.1203"/>
<text text-anchor="middle" x="870" y="-1289.8" font-family="Times,serif" font-size="14.00" fill="#000000">10%</text>
</g>
<!-- FRESCO&#45;&gt;FRESCOポイント -->
<g id="edge64" class="edge">
<title>FRESCO&#45;&gt;FRESCOポイント</title>
<path fill="none" stroke="#000000" d="M965.9053,-945.2769C916.8844,-946.8381 832.7896,-949.5163 770.6794,-951.4943"/>
<polygon fill="#000000" stroke="#000000" points="770.4041,-948.0012 760.5206,-951.8178 770.627,-954.9976 770.4041,-948.0012"/>
<text text-anchor="middle" x="870" y="-952.8" font-family="Times,serif" font-size="14.00" fill="#000000">0.5%</text>
</g>
<!-- 吉野家&#45;&gt;Tポイント -->
<g id="edge28" class="edge">
<title>吉野家&#45;&gt;Tポイント</title>
<path fill="none" stroke="#000000" d="M976.1819,-1059.032C938.4852,-1042.782 873.1875,-1010.7858 829,-968 800.0977,-940.0145 737.9587,-842.2881 708.3436,-794.5921"/>
<polygon fill="#000000" stroke="#000000" points="711.2801,-792.686 703.0405,-786.0257 705.3283,-796.3706 711.2801,-792.686"/>
<text text-anchor="middle" x="870" y="-1028.8" font-family="Times,serif" font-size="14.00" fill="#000000">0.5%</text>
</g>
<!-- Amazon&#45;&gt;Amazonポイント -->
<g id="edge56" class="edge">
<title>Amazon&#45;&gt;Amazonポイント</title>
<path fill="none" stroke="#000000" d="M968.7519,-357.2316C919.4572,-364.487 831.3804,-373.6222 767.8076,-378.3892"/>
<polygon fill="#000000" stroke="#000000" points="767.5442,-374.8991 757.8247,-379.1158 768.0524,-381.8806 767.5442,-374.8991"/>
</g>
<!-- じゃらん&#45;&gt;Ponta -->
<g id="edge55" class="edge">
<title>じゃらん&#45;&gt;Ponta</title>
<path fill="none" stroke="#000000" d="M968.5529,-512.0299C951.0676,-511.6235 929.9702,-511.1997 911,-511 874.5576,-510.6164 865.2721,-507.4598 829,-511 795.4108,-514.2784 757.8392,-521.9757 730.5496,-528.3165"/>
<polygon fill="#000000" stroke="#000000" points="729.5476,-524.9569 720.6239,-530.6681 731.1614,-531.7684 729.5476,-524.9569"/>
<text text-anchor="middle" x="870" y="-514.8" font-family="Times,serif" font-size="14.00" fill="#000000">2%</text>
</g>
</g>
</svg>
