<?xml version="1.0" encoding="UTF-8" standalone="no"?>
<!DOCTYPE svg PUBLIC "-//W3C//DTD SVG 1.1//EN"
 "http://www.w3.org/Graphics/SVG/1.1/DTD/svg11.dtd">
<!-- Generated by graphviz version 2.40.1 (0)
 -->
<!-- Title: MoneyFlow Pages: 1 -->
<svg width="1072pt" height="2058pt"
 viewBox="0.00 0.00 1072.00 2058.00" xmlns="http://www.w3.org/2000/svg" xmlns:xlink="http://www.w3.org/1999/xlink">
<g id="graph0" class="graph" transform="scale(1 1) rotate(0) translate(4 2054)">
<title>MoneyFlow</title>
<polygon fill="#ffffff" stroke="transparent" points="-4,4 -4,-2054 1068,-2054 1068,4 -4,4"/>
<!-- 収入 -->
<g id="node1" class="node">
<title>収入</title>
<text text-anchor="middle" x="27" y="-14.3" font-family="Times,serif" font-size="14.00" fill="#000000">収入</text>
</g>
<!-- 銀行口座 -->
<g id="node2" class="node">
<title>銀行口座</title>
<text text-anchor="middle" x="142" y="-14.3" font-family="Times,serif" font-size="14.00" fill="#000000">銀行口座</text>
</g>
<!-- 収入&#45;&gt;銀行口座 -->
<g id="edge1" class="edge">
<title>収入&#45;&gt;銀行口座</title>
<path fill="none" stroke="#000000" d="M54.2534,-18C69.3972,-18 88.4539,-18 104.9357,-18"/>
</g>
<!-- クレジットカード -->
<g id="node3" class="node">
<title>クレジットカード</title>
<text text-anchor="middle" x="322" y="-14.3" font-family="Times,serif" font-size="14.00" fill="#000000">クレジットカード</text>
</g>
<!-- 銀行口座&#45;&gt;クレジットカード -->
<g id="edge2" class="edge">
<title>銀行口座&#45;&gt;クレジットカード</title>
<path fill="none" stroke="#000000" d="M179.2961,-18C201.6417,-18 230.6798,-18 256.7236,-18"/>
</g>
<!-- マネー -->
<g id="node4" class="node">
<title>マネー</title>
<text text-anchor="middle" x="488" y="-14.3" font-family="Times,serif" font-size="14.00" fill="#000000">マネー</text>
</g>
<!-- クレジットカード&#45;&gt;マネー -->
<g id="edge3" class="edge">
<title>クレジットカード&#45;&gt;マネー</title>
<path fill="none" stroke="#000000" d="M387.1312,-18C411.6557,-18 438.3653,-18 458.1353,-18"/>
</g>
<!-- ポイント -->
<g id="node5" class="node">
<title>ポイント</title>
<text text-anchor="middle" x="692" y="-14.3" font-family="Times,serif" font-size="14.00" fill="#000000">ポイント</text>
</g>
<!-- マネー&#45;&gt;ポイント -->
<g id="edge4" class="edge">
<title>マネー&#45;&gt;ポイント</title>
<path fill="none" stroke="#000000" d="M517.6634,-18C553.9092,-18 615.2629,-18 654.6797,-18"/>
</g>
<!-- 金券 -->
<g id="node6" class="node">
<title>金券</title>
<text text-anchor="middle" x="867" y="-14.3" font-family="Times,serif" font-size="14.00" fill="#000000">金券</text>
</g>
<!-- ポイント&#45;&gt;金券 -->
<g id="edge5" class="edge">
<title>ポイント&#45;&gt;金券</title>
<path fill="none" stroke="#000000" d="M729.113,-18C762.3227,-18 810.2221,-18 839.9381,-18"/>
</g>
<!-- 支出 -->
<g id="node7" class="node">
<title>支出</title>
<text text-anchor="middle" x="1006" y="-14.3" font-family="Times,serif" font-size="14.00" fill="#000000">支出</text>
</g>
<!-- 金券&#45;&gt;支出 -->
<g id="edge6" class="edge">
<title>金券&#45;&gt;支出</title>
<path fill="none" stroke="#000000" d="M894.1306,-18C918.6227,-18 954.4669,-18 978.9379,-18"/>
</g>
<!-- 給与 -->
<g id="node8" class="node">
<title>給与</title>
<polygon fill="none" stroke="#000000" points="54,-1866 0,-1866 0,-1830 54,-1830 54,-1866"/>
<text text-anchor="middle" x="27" y="-1844.3" font-family="Times,serif" font-size="14.00" fill="#000000">給与</text>
</g>
<!-- 三井住友銀行 -->
<g id="node10" class="node">
<title>三井住友銀行</title>
<polygon fill="none" stroke="#000000" points="193,-1866 91,-1866 91,-1830 193,-1830 193,-1866"/>
<text text-anchor="middle" x="142" y="-1844.3" font-family="Times,serif" font-size="14.00" fill="#000000">三井住友銀行</text>
</g>
<!-- 給与&#45;&gt;三井住友銀行 -->
<g id="edge7" class="edge">
<title>給与&#45;&gt;三井住友銀行</title>
<path fill="none" stroke="#000000" stroke-width="2" d="M54.2534,-1848C62.2529,-1848 71.3442,-1848 80.571,-1848"/>
<polygon fill="#000000" stroke="#000000" stroke-width="2" points="80.5912,-1851.5001 90.5911,-1848 80.5911,-1844.5001 80.5912,-1851.5001"/>
</g>
<!-- 譲渡 -->
<g id="node9" class="node">
<title>譲渡</title>
<polygon fill="none" stroke="#000000" points="54,-1441 0,-1441 0,-1405 54,-1405 54,-1441"/>
<text text-anchor="middle" x="27" y="-1419.3" font-family="Times,serif" font-size="14.00" fill="#000000">譲渡</text>
</g>
<!-- メルペイ -->
<g id="node20" class="node">
<title>メルペイ</title>
<polygon fill="none" stroke="#000000" points="525,-1441 451,-1441 451,-1405 525,-1405 525,-1441"/>
<text text-anchor="middle" x="488" y="-1419.3" font-family="Times,serif" font-size="14.00" fill="#000000">メルペイ</text>
</g>
<!-- 譲渡&#45;&gt;メルペイ -->
<g id="edge77" class="edge">
<title>譲渡&#45;&gt;メルペイ</title>
<path fill="none" stroke="#000000" stroke-width="2" d="M54.1166,-1423C129.9239,-1423 344.7638,-1423 440.7083,-1423"/>
<polygon fill="#000000" stroke="#000000" stroke-width="2" points="440.9836,-1426.5001 450.9836,-1423 440.9836,-1419.5001 440.9836,-1426.5001"/>
</g>
<!-- 住信SBI銀行 -->
<g id="node11" class="node">
<title>住信SBI銀行</title>
<polygon fill="none" stroke="#000000" points="192,-1673 92,-1673 92,-1637 192,-1637 192,-1673"/>
<text text-anchor="middle" x="142" y="-1651.3" font-family="Times,serif" font-size="14.00" fill="#000000">住信SBI銀行</text>
</g>
<!-- 三井住友銀行&#45;&gt;住信SBI銀行 -->
<g id="edge9" class="edge">
<title>三井住友銀行&#45;&gt;住信SBI銀行</title>
<path fill="none" stroke="#000000" stroke-width="2" d="M142,-1829.8945C142,-1780.9963 142,-1732.0982 142,-1683.2"/>
<polygon fill="#000000" stroke="#000000" stroke-width="2" points="145.5001,-1683.0937 142,-1673.0938 138.5001,-1683.0938 145.5001,-1683.0937"/>
</g>
<!-- 現金 -->
<g id="node16" class="node">
<title>現金</title>
<polygon fill="none" stroke="#000000" points="515,-1928 461,-1928 461,-1892 515,-1892 515,-1928"/>
<text text-anchor="middle" x="488" y="-1906.3" font-family="Times,serif" font-size="14.00" fill="#000000">現金</text>
</g>
<!-- 三井住友銀行&#45;&gt;現金 -->
<g id="edge8" class="edge">
<title>三井住友銀行&#45;&gt;現金</title>
<path fill="none" stroke="#000000" stroke-width="2" d="M168.6955,-1866.12C181.037,-1873.5781 196.2137,-1881.5083 211,-1886 293.9192,-1911.1885 396.7692,-1912.8514 450.8145,-1911.5974"/>
<polygon fill="#000000" stroke="#000000" stroke-width="2" points="451.0543,-1915.0922 460.9525,-1911.3138 450.8585,-1908.0949 451.0543,-1915.0922"/>
</g>
<!-- PayPay -->
<g id="node19" class="node">
<title>PayPay</title>
<polygon fill="none" stroke="#000000" points="522,-2025 454,-2025 454,-1989 522,-1989 522,-2025"/>
<text text-anchor="middle" x="488" y="-2003.3" font-family="Times,serif" font-size="14.00" fill="#000000">PayPay</text>
</g>
<!-- 三井住友銀行&#45;&gt;PayPay -->
<g id="edge10" class="edge">
<title>三井住友銀行&#45;&gt;PayPay</title>
<path fill="none" stroke="#000000" stroke-width="2" d="M161.6847,-1866.1989C178.7227,-1881.1875 204.5631,-1902.1536 230,-1916 300.9346,-1954.6127 391.464,-1982.079 444.2617,-1996.1707"/>
<polygon fill="#000000" stroke="#000000" stroke-width="2" points="443.4231,-1999.5691 453.9845,-1998.728 445.2038,-1992.7993 443.4231,-1999.5691"/>
</g>
<!-- ビックカメラSuicaカード -->
<g id="node12" class="node">
<title>ビックカメラSuicaカード</title>
<polygon fill="none" stroke="#000000" points="414,-1616 230,-1616 230,-1580 414,-1580 414,-1616"/>
<text text-anchor="middle" x="322" y="-1594.3" font-family="Times,serif" font-size="14.00" fill="#000000">ビックカメラSuicaカード</text>
</g>
<!-- 住信SBI銀行&#45;&gt;ビックカメラSuicaカード -->
<g id="edge25" class="edge">
<title>住信SBI銀行&#45;&gt;ビックカメラSuicaカード</title>
<path fill="none" stroke="#000000" stroke-width="2" d="M192.14,-1639.1223C211.717,-1632.923 234.4471,-1625.7251 255.3675,-1619.1003"/>
<polygon fill="#000000" stroke="#000000" stroke-width="2" points="256.6744,-1622.3578 265.1511,-1616.0021 254.5611,-1615.6844 256.6744,-1622.3578"/>
</g>
<!-- リクルートカード -->
<g id="node13" class="node">
<title>リクルートカード</title>
<polygon fill="none" stroke="#000000" points="386.5,-1025 257.5,-1025 257.5,-989 386.5,-989 386.5,-1025"/>
<text text-anchor="middle" x="322" y="-1003.3" font-family="Times,serif" font-size="14.00" fill="#000000">リクルートカード</text>
</g>
<!-- 住信SBI銀行&#45;&gt;リクルートカード -->
<g id="edge26" class="edge">
<title>住信SBI銀行&#45;&gt;リクルートカード</title>
<path fill="none" stroke="#000000" stroke-width="2" d="M147.0021,-1636.9925C172.0296,-1546.8934 283.6645,-1145.0079 314.2368,-1034.9474"/>
<polygon fill="#000000" stroke="#000000" stroke-width="2" points="317.6326,-1035.7996 316.9368,-1025.2276 310.8879,-1033.9261 317.6326,-1035.7996"/>
</g>
<!-- PiTaPa -->
<g id="node14" class="node">
<title>PiTaPa</title>
<polygon fill="none" stroke="#000000" points="354.5,-1741 289.5,-1741 289.5,-1705 354.5,-1705 354.5,-1741"/>
<text text-anchor="middle" x="322" y="-1719.3" font-family="Times,serif" font-size="14.00" fill="#000000">PiTaPa</text>
</g>
<!-- 住信SBI銀行&#45;&gt;PiTaPa -->
<g id="edge27" class="edge">
<title>住信SBI銀行&#45;&gt;PiTaPa</title>
<path fill="none" stroke="#000000" stroke-width="2" d="M189.7641,-1673.0442C217.7778,-1683.6272 252.8519,-1696.8774 279.8374,-1707.0719"/>
<polygon fill="#000000" stroke="#000000" stroke-width="2" points="278.7938,-1710.419 289.3854,-1710.6789 281.2676,-1703.8707 278.7938,-1710.419"/>
</g>
<!-- 住信SBI銀行&#45;&gt;現金 -->
<g id="edge23" class="edge">
<title>住信SBI銀行&#45;&gt;現金</title>
<path fill="none" stroke="#000000" stroke-width="2" d="M156.304,-1673.1676C172.7501,-1693.365 201.2023,-1726.2627 230,-1750 302.7458,-1809.9626 399.7875,-1864.2425 451.6608,-1891.5081"/>
<polygon fill="#000000" stroke="#000000" stroke-width="2" points="450.3203,-1894.7565 460.805,-1896.2801 453.5589,-1888.5507 450.3203,-1894.7565"/>
</g>
<!-- 家賃 -->
<g id="node33" class="node">
<title>家賃</title>
<polygon fill="none" stroke="#000000" points="1033,-90 979,-90 979,-54 1033,-54 1033,-90"/>
<text text-anchor="middle" x="1006" y="-68.3" font-family="Times,serif" font-size="14.00" fill="#000000">家賃</text>
</g>
<!-- 住信SBI銀行&#45;&gt;家賃 -->
<g id="edge24" class="edge">
<title>住信SBI銀行&#45;&gt;家賃</title>
<path fill="none" stroke="#000000" stroke-width="2" d="M142.0782,-1636.9494C143.0656,-1461.8597 156.128,-72 322,-72 322,-72 322,-72 867,-72 901.4512,-72 940.7054,-72 968.6918,-72"/>
<polygon fill="#000000" stroke="#000000" stroke-width="2" points="968.8327,-75.5001 978.8326,-72 968.8326,-68.5001 968.8327,-75.5001"/>
</g>
<!-- Suica -->
<g id="node15" class="node">
<title>Suica</title>
<polygon fill="none" stroke="#000000" points="516,-1510 460,-1510 460,-1474 516,-1474 516,-1510"/>
<text text-anchor="middle" x="488" y="-1488.3" font-family="Times,serif" font-size="14.00" fill="#000000">Suica</text>
</g>
<!-- ビックカメラSuicaカード&#45;&gt;Suica -->
<g id="edge17" class="edge">
<title>ビックカメラSuicaカード&#45;&gt;Suica</title>
<path fill="none" stroke="#000000" stroke-width="2" d="M350.5364,-1579.778C378.3787,-1561.9992 420.8601,-1534.8725 451.224,-1515.4835"/>
<polygon fill="#000000" stroke="#000000" stroke-width="2" points="453.2914,-1518.3161 459.836,-1509.9843 449.524,-1512.4163 453.2914,-1518.3161"/>
</g>
<!-- JREポイント -->
<g id="node24" class="node">
<title>JREポイント</title>
<polygon fill="none" stroke="#000000" points="742.5,-1520 641.5,-1520 641.5,-1484 742.5,-1484 742.5,-1520"/>
<text text-anchor="middle" x="692" y="-1498.3" font-family="Times,serif" font-size="14.00" fill="#000000">JREポイント</text>
</g>
<!-- ビックカメラSuicaカード&#45;&gt;JREポイント -->
<g id="edge12" class="edge">
<title>ビックカメラSuicaカード&#45;&gt;JREポイント</title>
<path fill="none" stroke="#000000" d="M380.9063,-1579.97C402.8422,-1573.4349 427.9943,-1566.1526 451,-1560 512.064,-1543.6692 582.3921,-1526.9849 631.2519,-1515.7288"/>
<polygon fill="#000000" stroke="#000000" points="632.072,-1519.1316 641.0346,-1513.4815 630.5048,-1512.3093 632.072,-1519.1316"/>
<text text-anchor="middle" x="488" y="-1563.8" font-family="Times,serif" font-size="14.00" fill="#000000">0.5%</text>
</g>
<!-- ビックポイント -->
<g id="node25" class="node">
<title>ビックポイント</title>
<polygon fill="none" stroke="#000000" points="750,-1612 634,-1612 634,-1576 750,-1576 750,-1612"/>
<text text-anchor="middle" x="692" y="-1590.3" font-family="Times,serif" font-size="14.00" fill="#000000">ビックポイント</text>
</g>
<!-- ビックカメラSuicaカード&#45;&gt;ビックポイント -->
<g id="edge15" class="edge">
<title>ビックカメラSuicaカード&#45;&gt;ビックポイント</title>
<path fill="none" stroke="#000000" d="M414.1191,-1602.4958C420.1693,-1602.6958 426.1708,-1602.8676 432,-1603 497.7608,-1604.4938 514.2751,-1605.6365 580,-1603 594.1161,-1602.4337 609.2088,-1601.4676 623.5959,-1600.3731"/>
<polygon fill="#000000" stroke="#000000" points="624.2299,-1603.834 633.9232,-1599.5574 623.6786,-1596.8558 624.2299,-1603.834"/>
<text text-anchor="middle" x="488" y="-1608.8" font-family="Times,serif" font-size="14.00" fill="#000000">0.5%</text>
</g>
<!-- ビックカメラ -->
<g id="node45" class="node">
<title>ビックカメラ</title>
<polygon fill="none" stroke="#000000" points="1056.5,-1678 955.5,-1678 955.5,-1642 1056.5,-1642 1056.5,-1678"/>
<text text-anchor="middle" x="1006" y="-1656.3" font-family="Times,serif" font-size="14.00" fill="#000000">ビックカメラ</text>
</g>
<!-- ビックカメラSuicaカード&#45;&gt;ビックカメラ -->
<g id="edge13" class="edge">
<title>ビックカメラSuicaカード&#45;&gt;ビックカメラ</title>
<path fill="none" stroke="#000000" stroke-width="2" stroke-dasharray="5,2" d="M402.9223,-1616.0347C418.7983,-1619.0839 435.3729,-1621.9279 451,-1624 629.6035,-1647.6827 842.696,-1655.9672 945.1168,-1658.7187"/>
<polygon fill="#000000" stroke="#000000" stroke-width="2" points="945.184,-1662.2215 955.2717,-1658.983 945.3662,-1655.2239 945.184,-1662.2215"/>
</g>
<!-- EX予約 -->
<g id="node54" class="node">
<title>EX予約</title>
<polygon fill="none" stroke="#000000" points="1039,-1551 973,-1551 973,-1515 1039,-1515 1039,-1551"/>
<text text-anchor="middle" x="1006" y="-1529.3" font-family="Times,serif" font-size="14.00" fill="#000000">EX予約</text>
</g>
<!-- ビックカメラSuicaカード&#45;&gt;EX予約 -->
<g id="edge20" class="edge">
<title>ビックカメラSuicaカード&#45;&gt;EX予約</title>
<path fill="none" stroke="#000000" stroke-width="2" stroke-dasharray="5,2" d="M414.0622,-1587.527C487.1146,-1579.2388 579.8842,-1568.7718 598,-1567 730.6593,-1554.0252 887.8972,-1541.8149 962.5199,-1536.2113"/>
<polygon fill="#000000" stroke="#000000" stroke-width="2" points="963.2067,-1539.6698 972.9176,-1535.4332 962.6843,-1532.6893 963.2067,-1539.6698"/>
</g>
<!-- nanaco -->
<g id="node17" class="node">
<title>nanaco</title>
<polygon fill="none" stroke="#000000" points="522,-1025 454,-1025 454,-989 522,-989 522,-1025"/>
<text text-anchor="middle" x="488" y="-1003.3" font-family="Times,serif" font-size="14.00" fill="#000000">nanaco</text>
</g>
<!-- リクルートカード&#45;&gt;nanaco -->
<g id="edge57" class="edge">
<title>リクルートカード&#45;&gt;nanaco</title>
<path fill="none" stroke="#000000" stroke-width="2" d="M386.6553,-1007C405.6532,-1007 426.0009,-1007 443.4418,-1007"/>
<polygon fill="#000000" stroke="#000000" stroke-width="2" points="443.8877,-1010.5001 453.8876,-1007 443.8876,-1003.5001 443.8877,-1010.5001"/>
</g>
<!-- Edy -->
<g id="node18" class="node">
<title>Edy</title>
<polygon fill="none" stroke="#000000" points="515,-555 461,-555 461,-519 515,-519 515,-555"/>
<text text-anchor="middle" x="488" y="-533.3" font-family="Times,serif" font-size="14.00" fill="#000000">Edy</text>
</g>
<!-- リクルートカード&#45;&gt;Edy -->
<g id="edge41" class="edge">
<title>リクルートカード&#45;&gt;Edy</title>
<path fill="none" stroke="#000000" stroke-width="2" d="M328.4057,-988.8634C353.7989,-916.9669 447.4933,-651.6877 478.1909,-564.7727"/>
<polygon fill="#000000" stroke="#000000" stroke-width="2" points="481.5833,-565.6773 481.6134,-555.0825 474.9828,-563.3461 481.5833,-565.6773"/>
</g>
<!-- Ponta -->
<g id="node21" class="node">
<title>Ponta</title>
<polygon fill="none" stroke="#000000" points="720.5,-1274 663.5,-1274 663.5,-1238 720.5,-1238 720.5,-1274"/>
<text text-anchor="middle" x="692" y="-1252.3" font-family="Times,serif" font-size="14.00" fill="#000000">Ponta</text>
</g>
<!-- リクルートカード&#45;&gt;Ponta -->
<g id="edge52" class="edge">
<title>リクルートカード&#45;&gt;Ponta</title>
<path fill="none" stroke="#000000" d="M325.2323,-1025.0322C333.9126,-1067.6823 361.9952,-1174.8587 432,-1224 498.4429,-1270.641 598.6322,-1267.7982 653.2068,-1261.8018"/>
<polygon fill="#000000" stroke="#000000" points="653.653,-1265.2735 663.169,-1260.6156 652.8253,-1258.3226 653.653,-1265.2735"/>
<text text-anchor="middle" x="488" y="-1263.8" font-family="Times,serif" font-size="14.00" fill="#000000">1.2%</text>
</g>
<!-- ASAHIネット -->
<g id="node37" class="node">
<title>ASAHIネット</title>
<polygon fill="none" stroke="#000000" points="1060.5,-1228 951.5,-1228 951.5,-1192 1060.5,-1192 1060.5,-1228"/>
<text text-anchor="middle" x="1006" y="-1206.3" font-family="Times,serif" font-size="14.00" fill="#000000">ASAHIネット</text>
</g>
<!-- リクルートカード&#45;&gt;ASAHIネット -->
<g id="edge28" class="edge">
<title>リクルートカード&#45;&gt;ASAHIネット</title>
<path fill="none" stroke="#000000" stroke-width="2" d="M327.1099,-1025.0149C342.42,-1074.6966 392.8503,-1210 488,-1210 488,-1210 488,-1210 867,-1210 891.1744,-1210 917.7137,-1210 941.0653,-1210"/>
<polygon fill="#000000" stroke="#000000" stroke-width="2" points="941.2048,-1213.5001 951.2048,-1210 941.2048,-1206.5001 941.2048,-1213.5001"/>
</g>
<!-- 楽天モバイル -->
<g id="node38" class="node">
<title>楽天モバイル</title>
<polygon fill="none" stroke="#000000" points="1057,-352 955,-352 955,-316 1057,-316 1057,-352"/>
<text text-anchor="middle" x="1006" y="-330.3" font-family="Times,serif" font-size="14.00" fill="#000000">楽天モバイル</text>
</g>
<!-- リクルートカード&#45;&gt;楽天モバイル -->
<g id="edge37" class="edge">
<title>リクルートカード&#45;&gt;楽天モバイル</title>
<path fill="none" stroke="#000000" stroke-width="2" d="M322.4634,-988.9989C325.6913,-881.9729 349.0049,-334 488,-334 488,-334 488,-334 867,-334 892.4441,-334 920.5081,-334 944.7178,-334"/>
<polygon fill="#000000" stroke="#000000" stroke-width="2" points="944.8385,-337.5001 954.8385,-334 944.8384,-330.5001 944.8385,-337.5001"/>
</g>
<!-- 楽天でんき -->
<g id="node39" class="node">
<title>楽天でんき</title>
<polygon fill="none" stroke="#000000" points="1050,-276 962,-276 962,-240 1050,-240 1050,-276"/>
<text text-anchor="middle" x="1006" y="-254.3" font-family="Times,serif" font-size="14.00" fill="#000000">楽天でんき</text>
</g>
<!-- リクルートカード&#45;&gt;楽天でんき -->
<g id="edge35" class="edge">
<title>リクルートカード&#45;&gt;楽天でんき</title>
<path fill="none" stroke="#000000" stroke-width="2" d="M322.2265,-988.9102C323.9148,-889.1223 337.9022,-407.579 451,-330 491.8581,-301.9735 819.954,-272.899 951.6169,-262.2395"/>
<polygon fill="#000000" stroke="#000000" stroke-width="2" points="952.1849,-265.7052 961.8719,-261.4144 951.6234,-258.7278 952.1849,-265.7052"/>
</g>
<!-- 関西電力 -->
<g id="node40" class="node">
<title>関西電力</title>
<polygon fill="none" stroke="#000000" points="1043,-971 969,-971 969,-935 1043,-935 1043,-971"/>
<text text-anchor="middle" x="1006" y="-949.3" font-family="Times,serif" font-size="14.00" fill="#000000">関西電力</text>
</g>
<!-- リクルートカード&#45;&gt;関西電力 -->
<g id="edge32" class="edge">
<title>リクルートカード&#45;&gt;関西電力</title>
<path fill="none" stroke="#000000" stroke-width="2" d="M386.625,-991.3909C407.0972,-987.008 429.8932,-982.7051 451,-980 548.5442,-967.4985 842.7482,-957.7841 958.4904,-954.347"/>
<polygon fill="#000000" stroke="#000000" stroke-width="2" points="958.9044,-957.8364 968.7971,-954.0435 958.6984,-950.8394 958.9044,-957.8364"/>
</g>
<!-- 楽天損保 -->
<g id="node42" class="node">
<title>楽天損保</title>
<polygon fill="none" stroke="#000000" points="1043,-1101 969,-1101 969,-1065 1043,-1065 1043,-1101"/>
<text text-anchor="middle" x="1006" y="-1079.3" font-family="Times,serif" font-size="14.00" fill="#000000">楽天損保</text>
</g>
<!-- リクルートカード&#45;&gt;楽天損保 -->
<g id="edge36" class="edge">
<title>リクルートカード&#45;&gt;楽天損保</title>
<path fill="none" stroke="#000000" stroke-width="2" d="M377.3801,-1025.0375C421.7932,-1039.0163 485.9179,-1058.113 543,-1071 691.7065,-1104.5724 874.0971,-1094.9995 958.7165,-1087.7738"/>
<polygon fill="#000000" stroke="#000000" stroke-width="2" points="959.1314,-1091.2509 968.7849,-1086.8852 958.5159,-1084.278 959.1314,-1091.2509"/>
</g>
<!-- アイハート -->
<g id="node43" class="node">
<title>アイハート</title>
<polygon fill="none" stroke="#000000" points="1049,-657 963,-657 963,-621 1049,-621 1049,-657"/>
<text text-anchor="middle" x="1006" y="-635.3" font-family="Times,serif" font-size="14.00" fill="#000000">アイハート</text>
</g>
<!-- リクルートカード&#45;&gt;アイハート -->
<g id="edge31" class="edge">
<title>リクルートカード&#45;&gt;アイハート</title>
<path fill="none" stroke="#000000" stroke-width="2" d="M338.5799,-988.753C378.9084,-945.3847 486.9946,-835.1329 598,-773 716.3842,-706.737 872.6133,-666.9712 953.0726,-649.5131"/>
<polygon fill="#000000" stroke="#000000" stroke-width="2" points="953.9252,-652.91 962.9716,-647.3951 952.4606,-646.0649 953.9252,-652.91"/>
</g>
<!-- Amazon -->
<g id="node53" class="node">
<title>Amazon</title>
<polygon fill="none" stroke="#000000" points="1043,-198 969,-198 969,-162 1043,-162 1043,-198"/>
<text text-anchor="middle" x="1006" y="-176.3" font-family="Times,serif" font-size="14.00" fill="#000000">Amazon</text>
</g>
<!-- リクルートカード&#45;&gt;Amazon -->
<g id="edge29" class="edge">
<title>リクルートカード&#45;&gt;Amazon</title>
<path fill="none" stroke="#000000" stroke-width="2" d="M323.6036,-988.6088C334.5912,-865.3284 400.9251,-164 488,-164 488,-164 488,-164 867,-164 897.8015,-164 932.192,-167.9254 959.0594,-171.8876"/>
<polygon fill="#000000" stroke="#000000" stroke-width="2" points="958.5513,-175.3505 968.965,-173.3998 959.6078,-168.4307 958.5513,-175.3505"/>
</g>
<!-- じゃらん -->
<g id="node55" class="node">
<title>じゃらん</title>
<polygon fill="none" stroke="#000000" points="1043,-1355 969,-1355 969,-1319 1043,-1319 1043,-1355"/>
<text text-anchor="middle" x="1006" y="-1333.3" font-family="Times,serif" font-size="14.00" fill="#000000">じゃらん</text>
</g>
<!-- リクルートカード&#45;&gt;じゃらん -->
<g id="edge30" class="edge">
<title>リクルートカード&#45;&gt;じゃらん</title>
<path fill="none" stroke="#000000" stroke-width="2" d="M322.5764,-1025.2123C325.8201,-1094.3932 347.2306,-1337 488,-1337 488,-1337 488,-1337 867,-1337 897.4647,-1337 931.6852,-1337 958.5488,-1337"/>
<polygon fill="#000000" stroke="#000000" stroke-width="2" points="958.8319,-1340.5001 968.8318,-1337 958.8318,-1333.5001 958.8319,-1340.5001"/>
</g>
<!-- メルカリ -->
<g id="node56" class="node">
<title>メルカリ</title>
<polygon fill="none" stroke="#000000" points="1043,-1412 969,-1412 969,-1376 1043,-1376 1043,-1412"/>
<text text-anchor="middle" x="1006" y="-1390.3" font-family="Times,serif" font-size="14.00" fill="#000000">メルカリ</text>
</g>
<!-- リクルートカード&#45;&gt;メルカリ -->
<g id="edge80" class="edge">
<title>リクルートカード&#45;&gt;メルカリ</title>
<path fill="none" stroke="#000000" stroke-width="2" d="M323.9622,-1025.3428C330.4639,-1078.6061 355.4344,-1235.9003 432,-1337 450.1591,-1360.9779 457.9219,-1375 488,-1375 488,-1375 488,-1375 867,-1375 897.7761,-1375 932.0348,-1379.6289 958.8405,-1384.3171"/>
<polygon fill="#000000" stroke="#000000" stroke-width="2" points="958.2627,-1387.7694 968.7263,-1386.1074 959.5101,-1380.8814 958.2627,-1387.7694"/>
</g>
<!-- 電車 -->
<g id="node35" class="node">
<title>電車</title>
<polygon fill="none" stroke="#000000" points="1033,-1754 979,-1754 979,-1718 1033,-1718 1033,-1754"/>
<text text-anchor="middle" x="1006" y="-1732.3" font-family="Times,serif" font-size="14.00" fill="#000000">電車</text>
</g>
<!-- PiTaPa&#45;&gt;電車 -->
<g id="edge66" class="edge">
<title>PiTaPa&#45;&gt;電車</title>
<path fill="none" stroke="#000000" stroke-width="2" d="M354.5306,-1723.6183C468.183,-1725.7783 847.1989,-1732.9819 968.3916,-1735.2852"/>
<polygon fill="#000000" stroke="#000000" stroke-width="2" points="968.5811,-1738.7894 978.6459,-1735.4801 968.7142,-1731.7906 968.5811,-1738.7894"/>
</g>
<!-- バス -->
<g id="node36" class="node">
<title>バス</title>
<polygon fill="none" stroke="#000000" points="1033,-1876 979,-1876 979,-1840 1033,-1840 1033,-1876"/>
<text text-anchor="middle" x="1006" y="-1854.3" font-family="Times,serif" font-size="14.00" fill="#000000">バス</text>
</g>
<!-- PiTaPa&#45;&gt;バス -->
<g id="edge68" class="edge">
<title>PiTaPa&#45;&gt;バス</title>
<path fill="none" stroke="#000000" stroke-width="2" d="M354.8929,-1727.2643C373.0906,-1730.5753 395.6639,-1736.2986 414,-1746 452.9533,-1766.6098 443.9305,-1812 488,-1812 488,-1812 488,-1812 867,-1812 903.2673,-1812 942.2851,-1826.2886 969.7219,-1838.9388"/>
<polygon fill="#000000" stroke="#000000" stroke-width="2" points="968.3868,-1842.1795 978.9202,-1843.3188 971.3964,-1835.8595 968.3868,-1842.1795"/>
</g>
<!-- Suica&#45;&gt;JREポイント -->
<g id="edge21" class="edge">
<title>Suica&#45;&gt;JREポイント</title>
<path fill="none" stroke="#000000" d="M516.3653,-1493.3905C545.8864,-1494.8376 593.0279,-1497.1484 631.0418,-1499.0119"/>
<polygon fill="#000000" stroke="#000000" points="631.3399,-1502.5306 641.4993,-1499.5245 631.6827,-1495.539 631.3399,-1502.5306"/>
<text text-anchor="middle" x="561.5" y="-1500.8" font-family="Times,serif" font-size="14.00" fill="#000000">1.5%</text>
</g>
<!-- Suica&#45;&gt;電車 -->
<g id="edge18" class="edge">
<title>Suica&#45;&gt;電車</title>
<path fill="none" stroke="#000000" stroke-width="2" d="M502.534,-1510.2006C529.5932,-1543.9094 586.0419,-1613.3398 598,-1621 660.9618,-1661.3327 881.0365,-1710.0935 969.132,-1728.4902"/>
<polygon fill="#000000" stroke="#000000" stroke-width="2" points="968.4548,-1731.9241 978.9575,-1730.5302 969.8778,-1725.0703 968.4548,-1731.9241"/>
</g>
<!-- 松屋 -->
<g id="node51" class="node">
<title>松屋</title>
<polygon fill="none" stroke="#000000" points="1033,-1469 979,-1469 979,-1433 1033,-1433 1033,-1469"/>
<text text-anchor="middle" x="1006" y="-1447.3" font-family="Times,serif" font-size="14.00" fill="#000000">松屋</text>
</g>
<!-- Suica&#45;&gt;松屋 -->
<g id="edge19" class="edge">
<title>Suica&#45;&gt;松屋</title>
<path fill="none" stroke="#000000" stroke-width="2" d="M516.3928,-1486.8561C538.5484,-1483.0257 570.1377,-1477.9658 598,-1475 733.9018,-1460.5341 896.2669,-1454.25 968.3407,-1452.0249"/>
<polygon fill="#000000" stroke="#000000" stroke-width="2" points="968.8202,-1455.5122 978.7107,-1451.7138 968.6102,-1448.5154 968.8202,-1455.5122"/>
</g>
<!-- 株主優待券 -->
<g id="node31" class="node">
<title>株主優待券</title>
<polygon fill="none" stroke="#000000" points="911,-1928 823,-1928 823,-1892 911,-1892 911,-1928"/>
<text text-anchor="middle" x="867" y="-1906.3" font-family="Times,serif" font-size="14.00" fill="#000000">株主優待券</text>
</g>
<!-- 現金&#45;&gt;株主優待券 -->
<g id="edge71" class="edge">
<title>現金&#45;&gt;株主優待券</title>
<path fill="none" stroke="#000000" stroke-width="2" d="M515.2567,-1906.2971C577.3526,-1902.6851 730.3031,-1902.2843 812.5613,-1905.0947"/>
<polygon fill="#000000" stroke="#000000" stroke-width="2" points="812.5919,-1908.5982 822.7153,-1905.4729 812.8525,-1901.603 812.5919,-1908.5982"/>
</g>
<!-- 昼間回数券 -->
<g id="node32" class="node">
<title>昼間回数券</title>
<polygon fill="none" stroke="#000000" points="911,-1984 823,-1984 823,-1948 911,-1948 911,-1984"/>
<text text-anchor="middle" x="867" y="-1962.3" font-family="Times,serif" font-size="14.00" fill="#000000">昼間回数券</text>
</g>
<!-- 現金&#45;&gt;昼間回数券 -->
<g id="edge74" class="edge">
<title>現金&#45;&gt;昼間回数券</title>
<path fill="none" stroke="#000000" stroke-width="2" d="M515.1519,-1914.6481C523.8615,-1917.9464 533.671,-1921.6299 543,-1924 635.8509,-1947.5893 747.7237,-1954.4089 812.7649,-1958.9331"/>
<polygon fill="#000000" stroke="#000000" stroke-width="2" points="812.5695,-1962.4279 822.7914,-1959.6417 813.0631,-1955.4453 812.5695,-1962.4279"/>
</g>
<!-- 飲食店 -->
<g id="node48" class="node">
<title>飲食店</title>
<polygon fill="none" stroke="#000000" points="1035.5,-2050 976.5,-2050 976.5,-2014 1035.5,-2014 1035.5,-2050"/>
<text text-anchor="middle" x="1006" y="-2028.3" font-family="Times,serif" font-size="14.00" fill="#000000">飲食店</text>
</g>
<!-- 現金&#45;&gt;飲食店 -->
<g id="edge70" class="edge">
<title>現金&#45;&gt;飲食店</title>
<path fill="none" stroke="#000000" stroke-width="2" d="M504.3182,-1928.2818C514.5442,-1938.8001 528.5006,-1951.5619 543,-1960 565.2299,-1972.9369 572.922,-1972.2883 598,-1978 731.1347,-2008.3224 892.859,-2023.4654 966.3002,-2029.1945"/>
<polygon fill="#000000" stroke="#000000" stroke-width="2" points="966.2437,-2032.7003 976.4812,-2029.9721 966.7769,-2025.7206 966.2437,-2032.7003"/>
</g>
<!-- nanacoポイント -->
<g id="node27" class="node">
<title>nanacoポイント</title>
<polygon fill="none" stroke="#000000" points="754.5,-1071 629.5,-1071 629.5,-1035 754.5,-1035 754.5,-1071"/>
<text text-anchor="middle" x="692" y="-1049.3" font-family="Times,serif" font-size="14.00" fill="#000000">nanacoポイント</text>
</g>
<!-- nanaco&#45;&gt;nanacoポイント -->
<g id="edge59" class="edge">
<title>nanaco&#45;&gt;nanacoポイント</title>
<path fill="none" stroke="#000000" d="M509.9108,-1025.0693C519.4834,-1031.9352 531.2051,-1039.0482 543,-1043 567.091,-1051.0715 594.5721,-1054.4288 619.3175,-1055.4983"/>
<polygon fill="#000000" stroke="#000000" points="619.2681,-1058.9984 629.3738,-1055.8165 619.4895,-1052.0019 619.2681,-1058.9984"/>
<text text-anchor="middle" x="561.5" y="-1055.8" font-family="Times,serif" font-size="14.00" fill="#000000">1%</text>
</g>
<!-- セブンイレブン -->
<g id="node34" class="node">
<title>セブンイレブン</title>
<polygon fill="none" stroke="#000000" points="1063,-1025 949,-1025 949,-989 1063,-989 1063,-1025"/>
<text text-anchor="middle" x="1006" y="-1003.3" font-family="Times,serif" font-size="14.00" fill="#000000">セブンイレブン</text>
</g>
<!-- nanaco&#45;&gt;セブンイレブン -->
<g id="edge58" class="edge">
<title>nanaco&#45;&gt;セブンイレブン</title>
<path fill="none" stroke="#000000" stroke-width="2" d="M522.3886,-1007C607.0794,-1007 826.9296,-1007 938.6746,-1007"/>
<polygon fill="#000000" stroke="#000000" stroke-width="2" points="938.8167,-1010.5001 948.8167,-1007 938.8167,-1003.5001 938.8167,-1010.5001"/>
</g>
<!-- 楽天ポイント -->
<g id="node23" class="node">
<title>楽天ポイント</title>
<polygon fill="none" stroke="#000000" points="743,-410 641,-410 641,-374 743,-374 743,-410"/>
<text text-anchor="middle" x="692" y="-388.3" font-family="Times,serif" font-size="14.00" fill="#000000">楽天ポイント</text>
</g>
<!-- Edy&#45;&gt;楽天ポイント -->
<g id="edge51" class="edge">
<title>Edy&#45;&gt;楽天ポイント</title>
<path fill="none" stroke="#000000" d="M492.592,-518.8777C499.5108,-495.3124 514.891,-454.5119 543,-432 567.7787,-412.1552 601.5524,-402.1119 630.6803,-397.0481"/>
<polygon fill="#000000" stroke="#000000" points="631.4348,-400.4724 640.7671,-395.4567 630.3438,-393.5579 631.4348,-400.4724"/>
<text text-anchor="middle" x="561.5" y="-435.8" font-family="Times,serif" font-size="14.00" fill="#000000">0.5%</text>
</g>
<!-- ヤマト運輸 -->
<g id="node41" class="node">
<title>ヤマト運輸</title>
<polygon fill="none" stroke="#000000" points="1050,-765 962,-765 962,-729 1050,-729 1050,-765"/>
<text text-anchor="middle" x="1006" y="-743.3" font-family="Times,serif" font-size="14.00" fill="#000000">ヤマト運輸</text>
</g>
<!-- Edy&#45;&gt;ヤマト運輸 -->
<g id="edge42" class="edge">
<title>Edy&#45;&gt;ヤマト運輸</title>
<path fill="none" stroke="#000000" stroke-width="2" d="M496.7907,-555.1078C512.4069,-584.9605 548.1008,-643.6245 598,-668 715.2594,-725.2806 870.5012,-741.0558 951.5131,-745.3816"/>
<polygon fill="#000000" stroke="#000000" stroke-width="2" points="951.8054,-748.9003 961.9659,-745.8978 952.1507,-741.9088 951.8054,-748.9003"/>
</g>
<!-- ウェルシア -->
<g id="node44" class="node">
<title>ウェルシア</title>
<polygon fill="none" stroke="#000000" points="1049.5,-711 962.5,-711 962.5,-675 1049.5,-675 1049.5,-711"/>
<text text-anchor="middle" x="1006" y="-689.3" font-family="Times,serif" font-size="14.00" fill="#000000">ウェルシア</text>
</g>
<!-- Edy&#45;&gt;ウェルシア -->
<g id="edge47" class="edge">
<title>Edy&#45;&gt;ウェルシア</title>
<path fill="none" stroke="#000000" stroke-width="2" d="M503.9025,-555.033C523.6965,-576.2096 559.6062,-610.6436 598,-628 716.3761,-681.5135 871.4745,-691.8416 952.081,-693.3051"/>
<polygon fill="#000000" stroke="#000000" stroke-width="2" points="952.4293,-696.8103 962.4777,-693.4518 952.528,-689.811 952.4293,-696.8103"/>
</g>
<!-- ヨドバシカメラ -->
<g id="node46" class="node">
<title>ヨドバシカメラ</title>
<polygon fill="none" stroke="#000000" points="1064,-1155 948,-1155 948,-1119 1064,-1119 1064,-1155"/>
<text text-anchor="middle" x="1006" y="-1133.3" font-family="Times,serif" font-size="14.00" fill="#000000">ヨドバシカメラ</text>
</g>
<!-- Edy&#45;&gt;ヨドバシカメラ -->
<g id="edge44" class="edge">
<title>Edy&#45;&gt;ヨドバシカメラ</title>
<path fill="none" stroke="#000000" stroke-width="2" d="M489.0203,-555.2652C493.0619,-612.1454 512.2405,-788.8734 598,-899 625.8999,-934.8271 907.9148,-1088.6654 948,-1110 950.8434,-1111.5133 953.7869,-1113.0303 956.7713,-1114.5306"/>
<polygon fill="#000000" stroke="#000000" stroke-width="2" points="955.2695,-1117.6924 965.7881,-1118.9615 958.3568,-1111.41 955.2695,-1117.6924"/>
</g>
<!-- 餃子の王将 -->
<g id="node47" class="node">
<title>餃子の王将</title>
<polygon fill="none" stroke="#000000" points="1050,-463 962,-463 962,-427 1050,-427 1050,-463"/>
<text text-anchor="middle" x="1006" y="-441.3" font-family="Times,serif" font-size="14.00" fill="#000000">餃子の王将</text>
</g>
<!-- Edy&#45;&gt;餃子の王将 -->
<g id="edge65" class="edge">
<title>Edy&#45;&gt;餃子の王将</title>
<path fill="none" stroke="#000000" stroke-width="2" d="M515.026,-530.376C537.2337,-525.0493 569.5542,-517.5628 598,-512 724.0765,-487.3449 873.2732,-464.4177 951.6488,-452.8519"/>
<polygon fill="#000000" stroke="#000000" stroke-width="2" points="952.3844,-456.2814 961.7687,-451.3636 951.3659,-449.3559 952.3844,-456.2814"/>
</g>
<!-- FRESCO -->
<g id="node49" class="node">
<title>FRESCO</title>
<polygon fill="none" stroke="#000000" points="1046,-571 966,-571 966,-535 1046,-535 1046,-571"/>
<text text-anchor="middle" x="1006" y="-549.3" font-family="Times,serif" font-size="14.00" fill="#000000">FRESCO</text>
</g>
<!-- Edy&#45;&gt;FRESCO -->
<g id="edge62" class="edge">
<title>Edy&#45;&gt;FRESCO</title>
<path fill="none" stroke="#000000" stroke-width="2" d="M515.1206,-537.8377C597.82,-540.3921 847.718,-548.111 955.5598,-551.442"/>
<polygon fill="#000000" stroke="#000000" stroke-width="2" points="955.7458,-554.9493 965.8491,-551.7598 955.962,-547.9527 955.7458,-554.9493"/>
</g>
<!-- 業務スーパー -->
<g id="node50" class="node">
<title>業務スーパー</title>
<polygon fill="none" stroke="#000000" points="1056.5,-144 955.5,-144 955.5,-108 1056.5,-108 1056.5,-144"/>
<text text-anchor="middle" x="1006" y="-122.3" font-family="Times,serif" font-size="14.00" fill="#000000">業務スーパー</text>
</g>
<!-- Edy&#45;&gt;業務スーパー -->
<g id="edge61" class="edge">
<title>Edy&#45;&gt;業務スーパー</title>
<path fill="none" stroke="#000000" stroke-width="2" d="M491.8933,-518.9178C505.3241,-458.1653 551.4538,-262.8474 598,-221 695.4151,-133.4189 857.7245,-122.0514 945.3867,-123.0073"/>
<polygon fill="#000000" stroke="#000000" stroke-width="2" points="945.3827,-126.5076 955.4396,-123.1749 945.4994,-119.5086 945.3827,-126.5076"/>
</g>
<!-- 吉野家 -->
<g id="node52" class="node">
<title>吉野家</title>
<polygon fill="none" stroke="#000000" points="1035.5,-517 976.5,-517 976.5,-481 1035.5,-481 1035.5,-517"/>
<text text-anchor="middle" x="1006" y="-495.3" font-family="Times,serif" font-size="14.00" fill="#000000">吉野家</text>
</g>
<!-- Edy&#45;&gt;吉野家 -->
<g id="edge50" class="edge">
<title>Edy&#45;&gt;吉野家</title>
<path fill="none" stroke="#000000" stroke-width="2" d="M515.1206,-535.0105C600.6689,-528.7347 865.1338,-509.3338 966.1865,-501.9207"/>
<polygon fill="#000000" stroke="#000000" stroke-width="2" points="966.5688,-505.4021 976.2859,-501.1798 966.0566,-498.4209 966.5688,-505.4021"/>
</g>
<!-- PayPay&#45;&gt;飲食店 -->
<g id="edge11" class="edge">
<title>PayPay&#45;&gt;飲食店</title>
<path fill="none" stroke="#000000" stroke-width="2" d="M522.1257,-2021.4177C528.9274,-2023.7156 536.1024,-2025.7464 543,-2027 697.4128,-2055.0641 885.5905,-2043.231 966.2244,-2036.0322"/>
<polygon fill="#000000" stroke="#000000" stroke-width="2" points="966.7846,-2039.4956 976.4221,-2035.0946 966.1437,-2032.525 966.7846,-2039.4956"/>
</g>
<!-- メルペイ&#45;&gt;三井住友銀行 -->
<g id="edge79" class="edge">
<title>メルペイ&#45;&gt;三井住友銀行</title>
<path fill="none" stroke="#000000" stroke-width="2" d="M450.5811,-1434.6137C394.5147,-1453.907 289.0067,-1497.8514 230,-1571 225.9413,-1576.0314 171.9645,-1750.5931 150.6098,-1819.9758"/>
<polygon fill="#000000" stroke="#000000" stroke-width="2" points="147.1851,-1819.2052 147.5902,-1829.7923 153.8757,-1821.2633 147.1851,-1819.2052"/>
</g>
<!-- メルペイ&#45;&gt;メルカリ -->
<g id="edge78" class="edge">
<title>メルペイ&#45;&gt;メルカリ</title>
<path fill="none" stroke="#000000" stroke-width="2" d="M525.2533,-1420.9144C617.5427,-1415.7476 856.6693,-1402.3602 958.7193,-1396.647"/>
<polygon fill="#000000" stroke="#000000" stroke-width="2" points="958.9483,-1400.1397 968.737,-1396.0862 958.5569,-1393.1507 958.9483,-1400.1397"/>
</g>
<!-- Ponta&#45;&gt;じゃらん -->
<g id="edge53" class="edge">
<title>Ponta&#45;&gt;じゃらん</title>
<path fill="none" stroke="#000000" d="M720.6256,-1251.7777C767.7236,-1246.3039 863.0051,-1241.5512 930,-1280 946.2291,-1289.314 963.0003,-1301.5676 976.6456,-1312.326"/>
<polygon fill="#000000" stroke="#000000" points="974.7147,-1315.264 984.705,-1318.7917 979.0951,-1309.8039 974.7147,-1315.264"/>
</g>
<!-- Tポイント -->
<g id="node22" class="node">
<title>Tポイント</title>
<polygon fill="none" stroke="#000000" points="733.5,-890 650.5,-890 650.5,-854 733.5,-854 733.5,-890"/>
<text text-anchor="middle" x="692" y="-868.3" font-family="Times,serif" font-size="14.00" fill="#000000">Tポイント</text>
</g>
<!-- はぴeポイント -->
<g id="node30" class="node">
<title>はぴeポイント</title>
<polygon fill="none" stroke="#000000" points="747,-818 637,-818 637,-782 747,-782 747,-818"/>
<text text-anchor="middle" x="692" y="-796.3" font-family="Times,serif" font-size="14.00" fill="#000000">はぴeポイント</text>
</g>
<!-- Tポイント&#45;&gt;はぴeポイント -->
<g id="edge49" class="edge">
<title>Tポイント&#45;&gt;はぴeポイント</title>
<path fill="none" stroke="#000000" d="M692,-853.9539C692,-845.4073 692,-836.8607 692,-828.3142"/>
<polygon fill="#000000" stroke="#000000" points="695.5001,-828.2812 692,-818.2813 688.5001,-828.2813 695.5001,-828.2812"/>
</g>
<!-- 楽天ポイント&#45;&gt;楽天モバイル -->
<g id="edge39" class="edge">
<title>楽天ポイント&#45;&gt;楽天モバイル</title>
<path fill="none" stroke="#000000" d="M743.1484,-382.5522C798.3454,-372.3566 886.2162,-356.1257 944.9792,-345.2714"/>
<polygon fill="#000000" stroke="#000000" points="945.6756,-348.702 954.8735,-343.4437 944.4041,-341.8185 945.6756,-348.702"/>
</g>
<!-- 楽天ポイント&#45;&gt;楽天でんき -->
<g id="edge40" class="edge">
<title>楽天ポイント&#45;&gt;楽天でんき</title>
<path fill="none" stroke="#000000" d="M734.3474,-373.9282C791.3126,-349.6182 892.5563,-306.4123 954.056,-280.1672"/>
<polygon fill="#000000" stroke="#000000" points="955.7485,-283.2504 963.5722,-276.1061 953.0009,-276.8121 955.7485,-283.2504"/>
</g>
<!-- JREポイント&#45;&gt;Suica -->
<g id="edge22" class="edge">
<title>JREポイント&#45;&gt;Suica</title>
<path fill="none" stroke="#000000" d="M641.3411,-1495.9643C622.1564,-1493.9577 600.1,-1491.9847 580,-1491 563.5753,-1490.1954 559.4438,-1490.8505 543,-1491 537.7043,-1491.0481 532.1222,-1491.1223 526.6262,-1491.2091"/>
<polygon fill="#000000" stroke="#000000" points="526.1995,-1487.7158 516.2613,-1491.3877 526.3202,-1494.7148 526.1995,-1487.7158"/>
</g>
<!-- ビックポイント&#45;&gt;ビックカメラ -->
<g id="edge16" class="edge">
<title>ビックポイント&#45;&gt;ビックカメラ</title>
<path fill="none" stroke="#000000" d="M750.3042,-1591.837C795.0911,-1591.701 858.0391,-1594.8452 911,-1610 931.7522,-1615.9383 953.1707,-1626.7366 970.4055,-1636.7824"/>
<polygon fill="#000000" stroke="#000000" points="968.634,-1639.8011 979.0112,-1641.9374 972.2312,-1633.796 968.634,-1639.8011"/>
</g>
<!-- Amazonポイント -->
<g id="node26" class="node">
<title>Amazonポイント</title>
<polygon fill="none" stroke="#000000" points="757.5,-266 626.5,-266 626.5,-230 757.5,-230 757.5,-266"/>
<text text-anchor="middle" x="692" y="-244.3" font-family="Times,serif" font-size="14.00" fill="#000000">Amazonポイント</text>
</g>
<!-- Amazonポイント&#45;&gt;Amazon -->
<g id="edge56" class="edge">
<title>Amazonポイント&#45;&gt;Amazon</title>
<path fill="none" stroke="#000000" d="M750.3251,-229.9812C810.4323,-215.0252 902.9894,-195.1123 958.7019,-185.249"/>
<polygon fill="#000000" stroke="#000000" points="959.402,-188.6799 968.6597,-183.5277 958.2096,-181.7822 959.402,-188.6799"/>
</g>
<!-- nanacoポイント&#45;&gt;nanaco -->
<g id="edge60" class="edge">
<title>nanacoポイント&#45;&gt;nanaco</title>
<path fill="none" stroke="#000000" d="M629.2624,-1038.8533C597.8369,-1031.7671 560.5436,-1023.3579 532.1682,-1016.9595"/>
<polygon fill="#000000" stroke="#000000" points="532.67,-1013.4848 522.145,-1014.6994 531.1302,-1020.3134 532.67,-1013.4848"/>
</g>
<!-- FRESCOポイント -->
<g id="node28" class="node">
<title>FRESCOポイント</title>
<polygon fill="none" stroke="#000000" points="760.5,-619 623.5,-619 623.5,-583 760.5,-583 760.5,-619"/>
<text text-anchor="middle" x="692" y="-597.3" font-family="Times,serif" font-size="14.00" fill="#000000">FRESCOポイント</text>
</g>
<!-- FRESCOポイント&#45;&gt;FRESCO -->
<g id="edge64" class="edge">
<title>FRESCOポイント&#45;&gt;FRESCO</title>
<path fill="none" stroke="#000000" d="M760.5133,-608.549C804.1679,-611.4409 861.6015,-611.6704 911,-600 931.0963,-595.2522 951.8287,-585.6356 968.7779,-576.331"/>
<polygon fill="#000000" stroke="#000000" points="970.8054,-579.2049 977.7769,-571.2268 967.3518,-573.1161 970.8054,-579.2049"/>
</g>
<!-- ヨドバシゴールドポイント -->
<g id="node29" class="node">
<title>ヨドバシゴールドポイント</title>
<polygon fill="none" stroke="#000000" points="786,-1173 598,-1173 598,-1137 786,-1137 786,-1173"/>
<text text-anchor="middle" x="692" y="-1151.3" font-family="Times,serif" font-size="14.00" fill="#000000">ヨドバシゴールドポイント</text>
</g>
<!-- ヨドバシゴールドポイント&#45;&gt;ヨドバシカメラ -->
<g id="edge46" class="edge">
<title>ヨドバシゴールドポイント&#45;&gt;ヨドバシカメラ</title>
<path fill="none" stroke="#000000" d="M786.0219,-1161.3189C824.8204,-1162.6209 870.1764,-1162.4583 911,-1158 919.723,-1157.0474 928.8178,-1155.6166 937.7742,-1153.941"/>
<polygon fill="#000000" stroke="#000000" points="938.6697,-1157.3318 947.8003,-1151.9576 937.3112,-1150.4648 938.6697,-1157.3318"/>
</g>
<!-- はぴeポイント&#45;&gt;関西電力 -->
<g id="edge34" class="edge">
<title>はぴeポイント&#45;&gt;関西電力</title>
<path fill="none" stroke="#000000" d="M742.9616,-818.1559C757.8925,-825.0499 773.5376,-833.9652 786,-845 808.8921,-865.2698 798.3808,-884.8669 823,-903 862.9229,-932.405 919.1776,-944.5169 958.7489,-949.5058"/>
<polygon fill="#000000" stroke="#000000" points="958.5991,-953.0116 968.9342,-950.6799 959.4008,-946.0577 958.5991,-953.0116"/>
</g>
<!-- 株主優待券&#45;&gt;現金 -->
<g id="edge73" class="edge">
<title>株主優待券&#45;&gt;現金</title>
<path fill="none" stroke="#000000" d="M822.7153,-1914.5271C747.418,-1917.587 595.7783,-1917.4879 525.4271,-1914.2297"/>
<polygon fill="#000000" stroke="#000000" points="525.4244,-1910.7249 515.2567,-1913.7029 525.0623,-1917.7156 525.4244,-1910.7249"/>
</g>
<!-- 株主優待券&#45;&gt;電車 -->
<g id="edge72" class="edge">
<title>株主優待券&#45;&gt;電車</title>
<path fill="none" stroke="#000000" stroke-width="2" d="M881.6127,-1891.7078C906.392,-1860.6892 956.7284,-1797.6781 985.1853,-1762.0558"/>
<polygon fill="#000000" stroke="#000000" stroke-width="2" points="988.0761,-1764.0447 991.5831,-1754.0471 982.607,-1759.6756 988.0761,-1764.0447"/>
</g>
<!-- 昼間回数券&#45;&gt;現金 -->
<g id="edge75" class="edge">
<title>昼間回数券&#45;&gt;現金</title>
<path fill="none" stroke="#000000" d="M822.7914,-1971.5398C759.748,-1973.0906 640.8183,-1966.8512 543,-1942 534.3481,-1939.8019 525.2829,-1936.4742 517.0651,-1932.6834"/>
<polygon fill="#000000" stroke="#000000" points="518.3887,-1929.4312 507.8829,-1928.0604 515.2408,-1935.6835 518.3887,-1929.4312"/>
</g>
<!-- 昼間回数券&#45;&gt;バス -->
<g id="edge76" class="edge">
<title>昼間回数券&#45;&gt;バス</title>
<path fill="none" stroke="#000000" stroke-width="2" d="M895.7201,-1947.7335C900.8767,-1944.2674 906.1504,-1940.5974 911,-1937 934.1114,-1919.8564 959.0877,-1898.9869 977.6282,-1883.004"/>
<polygon fill="#000000" stroke="#000000" stroke-width="2" points="980.1467,-1885.4527 985.4094,-1876.2574 975.5611,-1880.1638 980.1467,-1885.4527"/>
</g>
<!-- 電車&#45;&gt;PiTaPa -->
<g id="edge67" class="edge">
<title>電車&#45;&gt;PiTaPa</title>
<path fill="none" stroke="#000000" d="M978.7054,-1741.821C964.2957,-1744.6011 946.2725,-1747.6183 930,-1749 882.6129,-1753.0236 870.5546,-1748.5413 823,-1748 657.6481,-1746.1177 616.231,-1747.5952 451,-1741 442.5506,-1740.6627 440.4114,-1740.8691 432,-1740 409.6369,-1737.6894 384.8809,-1733.9678 364.5259,-1730.5949"/>
<polygon fill="#000000" stroke="#000000" points="365.0615,-1727.1359 354.6186,-1728.9237 363.8971,-1734.0384 365.0615,-1727.1359"/>
<text text-anchor="middle" x="692" y="-1751.8" font-family="Times,serif" font-size="14.00" fill="#000000">10%</text>
</g>
<!-- バス&#45;&gt;PiTaPa -->
<g id="edge69" class="edge">
<title>バス&#45;&gt;PiTaPa</title>
<path fill="none" stroke="#000000" d="M978.7045,-1859.409C879.3335,-1864.0196 538.1424,-1875.1595 451,-1816 421.8855,-1796.2347 441.6965,-1767.7077 414,-1746 400.0499,-1735.0663 381.5628,-1729.2611 364.8216,-1726.2045"/>
<polygon fill="#000000" stroke="#000000" points="365.0972,-1722.7056 354.6796,-1724.6353 364.0268,-1729.6233 365.0972,-1722.7056"/>
<text text-anchor="middle" x="692" y="-1867.8" font-family="Times,serif" font-size="14.00" fill="#000000">10%</text>
</g>
<!-- 楽天モバイル&#45;&gt;楽天ポイント -->
<g id="edge38" class="edge">
<title>楽天モバイル&#45;&gt;楽天ポイント</title>
<path fill="none" stroke="#000000" d="M986.4465,-352.1142C972.0302,-364.2097 951.2973,-379.1161 930,-386 872.17,-404.6922 802.2538,-403.8911 753.2143,-399.8229"/>
<polygon fill="#000000" stroke="#000000" points="753.352,-396.3213 743.0786,-398.9111 752.7247,-403.2931 753.352,-396.3213"/>
<text text-anchor="middle" x="867" y="-406.8" font-family="Times,serif" font-size="14.00" fill="#000000">0.5%</text>
</g>
<!-- 関西電力&#45;&gt;はぴeポイント -->
<g id="edge33" class="edge">
<title>関西電力&#45;&gt;はぴeポイント</title>
<path fill="none" stroke="#000000" d="M1001.0734,-934.8289C990.8106,-901.0243 963.5998,-829.2546 911,-800 864.5088,-774.1429 803.4174,-776.5504 757.5735,-784.0503"/>
<polygon fill="#000000" stroke="#000000" points="756.69,-780.6518 747.4464,-785.8293 757.9012,-787.5463 756.69,-780.6518"/>
<text text-anchor="middle" x="867" y="-803.8" font-family="Times,serif" font-size="14.00" fill="#000000">0.5%</text>
</g>
<!-- ヤマト運輸&#45;&gt;Tポイント -->
<g id="edge43" class="edge">
<title>ヤマト運輸&#45;&gt;Tポイント</title>
<path fill="none" stroke="#000000" d="M997.6997,-765.0242C985.975,-788.4476 962.3321,-828.9506 930,-851 875.0617,-888.4661 795.5981,-887.2433 743.8699,-881.0948"/>
<polygon fill="#000000" stroke="#000000" points="744.2753,-877.6182 733.9096,-879.8094 743.3794,-884.5606 744.2753,-877.6182"/>
<text text-anchor="middle" x="867" y="-887.8" font-family="Times,serif" font-size="14.00" fill="#000000">0.5%</text>
</g>
<!-- ウェルシア&#45;&gt;Tポイント -->
<g id="edge48" class="edge">
<title>ウェルシア&#45;&gt;Tポイント</title>
<path fill="none" stroke="#000000" d="M962.3164,-708.7305C957.0551,-711.894 952.1026,-715.6248 948,-720 917.0061,-753.0532 944.8552,-784.8842 911,-815 898.4177,-826.1926 804.4546,-847.9607 743.7636,-861.118"/>
<polygon fill="#000000" stroke="#000000" points="742.9946,-857.7033 733.9567,-863.232 744.4697,-864.5461 742.9946,-857.7033"/>
<text text-anchor="middle" x="867" y="-846.8" font-family="Times,serif" font-size="14.00" fill="#000000">1%</text>
</g>
<!-- ビックカメラ&#45;&gt;ビックポイント -->
<g id="edge14" class="edge">
<title>ビックカメラ&#45;&gt;ビックポイント</title>
<path fill="none" stroke="#000000" stroke-dasharray="5,2" d="M955.0547,-1643.127C940.8906,-1638.7981 925.4335,-1634.4073 911,-1631 860.8648,-1619.1647 803.4159,-1609.6058 759.9399,-1603.1704"/>
<polygon fill="#000000" stroke="#000000" points="760.4457,-1599.7073 750.0446,-1601.7239 759.4331,-1606.6337 760.4457,-1599.7073"/>
<text text-anchor="middle" x="867" y="-1634.8" font-family="Times,serif" font-size="14.00" fill="#000000">9.5%</text>
</g>
<!-- ヨドバシカメラ&#45;&gt;ヨドバシゴールドポイント -->
<g id="edge45" class="edge">
<title>ヨドバシカメラ&#45;&gt;ヨドバシゴールドポイント</title>
<path fill="none" stroke="#000000" d="M947.8547,-1138.0374C911.866,-1138.8952 864.7206,-1140.4074 823,-1143 814.3052,-1143.5403 805.2931,-1144.186 796.2513,-1144.8937"/>
<polygon fill="#000000" stroke="#000000" points="795.7317,-1141.4242 786.0454,-1145.7168 796.2945,-1148.4015 795.7317,-1141.4242"/>
<text text-anchor="middle" x="867" y="-1146.8" font-family="Times,serif" font-size="14.00" fill="#000000">10%</text>
</g>
<!-- FRESCO&#45;&gt;FRESCOポイント -->
<g id="edge63" class="edge">
<title>FRESCO&#45;&gt;FRESCOポイント</title>
<path fill="none" stroke="#000000" d="M965.9053,-559.1291C916.8844,-566.6228 832.7896,-579.478 770.6794,-588.9726"/>
<polygon fill="#000000" stroke="#000000" points="769.8769,-585.5545 760.5206,-590.5255 770.9347,-592.4741 769.8769,-585.5545"/>
<text text-anchor="middle" x="867" y="-584.8" font-family="Times,serif" font-size="14.00" fill="#000000">0.5%</text>
</g>
<!-- Amazon&#45;&gt;Amazonポイント -->
<g id="edge55" class="edge">
<title>Amazon&#45;&gt;Amazonポイント</title>
<path fill="none" stroke="#000000" d="M968.7519,-192.6208C919.4572,-205.6847 831.3804,-225.1984 767.8076,-237.4565"/>
<polygon fill="#000000" stroke="#000000" points="766.9924,-234.0488 757.8247,-239.3594 768.3032,-240.925 766.9924,-234.0488"/>
</g>
<!-- じゃらん&#45;&gt;Ponta -->
<g id="edge54" class="edge">
<title>じゃらん&#45;&gt;Ponta</title>
<path fill="none" stroke="#000000" d="M968.7078,-1325.0203C951.2551,-1319.5673 930.1404,-1313.1882 911,-1308 848.323,-1291.0106 774.7368,-1274.1666 730.8147,-1264.438"/>
<polygon fill="#000000" stroke="#000000" points="731.3632,-1260.975 720.844,-1262.2391 729.8556,-1267.8107 731.3632,-1260.975"/>
<text text-anchor="middle" x="867" y="-1311.8" font-family="Times,serif" font-size="14.00" fill="#000000">2%</text>
</g>
</g>
</svg>
