<?xml version="1.0" encoding="UTF-8" standalone="no"?>
<!DOCTYPE svg PUBLIC "-//W3C//DTD SVG 1.1//EN"
 "http://www.w3.org/Graphics/SVG/1.1/DTD/svg11.dtd">
<!-- Generated by graphviz version 2.40.1 (0)
 -->
<!-- Title: MoneyFlow Pages: 1 -->
<svg width="1085pt" height="1758pt"
 viewBox="0.00 0.00 1085.00 1757.94" xmlns="http://www.w3.org/2000/svg" xmlns:xlink="http://www.w3.org/1999/xlink">
<g id="graph0" class="graph" transform="scale(1 1) rotate(0) translate(4 1753.936)">
<title>MoneyFlow</title>
<polygon fill="#ffffff" stroke="transparent" points="-4,4 -4,-1753.936 1081,-1753.936 1081,4 -4,4"/>
<!-- 収入 -->
<g id="node1" class="node">
<title>収入</title>
<text text-anchor="middle" x="27" y="-14.3" font-family="Times,serif" font-size="14.00" fill="#000000">収入</text>
</g>
<!-- 銀行口座 -->
<g id="node2" class="node">
<title>銀行口座</title>
<text text-anchor="middle" x="142" y="-14.3" font-family="Times,serif" font-size="14.00" fill="#000000">銀行口座</text>
</g>
<!-- 収入&#45;&gt;銀行口座 -->
<g id="edge1" class="edge">
<title>収入&#45;&gt;銀行口座</title>
<path fill="none" stroke="#000000" d="M54.2534,-18C69.3972,-18 88.4539,-18 104.9357,-18"/>
</g>
<!-- クレジットカード -->
<g id="node3" class="node">
<title>クレジットカード</title>
<text text-anchor="middle" x="322" y="-14.3" font-family="Times,serif" font-size="14.00" fill="#000000">クレジットカード</text>
</g>
<!-- 銀行口座&#45;&gt;クレジットカード -->
<g id="edge2" class="edge">
<title>銀行口座&#45;&gt;クレジットカード</title>
<path fill="none" stroke="#000000" d="M179.2961,-18C201.6417,-18 230.6798,-18 256.7236,-18"/>
</g>
<!-- マネー -->
<g id="node4" class="node">
<title>マネー</title>
<text text-anchor="middle" x="485" y="-14.3" font-family="Times,serif" font-size="14.00" fill="#000000">マネー</text>
</g>
<!-- クレジットカード&#45;&gt;マネー -->
<g id="edge3" class="edge">
<title>クレジットカード&#45;&gt;マネー</title>
<path fill="none" stroke="#000000" d="M387.3591,-18C410.9188,-18 436.353,-18 455.3549,-18"/>
</g>
<!-- ポイント -->
<g id="node5" class="node">
<title>ポイント</title>
<text text-anchor="middle" x="686" y="-14.3" font-family="Times,serif" font-size="14.00" fill="#000000">ポイント</text>
</g>
<!-- マネー&#45;&gt;ポイント -->
<g id="edge4" class="edge">
<title>マネー&#45;&gt;ポイント</title>
<path fill="none" stroke="#000000" d="M514.6582,-18C550.2582,-18 609.9876,-18 648.6865,-18"/>
</g>
<!-- 金券 -->
<g id="node6" class="node">
<title>金券</title>
<text text-anchor="middle" x="870.5" y="-14.3" font-family="Times,serif" font-size="14.00" fill="#000000">金券</text>
</g>
<!-- ポイント&#45;&gt;金券 -->
<g id="edge5" class="edge">
<title>ポイント&#45;&gt;金券</title>
<path fill="none" stroke="#000000" d="M723.3363,-18C758.9263,-18 811.6612,-18 843.3941,-18"/>
</g>
<!-- 支出 -->
<g id="node7" class="node">
<title>支出</title>
<text text-anchor="middle" x="1019" y="-14.3" font-family="Times,serif" font-size="14.00" fill="#000000">支出</text>
</g>
<!-- 金券&#45;&gt;支出 -->
<g id="edge6" class="edge">
<title>金券&#45;&gt;支出</title>
<path fill="none" stroke="#000000" d="M897.7372,-18C924.5314,-18 965.2011,-18 991.9355,-18"/>
</g>
<!-- 給与 -->
<g id="node8" class="node">
<title>給与</title>
<polygon fill="none" stroke="#000000" points="54,-1163 0,-1163 0,-1127 54,-1127 54,-1163"/>
<text text-anchor="middle" x="27" y="-1141.3" font-family="Times,serif" font-size="14.00" fill="#000000">給与</text>
</g>
<!-- 三井住友銀行 -->
<g id="node9" class="node">
<title>三井住友銀行</title>
<polygon fill="none" stroke="#000000" points="193,-1163 91,-1163 91,-1127 193,-1127 193,-1163"/>
<text text-anchor="middle" x="142" y="-1141.3" font-family="Times,serif" font-size="14.00" fill="#000000">三井住友銀行</text>
</g>
<!-- 給与&#45;&gt;三井住友銀行 -->
<g id="edge7" class="edge">
<title>給与&#45;&gt;三井住友銀行</title>
<path fill="none" stroke="#000000" stroke-width="2" d="M54.2534,-1145C62.2529,-1145 71.3442,-1145 80.571,-1145"/>
<polygon fill="#000000" stroke="#000000" stroke-width="2" points="80.5912,-1148.5001 90.5911,-1145 80.5911,-1141.5001 80.5912,-1148.5001"/>
</g>
<!-- 住信SBI銀行 -->
<g id="node10" class="node">
<title>住信SBI銀行</title>
<polygon fill="none" stroke="#000000" points="192,-1091 92,-1091 92,-1055 192,-1055 192,-1091"/>
<text text-anchor="middle" x="142" y="-1069.3" font-family="Times,serif" font-size="14.00" fill="#000000">住信SBI銀行</text>
</g>
<!-- 三井住友銀行&#45;&gt;住信SBI銀行 -->
<g id="edge9" class="edge">
<title>三井住友銀行&#45;&gt;住信SBI銀行</title>
<path fill="none" stroke="#000000" stroke-width="2" d="M142,-1126.9539C142,-1118.4073 142,-1109.8607 142,-1101.3142"/>
<polygon fill="#000000" stroke="#000000" stroke-width="2" points="145.5001,-1101.2812 142,-1091.2813 138.5001,-1101.2813 145.5001,-1101.2812"/>
</g>
<!-- 現金 -->
<g id="node14" class="node">
<title>現金</title>
<polygon fill="none" stroke="#000000" points="512,-1517 458,-1517 458,-1481 512,-1481 512,-1517"/>
<text text-anchor="middle" x="485" y="-1495.3" font-family="Times,serif" font-size="14.00" fill="#000000">現金</text>
</g>
<!-- 三井住友銀行&#45;&gt;現金 -->
<g id="edge8" class="edge">
<title>三井住友銀行&#45;&gt;現金</title>
<path fill="none" stroke="#000000" stroke-width="2" d="M145.7742,-1163.0725C154.6114,-1201.7378 179.8009,-1293.777 230,-1353 289.9314,-1423.7048 393.2408,-1467.5897 448.1661,-1487.1092"/>
<polygon fill="#000000" stroke="#000000" stroke-width="2" points="447.2426,-1490.4936 457.8374,-1490.4714 449.5412,-1483.8817 447.2426,-1490.4936"/>
</g>
<!-- 関西電力 -->
<g id="node36" class="node">
<title>関西電力</title>
<polygon fill="none" stroke="#000000" points="1056,-147 982,-147 982,-111 1056,-111 1056,-147"/>
<text text-anchor="middle" x="1019" y="-125.3" font-family="Times,serif" font-size="14.00" fill="#000000">関西電力</text>
</g>
<!-- 三井住友銀行&#45;&gt;関西電力 -->
<g id="edge10" class="edge">
<title>三井住友銀行&#45;&gt;関西電力</title>
<path fill="none" stroke="#000000" stroke-width="2" d="M170.2828,-1126.8627C179.1387,-1119.6422 187.9174,-1110.5273 193,-1100 262.0779,-956.9232 161.6445,-529.4233 230,-386 306.5433,-225.397 377.5894,-153 555.5,-153 555.5,-153 555.5,-153 870.5,-153 904.7244,-153 942.8239,-146.7108 971.8624,-140.5713"/>
<polygon fill="#000000" stroke="#000000" stroke-width="2" points="972.7111,-143.9686 981.7346,-138.4166 971.2183,-137.1296 972.7111,-143.9686"/>
</g>
<!-- ビックカメラSuicaカード -->
<g id="node11" class="node">
<title>ビックカメラSuicaカード</title>
<polygon fill="none" stroke="#000000" points="414,-1183 230,-1183 230,-1147 414,-1147 414,-1183"/>
<text text-anchor="middle" x="322" y="-1161.3" font-family="Times,serif" font-size="14.00" fill="#000000">ビックカメラSuicaカード</text>
</g>
<!-- 住信SBI銀行&#45;&gt;ビックカメラSuicaカード -->
<g id="edge31" class="edge">
<title>住信SBI銀行&#45;&gt;ビックカメラSuicaカード</title>
<path fill="none" stroke="#000000" stroke-width="2" d="M192.3211,-1087.0544C199.0433,-1089.4402 205.7635,-1092.0973 212,-1095 239.4162,-1107.7606 268.1742,-1126.2659 289.4073,-1141.0451"/>
<polygon fill="#000000" stroke="#000000" stroke-width="2" points="287.5428,-1144.013 297.732,-1146.9169 291.5776,-1138.2928 287.5428,-1144.013"/>
</g>
<!-- リクルートカード -->
<g id="node12" class="node">
<title>リクルートカード</title>
<polygon fill="none" stroke="#000000" points="386.5,-431 257.5,-431 257.5,-395 386.5,-395 386.5,-431"/>
<text text-anchor="middle" x="322" y="-409.3" font-family="Times,serif" font-size="14.00" fill="#000000">リクルートカード</text>
</g>
<!-- 住信SBI銀行&#45;&gt;リクルートカード -->
<g id="edge32" class="edge">
<title>住信SBI銀行&#45;&gt;リクルートカード</title>
<path fill="none" stroke="#000000" stroke-width="2" d="M147.0021,-1054.659C172.0571,-962.7906 283.9099,-552.6636 314.3373,-441.0965"/>
<polygon fill="#000000" stroke="#000000" stroke-width="2" points="317.7675,-441.821 317.0221,-431.2524 311.0142,-439.9791 317.7675,-441.821"/>
</g>
<!-- 住信SBI銀行&#45;&gt;現金 -->
<g id="edge29" class="edge">
<title>住信SBI銀行&#45;&gt;現金</title>
<path fill="none" stroke="#000000" stroke-width="2" d="M166.1489,-1091.0257C175.3126,-1098.6591 185.3681,-1108.0793 193,-1118 215.4207,-1147.1447 207.5189,-1162.9019 230,-1192 296.4351,-1277.9894 360.4765,-1258.4323 414,-1353 436.2434,-1392.3006 409.6776,-1413.7442 432,-1453 436.5997,-1461.089 443.1722,-1468.4458 450.131,-1474.7872"/>
<polygon fill="#000000" stroke="#000000" stroke-width="2" points="447.8682,-1477.4574 457.7585,-1481.2565 452.3961,-1472.1189 447.8682,-1477.4574"/>
</g>
<!-- 家賃 -->
<g id="node30" class="node">
<title>家賃</title>
<polygon fill="none" stroke="#000000" points="1046,-967 992,-967 992,-931 1046,-931 1046,-967"/>
<text text-anchor="middle" x="1019" y="-945.3" font-family="Times,serif" font-size="14.00" fill="#000000">家賃</text>
</g>
<!-- 住信SBI銀行&#45;&gt;家賃 -->
<g id="edge30" class="edge">
<title>住信SBI銀行&#45;&gt;家賃</title>
<path fill="none" stroke="#000000" stroke-width="2" d="M157.29,-1054.8446C186.0142,-1022.9021 251.5256,-960 322,-960 322,-960 322,-960 555.5,-960 713.8637,-960 902.5775,-953.5028 981.4529,-950.4951"/>
<polygon fill="#000000" stroke="#000000" stroke-width="2" points="981.9812,-953.9775 991.839,-950.0949 981.7117,-946.9827 981.9812,-953.9775"/>
</g>
<!-- Suica -->
<g id="node13" class="node">
<title>Suica</title>
<polygon fill="none" stroke="#000000" points="513,-1361 457,-1361 457,-1325 513,-1325 513,-1361"/>
<text text-anchor="middle" x="485" y="-1339.3" font-family="Times,serif" font-size="14.00" fill="#000000">Suica</text>
</g>
<!-- ビックカメラSuicaカード&#45;&gt;Suica -->
<g id="edge18" class="edge">
<title>ビックカメラSuicaカード&#45;&gt;Suica</title>
<path fill="none" stroke="#000000" stroke-width="2" d="M338.5263,-1183.0472C367.571,-1214.7647 427.8572,-1280.5987 461.3224,-1317.1434"/>
<polygon fill="#000000" stroke="#000000" stroke-width="2" points="459.0952,-1319.8938 468.4299,-1324.9051 464.2577,-1315.1663 459.0952,-1319.8938"/>
</g>
<!-- JREポイント -->
<g id="node20" class="node">
<title>JREポイント</title>
<polygon fill="none" stroke="#000000" points="736.5,-1229 635.5,-1229 635.5,-1193 736.5,-1193 736.5,-1229"/>
<text text-anchor="middle" x="686" y="-1207.3" font-family="Times,serif" font-size="14.00" fill="#000000">JREポイント</text>
</g>
<!-- ビックカメラSuicaカード&#45;&gt;JREポイント -->
<g id="edge13" class="edge">
<title>ビックカメラSuicaカード&#45;&gt;JREポイント</title>
<path fill="none" stroke="#000000" d="M414.1285,-1176.7342C420.1764,-1177.5018 426.1749,-1178.2624 432,-1179 498.1405,-1187.3753 573.9766,-1196.9221 625.4387,-1203.3921"/>
<polygon fill="#000000" stroke="#000000" points="625.0376,-1206.8692 635.3961,-1204.6439 625.9107,-1199.9238 625.0376,-1206.8692"/>
<text text-anchor="middle" x="485" y="-1192.8" font-family="Times,serif" font-size="14.00" fill="#000000">0.5%</text>
</g>
<!-- ビックポイント -->
<g id="node21" class="node">
<title>ビックポイント</title>
<polygon fill="none" stroke="#000000" points="744,-1572 628,-1572 628,-1536 744,-1536 744,-1572"/>
<text text-anchor="middle" x="686" y="-1550.3" font-family="Times,serif" font-size="14.00" fill="#000000">ビックポイント</text>
</g>
<!-- ビックカメラSuicaカード&#45;&gt;ビックポイント -->
<g id="edge16" class="edge">
<title>ビックカメラSuicaカード&#45;&gt;ビックポイント</title>
<path fill="none" stroke="#000000" d="M332.1222,-1183.1148C356.9959,-1227.273 421.2453,-1339.1077 451,-1370 496.9232,-1417.679 521.8672,-1413.203 574,-1454 604.6668,-1477.9986 637.6813,-1508.0409 659.8608,-1528.9014"/>
<polygon fill="#000000" stroke="#000000" points="657.5617,-1531.5445 667.2324,-1535.8722 662.3713,-1526.4583 657.5617,-1531.5445"/>
<text text-anchor="middle" x="485" y="-1422.8" font-family="Times,serif" font-size="14.00" fill="#000000">0.5%</text>
</g>
<!-- 楽天モバイル -->
<g id="node35" class="node">
<title>楽天モバイル</title>
<polygon fill="none" stroke="#000000" points="1070,-710 968,-710 968,-674 1070,-674 1070,-710"/>
<text text-anchor="middle" x="1019" y="-688.3" font-family="Times,serif" font-size="14.00" fill="#000000">楽天モバイル</text>
</g>
<!-- ビックカメラSuicaカード&#45;&gt;楽天モバイル -->
<g id="edge26" class="edge">
<title>ビックカメラSuicaカード&#45;&gt;楽天モバイル</title>
<path fill="none" stroke="#000000" stroke-width="2" d="M323.2266,-1146.9862C328.2086,-1086.6297 351.713,-888.6209 451,-769 478.8193,-735.4833 495.1525,-734.086 537,-722 576.3791,-710.6268 836.8425,-699.124 957.6535,-694.3258"/>
<polygon fill="#000000" stroke="#000000" stroke-width="2" points="957.9979,-697.815 967.8521,-693.9235 957.7219,-690.8205 957.9979,-697.815"/>
</g>
<!-- ビックカメラ -->
<g id="node40" class="node">
<title>ビックカメラ</title>
<polygon fill="none" stroke="#000000" points="1069.5,-1602 968.5,-1602 968.5,-1566 1069.5,-1566 1069.5,-1602"/>
<text text-anchor="middle" x="1019" y="-1580.3" font-family="Times,serif" font-size="14.00" fill="#000000">ビックカメラ</text>
</g>
<!-- ビックカメラSuicaカード&#45;&gt;ビックカメラ -->
<g id="edge14" class="edge">
<title>ビックカメラSuicaカード&#45;&gt;ビックカメラ</title>
<path fill="none" stroke="#000000" stroke-width="2" stroke-dasharray="5,2" d="M409.1547,-1183.1343C410.8687,-1184.64 412.4893,-1186.2592 414,-1188 439.3335,-1217.1923 425.3542,-1322.9236 432,-1361 438.0606,-1395.7237 428.986,-1410.4709 451,-1438 472.1027,-1464.3895 493.6451,-1449.6648 519,-1472 540.8755,-1491.2702 566.4364,-1566.9864 592,-1581 653.1987,-1614.5483 855.3556,-1600.371 958.0214,-1590.5234"/>
<polygon fill="#000000" stroke="#000000" stroke-width="2" points="958.6247,-1593.9812 968.2373,-1589.5262 957.9446,-1587.0143 958.6247,-1593.9812"/>
</g>
<!-- EX予約 -->
<g id="node50" class="node">
<title>EX予約</title>
<polygon fill="none" stroke="#000000" points="1052,-1183 986,-1183 986,-1147 1052,-1147 1052,-1183"/>
<text text-anchor="middle" x="1019" y="-1161.3" font-family="Times,serif" font-size="14.00" fill="#000000">EX予約</text>
</g>
<!-- ビックカメラSuicaカード&#45;&gt;EX予約 -->
<g id="edge23" class="edge">
<title>ビックカメラSuicaカード&#45;&gt;EX予約</title>
<path fill="none" stroke="#000000" stroke-width="2" stroke-dasharray="5,2" d="M414.2371,-1165C437.3431,-1165 462.0781,-1165 485,-1165 485,-1165 485,-1165 870.5,-1165 906.0157,-1165 946.3093,-1165 975.9544,-1165"/>
<polygon fill="#000000" stroke="#000000" stroke-width="2" points="975.9708,-1168.5001 985.9708,-1165 975.9708,-1161.5001 975.9708,-1168.5001"/>
</g>
<!-- nanaco -->
<g id="node15" class="node">
<title>nanaco</title>
<polygon fill="none" stroke="#000000" points="519,-431 451,-431 451,-395 519,-395 519,-431"/>
<text text-anchor="middle" x="485" y="-409.3" font-family="Times,serif" font-size="14.00" fill="#000000">nanaco</text>
</g>
<!-- リクルートカード&#45;&gt;nanaco -->
<g id="edge51" class="edge">
<title>リクルートカード&#45;&gt;nanaco</title>
<path fill="none" stroke="#000000" stroke-width="2" d="M386.8903,-413C404.8058,-413 423.8397,-413 440.3273,-413"/>
<polygon fill="#000000" stroke="#000000" stroke-width="2" points="440.7569,-416.5001 450.7569,-413 440.7569,-409.5001 440.7569,-416.5001"/>
</g>
<!-- Edy -->
<g id="node16" class="node">
<title>Edy</title>
<polygon fill="none" stroke="#000000" points="512,-814 458,-814 458,-778 512,-778 512,-814"/>
<text text-anchor="middle" x="485" y="-792.3" font-family="Times,serif" font-size="14.00" fill="#000000">Edy</text>
</g>
<!-- リクルートカード&#45;&gt;Edy -->
<g id="edge37" class="edge">
<title>リクルートカード&#45;&gt;Edy</title>
<path fill="none" stroke="#000000" stroke-width="2" d="M329.7522,-431.2152C355.9771,-492.8357 441.4917,-693.769 473.1086,-768.0588"/>
<polygon fill="#000000" stroke="#000000" stroke-width="2" points="470.0638,-769.8425 477.2004,-777.6733 476.5048,-767.1013 470.0638,-769.8425"/>
</g>
<!-- Ponta -->
<g id="node17" class="node">
<title>Ponta</title>
<polygon fill="none" stroke="#000000" points="714.5,-331 657.5,-331 657.5,-295 714.5,-295 714.5,-331"/>
<text text-anchor="middle" x="686" y="-309.3" font-family="Times,serif" font-size="14.00" fill="#000000">Ponta</text>
</g>
<!-- リクルートカード&#45;&gt;Ponta -->
<g id="edge46" class="edge">
<title>リクルートカード&#45;&gt;Ponta</title>
<path fill="none" stroke="#000000" d="M376.1708,-394.9386C399.1888,-387.3743 426.3525,-378.5928 451,-371 489.0404,-359.2815 498.4372,-355.8643 537,-346 574.1971,-336.485 617.0268,-327.1679 647.1929,-320.8737"/>
<polygon fill="#000000" stroke="#000000" points="648.2233,-324.2346 657.3049,-318.778 646.8027,-317.3802 648.2233,-324.2346"/>
<text text-anchor="middle" x="485" y="-374.8" font-family="Times,serif" font-size="14.00" fill="#000000">1.2%</text>
</g>
<!-- ASAHIネット -->
<g id="node34" class="node">
<title>ASAHIネット</title>
<polygon fill="none" stroke="#000000" points="1073.5,-255 964.5,-255 964.5,-219 1073.5,-219 1073.5,-255"/>
<text text-anchor="middle" x="1019" y="-233.3" font-family="Times,serif" font-size="14.00" fill="#000000">ASAHIネット</text>
</g>
<!-- リクルートカード&#45;&gt;ASAHIネット -->
<g id="edge33" class="edge">
<title>リクルートカード&#45;&gt;ASAHIネット</title>
<path fill="none" stroke="#000000" stroke-width="2" d="M333.1946,-394.6847C362.2834,-348.144 441.0435,-229 485,-229 485,-229 485,-229 870.5,-229 897.9656,-229 928.2473,-230.3814 954.262,-231.9962"/>
<polygon fill="#000000" stroke="#000000" stroke-width="2" points="954.1751,-235.4977 964.3797,-232.6488 954.6258,-228.5122 954.1751,-235.4977"/>
</g>
<!-- アイハート -->
<g id="node38" class="node">
<title>アイハート</title>
<polygon fill="none" stroke="#000000" points="1062,-201 976,-201 976,-165 1062,-165 1062,-201"/>
<text text-anchor="middle" x="1019" y="-179.3" font-family="Times,serif" font-size="14.00" fill="#000000">アイハート</text>
</g>
<!-- リクルートカード&#45;&gt;アイハート -->
<g id="edge36" class="edge">
<title>リクルートカード&#45;&gt;アイハート</title>
<path fill="none" stroke="#000000" stroke-width="2" d="M334.9439,-394.7348C352.8837,-369.3509 386.2347,-321.9102 414,-281 430.752,-256.3171 432.1353,-248.1084 451,-225 464.5144,-208.4455 463.6297,-191 485,-191 485,-191 485,-191 870.5,-191 902.1177,-191 937.4674,-189.1694 965.7434,-187.2595"/>
<polygon fill="#000000" stroke="#000000" stroke-width="2" points="966.0891,-190.744 975.8208,-186.5555 965.6012,-183.761 966.0891,-190.744"/>
</g>
<!-- Amazon -->
<g id="node48" class="node">
<title>Amazon</title>
<polygon fill="none" stroke="#000000" points="1056,-545 982,-545 982,-509 1056,-509 1056,-545"/>
<text text-anchor="middle" x="1019" y="-523.3" font-family="Times,serif" font-size="14.00" fill="#000000">Amazon</text>
</g>
<!-- リクルートカード&#45;&gt;Amazon -->
<g id="edge34" class="edge">
<title>リクルートカード&#45;&gt;Amazon</title>
<path fill="none" stroke="#000000" stroke-width="2" d="M332.973,-431.0759C356.1968,-466.7964 414.0547,-543 485,-543 485,-543 485,-543 870.5,-543 904.5975,-543 942.8469,-538.7785 971.9865,-534.6723"/>
<polygon fill="#000000" stroke="#000000" stroke-width="2" points="972.4997,-538.1346 981.8919,-533.2318 971.4923,-531.2075 972.4997,-538.1346"/>
</g>
<!-- じゃらん -->
<g id="node51" class="node">
<title>じゃらん</title>
<polygon fill="none" stroke="#000000" points="1056,-309 982,-309 982,-273 1056,-273 1056,-309"/>
<text text-anchor="middle" x="1019" y="-287.3" font-family="Times,serif" font-size="14.00" fill="#000000">じゃらん</text>
</g>
<!-- リクルートカード&#45;&gt;じゃらん -->
<g id="edge35" class="edge">
<title>リクルートカード&#45;&gt;じゃらん</title>
<path fill="none" stroke="#000000" stroke-width="2" d="M331.2391,-394.8042C352.5547,-355.6663 409.2086,-267 485,-267 485,-267 485,-267 870.5,-267 904.7244,-267 942.8239,-273.2892 971.8624,-279.4287"/>
<polygon fill="#000000" stroke="#000000" stroke-width="2" points="971.2183,-282.8704 981.7346,-281.5834 972.7111,-276.0314 971.2183,-282.8704"/>
</g>
<!-- Suica&#45;&gt;JREポイント -->
<g id="edge24" class="edge">
<title>Suica&#45;&gt;JREポイント</title>
<path fill="none" stroke="#000000" d="M497.5089,-1324.8153C507.3789,-1311.1429 521.9509,-1292.3731 537,-1278 558.8579,-1257.1239 564.8397,-1251.2626 592,-1238 602.3846,-1232.9291 613.8918,-1228.6461 625.1907,-1225.0904"/>
<polygon fill="#000000" stroke="#000000" points="626.4524,-1228.3664 635.0329,-1222.1515 624.4495,-1221.6591 626.4524,-1228.3664"/>
<text text-anchor="middle" x="555.5" y="-1281.8" font-family="Times,serif" font-size="14.00" fill="#000000">1.5%</text>
</g>
<!-- 電車 -->
<g id="node32" class="node">
<title>電車</title>
<polygon fill="none" stroke="#000000" points="1046,-1455 992,-1455 992,-1419 1046,-1419 1046,-1455"/>
<text text-anchor="middle" x="1019" y="-1433.3" font-family="Times,serif" font-size="14.00" fill="#000000">電車</text>
</g>
<!-- Suica&#45;&gt;電車 -->
<g id="edge19" class="edge">
<title>Suica&#45;&gt;電車</title>
<path fill="none" stroke="#000000" stroke-width="2" d="M511.8405,-1361.1454C519.6592,-1365.6825 528.4148,-1370.082 537,-1373 696.0705,-1427.067 899.135,-1435.7487 981.6419,-1436.935"/>
<polygon fill="#000000" stroke="#000000" stroke-width="2" points="981.7433,-1440.4363 991.7827,-1437.051 981.8234,-1433.4368 981.7433,-1440.4363"/>
</g>
<!-- 松屋 -->
<g id="node46" class="node">
<title>松屋</title>
<polygon fill="none" stroke="#000000" points="1046,-1361 992,-1361 992,-1325 1046,-1325 1046,-1361"/>
<text text-anchor="middle" x="1019" y="-1339.3" font-family="Times,serif" font-size="14.00" fill="#000000">松屋</text>
</g>
<!-- Suica&#45;&gt;松屋 -->
<g id="edge20" class="edge">
<title>Suica&#45;&gt;松屋</title>
<path fill="none" stroke="#000000" stroke-width="2" d="M513.3331,-1343C602.9849,-1343 880.5028,-1343 981.6385,-1343"/>
<polygon fill="#000000" stroke="#000000" stroke-width="2" points="981.6971,-1346.5001 991.697,-1343 981.697,-1339.5001 981.6971,-1346.5001"/>
</g>
<!-- 吉野家 -->
<g id="node47" class="node">
<title>吉野家</title>
<polygon fill="none" stroke="#000000" points="1048.5,-1307 989.5,-1307 989.5,-1271 1048.5,-1271 1048.5,-1307"/>
<text text-anchor="middle" x="1019" y="-1285.3" font-family="Times,serif" font-size="14.00" fill="#000000">吉野家</text>
</g>
<!-- Suica&#45;&gt;吉野家 -->
<g id="edge21" class="edge">
<title>Suica&#45;&gt;吉野家</title>
<path fill="none" stroke="#000000" stroke-width="2" d="M513.0633,-1351.9999C520.7424,-1354.0646 529.1218,-1355.958 537,-1357 652.4391,-1372.268 683.8612,-1374.3883 799,-1357 864.2307,-1347.1488 936.7792,-1321.7426 980.1066,-1304.9286"/>
<polygon fill="#000000" stroke="#000000" stroke-width="2" points="981.3911,-1308.1844 989.42,-1301.2715 978.8326,-1301.6687 981.3911,-1308.1844"/>
</g>
<!-- 切符 -->
<g id="node27" class="node">
<title>切符</title>
<polygon fill="none" stroke="#000000" points="897.5,-1483 843.5,-1483 843.5,-1447 897.5,-1447 897.5,-1483"/>
<text text-anchor="middle" x="870.5" y="-1461.3" font-family="Times,serif" font-size="14.00" fill="#000000">切符</text>
</g>
<!-- 現金&#45;&gt;切符 -->
<g id="edge63" class="edge">
<title>現金&#45;&gt;切符</title>
<path fill="none" stroke="#000000" stroke-width="2" d="M512.1076,-1492.9418C579.7091,-1483.0535 755.8639,-1467.3413 833.1889,-1464.0958"/>
<polygon fill="#000000" stroke="#000000" stroke-width="2" points="833.5566,-1467.5848 843.4223,-1463.7225 833.3014,-1460.5895 833.5566,-1467.5848"/>
</g>
<!-- 回数カード -->
<g id="node28" class="node">
<title>回数カード</title>
<polygon fill="none" stroke="#000000" points="914.5,-1745 826.5,-1745 826.5,-1709 914.5,-1709 914.5,-1745"/>
<text text-anchor="middle" x="870.5" y="-1723.3" font-family="Times,serif" font-size="14.00" fill="#000000">回数カード</text>
</g>
<!-- 現金&#45;&gt;回数カード -->
<g id="edge66" class="edge">
<title>現金&#45;&gt;回数カード</title>
<path fill="none" stroke="#000000" stroke-width="2" d="M487.0845,-1517.0547C492.6094,-1561.5161 509.1431,-1674.3965 537,-1698 615.2399,-1764.2938 744.0637,-1752.9775 816.5701,-1739.5434"/>
<polygon fill="#000000" stroke="#000000" stroke-width="2" points="817.2615,-1742.9747 826.4162,-1737.6416 815.9339,-1736.1017 817.2615,-1742.9747"/>
</g>
<!-- 飲食店 -->
<g id="node43" class="node">
<title>飲食店</title>
<polygon fill="none" stroke="#000000" points="1048.5,-1656 989.5,-1656 989.5,-1620 1048.5,-1620 1048.5,-1656"/>
<text text-anchor="middle" x="1019" y="-1634.3" font-family="Times,serif" font-size="14.00" fill="#000000">飲食店</text>
</g>
<!-- 現金&#45;&gt;飲食店 -->
<g id="edge62" class="edge">
<title>現金&#45;&gt;飲食店</title>
<path fill="none" stroke="#000000" stroke-width="2" d="M495.6646,-1517.4285C512.3293,-1544.2252 547.3158,-1593.03 592,-1614 722.7449,-1675.3579 901.3271,-1657.3288 979.5655,-1645.1295"/>
<polygon fill="#000000" stroke="#000000" stroke-width="2" points="980.1687,-1648.5776 989.4835,-1643.5293 979.0537,-1641.6669 980.1687,-1648.5776"/>
</g>
<!-- nanacoポイント -->
<g id="node23" class="node">
<title>nanacoポイント</title>
<polygon fill="none" stroke="#000000" points="748.5,-385 623.5,-385 623.5,-349 748.5,-349 748.5,-385"/>
<text text-anchor="middle" x="686" y="-363.3" font-family="Times,serif" font-size="14.00" fill="#000000">nanacoポイント</text>
</g>
<!-- nanaco&#45;&gt;nanacoポイント -->
<g id="edge53" class="edge">
<title>nanaco&#45;&gt;nanacoポイント</title>
<path fill="none" stroke="#000000" d="M496.4396,-394.9821C505.6548,-382.28 519.8732,-366.2842 537,-359 560.5711,-348.975 588.1619,-347.8875 613.1509,-350.3291"/>
<polygon fill="#000000" stroke="#000000" points="612.9737,-353.8323 623.3142,-351.5251 613.7918,-346.8802 612.9737,-353.8323"/>
<text text-anchor="middle" x="555.5" y="-362.8" font-family="Times,serif" font-size="14.00" fill="#000000">1%</text>
</g>
<!-- iTunesカード -->
<g id="node29" class="node">
<title>iTunesカード</title>
<polygon fill="none" stroke="#000000" points="924,-421 817,-421 817,-385 924,-385 924,-421"/>
<text text-anchor="middle" x="870.5" y="-399.3" font-family="Times,serif" font-size="14.00" fill="#000000">iTunesカード</text>
</g>
<!-- nanaco&#45;&gt;iTunesカード -->
<g id="edge55" class="edge">
<title>nanaco&#45;&gt;iTunesカード</title>
<path fill="none" stroke="#000000" stroke-width="2" d="M519.2106,-412.1126C583.7105,-410.4394 724.2047,-406.7949 806.6402,-404.6565"/>
<polygon fill="#000000" stroke="#000000" stroke-width="2" points="806.9825,-408.1489 816.8884,-404.3907 806.8009,-401.1513 806.9825,-408.1489"/>
</g>
<!-- セブンイレブン -->
<g id="node31" class="node">
<title>セブンイレブン</title>
<polygon fill="none" stroke="#000000" points="1076,-467 962,-467 962,-431 1076,-431 1076,-467"/>
<text text-anchor="middle" x="1019" y="-445.3" font-family="Times,serif" font-size="14.00" fill="#000000">セブンイレブン</text>
</g>
<!-- nanaco&#45;&gt;セブンイレブン -->
<g id="edge52" class="edge">
<title>nanaco&#45;&gt;セブンイレブン</title>
<path fill="none" stroke="#000000" stroke-width="2" d="M519.2445,-421.8056C525.1337,-423.0602 531.2187,-424.1955 537,-425 683.9744,-445.4534 858.2883,-449.0933 951.7649,-449.3943"/>
<polygon fill="#000000" stroke="#000000" stroke-width="2" points="951.9239,-452.8945 961.9309,-449.4148 951.938,-445.8945 951.9239,-452.8945"/>
</g>
<!-- 楽天ポイント -->
<g id="node19" class="node">
<title>楽天ポイント</title>
<polygon fill="none" stroke="#000000" points="737,-680 635,-680 635,-644 737,-644 737,-680"/>
<text text-anchor="middle" x="686" y="-658.3" font-family="Times,serif" font-size="14.00" fill="#000000">楽天ポイント</text>
</g>
<!-- Edy&#45;&gt;楽天ポイント -->
<g id="edge45" class="edge">
<title>Edy&#45;&gt;楽天ポイント</title>
<path fill="none" stroke="#000000" d="M499.923,-777.8219C509.7075,-766.622 523.2041,-752.4551 537,-742 567.3001,-719.0372 605.0684,-698.8367 634.998,-684.4789"/>
<polygon fill="#000000" stroke="#000000" points="636.8744,-687.4633 644.4205,-680.0265 633.8838,-681.1343 636.8744,-687.4633"/>
<text text-anchor="middle" x="555.5" y="-745.8" font-family="Times,serif" font-size="14.00" fill="#000000">0.5%</text>
</g>
<!-- ヤマト運輸 -->
<g id="node37" class="node">
<title>ヤマト運輸</title>
<polygon fill="none" stroke="#000000" points="1063,-1021 975,-1021 975,-985 1063,-985 1063,-1021"/>
<text text-anchor="middle" x="1019" y="-999.3" font-family="Times,serif" font-size="14.00" fill="#000000">ヤマト運輸</text>
</g>
<!-- Edy&#45;&gt;ヤマト運輸 -->
<g id="edge38" class="edge">
<title>Edy&#45;&gt;ヤマト運輸</title>
<path fill="none" stroke="#000000" stroke-width="2" d="M508.8327,-814.1067C529.7377,-829.1877 561.4808,-850.1976 592,-863 671.2274,-896.2347 698.0919,-882.0656 780,-908 846.845,-929.165 921.6111,-960.1097 969.4293,-980.8726"/>
<polygon fill="#000000" stroke="#000000" stroke-width="2" points="968.058,-984.0929 978.6233,-984.8836 970.8571,-977.6769 968.058,-984.0929"/>
</g>
<!-- ウェルシア -->
<g id="node39" class="node">
<title>ウェルシア</title>
<polygon fill="none" stroke="#000000" points="1062.5,-1075 975.5,-1075 975.5,-1039 1062.5,-1039 1062.5,-1075"/>
<text text-anchor="middle" x="1019" y="-1053.3" font-family="Times,serif" font-size="14.00" fill="#000000">ウェルシア</text>
</g>
<!-- Edy&#45;&gt;ウェルシア -->
<g id="edge43" class="edge">
<title>Edy&#45;&gt;ウェルシア</title>
<path fill="none" stroke="#000000" stroke-width="2" d="M498.8586,-814.2405C508.8359,-826.8544 522.9597,-843.6947 537,-857 559.3248,-878.156 564.9423,-884.3762 592,-899 729.6344,-973.387 778.3148,-958.9697 924,-1016 938.8195,-1021.8013 954.7594,-1028.4976 969.2695,-1034.7747"/>
<polygon fill="#000000" stroke="#000000" stroke-width="2" points="968.0062,-1038.042 978.572,-1038.8254 970.8009,-1031.624 968.0062,-1038.042"/>
</g>
<!-- ヨドバシカメラ -->
<g id="node41" class="node">
<title>ヨドバシカメラ</title>
<polygon fill="none" stroke="#000000" points="1077,-1237 961,-1237 961,-1201 1077,-1201 1077,-1237"/>
<text text-anchor="middle" x="1019" y="-1215.3" font-family="Times,serif" font-size="14.00" fill="#000000">ヨドバシカメラ</text>
</g>
<!-- Edy&#45;&gt;ヨドバシカメラ -->
<g id="edge40" class="edge">
<title>Edy&#45;&gt;ヨドバシカメラ</title>
<path fill="none" stroke="#000000" stroke-width="2" d="M488.8015,-814.3123C501.7389,-874.8943 545.8265,-1067.2884 592,-1108 662.4803,-1170.1431 708.0107,-1127.5439 799,-1151 852.4448,-1164.7775 912.2287,-1183.4716 955.9709,-1197.7724"/>
<polygon fill="#000000" stroke="#000000" stroke-width="2" points="955.0177,-1201.1432 965.6106,-1200.9377 957.2016,-1194.4926 955.0177,-1201.1432"/>
</g>
<!-- 餃子の王将 -->
<g id="node42" class="node">
<title>餃子の王将</title>
<polygon fill="none" stroke="#000000" points="1063,-764 975,-764 975,-728 1063,-728 1063,-764"/>
<text text-anchor="middle" x="1019" y="-742.3" font-family="Times,serif" font-size="14.00" fill="#000000">餃子の王将</text>
</g>
<!-- Edy&#45;&gt;餃子の王将 -->
<g id="edge61" class="edge">
<title>Edy&#45;&gt;餃子の王将</title>
<path fill="none" stroke="#000000" stroke-width="2" d="M512.2153,-793.4518C596.099,-785.5975 851.7998,-761.6554 964.5795,-751.0955"/>
<polygon fill="#000000" stroke="#000000" stroke-width="2" points="965.0844,-754.5637 974.7145,-750.1466 964.4318,-747.5942 965.0844,-754.5637"/>
</g>
<!-- FRESCO -->
<g id="node44" class="node">
<title>FRESCO</title>
<polygon fill="none" stroke="#000000" points="1059,-818 979,-818 979,-782 1059,-782 1059,-818"/>
<text text-anchor="middle" x="1019" y="-796.3" font-family="Times,serif" font-size="14.00" fill="#000000">FRESCO</text>
</g>
<!-- Edy&#45;&gt;FRESCO -->
<g id="edge58" class="edge">
<title>Edy&#45;&gt;FRESCO</title>
<path fill="none" stroke="#000000" stroke-width="2" d="M512.2153,-796.2039C597.147,-796.8401 858.2155,-798.7956 968.7388,-799.6235"/>
<polygon fill="#000000" stroke="#000000" stroke-width="2" points="968.9277,-803.1249 978.9537,-799.7 968.9802,-796.1251 968.9277,-803.1249"/>
</g>
<!-- 業務スーパー -->
<g id="node45" class="node">
<title>業務スーパー</title>
<polygon fill="none" stroke="#000000" points="1069.5,-599 968.5,-599 968.5,-563 1069.5,-563 1069.5,-599"/>
<text text-anchor="middle" x="1019" y="-577.3" font-family="Times,serif" font-size="14.00" fill="#000000">業務スーパー</text>
</g>
<!-- Edy&#45;&gt;業務スーパー -->
<g id="edge57" class="edge">
<title>Edy&#45;&gt;業務スーパー</title>
<path fill="none" stroke="#000000" stroke-width="2" d="M491.0842,-777.9089C503.7397,-743.4004 536.4405,-668.6228 592,-635 706.8382,-565.5038 870.7632,-566.9504 958.34,-573.9971"/>
<polygon fill="#000000" stroke="#000000" stroke-width="2" points="958.1135,-577.4904 968.3756,-574.8564 958.7107,-570.5159 958.1135,-577.4904"/>
</g>
<!-- Ponta&#45;&gt;じゃらん -->
<g id="edge47" class="edge">
<title>Ponta&#45;&gt;じゃらん</title>
<path fill="none" stroke="#000000" d="M714.6698,-319.128C759.4781,-327.8417 848.7718,-341.7328 924,-332 943.211,-329.5145 963.094,-321.848 979.674,-313.8064"/>
<polygon fill="#000000" stroke="#000000" points="981.6887,-316.7091 989.0244,-309.0645 978.5227,-310.466 981.6887,-316.7091"/>
</g>
<!-- Tポイント -->
<g id="node18" class="node">
<title>Tポイント</title>
<polygon fill="none" stroke="#000000" points="727.5,-1099 644.5,-1099 644.5,-1063 727.5,-1063 727.5,-1099"/>
<text text-anchor="middle" x="686" y="-1077.3" font-family="Times,serif" font-size="14.00" fill="#000000">Tポイント</text>
</g>
<!-- 楽天ポイント&#45;&gt;楽天モバイル -->
<g id="edge28" class="edge">
<title>楽天ポイント&#45;&gt;楽天モバイル</title>
<path fill="none" stroke="#000000" d="M737.3755,-658.7589C785.7862,-656.6212 860.2108,-655.701 924,-665 935.1544,-666.626 946.845,-669.1976 958.0606,-672.1217"/>
<polygon fill="#000000" stroke="#000000" points="957.2008,-675.515 967.7692,-674.7673 959.0412,-668.7612 957.2008,-675.515"/>
</g>
<!-- JREポイント&#45;&gt;Suica -->
<g id="edge25" class="edge">
<title>JREポイント&#45;&gt;Suica</title>
<path fill="none" stroke="#000000" d="M635.4939,-1216.1994C619.8873,-1220.0616 603.7348,-1226.6868 592,-1238 573.4834,-1255.8513 590.3245,-1273.1243 574,-1293 560.6177,-1309.2934 540.4525,-1321.2413 522.6989,-1329.3638"/>
<polygon fill="#000000" stroke="#000000" points="520.9381,-1326.3115 513.1422,-1333.486 523.7107,-1332.739 520.9381,-1326.3115"/>
</g>
<!-- ビックポイント&#45;&gt;ビックカメラ -->
<g id="edge17" class="edge">
<title>ビックポイント&#45;&gt;ビックカメラ</title>
<path fill="none" stroke="#000000" d="M744.0462,-1550.4793C792.444,-1548.5592 863.0731,-1548.1183 924,-1557 935.2856,-1558.6452 947.1201,-1561.2582 958.4563,-1564.2251"/>
<polygon fill="#000000" stroke="#000000" points="957.6947,-1567.6452 968.2638,-1566.908 959.5417,-1560.8933 957.6947,-1567.6452"/>
</g>
<!-- Amazonポイント -->
<g id="node22" class="node">
<title>Amazonポイント</title>
<polygon fill="none" stroke="#000000" points="751.5,-515 620.5,-515 620.5,-479 751.5,-479 751.5,-515"/>
<text text-anchor="middle" x="686" y="-493.3" font-family="Times,serif" font-size="14.00" fill="#000000">Amazonポイント</text>
</g>
<!-- Amazonポイント&#45;&gt;Amazon -->
<g id="edge50" class="edge">
<title>Amazonポイント&#45;&gt;Amazon</title>
<path fill="none" stroke="#000000" d="M751.7901,-497.4233C816.6973,-501.4219 914.312,-510.4243 971.848,-517.8734"/>
<polygon fill="#000000" stroke="#000000" points="971.3872,-521.3428 981.7624,-519.1969 972.3135,-514.4044 971.3872,-521.3428"/>
</g>
<!-- nanacoポイント&#45;&gt;nanaco -->
<g id="edge54" class="edge">
<title>nanacoポイント&#45;&gt;nanaco</title>
<path fill="none" stroke="#000000" d="M623.242,-381.3625C592.6068,-388.3736 556.4975,-396.6374 528.8671,-402.9608"/>
<polygon fill="#000000" stroke="#000000" points="528.0641,-399.554 519.0969,-405.1967 529.6257,-406.3776 528.0641,-399.554"/>
</g>
<!-- FRESCOポイント -->
<g id="node24" class="node">
<title>FRESCOポイント</title>
<polygon fill="none" stroke="#000000" points="754.5,-854 617.5,-854 617.5,-818 754.5,-818 754.5,-854"/>
<text text-anchor="middle" x="686" y="-832.3" font-family="Times,serif" font-size="14.00" fill="#000000">FRESCOポイント</text>
</g>
<!-- FRESCOポイント&#45;&gt;FRESCO -->
<g id="edge60" class="edge">
<title>FRESCOポイント&#45;&gt;FRESCO</title>
<path fill="none" stroke="#000000" d="M754.6739,-844.8913C802.6022,-849.2217 867.7957,-851.3499 924,-840 941.577,-836.4505 959.9488,-829.5513 975.8004,-822.4686"/>
<polygon fill="#000000" stroke="#000000" points="977.711,-825.4409 985.3149,-818.0631 974.7698,-819.0888 977.711,-825.4409"/>
</g>
<!-- ヨドバシゴールドポイント -->
<g id="node25" class="node">
<title>ヨドバシゴールドポイント</title>
<polygon fill="none" stroke="#000000" points="780,-1283 592,-1283 592,-1247 780,-1247 780,-1283"/>
<text text-anchor="middle" x="686" y="-1261.3" font-family="Times,serif" font-size="14.00" fill="#000000">ヨドバシゴールドポイント</text>
</g>
<!-- ヨドバシゴールドポイント&#45;&gt;ヨドバシカメラ -->
<g id="edge42" class="edge">
<title>ヨドバシゴールドポイント&#45;&gt;ヨドバシカメラ</title>
<path fill="none" stroke="#000000" d="M780.1471,-1257.5773C824.0224,-1253.4875 876.8399,-1247.6642 924,-1240 932.7218,-1238.5826 941.846,-1236.8675 950.8439,-1235.0357"/>
<polygon fill="#000000" stroke="#000000" points="951.8497,-1238.4012 960.9211,-1232.9275 950.4163,-1231.5495 951.8497,-1238.4012"/>
</g>
<!-- はぴeポイント -->
<g id="node26" class="node">
<title>はぴeポイント</title>
<polygon fill="none" stroke="#000000" points="741,-108 631,-108 631,-72 741,-72 741,-108"/>
<text text-anchor="middle" x="686" y="-86.3" font-family="Times,serif" font-size="14.00" fill="#000000">はぴeポイント</text>
</g>
<!-- はぴeポイント&#45;&gt;関西電力 -->
<g id="edge12" class="edge">
<title>はぴeポイント&#45;&gt;関西電力</title>
<path fill="none" stroke="#000000" d="M741.362,-96.4838C805.6984,-104.0187 910.7787,-116.3254 971.536,-123.4412"/>
<polygon fill="#000000" stroke="#000000" points="971.2799,-126.935 981.6192,-124.6221 972.0942,-119.9825 971.2799,-126.935"/>
</g>
<!-- 切符&#45;&gt;現金 -->
<g id="edge65" class="edge">
<title>切符&#45;&gt;現金</title>
<path fill="none" stroke="#000000" d="M843.4223,-1471.0538C775.8529,-1480.9404 599.6996,-1496.6536 522.3453,-1499.9027"/>
<polygon fill="#000000" stroke="#000000" points="521.9732,-1496.4139 512.1076,-1500.2766 522.2287,-1503.4092 521.9732,-1496.4139"/>
</g>
<!-- 切符&#45;&gt;電車 -->
<g id="edge64" class="edge">
<title>切符&#45;&gt;電車</title>
<path fill="none" stroke="#000000" stroke-width="2" d="M897.7372,-1459.8644C921.3914,-1455.4043 955.8597,-1448.9052 982.0073,-1443.9751"/>
<polygon fill="#000000" stroke="#000000" stroke-width="2" points="982.7572,-1447.3954 991.9355,-1442.1031 981.4601,-1440.5166 982.7572,-1447.3954"/>
</g>
<!-- 回数カード&#45;&gt;現金 -->
<g id="edge68" class="edge">
<title>回数カード&#45;&gt;現金</title>
<path fill="none" stroke="#000000" d="M826.2478,-1718.2408C738.0446,-1700.6188 547.8271,-1661.7321 537,-1652 518.23,-1635.1282 500.1582,-1566.3968 491.0747,-1527.0357"/>
<polygon fill="#000000" stroke="#000000" points="494.4802,-1526.2269 488.8608,-1517.2451 487.6526,-1527.7709 494.4802,-1526.2269"/>
<text text-anchor="middle" x="686" y="-1711.8" font-family="Times,serif" font-size="14.00" fill="#000000">10%</text>
</g>
<!-- 大阪地下鉄 -->
<g id="node33" class="node">
<title>大阪地下鉄</title>
<polygon fill="none" stroke="#000000" points="1063,-1745 975,-1745 975,-1709 1063,-1709 1063,-1745"/>
<text text-anchor="middle" x="1019" y="-1723.3" font-family="Times,serif" font-size="14.00" fill="#000000">大阪地下鉄</text>
</g>
<!-- 回数カード&#45;&gt;大阪地下鉄 -->
<g id="edge67" class="edge">
<title>回数カード&#45;&gt;大阪地下鉄</title>
<path fill="none" stroke="#000000" stroke-width="2" d="M914.6528,-1727C930.3707,-1727 948.2545,-1727 964.7223,-1727"/>
<polygon fill="#000000" stroke="#000000" stroke-width="2" points="964.7609,-1730.5001 974.7609,-1727 964.7608,-1723.5001 964.7609,-1730.5001"/>
</g>
<!-- iTunes -->
<g id="node49" class="node">
<title>iTunes</title>
<polygon fill="none" stroke="#000000" points="1051.5,-413 986.5,-413 986.5,-377 1051.5,-377 1051.5,-413"/>
<text text-anchor="middle" x="1019" y="-391.3" font-family="Times,serif" font-size="14.00" fill="#000000">iTunes</text>
</g>
<!-- iTunesカード&#45;&gt;iTunes -->
<g id="edge56" class="edge">
<title>iTunesカード&#45;&gt;iTunes</title>
<path fill="none" stroke="#000000" stroke-width="2" d="M924.1119,-400.1118C941.1494,-399.194 959.7618,-398.1913 975.954,-397.319"/>
<polygon fill="#000000" stroke="#000000" stroke-width="2" points="976.407,-400.7997 986.2042,-396.7668 976.0304,-393.8099 976.407,-400.7997"/>
</g>
<!-- 楽天モバイル&#45;&gt;楽天ポイント -->
<g id="edge27" class="edge">
<title>楽天モバイル&#45;&gt;楽天ポイント</title>
<path fill="none" stroke="#000000" d="M967.7979,-684.3752C953.6328,-682.4344 938.2394,-680.4813 924,-679 864.1181,-672.7708 795.5199,-668.1353 747.4024,-665.2916"/>
<polygon fill="#000000" stroke="#000000" points="747.3395,-661.7821 737.1529,-664.6947 746.9324,-668.7703 747.3395,-661.7821"/>
<text text-anchor="middle" x="870.5" y="-682.8" font-family="Times,serif" font-size="14.00" fill="#000000">0.5%</text>
</g>
<!-- 関西電力&#45;&gt;はぴeポイント -->
<g id="edge11" class="edge">
<title>関西電力&#45;&gt;はぴeポイント</title>
<path fill="none" stroke="#000000" d="M988.0638,-110.9423C970.0306,-101.4701 946.4747,-90.8496 924,-86 866.4876,-73.5901 799.333,-76.2208 751.0495,-81.0009"/>
<polygon fill="#000000" stroke="#000000" points="750.624,-77.5262 741.043,-82.0489 751.3532,-84.4881 750.624,-77.5262"/>
<text text-anchor="middle" x="870.5" y="-89.8" font-family="Times,serif" font-size="14.00" fill="#000000">0.8%, 0.5%</text>
</g>
<!-- ヤマト運輸&#45;&gt;Tポイント -->
<g id="edge39" class="edge">
<title>ヤマト運輸&#45;&gt;Tポイント</title>
<path fill="none" stroke="#000000" d="M974.6551,-1011.0096C933.5866,-1018.6616 870.9056,-1030.9362 817,-1044 790.5554,-1050.4087 761.3996,-1058.537 737.3203,-1065.5418"/>
<polygon fill="#000000" stroke="#000000" points="736.2904,-1062.1963 727.6771,-1068.3657 738.2577,-1068.9142 736.2904,-1062.1963"/>
<text text-anchor="middle" x="870.5" y="-1047.8" font-family="Times,serif" font-size="14.00" fill="#000000">0.5%</text>
</g>
<!-- ウェルシア&#45;&gt;Tポイント -->
<g id="edge44" class="edge">
<title>ウェルシア&#45;&gt;Tポイント</title>
<path fill="none" stroke="#000000" d="M975.3872,-1060.1433C914.1384,-1064.5576 802.8415,-1072.579 737.5676,-1077.2834"/>
<polygon fill="#000000" stroke="#000000" points="737.2239,-1073.799 727.5014,-1078.0089 737.7271,-1080.7809 737.2239,-1073.799"/>
<text text-anchor="middle" x="870.5" y="-1074.8" font-family="Times,serif" font-size="14.00" fill="#000000">1%</text>
</g>
<!-- ビックカメラ&#45;&gt;ビックポイント -->
<g id="edge15" class="edge">
<title>ビックカメラ&#45;&gt;ビックポイント</title>
<path fill="none" stroke="#000000" stroke-dasharray="5,2" d="M968.2916,-1576.4429C953.9909,-1574.4799 938.405,-1572.4985 924,-1571 866.9971,-1565.0703 802.0958,-1560.5847 754.4812,-1557.7142"/>
<polygon fill="#000000" stroke="#000000" points="754.4793,-1554.208 744.2892,-1557.1084 754.0639,-1561.1956 754.4793,-1554.208"/>
<text text-anchor="middle" x="870.5" y="-1574.8" font-family="Times,serif" font-size="14.00" fill="#000000">9.5%</text>
</g>
<!-- ヨドバシカメラ&#45;&gt;ヨドバシゴールドポイント -->
<g id="edge41" class="edge">
<title>ヨドバシカメラ&#45;&gt;ヨドバシゴールドポイント</title>
<path fill="none" stroke="#000000" d="M960.5932,-1216.0192C919.9802,-1215.0918 864.7742,-1216.1195 817,-1225 799.8636,-1228.1854 796.6055,-1232.7029 780,-1238 773.642,-1240.0282 767.0205,-1242.07 760.3663,-1244.0735"/>
<polygon fill="#000000" stroke="#000000" points="759.2059,-1240.7671 750.6206,-1246.9754 761.2036,-1247.476 759.2059,-1240.7671"/>
<text text-anchor="middle" x="870.5" y="-1228.8" font-family="Times,serif" font-size="14.00" fill="#000000">10%</text>
</g>
<!-- FRESCO&#45;&gt;FRESCOポイント -->
<g id="edge59" class="edge">
<title>FRESCO&#45;&gt;FRESCOポイント</title>
<path fill="none" stroke="#000000" d="M978.7282,-804.3537C925.8713,-810.068 831.9362,-820.2231 764.7245,-827.4892"/>
<polygon fill="#000000" stroke="#000000" points="764.1599,-824.0298 754.594,-828.5844 764.9123,-830.9892 764.1599,-824.0298"/>
<text text-anchor="middle" x="870.5" y="-824.8" font-family="Times,serif" font-size="14.00" fill="#000000">0.5%</text>
</g>
<!-- 吉野家&#45;&gt;Tポイント -->
<g id="edge22" class="edge">
<title>吉野家&#45;&gt;Tポイント</title>
<path fill="none" stroke="#000000" d="M989.3885,-1289.3593C947.2759,-1288.4392 869.3915,-1281.3002 817,-1244 791.4781,-1225.8296 798.8643,-1209.0134 780,-1184 758.8017,-1155.8919 731.3545,-1126.481 711.5983,-1106.3176"/>
<polygon fill="#000000" stroke="#000000" points="713.9502,-1103.7182 704.4321,-1099.0645 708.9707,-1108.638 713.9502,-1103.7182"/>
<text text-anchor="middle" x="870.5" y="-1286.8" font-family="Times,serif" font-size="14.00" fill="#000000">0.5%</text>
</g>
<!-- Amazon&#45;&gt;Amazonポイント -->
<g id="edge49" class="edge">
<title>Amazon&#45;&gt;Amazonポイント</title>
<path fill="none" stroke="#000000" d="M981.7624,-528.0936C928.8672,-525.8618 830.7837,-517.4674 762.1216,-509.6321"/>
<polygon fill="#000000" stroke="#000000" points="762.1274,-506.1093 751.7901,-508.4308 761.3189,-513.0624 762.1274,-506.1093"/>
</g>
<!-- じゃらん&#45;&gt;Ponta -->
<g id="edge48" class="edge">
<title>じゃらん&#45;&gt;Ponta</title>
<path fill="none" stroke="#000000" d="M981.7612,-293.4602C918.2218,-297.658 789.4805,-306.1634 724.8544,-310.433"/>
<polygon fill="#000000" stroke="#000000" points="724.4271,-306.9535 714.6796,-311.1053 724.8886,-313.9383 724.4271,-306.9535"/>
<text text-anchor="middle" x="870.5" y="-307.8" font-family="Times,serif" font-size="14.00" fill="#000000">2%</text>
</g>
</g>
</svg>
