<?xml version="1.0" encoding="UTF-8" standalone="no"?>
<!DOCTYPE svg PUBLIC "-//W3C//DTD SVG 1.1//EN"
 "http://www.w3.org/Graphics/SVG/1.1/DTD/svg11.dtd">
<!-- Generated by graphviz version 2.40.1 (0)
 -->
<!-- Title: MoneyFlow Pages: 1 -->
<svg width="1085pt" height="2014pt"
 viewBox="0.00 0.00 1085.00 2014.00" xmlns="http://www.w3.org/2000/svg" xmlns:xlink="http://www.w3.org/1999/xlink">
<g id="graph0" class="graph" transform="scale(1 1) rotate(0) translate(4 2010)">
<title>MoneyFlow</title>
<polygon fill="#ffffff" stroke="transparent" points="-4,4 -4,-2010 1081,-2010 1081,4 -4,4"/>
<!-- 収入 -->
<g id="node1" class="node">
<title>収入</title>
<text text-anchor="middle" x="27" y="-14.3" font-family="Times,serif" font-size="14.00" fill="#000000">収入</text>
</g>
<!-- 銀行口座 -->
<g id="node2" class="node">
<title>銀行口座</title>
<text text-anchor="middle" x="142" y="-14.3" font-family="Times,serif" font-size="14.00" fill="#000000">銀行口座</text>
</g>
<!-- 収入&#45;&gt;銀行口座 -->
<g id="edge1" class="edge">
<title>収入&#45;&gt;銀行口座</title>
<path fill="none" stroke="#000000" d="M54.2534,-18C69.3972,-18 88.4539,-18 104.9357,-18"/>
</g>
<!-- クレジットカード -->
<g id="node3" class="node">
<title>クレジットカード</title>
<text text-anchor="middle" x="322" y="-14.3" font-family="Times,serif" font-size="14.00" fill="#000000">クレジットカード</text>
</g>
<!-- 銀行口座&#45;&gt;クレジットカード -->
<g id="edge2" class="edge">
<title>銀行口座&#45;&gt;クレジットカード</title>
<path fill="none" stroke="#000000" d="M179.2961,-18C201.6417,-18 230.6798,-18 256.7236,-18"/>
</g>
<!-- マネー -->
<g id="node4" class="node">
<title>マネー</title>
<text text-anchor="middle" x="485" y="-14.3" font-family="Times,serif" font-size="14.00" fill="#000000">マネー</text>
</g>
<!-- クレジットカード&#45;&gt;マネー -->
<g id="edge3" class="edge">
<title>クレジットカード&#45;&gt;マネー</title>
<path fill="none" stroke="#000000" d="M387.3591,-18C410.9188,-18 436.353,-18 455.3549,-18"/>
</g>
<!-- ポイント -->
<g id="node5" class="node">
<title>ポイント</title>
<text text-anchor="middle" x="686" y="-14.3" font-family="Times,serif" font-size="14.00" fill="#000000">ポイント</text>
</g>
<!-- マネー&#45;&gt;ポイント -->
<g id="edge4" class="edge">
<title>マネー&#45;&gt;ポイント</title>
<path fill="none" stroke="#000000" d="M514.6582,-18C550.2582,-18 609.9876,-18 648.6865,-18"/>
</g>
<!-- 金券 -->
<g id="node6" class="node">
<title>金券</title>
<text text-anchor="middle" x="870.5" y="-14.3" font-family="Times,serif" font-size="14.00" fill="#000000">金券</text>
</g>
<!-- ポイント&#45;&gt;金券 -->
<g id="edge5" class="edge">
<title>ポイント&#45;&gt;金券</title>
<path fill="none" stroke="#000000" d="M723.3363,-18C758.9263,-18 811.6612,-18 843.3941,-18"/>
</g>
<!-- 支出 -->
<g id="node7" class="node">
<title>支出</title>
<text text-anchor="middle" x="1019" y="-14.3" font-family="Times,serif" font-size="14.00" fill="#000000">支出</text>
</g>
<!-- 金券&#45;&gt;支出 -->
<g id="edge6" class="edge">
<title>金券&#45;&gt;支出</title>
<path fill="none" stroke="#000000" d="M897.7372,-18C924.5314,-18 965.2011,-18 991.9355,-18"/>
</g>
<!-- 給与 -->
<g id="node8" class="node">
<title>給与</title>
<polygon fill="none" stroke="#000000" points="54,-1558 0,-1558 0,-1522 54,-1522 54,-1558"/>
<text text-anchor="middle" x="27" y="-1536.3" font-family="Times,serif" font-size="14.00" fill="#000000">給与</text>
</g>
<!-- 三井住友銀行 -->
<g id="node9" class="node">
<title>三井住友銀行</title>
<polygon fill="none" stroke="#000000" points="193,-1558 91,-1558 91,-1522 193,-1522 193,-1558"/>
<text text-anchor="middle" x="142" y="-1536.3" font-family="Times,serif" font-size="14.00" fill="#000000">三井住友銀行</text>
</g>
<!-- 給与&#45;&gt;三井住友銀行 -->
<g id="edge7" class="edge">
<title>給与&#45;&gt;三井住友銀行</title>
<path fill="none" stroke="#000000" stroke-width="2" d="M54.2534,-1540C62.2529,-1540 71.3442,-1540 80.571,-1540"/>
<polygon fill="#000000" stroke="#000000" stroke-width="2" points="80.5912,-1543.5001 90.5911,-1540 80.5911,-1536.5001 80.5912,-1543.5001"/>
</g>
<!-- 住信SBI銀行 -->
<g id="node10" class="node">
<title>住信SBI銀行</title>
<polygon fill="none" stroke="#000000" points="192,-1378 92,-1378 92,-1342 192,-1342 192,-1378"/>
<text text-anchor="middle" x="142" y="-1356.3" font-family="Times,serif" font-size="14.00" fill="#000000">住信SBI銀行</text>
</g>
<!-- 三井住友銀行&#45;&gt;住信SBI銀行 -->
<g id="edge9" class="edge">
<title>三井住友銀行&#45;&gt;住信SBI銀行</title>
<path fill="none" stroke="#000000" stroke-width="2" d="M142,-1521.9962C142,-1477.4595 142,-1432.9229 142,-1388.3862"/>
<polygon fill="#000000" stroke="#000000" stroke-width="2" points="145.5001,-1388.2812 142,-1378.2813 138.5001,-1388.2813 145.5001,-1388.2812"/>
</g>
<!-- 現金 -->
<g id="node15" class="node">
<title>現金</title>
<polygon fill="none" stroke="#000000" points="512,-1870 458,-1870 458,-1834 512,-1834 512,-1870"/>
<text text-anchor="middle" x="485" y="-1848.3" font-family="Times,serif" font-size="14.00" fill="#000000">現金</text>
</g>
<!-- 三井住友銀行&#45;&gt;現金 -->
<g id="edge8" class="edge">
<title>三井住友銀行&#45;&gt;現金</title>
<path fill="none" stroke="#000000" stroke-width="2" d="M144.0309,-1558.1854C151.3813,-1620.1546 178.8952,-1821.1042 230,-1855 296.2046,-1898.9108 394.8796,-1879.7918 447.9811,-1864.4278"/>
<polygon fill="#000000" stroke="#000000" stroke-width="2" points="449.0883,-1867.7499 457.6594,-1861.5219 447.0752,-1861.0455 449.0883,-1867.7499"/>
</g>
<!-- 関西電力 -->
<g id="node37" class="node">
<title>関西電力</title>
<polygon fill="none" stroke="#000000" points="1056,-1588 982,-1588 982,-1552 1056,-1552 1056,-1588"/>
<text text-anchor="middle" x="1019" y="-1566.3" font-family="Times,serif" font-size="14.00" fill="#000000">関西電力</text>
</g>
<!-- 三井住友銀行&#45;&gt;関西電力 -->
<g id="edge10" class="edge">
<title>三井住友銀行&#45;&gt;関西電力</title>
<path fill="none" stroke="#000000" stroke-width="2" d="M193.2072,-1541.6008C274.0923,-1544.1425 436.3831,-1549.2961 574,-1554 718.7413,-1558.9474 889.9479,-1565.2222 971.3737,-1568.2322"/>
<polygon fill="#000000" stroke="#000000" stroke-width="2" points="971.6652,-1571.7453 981.7878,-1568.6175 971.924,-1564.7501 971.6652,-1571.7453"/>
</g>
<!-- ビックカメラSuicaカード -->
<g id="node11" class="node">
<title>ビックカメラSuicaカード</title>
<polygon fill="none" stroke="#000000" points="414,-1270 230,-1270 230,-1234 414,-1234 414,-1270"/>
<text text-anchor="middle" x="322" y="-1248.3" font-family="Times,serif" font-size="14.00" fill="#000000">ビックカメラSuicaカード</text>
</g>
<!-- 住信SBI銀行&#45;&gt;ビックカメラSuicaカード -->
<g id="edge31" class="edge">
<title>住信SBI銀行&#45;&gt;ビックカメラSuicaカード</title>
<path fill="none" stroke="#000000" stroke-width="2" d="M172.128,-1341.9232C202.4995,-1323.7003 249.5191,-1295.4885 282.782,-1275.5308"/>
<polygon fill="#000000" stroke="#000000" stroke-width="2" points="284.9996,-1278.282 291.7738,-1270.1357 281.3981,-1272.2795 284.9996,-1278.282"/>
</g>
<!-- リクルートカード -->
<g id="node12" class="node">
<title>リクルートカード</title>
<polygon fill="none" stroke="#000000" points="386.5,-274 257.5,-274 257.5,-238 386.5,-238 386.5,-274"/>
<text text-anchor="middle" x="322" y="-252.3" font-family="Times,serif" font-size="14.00" fill="#000000">リクルートカード</text>
</g>
<!-- 住信SBI銀行&#45;&gt;リクルートカード -->
<g id="edge32" class="edge">
<title>住信SBI銀行&#45;&gt;リクルートカード</title>
<path fill="none" stroke="#000000" stroke-width="2" d="M144.9741,-1341.7591C165.9542,-1213.0812 291.5821,-442.5628 317.3738,-284.3741"/>
<polygon fill="#000000" stroke="#000000" stroke-width="2" points="320.9006,-284.4929 319.0554,-274.0599 313.9918,-283.3664 320.9006,-284.4929"/>
</g>
<!-- PiTaPa -->
<g id="node13" class="node">
<title>PiTaPa</title>
<polygon fill="none" stroke="#000000" points="354.5,-1846 289.5,-1846 289.5,-1810 354.5,-1810 354.5,-1846"/>
<text text-anchor="middle" x="322" y="-1824.3" font-family="Times,serif" font-size="14.00" fill="#000000">PiTaPa</text>
</g>
<!-- 住信SBI銀行&#45;&gt;PiTaPa -->
<g id="edge33" class="edge">
<title>住信SBI銀行&#45;&gt;PiTaPa</title>
<path fill="none" stroke="#000000" stroke-width="2" d="M149.8751,-1378.4242C161.5829,-1406.7533 183.2442,-1462.9838 193,-1513 199.0321,-1543.9252 191.266,-1771.4373 211,-1796 227.1941,-1816.1566 255.2286,-1824.1271 279.0708,-1827.0734"/>
<polygon fill="#000000" stroke="#000000" stroke-width="2" points="279.0354,-1830.5864 289.3281,-1828.0745 279.7154,-1823.6195 279.0354,-1830.5864"/>
</g>
<!-- 住信SBI銀行&#45;&gt;現金 -->
<g id="edge29" class="edge">
<title>住信SBI銀行&#45;&gt;現金</title>
<path fill="none" stroke="#000000" stroke-width="2" d="M154.6143,-1378.094C206.6125,-1452.6803 404.5013,-1736.5325 466.3875,-1825.3021"/>
<polygon fill="#000000" stroke="#000000" stroke-width="2" points="463.6808,-1827.5398 472.271,-1833.7414 469.4231,-1823.5365 463.6808,-1827.5398"/>
</g>
<!-- 家賃 -->
<g id="node30" class="node">
<title>家賃</title>
<polygon fill="none" stroke="#000000" points="1046,-1067 992,-1067 992,-1031 1046,-1031 1046,-1067"/>
<text text-anchor="middle" x="1019" y="-1045.3" font-family="Times,serif" font-size="14.00" fill="#000000">家賃</text>
</g>
<!-- 住信SBI銀行&#45;&gt;家賃 -->
<g id="edge30" class="edge">
<title>住信SBI銀行&#45;&gt;家賃</title>
<path fill="none" stroke="#000000" stroke-width="2" d="M144.439,-1341.6103C153.9667,-1278.2664 194.665,-1073 322,-1073 322,-1073 322,-1073 555.5,-1073 714.0312,-1073 902.6551,-1058.8243 981.4799,-1052.2621"/>
<polygon fill="#000000" stroke="#000000" stroke-width="2" points="982.1877,-1055.715 991.8591,-1051.389 981.6009,-1048.7397 982.1877,-1055.715"/>
</g>
<!-- Suica -->
<g id="node14" class="node">
<title>Suica</title>
<polygon fill="none" stroke="#000000" points="513,-1671 457,-1671 457,-1635 513,-1635 513,-1671"/>
<text text-anchor="middle" x="485" y="-1649.3" font-family="Times,serif" font-size="14.00" fill="#000000">Suica</text>
</g>
<!-- ビックカメラSuicaカード&#45;&gt;Suica -->
<g id="edge18" class="edge">
<title>ビックカメラSuicaカード&#45;&gt;Suica</title>
<path fill="none" stroke="#000000" stroke-width="2" d="M324.6281,-1270.2679C333.0159,-1324.1856 362.7653,-1485.9975 432,-1600 438.1024,-1610.0483 446.4984,-1619.6051 454.8092,-1627.766"/>
<polygon fill="#000000" stroke="#000000" stroke-width="2" points="452.6623,-1630.5511 462.3493,-1634.8422 457.4525,-1625.4468 452.6623,-1630.5511"/>
</g>
<!-- JREポイント -->
<g id="node21" class="node">
<title>JREポイント</title>
<polygon fill="none" stroke="#000000" points="736.5,-1608 635.5,-1608 635.5,-1572 736.5,-1572 736.5,-1608"/>
<text text-anchor="middle" x="686" y="-1586.3" font-family="Times,serif" font-size="14.00" fill="#000000">JREポイント</text>
</g>
<!-- ビックカメラSuicaカード&#45;&gt;JREポイント -->
<g id="edge13" class="edge">
<title>ビックカメラSuicaカード&#45;&gt;JREポイント</title>
<path fill="none" stroke="#000000" d="M329.6094,-1270.1309C352.5459,-1322.4864 426.3137,-1474.9995 537,-1551 563.0285,-1568.8719 596.745,-1578.5543 625.5201,-1583.7997"/>
<polygon fill="#000000" stroke="#000000" points="625.0289,-1587.2662 635.4714,-1585.4762 626.1918,-1580.3635 625.0289,-1587.2662"/>
<text text-anchor="middle" x="485" y="-1540.8" font-family="Times,serif" font-size="14.00" fill="#000000">0.5%</text>
</g>
<!-- ビックポイント -->
<g id="node22" class="node">
<title>ビックポイント</title>
<polygon fill="none" stroke="#000000" points="744,-1148 628,-1148 628,-1112 744,-1112 744,-1148"/>
<text text-anchor="middle" x="686" y="-1126.3" font-family="Times,serif" font-size="14.00" fill="#000000">ビックポイント</text>
</g>
<!-- ビックカメラSuicaカード&#45;&gt;ビックポイント -->
<g id="edge16" class="edge">
<title>ビックカメラSuicaカード&#45;&gt;ビックポイント</title>
<path fill="none" stroke="#000000" d="M342.7379,-1233.9382C366.9643,-1213.8998 409.0916,-1182.255 451,-1166 504.7092,-1145.1678 569.7067,-1136.3503 617.7186,-1132.6389"/>
<polygon fill="#000000" stroke="#000000" points="617.9724,-1136.1297 627.6958,-1131.9219 617.4706,-1129.1477 617.9724,-1136.1297"/>
<text text-anchor="middle" x="485" y="-1169.8" font-family="Times,serif" font-size="14.00" fill="#000000">0.5%</text>
</g>
<!-- 楽天モバイル -->
<g id="node35" class="node">
<title>楽天モバイル</title>
<polygon fill="none" stroke="#000000" points="1070,-721 968,-721 968,-685 1070,-685 1070,-721"/>
<text text-anchor="middle" x="1019" y="-699.3" font-family="Times,serif" font-size="14.00" fill="#000000">楽天モバイル</text>
</g>
<!-- ビックカメラSuicaカード&#45;&gt;楽天モバイル -->
<g id="edge26" class="edge">
<title>ビックカメラSuicaカード&#45;&gt;楽天モバイル</title>
<path fill="none" stroke="#000000" stroke-width="2" d="M323.4912,-1233.9607C331.6701,-1140.8558 374.8087,-719 485,-719 485,-719 485,-719 870.5,-719 899.3562,-719 931.186,-715.9766 957.9514,-712.5583"/>
<polygon fill="#000000" stroke="#000000" stroke-width="2" points="958.4911,-716.0175 967.9447,-711.2343 957.5717,-709.0781 958.4911,-716.0175"/>
</g>
<!-- ビックカメラ -->
<g id="node42" class="node">
<title>ビックカメラ</title>
<polygon fill="none" stroke="#000000" points="1069.5,-1162 968.5,-1162 968.5,-1126 1069.5,-1126 1069.5,-1162"/>
<text text-anchor="middle" x="1019" y="-1140.3" font-family="Times,serif" font-size="14.00" fill="#000000">ビックカメラ</text>
</g>
<!-- ビックカメラSuicaカード&#45;&gt;ビックカメラ -->
<g id="edge14" class="edge">
<title>ビックカメラSuicaカード&#45;&gt;ビックカメラ</title>
<path fill="none" stroke="#000000" stroke-width="2" stroke-dasharray="5,2" d="M414.1965,-1237.7142C559.0433,-1215.2702 835.9899,-1172.3574 958.3321,-1153.4005"/>
<polygon fill="#000000" stroke="#000000" stroke-width="2" points="958.931,-1156.8495 968.2771,-1151.8595 957.8591,-1149.9321 958.931,-1156.8495"/>
</g>
<!-- EX予約 -->
<g id="node52" class="node">
<title>EX予約</title>
<polygon fill="none" stroke="#000000" points="1052,-1270 986,-1270 986,-1234 1052,-1234 1052,-1270"/>
<text text-anchor="middle" x="1019" y="-1248.3" font-family="Times,serif" font-size="14.00" fill="#000000">EX予約</text>
</g>
<!-- ビックカメラSuicaカード&#45;&gt;EX予約 -->
<g id="edge23" class="edge">
<title>ビックカメラSuicaカード&#45;&gt;EX予約</title>
<path fill="none" stroke="#000000" stroke-width="2" stroke-dasharray="5,2" d="M414.2371,-1252C437.3431,-1252 462.0781,-1252 485,-1252 485,-1252 485,-1252 870.5,-1252 906.0157,-1252 946.3093,-1252 975.9544,-1252"/>
<polygon fill="#000000" stroke="#000000" stroke-width="2" points="975.9708,-1255.5001 985.9708,-1252 975.9708,-1248.5001 975.9708,-1255.5001"/>
</g>
<!-- nanaco -->
<g id="node16" class="node">
<title>nanaco</title>
<polygon fill="none" stroke="#000000" points="519,-514 451,-514 451,-478 519,-478 519,-514"/>
<text text-anchor="middle" x="485" y="-492.3" font-family="Times,serif" font-size="14.00" fill="#000000">nanaco</text>
</g>
<!-- リクルートカード&#45;&gt;nanaco -->
<g id="edge55" class="edge">
<title>リクルートカード&#45;&gt;nanaco</title>
<path fill="none" stroke="#000000" stroke-width="2" d="M334.2515,-274.039C362.6891,-315.9103 433.2973,-419.8733 466.8008,-469.2037"/>
<polygon fill="#000000" stroke="#000000" stroke-width="2" points="464.0925,-471.4456 472.6063,-477.7517 469.8833,-467.5127 464.0925,-471.4456"/>
</g>
<!-- Edy -->
<g id="node17" class="node">
<title>Edy</title>
<polygon fill="none" stroke="#000000" points="512,-813 458,-813 458,-777 512,-777 512,-813"/>
<text text-anchor="middle" x="485" y="-791.3" font-family="Times,serif" font-size="14.00" fill="#000000">Edy</text>
</g>
<!-- リクルートカード&#45;&gt;Edy -->
<g id="edge40" class="edge">
<title>リクルートカード&#45;&gt;Edy</title>
<path fill="none" stroke="#000000" stroke-width="2" d="M327.5167,-274.2423C351.5815,-353.8186 447.4632,-670.8751 476.5751,-767.1408"/>
<polygon fill="#000000" stroke="#000000" stroke-width="2" points="473.2398,-768.2035 479.4847,-776.7622 479.9401,-766.1772 473.2398,-768.2035"/>
</g>
<!-- Ponta -->
<g id="node18" class="node">
<title>Ponta</title>
<polygon fill="none" stroke="#000000" points="714.5,-414 657.5,-414 657.5,-378 714.5,-378 714.5,-414"/>
<text text-anchor="middle" x="686" y="-392.3" font-family="Times,serif" font-size="14.00" fill="#000000">Ponta</text>
</g>
<!-- リクルートカード&#45;&gt;Ponta -->
<g id="edge50" class="edge">
<title>リクルートカード&#45;&gt;Ponta</title>
<path fill="none" stroke="#000000" d="M334.4704,-274.1886C352.6896,-299.1392 389.1202,-343.2457 432,-364 502.1767,-397.9663 595.4391,-400.4088 647.2006,-398.5808"/>
<polygon fill="#000000" stroke="#000000" points="647.4447,-402.0737 657.2866,-398.1511 647.1467,-395.08 647.4447,-402.0737"/>
<text text-anchor="middle" x="485" y="-394.8" font-family="Times,serif" font-size="14.00" fill="#000000">1.2%</text>
</g>
<!-- ASAHIネット -->
<g id="node34" class="node">
<title>ASAHIネット</title>
<polygon fill="none" stroke="#000000" points="1073.5,-252 964.5,-252 964.5,-216 1073.5,-216 1073.5,-252"/>
<text text-anchor="middle" x="1019" y="-230.3" font-family="Times,serif" font-size="14.00" fill="#000000">ASAHIネット</text>
</g>
<!-- リクルートカード&#45;&gt;ASAHIネット -->
<g id="edge34" class="edge">
<title>リクルートカード&#45;&gt;ASAHIネット</title>
<path fill="none" stroke="#000000" stroke-width="2" d="M372.6839,-237.8903C404.5061,-228.103 446.6442,-218 485,-218 485,-218 485,-218 870.5,-218 898.0845,-218 928.3863,-220.7628 954.3839,-223.9923"/>
<polygon fill="#000000" stroke="#000000" stroke-width="2" points="954.127,-227.4881 964.493,-225.2977 955.0236,-220.5458 954.127,-227.4881"/>
</g>
<!-- 楽天でんき -->
<g id="node36" class="node">
<title>楽天でんき</title>
<polygon fill="none" stroke="#000000" points="1063,-198 975,-198 975,-162 1063,-162 1063,-198"/>
<text text-anchor="middle" x="1019" y="-176.3" font-family="Times,serif" font-size="14.00" fill="#000000">楽天でんき</text>
</g>
<!-- リクルートカード&#45;&gt;楽天でんき -->
<g id="edge38" class="edge">
<title>リクルートカード&#45;&gt;楽天でんき</title>
<path fill="none" stroke="#000000" stroke-width="2" d="M344.2179,-237.9891C374.2525,-215.5148 430.3589,-180 485,-180 485,-180 485,-180 870.5,-180 901.7275,-180 936.6489,-180 964.7778,-180"/>
<polygon fill="#000000" stroke="#000000" stroke-width="2" points="964.8144,-183.5001 974.8144,-180 964.8143,-176.5001 964.8144,-183.5001"/>
</g>
<!-- 楽天損保 -->
<g id="node39" class="node">
<title>楽天損保</title>
<polygon fill="none" stroke="#000000" points="1056,-144 982,-144 982,-108 1056,-108 1056,-144"/>
<text text-anchor="middle" x="1019" y="-122.3" font-family="Times,serif" font-size="14.00" fill="#000000">楽天損保</text>
</g>
<!-- リクルートカード&#45;&gt;楽天損保 -->
<g id="edge39" class="edge">
<title>リクルートカード&#45;&gt;楽天損保</title>
<path fill="none" stroke="#000000" stroke-width="2" d="M332.973,-237.9241C356.1968,-202.2036 414.0547,-126 485,-126 485,-126 485,-126 870.5,-126 904.2533,-126 942.3221,-126 971.4644,-126"/>
<polygon fill="#000000" stroke="#000000" stroke-width="2" points="971.7726,-129.5001 981.7726,-126 971.7726,-122.5001 971.7726,-129.5001"/>
</g>
<!-- アイハート -->
<g id="node40" class="node">
<title>アイハート</title>
<polygon fill="none" stroke="#000000" points="1062,-90 976,-90 976,-54 1062,-54 1062,-90"/>
<text text-anchor="middle" x="1019" y="-68.3" font-family="Times,serif" font-size="14.00" fill="#000000">アイハート</text>
</g>
<!-- リクルートカード&#45;&gt;アイハート -->
<g id="edge37" class="edge">
<title>リクルートカード&#45;&gt;アイハート</title>
<path fill="none" stroke="#000000" stroke-width="2" d="M328.1641,-237.6847C345.1129,-191.144 397.087,-72 485,-72 485,-72 485,-72 870.5,-72 902.072,-72 937.4196,-72 965.7061,-72"/>
<polygon fill="#000000" stroke="#000000" stroke-width="2" points="965.7878,-75.5001 975.7878,-72 965.7878,-68.5001 965.7878,-75.5001"/>
</g>
<!-- Amazon -->
<g id="node50" class="node">
<title>Amazon</title>
<polygon fill="none" stroke="#000000" points="1056,-306 982,-306 982,-270 1056,-270 1056,-306"/>
<text text-anchor="middle" x="1019" y="-284.3" font-family="Times,serif" font-size="14.00" fill="#000000">Amazon</text>
</g>
<!-- リクルートカード&#45;&gt;Amazon -->
<g id="edge35" class="edge">
<title>リクルートカード&#45;&gt;Amazon</title>
<path fill="none" stroke="#000000" stroke-width="2" d="M386.6479,-256C416.5731,-256 452.5981,-256 485,-256 485,-256 485,-256 870.5,-256 905.0616,-256 943.153,-264.3856 972.1034,-272.5715"/>
<polygon fill="#000000" stroke="#000000" stroke-width="2" points="971.3613,-276.001 981.9415,-275.4446 973.3236,-269.2816 971.3613,-276.001"/>
</g>
<!-- じゃらん -->
<g id="node53" class="node">
<title>じゃらん</title>
<polygon fill="none" stroke="#000000" points="1056,-368 982,-368 982,-332 1056,-332 1056,-368"/>
<text text-anchor="middle" x="1019" y="-346.3" font-family="Times,serif" font-size="14.00" fill="#000000">じゃらん</text>
</g>
<!-- リクルートカード&#45;&gt;じゃらん -->
<g id="edge36" class="edge">
<title>リクルートカード&#45;&gt;じゃらん</title>
<path fill="none" stroke="#000000" stroke-width="2" d="M339.1643,-274.1241C366.9836,-301.4395 424.8926,-350 485,-350 485,-350 485,-350 870.5,-350 904.2533,-350 942.3221,-350 971.4644,-350"/>
<polygon fill="#000000" stroke="#000000" stroke-width="2" points="971.7726,-353.5001 981.7726,-350 971.7726,-346.5001 971.7726,-353.5001"/>
</g>
<!-- 電車 -->
<g id="node32" class="node">
<title>電車</title>
<polygon fill="none" stroke="#000000" points="1046,-1772 992,-1772 992,-1736 1046,-1736 1046,-1772"/>
<text text-anchor="middle" x="1019" y="-1750.3" font-family="Times,serif" font-size="14.00" fill="#000000">電車</text>
</g>
<!-- PiTaPa&#45;&gt;電車 -->
<g id="edge66" class="edge">
<title>PiTaPa&#45;&gt;電車</title>
<path fill="none" stroke="#000000" stroke-width="2" d="M345.0744,-1809.8976C375.3765,-1787.99 431.0791,-1754 485,-1754 485,-1754 485,-1754 870.5,-1754 908.4372,-1754 951.8261,-1754 981.8647,-1754"/>
<polygon fill="#000000" stroke="#000000" stroke-width="2" points="981.9022,-1757.5001 991.9022,-1754 981.9022,-1750.5001 981.9022,-1757.5001"/>
</g>
<!-- バス -->
<g id="node33" class="node">
<title>バス</title>
<polygon fill="none" stroke="#000000" points="1046,-2006 992,-2006 992,-1970 1046,-1970 1046,-2006"/>
<text text-anchor="middle" x="1019" y="-1984.3" font-family="Times,serif" font-size="14.00" fill="#000000">バス</text>
</g>
<!-- PiTaPa&#45;&gt;バス -->
<g id="edge68" class="edge">
<title>PiTaPa&#45;&gt;バス</title>
<path fill="none" stroke="#000000" stroke-width="2" d="M329.8603,-1846.043C349.4476,-1887.8871 404.7012,-1988 485,-1988 485,-1988 485,-1988 870.5,-1988 908.4372,-1988 951.8261,-1988 981.8647,-1988"/>
<polygon fill="#000000" stroke="#000000" stroke-width="2" points="981.9022,-1991.5001 991.9022,-1988 981.9022,-1984.5001 981.9022,-1991.5001"/>
</g>
<!-- Suica&#45;&gt;JREポイント -->
<g id="edge24" class="edge">
<title>Suica&#45;&gt;JREポイント</title>
<path fill="none" stroke="#000000" d="M513.1725,-1635.3811C520.7084,-1631.2042 528.9904,-1627.0748 537,-1624 565.2384,-1613.1597 597.8741,-1605.2317 625.3911,-1599.772"/>
<polygon fill="#000000" stroke="#000000" points="626.1201,-1603.196 635.2797,-1597.8713 624.7988,-1596.3218 626.1201,-1603.196"/>
<text text-anchor="middle" x="555.5" y="-1627.8" font-family="Times,serif" font-size="14.00" fill="#000000">1.5%</text>
</g>
<!-- Suica&#45;&gt;電車 -->
<g id="edge19" class="edge">
<title>Suica&#45;&gt;電車</title>
<path fill="none" stroke="#000000" stroke-width="2" d="M513.1681,-1669.6811C520.704,-1673.5662 528.9872,-1677.3397 537,-1680 560.5078,-1687.8048 567.5207,-1685.2191 592,-1689 747.7908,-1713.0627 787.4572,-1714.383 943,-1740 955.721,-1742.0951 969.6003,-1744.5899 981.976,-1746.8892"/>
<polygon fill="#000000" stroke="#000000" stroke-width="2" points="981.4856,-1750.3582 991.9594,-1748.7615 982.776,-1743.4781 981.4856,-1750.3582"/>
</g>
<!-- 松屋 -->
<g id="node48" class="node">
<title>松屋</title>
<polygon fill="none" stroke="#000000" points="1046,-1696 992,-1696 992,-1660 1046,-1660 1046,-1696"/>
<text text-anchor="middle" x="1019" y="-1674.3" font-family="Times,serif" font-size="14.00" fill="#000000">松屋</text>
</g>
<!-- Suica&#45;&gt;松屋 -->
<g id="edge20" class="edge">
<title>Suica&#45;&gt;松屋</title>
<path fill="none" stroke="#000000" stroke-width="2" d="M513.1839,-1659.9234C520.8627,-1661.5459 529.2118,-1663.0708 537,-1664 701.8766,-1683.6719 900.6056,-1681.2649 981.7566,-1679.1829"/>
<polygon fill="#000000" stroke="#000000" stroke-width="2" points="982.0609,-1682.6761 991.9624,-1678.9065 981.8713,-1675.6786 982.0609,-1682.6761"/>
</g>
<!-- 吉野家 -->
<g id="node49" class="node">
<title>吉野家</title>
<polygon fill="none" stroke="#000000" points="1048.5,-1642 989.5,-1642 989.5,-1606 1048.5,-1606 1048.5,-1642"/>
<text text-anchor="middle" x="1019" y="-1620.3" font-family="Times,serif" font-size="14.00" fill="#000000">吉野家</text>
</g>
<!-- Suica&#45;&gt;吉野家 -->
<g id="edge21" class="edge">
<title>Suica&#45;&gt;吉野家</title>
<path fill="none" stroke="#000000" stroke-width="2" d="M513.3331,-1651.4613C602.256,-1646.6322 876.0027,-1631.7658 979.137,-1626.1648"/>
<polygon fill="#000000" stroke="#000000" stroke-width="2" points="979.6343,-1629.6431 989.4298,-1625.6059 979.2547,-1622.6534 979.6343,-1629.6431"/>
</g>
<!-- 株主優待券 -->
<g id="node28" class="node">
<title>株主優待券</title>
<polygon fill="none" stroke="#000000" points="914.5,-1870 826.5,-1870 826.5,-1834 914.5,-1834 914.5,-1870"/>
<text text-anchor="middle" x="870.5" y="-1848.3" font-family="Times,serif" font-size="14.00" fill="#000000">株主優待券</text>
</g>
<!-- 現金&#45;&gt;株主優待券 -->
<g id="edge71" class="edge">
<title>現金&#45;&gt;株主優待券</title>
<path fill="none" stroke="#000000" stroke-width="2" d="M512.1076,-1848.3326C575.1191,-1844.6731 732.4432,-1844.2719 816.1363,-1847.1289"/>
<polygon fill="#000000" stroke="#000000" stroke-width="2" points="816.089,-1850.6294 826.2121,-1847.5034 816.3491,-1843.6343 816.089,-1850.6294"/>
</g>
<!-- 飲食店 -->
<g id="node45" class="node">
<title>飲食店</title>
<polygon fill="none" stroke="#000000" points="1048.5,-1917 989.5,-1917 989.5,-1881 1048.5,-1881 1048.5,-1917"/>
<text text-anchor="middle" x="1019" y="-1895.3" font-family="Times,serif" font-size="14.00" fill="#000000">飲食店</text>
</g>
<!-- 現金&#45;&gt;飲食店 -->
<g id="edge70" class="edge">
<title>現金&#45;&gt;飲食店</title>
<path fill="none" stroke="#000000" stroke-width="2" d="M512.1403,-1866.2428C519.9619,-1869.7244 528.6441,-1873.0162 537,-1875 697.4539,-1913.0934 896.1124,-1906.7968 979.3716,-1901.8512"/>
<polygon fill="#000000" stroke="#000000" stroke-width="2" points="979.6456,-1905.3411 989.4093,-1901.2277 979.2115,-1898.3545 979.6456,-1905.3411"/>
</g>
<!-- nanacoポイント -->
<g id="node24" class="node">
<title>nanacoポイント</title>
<polygon fill="none" stroke="#000000" points="748.5,-468 623.5,-468 623.5,-432 748.5,-432 748.5,-468"/>
<text text-anchor="middle" x="686" y="-446.3" font-family="Times,serif" font-size="14.00" fill="#000000">nanacoポイント</text>
</g>
<!-- nanaco&#45;&gt;nanacoポイント -->
<g id="edge57" class="edge">
<title>nanaco&#45;&gt;nanacoポイント</title>
<path fill="none" stroke="#000000" d="M512.6841,-477.9181C520.294,-473.6946 528.7341,-469.6584 537,-467 561.1804,-459.2232 588.5701,-454.9049 613.2114,-452.5384"/>
<polygon fill="#000000" stroke="#000000" points="613.5652,-456.0209 623.2243,-451.6674 612.9586,-449.0472 613.5652,-456.0209"/>
<text text-anchor="middle" x="555.5" y="-470.8" font-family="Times,serif" font-size="14.00" fill="#000000">1%</text>
</g>
<!-- iTunesカード -->
<g id="node29" class="node">
<title>iTunesカード</title>
<polygon fill="none" stroke="#000000" points="924,-560 817,-560 817,-524 924,-524 924,-560"/>
<text text-anchor="middle" x="870.5" y="-538.3" font-family="Times,serif" font-size="14.00" fill="#000000">iTunesカード</text>
</g>
<!-- nanaco&#45;&gt;iTunesカード -->
<g id="edge59" class="edge">
<title>nanaco&#45;&gt;iTunesカード</title>
<path fill="none" stroke="#000000" stroke-width="2" d="M519.2202,-506.0823C525.1121,-507.568 531.2044,-508.9494 537,-510 630.0889,-526.8746 739.5143,-535.2241 806.9397,-539.0696"/>
<polygon fill="#000000" stroke="#000000" stroke-width="2" points="806.8051,-542.5674 816.9836,-539.6267 807.1929,-535.5781 806.8051,-542.5674"/>
</g>
<!-- セブンイレブン -->
<g id="node31" class="node">
<title>セブンイレブン</title>
<polygon fill="none" stroke="#000000" points="1076,-506 962,-506 962,-470 1076,-470 1076,-506"/>
<text text-anchor="middle" x="1019" y="-484.3" font-family="Times,serif" font-size="14.00" fill="#000000">セブンイレブン</text>
</g>
<!-- nanaco&#45;&gt;セブンイレブン -->
<g id="edge56" class="edge">
<title>nanaco&#45;&gt;セブンイレブン</title>
<path fill="none" stroke="#000000" stroke-width="2" d="M519.2164,-495.4874C606.1386,-494.1852 836.6898,-490.7312 951.7369,-489.0077"/>
<polygon fill="#000000" stroke="#000000" stroke-width="2" points="951.8845,-492.506 961.8309,-488.8565 951.7795,-485.5068 951.8845,-492.506"/>
</g>
<!-- 楽天ポイント -->
<g id="node20" class="node">
<title>楽天ポイント</title>
<polygon fill="none" stroke="#000000" points="737,-691 635,-691 635,-655 737,-655 737,-691"/>
<text text-anchor="middle" x="686" y="-669.3" font-family="Times,serif" font-size="14.00" fill="#000000">楽天ポイント</text>
</g>
<!-- Edy&#45;&gt;楽天ポイント -->
<g id="edge49" class="edge">
<title>Edy&#45;&gt;楽天ポイント</title>
<path fill="none" stroke="#000000" d="M495.1985,-776.7645C504.3919,-761.8107 519.1823,-741.0513 537,-728 563.0673,-708.906 596.4906,-695.7681 625.0735,-687.1344"/>
<polygon fill="#000000" stroke="#000000" points="626.3328,-690.4135 634.9618,-684.266 624.3826,-683.6906 626.3328,-690.4135"/>
<text text-anchor="middle" x="555.5" y="-731.8" font-family="Times,serif" font-size="14.00" fill="#000000">0.5%</text>
</g>
<!-- ヤマト運輸 -->
<g id="node38" class="node">
<title>ヤマト運輸</title>
<polygon fill="none" stroke="#000000" points="1063,-1324 975,-1324 975,-1288 1063,-1288 1063,-1324"/>
<text text-anchor="middle" x="1019" y="-1302.3" font-family="Times,serif" font-size="14.00" fill="#000000">ヤマト運輸</text>
</g>
<!-- Edy&#45;&gt;ヤマト運輸 -->
<g id="edge41" class="edge">
<title>Edy&#45;&gt;ヤマト運輸</title>
<path fill="none" stroke="#000000" stroke-width="2" d="M488.1155,-813.1423C499.7785,-879.1399 542.7216,-1105.2858 592,-1157 693.3093,-1263.3171 874.521,-1293.8165 964.7956,-1302.5333"/>
<polygon fill="#000000" stroke="#000000" stroke-width="2" points="964.5416,-1306.0246 974.8181,-1303.4472 965.1773,-1299.0535 964.5416,-1306.0246"/>
</g>
<!-- ウェルシア -->
<g id="node41" class="node">
<title>ウェルシア</title>
<polygon fill="none" stroke="#000000" points="1062.5,-1216 975.5,-1216 975.5,-1180 1062.5,-1180 1062.5,-1216"/>
<text text-anchor="middle" x="1019" y="-1194.3" font-family="Times,serif" font-size="14.00" fill="#000000">ウェルシア</text>
</g>
<!-- Edy&#45;&gt;ウェルシア -->
<g id="edge46" class="edge">
<title>Edy&#45;&gt;ウェルシア</title>
<path fill="none" stroke="#000000" stroke-width="2" d="M489.9861,-813.0974C501.6972,-852.6733 534.4076,-948.0023 592,-1006 658.2499,-1072.7162 699.1291,-1055.0418 780,-1103 797.0704,-1113.1231 799.2511,-1119.12 817,-1128 865.2451,-1152.1377 923.8225,-1171.4313 965.4474,-1183.6005"/>
<polygon fill="#000000" stroke="#000000" stroke-width="2" points="964.5393,-1186.9811 975.1176,-1186.3887 966.4787,-1180.2551 964.5393,-1186.9811"/>
</g>
<!-- ヨドバシカメラ -->
<g id="node43" class="node">
<title>ヨドバシカメラ</title>
<polygon fill="none" stroke="#000000" points="1077,-940 961,-940 961,-904 1077,-904 1077,-940"/>
<text text-anchor="middle" x="1019" y="-918.3" font-family="Times,serif" font-size="14.00" fill="#000000">ヨドバシカメラ</text>
</g>
<!-- Edy&#45;&gt;ヨドバシカメラ -->
<g id="edge43" class="edge">
<title>Edy&#45;&gt;ヨドバシカメラ</title>
<path fill="none" stroke="#000000" stroke-width="2" d="M499.8225,-813.1348C518.6934,-834.7559 553.5019,-869.9751 592,-886 710.7546,-935.4318 863.8802,-934.5128 950.7753,-928.7079"/>
<polygon fill="#000000" stroke="#000000" stroke-width="2" points="951.0518,-932.1972 960.7791,-927.9983 950.5564,-925.2148 951.0518,-932.1972"/>
</g>
<!-- 餃子の王将 -->
<g id="node44" class="node">
<title>餃子の王将</title>
<polygon fill="none" stroke="#000000" points="1063,-614 975,-614 975,-578 1063,-578 1063,-614"/>
<text text-anchor="middle" x="1019" y="-592.3" font-family="Times,serif" font-size="14.00" fill="#000000">餃子の王将</text>
</g>
<!-- Edy&#45;&gt;餃子の王将 -->
<g id="edge65" class="edge">
<title>Edy&#45;&gt;餃子の王将</title>
<path fill="none" stroke="#000000" stroke-width="2" d="M491.4893,-776.8959C504.5339,-743.6183 537.4428,-673.6116 592,-646 714.1041,-584.2027 880.3404,-585.2778 964.856,-590.8646"/>
<polygon fill="#000000" stroke="#000000" stroke-width="2" points="964.7732,-594.3674 974.9956,-591.5829 965.268,-587.3849 964.7732,-594.3674"/>
</g>
<!-- FRESCO -->
<g id="node46" class="node">
<title>FRESCO</title>
<polygon fill="none" stroke="#000000" points="1059,-829 979,-829 979,-793 1059,-793 1059,-829"/>
<text text-anchor="middle" x="1019" y="-807.3" font-family="Times,serif" font-size="14.00" fill="#000000">FRESCO</text>
</g>
<!-- Edy&#45;&gt;FRESCO -->
<g id="edge62" class="edge">
<title>Edy&#45;&gt;FRESCO</title>
<path fill="none" stroke="#000000" stroke-width="2" d="M512.2153,-795.8154C597.147,-798.3602 858.2155,-806.1825 968.7388,-809.494"/>
<polygon fill="#000000" stroke="#000000" stroke-width="2" points="968.8533,-812.999 978.9537,-809.8001 969.063,-806.0021 968.8533,-812.999"/>
</g>
<!-- 業務スーパー -->
<g id="node47" class="node">
<title>業務スーパー</title>
<polygon fill="none" stroke="#000000" points="1069.5,-775 968.5,-775 968.5,-739 1069.5,-739 1069.5,-775"/>
<text text-anchor="middle" x="1019" y="-753.3" font-family="Times,serif" font-size="14.00" fill="#000000">業務スーパー</text>
</g>
<!-- Edy&#45;&gt;業務スーパー -->
<g id="edge61" class="edge">
<title>Edy&#45;&gt;業務スーパー</title>
<path fill="none" stroke="#000000" stroke-width="2" d="M512.2153,-793.0633C594.533,-787.2055 842.3125,-769.5733 958.1158,-761.3326"/>
<polygon fill="#000000" stroke="#000000" stroke-width="2" points="958.5058,-764.8138 968.2322,-760.6127 958.0089,-757.8314 958.5058,-764.8138"/>
</g>
<!-- Ponta&#45;&gt;じゃらん -->
<g id="edge51" class="edge">
<title>Ponta&#45;&gt;じゃらん</title>
<path fill="none" stroke="#000000" d="M714.6698,-402.128C759.4781,-410.8417 848.7718,-424.7328 924,-415 951.8425,-411.3978 977.7357,-392.1747 995.4344,-375.56"/>
<polygon fill="#000000" stroke="#000000" points="998.2765,-377.6751 1002.9672,-368.1752 993.3761,-372.6765 998.2765,-377.6751"/>
</g>
<!-- Tポイント -->
<g id="node19" class="node">
<title>Tポイント</title>
<polygon fill="none" stroke="#000000" points="727.5,-1443 644.5,-1443 644.5,-1407 727.5,-1407 727.5,-1443"/>
<text text-anchor="middle" x="686" y="-1421.3" font-family="Times,serif" font-size="14.00" fill="#000000">Tポイント</text>
</g>
<!-- はぴeポイント -->
<g id="node27" class="node">
<title>はぴeポイント</title>
<polygon fill="none" stroke="#000000" points="741,-1371 631,-1371 631,-1335 741,-1335 741,-1371"/>
<text text-anchor="middle" x="686" y="-1349.3" font-family="Times,serif" font-size="14.00" fill="#000000">はぴeポイント</text>
</g>
<!-- Tポイント&#45;&gt;はぴeポイント -->
<g id="edge48" class="edge">
<title>Tポイント&#45;&gt;はぴeポイント</title>
<path fill="none" stroke="#000000" d="M686,-1406.9539C686,-1398.4073 686,-1389.8607 686,-1381.3142"/>
<polygon fill="#000000" stroke="#000000" points="689.5001,-1381.2812 686,-1371.2813 682.5001,-1381.2813 689.5001,-1381.2812"/>
</g>
<!-- 楽天ポイント&#45;&gt;楽天モバイル -->
<g id="edge28" class="edge">
<title>楽天ポイント&#45;&gt;楽天モバイル</title>
<path fill="none" stroke="#000000" d="M737.3015,-677.6218C796.6648,-682.9698 894.3487,-691.7702 957.6704,-697.4748"/>
<polygon fill="#000000" stroke="#000000" points="957.64,-700.9862 967.9137,-698.3976 958.2681,-694.0144 957.64,-700.9862"/>
</g>
<!-- JREポイント&#45;&gt;Suica -->
<g id="edge25" class="edge">
<title>JREポイント&#45;&gt;Suica</title>
<path fill="none" stroke="#000000" d="M635.4519,-1589.3694C605.676,-1590.6956 567.91,-1595.3982 537,-1609 526.8285,-1613.4759 517.1179,-1620.5943 508.9003,-1627.8123"/>
<polygon fill="#000000" stroke="#000000" points="506.4538,-1625.3079 501.5128,-1634.68 511.2199,-1630.4347 506.4538,-1625.3079"/>
</g>
<!-- ビックポイント&#45;&gt;ビックカメラ -->
<g id="edge17" class="edge">
<title>ビックポイント&#45;&gt;ビックカメラ</title>
<path fill="none" stroke="#000000" d="M744.0042,-1132.4386C803.9835,-1134.9603 897.2338,-1138.8807 958.2169,-1141.4446"/>
<polygon fill="#000000" stroke="#000000" points="958.3258,-1144.9521 968.4641,-1141.8754 958.6199,-1137.9583 958.3258,-1144.9521"/>
</g>
<!-- Amazonポイント -->
<g id="node23" class="node">
<title>Amazonポイント</title>
<polygon fill="none" stroke="#000000" points="751.5,-321 620.5,-321 620.5,-285 751.5,-285 751.5,-321"/>
<text text-anchor="middle" x="686" y="-299.3" font-family="Times,serif" font-size="14.00" fill="#000000">Amazonポイント</text>
</g>
<!-- Amazonポイント&#45;&gt;Amazon -->
<g id="edge54" class="edge">
<title>Amazonポイント&#45;&gt;Amazon</title>
<path fill="none" stroke="#000000" d="M751.7901,-294.5327C816.563,-289.7699 913.908,-285.5887 971.4901,-285.2473"/>
<polygon fill="#000000" stroke="#000000" points="971.7687,-288.7469 981.7624,-285.229 971.7562,-281.747 971.7687,-288.7469"/>
</g>
<!-- nanacoポイント&#45;&gt;nanaco -->
<g id="edge58" class="edge">
<title>nanacoポイント&#45;&gt;nanaco</title>
<path fill="none" stroke="#000000" d="M623.4465,-443.5153C596.1477,-442.8418 564.225,-445.0434 537,-455 527.3839,-458.5167 518.1649,-464.549 510.2305,-470.9207"/>
<polygon fill="#000000" stroke="#000000" points="507.769,-468.4212 502.4644,-477.5925 512.3304,-473.7309 507.769,-468.4212"/>
</g>
<!-- FRESCOポイント -->
<g id="node25" class="node">
<title>FRESCOポイント</title>
<polygon fill="none" stroke="#000000" points="754.5,-877 617.5,-877 617.5,-841 754.5,-841 754.5,-877"/>
<text text-anchor="middle" x="686" y="-855.3" font-family="Times,serif" font-size="14.00" fill="#000000">FRESCOポイント</text>
</g>
<!-- FRESCOポイント&#45;&gt;FRESCO -->
<g id="edge64" class="edge">
<title>FRESCOポイント&#45;&gt;FRESCO</title>
<path fill="none" stroke="#000000" d="M754.7229,-867.9243C802.8164,-872.0873 868.1858,-873.5463 924,-860 945.0394,-854.8937 966.6323,-844.2651 983.9047,-834.208"/>
<polygon fill="#000000" stroke="#000000" points="985.7483,-837.1836 992.5174,-829.0332 982.1431,-831.1833 985.7483,-837.1836"/>
</g>
<!-- ヨドバシゴールドポイント -->
<g id="node26" class="node">
<title>ヨドバシゴールドポイント</title>
<polygon fill="none" stroke="#000000" points="780,-997 592,-997 592,-961 780,-961 780,-997"/>
<text text-anchor="middle" x="686" y="-975.3" font-family="Times,serif" font-size="14.00" fill="#000000">ヨドバシゴールドポイント</text>
</g>
<!-- ヨドバシゴールドポイント&#45;&gt;ヨドバシカメラ -->
<g id="edge45" class="edge">
<title>ヨドバシゴールドポイント&#45;&gt;ヨドバシカメラ</title>
<path fill="none" stroke="#000000" d="M780.199,-989.1897C824.5595,-991.2224 877.7611,-989.6279 924,-977 946.5439,-970.8432 969.2879,-957.9652 986.8676,-946.2176"/>
<polygon fill="#000000" stroke="#000000" points="989.3183,-948.779 995.5615,-940.219 985.3429,-943.0174 989.3183,-948.779"/>
</g>
<!-- はぴeポイント&#45;&gt;関西電力 -->
<g id="edge12" class="edge">
<title>はぴeポイント&#45;&gt;関西電力</title>
<path fill="none" stroke="#000000" d="M741.3977,-1336.6058C793.0051,-1324.8296 869.9067,-1316.5663 924,-1352 989.1769,-1394.694 1009.8862,-1492.9182 1016.2695,-1541.5939"/>
<polygon fill="#000000" stroke="#000000" points="1012.8205,-1542.2295 1017.485,-1551.7423 1019.7708,-1541.397 1012.8205,-1542.2295"/>
</g>
<!-- 株主優待券&#45;&gt;現金 -->
<g id="edge73" class="edge">
<title>株主優待券&#45;&gt;現金</title>
<path fill="none" stroke="#000000" d="M826.2121,-1856.4966C749.6607,-1859.5968 593.9433,-1859.4981 522.4327,-1856.2005"/>
<polygon fill="#000000" stroke="#000000" points="522.2748,-1852.6878 512.1076,-1855.6674 521.9138,-1859.6785 522.2748,-1852.6878"/>
</g>
<!-- 株主優待券&#45;&gt;電車 -->
<g id="edge72" class="edge">
<title>株主優待券&#45;&gt;電車</title>
<path fill="none" stroke="#000000" stroke-width="2" d="M908.1361,-1833.9569C919.584,-1828.025 932.0321,-1821.116 943,-1814 959.3865,-1803.3684 976.5549,-1790.0271 990.4194,-1778.6261"/>
<polygon fill="#000000" stroke="#000000" stroke-width="2" points="992.7246,-1781.2611 998.17,-1772.1727 988.2456,-1775.8817 992.7246,-1781.2611"/>
</g>
<!-- iTunes -->
<g id="node51" class="node">
<title>iTunes</title>
<polygon fill="none" stroke="#000000" points="1051.5,-560 986.5,-560 986.5,-524 1051.5,-524 1051.5,-560"/>
<text text-anchor="middle" x="1019" y="-538.3" font-family="Times,serif" font-size="14.00" fill="#000000">iTunes</text>
</g>
<!-- iTunesカード&#45;&gt;iTunes -->
<g id="edge60" class="edge">
<title>iTunesカード&#45;&gt;iTunes</title>
<path fill="none" stroke="#000000" stroke-width="2" d="M924.1119,-542C941.1494,-542 959.7618,-542 975.954,-542"/>
<polygon fill="#000000" stroke="#000000" stroke-width="2" points="976.2042,-545.5001 986.2042,-542 976.2042,-538.5001 976.2042,-545.5001"/>
</g>
<!-- 電車&#45;&gt;PiTaPa -->
<g id="edge67" class="edge">
<title>電車&#45;&gt;PiTaPa</title>
<path fill="none" stroke="#000000" d="M991.6538,-1759.6245C977.23,-1762.4422 959.2096,-1765.7282 943,-1768 726.7353,-1798.3097 465.9385,-1818.093 364.8908,-1825.1306"/>
<polygon fill="#000000" stroke="#000000" points="364.5069,-1821.6487 354.772,-1825.8298 364.9895,-1828.6321 364.5069,-1821.6487"/>
<text text-anchor="middle" x="686" y="-1810.8" font-family="Times,serif" font-size="14.00" fill="#000000">10%</text>
</g>
<!-- バス&#45;&gt;PiTaPa -->
<g id="edge69" class="edge">
<title>バス&#45;&gt;PiTaPa</title>
<path fill="none" stroke="#000000" d="M991.7665,-1975.0986C962.4904,-1962.4327 914.2497,-1945 870.5,-1945 485,-1945 485,-1945 485,-1945 423.1832,-1945 368.7428,-1888.7773 341.1571,-1854.2799"/>
<polygon fill="#000000" stroke="#000000" points="343.6375,-1851.7681 334.7343,-1846.0248 338.1127,-1856.0666 343.6375,-1851.7681"/>
<text text-anchor="middle" x="686" y="-1948.8" font-family="Times,serif" font-size="14.00" fill="#000000">10%</text>
</g>
<!-- 楽天モバイル&#45;&gt;楽天ポイント -->
<g id="edge27" class="edge">
<title>楽天モバイル&#45;&gt;楽天ポイント</title>
<path fill="none" stroke="#000000" d="M993.4207,-684.7551C975.0733,-672.8355 949.2345,-658.3452 924,-652 865.2243,-637.2209 796.014,-646.152 747.4251,-656.5431"/>
<polygon fill="#000000" stroke="#000000" points="746.3838,-653.189 737.381,-658.7746 747.9021,-660.0224 746.3838,-653.189"/>
<text text-anchor="middle" x="870.5" y="-655.8" font-family="Times,serif" font-size="14.00" fill="#000000">0.5%</text>
</g>
<!-- 関西電力&#45;&gt;はぴeポイント -->
<g id="edge11" class="edge">
<title>関西電力&#45;&gt;はぴeポイント</title>
<path fill="none" stroke="#000000" d="M999.7511,-1551.8738C981.3166,-1535.1483 952.2106,-1510.3507 924,-1493 879.6036,-1465.6943 858.0863,-1477.0712 817,-1445 796.0435,-1428.6418 800.7521,-1414.6168 780,-1398 769.0898,-1389.2639 756.2046,-1381.7025 743.5298,-1375.4024"/>
<polygon fill="#000000" stroke="#000000" points="744.9024,-1372.1795 734.3691,-1371.0392 741.8923,-1378.4993 744.9024,-1372.1795"/>
<text text-anchor="middle" x="870.5" y="-1496.8" font-family="Times,serif" font-size="14.00" fill="#000000">0.8%, 0.5%</text>
</g>
<!-- ヤマト運輸&#45;&gt;Tポイント -->
<g id="edge42" class="edge">
<title>ヤマト運輸&#45;&gt;Tポイント</title>
<path fill="none" stroke="#000000" d="M1006.9393,-1324.1588C993.5238,-1342.9309 970.1314,-1371.7241 943,-1388 879.811,-1425.9065 792.5331,-1430.4896 737.6932,-1428.8502"/>
<polygon fill="#000000" stroke="#000000" points="737.6353,-1425.3456 727.5094,-1428.4629 737.3692,-1432.3405 737.6353,-1425.3456"/>
<text text-anchor="middle" x="870.5" y="-1429.8" font-family="Times,serif" font-size="14.00" fill="#000000">0.5%</text>
</g>
<!-- ウェルシア&#45;&gt;Tポイント -->
<g id="edge47" class="edge">
<title>ウェルシア&#45;&gt;Tポイント</title>
<path fill="none" stroke="#000000" d="M976.4588,-1216.1552C971.1331,-1218.9038 965.8565,-1221.8739 961,-1225 871.9443,-1282.3243 868.7449,-1322.1957 780,-1380 766.5686,-1388.7486 751.1758,-1396.8313 736.7877,-1403.6613"/>
<polygon fill="#000000" stroke="#000000" points="735.1089,-1400.5817 727.5085,-1407.9631 738.0531,-1406.9324 735.1089,-1400.5817"/>
<text text-anchor="middle" x="870.5" y="-1356.8" font-family="Times,serif" font-size="14.00" fill="#000000">1%</text>
</g>
<!-- ビックカメラ&#45;&gt;ビックポイント -->
<g id="edge15" class="edge">
<title>ビックカメラ&#45;&gt;ビックポイント</title>
<path fill="none" stroke="#000000" stroke-dasharray="5,2" d="M979.6585,-1125.9596C962.8833,-1119.2084 942.8611,-1112.3639 924,-1109 867.1955,-1098.8689 801.8514,-1105.9484 754.0205,-1114.526"/>
<polygon fill="#000000" stroke="#000000" points="753.2803,-1111.1036 744.0891,-1116.3735 754.5606,-1117.9855 753.2803,-1111.1036"/>
<text text-anchor="middle" x="870.5" y="-1112.8" font-family="Times,serif" font-size="14.00" fill="#000000">9.5%</text>
</g>
<!-- ヨドバシカメラ&#45;&gt;ヨドバシゴールドポイント -->
<g id="edge44" class="edge">
<title>ヨドバシカメラ&#45;&gt;ヨドバシゴールドポイント</title>
<path fill="none" stroke="#000000" d="M960.9254,-932.7991C954.8748,-933.894 948.8141,-934.9782 943,-936 892.7734,-944.8274 836.9475,-954.2184 790.1927,-961.9651"/>
<polygon fill="#000000" stroke="#000000" points="789.3475,-958.5573 780.0531,-963.6429 790.4904,-965.4634 789.3475,-958.5573"/>
<text text-anchor="middle" x="870.5" y="-961.8" font-family="Times,serif" font-size="14.00" fill="#000000">10%</text>
</g>
<!-- FRESCO&#45;&gt;FRESCOポイント -->
<g id="edge63" class="edge">
<title>FRESCO&#45;&gt;FRESCOポイント</title>
<path fill="none" stroke="#000000" d="M978.7282,-816.8049C925.8713,-824.424 831.9362,-837.9642 764.7245,-847.6523"/>
<polygon fill="#000000" stroke="#000000" points="763.9924,-844.2216 754.594,-849.1126 764.9911,-851.15 763.9924,-844.2216"/>
<text text-anchor="middle" x="870.5" y="-844.8" font-family="Times,serif" font-size="14.00" fill="#000000">0.5%</text>
</g>
<!-- 吉野家&#45;&gt;Tポイント -->
<g id="edge22" class="edge">
<title>吉野家&#45;&gt;Tポイント</title>
<path fill="none" stroke="#000000" d="M989.4433,-1611.0942C980.2152,-1606.8385 970.0783,-1601.9278 961,-1597 872.1089,-1548.7492 772.5833,-1483.5383 721.1013,-1448.9168"/>
<polygon fill="#000000" stroke="#000000" points="722.908,-1445.9137 712.6602,-1443.2244 718.9943,-1451.7174 722.908,-1445.9137"/>
<text text-anchor="middle" x="870.5" y="-1580.8" font-family="Times,serif" font-size="14.00" fill="#000000">0.5%</text>
</g>
<!-- Amazon&#45;&gt;Amazonポイント -->
<g id="edge53" class="edge">
<title>Amazon&#45;&gt;Amazonポイント</title>
<path fill="none" stroke="#000000" d="M981.7624,-294.1257C928.8672,-299.0419 830.7837,-303.902 762.1216,-305.3454"/>
<polygon fill="#000000" stroke="#000000" points="761.7223,-301.8522 751.7901,-305.5402 761.8543,-308.851 761.7223,-301.8522"/>
</g>
<!-- じゃらん&#45;&gt;Ponta -->
<g id="edge52" class="edge">
<title>じゃらん&#45;&gt;Ponta</title>
<path fill="none" stroke="#000000" d="M981.964,-357.2697C969.5991,-359.5772 955.7293,-362.0368 943,-364 865.8355,-375.9009 775.1062,-386.3802 724.7187,-391.8908"/>
<polygon fill="#000000" stroke="#000000" points="724.1619,-388.4306 714.5983,-392.99 724.9178,-395.3897 724.1619,-388.4306"/>
<text text-anchor="middle" x="870.5" y="-385.8" font-family="Times,serif" font-size="14.00" fill="#000000">2%</text>
</g>
</g>
</svg>
