<?xml version="1.0" encoding="UTF-8" standalone="no"?>
<!DOCTYPE svg PUBLIC "-//W3C//DTD SVG 1.1//EN"
 "http://www.w3.org/Graphics/SVG/1.1/DTD/svg11.dtd">
<!-- Generated by graphviz version 2.40.1 (20161225.0304)
 -->
<!-- Title: MoneyFlow Pages: 1 -->
<svg width="3163pt" height="496pt"
 viewBox="0.00 0.00 3162.50 496.00" xmlns="http://www.w3.org/2000/svg" xmlns:xlink="http://www.w3.org/1999/xlink">
<g id="graph0" class="graph" transform="scale(1 1) rotate(0) translate(4 492)">
<title>MoneyFlow</title>
<polygon fill="#ffffff" stroke="transparent" points="-4,4 -4,-492 3158.5,-492 3158.5,4 -4,4"/>
<!-- 収入 -->
<g id="node1" class="node">
<title>収入</title>
<text text-anchor="middle" x="65.5" y="-466.3" font-family="Times,serif" font-size="14.00" fill="#000000">収入</text>
</g>
<!-- 銀行口座 -->
<g id="node2" class="node">
<title>銀行口座</title>
<text text-anchor="middle" x="65.5" y="-393.3" font-family="Times,serif" font-size="14.00" fill="#000000">銀行口座</text>
</g>
<!-- 収入&#45;&gt;銀行口座 -->
<g id="edge1" class="edge">
<title>収入&#45;&gt;銀行口座</title>
<path fill="none" stroke="#000000" d="M65.5,-451.9551C65.5,-440.7241 65.5,-426.3298 65.5,-415.0904"/>
</g>
<!-- クレジットカード -->
<g id="node3" class="node">
<title>クレジットカード</title>
<text text-anchor="middle" x="65.5" y="-320.3" font-family="Times,serif" font-size="14.00" fill="#000000">クレジットカード</text>
</g>
<!-- 銀行口座&#45;&gt;クレジットカード -->
<g id="edge2" class="edge">
<title>銀行口座&#45;&gt;クレジットカード</title>
<path fill="none" stroke="#000000" d="M65.5,-378.9551C65.5,-367.7241 65.5,-353.3298 65.5,-342.0904"/>
</g>
<!-- マネー -->
<g id="node4" class="node">
<title>マネー</title>
<text text-anchor="middle" x="65.5" y="-247.3" font-family="Times,serif" font-size="14.00" fill="#000000">マネー</text>
</g>
<!-- クレジットカード&#45;&gt;マネー -->
<g id="edge3" class="edge">
<title>クレジットカード&#45;&gt;マネー</title>
<path fill="none" stroke="#000000" d="M65.5,-305.9551C65.5,-294.7241 65.5,-280.3298 65.5,-269.0904"/>
</g>
<!-- ポイント -->
<g id="node5" class="node">
<title>ポイント</title>
<text text-anchor="middle" x="65.5" y="-160.3" font-family="Times,serif" font-size="14.00" fill="#000000">ポイント</text>
</g>
<!-- マネー&#45;&gt;ポイント -->
<g id="edge4" class="edge">
<title>マネー&#45;&gt;ポイント</title>
<path fill="none" stroke="#000000" d="M65.5,-232.9735C65.5,-218.0422 65.5,-196.9283 65.5,-182.0034"/>
</g>
<!-- 金券 -->
<g id="node6" class="node">
<title>金券</title>
<text text-anchor="middle" x="65.5" y="-87.3" font-family="Times,serif" font-size="14.00" fill="#000000">金券</text>
</g>
<!-- ポイント&#45;&gt;金券 -->
<g id="edge5" class="edge">
<title>ポイント&#45;&gt;金券</title>
<path fill="none" stroke="#000000" d="M65.5,-145.9551C65.5,-134.7241 65.5,-120.3298 65.5,-109.0904"/>
</g>
<!-- 支出 -->
<g id="node7" class="node">
<title>支出</title>
<text text-anchor="middle" x="65.5" y="-14.3" font-family="Times,serif" font-size="14.00" fill="#000000">支出</text>
</g>
<!-- 金券&#45;&gt;支出 -->
<g id="edge6" class="edge">
<title>金券&#45;&gt;支出</title>
<path fill="none" stroke="#000000" d="M65.5,-72.9551C65.5,-61.7241 65.5,-47.3298 65.5,-36.0904"/>
</g>
<!-- 給与 -->
<g id="node8" class="node">
<title>給与</title>
<polygon fill="none" stroke="#000000" points="585.5,-488 531.5,-488 531.5,-452 585.5,-452 585.5,-488"/>
<text text-anchor="middle" x="558.5" y="-466.3" font-family="Times,serif" font-size="14.00" fill="#000000">給与</text>
</g>
<!-- 三井住友銀行 -->
<g id="node9" class="node">
<title>三井住友銀行</title>
<polygon fill="none" stroke="#000000" points="609.5,-415 507.5,-415 507.5,-379 609.5,-379 609.5,-415"/>
<text text-anchor="middle" x="558.5" y="-393.3" font-family="Times,serif" font-size="14.00" fill="#000000">三井住友銀行</text>
</g>
<!-- 給与&#45;&gt;三井住友銀行 -->
<g id="edge7" class="edge">
<title>給与&#45;&gt;三井住友銀行</title>
<path fill="none" stroke="#000000" stroke-width="2" d="M558.5,-451.9551C558.5,-443.8828 558.5,-434.1764 558.5,-425.1817"/>
<polygon fill="#000000" stroke="#000000" stroke-width="2" points="562.0001,-425.0903 558.5,-415.0904 555.0001,-425.0904 562.0001,-425.0903"/>
</g>
<!-- 住信SBI銀行 -->
<g id="node10" class="node">
<title>住信SBI銀行</title>
<polygon fill="none" stroke="#000000" points="1454.5,-415 1354.5,-415 1354.5,-379 1454.5,-379 1454.5,-415"/>
<text text-anchor="middle" x="1404.5" y="-393.3" font-family="Times,serif" font-size="14.00" fill="#000000">住信SBI銀行</text>
</g>
<!-- 三井住友銀行&#45;&gt;住信SBI銀行 -->
<g id="edge9" class="edge">
<title>三井住友銀行&#45;&gt;住信SBI銀行</title>
<path fill="none" stroke="#000000" stroke-width="2" d="M609.7227,-397C854.5673,-397 1099.412,-397 1344.2567,-397"/>
<polygon fill="#000000" stroke="#000000" stroke-width="2" points="1344.4384,-400.5001 1354.4383,-397 1344.4383,-393.5001 1344.4384,-400.5001"/>
</g>
<!-- 三井住友VISAカード -->
<g id="node11" class="node">
<title>三井住友VISAカード</title>
<polygon fill="none" stroke="#000000" points="408,-342 255,-342 255,-306 408,-306 408,-342"/>
<text text-anchor="middle" x="331.5" y="-320.3" font-family="Times,serif" font-size="14.00" fill="#000000">三井住友VISAカード</text>
</g>
<!-- 三井住友銀行&#45;&gt;三井住友VISAカード -->
<g id="edge11" class="edge">
<title>三井住友銀行&#45;&gt;三井住友VISAカード</title>
<path fill="none" stroke="#000000" stroke-width="2" d="M507.2737,-380.5264C474.7625,-370.0712 432.3779,-356.4409 397.3751,-345.1845"/>
<polygon fill="#000000" stroke="#000000" stroke-width="2" points="398.304,-341.8067 387.7126,-342.0772 396.1609,-348.4706 398.304,-341.8067"/>
</g>
<!-- 現金 -->
<g id="node16" class="node">
<title>現金</title>
<polygon fill="none" stroke="#000000" points="752.5,-269 698.5,-269 698.5,-233 752.5,-233 752.5,-269"/>
<text text-anchor="middle" x="725.5" y="-247.3" font-family="Times,serif" font-size="14.00" fill="#000000">現金</text>
</g>
<!-- 三井住友銀行&#45;&gt;現金 -->
<g id="edge8" class="edge">
<title>三井住友銀行&#45;&gt;現金</title>
<path fill="none" stroke="#000000" stroke-width="2" d="M579.313,-378.8042C609.0204,-352.8324 663.6754,-305.0502 697.0857,-275.8413"/>
<polygon fill="#000000" stroke="#000000" stroke-width="2" points="699.4627,-278.4121 704.6877,-269.1952 694.8554,-273.1421 699.4627,-278.4121"/>
</g>
<!-- 関西電力 -->
<g id="node42" class="node">
<title>関西電力</title>
<polygon fill="none" stroke="#000000" points="546.5,-36 472.5,-36 472.5,0 546.5,0 546.5,-36"/>
<text text-anchor="middle" x="509.5" y="-14.3" font-family="Times,serif" font-size="14.00" fill="#000000">関西電力</text>
</g>
<!-- 三井住友銀行&#45;&gt;関西電力 -->
<g id="edge10" class="edge">
<title>三井住友銀行&#45;&gt;関西電力</title>
<path fill="none" stroke="#000000" stroke-width="2" d="M538.5678,-378.908C525.7579,-365.24 511.5,-345.2532 511.5,-324 511.5,-324 511.5,-324 511.5,-91 511.5,-76.2941 511.0894,-59.928 510.6403,-46.4252"/>
<polygon fill="#000000" stroke="#000000" stroke-width="2" points="514.1334,-46.1654 510.279,-36.2965 507.1378,-46.415 514.1334,-46.1654"/>
</g>
<!-- ビックカメラSuicaカード -->
<g id="node12" class="node">
<title>ビックカメラSuicaカード</title>
<polygon fill="none" stroke="#000000" points="1497,-342 1312,-342 1312,-306 1497,-306 1497,-342"/>
<text text-anchor="middle" x="1404.5" y="-320.3" font-family="Times,serif" font-size="14.00" fill="#000000">ビックカメラSuicaカード</text>
</g>
<!-- 住信SBI銀行&#45;&gt;ビックカメラSuicaカード -->
<g id="edge32" class="edge">
<title>住信SBI銀行&#45;&gt;ビックカメラSuicaカード</title>
<path fill="none" stroke="#000000" stroke-width="2" d="M1404.5,-378.9551C1404.5,-370.8828 1404.5,-361.1764 1404.5,-352.1817"/>
<polygon fill="#000000" stroke="#000000" stroke-width="2" points="1408.0001,-352.0903 1404.5,-342.0904 1401.0001,-352.0904 1408.0001,-352.0903"/>
</g>
<!-- リクルートカード -->
<g id="node13" class="node">
<title>リクルートカード</title>
<polygon fill="none" stroke="#000000" points="2602,-342 2471,-342 2471,-306 2602,-306 2602,-342"/>
<text text-anchor="middle" x="2536.5" y="-320.3" font-family="Times,serif" font-size="14.00" fill="#000000">リクルートカード</text>
</g>
<!-- 住信SBI銀行&#45;&gt;リクルートカード -->
<g id="edge33" class="edge">
<title>住信SBI銀行&#45;&gt;リクルートカード</title>
<path fill="none" stroke="#000000" stroke-width="2" d="M1454.6013,-393.7691C1634.0475,-382.197 2245.4046,-342.7721 2460.7155,-328.8872"/>
<polygon fill="#000000" stroke="#000000" stroke-width="2" points="2461.2178,-332.3621 2470.9718,-328.2258 2460.7672,-325.3766 2461.2178,-332.3621"/>
</g>
<!-- 住信SBI銀行&#45;&gt;現金 -->
<g id="edge30" class="edge">
<title>住信SBI銀行&#45;&gt;現金</title>
<path fill="none" stroke="#000000" stroke-width="2" d="M1354.2958,-386.205C1223.9837,-358.185 877.1483,-283.6077 762.7116,-259.0013"/>
<polygon fill="#000000" stroke="#000000" stroke-width="2" points="763.1994,-255.5263 752.6871,-256.8458 761.7279,-262.3699 763.1994,-255.5263"/>
</g>
<!-- 家賃 -->
<g id="node32" class="node">
<title>家賃</title>
<polygon fill="none" stroke="#000000" points="3154.5,-36 3100.5,-36 3100.5,0 3154.5,0 3154.5,-36"/>
<text text-anchor="middle" x="3127.5" y="-14.3" font-family="Times,serif" font-size="14.00" fill="#000000">家賃</text>
</g>
<!-- 住信SBI銀行&#45;&gt;家賃 -->
<g id="edge31" class="edge">
<title>住信SBI銀行&#45;&gt;家賃</title>
<path fill="none" stroke="#000000" stroke-width="2" d="M1454.6694,-396.2184C1738.223,-391.6403 3127.5,-367.0154 3127.5,-324 3127.5,-324 3127.5,-324 3127.5,-91 3127.5,-76.2996 3127.5,-59.934 3127.5,-46.4302"/>
<polygon fill="#000000" stroke="#000000" stroke-width="2" points="3131.0001,-46.3003 3127.5,-36.3003 3124.0001,-46.3004 3131.0001,-46.3003"/>
</g>
<!-- PiTaPa -->
<g id="node15" class="node">
<title>PiTaPa</title>
<polygon fill="none" stroke="#000000" points="286,-269 221,-269 221,-233 286,-233 286,-269"/>
<text text-anchor="middle" x="253.5" y="-247.3" font-family="Times,serif" font-size="14.00" fill="#000000">PiTaPa</text>
</g>
<!-- 三井住友VISAカード&#45;&gt;PiTaPa -->
<g id="edge13" class="edge">
<title>三井住友VISAカード&#45;&gt;PiTaPa</title>
<path fill="none" stroke="#000000" stroke-width="2" d="M312.2191,-305.9551C302.5627,-296.9177 290.7176,-285.8319 280.2016,-275.9899"/>
<polygon fill="#000000" stroke="#000000" stroke-width="2" points="282.5223,-273.3681 272.8294,-269.0904 277.739,-278.479 282.5223,-273.3681"/>
</g>
<!-- iD -->
<g id="node17" class="node">
<title>iD</title>
<polygon fill="none" stroke="#000000" points="358.5,-269 304.5,-269 304.5,-233 358.5,-233 358.5,-269"/>
<text text-anchor="middle" x="331.5" y="-247.3" font-family="Times,serif" font-size="14.00" fill="#000000">iD</text>
</g>
<!-- 三井住友VISAカード&#45;&gt;iD -->
<g id="edge17" class="edge">
<title>三井住友VISAカード&#45;&gt;iD</title>
<path fill="none" stroke="#000000" stroke-width="2" stroke-dasharray="5,2" d="M331.5,-305.9551C331.5,-297.8828 331.5,-288.1764 331.5,-279.1817"/>
<polygon fill="#000000" stroke="#000000" stroke-width="2" points="335.0001,-279.0903 331.5,-269.0904 328.0001,-279.0904 335.0001,-279.0903"/>
</g>
<!-- ワールドプレゼントポイント -->
<g id="node22" class="node">
<title>ワールドプレゼントポイント</title>
<polygon fill="none" stroke="#000000" points="483.5,-182 281.5,-182 281.5,-146 483.5,-146 483.5,-182"/>
<text text-anchor="middle" x="382.5" y="-160.3" font-family="Times,serif" font-size="14.00" fill="#000000">ワールドプレゼントポイント</text>
</g>
<!-- 三井住友VISAカード&#45;&gt;ワールドプレゼントポイント -->
<g id="edge12" class="edge">
<title>三井住友VISAカード&#45;&gt;ワールドプレゼントポイント</title>
<path fill="none" stroke="#000000" stroke-dasharray="5,2" d="M346.3596,-305.772C353.9029,-295.5582 362.5052,-282.2404 367.5,-269 376.8965,-244.0912 380.4638,-213.8284 381.7891,-192.2031"/>
<polygon fill="#000000" stroke="#000000" points="385.2929,-192.2087 382.2861,-182.0495 378.3013,-191.8664 385.2929,-192.2087"/>
<text text-anchor="middle" x="396" y="-247.3" font-family="Times,serif" font-size="14.00" fill="#000000">0.5%</text>
</g>
<!-- Suica -->
<g id="node14" class="node">
<title>Suica</title>
<polygon fill="none" stroke="#000000" points="1202.5,-269 1146.5,-269 1146.5,-233 1202.5,-233 1202.5,-269"/>
<text text-anchor="middle" x="1174.5" y="-247.3" font-family="Times,serif" font-size="14.00" fill="#000000">Suica</text>
</g>
<!-- ビックカメラSuicaカード&#45;&gt;Suica -->
<g id="edge23" class="edge">
<title>ビックカメラSuicaカード&#45;&gt;Suica</title>
<path fill="none" stroke="#000000" stroke-width="2" d="M1347.6461,-305.9551C1305.5743,-292.6019 1249.4128,-274.7767 1212.621,-263.0993"/>
<polygon fill="#000000" stroke="#000000" stroke-width="2" points="1213.3756,-259.6668 1202.7853,-259.9775 1211.2579,-266.3388 1213.3756,-259.6668"/>
</g>
<!-- ビューサンクスポイント -->
<g id="node23" class="node">
<title>ビューサンクスポイント</title>
<polygon fill="none" stroke="#000000" points="1376,-182 1203,-182 1203,-146 1376,-146 1376,-182"/>
<text text-anchor="middle" x="1289.5" y="-160.3" font-family="Times,serif" font-size="14.00" fill="#000000">ビューサンクスポイント</text>
</g>
<!-- ビックカメラSuicaカード&#45;&gt;ビューサンクスポイント -->
<g id="edge18" class="edge">
<title>ビックカメラSuicaカード&#45;&gt;ビューサンクスポイント</title>
<path fill="none" stroke="#000000" d="M1386.0593,-305.9794C1375.9068,-295.6145 1363.3975,-282.0863 1353.5,-269 1334.5418,-243.9337 1316.2234,-212.974 1304.0784,-191.1881"/>
<polygon fill="#000000" stroke="#000000" points="1307.0004,-189.2385 1299.1101,-182.1679 1300.8689,-192.6157 1307.0004,-189.2385"/>
<text text-anchor="middle" x="1372" y="-247.3" font-family="Times,serif" font-size="14.00" fill="#000000">0.5%</text>
</g>
<!-- ビックポイント -->
<g id="node25" class="node">
<title>ビックポイント</title>
<polygon fill="none" stroke="#000000" points="1586.5,-182 1470.5,-182 1470.5,-146 1586.5,-146 1586.5,-182"/>
<text text-anchor="middle" x="1528.5" y="-160.3" font-family="Times,serif" font-size="14.00" fill="#000000">ビックポイント</text>
</g>
<!-- ビックカメラSuicaカード&#45;&gt;ビックポイント -->
<g id="edge21" class="edge">
<title>ビックカメラSuicaカード&#45;&gt;ビックポイント</title>
<path fill="none" stroke="#000000" d="M1418.4833,-305.957C1440.3449,-277.7485 1482.729,-223.0594 1508.0306,-190.4121"/>
<polygon fill="#000000" stroke="#000000" points="1511.0182,-192.2707 1514.3775,-182.2226 1505.4853,-187.9827 1511.0182,-192.2707"/>
<text text-anchor="middle" x="1493" y="-247.3" font-family="Times,serif" font-size="14.00" fill="#000000">0.5%</text>
</g>
<!-- ビックカメラ -->
<g id="node45" class="node">
<title>ビックカメラ</title>
<polygon fill="none" stroke="#000000" points="1455.5,-36 1353.5,-36 1353.5,0 1455.5,0 1455.5,-36"/>
<text text-anchor="middle" x="1404.5" y="-14.3" font-family="Times,serif" font-size="14.00" fill="#000000">ビックカメラ</text>
</g>
<!-- ビックカメラSuicaカード&#45;&gt;ビックカメラ -->
<g id="edge19" class="edge">
<title>ビックカメラSuicaカード&#45;&gt;ビックカメラ</title>
<path fill="none" stroke="#000000" stroke-width="2" stroke-dasharray="5,2" d="M1404.5,-305.6997C1404.5,-290.9349 1404.5,-269.6302 1404.5,-251 1404.5,-251 1404.5,-251 1404.5,-91 1404.5,-76.2996 1404.5,-59.934 1404.5,-46.4302"/>
<polygon fill="#000000" stroke="#000000" stroke-width="2" points="1408.0001,-46.3003 1404.5,-36.3003 1401.0001,-46.3004 1408.0001,-46.3003"/>
</g>
<!-- EX予約 -->
<g id="node55" class="node">
<title>EX予約</title>
<polygon fill="none" stroke="#000000" points="1620.5,-36 1554.5,-36 1554.5,0 1620.5,0 1620.5,-36"/>
<text text-anchor="middle" x="1587.5" y="-14.3" font-family="Times,serif" font-size="14.00" fill="#000000">EX予約</text>
</g>
<!-- ビックカメラSuicaカード&#45;&gt;EX予約 -->
<g id="edge26" class="edge">
<title>ビックカメラSuicaカード&#45;&gt;EX予約</title>
<path fill="none" stroke="#000000" stroke-width="2" stroke-dasharray="5,2" d="M1497.1987,-314.0801C1567.6395,-303.8742 1652.5,-284.6055 1652.5,-251 1652.5,-251 1652.5,-251 1652.5,-127.5 1652.5,-95.3509 1631.5254,-64.3926 1613.4057,-43.6462"/>
<polygon fill="#000000" stroke="#000000" stroke-width="2" points="1615.9665,-41.26 1606.6506,-36.2138 1610.7864,-45.9681 1615.9665,-41.26"/>
</g>
<!-- nanaco -->
<g id="node18" class="node">
<title>nanaco</title>
<polygon fill="none" stroke="#000000" points="2968.5,-269 2900.5,-269 2900.5,-233 2968.5,-233 2968.5,-269"/>
<text text-anchor="middle" x="2934.5" y="-247.3" font-family="Times,serif" font-size="14.00" fill="#000000">nanaco</text>
</g>
<!-- リクルートカード&#45;&gt;nanaco -->
<g id="edge57" class="edge">
<title>リクルートカード&#45;&gt;nanaco</title>
<path fill="none" stroke="#000000" stroke-width="2" d="M2602.314,-319.1697C2681.7018,-312.894 2810.2599,-301.1703 2856.5,-288 2868.8978,-284.4688 2881.7692,-279.134 2893.3967,-273.6061"/>
<polygon fill="#000000" stroke="#000000" stroke-width="2" points="2894.9968,-276.7195 2902.4222,-269.1621 2891.9046,-270.4395 2894.9968,-276.7195"/>
</g>
<!-- Edy -->
<g id="node19" class="node">
<title>Edy</title>
<polygon fill="none" stroke="#000000" points="2147.5,-269 2093.5,-269 2093.5,-233 2147.5,-233 2147.5,-269"/>
<text text-anchor="middle" x="2120.5" y="-247.3" font-family="Times,serif" font-size="14.00" fill="#000000">Edy</text>
</g>
<!-- リクルートカード&#45;&gt;Edy -->
<g id="edge41" class="edge">
<title>リクルートカード&#45;&gt;Edy</title>
<path fill="none" stroke="#000000" stroke-width="2" d="M2470.5836,-312.4329C2382.3275,-296.9457 2228.6977,-269.9866 2158.0287,-257.5856"/>
<polygon fill="#000000" stroke="#000000" stroke-width="2" points="2158.2758,-254.0755 2147.8213,-255.7944 2157.0658,-260.9702 2158.2758,-254.0755"/>
</g>
<!-- Ponta -->
<g id="node20" class="node">
<title>Ponta</title>
<polygon fill="none" stroke="#000000" points="2470,-182 2413,-182 2413,-146 2470,-146 2470,-182"/>
<text text-anchor="middle" x="2441.5" y="-160.3" font-family="Times,serif" font-size="14.00" fill="#000000">Ponta</text>
</g>
<!-- リクルートカード&#45;&gt;Ponta -->
<g id="edge52" class="edge">
<title>リクルートカード&#45;&gt;Ponta</title>
<path fill="none" stroke="#000000" d="M2489.3873,-305.7701C2473.3505,-297.1165 2457.0734,-285.0737 2447.5,-269 2433.7698,-245.947 2433.8258,-214.7612 2436.3647,-192.376"/>
<polygon fill="#000000" stroke="#000000" points="2439.8734,-192.5502 2437.761,-182.1681 2432.938,-191.6014 2439.8734,-192.5502"/>
<text text-anchor="middle" x="2466" y="-247.3" font-family="Times,serif" font-size="14.00" fill="#000000">1.2%</text>
</g>
<!-- NHK -->
<g id="node39" class="node">
<title>NHK</title>
<polygon fill="none" stroke="#000000" points="2550.5,-36 2496.5,-36 2496.5,0 2550.5,0 2550.5,-36"/>
<text text-anchor="middle" x="2523.5" y="-14.3" font-family="Times,serif" font-size="14.00" fill="#000000">NHK</text>
</g>
<!-- リクルートカード&#45;&gt;NHK -->
<g id="edge34" class="edge">
<title>リクルートカード&#45;&gt;NHK</title>
<path fill="none" stroke="#000000" stroke-width="2" d="M2536.5,-305.6997C2536.5,-290.9349 2536.5,-269.6302 2536.5,-251 2536.5,-251 2536.5,-251 2536.5,-91 2536.5,-76.0683 2533.8312,-59.6811 2530.912,-46.2226"/>
<polygon fill="#000000" stroke="#000000" stroke-width="2" points="2534.241,-45.086 2528.5634,-36.1409 2527.4235,-46.6743 2534.241,-45.086"/>
</g>
<!-- NTT -->
<g id="node40" class="node">
<title>NTT</title>
<polygon fill="none" stroke="#000000" points="2622.5,-36 2568.5,-36 2568.5,0 2622.5,0 2622.5,-36"/>
<text text-anchor="middle" x="2595.5" y="-14.3" font-family="Times,serif" font-size="14.00" fill="#000000">NTT</text>
</g>
<!-- リクルートカード&#45;&gt;NTT -->
<g id="edge35" class="edge">
<title>リクルートカード&#45;&gt;NTT</title>
<path fill="none" stroke="#000000" stroke-width="2" d="M2562.8938,-305.815C2578.6029,-292.6616 2595.5,-273.3247 2595.5,-251 2595.5,-251 2595.5,-251 2595.5,-91 2595.5,-76.2996 2595.5,-59.934 2595.5,-46.4302"/>
<polygon fill="#000000" stroke="#000000" stroke-width="2" points="2599.0001,-46.3003 2595.5,-36.3003 2592.0001,-46.3004 2599.0001,-46.3003"/>
</g>
<!-- ASAHIネット -->
<g id="node41" class="node">
<title>ASAHIネット</title>
<polygon fill="none" stroke="#000000" points="2750,-36 2641,-36 2641,0 2750,0 2750,-36"/>
<text text-anchor="middle" x="2695.5" y="-14.3" font-family="Times,serif" font-size="14.00" fill="#000000">ASAHIネット</text>
</g>
<!-- リクルートカード&#45;&gt;ASAHIネット -->
<g id="edge36" class="edge">
<title>リクルートカード&#45;&gt;ASAHIネット</title>
<path fill="none" stroke="#000000" stroke-width="2" d="M2602.0894,-306.5811C2645.8877,-292.9507 2695.5,-272.7178 2695.5,-251 2695.5,-251 2695.5,-251 2695.5,-91 2695.5,-76.2996 2695.5,-59.934 2695.5,-46.4302"/>
<polygon fill="#000000" stroke="#000000" stroke-width="2" points="2699.0001,-46.3003 2695.5,-36.3003 2692.0001,-46.3004 2699.0001,-46.3003"/>
</g>
<!-- アイハート -->
<g id="node43" class="node">
<title>アイハート</title>
<polygon fill="none" stroke="#000000" points="2856.5,-36 2768.5,-36 2768.5,0 2856.5,0 2856.5,-36"/>
<text text-anchor="middle" x="2812.5" y="-14.3" font-family="Times,serif" font-size="14.00" fill="#000000">アイハート</text>
</g>
<!-- リクルートカード&#45;&gt;アイハート -->
<g id="edge40" class="edge">
<title>リクルートカード&#45;&gt;アイハート</title>
<path fill="none" stroke="#000000" stroke-width="2" d="M2602.0602,-319.176C2681.4012,-311.4936 2804.5,-292.8334 2804.5,-251 2804.5,-251 2804.5,-251 2804.5,-91 2804.5,-76.2116 2806.1424,-59.8378 2807.9388,-46.3512"/>
<polygon fill="#000000" stroke="#000000" stroke-width="2" points="2811.4338,-46.6343 2809.3841,-36.2397 2804.5042,-45.6438 2811.4338,-46.6343"/>
</g>
<!-- Amazon -->
<g id="node53" class="node">
<title>Amazon</title>
<polygon fill="none" stroke="#000000" points="2294.5,-36 2220.5,-36 2220.5,0 2294.5,0 2294.5,-36"/>
<text text-anchor="middle" x="2257.5" y="-14.3" font-family="Times,serif" font-size="14.00" fill="#000000">Amazon</text>
</g>
<!-- リクルートカード&#45;&gt;Amazon -->
<g id="edge38" class="edge">
<title>リクルートカード&#45;&gt;Amazon</title>
<path fill="none" stroke="#000000" stroke-width="2" d="M2486.2314,-305.9959C2467.1779,-297.1945 2446.4881,-284.9899 2431.5,-269 2389.0724,-223.7365 2399.16,-198.1142 2365.5,-146 2340.874,-107.8728 2306.1225,-68.649 2282.7512,-43.8432"/>
<polygon fill="#000000" stroke="#000000" stroke-width="2" points="2285.0186,-41.1486 2275.5903,-36.3157 2279.9469,-45.9733 2285.0186,-41.1486"/>
</g>
<!-- iTunes -->
<g id="node54" class="node">
<title>iTunes</title>
<polygon fill="none" stroke="#000000" points="2940,-36 2875,-36 2875,0 2940,0 2940,-36"/>
<text text-anchor="middle" x="2907.5" y="-14.3" font-family="Times,serif" font-size="14.00" fill="#000000">iTunes</text>
</g>
<!-- リクルートカード&#45;&gt;iTunes -->
<g id="edge37" class="edge">
<title>リクルートカード&#45;&gt;iTunes</title>
<path fill="none" stroke="#000000" stroke-width="2" stroke-dasharray="5,2" d="M2602.1447,-321.4712C2692.0575,-316.1856 2842.5,-300.0177 2842.5,-251 2842.5,-251 2842.5,-251 2842.5,-91 2842.5,-71.6706 2855.3685,-55.09 2869.654,-42.6388"/>
<polygon fill="#000000" stroke="#000000" stroke-width="2" points="2872.093,-45.1674 2877.6634,-36.155 2867.6887,-39.7266 2872.093,-45.1674"/>
</g>
<!-- じゃらん -->
<g id="node56" class="node">
<title>じゃらん</title>
<polygon fill="none" stroke="#000000" points="2478.5,-36 2404.5,-36 2404.5,0 2478.5,0 2478.5,-36"/>
<text text-anchor="middle" x="2441.5" y="-14.3" font-family="Times,serif" font-size="14.00" fill="#000000">じゃらん</text>
</g>
<!-- リクルートカード&#45;&gt;じゃらん -->
<g id="edge39" class="edge">
<title>リクルートカード&#45;&gt;じゃらん</title>
<path fill="none" stroke="#000000" stroke-width="2" d="M2520.8246,-305.8293C2510.357,-291.8153 2498.5,-271.4317 2498.5,-251 2498.5,-251 2498.5,-251 2498.5,-91 2498.5,-72.4509 2486.9255,-55.7956 2474.208,-43.094"/>
<polygon fill="#000000" stroke="#000000" stroke-width="2" points="2476.3754,-40.3302 2466.667,-36.0879 2471.6109,-45.4585 2476.3754,-40.3302"/>
</g>
<!-- Suica&#45;&gt;ビューサンクスポイント -->
<g id="edge29" class="edge">
<title>Suica&#45;&gt;ビューサンクスポイント</title>
<path fill="none" stroke="#000000" d="M1198.3281,-232.9735C1215.5207,-219.9669 1238.9145,-202.269 1257.7003,-188.0571"/>
<polygon fill="#000000" stroke="#000000" points="1259.8391,-190.8279 1265.7025,-182.0034 1255.6158,-185.2454 1259.8391,-190.8279"/>
<text text-anchor="middle" x="1250" y="-203.8" font-family="Times,serif" font-size="14.00" fill="#000000">1%</text>
</g>
<!-- JREポイント -->
<g id="node24" class="node">
<title>JREポイント</title>
<polygon fill="none" stroke="#000000" points="940,-182 839,-182 839,-146 940,-146 940,-182"/>
<text text-anchor="middle" x="889.5" y="-160.3" font-family="Times,serif" font-size="14.00" fill="#000000">JREポイント</text>
</g>
<!-- Suica&#45;&gt;JREポイント -->
<g id="edge27" class="edge">
<title>Suica&#45;&gt;JREポイント</title>
<path fill="none" stroke="#000000" d="M1146.3931,-242.42C1100.9646,-228.5524 1010.3908,-200.9035 949.8539,-182.4238"/>
<polygon fill="#000000" stroke="#000000" points="950.622,-178.9989 940.0358,-179.4267 948.5782,-185.6939 950.622,-178.9989"/>
<text text-anchor="middle" x="1067" y="-203.8" font-family="Times,serif" font-size="14.00" fill="#000000">0.5%</text>
</g>
<!-- 電車 -->
<g id="node36" class="node">
<title>電車</title>
<polygon fill="none" stroke="#000000" points="820.5,-36 766.5,-36 766.5,0 820.5,0 820.5,-36"/>
<text text-anchor="middle" x="793.5" y="-14.3" font-family="Times,serif" font-size="14.00" fill="#000000">電車</text>
</g>
<!-- Suica&#45;&gt;電車 -->
<g id="edge24" class="edge">
<title>Suica&#45;&gt;電車</title>
<path fill="none" stroke="#000000" stroke-width="2" d="M1146.3715,-249.3271C1072.3277,-244.3307 874.679,-226.9747 830.5,-182 794.9102,-145.7692 790.6072,-83.0257 791.5021,-46.548"/>
<polygon fill="#000000" stroke="#000000" stroke-width="2" points="795.0163,-46.2606 791.9178,-36.129 788.0218,-45.9815 795.0163,-46.2606"/>
</g>
<!-- 松屋 -->
<g id="node51" class="node">
<title>松屋</title>
<polygon fill="none" stroke="#000000" points="1201.5,-36 1147.5,-36 1147.5,0 1201.5,0 1201.5,-36"/>
<text text-anchor="middle" x="1174.5" y="-14.3" font-family="Times,serif" font-size="14.00" fill="#000000">松屋</text>
</g>
<!-- Suica&#45;&gt;松屋 -->
<g id="edge25" class="edge">
<title>Suica&#45;&gt;松屋</title>
<path fill="none" stroke="#000000" stroke-width="2" d="M1174.5,-232.7169C1174.5,-192.2236 1174.5,-94.7396 1174.5,-46.301"/>
<polygon fill="#000000" stroke="#000000" stroke-width="2" points="1178.0001,-46.1982 1174.5,-36.1982 1171.0001,-46.1982 1178.0001,-46.1982"/>
</g>
<!-- 大阪地下鉄 -->
<g id="node37" class="node">
<title>大阪地下鉄</title>
<polygon fill="none" stroke="#000000" points="198.5,-36 110.5,-36 110.5,0 198.5,0 198.5,-36"/>
<text text-anchor="middle" x="154.5" y="-14.3" font-family="Times,serif" font-size="14.00" fill="#000000">大阪地下鉄</text>
</g>
<!-- PiTaPa&#45;&gt;大阪地下鉄 -->
<g id="edge14" class="edge">
<title>PiTaPa&#45;&gt;大阪地下鉄</title>
<path fill="none" stroke="#000000" stroke-width="2" d="M245.7316,-232.7169C228.454,-192.0534 186.7576,-93.9194 166.2666,-45.693"/>
<polygon fill="#000000" stroke="#000000" stroke-width="2" points="169.3642,-44.0331 162.2323,-36.1982 162.9216,-46.7706 169.3642,-44.0331"/>
</g>
<!-- 山陽バス -->
<g id="node38" class="node">
<title>山陽バス</title>
<polygon fill="none" stroke="#000000" points="290.5,-36 216.5,-36 216.5,0 290.5,0 290.5,-36"/>
<text text-anchor="middle" x="253.5" y="-14.3" font-family="Times,serif" font-size="14.00" fill="#000000">山陽バス</text>
</g>
<!-- PiTaPa&#45;&gt;山陽バス -->
<g id="edge16" class="edge">
<title>PiTaPa&#45;&gt;山陽バス</title>
<path fill="none" stroke="#000000" stroke-width="2" stroke-dasharray="5,2" d="M253.5,-232.7169C253.5,-192.2236 253.5,-94.7396 253.5,-46.301"/>
<polygon fill="#000000" stroke="#000000" stroke-width="2" points="257.0001,-46.1982 253.5,-36.1982 250.0001,-46.1982 257.0001,-46.1982"/>
</g>
<!-- 切符 -->
<g id="node30" class="node">
<title>切符</title>
<polygon fill="none" stroke="#000000" points="782.5,-109 728.5,-109 728.5,-73 782.5,-73 782.5,-109"/>
<text text-anchor="middle" x="755.5" y="-87.3" font-family="Times,serif" font-size="14.00" fill="#000000">切符</text>
</g>
<!-- 現金&#45;&gt;切符 -->
<g id="edge71" class="edge">
<title>現金&#45;&gt;切符</title>
<path fill="none" stroke="#000000" stroke-width="2" d="M724.4197,-232.957C726.873,-205.2286 736.5966,-151.9135 744.9494,-119.0982"/>
<polygon fill="#000000" stroke="#000000" stroke-width="2" points="748.388,-119.7882 747.6022,-109.2226 741.6277,-117.9722 748.388,-119.7882"/>
</g>
<!-- ぐるなびギフト券 -->
<g id="node31" class="node">
<title>ぐるなびギフト券</title>
<polygon fill="none" stroke="#000000" points="672,-109 541,-109 541,-73 672,-73 672,-109"/>
<text text-anchor="middle" x="606.5" y="-87.3" font-family="Times,serif" font-size="14.00" fill="#000000">ぐるなびギフト券</text>
</g>
<!-- 現金&#45;&gt;ぐるなびギフト券 -->
<g id="edge65" class="edge">
<title>現金&#45;&gt;ぐるなびギフト券</title>
<path fill="none" stroke="#000000" stroke-width="2" d="M698.2765,-235.4006C690.9689,-229.3699 683.5489,-222.1936 677.5,-215 651.622,-184.2248 627.4051,-144.5772 614.6132,-118.5036"/>
<polygon fill="#000000" stroke="#000000" stroke-width="2" points="617.6852,-116.8094 610.2903,-109.2221 611.3397,-119.7649 617.6852,-116.8094"/>
</g>
<!-- 飲食店 -->
<g id="node48" class="node">
<title>飲食店</title>
<polygon fill="none" stroke="#000000" points="730,-36 671,-36 671,0 730,0 730,-36"/>
<text text-anchor="middle" x="700.5" y="-14.3" font-family="Times,serif" font-size="14.00" fill="#000000">飲食店</text>
</g>
<!-- 現金&#45;&gt;飲食店 -->
<g id="edge68" class="edge">
<title>現金&#45;&gt;飲食店</title>
<path fill="none" stroke="#000000" stroke-width="2" d="M723.5383,-232.7169C719.1935,-192.2236 708.7339,-94.7396 703.5366,-46.301"/>
<polygon fill="#000000" stroke="#000000" stroke-width="2" points="706.9995,-45.7677 702.4526,-36.1982 700.0395,-46.5145 706.9995,-45.7677"/>
</g>
<!-- 吉野家 -->
<g id="node52" class="node">
<title>吉野家</title>
<polygon fill="none" stroke="#000000" points="1698,-36 1639,-36 1639,0 1698,0 1698,-36"/>
<text text-anchor="middle" x="1668.5" y="-14.3" font-family="Times,serif" font-size="14.00" fill="#000000">吉野家</text>
</g>
<!-- 現金&#45;&gt;吉野家 -->
<g id="edge69" class="edge">
<title>現金&#45;&gt;吉野家</title>
<path fill="none" stroke="#000000" stroke-width="2" d="M752.7168,-249.6361C896.2948,-242.3417 1560.4637,-207.3228 1595.5,-182 1639.9846,-149.8484 1657.8119,-84.317 1664.6063,-46.5497"/>
<polygon fill="#000000" stroke="#000000" stroke-width="2" points="1668.1333,-46.6727 1666.3108,-36.2358 1661.227,-45.5312 1668.1333,-46.6727"/>
</g>
<!-- nanacoポイント -->
<g id="node27" class="node">
<title>nanacoポイント</title>
<polygon fill="none" stroke="#000000" points="2996,-182 2871,-182 2871,-146 2996,-146 2996,-182"/>
<text text-anchor="middle" x="2933.5" y="-160.3" font-family="Times,serif" font-size="14.00" fill="#000000">nanacoポイント</text>
</g>
<!-- nanaco&#45;&gt;nanacoポイント -->
<g id="edge59" class="edge">
<title>nanaco&#45;&gt;nanacoポイント</title>
<path fill="none" stroke="#000000" d="M2934.2928,-232.9735C2934.1574,-221.1918 2933.9777,-205.5607 2933.8237,-192.1581"/>
<polygon fill="#000000" stroke="#000000" points="2937.3217,-191.9624 2933.7069,-182.0034 2930.3222,-192.043 2937.3217,-191.9624"/>
<text text-anchor="middle" x="2945" y="-203.8" font-family="Times,serif" font-size="14.00" fill="#000000">1%</text>
</g>
<!-- セブンイレブン -->
<g id="node34" class="node">
<title>セブンイレブン</title>
<polygon fill="none" stroke="#000000" points="3082.5,-36 2966.5,-36 2966.5,0 3082.5,0 3082.5,-36"/>
<text text-anchor="middle" x="3024.5" y="-14.3" font-family="Times,serif" font-size="14.00" fill="#000000">セブンイレブン</text>
</g>
<!-- nanaco&#45;&gt;セブンイレブン -->
<g id="edge58" class="edge">
<title>nanaco&#45;&gt;セブンイレブン</title>
<path fill="none" stroke="#000000" stroke-width="2" d="M2960.9277,-232.7243C2976.6328,-220.3323 2995.4021,-202.5094 3005.5,-182 3026.9778,-138.3772 3028.3339,-80.5533 3026.8047,-46.5048"/>
<polygon fill="#000000" stroke="#000000" stroke-width="2" points="3030.2886,-46.1197 3026.2287,-36.3337 3023.2998,-46.5156 3030.2886,-46.1197"/>
</g>
<!-- Edy&#45;&gt;Ponta -->
<g id="edge51" class="edge">
<title>Edy&#45;&gt;Ponta</title>
<path fill="none" stroke="#000000" d="M2147.5916,-243.6574C2204.551,-228.2198 2336.88,-192.3549 2402.7763,-174.4952"/>
<polygon fill="#000000" stroke="#000000" points="2404.024,-177.7834 2412.7602,-171.7893 2402.1928,-171.0271 2404.024,-177.7834"/>
<text text-anchor="middle" x="2318" y="-203.8" font-family="Times,serif" font-size="14.00" fill="#000000">0.5%</text>
</g>
<!-- ローソン -->
<g id="node33" class="node">
<title>ローソン</title>
<polygon fill="none" stroke="#000000" points="2386.5,-36 2312.5,-36 2312.5,0 2386.5,0 2386.5,-36"/>
<text text-anchor="middle" x="2349.5" y="-14.3" font-family="Times,serif" font-size="14.00" fill="#000000">ローソン</text>
</g>
<!-- Edy&#45;&gt;ローソン -->
<g id="edge42" class="edge">
<title>Edy&#45;&gt;ローソン</title>
<path fill="none" stroke="#000000" stroke-width="2" d="M2136.4649,-232.842C2155.2435,-211.6487 2187.536,-175.7149 2216.5,-146 2252.1281,-109.4482 2294.9071,-68.8305 2322.147,-43.3556"/>
<polygon fill="#000000" stroke="#000000" stroke-width="2" points="2324.8141,-45.654 2329.7376,-36.2726 2320.0384,-40.536 2324.8141,-45.654"/>
</g>
<!-- ファミリーマート -->
<g id="node35" class="node">
<title>ファミリーマート</title>
<polygon fill="none" stroke="#000000" points="1847,-36 1716,-36 1716,0 1847,0 1847,-36"/>
<text text-anchor="middle" x="1781.5" y="-14.3" font-family="Times,serif" font-size="14.00" fill="#000000">ファミリーマート</text>
</g>
<!-- Edy&#45;&gt;ファミリーマート -->
<g id="edge44" class="edge">
<title>Edy&#45;&gt;ファミリーマート</title>
<path fill="none" stroke="#000000" stroke-width="2" d="M2093.2541,-248.5739C2018.932,-241.5284 1814.5666,-219.175 1759.5,-182 1715.775,-152.4816 1689.6046,-120.529 1712.5,-73 1718.3806,-60.7923 1728.435,-50.4545 1739.0769,-42.1518"/>
<polygon fill="#000000" stroke="#000000" stroke-width="2" points="1741.2349,-44.9102 1747.2699,-36.2021 1737.1217,-39.2461 1741.2349,-44.9102"/>
</g>
<!-- ウェルシア -->
<g id="node44" class="node">
<title>ウェルシア</title>
<polygon fill="none" stroke="#000000" points="1977.5,-36 1889.5,-36 1889.5,0 1977.5,0 1977.5,-36"/>
<text text-anchor="middle" x="1933.5" y="-14.3" font-family="Times,serif" font-size="14.00" fill="#000000">ウェルシア</text>
</g>
<!-- Edy&#45;&gt;ウェルシア -->
<g id="edge49" class="edge">
<title>Edy&#45;&gt;ウェルシア</title>
<path fill="none" stroke="#000000" stroke-width="2" d="M2093.4455,-248.8857C2053.9578,-244.2147 1981.4463,-229.3124 1946.5,-182 1917.2041,-142.3375 1921.509,-81.5853 1927.4188,-46.2261"/>
<polygon fill="#000000" stroke="#000000" stroke-width="2" points="1930.911,-46.5861 1929.2689,-36.1192 1924.0254,-45.3255 1930.911,-46.5861"/>
</g>
<!-- ヨドバシカメラ -->
<g id="node46" class="node">
<title>ヨドバシカメラ</title>
<polygon fill="none" stroke="#000000" points="1129.5,-36 1013.5,-36 1013.5,0 1129.5,0 1129.5,-36"/>
<text text-anchor="middle" x="1071.5" y="-14.3" font-family="Times,serif" font-size="14.00" fill="#000000">ヨドバシカメラ</text>
</g>
<!-- Edy&#45;&gt;ヨドバシカメラ -->
<g id="edge46" class="edge">
<title>Edy&#45;&gt;ヨドバシカメラ</title>
<path fill="none" stroke="#000000" stroke-width="2" d="M2093.4776,-250.2636C1984.6276,-246.9794 1578.5463,-231.5792 1461.5,-182 1438.5495,-172.2785 1440.0653,-158.497 1418.5,-146 1369.5521,-117.6349 1223.586,-67.6744 1137.3507,-39.2862"/>
<polygon fill="#000000" stroke="#000000" stroke-width="2" points="1138.2482,-35.8971 1127.6554,-36.1026 1136.0643,-42.5477 1138.2482,-35.8971"/>
</g>
<!-- FRESCO -->
<g id="node49" class="node">
<title>FRESCO</title>
<polygon fill="none" stroke="#000000" points="2082.5,-36 2002.5,-36 2002.5,0 2082.5,0 2082.5,-36"/>
<text text-anchor="middle" x="2042.5" y="-14.3" font-family="Times,serif" font-size="14.00" fill="#000000">FRESCO</text>
</g>
<!-- Edy&#45;&gt;FRESCO -->
<g id="edge62" class="edge">
<title>Edy&#45;&gt;FRESCO</title>
<path fill="none" stroke="#000000" stroke-width="2" d="M2118.1507,-232.9684C2115.1954,-211.894 2109.5186,-176.0716 2101.5,-146 2092.6264,-112.7219 2090.2098,-104.1415 2075.5,-73 2071.0171,-63.5094 2065.3616,-53.5514 2060.0048,-44.7568"/>
<polygon fill="#000000" stroke="#000000" stroke-width="2" points="2062.855,-42.7129 2054.5922,-36.0813 2056.916,-46.4182 2062.855,-42.7129"/>
</g>
<!-- 業務スーパー -->
<g id="node50" class="node">
<title>業務スーパー</title>
<polygon fill="none" stroke="#000000" points="2202.5,-36 2100.5,-36 2100.5,0 2202.5,0 2202.5,-36"/>
<text text-anchor="middle" x="2151.5" y="-14.3" font-family="Times,serif" font-size="14.00" fill="#000000">業務スーパー</text>
</g>
<!-- Edy&#45;&gt;業務スーパー -->
<g id="edge61" class="edge">
<title>Edy&#45;&gt;業務スーパー</title>
<path fill="none" stroke="#000000" stroke-width="2" d="M2128.8012,-232.6351C2130.9968,-227.0732 2133.133,-220.8785 2134.5,-215 2148.1585,-156.2657 2151.077,-85.3811 2151.5636,-46.6746"/>
<polygon fill="#000000" stroke="#000000" stroke-width="2" points="2155.0671,-46.2222 2151.6446,-36.1955 2148.0673,-46.1681 2155.0671,-46.2222"/>
</g>
<!-- Ponta&#45;&gt;じゃらん -->
<g id="edge53" class="edge">
<title>Ponta&#45;&gt;じゃらん</title>
<path fill="none" stroke="#000000" d="M2434.8468,-145.9512C2431.2957,-135.3516 2427.2957,-121.6016 2425.5,-109 2423.2428,-93.16 2423.2428,-88.84 2425.5,-73 2426.7907,-63.9426 2429.2201,-54.2919 2431.8031,-45.6442"/>
<polygon fill="#000000" stroke="#000000" points="2435.1593,-46.639 2434.8468,-36.0488 2428.487,-44.5225 2435.1593,-46.639"/>
</g>
<!-- Tポイント -->
<g id="node21" class="node">
<title>Tポイント</title>
<polygon fill="none" stroke="#000000" points="1851,-182 1768,-182 1768,-146 1851,-146 1851,-182"/>
<text text-anchor="middle" x="1809.5" y="-160.3" font-family="Times,serif" font-size="14.00" fill="#000000">Tポイント</text>
</g>
<!-- JREポイント&#45;&gt;Suica -->
<g id="edge28" class="edge">
<title>JREポイント&#45;&gt;Suica</title>
<path fill="none" stroke="#000000" d="M927.2464,-182.0165C950.7828,-192.7181 981.9284,-205.9268 1010.5,-215 1052.7995,-228.4326 1102.7924,-238.621 1136.3666,-244.6728"/>
<polygon fill="#000000" stroke="#000000" points="1135.7756,-248.1226 1146.2323,-246.4172 1136.9944,-241.2295 1135.7756,-248.1226"/>
</g>
<!-- ビックポイント&#45;&gt;ビックカメラ -->
<g id="edge22" class="edge">
<title>ビックポイント&#45;&gt;ビックカメラ</title>
<path fill="none" stroke="#000000" d="M1514.8819,-145.8383C1500.7302,-127.1954 1477.7245,-97.5258 1456.5,-73 1447.9682,-63.1411 1438.2387,-52.6626 1429.5215,-43.5257"/>
<polygon fill="#000000" stroke="#000000" points="1431.94,-40.9912 1422.4857,-36.2093 1426.8944,-45.8433 1431.94,-40.9912"/>
</g>
<!-- Amazonポイント -->
<g id="node26" class="node">
<title>Amazonポイント</title>
<polygon fill="none" stroke="#000000" points="2356,-182 2225,-182 2225,-146 2356,-146 2356,-182"/>
<text text-anchor="middle" x="2290.5" y="-160.3" font-family="Times,serif" font-size="14.00" fill="#000000">Amazonポイント</text>
</g>
<!-- Amazonポイント&#45;&gt;Amazon -->
<g id="edge56" class="edge">
<title>Amazonポイント&#45;&gt;Amazon</title>
<path fill="none" stroke="#000000" d="M2281.7434,-145.8042C2273.6171,-120.8868 2263.1686,-75.8938 2258.4586,-46.4877"/>
<polygon fill="#000000" stroke="#000000" points="2261.8983,-45.8186 2256.9979,-36.4251 2254.9709,-46.8242 2261.8983,-45.8186"/>
</g>
<!-- nanacoポイント&#45;&gt;nanaco -->
<g id="edge60" class="edge">
<title>nanacoポイント&#45;&gt;nanaco</title>
<path fill="none" stroke="#000000" d="M2932.0605,-182.4136C2931.4839,-192.11 2931.0507,-204.199 2931.5,-215 2931.6012,-217.4321 2931.7406,-219.9542 2931.9044,-222.4832"/>
<polygon fill="#000000" stroke="#000000" points="2928.4332,-222.9974 2932.6791,-232.7043 2935.4132,-222.4683 2928.4332,-222.9974"/>
</g>
<!-- FRESCOポイント -->
<g id="node28" class="node">
<title>FRESCOポイント</title>
<polygon fill="none" stroke="#000000" points="2092,-182 1955,-182 1955,-146 2092,-146 2092,-182"/>
<text text-anchor="middle" x="2023.5" y="-160.3" font-family="Times,serif" font-size="14.00" fill="#000000">FRESCOポイント</text>
</g>
<!-- FRESCOポイント&#45;&gt;FRESCO -->
<g id="edge64" class="edge">
<title>FRESCOポイント&#45;&gt;FRESCO</title>
<path fill="none" stroke="#000000" d="M2023.2995,-145.9308C2023.2861,-139.9085 2023.3289,-133.1643 2023.5,-127 2024.1669,-102.9722 2022.45,-96.6934 2026.5,-73 2028.0415,-63.9819 2030.5414,-54.3423 2033.1119,-45.6926"/>
<polygon fill="#000000" stroke="#000000" points="2036.4706,-46.6785 2036.1085,-36.0898 2029.7884,-44.5932 2036.4706,-46.6785"/>
</g>
<!-- ヨドバシゴールドポイント -->
<g id="node29" class="node">
<title>ヨドバシゴールドポイント</title>
<polygon fill="none" stroke="#000000" points="1146.5,-182 958.5,-182 958.5,-146 1146.5,-146 1146.5,-182"/>
<text text-anchor="middle" x="1052.5" y="-160.3" font-family="Times,serif" font-size="14.00" fill="#000000">ヨドバシゴールドポイント</text>
</g>
<!-- ヨドバシゴールドポイント&#45;&gt;ヨドバシカメラ -->
<g id="edge48" class="edge">
<title>ヨドバシゴールドポイント&#45;&gt;ヨドバシカメラ</title>
<path fill="none" stroke="#000000" d="M1063.1285,-145.8478C1068.6023,-135.4418 1074.7022,-121.9163 1077.5,-109 1082.0111,-88.1741 1080.1206,-64.0943 1077.3128,-45.938"/>
<polygon fill="#000000" stroke="#000000" points="1080.7474,-45.2593 1075.595,-36.0017 1073.8498,-46.4518 1080.7474,-45.2593"/>
</g>
<!-- 切符&#45;&gt;現金 -->
<g id="edge73" class="edge">
<title>切符&#45;&gt;現金</title>
<path fill="none" stroke="#000000" d="M756.5643,-109.2226C754.0798,-137.0609 744.3435,-190.3868 735.9967,-223.1136"/>
<polygon fill="#000000" stroke="#000000" points="732.5667,-222.3909 733.3464,-232.957 739.326,-224.2108 732.5667,-222.3909"/>
</g>
<!-- 切符&#45;&gt;電車 -->
<g id="edge72" class="edge">
<title>切符&#45;&gt;電車</title>
<path fill="none" stroke="#000000" stroke-width="2" d="M764.8933,-72.9551C769.2779,-64.5319 774.5889,-54.3292 779.4386,-45.0128"/>
<polygon fill="#000000" stroke="#000000" stroke-width="2" points="782.5703,-46.5766 784.0831,-36.0904 776.3611,-43.3445 782.5703,-46.5766"/>
</g>
<!-- ぐるなびギフト券&#45;&gt;現金 -->
<g id="edge67" class="edge">
<title>ぐるなびギフト券&#45;&gt;現金</title>
<path fill="none" stroke="#000000" d="M622.341,-109.2221C639.2446,-134.3021 666.316,-180.2932 695.5,-215 698.517,-218.588 701.8752,-222.1717 705.2491,-225.611"/>
<polygon fill="#000000" stroke="#000000" points="702.9751,-228.2858 712.5338,-232.8556 707.9112,-223.3223 702.9751,-228.2858"/>
</g>
<!-- 餃子の王将 -->
<g id="node47" class="node">
<title>餃子の王将</title>
<polygon fill="none" stroke="#000000" points="652.5,-36 564.5,-36 564.5,0 652.5,0 652.5,-36"/>
<text text-anchor="middle" x="608.5" y="-14.3" font-family="Times,serif" font-size="14.00" fill="#000000">餃子の王将</text>
</g>
<!-- ぐるなびギフト券&#45;&gt;餃子の王将 -->
<g id="edge66" class="edge">
<title>ぐるなびギフト券&#45;&gt;餃子の王将</title>
<path fill="none" stroke="#000000" stroke-width="2" d="M606.9944,-72.9551C607.2155,-64.8828 607.4815,-55.1764 607.7279,-46.1817"/>
<polygon fill="#000000" stroke="#000000" stroke-width="2" points="611.2291,-46.1825 608.0044,-36.0904 604.2317,-45.9907 611.2291,-46.1825"/>
</g>
<!-- ローソン&#45;&gt;Ponta -->
<g id="edge43" class="edge">
<title>ローソン&#45;&gt;Ponta</title>
<path fill="none" stroke="#000000" d="M2357.4596,-36.0594C2366.0638,-54.8785 2380.6839,-84.9246 2396.5,-109 2403.0348,-118.9473 2411.0346,-129.2077 2418.4674,-138.1328"/>
<polygon fill="#000000" stroke="#000000" points="2415.9322,-140.5544 2425.0757,-145.9067 2421.2655,-136.0206 2415.9322,-140.5544"/>
<text text-anchor="middle" x="2408" y="-87.3" font-family="Times,serif" font-size="14.00" fill="#000000">1%</text>
</g>
<!-- ファミリーマート&#45;&gt;Tポイント -->
<g id="edge45" class="edge">
<title>ファミリーマート&#45;&gt;Tポイント</title>
<path fill="none" stroke="#000000" d="M1785.0336,-36.4251C1789.8358,-61.4651 1798.4671,-106.4714 1804.0883,-135.7818"/>
<polygon fill="#000000" stroke="#000000" points="1800.6895,-136.6424 1806.0104,-145.8042 1807.5642,-135.3239 1800.6895,-136.6424"/>
<text text-anchor="middle" x="1817" y="-87.3" font-family="Times,serif" font-size="14.00" fill="#000000">0.5%</text>
</g>
<!-- 大阪地下鉄&#45;&gt;三井住友VISAカード -->
<g id="edge15" class="edge">
<title>大阪地下鉄&#45;&gt;三井住友VISAカード</title>
<path fill="none" stroke="#000000" d="M154.5,-36.3003C154.5,-51.0651 154.5,-72.3698 154.5,-91 154.5,-251 154.5,-251 154.5,-251 154.5,-272.6 200.1182,-291.0829 245.0366,-304.0467"/>
<polygon fill="#000000" stroke="#000000" points="244.3211,-307.481 254.8947,-306.8102 246.2106,-300.7408 244.3211,-307.481"/>
<text text-anchor="middle" x="170.5" y="-160.3" font-family="Times,serif" font-size="14.00" fill="#000000">10%</text>
</g>
<!-- ウェルシア&#45;&gt;Tポイント -->
<g id="edge50" class="edge">
<title>ウェルシア&#45;&gt;Tポイント</title>
<path fill="none" stroke="#000000" d="M1917.8513,-36.4251C1896.0248,-62.124 1856.3363,-108.854 1831.5291,-138.0626"/>
<polygon fill="#000000" stroke="#000000" points="1828.7598,-135.9165 1824.954,-145.8042 1834.0952,-140.4479 1828.7598,-135.9165"/>
<text text-anchor="middle" x="1897" y="-87.3" font-family="Times,serif" font-size="14.00" fill="#000000">1%</text>
</g>
<!-- ビックカメラ&#45;&gt;ビックポイント -->
<g id="edge20" class="edge">
<title>ビックカメラ&#45;&gt;ビックポイント</title>
<path fill="none" stroke="#000000" stroke-dasharray="5,2" d="M1455.6734,-29.218C1470.2025,-34.5988 1484.9284,-42.4864 1495.5,-54 1516.0564,-76.3881 1523.8326,-111.118 1526.7601,-135.5526"/>
<polygon fill="#000000" stroke="#000000" points="1523.292,-136.0472 1527.767,-145.6506 1530.2575,-135.3526 1523.292,-136.0472"/>
<text text-anchor="middle" x="1540" y="-87.3" font-family="Times,serif" font-size="14.00" fill="#000000">9.5%</text>
</g>
<!-- ヨドバシカメラ&#45;&gt;ヨドバシゴールドポイント -->
<g id="edge47" class="edge">
<title>ヨドバシカメラ&#45;&gt;ヨドバシゴールドポイント</title>
<path fill="none" stroke="#000000" d="M1060.4501,-36.0992C1054.7585,-46.4887 1048.4145,-60.0152 1045.5,-73 1040.8296,-93.8078 1043.0046,-117.8885 1046.1183,-136.0498"/>
<polygon fill="#000000" stroke="#000000" points="1042.7025,-136.8229 1048.0153,-145.9894 1049.5784,-135.5105 1042.7025,-136.8229"/>
<text text-anchor="middle" x="1061.5" y="-87.3" font-family="Times,serif" font-size="14.00" fill="#000000">10%</text>
</g>
<!-- FRESCO&#45;&gt;FRESCOポイント -->
<g id="edge63" class="edge">
<title>FRESCO&#45;&gt;FRESCOポイント</title>
<path fill="none" stroke="#000000" d="M2040.1022,-36.4251C2036.8436,-61.4651 2030.9866,-106.4714 2027.1722,-135.7818"/>
<polygon fill="#000000" stroke="#000000" points="2023.6878,-135.4361 2025.8679,-145.8042 2030.6293,-136.3395 2023.6878,-135.4361"/>
<text text-anchor="middle" x="2053" y="-87.3" font-family="Times,serif" font-size="14.00" fill="#000000">0.5%</text>
</g>
<!-- 吉野家&#45;&gt;Tポイント -->
<g id="edge70" class="edge">
<title>吉野家&#45;&gt;Tポイント</title>
<path fill="none" stroke="#000000" d="M1684.0785,-36.2078C1700.2508,-54.8873 1726.4948,-84.5856 1750.5,-109 1760.436,-119.1054 1771.7367,-129.8164 1781.7703,-139.075"/>
<polygon fill="#000000" stroke="#000000" points="1779.4146,-141.6636 1789.1525,-145.8379 1784.1432,-136.5021 1779.4146,-141.6636"/>
<text text-anchor="middle" x="1769" y="-87.3" font-family="Times,serif" font-size="14.00" fill="#000000">0.5%</text>
</g>
<!-- Amazon&#45;&gt;Amazonポイント -->
<g id="edge55" class="edge">
<title>Amazon&#45;&gt;Amazonポイント</title>
<path fill="none" stroke="#000000" d="M2266.3312,-36.4251C2274.4717,-61.4651 2284.9096,-106.4714 2289.5845,-135.7818"/>
<polygon fill="#000000" stroke="#000000" points="2286.1383,-136.4068 2291.0311,-145.8042 2293.0665,-135.4067 2286.1383,-136.4068"/>
</g>
<!-- じゃらん&#45;&gt;Ponta -->
<g id="edge54" class="edge">
<title>じゃらん&#45;&gt;Ponta</title>
<path fill="none" stroke="#000000" d="M2441.5,-36.4251C2441.5,-61.4651 2441.5,-106.4714 2441.5,-135.7818"/>
<polygon fill="#000000" stroke="#000000" points="2438.0001,-135.8042 2441.5,-145.8042 2445.0001,-135.8042 2438.0001,-135.8042"/>
<text text-anchor="middle" x="2453" y="-87.3" font-family="Times,serif" font-size="14.00" fill="#000000">2%</text>
</g>
</g>
</svg>
