<?xml version="1.0" encoding="UTF-8" standalone="no"?>
<!DOCTYPE svg PUBLIC "-//W3C//DTD SVG 1.1//EN"
 "http://www.w3.org/Graphics/SVG/1.1/DTD/svg11.dtd">
<!-- Generated by graphviz version 2.40.1 (20161225.0304)
 -->
<!-- Title: MoneyFlow Pages: 1 -->
<svg width="3166pt" height="496pt"
 viewBox="0.00 0.00 3165.50 496.00" xmlns="http://www.w3.org/2000/svg" xmlns:xlink="http://www.w3.org/1999/xlink">
<g id="graph0" class="graph" transform="scale(1 1) rotate(0) translate(4 492)">
<title>MoneyFlow</title>
<polygon fill="#ffffff" stroke="transparent" points="-4,4 -4,-492 3161.5,-492 3161.5,4 -4,4"/>
<!-- 収入 -->
<g id="node1" class="node">
<title>収入</title>
<text text-anchor="middle" x="65.5" y="-466.3" font-family="Times,serif" font-size="14.00" fill="#000000">収入</text>
</g>
<!-- 銀行口座 -->
<g id="node2" class="node">
<title>銀行口座</title>
<text text-anchor="middle" x="65.5" y="-393.3" font-family="Times,serif" font-size="14.00" fill="#000000">銀行口座</text>
</g>
<!-- 収入&#45;&gt;銀行口座 -->
<g id="edge1" class="edge">
<title>収入&#45;&gt;銀行口座</title>
<path fill="none" stroke="#000000" d="M65.5,-451.9551C65.5,-440.7241 65.5,-426.3298 65.5,-415.0904"/>
</g>
<!-- クレジットカード -->
<g id="node3" class="node">
<title>クレジットカード</title>
<text text-anchor="middle" x="65.5" y="-320.3" font-family="Times,serif" font-size="14.00" fill="#000000">クレジットカード</text>
</g>
<!-- 銀行口座&#45;&gt;クレジットカード -->
<g id="edge2" class="edge">
<title>銀行口座&#45;&gt;クレジットカード</title>
<path fill="none" stroke="#000000" d="M65.5,-378.9551C65.5,-367.7241 65.5,-353.3298 65.5,-342.0904"/>
</g>
<!-- マネー -->
<g id="node4" class="node">
<title>マネー</title>
<text text-anchor="middle" x="65.5" y="-247.3" font-family="Times,serif" font-size="14.00" fill="#000000">マネー</text>
</g>
<!-- クレジットカード&#45;&gt;マネー -->
<g id="edge3" class="edge">
<title>クレジットカード&#45;&gt;マネー</title>
<path fill="none" stroke="#000000" d="M65.5,-305.9551C65.5,-294.7241 65.5,-280.3298 65.5,-269.0904"/>
</g>
<!-- ポイント -->
<g id="node5" class="node">
<title>ポイント</title>
<text text-anchor="middle" x="65.5" y="-160.3" font-family="Times,serif" font-size="14.00" fill="#000000">ポイント</text>
</g>
<!-- マネー&#45;&gt;ポイント -->
<g id="edge4" class="edge">
<title>マネー&#45;&gt;ポイント</title>
<path fill="none" stroke="#000000" d="M65.5,-232.9735C65.5,-218.0422 65.5,-196.9283 65.5,-182.0034"/>
</g>
<!-- 金券 -->
<g id="node6" class="node">
<title>金券</title>
<text text-anchor="middle" x="65.5" y="-87.3" font-family="Times,serif" font-size="14.00" fill="#000000">金券</text>
</g>
<!-- ポイント&#45;&gt;金券 -->
<g id="edge5" class="edge">
<title>ポイント&#45;&gt;金券</title>
<path fill="none" stroke="#000000" d="M65.5,-145.9551C65.5,-134.7241 65.5,-120.3298 65.5,-109.0904"/>
</g>
<!-- 支出 -->
<g id="node7" class="node">
<title>支出</title>
<text text-anchor="middle" x="65.5" y="-14.3" font-family="Times,serif" font-size="14.00" fill="#000000">支出</text>
</g>
<!-- 金券&#45;&gt;支出 -->
<g id="edge6" class="edge">
<title>金券&#45;&gt;支出</title>
<path fill="none" stroke="#000000" d="M65.5,-72.9551C65.5,-61.7241 65.5,-47.3298 65.5,-36.0904"/>
</g>
<!-- 給与 -->
<g id="node8" class="node">
<title>給与</title>
<polygon fill="none" stroke="#000000" points="635.5,-488 581.5,-488 581.5,-452 635.5,-452 635.5,-488"/>
<text text-anchor="middle" x="608.5" y="-466.3" font-family="Times,serif" font-size="14.00" fill="#000000">給与</text>
</g>
<!-- 三井住友銀行 -->
<g id="node9" class="node">
<title>三井住友銀行</title>
<polygon fill="none" stroke="#000000" points="659.5,-415 557.5,-415 557.5,-379 659.5,-379 659.5,-415"/>
<text text-anchor="middle" x="608.5" y="-393.3" font-family="Times,serif" font-size="14.00" fill="#000000">三井住友銀行</text>
</g>
<!-- 給与&#45;&gt;三井住友銀行 -->
<g id="edge7" class="edge">
<title>給与&#45;&gt;三井住友銀行</title>
<path fill="none" stroke="#000000" stroke-width="2" d="M608.5,-451.9551C608.5,-443.8828 608.5,-434.1764 608.5,-425.1817"/>
<polygon fill="#000000" stroke="#000000" stroke-width="2" points="612.0001,-425.0903 608.5,-415.0904 605.0001,-425.0904 612.0001,-425.0903"/>
</g>
<!-- 住信SBI銀行 -->
<g id="node10" class="node">
<title>住信SBI銀行</title>
<polygon fill="none" stroke="#000000" points="904.5,-415 804.5,-415 804.5,-379 904.5,-379 904.5,-415"/>
<text text-anchor="middle" x="854.5" y="-393.3" font-family="Times,serif" font-size="14.00" fill="#000000">住信SBI銀行</text>
</g>
<!-- 三井住友銀行&#45;&gt;住信SBI銀行 -->
<g id="edge9" class="edge">
<title>三井住友銀行&#45;&gt;住信SBI銀行</title>
<path fill="none" stroke="#000000" stroke-width="2" d="M659.9102,-397C704.666,-397 749.4218,-397 794.1776,-397"/>
<polygon fill="#000000" stroke="#000000" stroke-width="2" points="794.3323,-400.5001 804.3323,-397 794.3323,-393.5001 794.3323,-400.5001"/>
</g>
<!-- 三井住友VISAカード -->
<g id="node11" class="node">
<title>三井住友VISAカード</title>
<polygon fill="none" stroke="#000000" points="526,-342 373,-342 373,-306 526,-306 526,-342"/>
<text text-anchor="middle" x="449.5" y="-320.3" font-family="Times,serif" font-size="14.00" fill="#000000">三井住友VISAカード</text>
</g>
<!-- 三井住友銀行&#45;&gt;三井住友VISAカード -->
<g id="edge11" class="edge">
<title>三井住友銀行&#45;&gt;三井住友VISAカード</title>
<path fill="none" stroke="#000000" stroke-width="2" d="M569.1966,-378.9551C547.697,-369.0841 520.8747,-356.7695 498.0734,-346.301"/>
<polygon fill="#000000" stroke="#000000" stroke-width="2" points="499.4506,-343.0821 488.9023,-342.0904 496.5299,-349.4437 499.4506,-343.0821"/>
</g>
<!-- 現金 -->
<g id="node16" class="node">
<title>現金</title>
<polygon fill="none" stroke="#000000" points="799.5,-269 745.5,-269 745.5,-233 799.5,-233 799.5,-269"/>
<text text-anchor="middle" x="772.5" y="-247.3" font-family="Times,serif" font-size="14.00" fill="#000000">現金</text>
</g>
<!-- 三井住友銀行&#45;&gt;現金 -->
<g id="edge8" class="edge">
<title>三井住友銀行&#45;&gt;現金</title>
<path fill="none" stroke="#000000" stroke-width="2" d="M628.9391,-378.8042C657.9898,-352.942 711.3335,-305.4531 744.1797,-276.212"/>
<polygon fill="#000000" stroke="#000000" stroke-width="2" points="746.9197,-278.4587 752.0615,-269.1952 742.2652,-273.2304 746.9197,-278.4587"/>
</g>
<!-- 関西電力 -->
<g id="node42" class="node">
<title>関西電力</title>
<polygon fill="none" stroke="#000000" points="590.5,-36 516.5,-36 516.5,0 590.5,0 590.5,-36"/>
<text text-anchor="middle" x="553.5" y="-14.3" font-family="Times,serif" font-size="14.00" fill="#000000">関西電力</text>
</g>
<!-- 三井住友銀行&#45;&gt;関西電力 -->
<g id="edge10" class="edge">
<title>三井住友銀行&#45;&gt;関西電力</title>
<path fill="none" stroke="#000000" stroke-width="2" d="M584.9719,-378.9244C570.42,-365.5507 554.5,-345.9123 554.5,-324 554.5,-324 554.5,-324 554.5,-91 554.5,-76.2982 554.2947,-59.9325 554.0702,-46.4289"/>
<polygon fill="#000000" stroke="#000000" stroke-width="2" points="557.5674,-46.2354 553.8895,-36.2994 550.5685,-46.3602 557.5674,-46.2354"/>
</g>
<!-- ビックカメラSuicaカード -->
<g id="node12" class="node">
<title>ビックカメラSuicaカード</title>
<polygon fill="none" stroke="#000000" points="1178,-342 993,-342 993,-306 1178,-306 1178,-342"/>
<text text-anchor="middle" x="1085.5" y="-320.3" font-family="Times,serif" font-size="14.00" fill="#000000">ビックカメラSuicaカード</text>
</g>
<!-- 住信SBI銀行&#45;&gt;ビックカメラSuicaカード -->
<g id="edge32" class="edge">
<title>住信SBI銀行&#45;&gt;ビックカメラSuicaカード</title>
<path fill="none" stroke="#000000" stroke-width="2" d="M904.6236,-381.1601C937.999,-370.6129 982.2341,-356.6338 1018.6045,-345.1401"/>
<polygon fill="#000000" stroke="#000000" stroke-width="2" points="1019.6726,-348.4733 1028.1531,-342.1226 1017.5632,-341.7986 1019.6726,-348.4733"/>
</g>
<!-- リクルートカード -->
<g id="node13" class="node">
<title>リクルートカード</title>
<polygon fill="none" stroke="#000000" points="2651,-342 2520,-342 2520,-306 2651,-306 2651,-342"/>
<text text-anchor="middle" x="2585.5" y="-320.3" font-family="Times,serif" font-size="14.00" fill="#000000">リクルートカード</text>
</g>
<!-- 住信SBI銀行&#45;&gt;リクルートカード -->
<g id="edge33" class="edge">
<title>住信SBI銀行&#45;&gt;リクルートカード</title>
<path fill="none" stroke="#000000" stroke-width="2" d="M904.9024,-394.8744C1149.7306,-384.5495 2215.0753,-339.6216 2509.7322,-327.1953"/>
<polygon fill="#000000" stroke="#000000" stroke-width="2" points="2510.0427,-330.6854 2519.8863,-326.7671 2509.7477,-323.6916 2510.0427,-330.6854"/>
</g>
<!-- 住信SBI銀行&#45;&gt;現金 -->
<g id="edge30" class="edge">
<title>住信SBI銀行&#45;&gt;現金</title>
<path fill="none" stroke="#000000" stroke-width="2" d="M844.2804,-378.8042C830.1016,-353.5589 804.3488,-307.7063 787.8526,-278.3351"/>
<polygon fill="#000000" stroke="#000000" stroke-width="2" points="790.797,-276.4301 782.8484,-269.4251 784.6937,-279.858 790.797,-276.4301"/>
</g>
<!-- 家賃 -->
<g id="node32" class="node">
<title>家賃</title>
<polygon fill="none" stroke="#000000" points="918.5,-36 864.5,-36 864.5,0 918.5,0 918.5,-36"/>
<text text-anchor="middle" x="891.5" y="-14.3" font-family="Times,serif" font-size="14.00" fill="#000000">家賃</text>
</g>
<!-- 住信SBI銀行&#45;&gt;家賃 -->
<g id="edge31" class="edge">
<title>住信SBI銀行&#45;&gt;家賃</title>
<path fill="none" stroke="#000000" stroke-width="2" d="M854.5,-378.6997C854.5,-363.9349 854.5,-342.6302 854.5,-324 854.5,-324 854.5,-324 854.5,-127.5 854.5,-98.4398 866.3408,-67.2163 876.6256,-45.5768"/>
<polygon fill="#000000" stroke="#000000" stroke-width="2" points="879.8929,-46.8657 881.1934,-36.351 873.6197,-43.7597 879.8929,-46.8657"/>
</g>
<!-- PiTaPa -->
<g id="node15" class="node">
<title>PiTaPa</title>
<polygon fill="none" stroke="#000000" points="416,-269 351,-269 351,-233 416,-233 416,-269"/>
<text text-anchor="middle" x="383.5" y="-247.3" font-family="Times,serif" font-size="14.00" fill="#000000">PiTaPa</text>
</g>
<!-- 三井住友VISAカード&#45;&gt;PiTaPa -->
<g id="edge13" class="edge">
<title>三井住友VISAカード&#45;&gt;PiTaPa</title>
<path fill="none" stroke="#000000" stroke-width="2" d="M433.1854,-305.9551C425.1733,-297.0932 415.3804,-286.2616 406.6132,-276.5646"/>
<polygon fill="#000000" stroke="#000000" stroke-width="2" points="409.1584,-274.1609 399.8557,-269.0904 403.9659,-278.8554 409.1584,-274.1609"/>
</g>
<!-- iD -->
<g id="node17" class="node">
<title>iD</title>
<polygon fill="none" stroke="#000000" points="526.5,-269 472.5,-269 472.5,-233 526.5,-233 526.5,-269"/>
<text text-anchor="middle" x="499.5" y="-247.3" font-family="Times,serif" font-size="14.00" fill="#000000">iD</text>
</g>
<!-- 三井住友VISAカード&#45;&gt;iD -->
<g id="edge17" class="edge">
<title>三井住友VISAカード&#45;&gt;iD</title>
<path fill="none" stroke="#000000" stroke-width="2" stroke-dasharray="5,2" d="M461.8596,-305.9551C467.7491,-297.3564 474.9087,-286.9034 481.3961,-277.4316"/>
<polygon fill="#000000" stroke="#000000" stroke-width="2" points="484.346,-279.3185 487.1093,-269.0904 478.5708,-275.3628 484.346,-279.3185"/>
</g>
<!-- ワールドプレゼントポイント -->
<g id="node22" class="node">
<title>ワールドプレゼントポイント</title>
<polygon fill="none" stroke="#000000" points="322.5,-182 120.5,-182 120.5,-146 322.5,-146 322.5,-182"/>
<text text-anchor="middle" x="221.5" y="-160.3" font-family="Times,serif" font-size="14.00" fill="#000000">ワールドプレゼントポイント</text>
</g>
<!-- 三井住友VISAカード&#45;&gt;ワールドプレゼントポイント -->
<g id="edge12" class="edge">
<title>三井住友VISAカード&#45;&gt;ワールドプレゼントポイント</title>
<path fill="none" stroke="#000000" stroke-dasharray="5,2" d="M379.6342,-305.9806C354.4434,-297.374 326.7629,-285.3079 304.5,-269 275.7052,-247.9074 251.5826,-214.3228 236.8927,-190.8318"/>
<polygon fill="#000000" stroke="#000000" points="239.7433,-188.7836 231.5524,-182.0634 233.7648,-192.4247 239.7433,-188.7836"/>
<text text-anchor="middle" x="323" y="-247.3" font-family="Times,serif" font-size="14.00" fill="#000000">0.5%</text>
</g>
<!-- Suica -->
<g id="node14" class="node">
<title>Suica</title>
<polygon fill="none" stroke="#000000" points="1148.5,-269 1092.5,-269 1092.5,-233 1148.5,-233 1148.5,-269"/>
<text text-anchor="middle" x="1120.5" y="-247.3" font-family="Times,serif" font-size="14.00" fill="#000000">Suica</text>
</g>
<!-- ビックカメラSuicaカード&#45;&gt;Suica -->
<g id="edge23" class="edge">
<title>ビックカメラSuicaカード&#45;&gt;Suica</title>
<path fill="none" stroke="#000000" stroke-width="2" d="M1094.1517,-305.9551C1098.1481,-297.6196 1102.9801,-287.5416 1107.409,-278.3042"/>
<polygon fill="#000000" stroke="#000000" stroke-width="2" points="1110.6592,-279.6207 1111.8265,-269.0904 1104.3472,-276.5944 1110.6592,-279.6207"/>
</g>
<!-- ビューサンクスポイント -->
<g id="node23" class="node">
<title>ビューサンクスポイント</title>
<polygon fill="none" stroke="#000000" points="1423,-182 1250,-182 1250,-146 1423,-146 1423,-182"/>
<text text-anchor="middle" x="1336.5" y="-160.3" font-family="Times,serif" font-size="14.00" fill="#000000">ビューサンクスポイント</text>
</g>
<!-- ビックカメラSuicaカード&#45;&gt;ビューサンクスポイント -->
<g id="edge18" class="edge">
<title>ビックカメラSuicaカード&#45;&gt;ビューサンクスポイント</title>
<path fill="none" stroke="#000000" d="M1117.9728,-305.8213C1154.8372,-284.8944 1216.4783,-249.0187 1267.5,-215 1280.0663,-206.6215 1293.502,-196.8797 1305.1474,-188.1689"/>
<polygon fill="#000000" stroke="#000000" points="1307.3951,-190.8576 1313.2726,-182.0425 1303.1808,-185.2684 1307.3951,-190.8576"/>
<text text-anchor="middle" x="1256" y="-247.3" font-family="Times,serif" font-size="14.00" fill="#000000">0.5%</text>
</g>
<!-- ビックポイント -->
<g id="node25" class="node">
<title>ビックポイント</title>
<polygon fill="none" stroke="#000000" points="1036.5,-182 920.5,-182 920.5,-146 1036.5,-146 1036.5,-182"/>
<text text-anchor="middle" x="978.5" y="-160.3" font-family="Times,serif" font-size="14.00" fill="#000000">ビックポイント</text>
</g>
<!-- ビックカメラSuicaカード&#45;&gt;ビックポイント -->
<g id="edge21" class="edge">
<title>ビックカメラSuicaカード&#45;&gt;ビックポイント</title>
<path fill="none" stroke="#000000" d="M1053.966,-305.9672C1039.8808,-296.5342 1024.1035,-283.8493 1013.5,-269 997.016,-245.9155 987.9047,-214.5396 983.1444,-192.1107"/>
<polygon fill="#000000" stroke="#000000" points="986.5589,-191.3346 981.1981,-182.1961 979.69,-192.6831 986.5589,-191.3346"/>
<text text-anchor="middle" x="1032" y="-247.3" font-family="Times,serif" font-size="14.00" fill="#000000">0.5%</text>
</g>
<!-- ビックカメラ -->
<g id="node45" class="node">
<title>ビックカメラ</title>
<polygon fill="none" stroke="#000000" points="1057.5,-36 955.5,-36 955.5,0 1057.5,0 1057.5,-36"/>
<text text-anchor="middle" x="1006.5" y="-14.3" font-family="Times,serif" font-size="14.00" fill="#000000">ビックカメラ</text>
</g>
<!-- ビックカメラSuicaカード&#45;&gt;ビックカメラ -->
<g id="edge19" class="edge">
<title>ビックカメラSuicaカード&#45;&gt;ビックカメラ</title>
<path fill="none" stroke="#000000" stroke-width="2" stroke-dasharray="5,2" d="M1077.2002,-305.8131C1071.3304,-291.29 1064.5,-270.2539 1064.5,-251 1064.5,-251 1064.5,-251 1064.5,-91 1064.5,-72.4623 1052.8926,-55.9011 1040.063,-43.258"/>
<polygon fill="#000000" stroke="#000000" stroke-width="2" points="1042.1846,-40.455 1032.4464,-36.2814 1037.4564,-45.6169 1042.1846,-40.455"/>
</g>
<!-- EX予約 -->
<g id="node55" class="node">
<title>EX予約</title>
<polygon fill="none" stroke="#000000" points="1484.5,-36 1418.5,-36 1418.5,0 1484.5,0 1484.5,-36"/>
<text text-anchor="middle" x="1451.5" y="-14.3" font-family="Times,serif" font-size="14.00" fill="#000000">EX予約</text>
</g>
<!-- ビックカメラSuicaカード&#45;&gt;EX予約 -->
<g id="edge26" class="edge">
<title>ビックカメラSuicaカード&#45;&gt;EX予約</title>
<path fill="none" stroke="#000000" stroke-width="2" stroke-dasharray="5,2" d="M1178.3304,-314.5242C1286.7617,-302.1692 1451.5,-278.8206 1451.5,-251 1451.5,-251 1451.5,-251 1451.5,-91 1451.5,-76.2996 1451.5,-59.934 1451.5,-46.4302"/>
<polygon fill="#000000" stroke="#000000" stroke-width="2" points="1455.0001,-46.3003 1451.5,-36.3003 1448.0001,-46.3004 1455.0001,-46.3003"/>
</g>
<!-- nanaco -->
<g id="node18" class="node">
<title>nanaco</title>
<polygon fill="none" stroke="#000000" points="3043.5,-269 2975.5,-269 2975.5,-233 3043.5,-233 3043.5,-269"/>
<text text-anchor="middle" x="3009.5" y="-247.3" font-family="Times,serif" font-size="14.00" fill="#000000">nanaco</text>
</g>
<!-- リクルートカード&#45;&gt;nanaco -->
<g id="edge56" class="edge">
<title>リクルートカード&#45;&gt;nanaco</title>
<path fill="none" stroke="#000000" stroke-width="2" d="M2651.1202,-319.8279C2736.3871,-313.948 2880.3987,-302.3244 2931.5,-288 2944.0263,-284.4887 2957.025,-279.1051 2968.7358,-273.5224"/>
<polygon fill="#000000" stroke="#000000" stroke-width="2" points="2970.4033,-276.6025 2977.8179,-269.0345 2967.3022,-270.3269 2970.4033,-276.6025"/>
</g>
<!-- Edy -->
<g id="node19" class="node">
<title>Edy</title>
<polygon fill="none" stroke="#000000" points="2091.5,-269 2037.5,-269 2037.5,-233 2091.5,-233 2091.5,-269"/>
<text text-anchor="middle" x="2064.5" y="-247.3" font-family="Times,serif" font-size="14.00" fill="#000000">Edy</text>
</g>
<!-- リクルートカード&#45;&gt;Edy -->
<g id="edge41" class="edge">
<title>リクルートカード&#45;&gt;Edy</title>
<path fill="none" stroke="#000000" stroke-width="2" d="M2519.779,-314.7915C2409.1094,-299.285 2189.0855,-268.4563 2101.6134,-256.2001"/>
<polygon fill="#000000" stroke="#000000" stroke-width="2" points="2102.0084,-252.7214 2091.6194,-254.7998 2101.037,-259.6537 2102.0084,-252.7214"/>
</g>
<!-- Ponta -->
<g id="node20" class="node">
<title>Ponta</title>
<polygon fill="none" stroke="#000000" points="2539,-182 2482,-182 2482,-146 2539,-146 2539,-182"/>
<text text-anchor="middle" x="2510.5" y="-160.3" font-family="Times,serif" font-size="14.00" fill="#000000">Ponta</text>
</g>
<!-- リクルートカード&#45;&gt;Ponta -->
<g id="edge51" class="edge">
<title>リクルートカード&#45;&gt;Ponta</title>
<path fill="none" stroke="#000000" d="M2564.0527,-305.8684C2553.6588,-295.9797 2541.8625,-282.9307 2534.5,-269 2521.735,-244.8473 2515.7232,-214.0656 2512.9141,-192.087"/>
<polygon fill="#000000" stroke="#000000" points="2516.3829,-191.6134 2511.7768,-182.0722 2509.4276,-192.4033 2516.3829,-191.6134"/>
<text text-anchor="middle" x="2553" y="-247.3" font-family="Times,serif" font-size="14.00" fill="#000000">1.2%</text>
</g>
<!-- NHK -->
<g id="node39" class="node">
<title>NHK</title>
<polygon fill="none" stroke="#000000" points="2405.5,-36 2351.5,-36 2351.5,0 2405.5,0 2405.5,-36"/>
<text text-anchor="middle" x="2378.5" y="-14.3" font-family="Times,serif" font-size="14.00" fill="#000000">NHK</text>
</g>
<!-- リクルートカード&#45;&gt;NHK -->
<g id="edge34" class="edge">
<title>リクルートカード&#45;&gt;NHK</title>
<path fill="none" stroke="#000000" stroke-width="2" d="M2519.8302,-313.3808C2460.1945,-301.8224 2381.5,-280.9047 2381.5,-251 2381.5,-251 2381.5,-251 2381.5,-91 2381.5,-76.2872 2380.8841,-59.9205 2380.2105,-46.419"/>
<polygon fill="#000000" stroke="#000000" stroke-width="2" points="2383.698,-46.0904 2379.6685,-36.2918 2376.708,-46.4646 2383.698,-46.0904"/>
</g>
<!-- NTT -->
<g id="node40" class="node">
<title>NTT</title>
<polygon fill="none" stroke="#000000" points="2477.5,-36 2423.5,-36 2423.5,0 2477.5,0 2477.5,-36"/>
<text text-anchor="middle" x="2450.5" y="-14.3" font-family="Times,serif" font-size="14.00" fill="#000000">NTT</text>
</g>
<!-- リクルートカード&#45;&gt;NTT -->
<g id="edge35" class="edge">
<title>リクルートカード&#45;&gt;NTT</title>
<path fill="none" stroke="#000000" stroke-width="2" d="M2519.9773,-313.6389C2485.5812,-304.062 2450.5,-285.7713 2450.5,-251 2450.5,-251 2450.5,-251 2450.5,-91 2450.5,-76.2996 2450.5,-59.934 2450.5,-46.4302"/>
<polygon fill="#000000" stroke="#000000" stroke-width="2" points="2454.0001,-46.3003 2450.5,-36.3003 2447.0001,-46.3004 2454.0001,-46.3003"/>
</g>
<!-- ASAHIネット -->
<g id="node41" class="node">
<title>ASAHIネット</title>
<polygon fill="none" stroke="#000000" points="2697,-36 2588,-36 2588,0 2697,0 2697,-36"/>
<text text-anchor="middle" x="2642.5" y="-14.3" font-family="Times,serif" font-size="14.00" fill="#000000">ASAHIネット</text>
</g>
<!-- リクルートカード&#45;&gt;ASAHIネット -->
<g id="edge36" class="edge">
<title>リクルートカード&#45;&gt;ASAHIネット</title>
<path fill="none" stroke="#000000" stroke-width="2" d="M2601.1754,-305.8293C2611.643,-291.8153 2623.5,-271.4317 2623.5,-251 2623.5,-251 2623.5,-251 2623.5,-91 2623.5,-75.7638 2627.4243,-59.2988 2631.7059,-45.8689"/>
<polygon fill="#000000" stroke="#000000" stroke-width="2" points="2635.0674,-46.8557 2634.9907,-36.2611 2628.4438,-44.5911 2635.0674,-46.8557"/>
</g>
<!-- アイハート -->
<g id="node43" class="node">
<title>アイハート</title>
<polygon fill="none" stroke="#000000" points="2895.5,-36 2807.5,-36 2807.5,0 2895.5,0 2895.5,-36"/>
<text text-anchor="middle" x="2851.5" y="-14.3" font-family="Times,serif" font-size="14.00" fill="#000000">アイハート</text>
</g>
<!-- リクルートカード&#45;&gt;アイハート -->
<g id="edge40" class="edge">
<title>リクルートカード&#45;&gt;アイハート</title>
<path fill="none" stroke="#000000" stroke-width="2" d="M2651.2528,-319.018C2730.023,-311.198 2851.5,-292.4232 2851.5,-251 2851.5,-251 2851.5,-251 2851.5,-91 2851.5,-76.2996 2851.5,-59.934 2851.5,-46.4302"/>
<polygon fill="#000000" stroke="#000000" stroke-width="2" points="2855.0001,-46.3003 2851.5,-36.3003 2848.0001,-46.3004 2855.0001,-46.3003"/>
</g>
<!-- Amazon -->
<g id="node53" class="node">
<title>Amazon</title>
<polygon fill="none" stroke="#000000" points="2789.5,-36 2715.5,-36 2715.5,0 2789.5,0 2789.5,-36"/>
<text text-anchor="middle" x="2752.5" y="-14.3" font-family="Times,serif" font-size="14.00" fill="#000000">Amazon</text>
</g>
<!-- リクルートカード&#45;&gt;Amazon -->
<g id="edge38" class="edge">
<title>リクルートカード&#45;&gt;Amazon</title>
<path fill="none" stroke="#000000" stroke-width="2" d="M2651.1721,-315.7334C2717.8992,-305.4472 2811.5,-284.965 2811.5,-251 2811.5,-251 2811.5,-251 2811.5,-91 2811.5,-72.3379 2799.6924,-55.7637 2786.6417,-43.1441"/>
<polygon fill="#000000" stroke="#000000" stroke-width="2" points="2788.6722,-40.2634 2778.8938,-36.185 2783.9946,-45.4711 2788.6722,-40.2634"/>
</g>
<!-- iTunes -->
<g id="node54" class="node">
<title>iTunes</title>
<polygon fill="none" stroke="#000000" points="2979,-36 2914,-36 2914,0 2979,0 2979,-36"/>
<text text-anchor="middle" x="2946.5" y="-14.3" font-family="Times,serif" font-size="14.00" fill="#000000">iTunes</text>
</g>
<!-- リクルートカード&#45;&gt;iTunes -->
<g id="edge37" class="edge">
<title>リクルートカード&#45;&gt;iTunes</title>
<path fill="none" stroke="#000000" stroke-width="2" stroke-dasharray="5,2" d="M2651.0668,-318.4599C2700.0299,-313.3026 2768.2538,-303.9465 2826.5,-288 2868.6101,-276.4712 2917.5,-294.6597 2917.5,-251 2917.5,-251 2917.5,-251 2917.5,-91 2917.5,-75.0883 2923.5243,-58.5164 2930.0814,-45.1915"/>
<polygon fill="#000000" stroke="#000000" stroke-width="2" points="2933.2978,-46.596 2934.8717,-36.1187 2927.1076,-43.3277 2933.2978,-46.596"/>
</g>
<!-- じゃらん -->
<g id="node56" class="node">
<title>じゃらん</title>
<polygon fill="none" stroke="#000000" points="2569.5,-36 2495.5,-36 2495.5,0 2569.5,0 2569.5,-36"/>
<text text-anchor="middle" x="2532.5" y="-14.3" font-family="Times,serif" font-size="14.00" fill="#000000">じゃらん</text>
</g>
<!-- リクルートカード&#45;&gt;じゃらん -->
<g id="edge39" class="edge">
<title>リクルートカード&#45;&gt;じゃらん</title>
<path fill="none" stroke="#000000" stroke-width="2" d="M2585.5,-305.6997C2585.5,-290.9349 2585.5,-269.6302 2585.5,-251 2585.5,-251 2585.5,-251 2585.5,-91 2585.5,-72.8019 2574.5812,-56.0846 2562.6555,-43.2529"/>
<polygon fill="#000000" stroke="#000000" stroke-width="2" points="2565.1303,-40.7779 2555.5924,-36.1649 2560.1719,-45.719 2565.1303,-40.7779"/>
</g>
<!-- Suica&#45;&gt;ビューサンクスポイント -->
<g id="edge29" class="edge">
<title>Suica&#45;&gt;ビューサンクスポイント</title>
<path fill="none" stroke="#000000" d="M1148.7382,-239.6263C1182.546,-226.0093 1239.914,-202.9027 1282.3618,-185.8057"/>
<polygon fill="#000000" stroke="#000000" points="1283.7519,-189.0191 1291.7201,-182.0364 1281.1366,-182.526 1283.7519,-189.0191"/>
<text text-anchor="middle" x="1252" y="-203.8" font-family="Times,serif" font-size="14.00" fill="#000000">1%</text>
</g>
<!-- JREポイント -->
<g id="node24" class="node">
<title>JREポイント</title>
<polygon fill="none" stroke="#000000" points="1232,-182 1131,-182 1131,-146 1232,-146 1232,-182"/>
<text text-anchor="middle" x="1181.5" y="-160.3" font-family="Times,serif" font-size="14.00" fill="#000000">JREポイント</text>
</g>
<!-- Suica&#45;&gt;JREポイント -->
<g id="edge27" class="edge">
<title>Suica&#45;&gt;JREポイント</title>
<path fill="none" stroke="#000000" d="M1137.2489,-232.8335C1142.0647,-227.2772 1147.179,-221.0358 1151.5,-215 1156.8294,-207.5557 1162.0841,-199.1133 1166.6702,-191.2702"/>
<polygon fill="#000000" stroke="#000000" points="1169.796,-192.8542 1171.7112,-182.4339 1163.7158,-189.3855 1169.796,-192.8542"/>
<text text-anchor="middle" x="1179" y="-203.8" font-family="Times,serif" font-size="14.00" fill="#000000">0.5%</text>
</g>
<!-- 電車 -->
<g id="node36" class="node">
<title>電車</title>
<polygon fill="none" stroke="#000000" points="846.5,-36 792.5,-36 792.5,0 846.5,0 846.5,-36"/>
<text text-anchor="middle" x="819.5" y="-14.3" font-family="Times,serif" font-size="14.00" fill="#000000">電車</text>
</g>
<!-- Suica&#45;&gt;電車 -->
<g id="edge24" class="edge">
<title>Suica&#45;&gt;電車</title>
<path fill="none" stroke="#000000" stroke-width="2" d="M1092.178,-242.8926C1038.4521,-227.3339 925.8022,-193.7854 911.5,-182 867.4726,-145.7202 840.6841,-82.5524 828.1145,-46.1101"/>
<polygon fill="#000000" stroke="#000000" stroke-width="2" points="831.28,-44.537 824.805,-36.1511 824.6372,-46.7446 831.28,-44.537"/>
</g>
<!-- 松屋 -->
<g id="node51" class="node">
<title>松屋</title>
<polygon fill="none" stroke="#000000" points="1129.5,-36 1075.5,-36 1075.5,0 1129.5,0 1129.5,-36"/>
<text text-anchor="middle" x="1102.5" y="-14.3" font-family="Times,serif" font-size="14.00" fill="#000000">松屋</text>
</g>
<!-- Suica&#45;&gt;松屋 -->
<g id="edge25" class="edge">
<title>Suica&#45;&gt;松屋</title>
<path fill="none" stroke="#000000" stroke-width="2" d="M1119.0876,-232.7169C1115.9593,-192.2236 1108.4284,-94.7396 1104.6863,-46.301"/>
<polygon fill="#000000" stroke="#000000" stroke-width="2" points="1108.1658,-45.8989 1103.9059,-36.1982 1101.1866,-46.4381 1108.1658,-45.8989"/>
</g>
<!-- 大阪地下鉄 -->
<g id="node37" class="node">
<title>大阪地下鉄</title>
<polygon fill="none" stroke="#000000" points="493.5,-36 405.5,-36 405.5,0 493.5,0 493.5,-36"/>
<text text-anchor="middle" x="449.5" y="-14.3" font-family="Times,serif" font-size="14.00" fill="#000000">大阪地下鉄</text>
</g>
<!-- PiTaPa&#45;&gt;大阪地下鉄 -->
<g id="edge14" class="edge">
<title>PiTaPa&#45;&gt;大阪地下鉄</title>
<path fill="none" stroke="#000000" stroke-width="2" d="M386.2516,-232.8936C391.9476,-197.6434 406.5379,-117.6778 430.5,-54 431.585,-51.1166 432.8515,-48.1713 434.2061,-45.2688"/>
<polygon fill="#000000" stroke="#000000" stroke-width="2" points="437.3642,-46.779 438.7195,-36.2712 431.1072,-43.6403 437.3642,-46.779"/>
</g>
<!-- 山陽バス -->
<g id="node38" class="node">
<title>山陽バス</title>
<polygon fill="none" stroke="#000000" points="387.5,-36 313.5,-36 313.5,0 387.5,0 387.5,-36"/>
<text text-anchor="middle" x="350.5" y="-14.3" font-family="Times,serif" font-size="14.00" fill="#000000">山陽バス</text>
</g>
<!-- PiTaPa&#45;&gt;山陽バス -->
<g id="edge16" class="edge">
<title>PiTaPa&#45;&gt;山陽バス</title>
<path fill="none" stroke="#000000" stroke-width="2" stroke-dasharray="5,2" d="M379.723,-232.7245C378.6119,-227.0568 377.4427,-220.7813 376.5,-215 366.7729,-155.3456 358.1819,-85.0715 353.728,-46.6557"/>
<polygon fill="#000000" stroke="#000000" stroke-width="2" points="357.1513,-45.7867 352.5328,-36.2515 350.197,-46.5856 357.1513,-45.7867"/>
</g>
<!-- 切符 -->
<g id="node30" class="node">
<title>切符</title>
<polygon fill="none" stroke="#000000" points="826.5,-109 772.5,-109 772.5,-73 826.5,-73 826.5,-109"/>
<text text-anchor="middle" x="799.5" y="-87.3" font-family="Times,serif" font-size="14.00" fill="#000000">切符</text>
</g>
<!-- 現金&#45;&gt;切符 -->
<g id="edge70" class="edge">
<title>現金&#45;&gt;切符</title>
<path fill="none" stroke="#000000" stroke-width="2" d="M771.0814,-232.957C773.0148,-205.2286 781.7388,-151.9135 789.4762,-119.0982"/>
<polygon fill="#000000" stroke="#000000" stroke-width="2" points="792.9152,-119.7728 791.9439,-109.2226 786.124,-118.0758 792.9152,-119.7728"/>
</g>
<!-- ぐるなびギフト券 -->
<g id="node31" class="node">
<title>ぐるなびギフト券</title>
<polygon fill="none" stroke="#000000" points="716,-109 585,-109 585,-73 716,-73 716,-109"/>
<text text-anchor="middle" x="650.5" y="-87.3" font-family="Times,serif" font-size="14.00" fill="#000000">ぐるなびギフト券</text>
</g>
<!-- 現金&#45;&gt;ぐるなびギフト券 -->
<g id="edge64" class="edge">
<title>現金&#45;&gt;ぐるなびギフト券</title>
<path fill="none" stroke="#000000" stroke-width="2" d="M745.1324,-236.6509C736.8609,-230.4425 728.3201,-222.8143 721.5,-215 695.0602,-184.7061 670.9704,-144.9496 658.3609,-118.7198"/>
<polygon fill="#000000" stroke="#000000" stroke-width="2" points="661.4371,-117.0293 654.1094,-109.3772 655.0658,-119.9288 661.4371,-117.0293"/>
</g>
<!-- 飲食店 -->
<g id="node48" class="node">
<title>飲食店</title>
<polygon fill="none" stroke="#000000" points="774,-36 715,-36 715,0 774,0 774,-36"/>
<text text-anchor="middle" x="744.5" y="-14.3" font-family="Times,serif" font-size="14.00" fill="#000000">飲食店</text>
</g>
<!-- 現金&#45;&gt;飲食店 -->
<g id="edge67" class="edge">
<title>現金&#45;&gt;飲食店</title>
<path fill="none" stroke="#000000" stroke-width="2" d="M770.3029,-232.7169C765.4367,-192.2236 753.7219,-94.7396 747.901,-46.301"/>
<polygon fill="#000000" stroke="#000000" stroke-width="2" points="751.3551,-45.7091 746.6869,-36.1982 744.4051,-46.5444 751.3551,-45.7091"/>
</g>
<!-- 吉野家 -->
<g id="node52" class="node">
<title>吉野家</title>
<polygon fill="none" stroke="#000000" points="1702,-36 1643,-36 1643,0 1702,0 1702,-36"/>
<text text-anchor="middle" x="1672.5" y="-14.3" font-family="Times,serif" font-size="14.00" fill="#000000">吉野家</text>
</g>
<!-- 現金&#45;&gt;吉野家 -->
<g id="edge68" class="edge">
<title>現金&#45;&gt;吉野家</title>
<path fill="none" stroke="#000000" stroke-width="2" d="M799.6769,-248.6024C840.9117,-244.9993 921.7603,-238.0709 990.5,-233 1070.9252,-227.0671 1659.6156,-241.0857 1714.5,-182 1749.813,-143.9839 1716.4486,-80.4088 1692.3341,-44.6048"/>
<polygon fill="#000000" stroke="#000000" stroke-width="2" points="1695.0292,-42.3497 1686.45,-36.1329 1689.2798,-46.3428 1695.0292,-42.3497"/>
</g>
<!-- nanacoポイント -->
<g id="node27" class="node">
<title>nanacoポイント</title>
<polygon fill="none" stroke="#000000" points="3071,-182 2946,-182 2946,-146 3071,-146 3071,-182"/>
<text text-anchor="middle" x="3008.5" y="-160.3" font-family="Times,serif" font-size="14.00" fill="#000000">nanacoポイント</text>
</g>
<!-- nanaco&#45;&gt;nanacoポイント -->
<g id="edge58" class="edge">
<title>nanaco&#45;&gt;nanacoポイント</title>
<path fill="none" stroke="#000000" d="M3009.2928,-232.9735C3009.1574,-221.1918 3008.9777,-205.5607 3008.8237,-192.1581"/>
<polygon fill="#000000" stroke="#000000" points="3012.3217,-191.9624 3008.7069,-182.0034 3005.3222,-192.043 3012.3217,-191.9624"/>
<text text-anchor="middle" x="3020" y="-203.8" font-family="Times,serif" font-size="14.00" fill="#000000">1%</text>
</g>
<!-- セブンイレブン -->
<g id="node34" class="node">
<title>セブンイレブン</title>
<polygon fill="none" stroke="#000000" points="3157.5,-36 3041.5,-36 3041.5,0 3157.5,0 3157.5,-36"/>
<text text-anchor="middle" x="3099.5" y="-14.3" font-family="Times,serif" font-size="14.00" fill="#000000">セブンイレブン</text>
</g>
<!-- nanaco&#45;&gt;セブンイレブン -->
<g id="edge57" class="edge">
<title>nanaco&#45;&gt;セブンイレブン</title>
<path fill="none" stroke="#000000" stroke-width="2" d="M3035.9277,-232.7243C3051.6328,-220.3323 3070.4021,-202.5094 3080.5,-182 3101.9778,-138.3772 3103.3339,-80.5533 3101.8047,-46.5048"/>
<polygon fill="#000000" stroke="#000000" stroke-width="2" points="3105.2886,-46.1197 3101.2287,-36.3337 3098.2998,-46.5156 3105.2886,-46.1197"/>
</g>
<!-- Edy&#45;&gt;Ponta -->
<g id="edge50" class="edge">
<title>Edy&#45;&gt;Ponta</title>
<path fill="none" stroke="#000000" d="M2091.6198,-247.8728C2136.6768,-242.4783 2229.703,-230.4957 2307.5,-215 2365.323,-203.4828 2431.3936,-186.0784 2472.0305,-174.8757"/>
<polygon fill="#000000" stroke="#000000" points="2473.0923,-178.2134 2481.7934,-172.1685 2471.2218,-171.4679 2473.0923,-178.2134"/>
<text text-anchor="middle" x="2393" y="-203.8" font-family="Times,serif" font-size="14.00" fill="#000000">0.5%</text>
</g>
<!-- ローソン -->
<g id="node33" class="node">
<title>ローソン</title>
<polygon fill="none" stroke="#000000" points="2333.5,-36 2259.5,-36 2259.5,0 2333.5,0 2333.5,-36"/>
<text text-anchor="middle" x="2296.5" y="-14.3" font-family="Times,serif" font-size="14.00" fill="#000000">ローソン</text>
</g>
<!-- Edy&#45;&gt;ローソン -->
<g id="edge42" class="edge">
<title>Edy&#45;&gt;ローソン</title>
<path fill="none" stroke="#000000" stroke-width="2" d="M2091.7239,-245.9509C2143.6035,-235.7522 2253.6034,-211.1653 2277.5,-182 2308.9439,-143.6235 2306.5527,-82.1666 2301.7061,-46.3856"/>
<polygon fill="#000000" stroke="#000000" stroke-width="2" points="2305.1154,-45.5228 2300.1578,-36.1594 2298.1943,-46.5707 2305.1154,-45.5228"/>
</g>
<!-- ファミリーマート -->
<g id="node35" class="node">
<title>ファミリーマート</title>
<polygon fill="none" stroke="#000000" points="1851,-36 1720,-36 1720,0 1851,0 1851,-36"/>
<text text-anchor="middle" x="1785.5" y="-14.3" font-family="Times,serif" font-size="14.00" fill="#000000">ファミリーマート</text>
</g>
<!-- Edy&#45;&gt;ファミリーマート -->
<g id="edge43" class="edge">
<title>Edy&#45;&gt;ファミリーマート</title>
<path fill="none" stroke="#000000" stroke-width="2" d="M2037.3804,-247.5143C1994.6268,-240.9183 1910.4684,-223.3739 1852.5,-182 1819.4356,-158.4009 1812.884,-146.5966 1797.5,-109 1789.3275,-89.0274 1786.4434,-64.7207 1785.5395,-46.2544"/>
<polygon fill="#000000" stroke="#000000" stroke-width="2" points="1789.0337,-46.0147 1785.2112,-36.1334 1782.0374,-46.2417 1789.0337,-46.0147"/>
</g>
<!-- ウェルシア -->
<g id="node44" class="node">
<title>ウェルシア</title>
<polygon fill="none" stroke="#000000" points="1957.5,-36 1869.5,-36 1869.5,0 1957.5,0 1957.5,-36"/>
<text text-anchor="middle" x="1913.5" y="-14.3" font-family="Times,serif" font-size="14.00" fill="#000000">ウェルシア</text>
</g>
<!-- Edy&#45;&gt;ウェルシア -->
<g id="edge48" class="edge">
<title>Edy&#45;&gt;ウェルシア</title>
<path fill="none" stroke="#000000" stroke-width="2" d="M2065.6371,-232.8384C2066.2299,-211.0086 2064.7232,-173.8411 2050.5,-146 2027.7984,-101.5627 1983.1576,-64.4456 1950.9941,-41.8168"/>
<polygon fill="#000000" stroke="#000000" stroke-width="2" points="1952.9164,-38.8909 1942.6951,-36.1025 1948.9466,-44.6565 1952.9164,-38.8909"/>
</g>
<!-- ヨドバシカメラ -->
<g id="node46" class="node">
<title>ヨドバシカメラ</title>
<polygon fill="none" stroke="#000000" points="1618.5,-36 1502.5,-36 1502.5,0 1618.5,0 1618.5,-36"/>
<text text-anchor="middle" x="1560.5" y="-14.3" font-family="Times,serif" font-size="14.00" fill="#000000">ヨドバシカメラ</text>
</g>
<!-- Edy&#45;&gt;ヨドバシカメラ -->
<g id="edge45" class="edge">
<title>Edy&#45;&gt;ヨドバシカメラ</title>
<path fill="none" stroke="#000000" stroke-width="2" d="M2037.438,-249.7055C1930.8352,-244.3342 1544.0031,-222.1814 1508.5,-182 1473.5287,-142.4205 1511.677,-79.2743 1538.6192,-44.0005"/>
<polygon fill="#000000" stroke="#000000" stroke-width="2" points="1541.4151,-46.1071 1544.8394,-36.0809 1535.9101,-41.7833 1541.4151,-46.1071"/>
</g>
<!-- FRESCO -->
<g id="node49" class="node">
<title>FRESCO</title>
<polygon fill="none" stroke="#000000" points="2175.5,-36 2095.5,-36 2095.5,0 2175.5,0 2175.5,-36"/>
<text text-anchor="middle" x="2135.5" y="-14.3" font-family="Times,serif" font-size="14.00" fill="#000000">FRESCO</text>
</g>
<!-- Edy&#45;&gt;FRESCO -->
<g id="edge61" class="edge">
<title>Edy&#45;&gt;FRESCO</title>
<path fill="none" stroke="#000000" stroke-width="2" d="M2071.9407,-232.8016C2074.1584,-227.1371 2076.5226,-220.844 2078.5,-215 2098.6316,-155.5027 2118.0855,-84.4547 2128.2355,-46.0299"/>
<polygon fill="#000000" stroke="#000000" stroke-width="2" points="2131.69,-46.6549 2130.8445,-36.0939 2124.9195,-44.8771 2131.69,-46.6549"/>
</g>
<!-- 業務スーパー -->
<g id="node50" class="node">
<title>業務スーパー</title>
<polygon fill="none" stroke="#000000" points="2077.5,-36 1975.5,-36 1975.5,0 2077.5,0 2077.5,-36"/>
<text text-anchor="middle" x="2026.5" y="-14.3" font-family="Times,serif" font-size="14.00" fill="#000000">業務スーパー</text>
</g>
<!-- Edy&#45;&gt;業務スーパー -->
<g id="edge60" class="edge">
<title>Edy&#45;&gt;業務スーパー</title>
<path fill="none" stroke="#000000" stroke-width="2" d="M2056.475,-232.9736C2054.2336,-227.316 2052.0028,-220.9837 2050.5,-215 2035.7576,-156.3006 2029.9469,-85.403 2027.7517,-46.6849"/>
<polygon fill="#000000" stroke="#000000" stroke-width="2" points="2031.221,-46.0054 2027.2022,-36.2024 2024.2306,-46.372 2031.221,-46.0054"/>
</g>
<!-- Ponta&#45;&gt;じゃらん -->
<g id="edge52" class="edge">
<title>Ponta&#45;&gt;じゃらん</title>
<path fill="none" stroke="#000000" d="M2509.1668,-145.6909C2508.2236,-127.1849 2507.8399,-97.8507 2512.5,-73 2514.2094,-63.8844 2517.2426,-54.2768 2520.4382,-45.6869"/>
<polygon fill="#000000" stroke="#000000" points="2523.782,-46.7479 2524.1945,-36.1611 2517.27,-44.18 2523.782,-46.7479"/>
</g>
<!-- Tポイント -->
<g id="node21" class="node">
<title>Tポイント</title>
<polygon fill="none" stroke="#000000" points="1944,-182 1861,-182 1861,-146 1944,-146 1944,-182"/>
<text text-anchor="middle" x="1902.5" y="-160.3" font-family="Times,serif" font-size="14.00" fill="#000000">Tポイント</text>
</g>
<!-- JREポイント&#45;&gt;Suica -->
<g id="edge28" class="edge">
<title>JREポイント&#45;&gt;Suica</title>
<path fill="none" stroke="#000000" d="M1165.3865,-182.2654C1160.7288,-187.8246 1155.7571,-194.0426 1151.5,-200 1146.1309,-207.5135 1140.7429,-215.9769 1135.9999,-223.8181"/>
<polygon fill="#000000" stroke="#000000" points="1132.8571,-222.2561 1130.7682,-232.6429 1138.8785,-225.8258 1132.8571,-222.2561"/>
</g>
<!-- ビックポイント&#45;&gt;ビックカメラ -->
<g id="edge22" class="edge">
<title>ビックポイント&#45;&gt;ビックカメラ</title>
<path fill="none" stroke="#000000" d="M988.4889,-145.7486C993.6766,-135.3115 999.5369,-121.788 1002.5,-109 1007.2818,-88.363 1008.1545,-64.4066 1007.8998,-46.2553"/>
<polygon fill="#000000" stroke="#000000" points="1011.3931,-45.9514 1007.6306,-36.0472 1004.3956,-46.136 1011.3931,-45.9514"/>
</g>
<!-- Amazonポイント -->
<g id="node26" class="node">
<title>Amazonポイント</title>
<polygon fill="none" stroke="#000000" points="2783,-182 2652,-182 2652,-146 2783,-146 2783,-182"/>
<text text-anchor="middle" x="2717.5" y="-160.3" font-family="Times,serif" font-size="14.00" fill="#000000">Amazonポイント</text>
</g>
<!-- Amazonポイント&#45;&gt;Amazon -->
<g id="edge55" class="edge">
<title>Amazonポイント&#45;&gt;Amazon</title>
<path fill="none" stroke="#000000" d="M2717.2182,-145.8042C2720.7125,-120.7775 2731.2967,-75.4988 2740.3085,-46.1017"/>
<polygon fill="#000000" stroke="#000000" points="2743.6908,-47.0164 2743.4164,-36.4251 2737.0261,-44.8758 2743.6908,-47.0164"/>
</g>
<!-- nanacoポイント&#45;&gt;nanaco -->
<g id="edge59" class="edge">
<title>nanacoポイント&#45;&gt;nanaco</title>
<path fill="none" stroke="#000000" d="M3007.0605,-182.4136C3006.4839,-192.11 3006.0507,-204.199 3006.5,-215 3006.6012,-217.4321 3006.7406,-219.9542 3006.9044,-222.4832"/>
<polygon fill="#000000" stroke="#000000" points="3003.4332,-222.9974 3007.6791,-232.7043 3010.4132,-222.4683 3003.4332,-222.9974"/>
</g>
<!-- FRESCOポイント -->
<g id="node28" class="node">
<title>FRESCOポイント</title>
<polygon fill="none" stroke="#000000" points="2268,-182 2131,-182 2131,-146 2268,-146 2268,-182"/>
<text text-anchor="middle" x="2199.5" y="-160.3" font-family="Times,serif" font-size="14.00" fill="#000000">FRESCOポイント</text>
</g>
<!-- FRESCOポイント&#45;&gt;FRESCO -->
<g id="edge63" class="edge">
<title>FRESCOポイント&#45;&gt;FRESCO</title>
<path fill="none" stroke="#000000" d="M2186.7234,-145.774C2179.8041,-135.3449 2171.4743,-121.8209 2165.5,-109 2155.9995,-88.6119 2148.1657,-64.3742 2142.8883,-46.0412"/>
<polygon fill="#000000" stroke="#000000" points="2146.2183,-44.9528 2140.1543,-36.2649 2139.477,-46.8381 2146.2183,-44.9528"/>
</g>
<!-- ヨドバシゴールドポイント -->
<g id="node29" class="node">
<title>ヨドバシゴールドポイント</title>
<polygon fill="none" stroke="#000000" points="1705.5,-182 1517.5,-182 1517.5,-146 1705.5,-146 1705.5,-182"/>
<text text-anchor="middle" x="1611.5" y="-160.3" font-family="Times,serif" font-size="14.00" fill="#000000">ヨドバシゴールドポイント</text>
</g>
<!-- ヨドバシゴールドポイント&#45;&gt;ヨドバシカメラ -->
<g id="edge47" class="edge">
<title>ヨドバシゴールドポイント&#45;&gt;ヨドバシカメラ</title>
<path fill="none" stroke="#000000" d="M1598.5167,-145.9838C1591.6186,-135.6203 1583.5456,-122.0921 1578.5,-109 1570.7056,-88.7753 1566.1316,-64.6646 1563.5463,-46.3437"/>
<polygon fill="#000000" stroke="#000000" points="1567.0008,-45.7661 1562.2445,-36.2988 1560.0588,-46.6657 1567.0008,-45.7661"/>
</g>
<!-- 切符&#45;&gt;現金 -->
<g id="edge72" class="edge">
<title>切符&#45;&gt;現金</title>
<path fill="none" stroke="#000000" d="M800.906,-109.2226C798.9434,-137.0609 790.207,-190.3868 782.4738,-223.1136"/>
<polygon fill="#000000" stroke="#000000" points="779.0429,-222.4062 780.0081,-232.957 785.8331,-224.1071 779.0429,-222.4062"/>
</g>
<!-- 切符&#45;&gt;電車 -->
<g id="edge71" class="edge">
<title>切符&#45;&gt;電車</title>
<path fill="none" stroke="#000000" stroke-width="2" d="M804.4438,-72.9551C806.6794,-64.7951 809.3726,-54.9652 811.8593,-45.8887"/>
<polygon fill="#000000" stroke="#000000" stroke-width="2" points="815.2769,-46.6598 814.5437,-36.0904 808.5257,-44.8101 815.2769,-46.6598"/>
</g>
<!-- ぐるなびギフト券&#45;&gt;現金 -->
<g id="edge66" class="edge">
<title>ぐるなびギフト券&#45;&gt;現金</title>
<path fill="none" stroke="#000000" d="M666.16,-109.3772C682.8536,-134.6371 709.6825,-180.8359 739.5,-215 742.7246,-218.6946 746.3338,-222.3476 749.9744,-225.8287"/>
<polygon fill="#000000" stroke="#000000" points="747.6649,-228.4602 757.3785,-232.6906 752.4231,-223.326 747.6649,-228.4602"/>
</g>
<!-- 餃子の王将 -->
<g id="node47" class="node">
<title>餃子の王将</title>
<polygon fill="none" stroke="#000000" points="696.5,-36 608.5,-36 608.5,0 696.5,0 696.5,-36"/>
<text text-anchor="middle" x="652.5" y="-14.3" font-family="Times,serif" font-size="14.00" fill="#000000">餃子の王将</text>
</g>
<!-- ぐるなびギフト券&#45;&gt;餃子の王将 -->
<g id="edge65" class="edge">
<title>ぐるなびギフト券&#45;&gt;餃子の王将</title>
<path fill="none" stroke="#000000" stroke-width="2" d="M650.9944,-72.9551C651.2155,-64.8828 651.4815,-55.1764 651.7279,-46.1817"/>
<polygon fill="#000000" stroke="#000000" stroke-width="2" points="655.2291,-46.1825 652.0044,-36.0904 648.2317,-45.9907 655.2291,-46.1825"/>
</g>
<!-- ファミリーマート&#45;&gt;Tポイント -->
<g id="edge44" class="edge">
<title>ファミリーマート&#45;&gt;Tポイント</title>
<path fill="none" stroke="#000000" d="M1824.7959,-36.1968C1840.8415,-45.2995 1858.4255,-57.675 1870.5,-73 1884.9291,-91.3135 1893.1283,-116.6211 1897.6061,-135.8995"/>
<polygon fill="#000000" stroke="#000000" points="1894.2297,-136.8497 1899.7269,-145.9068 1901.0776,-135.3984 1894.2297,-136.8497"/>
<text text-anchor="middle" x="1908" y="-87.3" font-family="Times,serif" font-size="14.00" fill="#000000">0.5%</text>
</g>
<!-- 大阪地下鉄&#45;&gt;三井住友VISAカード -->
<g id="edge15" class="edge">
<title>大阪地下鉄&#45;&gt;三井住友VISAカード</title>
<path fill="none" stroke="#000000" d="M447.5526,-36.2766C446.1486,-51.028 444.5,-72.3261 444.5,-91 444.5,-251 444.5,-251 444.5,-251 444.5,-265.7348 445.5265,-282.1036 446.6492,-295.6007"/>
<polygon fill="#000000" stroke="#000000" points="443.1775,-296.0741 447.5526,-305.7234 450.1498,-295.4519 443.1775,-296.0741"/>
<text text-anchor="middle" x="460.5" y="-160.3" font-family="Times,serif" font-size="14.00" fill="#000000">10%</text>
</g>
<!-- ウェルシア&#45;&gt;Tポイント -->
<g id="edge49" class="edge">
<title>ウェルシア&#45;&gt;Tポイント</title>
<path fill="none" stroke="#000000" d="M1926.5449,-36.3648C1933.0248,-46.6186 1940.1675,-59.9311 1943.5,-73 1947.4534,-88.5039 1948.5375,-93.8137 1943.5,-109 1940.0333,-119.451 1933.7231,-129.5267 1927.0753,-138.1352"/>
<polygon fill="#000000" stroke="#000000" points="1924.3338,-135.9585 1920.6802,-145.9035 1929.7381,-140.4076 1924.3338,-135.9585"/>
<text text-anchor="middle" x="1958" y="-87.3" font-family="Times,serif" font-size="14.00" fill="#000000">1%</text>
</g>
<!-- ビックカメラ&#45;&gt;ビックポイント -->
<g id="edge20" class="edge">
<title>ビックカメラ&#45;&gt;ビックポイント</title>
<path fill="none" stroke="#000000" stroke-dasharray="5,2" d="M988.3198,-36.0965C979.6007,-46.0714 970.0747,-59.209 965.5,-73 958.706,-93.4815 962.7156,-117.714 968.0117,-136.0212"/>
<polygon fill="#000000" stroke="#000000" points="964.7495,-137.3123 971.1159,-145.781 971.4202,-135.1906 964.7495,-137.3123"/>
<text text-anchor="middle" x="984" y="-87.3" font-family="Times,serif" font-size="14.00" fill="#000000">9.5%</text>
</g>
<!-- ヨドバシカメラ&#45;&gt;ヨドバシゴールドポイント -->
<g id="edge46" class="edge">
<title>ヨドバシカメラ&#45;&gt;ヨドバシゴールドポイント</title>
<path fill="none" stroke="#000000" d="M1568.411,-36.2038C1570.7846,-41.8686 1573.3317,-48.1604 1575.5,-54 1585.7651,-81.6451 1596.0919,-113.7444 1603.0361,-136.1057"/>
<polygon fill="#000000" stroke="#000000" points="1599.7772,-137.4151 1606.0672,-145.9407 1606.4667,-135.3534 1599.7772,-137.4151"/>
<text text-anchor="middle" x="1609.5" y="-87.3" font-family="Times,serif" font-size="14.00" fill="#000000">10%</text>
</g>
<!-- FRESCO&#45;&gt;FRESCOポイント -->
<g id="edge62" class="edge">
<title>FRESCO&#45;&gt;FRESCOポイント</title>
<path fill="none" stroke="#000000" d="M2149.4609,-36.0934C2153.3573,-41.6477 2157.375,-47.9063 2160.5,-54 2174.2107,-80.7357 2185.1233,-113.4068 2191.879,-136.1662"/>
<polygon fill="#000000" stroke="#000000" points="2188.5447,-137.2353 2194.6856,-145.8689 2195.269,-135.2902 2188.5447,-137.2353"/>
<text text-anchor="middle" x="2201" y="-87.3" font-family="Times,serif" font-size="14.00" fill="#000000">0.5%</text>
</g>
<!-- 吉野家&#45;&gt;Tポイント -->
<g id="edge69" class="edge">
<title>吉野家&#45;&gt;Tポイント</title>
<path fill="none" stroke="#000000" d="M1702.0888,-31.6011C1715.3021,-37.9769 1730.9218,-45.9361 1744.5,-54 1789.8125,-80.9104 1839.2458,-116.4009 1870.5341,-139.6935"/>
<polygon fill="#000000" stroke="#000000" points="1868.7556,-142.734 1878.8593,-145.9224 1872.9492,-137.1292 1868.7556,-142.734"/>
<text text-anchor="middle" x="1845" y="-87.3" font-family="Times,serif" font-size="14.00" fill="#000000">0.5%</text>
</g>
<!-- Amazon&#45;&gt;Amazonポイント -->
<g id="edge54" class="edge">
<title>Amazon&#45;&gt;Amazonポイント</title>
<path fill="none" stroke="#000000" d="M2752.7497,-36.4251C2749.2122,-61.5749 2738.6113,-106.8666 2729.6091,-136.1666"/>
<polygon fill="#000000" stroke="#000000" points="2726.2394,-135.2127 2726.5058,-145.8042 2732.9025,-137.3583 2726.2394,-135.2127"/>
</g>
<!-- じゃらん&#45;&gt;Ponta -->
<g id="edge53" class="edge">
<title>じゃらん&#45;&gt;Ponta</title>
<path fill="none" stroke="#000000" d="M2531.4332,-36.043C2529.9315,-57.9443 2526.6614,-95.9286 2520.5,-128 2519.9898,-130.6556 2519.3806,-133.4009 2518.7182,-136.1363"/>
<polygon fill="#000000" stroke="#000000" points="2515.3296,-135.2603 2516.1675,-145.822 2522.0988,-137.043 2515.3296,-135.2603"/>
<text text-anchor="middle" x="2539" y="-87.3" font-family="Times,serif" font-size="14.00" fill="#000000">2%</text>
</g>
</g>
</svg>
