<?xml version="1.0" encoding="UTF-8" standalone="no"?>
<!DOCTYPE svg PUBLIC "-//W3C//DTD SVG 1.1//EN"
 "http://www.w3.org/Graphics/SVG/1.1/DTD/svg11.dtd">
<!-- Generated by graphviz version 2.40.1 (20161225.0304)
 -->
<!-- Title: MoneyFlow Pages: 1 -->
<svg width="1087pt" height="1923pt"
 viewBox="0.00 0.00 1087.00 1923.00" xmlns="http://www.w3.org/2000/svg" xmlns:xlink="http://www.w3.org/1999/xlink">
<g id="graph0" class="graph" transform="scale(1 1) rotate(0) translate(4 1919)">
<title>MoneyFlow</title>
<polygon fill="#ffffff" stroke="transparent" points="-4,4 -4,-1919 1083,-1919 1083,4 -4,4"/>
<!-- 収入 -->
<g id="node1" class="node">
<title>収入</title>
<text text-anchor="middle" x="27" y="-14.3" font-family="Times,serif" font-size="14.00" fill="#000000">収入</text>
</g>
<!-- 銀行口座 -->
<g id="node2" class="node">
<title>銀行口座</title>
<text text-anchor="middle" x="142" y="-14.3" font-family="Times,serif" font-size="14.00" fill="#000000">銀行口座</text>
</g>
<!-- 収入&#45;&gt;銀行口座 -->
<g id="edge1" class="edge">
<title>収入&#45;&gt;銀行口座</title>
<path fill="none" stroke="#000000" d="M54.2534,-18C69.3972,-18 88.4539,-18 104.9357,-18"/>
</g>
<!-- クレジットカード -->
<g id="node3" class="node">
<title>クレジットカード</title>
<text text-anchor="middle" x="322" y="-14.3" font-family="Times,serif" font-size="14.00" fill="#000000">クレジットカード</text>
</g>
<!-- 銀行口座&#45;&gt;クレジットカード -->
<g id="edge2" class="edge">
<title>銀行口座&#45;&gt;クレジットカード</title>
<path fill="none" stroke="#000000" d="M179.2961,-18C201.6417,-18 230.6798,-18 256.7236,-18"/>
</g>
<!-- マネー -->
<g id="node4" class="node">
<title>マネー</title>
<text text-anchor="middle" x="485" y="-14.3" font-family="Times,serif" font-size="14.00" fill="#000000">マネー</text>
</g>
<!-- クレジットカード&#45;&gt;マネー -->
<g id="edge3" class="edge">
<title>クレジットカード&#45;&gt;マネー</title>
<path fill="none" stroke="#000000" d="M387.3591,-18C410.9188,-18 436.353,-18 455.3549,-18"/>
</g>
<!-- ポイント -->
<g id="node5" class="node">
<title>ポイント</title>
<text text-anchor="middle" x="692" y="-14.3" font-family="Times,serif" font-size="14.00" fill="#000000">ポイント</text>
</g>
<!-- マネー&#45;&gt;ポイント -->
<g id="edge4" class="edge">
<title>マネー&#45;&gt;ポイント</title>
<path fill="none" stroke="#000000" d="M514.6581,-18C551.5493,-18 614.5569,-18 654.6899,-18"/>
</g>
<!-- 金券 -->
<g id="node6" class="node">
<title>金券</title>
<text text-anchor="middle" x="870" y="-14.3" font-family="Times,serif" font-size="14.00" fill="#000000">金券</text>
</g>
<!-- ポイント&#45;&gt;金券 -->
<g id="edge5" class="edge">
<title>ポイント&#45;&gt;金券</title>
<path fill="none" stroke="#000000" d="M729.3146,-18C763.262,-18 812.5623,-18 842.8847,-18"/>
</g>
<!-- 支出 -->
<g id="node7" class="node">
<title>支出</title>
<text text-anchor="middle" x="1013.5" y="-14.3" font-family="Times,serif" font-size="14.00" fill="#000000">支出</text>
</g>
<!-- 金券&#45;&gt;支出 -->
<g id="edge6" class="edge">
<title>金券&#45;&gt;支出</title>
<path fill="none" stroke="#000000" d="M897.329,-18C922.8631,-18 960.7716,-18 986.2727,-18"/>
</g>
<!-- 給与 -->
<g id="node8" class="node">
<title>給与</title>
<polygon fill="none" stroke="#000000" points="54,-1680 0,-1680 0,-1644 54,-1644 54,-1680"/>
<text text-anchor="middle" x="27" y="-1658.3" font-family="Times,serif" font-size="14.00" fill="#000000">給与</text>
</g>
<!-- 三井住友銀行 -->
<g id="node9" class="node">
<title>三井住友銀行</title>
<polygon fill="none" stroke="#000000" points="193,-1680 91,-1680 91,-1644 193,-1644 193,-1680"/>
<text text-anchor="middle" x="142" y="-1658.3" font-family="Times,serif" font-size="14.00" fill="#000000">三井住友銀行</text>
</g>
<!-- 給与&#45;&gt;三井住友銀行 -->
<g id="edge7" class="edge">
<title>給与&#45;&gt;三井住友銀行</title>
<path fill="none" stroke="#000000" stroke-width="2" d="M54.2534,-1662C62.2529,-1662 71.3442,-1662 80.571,-1662"/>
<polygon fill="#000000" stroke="#000000" stroke-width="2" points="80.5912,-1665.5001 90.5911,-1662 80.5911,-1658.5001 80.5912,-1665.5001"/>
</g>
<!-- 住信SBI銀行 -->
<g id="node10" class="node">
<title>住信SBI銀行</title>
<polygon fill="none" stroke="#000000" points="192,-1445 92,-1445 92,-1409 192,-1409 192,-1445"/>
<text text-anchor="middle" x="142" y="-1423.3" font-family="Times,serif" font-size="14.00" fill="#000000">住信SBI銀行</text>
</g>
<!-- 三井住友銀行&#45;&gt;住信SBI銀行 -->
<g id="edge9" class="edge">
<title>三井住友銀行&#45;&gt;住信SBI銀行</title>
<path fill="none" stroke="#000000" stroke-width="2" d="M142,-1643.8056C142,-1581.016 142,-1518.2263 142,-1455.4367"/>
<polygon fill="#000000" stroke="#000000" stroke-width="2" points="145.5001,-1455.3593 142,-1445.3594 138.5001,-1455.3594 145.5001,-1455.3593"/>
</g>
<!-- 三井住友VISAカード -->
<g id="node11" class="node">
<title>三井住友VISAカード</title>
<polygon fill="none" stroke="#000000" points="398.5,-1810 245.5,-1810 245.5,-1774 398.5,-1774 398.5,-1810"/>
<text text-anchor="middle" x="322" y="-1788.3" font-family="Times,serif" font-size="14.00" fill="#000000">三井住友VISAカード</text>
</g>
<!-- 三井住友銀行&#45;&gt;三井住友VISAカード -->
<g id="edge13" class="edge">
<title>三井住友銀行&#45;&gt;三井住友VISAカード</title>
<path fill="none" stroke="#000000" stroke-width="2" d="M156.1586,-1680.163C169.1835,-1696.0344 189.6623,-1718.9807 211,-1735 228.7912,-1748.3567 250.171,-1760.17 269.3972,-1769.5286"/>
<polygon fill="#000000" stroke="#000000" stroke-width="2" points="268.1032,-1772.7888 278.6374,-1773.9217 271.1089,-1766.4669 268.1032,-1772.7888"/>
</g>
<!-- 現金 -->
<g id="node16" class="node">
<title>現金</title>
<polygon fill="none" stroke="#000000" points="512,-1445 458,-1445 458,-1409 512,-1409 512,-1445"/>
<text text-anchor="middle" x="485" y="-1423.3" font-family="Times,serif" font-size="14.00" fill="#000000">現金</text>
</g>
<!-- 三井住友銀行&#45;&gt;現金 -->
<g id="edge8" class="edge">
<title>三井住友銀行&#45;&gt;現金</title>
<path fill="none" stroke="#000000" stroke-width="2" d="M188.5165,-1643.9164C245.6102,-1620.2502 343.5085,-1574.7773 414,-1516 435.4927,-1498.0789 454.9284,-1472.7591 468.0086,-1453.7053"/>
<polygon fill="#000000" stroke="#000000" stroke-width="2" points="471.0642,-1455.4329 473.7279,-1445.1784 465.2508,-1451.5336 471.0642,-1455.4329"/>
</g>
<!-- 関西電力 -->
<g id="node40" class="node">
<title>関西電力</title>
<polygon fill="none" stroke="#000000" points="1050.5,-1739 976.5,-1739 976.5,-1703 1050.5,-1703 1050.5,-1739"/>
<text text-anchor="middle" x="1013.5" y="-1717.3" font-family="Times,serif" font-size="14.00" fill="#000000">関西電力</text>
</g>
<!-- 三井住友銀行&#45;&gt;関西電力 -->
<g id="edge10" class="edge">
<title>三井住友銀行&#45;&gt;関西電力</title>
<path fill="none" stroke="#000000" stroke-width="2" d="M175.4353,-1680.0225C210.7948,-1697.3734 268.7248,-1721 322,-1721 322,-1721 322,-1721 870,-1721 902.0319,-1721 938.0858,-1721 966.0417,-1721"/>
<polygon fill="#000000" stroke="#000000" stroke-width="2" points="966.3343,-1724.5001 976.3343,-1721 966.3343,-1717.5001 966.3343,-1724.5001"/>
</g>
<!-- ビックカメラSuicaカード -->
<g id="node12" class="node">
<title>ビックカメラSuicaカード</title>
<polygon fill="none" stroke="#000000" points="414,-1507 230,-1507 230,-1471 414,-1471 414,-1507"/>
<text text-anchor="middle" x="322" y="-1485.3" font-family="Times,serif" font-size="14.00" fill="#000000">ビックカメラSuicaカード</text>
</g>
<!-- 住信SBI銀行&#45;&gt;ビックカメラSuicaカード -->
<g id="edge32" class="edge">
<title>住信SBI銀行&#45;&gt;ビックカメラSuicaカード</title>
<path fill="none" stroke="#000000" stroke-width="2" d="M192.14,-1444.2705C213.1627,-1451.5116 237.8216,-1460.0052 259.9709,-1467.6344"/>
<polygon fill="#000000" stroke="#000000" stroke-width="2" points="259.0244,-1471.0102 269.6191,-1470.9577 261.3041,-1464.3918 259.0244,-1471.0102"/>
</g>
<!-- リクルートカード -->
<g id="node13" class="node">
<title>リクルートカード</title>
<polygon fill="none" stroke="#000000" points="386.5,-938 257.5,-938 257.5,-902 386.5,-902 386.5,-938"/>
<text text-anchor="middle" x="322" y="-916.3" font-family="Times,serif" font-size="14.00" fill="#000000">リクルートカード</text>
</g>
<!-- 住信SBI銀行&#45;&gt;リクルートカード -->
<g id="edge33" class="edge">
<title>住信SBI銀行&#45;&gt;リクルートカード</title>
<path fill="none" stroke="#000000" stroke-width="2" d="M148.4063,-1408.9556C175.3589,-1333.0391 279.652,-1039.2801 312.2239,-947.5361"/>
<polygon fill="#000000" stroke="#000000" stroke-width="2" points="315.5293,-948.687 315.5767,-938.0922 308.9327,-946.3449 315.5293,-948.687"/>
</g>
<!-- 住信SBI銀行&#45;&gt;現金 -->
<g id="edge30" class="edge">
<title>住信SBI銀行&#45;&gt;現金</title>
<path fill="none" stroke="#000000" stroke-width="2" d="M192.2425,-1427C261.7234,-1427 385.5691,-1427 447.529,-1427"/>
<polygon fill="#000000" stroke="#000000" stroke-width="2" points="447.6386,-1430.5001 457.6385,-1427 447.6385,-1423.5001 447.6386,-1430.5001"/>
</g>
<!-- 家賃 -->
<g id="node30" class="node">
<title>家賃</title>
<polygon fill="none" stroke="#000000" points="1040.5,-90 986.5,-90 986.5,-54 1040.5,-54 1040.5,-90"/>
<text text-anchor="middle" x="1013.5" y="-68.3" font-family="Times,serif" font-size="14.00" fill="#000000">家賃</text>
</g>
<!-- 住信SBI銀行&#45;&gt;家賃 -->
<g id="edge31" class="edge">
<title>住信SBI銀行&#45;&gt;家賃</title>
<path fill="none" stroke="#000000" stroke-width="2" d="M142.4248,-1408.8699C146.4231,-1248.078 180.5041,-72 322,-72 322,-72 322,-72 870,-72 906.056,-72 947.208,-72 976.1703,-72"/>
<polygon fill="#000000" stroke="#000000" stroke-width="2" points="976.2571,-75.5001 986.257,-72 976.257,-68.5001 976.2571,-75.5001"/>
</g>
<!-- PiTaPa -->
<g id="node15" class="node">
<title>PiTaPa</title>
<polygon fill="none" stroke="#000000" points="517.5,-1836 452.5,-1836 452.5,-1800 517.5,-1800 517.5,-1836"/>
<text text-anchor="middle" x="485" y="-1814.3" font-family="Times,serif" font-size="14.00" fill="#000000">PiTaPa</text>
</g>
<!-- 三井住友VISAカード&#45;&gt;PiTaPa -->
<g id="edge15" class="edge">
<title>三井住友VISAカード&#45;&gt;PiTaPa</title>
<path fill="none" stroke="#000000" stroke-width="2" d="M398.727,-1804.2387C413.5824,-1806.6082 428.6499,-1809.0116 441.9463,-1811.1325"/>
<polygon fill="#000000" stroke="#000000" stroke-width="2" points="441.7657,-1814.6479 452.1922,-1812.7669 442.8684,-1807.7353 441.7657,-1814.6479"/>
</g>
<!-- ワールドプレゼントポイント -->
<g id="node21" class="node">
<title>ワールドプレゼントポイント</title>
<polygon fill="none" stroke="#000000" points="792,-1785 592,-1785 592,-1749 792,-1749 792,-1785"/>
<text text-anchor="middle" x="692" y="-1763.3" font-family="Times,serif" font-size="14.00" fill="#000000">ワールドプレゼントポイント</text>
</g>
<!-- 三井住友VISAカード&#45;&gt;ワールドプレゼントポイント -->
<g id="edge14" class="edge">
<title>三井住友VISAカード&#45;&gt;ワールドプレゼントポイント</title>
<path fill="none" stroke="#000000" stroke-dasharray="5,2" d="M398.6282,-1781.3941C415.8304,-1779.3205 434.0166,-1777.3678 451,-1776 493.7,-1772.5611 540.764,-1770.4334 581.8831,-1769.1181"/>
<polygon fill="#000000" stroke="#000000" points="582.0396,-1772.6151 591.9272,-1768.8091 581.8242,-1765.6184 582.0396,-1772.6151"/>
<text text-anchor="middle" x="485" y="-1779.8" font-family="Times,serif" font-size="14.00" fill="#000000">0.5%</text>
</g>
<!-- Suica -->
<g id="node14" class="node">
<title>Suica</title>
<polygon fill="none" stroke="#000000" points="513,-1340 457,-1340 457,-1304 513,-1304 513,-1340"/>
<text text-anchor="middle" x="485" y="-1318.3" font-family="Times,serif" font-size="14.00" fill="#000000">Suica</text>
</g>
<!-- ビックカメラSuicaカード&#45;&gt;Suica -->
<g id="edge24" class="edge">
<title>ビックカメラSuicaカード&#45;&gt;Suica</title>
<path fill="none" stroke="#000000" stroke-width="2" d="M338.8127,-1470.801C363.1548,-1444.5918 409.8136,-1394.8758 451,-1354 453.3014,-1351.716 455.7137,-1349.3645 458.146,-1347.0223"/>
<polygon fill="#000000" stroke="#000000" stroke-width="2" points="460.5855,-1349.5323 465.4123,-1340.1008 455.7575,-1344.4637 460.5855,-1349.5323"/>
</g>
<!-- JREポイント -->
<g id="node22" class="node">
<title>JREポイント</title>
<polygon fill="none" stroke="#000000" points="742.5,-1304 641.5,-1304 641.5,-1268 742.5,-1268 742.5,-1304"/>
<text text-anchor="middle" x="692" y="-1282.3" font-family="Times,serif" font-size="14.00" fill="#000000">JREポイント</text>
</g>
<!-- ビックカメラSuicaカード&#45;&gt;JREポイント -->
<g id="edge19" class="edge">
<title>ビックカメラSuicaカード&#45;&gt;JREポイント</title>
<path fill="none" stroke="#000000" d="M340.7963,-1470.8929C364.819,-1448.4786 408.412,-1410.1905 451,-1385 509.0334,-1350.6736 581.1937,-1322.7566 631.3535,-1305.4231"/>
<polygon fill="#000000" stroke="#000000" points="632.7505,-1308.6445 641.0814,-1302.0988 630.4869,-1302.0206 632.7505,-1308.6445"/>
<text text-anchor="middle" x="485" y="-1388.8" font-family="Times,serif" font-size="14.00" fill="#000000">0.5%</text>
</g>
<!-- ビックポイント -->
<g id="node23" class="node">
<title>ビックポイント</title>
<polygon fill="none" stroke="#000000" points="750,-1566 634,-1566 634,-1530 750,-1530 750,-1566"/>
<text text-anchor="middle" x="692" y="-1544.3" font-family="Times,serif" font-size="14.00" fill="#000000">ビックポイント</text>
</g>
<!-- ビックカメラSuicaカード&#45;&gt;ビックポイント -->
<g id="edge22" class="edge">
<title>ビックカメラSuicaカード&#45;&gt;ビックポイント</title>
<path fill="none" stroke="#000000" d="M390.0897,-1507.0414C403.8971,-1510.3243 418.3647,-1513.4966 432,-1516 496.5815,-1527.8572 571.0143,-1536.5181 623.6462,-1541.8167"/>
<polygon fill="#000000" stroke="#000000" points="623.5758,-1545.3268 633.8725,-1542.8315 624.2671,-1538.361 623.5758,-1545.3268"/>
<text text-anchor="middle" x="485" y="-1532.8" font-family="Times,serif" font-size="14.00" fill="#000000">0.5%</text>
</g>
<!-- ビックカメラ -->
<g id="node43" class="node">
<title>ビックカメラ</title>
<polygon fill="none" stroke="#000000" points="1064,-1647 963,-1647 963,-1611 1064,-1611 1064,-1647"/>
<text text-anchor="middle" x="1013.5" y="-1625.3" font-family="Times,serif" font-size="14.00" fill="#000000">ビックカメラ</text>
</g>
<!-- ビックカメラSuicaカード&#45;&gt;ビックカメラ -->
<g id="edge20" class="edge">
<title>ビックカメラSuicaカード&#45;&gt;ビックカメラ</title>
<path fill="none" stroke="#000000" stroke-width="2" stroke-dasharray="5,2" d="M331.7687,-1507.0159C353.7357,-1544.8277 410.952,-1629 485,-1629 485,-1629 485,-1629 870,-1629 897.042,-1629 926.9505,-1629 952.4331,-1629"/>
<polygon fill="#000000" stroke="#000000" stroke-width="2" points="952.6948,-1632.5001 962.6948,-1629 952.6947,-1625.5001 952.6948,-1632.5001"/>
</g>
<!-- EX予約 -->
<g id="node53" class="node">
<title>EX予約</title>
<polygon fill="none" stroke="#000000" points="1046.5,-1528 980.5,-1528 980.5,-1492 1046.5,-1492 1046.5,-1528"/>
<text text-anchor="middle" x="1013.5" y="-1506.3" font-family="Times,serif" font-size="14.00" fill="#000000">EX予約</text>
</g>
<!-- ビックカメラSuicaカード&#45;&gt;EX予約 -->
<g id="edge27" class="edge">
<title>ビックカメラSuicaカード&#45;&gt;EX予約</title>
<path fill="none" stroke="#000000" stroke-width="2" stroke-dasharray="5,2" d="M414.135,-1498.9192C437.2436,-1500.6985 462.0053,-1502 485,-1502 485,-1502 485,-1502 870,-1502 903.7786,-1502 941.9605,-1504.2371 970.4429,-1506.3453"/>
<polygon fill="#000000" stroke="#000000" stroke-width="2" points="970.2338,-1509.8395 980.4714,-1507.1118 970.7673,-1502.8598 970.2338,-1509.8395"/>
</g>
<!-- nanaco -->
<g id="node17" class="node">
<title>nanaco</title>
<polygon fill="none" stroke="#000000" points="519,-998 451,-998 451,-962 519,-962 519,-998"/>
<text text-anchor="middle" x="485" y="-976.3" font-family="Times,serif" font-size="14.00" fill="#000000">nanaco</text>
</g>
<!-- リクルートカード&#45;&gt;nanaco -->
<g id="edge57" class="edge">
<title>リクルートカード&#45;&gt;nanaco</title>
<path fill="none" stroke="#000000" stroke-width="2" d="M370.9054,-938.002C393.2685,-946.2338 419.5516,-955.9086 441.2515,-963.8963"/>
<polygon fill="#000000" stroke="#000000" stroke-width="2" points="440.2752,-967.2664 450.8686,-967.4363 442.6933,-960.6973 440.2752,-967.2664"/>
</g>
<!-- Edy -->
<g id="node18" class="node">
<title>Edy</title>
<polygon fill="none" stroke="#000000" points="512,-644 458,-644 458,-608 512,-608 512,-644"/>
<text text-anchor="middle" x="485" y="-622.3" font-family="Times,serif" font-size="14.00" fill="#000000">Edy</text>
</g>
<!-- リクルートカード&#45;&gt;Edy -->
<g id="edge41" class="edge">
<title>リクルートカード&#45;&gt;Edy</title>
<path fill="none" stroke="#000000" stroke-width="2" d="M332.1964,-901.609C359.9913,-851.4758 437.1917,-712.2309 469.9704,-653.1086"/>
<polygon fill="#000000" stroke="#000000" stroke-width="2" points="473.2277,-654.4516 475.0156,-644.0087 467.1057,-651.0574 473.2277,-654.4516"/>
</g>
<!-- Ponta -->
<g id="node19" class="node">
<title>Ponta</title>
<polygon fill="none" stroke="#000000" points="720.5,-938 663.5,-938 663.5,-902 720.5,-902 720.5,-938"/>
<text text-anchor="middle" x="692" y="-916.3" font-family="Times,serif" font-size="14.00" fill="#000000">Ponta</text>
</g>
<!-- リクルートカード&#45;&gt;Ponta -->
<g id="edge52" class="edge">
<title>リクルートカード&#45;&gt;Ponta</title>
<path fill="none" stroke="#000000" d="M386.8725,-920C463.8692,-920 589.7769,-920 653.0772,-920"/>
<polygon fill="#000000" stroke="#000000" points="653.4131,-923.5001 663.4131,-920 653.413,-916.5001 653.4131,-923.5001"/>
<text text-anchor="middle" x="485" y="-923.8" font-family="Times,serif" font-size="14.00" fill="#000000">1.2%</text>
</g>
<!-- NHK -->
<g id="node37" class="node">
<title>NHK</title>
<polygon fill="none" stroke="#000000" points="1040.5,-260 986.5,-260 986.5,-224 1040.5,-224 1040.5,-260"/>
<text text-anchor="middle" x="1013.5" y="-238.3" font-family="Times,serif" font-size="14.00" fill="#000000">NHK</text>
</g>
<!-- リクルートカード&#45;&gt;NHK -->
<g id="edge34" class="edge">
<title>リクルートカード&#45;&gt;NHK</title>
<path fill="none" stroke="#000000" stroke-width="2" d="M322.4588,-901.9498C325.6297,-795.8504 348.4385,-258 485,-258 485,-258 485,-258 870,-258 906.2794,-258 947.4022,-252.8863 976.2969,-248.4408"/>
<polygon fill="#000000" stroke="#000000" stroke-width="2" points="977.0298,-251.8684 986.3574,-246.8439 975.9324,-244.9549 977.0298,-251.8684"/>
</g>
<!-- NTT -->
<g id="node38" class="node">
<title>NTT</title>
<polygon fill="none" stroke="#000000" points="1040.5,-144 986.5,-144 986.5,-108 1040.5,-108 1040.5,-144"/>
<text text-anchor="middle" x="1013.5" y="-122.3" font-family="Times,serif" font-size="14.00" fill="#000000">NTT</text>
</g>
<!-- リクルートカード&#45;&gt;NTT -->
<g id="edge35" class="edge">
<title>リクルートカード&#45;&gt;NTT</title>
<path fill="none" stroke="#000000" stroke-width="2" d="M324.5838,-901.9994C335.8809,-823.8215 382.5797,-506.0432 432,-247 443.0023,-189.3297 426.2896,-126 485,-126 485,-126 485,-126 870,-126 906.056,-126 947.208,-126 976.1703,-126"/>
<polygon fill="#000000" stroke="#000000" stroke-width="2" points="976.2571,-129.5001 986.257,-126 976.257,-122.5001 976.2571,-129.5001"/>
</g>
<!-- ASAHIネット -->
<g id="node39" class="node">
<title>ASAHIネット</title>
<polygon fill="none" stroke="#000000" points="1068,-1222 959,-1222 959,-1186 1068,-1186 1068,-1222"/>
<text text-anchor="middle" x="1013.5" y="-1200.3" font-family="Times,serif" font-size="14.00" fill="#000000">ASAHIネット</text>
</g>
<!-- リクルートカード&#45;&gt;ASAHIネット -->
<g id="edge36" class="edge">
<title>リクルートカード&#45;&gt;ASAHIネット</title>
<path fill="none" stroke="#000000" stroke-width="2" d="M324.2675,-938.2145C332.8325,-998.0856 368.8711,-1185 485,-1185 485,-1185 485,-1185 870,-1185 895.9528,-1185 924.3191,-1188.092 948.9283,-1191.7813"/>
<polygon fill="#000000" stroke="#000000" stroke-width="2" points="948.4497,-1195.2489 958.87,-1193.3337 949.5297,-1188.3327 948.4497,-1195.2489"/>
</g>
<!-- アイハート -->
<g id="node41" class="node">
<title>アイハート</title>
<polygon fill="none" stroke="#000000" points="1056.5,-1114 970.5,-1114 970.5,-1078 1056.5,-1078 1056.5,-1114"/>
<text text-anchor="middle" x="1013.5" y="-1092.3" font-family="Times,serif" font-size="14.00" fill="#000000">アイハート</text>
</g>
<!-- リクルートカード&#45;&gt;アイハート -->
<g id="edge40" class="edge">
<title>リクルートカード&#45;&gt;アイハート</title>
<path fill="none" stroke="#000000" stroke-width="2" d="M328.6647,-938.1722C346.4592,-983.1399 399.6241,-1096 485,-1096 485,-1096 485,-1096 870,-1096 899.9333,-1096 933.3788,-1096 960.4461,-1096"/>
<polygon fill="#000000" stroke="#000000" stroke-width="2" points="960.487,-1099.5001 970.4869,-1096 960.4869,-1092.5001 960.487,-1099.5001"/>
</g>
<!-- Amazon -->
<g id="node51" class="node">
<title>Amazon</title>
<polygon fill="none" stroke="#000000" points="1050.5,-198 976.5,-198 976.5,-162 1050.5,-162 1050.5,-198"/>
<text text-anchor="middle" x="1013.5" y="-176.3" font-family="Times,serif" font-size="14.00" fill="#000000">Amazon</text>
</g>
<!-- リクルートカード&#45;&gt;Amazon -->
<g id="edge38" class="edge">
<title>リクルートカード&#45;&gt;Amazon</title>
<path fill="none" stroke="#000000" stroke-width="2" d="M323.9355,-901.6868C336.3763,-786.2334 407.0418,-164 485,-164 485,-164 485,-164 870,-164 902.3724,-164 938.6012,-168.0716 966.5576,-172.1069"/>
<polygon fill="#000000" stroke="#000000" stroke-width="2" points="966.0535,-175.5704 976.4605,-173.5844 967.0865,-168.647 966.0535,-175.5704"/>
</g>
<!-- iTunes -->
<g id="node52" class="node">
<title>iTunes</title>
<polygon fill="none" stroke="#000000" points="1046,-1060 981,-1060 981,-1024 1046,-1024 1046,-1060"/>
<text text-anchor="middle" x="1013.5" y="-1038.3" font-family="Times,serif" font-size="14.00" fill="#000000">iTunes</text>
</g>
<!-- リクルートカード&#45;&gt;iTunes -->
<g id="edge37" class="edge">
<title>リクルートカード&#45;&gt;iTunes</title>
<path fill="none" stroke="#000000" stroke-width="2" stroke-dasharray="5,2" d="M332.004,-938.0411C354.2262,-975.4476 411.5846,-1058 485,-1058 485,-1058 485,-1058 870,-1058 904.0469,-1058 942.3593,-1053.4963 970.8276,-1049.2678"/>
<polygon fill="#000000" stroke="#000000" stroke-width="2" points="971.4907,-1052.7071 980.8443,-1047.7312 970.4292,-1045.788 971.4907,-1052.7071"/>
</g>
<!-- じゃらん -->
<g id="node54" class="node">
<title>じゃらん</title>
<polygon fill="none" stroke="#000000" points="1050.5,-876 976.5,-876 976.5,-840 1050.5,-840 1050.5,-876"/>
<text text-anchor="middle" x="1013.5" y="-854.3" font-family="Times,serif" font-size="14.00" fill="#000000">じゃらん</text>
</g>
<!-- リクルートカード&#45;&gt;じゃらん -->
<g id="edge39" class="edge">
<title>リクルートカード&#45;&gt;じゃらん</title>
<path fill="none" stroke="#000000" stroke-width="2" d="M343.6291,-901.9092C373.4481,-878.8672 429.7857,-842 485,-842 485,-842 485,-842 810.5,-842 863.9483,-842 925.0684,-847.5805 966.157,-852.15"/>
<polygon fill="#000000" stroke="#000000" stroke-width="2" points="965.8236,-855.6346 976.1549,-853.286 966.6139,-848.6794 965.8236,-855.6346"/>
</g>
<!-- Suica&#45;&gt;JREポイント -->
<g id="edge28" class="edge">
<title>Suica&#45;&gt;JREポイント</title>
<path fill="none" stroke="#000000" d="M493.6339,-1303.8576C502.198,-1288.2045 516.9412,-1266.6407 537,-1257 572.1074,-1240.1265 616.0696,-1250.9672 648.1993,-1263.9279"/>
<polygon fill="#000000" stroke="#000000" points="647.1952,-1267.3039 657.7678,-1267.9899 649.9306,-1260.8605 647.1952,-1267.3039"/>
<text text-anchor="middle" x="555.5" y="-1260.8" font-family="Times,serif" font-size="14.00" fill="#000000">1.5%</text>
</g>
<!-- 電車 -->
<g id="node34" class="node">
<title>電車</title>
<polygon fill="none" stroke="#000000" points="1040.5,-1411 986.5,-1411 986.5,-1375 1040.5,-1375 1040.5,-1411"/>
<text text-anchor="middle" x="1013.5" y="-1389.3" font-family="Times,serif" font-size="14.00" fill="#000000">電車</text>
</g>
<!-- Suica&#45;&gt;電車 -->
<g id="edge25" class="edge">
<title>Suica&#45;&gt;電車</title>
<path fill="none" stroke="#000000" stroke-width="2" d="M513.0015,-1324.5789C567.0535,-1329.6726 689.4874,-1341.7725 792,-1356 857.0675,-1365.0306 932.4356,-1378.2019 976.3584,-1386.1513"/>
<polygon fill="#000000" stroke="#000000" stroke-width="2" points="975.8295,-1389.6125 986.2943,-1387.9577 977.0817,-1382.7253 975.8295,-1389.6125"/>
</g>
<!-- 松屋 -->
<g id="node49" class="node">
<title>松屋</title>
<polygon fill="none" stroke="#000000" points="1040.5,-1276 986.5,-1276 986.5,-1240 1040.5,-1240 1040.5,-1276"/>
<text text-anchor="middle" x="1013.5" y="-1254.3" font-family="Times,serif" font-size="14.00" fill="#000000">松屋</text>
</g>
<!-- Suica&#45;&gt;松屋 -->
<g id="edge26" class="edge">
<title>Suica&#45;&gt;松屋</title>
<path fill="none" stroke="#000000" stroke-width="2" d="M491.4088,-1303.7821C499.0485,-1285.1806 513.7809,-1257.3375 537,-1245 683.5964,-1167.106 893.0213,-1219.2658 976.8036,-1245.4914"/>
<polygon fill="#000000" stroke="#000000" stroke-width="2" points="975.7946,-1248.8433 986.3854,-1248.5506 977.9237,-1242.1749 975.7946,-1248.8433"/>
</g>
<!-- 大阪地下鉄 -->
<g id="node35" class="node">
<title>大阪地下鉄</title>
<polygon fill="none" stroke="#000000" points="1057.5,-1915 969.5,-1915 969.5,-1879 1057.5,-1879 1057.5,-1915"/>
<text text-anchor="middle" x="1013.5" y="-1893.3" font-family="Times,serif" font-size="14.00" fill="#000000">大阪地下鉄</text>
</g>
<!-- PiTaPa&#45;&gt;大阪地下鉄 -->
<g id="edge16" class="edge">
<title>PiTaPa&#45;&gt;大阪地下鉄</title>
<path fill="none" stroke="#000000" stroke-width="2" d="M517.5506,-1816.2087C573.916,-1813.7394 693.1448,-1811.3082 792,-1828 850.8306,-1837.9336 915.7408,-1859.4739 959.9972,-1875.8628"/>
<polygon fill="#000000" stroke="#000000" stroke-width="2" points="958.8026,-1879.1528 969.395,-1879.3806 961.2566,-1872.597 958.8026,-1879.1528"/>
</g>
<!-- 山陽バス -->
<g id="node36" class="node">
<title>山陽バス</title>
<polygon fill="none" stroke="#000000" points="1050.5,-1861 976.5,-1861 976.5,-1825 1050.5,-1825 1050.5,-1861"/>
<text text-anchor="middle" x="1013.5" y="-1839.3" font-family="Times,serif" font-size="14.00" fill="#000000">山陽バス</text>
</g>
<!-- PiTaPa&#45;&gt;山陽バス -->
<g id="edge18" class="edge">
<title>PiTaPa&#45;&gt;山陽バス</title>
<path fill="none" stroke="#000000" stroke-width="2" stroke-dasharray="5,2" d="M517.6369,-1824.3558C524.0351,-1825.4014 530.7114,-1826.3533 537,-1827 693.5019,-1843.0935 880.284,-1844.1093 966.1086,-1843.5652"/>
<polygon fill="#000000" stroke="#000000" stroke-width="2" points="966.3373,-1847.0637 976.3111,-1843.4899 966.2856,-1840.0639 966.3373,-1847.0637"/>
</g>
<!-- 切符 -->
<g id="node29" class="node">
<title>切符</title>
<polygon fill="none" stroke="#000000" points="897,-1435 843,-1435 843,-1399 897,-1399 897,-1435"/>
<text text-anchor="middle" x="870" y="-1413.3" font-family="Times,serif" font-size="14.00" fill="#000000">切符</text>
</g>
<!-- 現金&#45;&gt;切符 -->
<g id="edge69" class="edge">
<title>現金&#45;&gt;切符</title>
<path fill="none" stroke="#000000" stroke-width="2" d="M512.0725,-1422.6294C579.5862,-1416.9498 755.5126,-1412.2044 832.7373,-1413.7729"/>
<polygon fill="#000000" stroke="#000000" stroke-width="2" points="832.8705,-1417.2775 842.9575,-1414.0367 833.0511,-1410.2798 832.8705,-1417.2775"/>
</g>
<!-- 飲食店 -->
<g id="node46" class="node">
<title>飲食店</title>
<polygon fill="none" stroke="#000000" points="1043,-1474 984,-1474 984,-1438 1043,-1438 1043,-1474"/>
<text text-anchor="middle" x="1013.5" y="-1452.3" font-family="Times,serif" font-size="14.00" fill="#000000">飲食店</text>
</g>
<!-- 現金&#45;&gt;飲食店 -->
<g id="edge66" class="edge">
<title>現金&#45;&gt;飲食店</title>
<path fill="none" stroke="#000000" stroke-width="2" d="M512.1542,-1440.8077C519.9759,-1444.1398 528.6547,-1447.2434 537,-1449 695.8057,-1482.4276 891.0007,-1468.7391 973.5871,-1460.512"/>
<polygon fill="#000000" stroke="#000000" stroke-width="2" points="974.1948,-1463.9681 983.7855,-1459.466 973.4805,-1457.0046 974.1948,-1463.9681"/>
</g>
<!-- 吉野家 -->
<g id="node50" class="node">
<title>吉野家</title>
<polygon fill="none" stroke="#000000" points="1043,-1168 984,-1168 984,-1132 1043,-1132 1043,-1168"/>
<text text-anchor="middle" x="1013.5" y="-1146.3" font-family="Times,serif" font-size="14.00" fill="#000000">吉野家</text>
</g>
<!-- 現金&#45;&gt;吉野家 -->
<g id="edge67" class="edge">
<title>現金&#45;&gt;吉野家</title>
<path fill="none" stroke="#000000" stroke-width="2" d="M512.4173,-1422.8811C578.4318,-1412.6149 744.2751,-1384.6474 792,-1356 882.4793,-1301.6889 862.2645,-1238.5275 948,-1177 956.0099,-1171.2518 965.4253,-1166.4562 974.5808,-1162.5802"/>
<polygon fill="#000000" stroke="#000000" stroke-width="2" points="975.9454,-1165.8044 983.9579,-1158.8725 973.3715,-1159.2947 975.9454,-1165.8044"/>
</g>
<!-- nanacoポイント -->
<g id="node25" class="node">
<title>nanacoポイント</title>
<polygon fill="none" stroke="#000000" points="754.5,-992 629.5,-992 629.5,-956 754.5,-956 754.5,-992"/>
<text text-anchor="middle" x="692" y="-970.3" font-family="Times,serif" font-size="14.00" fill="#000000">nanacoポイント</text>
</g>
<!-- nanaco&#45;&gt;nanacoポイント -->
<g id="edge59" class="edge">
<title>nanaco&#45;&gt;nanacoポイント</title>
<path fill="none" stroke="#000000" d="M519.1691,-964.8372C525.0136,-962.8324 531.1038,-961.0948 537,-960 563.6181,-955.0576 593.1449,-956.1289 619.2255,-959.2635"/>
<polygon fill="#000000" stroke="#000000" points="619.0419,-962.7696 629.4146,-960.6116 619.9601,-955.8301 619.0419,-962.7696"/>
<text text-anchor="middle" x="555.5" y="-963.8" font-family="Times,serif" font-size="14.00" fill="#000000">1%</text>
</g>
<!-- セブンイレブン -->
<g id="node32" class="node">
<title>セブンイレブン</title>
<polygon fill="none" stroke="#000000" points="1070.5,-1006 956.5,-1006 956.5,-970 1070.5,-970 1070.5,-1006"/>
<text text-anchor="middle" x="1013.5" y="-984.3" font-family="Times,serif" font-size="14.00" fill="#000000">セブンイレブン</text>
</g>
<!-- nanaco&#45;&gt;セブンイレブン -->
<g id="edge58" class="edge">
<title>nanaco&#45;&gt;セブンイレブン</title>
<path fill="none" stroke="#000000" stroke-width="2" d="M519.4198,-988.805C540.2617,-993.6221 567.4709,-999.0063 592,-1001 716.8633,-1011.1486 863.1213,-1001.9223 946.3877,-994.6878"/>
<polygon fill="#000000" stroke="#000000" stroke-width="2" points="946.8196,-998.1633 956.4717,-993.7945 946.2018,-991.1906 946.8196,-998.1633"/>
</g>
<!-- Edy&#45;&gt;Ponta -->
<g id="edge51" class="edge">
<title>Edy&#45;&gt;Ponta</title>
<path fill="none" stroke="#000000" d="M485.7238,-644.2177C488.0091,-680.6034 497.5096,-763.4527 537,-818 566.6997,-859.0236 618.3803,-888.1296 653.8417,-904.4836"/>
<polygon fill="#000000" stroke="#000000" points="652.8248,-907.8631 663.3818,-908.7574 655.6866,-901.4749 652.8248,-907.8631"/>
<text text-anchor="middle" x="555.5" y="-858.8" font-family="Times,serif" font-size="14.00" fill="#000000">0.5%</text>
</g>
<!-- ローソン -->
<g id="node31" class="node">
<title>ローソン</title>
<polygon fill="none" stroke="#000000" points="1050,-822 977,-822 977,-786 1050,-786 1050,-822"/>
<text text-anchor="middle" x="1013.5" y="-800.3" font-family="Times,serif" font-size="14.00" fill="#000000">ローソン</text>
</g>
<!-- Edy&#45;&gt;ローソン -->
<g id="edge42" class="edge">
<title>Edy&#45;&gt;ローソン</title>
<path fill="none" stroke="#000000" stroke-width="2" d="M490.9813,-644.1662C503.4589,-678.7649 535.8655,-753.4716 592,-785 654.9312,-820.3458 870.7522,-812.5324 966.7804,-807.0621"/>
<polygon fill="#000000" stroke="#000000" stroke-width="2" points="967.0091,-810.5548 976.7871,-806.4757 966.5995,-803.5668 967.0091,-810.5548"/>
</g>
<!-- ファミリーマート -->
<g id="node33" class="node">
<title>ファミリーマート</title>
<polygon fill="none" stroke="#000000" points="1079,-714 948,-714 948,-678 1079,-678 1079,-714"/>
<text text-anchor="middle" x="1013.5" y="-692.3" font-family="Times,serif" font-size="14.00" fill="#000000">ファミリーマート</text>
</g>
<!-- Edy&#45;&gt;ファミリーマート -->
<g id="edge44" class="edge">
<title>Edy&#45;&gt;ファミリーマート</title>
<path fill="none" stroke="#000000" stroke-width="2" d="M512.2173,-636.1602C520.1142,-638.7619 528.8162,-641.3015 537,-643 700.465,-676.9265 745.5386,-655.7662 911,-678 919.6518,-679.1626 928.6889,-680.5275 937.6578,-681.977"/>
<polygon fill="#000000" stroke="#000000" stroke-width="2" points="937.2936,-685.4642 947.7308,-683.6431 938.436,-678.558 937.2936,-685.4642"/>
</g>
<!-- ウェルシア -->
<g id="node42" class="node">
<title>ウェルシア</title>
<polygon fill="none" stroke="#000000" points="1057,-660 970,-660 970,-624 1057,-624 1057,-660"/>
<text text-anchor="middle" x="1013.5" y="-638.3" font-family="Times,serif" font-size="14.00" fill="#000000">ウェルシア</text>
</g>
<!-- Edy&#45;&gt;ウェルシア -->
<g id="edge49" class="edge">
<title>Edy&#45;&gt;ウェルシア</title>
<path fill="none" stroke="#000000" stroke-width="2" d="M512.3016,-626.8265C595.7253,-629.3521 848.3558,-637.0004 959.7526,-640.3728"/>
<polygon fill="#000000" stroke="#000000" stroke-width="2" points="959.6618,-643.8716 969.7631,-640.6759 959.8737,-636.8748 959.6618,-643.8716"/>
</g>
<!-- ヨドバシカメラ -->
<g id="node44" class="node">
<title>ヨドバシカメラ</title>
<polygon fill="none" stroke="#000000" points="1071.5,-552 955.5,-552 955.5,-516 1071.5,-516 1071.5,-552"/>
<text text-anchor="middle" x="1013.5" y="-530.3" font-family="Times,serif" font-size="14.00" fill="#000000">ヨドバシカメラ</text>
</g>
<!-- Edy&#45;&gt;ヨドバシカメラ -->
<g id="edge46" class="edge">
<title>Edy&#45;&gt;ヨドバシカメラ</title>
<path fill="none" stroke="#000000" stroke-width="2" d="M512.1282,-618.7477C533.675,-613.1478 564.6283,-605.4587 592,-600 715.7707,-575.3165 861.5115,-554.2522 945.143,-542.9246"/>
<polygon fill="#000000" stroke="#000000" stroke-width="2" points="945.8346,-546.3631 955.2773,-541.5584 944.8993,-539.4258 945.8346,-546.3631"/>
</g>
<!-- 餃子の王将 -->
<g id="node45" class="node">
<title>餃子の王将</title>
<polygon fill="none" stroke="#000000" points="1057.5,-314 969.5,-314 969.5,-278 1057.5,-278 1057.5,-314"/>
<text text-anchor="middle" x="1013.5" y="-292.3" font-family="Times,serif" font-size="14.00" fill="#000000">餃子の王将</text>
</g>
<!-- Edy&#45;&gt;餃子の王将 -->
<g id="edge65" class="edge">
<title>Edy&#45;&gt;餃子の王将</title>
<path fill="none" stroke="#000000" stroke-width="2" d="M486.1642,-607.8996C489.3947,-566.5642 500.7722,-462.7989 537,-385 553.85,-348.8149 556.5431,-332.3329 592,-314 654.445,-281.7129 860.2306,-287.7251 959.2848,-292.7539"/>
<polygon fill="#000000" stroke="#000000" stroke-width="2" points="959.2199,-296.2552 969.3891,-293.2824 959.5856,-289.2648 959.2199,-296.2552"/>
</g>
<!-- FRESCO -->
<g id="node47" class="node">
<title>FRESCO</title>
<polygon fill="none" stroke="#000000" points="1053.5,-368 973.5,-368 973.5,-332 1053.5,-332 1053.5,-368"/>
<text text-anchor="middle" x="1013.5" y="-346.3" font-family="Times,serif" font-size="14.00" fill="#000000">FRESCO</text>
</g>
<!-- Edy&#45;&gt;FRESCO -->
<g id="edge62" class="edge">
<title>Edy&#45;&gt;FRESCO</title>
<path fill="none" stroke="#000000" stroke-width="2" d="M486.3498,-607.9009C491.0079,-559.8589 510.9345,-428.9147 592,-372 704.521,-293.0009 878.5153,-317.9819 963.4347,-336.9625"/>
<polygon fill="#000000" stroke="#000000" stroke-width="2" points="962.809,-340.4098 973.3391,-339.24 964.3778,-333.5879 962.809,-340.4098"/>
</g>
<!-- 業務スーパー -->
<g id="node48" class="node">
<title>業務スーパー</title>
<polygon fill="none" stroke="#000000" points="1064,-606 963,-606 963,-570 1064,-570 1064,-606"/>
<text text-anchor="middle" x="1013.5" y="-584.3" font-family="Times,serif" font-size="14.00" fill="#000000">業務スーパー</text>
</g>
<!-- Edy&#45;&gt;業務スーパー -->
<g id="edge61" class="edge">
<title>Edy&#45;&gt;業務スーパー</title>
<path fill="none" stroke="#000000" stroke-width="2" d="M512.3016,-624.037C594.0652,-618.158 838.3688,-600.5922 952.9374,-592.3545"/>
<polygon fill="#000000" stroke="#000000" stroke-width="2" points="953.225,-595.843 962.9482,-591.6348 952.7229,-588.861 953.225,-595.843"/>
</g>
<!-- Ponta&#45;&gt;じゃらん -->
<g id="edge53" class="edge">
<title>Ponta&#45;&gt;じゃらん</title>
<path fill="none" stroke="#000000" d="M720.5735,-927.2441C740.6425,-932.4468 768.0673,-939.7869 792,-947 808.426,-951.9506 811.986,-955.7988 829,-958 865.1432,-962.6761 874.8568,-962.6761 911,-958 919.6598,-956.8796 922.572,-957.5903 930,-953 957.9097,-935.7526 981.6844,-906.2767 996.6436,-884.7218"/>
<polygon fill="#000000" stroke="#000000" points="999.6227,-886.564 1002.3124,-876.3163 993.8192,-882.65 999.6227,-886.564"/>
</g>
<!-- Tポイント -->
<g id="node20" class="node">
<title>Tポイント</title>
<polygon fill="none" stroke="#000000" points="733.5,-776 650.5,-776 650.5,-740 733.5,-740 733.5,-776"/>
<text text-anchor="middle" x="692" y="-754.3" font-family="Times,serif" font-size="14.00" fill="#000000">Tポイント</text>
</g>
<!-- JREポイント&#45;&gt;Suica -->
<g id="edge29" class="edge">
<title>JREポイント&#45;&gt;Suica</title>
<path fill="none" stroke="#000000" d="M641.3466,-1294.8093C605.0141,-1301.128 556.8076,-1309.5117 523.5773,-1315.2909"/>
<polygon fill="#000000" stroke="#000000" points="522.6008,-1311.9081 513.3484,-1317.0698 523.8003,-1318.8046 522.6008,-1311.9081"/>
</g>
<!-- ビックポイント&#45;&gt;ビックカメラ -->
<g id="edge23" class="edge">
<title>ビックポイント&#45;&gt;ビックカメラ</title>
<path fill="none" stroke="#000000" d="M750.3835,-1549.4807C795.2125,-1551.9738 858.1784,-1558.4417 911,-1575 934.1962,-1582.2715 958.3359,-1594.7129 977.3582,-1605.822"/>
<polygon fill="#000000" stroke="#000000" points="975.6065,-1608.8526 985.9868,-1610.9741 979.1952,-1602.8424 975.6065,-1608.8526"/>
</g>
<!-- Amazonポイント -->
<g id="node24" class="node">
<title>Amazonポイント</title>
<polygon fill="none" stroke="#000000" points="757.5,-229 626.5,-229 626.5,-193 757.5,-193 757.5,-229"/>
<text text-anchor="middle" x="692" y="-207.3" font-family="Times,serif" font-size="14.00" fill="#000000">Amazonポイント</text>
</g>
<!-- Amazonポイント&#45;&gt;Amazon -->
<g id="edge56" class="edge">
<title>Amazonポイント&#45;&gt;Amazon</title>
<path fill="none" stroke="#000000" d="M757.8361,-199.0811C819.7945,-191.3501 911.0617,-182.756 966.1408,-179.6142"/>
<polygon fill="#000000" stroke="#000000" points="966.5204,-183.0992 976.3218,-179.0764 966.151,-176.1089 966.5204,-183.0992"/>
</g>
<!-- nanacoポイント&#45;&gt;nanaco -->
<g id="edge60" class="edge">
<title>nanacoポイント&#45;&gt;nanaco</title>
<path fill="none" stroke="#000000" d="M629.3139,-975.817C597.0937,-976.7509 558.5899,-977.867 529.4606,-978.7113"/>
<polygon fill="#000000" stroke="#000000" points="529.0762,-975.2209 519.1818,-979.0092 529.2791,-982.2179 529.0762,-975.2209"/>
</g>
<!-- FRESCOポイント -->
<g id="node26" class="node">
<title>FRESCOポイント</title>
<polygon fill="none" stroke="#000000" points="760.5,-417 623.5,-417 623.5,-381 760.5,-381 760.5,-417"/>
<text text-anchor="middle" x="692" y="-395.3" font-family="Times,serif" font-size="14.00" fill="#000000">FRESCOポイント</text>
</g>
<!-- FRESCOポイント&#45;&gt;FRESCO -->
<g id="edge64" class="edge">
<title>FRESCOポイント&#45;&gt;FRESCO</title>
<path fill="none" stroke="#000000" d="M760.5755,-388.5484C821.3863,-379.2802 908.7777,-365.9608 963.2883,-357.6528"/>
<polygon fill="#000000" stroke="#000000" points="964.0436,-361.0782 973.4021,-356.1113 962.9889,-354.1581 964.0436,-361.0782"/>
</g>
<!-- ヨドバシゴールドポイント -->
<g id="node27" class="node">
<title>ヨドバシゴールドポイント</title>
<polygon fill="none" stroke="#000000" points="786,-506 598,-506 598,-470 786,-470 786,-506"/>
<text text-anchor="middle" x="692" y="-484.3" font-family="Times,serif" font-size="14.00" fill="#000000">ヨドバシゴールドポイント</text>
</g>
<!-- ヨドバシゴールドポイント&#45;&gt;ヨドバシカメラ -->
<g id="edge48" class="edge">
<title>ヨドバシゴールドポイント&#45;&gt;ヨドバシカメラ</title>
<path fill="none" stroke="#000000" d="M786.0614,-490.5014C824.967,-492.666 870.3909,-496.6594 911,-504 923.795,-506.3128 937.2714,-509.6096 950.0957,-513.1778"/>
<polygon fill="#000000" stroke="#000000" points="949.176,-516.5551 959.7534,-515.9475 951.1058,-509.8263 949.176,-516.5551"/>
</g>
<!-- はぴeポイント -->
<g id="node28" class="node">
<title>はぴeポイント</title>
<polygon fill="none" stroke="#000000" points="747,-1693 637,-1693 637,-1657 747,-1657 747,-1693"/>
<text text-anchor="middle" x="692" y="-1671.3" font-family="Times,serif" font-size="14.00" fill="#000000">はぴeポイント</text>
</g>
<!-- はぴeポイント&#45;&gt;Ponta -->
<g id="edge12" class="edge">
<title>はぴeポイント&#45;&gt;Ponta</title>
<path fill="none" stroke="#000000" d="M665.7121,-1656.9604C642.0491,-1639.1262 608.5316,-1609.5502 592,-1575 537.3024,-1460.685 568.2875,-1418.0452 561.5,-1291.5 557.3836,-1214.7553 542.5067,-1005.7971 592,-947 606.8286,-929.3839 631.8415,-922.6354 653.1408,-920.2902"/>
<polygon fill="#000000" stroke="#000000" points="653.5562,-923.768 663.2376,-919.4643 652.9855,-916.7913 653.5562,-923.768"/>
<text text-anchor="middle" x="555.5" y="-1280.3" font-family="Times,serif" font-size="14.00" fill="#000000">80%</text>
</g>
<!-- 切符&#45;&gt;現金 -->
<g id="edge71" class="edge">
<title>切符&#45;&gt;現金</title>
<path fill="none" stroke="#000000" d="M842.9575,-1421.3681C775.4757,-1427.048 599.5508,-1431.7944 522.2969,-1430.2277"/>
<polygon fill="#000000" stroke="#000000" points="522.1593,-1426.7231 512.0725,-1429.9642 521.9789,-1433.7208 522.1593,-1426.7231"/>
</g>
<!-- 切符&#45;&gt;電車 -->
<g id="edge70" class="edge">
<title>切符&#45;&gt;電車</title>
<path fill="none" stroke="#000000" stroke-width="2" d="M897.329,-1412.4293C919.6714,-1408.6926 951.4878,-1403.3714 976.1766,-1399.2422"/>
<polygon fill="#000000" stroke="#000000" stroke-width="2" points="976.9871,-1402.6554 986.2727,-1397.5537 975.8323,-1395.7513 976.9871,-1402.6554"/>
</g>
<!-- ローソン&#45;&gt;Ponta -->
<g id="edge43" class="edge">
<title>ローソン&#45;&gt;Ponta</title>
<path fill="none" stroke="#000000" d="M976.7667,-817.2537C915.3098,-839.4279 792.2696,-883.8218 729.9866,-906.2941"/>
<polygon fill="#000000" stroke="#000000" points="728.7495,-903.0195 720.531,-909.7058 731.1253,-909.604 728.7495,-903.0195"/>
<text text-anchor="middle" x="870" y="-874.8" font-family="Times,serif" font-size="14.00" fill="#000000">1%</text>
</g>
<!-- ファミリーマート&#45;&gt;Tポイント -->
<g id="edge45" class="edge">
<title>ファミリーマート&#45;&gt;Tポイント</title>
<path fill="none" stroke="#000000" d="M963.6887,-714.0227C947.1036,-719.4881 928.417,-725.0766 911,-729 854.4205,-741.7452 788.2682,-749.5521 743.5951,-753.8077"/>
<polygon fill="#000000" stroke="#000000" points="743.1954,-750.3297 733.5613,-754.7382 743.8418,-757.2997 743.1954,-750.3297"/>
<text text-anchor="middle" x="870" y="-747.8" font-family="Times,serif" font-size="14.00" fill="#000000">0.5%</text>
</g>
<!-- 大阪地下鉄&#45;&gt;三井住友VISAカード -->
<g id="edge17" class="edge">
<title>大阪地下鉄&#45;&gt;三井住友VISAカード</title>
<path fill="none" stroke="#000000" d="M969.2184,-1897C940.8543,-1897 903.2591,-1897 870,-1897 485,-1897 485,-1897 485,-1897 426.66,-1897 372.6045,-1848.8752 343.7714,-1817.7867"/>
<polygon fill="#000000" stroke="#000000" points="346.2984,-1815.3628 336.9971,-1810.2896 341.1045,-1820.0559 346.2984,-1815.3628"/>
<text text-anchor="middle" x="692" y="-1900.8" font-family="Times,serif" font-size="14.00" fill="#000000">10%</text>
</g>
<!-- 関西電力&#45;&gt;はぴeポイント -->
<g id="edge11" class="edge">
<title>関西電力&#45;&gt;はぴeポイント</title>
<path fill="none" stroke="#000000" d="M976.4286,-1708.5915C957.1329,-1702.6249 933.0293,-1695.9312 911,-1692 859.909,-1682.8826 801.2487,-1678.6546 757.5052,-1676.6942"/>
<polygon fill="#000000" stroke="#000000" points="757.4218,-1673.1877 747.2838,-1676.2651 757.1281,-1680.1816 757.4218,-1673.1877"/>
<text text-anchor="middle" x="870" y="-1695.8" font-family="Times,serif" font-size="14.00" fill="#000000">0.8%, 0.5%</text>
</g>
<!-- ウェルシア&#45;&gt;Tポイント -->
<g id="edge50" class="edge">
<title>ウェルシア&#45;&gt;Tポイント</title>
<path fill="none" stroke="#000000" d="M969.8163,-657.7615C910.8694,-679.03 806.0432,-716.8522 743.3821,-739.4609"/>
<polygon fill="#000000" stroke="#000000" points="741.9195,-736.2677 733.7009,-742.9539 744.2953,-742.8522 741.9195,-736.2677"/>
<text text-anchor="middle" x="870" y="-712.8" font-family="Times,serif" font-size="14.00" fill="#000000">1%</text>
</g>
<!-- ビックカメラ&#45;&gt;ビックポイント -->
<g id="edge21" class="edge">
<title>ビックカメラ&#45;&gt;ビックポイント</title>
<path fill="none" stroke="#000000" stroke-dasharray="5,2" d="M962.7841,-1614.1893C946.3077,-1609.5015 927.9139,-1604.3986 911,-1600 860.6503,-1586.9061 803.4418,-1573.368 760.1248,-1563.3888"/>
<polygon fill="#000000" stroke="#000000" points="760.7947,-1559.9516 750.2649,-1561.1235 759.2273,-1566.7739 760.7947,-1559.9516"/>
<text text-anchor="middle" x="870" y="-1603.8" font-family="Times,serif" font-size="14.00" fill="#000000">9.5%</text>
</g>
<!-- ヨドバシカメラ&#45;&gt;ヨドバシゴールドポイント -->
<g id="edge47" class="edge">
<title>ヨドバシカメラ&#45;&gt;ヨドバシゴールドポイント</title>
<path fill="none" stroke="#000000" d="M955.1091,-525.6455C910.8979,-519.3198 848.9992,-510.4633 796.3462,-502.9298"/>
<polygon fill="#000000" stroke="#000000" points="796.6832,-499.4424 786.2883,-501.4907 795.6917,-506.3719 796.6832,-499.4424"/>
<text text-anchor="middle" x="870" y="-523.8" font-family="Times,serif" font-size="14.00" fill="#000000">10%</text>
</g>
<!-- FRESCO&#45;&gt;FRESCOポイント -->
<g id="edge63" class="edge">
<title>FRESCO&#45;&gt;FRESCOポイント</title>
<path fill="none" stroke="#000000" d="M979.0921,-368.0845C964.3751,-374.9528 946.7509,-382.0635 930,-386 877.8335,-398.2592 817.5431,-401.4422 770.6966,-401.5945"/>
<polygon fill="#000000" stroke="#000000" points="770.6146,-398.0945 760.6101,-401.5815 770.6055,-405.0945 770.6146,-398.0945"/>
<text text-anchor="middle" x="870" y="-403.8" font-family="Times,serif" font-size="14.00" fill="#000000">0.5%</text>
</g>
<!-- 吉野家&#45;&gt;Tポイント -->
<g id="edge68" class="edge">
<title>吉野家&#45;&gt;Tポイント</title>
<path fill="none" stroke="#000000" d="M983.6943,-1141.7952C965.8687,-1135.5792 943.8674,-1125.4265 929,-1110 849.8515,-1027.8751 856.4339,-987.113 792,-893 765.5345,-854.3442 732.9141,-811.0526 712.28,-784.1589"/>
<polygon fill="#000000" stroke="#000000" points="714.8972,-781.8207 706.0248,-776.03 709.3495,-786.0897 714.8972,-781.8207"/>
<text text-anchor="middle" x="870" y="-1094.8" font-family="Times,serif" font-size="14.00" fill="#000000">0.5%</text>
</g>
<!-- Amazon&#45;&gt;Amazonポイント -->
<g id="edge55" class="edge">
<title>Amazon&#45;&gt;Amazonポイント</title>
<path fill="none" stroke="#000000" d="M976.3218,-188.0932C925.658,-195.4257 833.7405,-204.7321 768.13,-209.4978"/>
<polygon fill="#000000" stroke="#000000" points="767.5655,-206.0288 757.8361,-210.2227 768.0573,-213.0115 767.5655,-206.0288"/>
</g>
<!-- じゃらん&#45;&gt;Ponta -->
<g id="edge54" class="edge">
<title>じゃらん&#45;&gt;Ponta</title>
<path fill="none" stroke="#000000" d="M983.7295,-876.0319C963.8767,-887.0824 936.7823,-900.3449 911,-907 849.374,-922.9073 774.8889,-923.5867 730.5899,-922.1404"/>
<polygon fill="#000000" stroke="#000000" points="730.6657,-918.6409 720.5399,-921.7583 730.3997,-925.6358 730.6657,-918.6409"/>
<text text-anchor="middle" x="870" y="-923.8" font-family="Times,serif" font-size="14.00" fill="#000000">2%</text>
</g>
</g>
</svg>
