<?xml version="1.0" encoding="UTF-8" standalone="no"?>
<!DOCTYPE svg PUBLIC "-//W3C//DTD SVG 1.1//EN"
 "http://www.w3.org/Graphics/SVG/1.1/DTD/svg11.dtd">
<!-- Generated by graphviz version 2.40.1 (0)
 -->
<!-- Title: MoneyFlow Pages: 1 -->
<svg width="1077pt" height="2065pt"
 viewBox="0.00 0.00 1077.00 2065.00" xmlns="http://www.w3.org/2000/svg" xmlns:xlink="http://www.w3.org/1999/xlink">
<g id="graph0" class="graph" transform="scale(1 1) rotate(0) translate(4 2061)">
<title>MoneyFlow</title>
<polygon fill="#ffffff" stroke="transparent" points="-4,4 -4,-2061 1073,-2061 1073,4 -4,4"/>
<!-- 収入 -->
<g id="node1" class="node">
<title>収入</title>
<text text-anchor="middle" x="29.5" y="-14.3" font-family="Times,serif" font-size="14.00" fill="#000000">収入</text>
</g>
<!-- 銀行口座 -->
<g id="node2" class="node">
<title>銀行口座</title>
<text text-anchor="middle" x="147" y="-14.3" font-family="Times,serif" font-size="14.00" fill="#000000">銀行口座</text>
</g>
<!-- 収入&#45;&gt;銀行口座 -->
<g id="edge1" class="edge">
<title>収入&#45;&gt;銀行口座</title>
<path fill="none" stroke="#000000" d="M56.7522,-18C72.4805,-18 92.4849,-18 109.6608,-18"/>
</g>
<!-- クレジットカード -->
<g id="node3" class="node">
<title>クレジットカード</title>
<text text-anchor="middle" x="327" y="-14.3" font-family="Times,serif" font-size="14.00" fill="#000000">クレジットカード</text>
</g>
<!-- 銀行口座&#45;&gt;クレジットカード -->
<g id="edge2" class="edge">
<title>銀行口座&#45;&gt;クレジットカード</title>
<path fill="none" stroke="#000000" d="M184.2961,-18C206.6417,-18 235.6798,-18 261.7236,-18"/>
</g>
<!-- マネー -->
<g id="node4" class="node">
<title>マネー</title>
<text text-anchor="middle" x="493" y="-14.3" font-family="Times,serif" font-size="14.00" fill="#000000">マネー</text>
</g>
<!-- クレジットカード&#45;&gt;マネー -->
<g id="edge3" class="edge">
<title>クレジットカード&#45;&gt;マネー</title>
<path fill="none" stroke="#000000" d="M392.1312,-18C416.6557,-18 443.3653,-18 463.1353,-18"/>
</g>
<!-- ポイント -->
<g id="node5" class="node">
<title>ポイント</title>
<text text-anchor="middle" x="697" y="-14.3" font-family="Times,serif" font-size="14.00" fill="#000000">ポイント</text>
</g>
<!-- マネー&#45;&gt;ポイント -->
<g id="edge4" class="edge">
<title>マネー&#45;&gt;ポイント</title>
<path fill="none" stroke="#000000" d="M522.6634,-18C558.9092,-18 620.2629,-18 659.6797,-18"/>
</g>
<!-- 金券 -->
<g id="node6" class="node">
<title>金券</title>
<text text-anchor="middle" x="872" y="-14.3" font-family="Times,serif" font-size="14.00" fill="#000000">金券</text>
</g>
<!-- ポイント&#45;&gt;金券 -->
<g id="edge5" class="edge">
<title>ポイント&#45;&gt;金券</title>
<path fill="none" stroke="#000000" d="M734.113,-18C767.3227,-18 815.2221,-18 844.9381,-18"/>
</g>
<!-- 支出 -->
<g id="node7" class="node">
<title>支出</title>
<text text-anchor="middle" x="1011" y="-14.3" font-family="Times,serif" font-size="14.00" fill="#000000">支出</text>
</g>
<!-- 金券&#45;&gt;支出 -->
<g id="edge6" class="edge">
<title>金券&#45;&gt;支出</title>
<path fill="none" stroke="#000000" d="M899.1306,-18C923.6227,-18 959.4669,-18 983.9379,-18"/>
</g>
<!-- 給与 -->
<g id="node8" class="node">
<title>給与</title>
<polygon fill="none" stroke="#000000" points="56.5,-1940 2.5,-1940 2.5,-1904 56.5,-1904 56.5,-1940"/>
<text text-anchor="middle" x="29.5" y="-1918.3" font-family="Times,serif" font-size="14.00" fill="#000000">給与</text>
</g>
<!-- 三井住友銀行 -->
<g id="node11" class="node">
<title>三井住友銀行</title>
<polygon fill="none" stroke="#000000" points="198,-1940 96,-1940 96,-1904 198,-1904 198,-1940"/>
<text text-anchor="middle" x="147" y="-1918.3" font-family="Times,serif" font-size="14.00" fill="#000000">三井住友銀行</text>
</g>
<!-- 給与&#45;&gt;三井住友銀行 -->
<g id="edge7" class="edge">
<title>給与&#45;&gt;三井住友銀行</title>
<path fill="none" stroke="#000000" stroke-width="2" d="M56.7522,-1922C65.4977,-1922 75.5652,-1922 85.7334,-1922"/>
<polygon fill="#000000" stroke="#000000" stroke-width="2" points="85.89,-1925.5001 95.89,-1922 85.89,-1918.5001 85.89,-1925.5001"/>
</g>
<!-- 譲渡 -->
<g id="node9" class="node">
<title>譲渡</title>
<polygon fill="none" stroke="#000000" points="56.5,-1397 2.5,-1397 2.5,-1361 56.5,-1361 56.5,-1397"/>
<text text-anchor="middle" x="29.5" y="-1375.3" font-family="Times,serif" font-size="14.00" fill="#000000">譲渡</text>
</g>
<!-- メルペイ -->
<g id="node21" class="node">
<title>メルペイ</title>
<polygon fill="none" stroke="#000000" points="530,-1401 456,-1401 456,-1365 530,-1365 530,-1401"/>
<text text-anchor="middle" x="493" y="-1379.3" font-family="Times,serif" font-size="14.00" fill="#000000">メルペイ</text>
</g>
<!-- 譲渡&#45;&gt;メルペイ -->
<g id="edge76" class="edge">
<title>譲渡&#45;&gt;メルペイ</title>
<path fill="none" stroke="#000000" stroke-width="2" d="M56.7636,-1379.2353C133.0593,-1379.8937 349.4249,-1381.7609 445.7447,-1382.5922"/>
<polygon fill="#000000" stroke="#000000" stroke-width="2" points="445.753,-1386.0923 455.7829,-1382.6788 445.8135,-1379.0926 445.753,-1386.0923"/>
</g>
<!-- 雑収入 -->
<g id="node10" class="node">
<title>雑収入</title>
<polygon fill="none" stroke="#000000" points="59,-364 0,-364 0,-328 59,-328 59,-364"/>
<text text-anchor="middle" x="29.5" y="-342.3" font-family="Times,serif" font-size="14.00" fill="#000000">雑収入</text>
</g>
<!-- 楽天ポイント -->
<g id="node24" class="node">
<title>楽天ポイント</title>
<polygon fill="none" stroke="#000000" points="748,-414 646,-414 646,-378 748,-378 748,-414"/>
<text text-anchor="middle" x="697" y="-392.3" font-family="Times,serif" font-size="14.00" fill="#000000">楽天ポイント</text>
</g>
<!-- 雑収入&#45;&gt;楽天ポイント -->
<g id="edge80" class="edge">
<title>雑収入&#45;&gt;楽天ポイント</title>
<path fill="none" stroke="#000000" stroke-width="2" d="M59.4425,-346C83.1876,-346 117.217,-346 147,-346 147,-346 147,-346 493,-346 544.2048,-346 600.6145,-361.0439 641.1128,-374.6278"/>
<polygon fill="#000000" stroke="#000000" stroke-width="2" points="640.1994,-378.0146 650.794,-377.9489 642.4708,-371.3934 640.1994,-378.0146"/>
</g>
<!-- 住信SBI銀行 -->
<g id="node12" class="node">
<title>住信SBI銀行</title>
<polygon fill="none" stroke="#000000" points="197,-1754 97,-1754 97,-1718 197,-1718 197,-1754"/>
<text text-anchor="middle" x="147" y="-1732.3" font-family="Times,serif" font-size="14.00" fill="#000000">住信SBI銀行</text>
</g>
<!-- 三井住友銀行&#45;&gt;住信SBI銀行 -->
<g id="edge9" class="edge">
<title>三井住友銀行&#45;&gt;住信SBI銀行</title>
<path fill="none" stroke="#000000" stroke-width="2" d="M147,-1903.9707C147,-1857.4488 147,-1810.9268 147,-1764.4048"/>
<polygon fill="#000000" stroke="#000000" stroke-width="2" points="150.5001,-1764.164 147,-1754.1641 143.5001,-1764.1641 150.5001,-1764.164"/>
</g>
<!-- 現金 -->
<g id="node17" class="node">
<title>現金</title>
<polygon fill="none" stroke="#000000" points="520,-1988 466,-1988 466,-1952 520,-1952 520,-1988"/>
<text text-anchor="middle" x="493" y="-1966.3" font-family="Times,serif" font-size="14.00" fill="#000000">現金</text>
</g>
<!-- 三井住友銀行&#45;&gt;現金 -->
<g id="edge8" class="edge">
<title>三井住友銀行&#45;&gt;現金</title>
<path fill="none" stroke="#000000" stroke-width="2" d="M198.0535,-1929.0826C268.4226,-1938.8448 393.5607,-1956.205 455.7632,-1964.8342"/>
<polygon fill="#000000" stroke="#000000" stroke-width="2" points="455.5179,-1968.3336 465.904,-1966.241 456.4799,-1961.4 455.5179,-1968.3336"/>
</g>
<!-- PayPay -->
<g id="node20" class="node">
<title>PayPay</title>
<polygon fill="none" stroke="#000000" points="527,-2057 459,-2057 459,-2021 527,-2021 527,-2057"/>
<text text-anchor="middle" x="493" y="-2035.3" font-family="Times,serif" font-size="14.00" fill="#000000">PayPay</text>
</g>
<!-- 三井住友銀行&#45;&gt;PayPay -->
<g id="edge10" class="edge">
<title>三井住友銀行&#45;&gt;PayPay</title>
<path fill="none" stroke="#000000" stroke-width="2" d="M185.1276,-1940.1298C200.4516,-1947.0908 218.3933,-1954.8366 235,-1961 308.8249,-1988.3991 397.0761,-2013.4811 448.8871,-2027.4528"/>
<polygon fill="#000000" stroke="#000000" stroke-width="2" points="448.1831,-2030.8876 458.7483,-2030.0965 449.9957,-2024.1264 448.1831,-2030.8876"/>
</g>
<!-- ビックカメラSuicaカード -->
<g id="node13" class="node">
<title>ビックカメラSuicaカード</title>
<polygon fill="none" stroke="#000000" points="419,-1661 235,-1661 235,-1625 419,-1625 419,-1661"/>
<text text-anchor="middle" x="327" y="-1639.3" font-family="Times,serif" font-size="14.00" fill="#000000">ビックカメラSuicaカード</text>
</g>
<!-- 住信SBI銀行&#45;&gt;ビックカメラSuicaカード -->
<g id="edge25" class="edge">
<title>住信SBI銀行&#45;&gt;ビックカメラSuicaカード</title>
<path fill="none" stroke="#000000" stroke-width="2" d="M182.1331,-1717.8479C210.8761,-1702.9973 251.6925,-1681.9089 282.6789,-1665.8992"/>
<polygon fill="#000000" stroke="#000000" stroke-width="2" points="284.6778,-1668.8061 291.9555,-1661.1063 281.4646,-1662.5871 284.6778,-1668.8061"/>
</g>
<!-- リクルートカード -->
<g id="node14" class="node">
<title>リクルートカード</title>
<polygon fill="none" stroke="#000000" points="391.5,-555 262.5,-555 262.5,-519 391.5,-519 391.5,-555"/>
<text text-anchor="middle" x="327" y="-533.3" font-family="Times,serif" font-size="14.00" fill="#000000">リクルートカード</text>
</g>
<!-- 住信SBI銀行&#45;&gt;リクルートカード -->
<g id="edge26" class="edge">
<title>住信SBI銀行&#45;&gt;リクルートカード</title>
<path fill="none" stroke="#000000" stroke-width="2" d="M149.7553,-1717.6464C170.1622,-1581.7141 297.7149,-732.0712 322.7418,-565.364"/>
<polygon fill="#000000" stroke="#000000" stroke-width="2" points="326.2163,-565.7946 324.2398,-555.3858 319.2939,-564.7553 326.2163,-565.7946"/>
</g>
<!-- PiTaPa -->
<g id="node15" class="node">
<title>PiTaPa</title>
<polygon fill="none" stroke="#000000" points="359.5,-1852 294.5,-1852 294.5,-1816 359.5,-1816 359.5,-1852"/>
<text text-anchor="middle" x="327" y="-1830.3" font-family="Times,serif" font-size="14.00" fill="#000000">PiTaPa</text>
</g>
<!-- 住信SBI銀行&#45;&gt;PiTaPa -->
<g id="edge27" class="edge">
<title>住信SBI銀行&#45;&gt;PiTaPa</title>
<path fill="none" stroke="#000000" stroke-width="2" d="M180.4348,-1754.2034C210.0459,-1770.325 253.3953,-1793.9263 285.2712,-1811.281"/>
<polygon fill="#000000" stroke="#000000" stroke-width="2" points="283.8949,-1814.5167 294.3512,-1816.2245 287.2421,-1808.3689 283.8949,-1814.5167"/>
</g>
<!-- 住信SBI銀行&#45;&gt;現金 -->
<g id="edge23" class="edge">
<title>住信SBI銀行&#45;&gt;現金</title>
<path fill="none" stroke="#000000" stroke-width="2" d="M155.4656,-1754.3119C168.7816,-1781.2459 197.0646,-1831.5303 235,-1861 304.0963,-1914.6768 339.2621,-1894.981 419,-1931 431.6556,-1936.7168 445.1817,-1943.6043 457.1621,-1949.9903"/>
<polygon fill="#000000" stroke="#000000" stroke-width="2" points="455.5195,-1953.081 465.9823,-1954.7483 458.8429,-1946.9202 455.5195,-1953.081"/>
</g>
<!-- 株主優待券 -->
<g id="node32" class="node">
<title>株主優待券</title>
<polygon fill="none" stroke="#000000" points="916,-1754 828,-1754 828,-1718 916,-1718 916,-1754"/>
<text text-anchor="middle" x="872" y="-1732.3" font-family="Times,serif" font-size="14.00" fill="#000000">株主優待券</text>
</g>
<!-- 住信SBI銀行&#45;&gt;株主優待券 -->
<g id="edge28" class="edge">
<title>住信SBI銀行&#45;&gt;株主優待券</title>
<path fill="none" stroke="#000000" stroke-width="2" d="M197.0462,-1728.4878C233.1633,-1727 283.0938,-1727 327,-1727 327,-1727 327,-1727 697,-1727 737.3368,-1727 782.9034,-1727 817.4262,-1728.2554"/>
<polygon fill="#000000" stroke="#000000" stroke-width="2" points="817.6304,-1731.7669 827.7676,-1728.6867 817.9222,-1724.7729 817.6304,-1731.7669"/>
</g>
<!-- 家賃 -->
<g id="node34" class="node">
<title>家賃</title>
<polygon fill="none" stroke="#000000" points="1038,-1447 984,-1447 984,-1411 1038,-1411 1038,-1447"/>
<text text-anchor="middle" x="1011" y="-1425.3" font-family="Times,serif" font-size="14.00" fill="#000000">家賃</text>
</g>
<!-- 住信SBI銀行&#45;&gt;家賃 -->
<g id="edge24" class="edge">
<title>住信SBI銀行&#45;&gt;家賃</title>
<path fill="none" stroke="#000000" stroke-width="2" d="M148.8176,-1717.7151C156.4854,-1651.6237 192.3101,-1429 327,-1429 327,-1429 327,-1429 872,-1429 906.4512,-1429 945.7054,-1429 973.6918,-1429"/>
<polygon fill="#000000" stroke="#000000" stroke-width="2" points="973.8327,-1432.5001 983.8326,-1429 973.8326,-1425.5001 973.8327,-1432.5001"/>
</g>
<!-- Suica -->
<g id="node16" class="node">
<title>Suica</title>
<polygon fill="none" stroke="#000000" points="521,-1661 465,-1661 465,-1625 521,-1625 521,-1661"/>
<text text-anchor="middle" x="493" y="-1639.3" font-family="Times,serif" font-size="14.00" fill="#000000">Suica</text>
</g>
<!-- ビックカメラSuicaカード&#45;&gt;Suica -->
<g id="edge17" class="edge">
<title>ビックカメラSuicaカード&#45;&gt;Suica</title>
<path fill="none" stroke="#000000" stroke-width="2" d="M419.2233,-1643C431.6484,-1643 443.7944,-1643 454.5288,-1643"/>
<polygon fill="#000000" stroke="#000000" stroke-width="2" points="454.7508,-1646.5001 464.7507,-1643 454.7507,-1639.5001 454.7508,-1646.5001"/>
</g>
<!-- JREポイント -->
<g id="node25" class="node">
<title>JREポイント</title>
<polygon fill="none" stroke="#000000" points="747.5,-1585 646.5,-1585 646.5,-1549 747.5,-1549 747.5,-1585"/>
<text text-anchor="middle" x="697" y="-1563.3" font-family="Times,serif" font-size="14.00" fill="#000000">JREポイント</text>
</g>
<!-- ビックカメラSuicaカード&#45;&gt;JREポイント -->
<g id="edge12" class="edge">
<title>ビックカメラSuicaカード&#45;&gt;JREポイント</title>
<path fill="none" stroke="#000000" d="M359.8143,-1624.9043C401.9068,-1602.8223 477.8692,-1566.7325 548,-1553 576.7139,-1547.3775 608.9982,-1549.4107 636.1555,-1553.4522"/>
<polygon fill="#000000" stroke="#000000" points="635.8648,-1556.9505 646.2946,-1555.0877 636.9796,-1550.0398 635.8648,-1556.9505"/>
<text text-anchor="middle" x="493" y="-1584.8" font-family="Times,serif" font-size="14.00" fill="#000000">0.5%</text>
</g>
<!-- ビックポイント -->
<g id="node26" class="node">
<title>ビックポイント</title>
<polygon fill="none" stroke="#000000" points="755,-1531 639,-1531 639,-1495 755,-1495 755,-1531"/>
<text text-anchor="middle" x="697" y="-1509.3" font-family="Times,serif" font-size="14.00" fill="#000000">ビックポイント</text>
</g>
<!-- ビックカメラSuicaカード&#45;&gt;ビックポイント -->
<g id="edge15" class="edge">
<title>ビックカメラSuicaカード&#45;&gt;ビックポイント</title>
<path fill="none" stroke="#000000" d="M342.8341,-1624.9716C365.3018,-1600.7512 408.9629,-1558.4994 456,-1539 510.9846,-1516.2059 578.7776,-1510.6626 628.4416,-1510.266"/>
<polygon fill="#000000" stroke="#000000" points="628.7567,-1513.7658 638.753,-1510.2551 628.7493,-1506.7658 628.7567,-1513.7658"/>
<text text-anchor="middle" x="493" y="-1542.8" font-family="Times,serif" font-size="14.00" fill="#000000">0.5%</text>
</g>
<!-- ビックカメラ -->
<g id="node46" class="node">
<title>ビックカメラ</title>
<polygon fill="none" stroke="#000000" points="1061.5,-1501 960.5,-1501 960.5,-1465 1061.5,-1465 1061.5,-1501"/>
<text text-anchor="middle" x="1011" y="-1479.3" font-family="Times,serif" font-size="14.00" fill="#000000">ビックカメラ</text>
</g>
<!-- ビックカメラSuicaカード&#45;&gt;ビックカメラ -->
<g id="edge13" class="edge">
<title>ビックカメラSuicaカード&#45;&gt;ビックカメラ</title>
<path fill="none" stroke="#000000" stroke-width="2" stroke-dasharray="5,2" d="M341.557,-1624.7281C363.816,-1597.7591 408.7291,-1547.0389 456,-1515 500.3232,-1484.959 512.9555,-1467 566.5,-1467 566.5,-1467 566.5,-1467 872,-1467 897.7184,-1467 925.9389,-1469.7367 950.193,-1472.9464"/>
<polygon fill="#000000" stroke="#000000" stroke-width="2" points="949.9413,-1476.4448 960.3259,-1474.3444 950.8981,-1469.5105 949.9413,-1476.4448"/>
</g>
<!-- EX予約 -->
<g id="node55" class="node">
<title>EX予約</title>
<polygon fill="none" stroke="#000000" points="1044,-1707 978,-1707 978,-1671 1044,-1671 1044,-1707"/>
<text text-anchor="middle" x="1011" y="-1685.3" font-family="Times,serif" font-size="14.00" fill="#000000">EX予約</text>
</g>
<!-- ビックカメラSuicaカード&#45;&gt;EX予約 -->
<g id="edge20" class="edge">
<title>ビックカメラSuicaカード&#45;&gt;EX予約</title>
<path fill="none" stroke="#000000" stroke-width="2" stroke-dasharray="5,2" d="M368.0843,-1661.0484C401.1576,-1673.9356 449.1885,-1689 493,-1689 493,-1689 493,-1689 872,-1689 904.0974,-1689 940.3639,-1689 967.8028,-1689"/>
<polygon fill="#000000" stroke="#000000" stroke-width="2" points="967.8597,-1692.5001 977.8597,-1689 967.8597,-1685.5001 967.8597,-1692.5001"/>
</g>
<!-- nanaco -->
<g id="node18" class="node">
<title>nanaco</title>
<polygon fill="none" stroke="#000000" points="527,-310 459,-310 459,-274 527,-274 527,-310"/>
<text text-anchor="middle" x="493" y="-288.3" font-family="Times,serif" font-size="14.00" fill="#000000">nanaco</text>
</g>
<!-- リクルートカード&#45;&gt;nanaco -->
<g id="edge59" class="edge">
<title>リクルートカード&#45;&gt;nanaco</title>
<path fill="none" stroke="#000000" stroke-width="2" d="M338.6467,-518.801C358.471,-487.942 400.2053,-423.488 437,-370 448.9259,-352.6635 462.7058,-333.4599 473.6121,-318.4453"/>
<polygon fill="#000000" stroke="#000000" stroke-width="2" points="476.6069,-320.2785 479.6657,-310.1348 470.9488,-316.157 476.6069,-320.2785"/>
</g>
<!-- Edy -->
<g id="node19" class="node">
<title>Edy</title>
<polygon fill="none" stroke="#000000" points="520,-720 466,-720 466,-684 520,-684 520,-720"/>
<text text-anchor="middle" x="493" y="-698.3" font-family="Times,serif" font-size="14.00" fill="#000000">Edy</text>
</g>
<!-- リクルートカード&#45;&gt;Edy -->
<g id="edge44" class="edge">
<title>リクルートカード&#45;&gt;Edy</title>
<path fill="none" stroke="#000000" stroke-width="2" d="M345.3992,-555.2883C375.1427,-584.8527 433.8519,-643.2082 467.5726,-676.7258"/>
<polygon fill="#000000" stroke="#000000" stroke-width="2" points="465.2116,-679.3139 474.7714,-683.8812 470.1464,-674.3492 465.2116,-679.3139"/>
</g>
<!-- Ponta -->
<g id="node22" class="node">
<title>Ponta</title>
<polygon fill="none" stroke="#000000" points="725.5,-982 668.5,-982 668.5,-946 725.5,-946 725.5,-982"/>
<text text-anchor="middle" x="697" y="-960.3" font-family="Times,serif" font-size="14.00" fill="#000000">Ponta</text>
</g>
<!-- リクルートカード&#45;&gt;Ponta -->
<g id="edge54" class="edge">
<title>リクルートカード&#45;&gt;Ponta</title>
<path fill="none" stroke="#000000" d="M329.3936,-555.2059C339.0726,-625.9132 377.6592,-880.9093 437,-932 499.0049,-985.3844 602.2661,-979.5402 658.1754,-971.3491"/>
<polygon fill="#000000" stroke="#000000" points="659.034,-974.7573 668.3715,-969.7513 657.9502,-967.8417 659.034,-974.7573"/>
<text text-anchor="middle" x="493" y="-975.8" font-family="Times,serif" font-size="14.00" fill="#000000">1.2%</text>
</g>
<!-- ASAHIネット -->
<g id="node38" class="node">
<title>ASAHIネット</title>
<polygon fill="none" stroke="#000000" points="1065.5,-144 956.5,-144 956.5,-108 1065.5,-108 1065.5,-144"/>
<text text-anchor="middle" x="1011" y="-122.3" font-family="Times,serif" font-size="14.00" fill="#000000">ASAHIネット</text>
</g>
<!-- リクルートカード&#45;&gt;ASAHIネット -->
<g id="edge31" class="edge">
<title>リクルートカード&#45;&gt;ASAHIネット</title>
<path fill="none" stroke="#000000" stroke-width="2" d="M330.189,-518.8095C344.6379,-439.2687 407.0035,-126 493,-126 493,-126 493,-126 872,-126 896.1744,-126 922.7137,-126 946.0653,-126"/>
<polygon fill="#000000" stroke="#000000" stroke-width="2" points="946.2048,-129.5001 956.2048,-126 946.2048,-122.5001 946.2048,-129.5001"/>
</g>
<!-- 楽天モバイル -->
<g id="node39" class="node">
<title>楽天モバイル</title>
<polygon fill="none" stroke="#000000" points="1062,-463 960,-463 960,-427 1062,-427 1062,-463"/>
<text text-anchor="middle" x="1011" y="-441.3" font-family="Times,serif" font-size="14.00" fill="#000000">楽天モバイル</text>
</g>
<!-- リクルートカード&#45;&gt;楽天モバイル -->
<g id="edge40" class="edge">
<title>リクルートカード&#45;&gt;楽天モバイル</title>
<path fill="none" stroke="#000000" stroke-width="2" d="M369.241,-518.8358C413.0304,-500.9713 483.9204,-474.7256 548,-463 567.3661,-459.4563 827.9395,-450.8041 949.4326,-446.9305"/>
<polygon fill="#000000" stroke="#000000" stroke-width="2" points="949.8081,-450.4204 959.6918,-446.6042 949.5855,-443.4239 949.8081,-450.4204"/>
</g>
<!-- 楽天でんき -->
<g id="node40" class="node">
<title>楽天でんき</title>
<polygon fill="none" stroke="#000000" points="1055,-330 967,-330 967,-294 1055,-294 1055,-330"/>
<text text-anchor="middle" x="1011" y="-308.3" font-family="Times,serif" font-size="14.00" fill="#000000">楽天でんき</text>
</g>
<!-- リクルートカード&#45;&gt;楽天でんき -->
<g id="edge38" class="edge">
<title>リクルートカード&#45;&gt;楽天でんき</title>
<path fill="none" stroke="#000000" stroke-width="2" d="M349.74,-518.7873C394.9924,-483.5813 500.7933,-406.3725 603,-369 698.0478,-334.2452 727.7454,-347.8196 828,-334 871.1335,-328.0543 920.114,-322.2138 956.5403,-318.0465"/>
<polygon fill="#000000" stroke="#000000" stroke-width="2" points="957.4026,-321.471 966.9428,-316.8628 956.6112,-314.5159 957.4026,-321.471"/>
</g>
<!-- 関西電力 -->
<g id="node41" class="node">
<title>関西電力</title>
<polygon fill="none" stroke="#000000" points="1048,-647 974,-647 974,-611 1048,-611 1048,-647"/>
<text text-anchor="middle" x="1011" y="-625.3" font-family="Times,serif" font-size="14.00" fill="#000000">関西電力</text>
</g>
<!-- リクルートカード&#45;&gt;関西電力 -->
<g id="edge35" class="edge">
<title>リクルートカード&#45;&gt;関西電力</title>
<path fill="none" stroke="#000000" stroke-width="2" d="M391.6432,-537C422.3518,-537 459.5694,-537 493,-537 493,-537 493,-537 872,-537 918.1581,-537 913.7937,-577.6395 953,-602 956.7634,-604.3383 960.7622,-606.6035 964.8317,-608.7616"/>
<polygon fill="#000000" stroke="#000000" stroke-width="2" points="963.2874,-611.9027 973.7895,-613.3016 966.452,-605.6589 963.2874,-611.9027"/>
</g>
<!-- 楽天損保 -->
<g id="node43" class="node">
<title>楽天損保</title>
<polygon fill="none" stroke="#000000" points="1048,-1101 974,-1101 974,-1065 1048,-1065 1048,-1101"/>
<text text-anchor="middle" x="1011" y="-1079.3" font-family="Times,serif" font-size="14.00" fill="#000000">楽天損保</text>
</g>
<!-- リクルートカード&#45;&gt;楽天損保 -->
<g id="edge39" class="edge">
<title>リクルートカード&#45;&gt;楽天損保</title>
<path fill="none" stroke="#000000" stroke-width="2" d="M329.621,-555.0978C341.0893,-631.7911 389.2743,-928.892 456,-991 599.0461,-1124.1466 857.5257,-1105.3623 963.6108,-1090.8055"/>
<polygon fill="#000000" stroke="#000000" stroke-width="2" points="964.2846,-1094.2449 973.6918,-1089.3711 963.2984,-1087.3147 964.2846,-1094.2449"/>
</g>
<!-- アイハート -->
<g id="node44" class="node">
<title>アイハート</title>
<polygon fill="none" stroke="#000000" points="1054,-90 968,-90 968,-54 1054,-54 1054,-90"/>
<text text-anchor="middle" x="1011" y="-68.3" font-family="Times,serif" font-size="14.00" fill="#000000">アイハート</text>
</g>
<!-- リクルートカード&#45;&gt;アイハート -->
<g id="edge34" class="edge">
<title>リクルートカード&#45;&gt;アイハート</title>
<path fill="none" stroke="#000000" stroke-width="2" d="M329.3918,-518.7714C341.1689,-432.7997 396.3518,-72 493,-72 493,-72 493,-72 872,-72 900.2089,-72 931.638,-72 957.4649,-72"/>
<polygon fill="#000000" stroke="#000000" stroke-width="2" points="957.798,-75.5001 967.7979,-72 957.7979,-68.5001 957.798,-75.5001"/>
</g>
<!-- Amazon -->
<g id="node54" class="node">
<title>Amazon</title>
<polygon fill="none" stroke="#000000" points="1048,-198 974,-198 974,-162 1048,-162 1048,-198"/>
<text text-anchor="middle" x="1011" y="-176.3" font-family="Times,serif" font-size="14.00" fill="#000000">Amazon</text>
</g>
<!-- リクルートカード&#45;&gt;Amazon -->
<g id="edge32" class="edge">
<title>リクルートカード&#45;&gt;Amazon</title>
<path fill="none" stroke="#000000" stroke-width="2" d="M330.8988,-518.7569C347.4181,-443.8699 414.4114,-164 493,-164 493,-164 493,-164 872,-164 902.8015,-164 937.192,-167.9254 964.0594,-171.8876"/>
<polygon fill="#000000" stroke="#000000" stroke-width="2" points="963.5513,-175.3505 973.965,-173.3998 964.6078,-168.4307 963.5513,-175.3505"/>
</g>
<!-- じゃらん -->
<g id="node56" class="node">
<title>じゃらん</title>
<polygon fill="none" stroke="#000000" points="1048,-952 974,-952 974,-916 1048,-916 1048,-952"/>
<text text-anchor="middle" x="1011" y="-930.3" font-family="Times,serif" font-size="14.00" fill="#000000">じゃらん</text>
</g>
<!-- リクルートカード&#45;&gt;じゃらん -->
<g id="edge33" class="edge">
<title>リクルートカード&#45;&gt;じゃらん</title>
<path fill="none" stroke="#000000" stroke-width="2" d="M330.7142,-555.1201C346.7436,-630.8369 412.8217,-918 493,-918 493,-918 493,-918 872,-918 902.8015,-918 937.192,-921.9254 964.0594,-925.8876"/>
<polygon fill="#000000" stroke="#000000" stroke-width="2" points="963.5513,-929.3505 973.965,-927.3998 964.6078,-922.4307 963.5513,-929.3505"/>
</g>
<!-- メルカリ -->
<g id="node57" class="node">
<title>メルカリ</title>
<polygon fill="none" stroke="#000000" points="1048,-1378 974,-1378 974,-1342 1048,-1342 1048,-1378"/>
<text text-anchor="middle" x="1011" y="-1356.3" font-family="Times,serif" font-size="14.00" fill="#000000">メルカリ</text>
</g>
<!-- リクルートカード&#45;&gt;メルカリ -->
<g id="edge79" class="edge">
<title>リクルートカード&#45;&gt;メルカリ</title>
<path fill="none" stroke="#000000" stroke-width="2" d="M328.7782,-555.2122C340.6413,-674.2925 410.3739,-1337 493,-1337 493,-1337 493,-1337 872,-1337 902.9071,-1337 937.1676,-1342.6034 963.9414,-1348.2786"/>
<polygon fill="#000000" stroke="#000000" stroke-width="2" points="963.2956,-1351.7202 973.8135,-1350.4457 964.7965,-1344.883 963.2956,-1351.7202"/>
</g>
<!-- 電車 -->
<g id="node36" class="node">
<title>電車</title>
<polygon fill="none" stroke="#000000" points="1038,-1761 984,-1761 984,-1725 1038,-1725 1038,-1761"/>
<text text-anchor="middle" x="1011" y="-1739.3" font-family="Times,serif" font-size="14.00" fill="#000000">電車</text>
</g>
<!-- PiTaPa&#45;&gt;電車 -->
<g id="edge68" class="edge">
<title>PiTaPa&#45;&gt;電車</title>
<path fill="none" stroke="#000000" stroke-width="2" d="M359.7568,-1834C393.2396,-1834 446.7448,-1834 493,-1834 493,-1834 493,-1834 872,-1834 919.7788,-1834 963.9239,-1795.899 989.1332,-1769.0046"/>
<polygon fill="#000000" stroke="#000000" stroke-width="2" points="991.895,-1771.1697 996.0303,-1761.4152 986.7146,-1766.4618 991.895,-1771.1697"/>
</g>
<!-- バス -->
<g id="node37" class="node">
<title>バス</title>
<polygon fill="none" stroke="#000000" points="1038,-1936 984,-1936 984,-1900 1038,-1900 1038,-1936"/>
<text text-anchor="middle" x="1011" y="-1914.3" font-family="Times,serif" font-size="14.00" fill="#000000">バス</text>
</g>
<!-- PiTaPa&#45;&gt;バス -->
<g id="edge70" class="edge">
<title>PiTaPa&#45;&gt;バス</title>
<path fill="none" stroke="#000000" stroke-width="2" d="M359.802,-1842.3393C404.3061,-1853.5252 479.8067,-1872 493,-1872 493,-1872 493,-1872 872,-1872 908.2673,-1872 947.2851,-1886.2886 974.7219,-1898.9388"/>
<polygon fill="#000000" stroke="#000000" stroke-width="2" points="973.3868,-1902.1795 983.9202,-1903.3188 976.3964,-1895.8595 973.3868,-1902.1795"/>
</g>
<!-- Suica&#45;&gt;JREポイント -->
<g id="edge21" class="edge">
<title>Suica&#45;&gt;JREポイント</title>
<path fill="none" stroke="#000000" d="M504.6259,-1624.7804C514.4226,-1611.1009 529.7445,-1593.2052 548,-1584 574.9164,-1570.4276 607.9635,-1565.6546 636.0902,-1564.4979"/>
<polygon fill="#000000" stroke="#000000" points="636.3073,-1567.9934 646.2096,-1564.2258 636.1191,-1560.996 636.3073,-1567.9934"/>
<text text-anchor="middle" x="566.5" y="-1587.8" font-family="Times,serif" font-size="14.00" fill="#000000">1.5%</text>
</g>
<!-- Suica&#45;&gt;電車 -->
<g id="edge18" class="edge">
<title>Suica&#45;&gt;電車</title>
<path fill="none" stroke="#000000" stroke-width="2" d="M521.289,-1643.8686C577.0687,-1646.0167 704.9479,-1653.1031 810,-1675 858.4343,-1685.0956 869.147,-1693.1065 916,-1709 935.137,-1715.4917 956.3177,-1723.0368 973.8141,-1729.3678"/>
<polygon fill="#000000" stroke="#000000" stroke-width="2" points="973.0527,-1732.8148 983.6468,-1732.9379 975.4417,-1726.2351 973.0527,-1732.8148"/>
</g>
<!-- 松屋 -->
<g id="node52" class="node">
<title>松屋</title>
<polygon fill="none" stroke="#000000" points="1038,-1631 984,-1631 984,-1595 1038,-1595 1038,-1631"/>
<text text-anchor="middle" x="1011" y="-1609.3" font-family="Times,serif" font-size="14.00" fill="#000000">松屋</text>
</g>
<!-- Suica&#45;&gt;松屋 -->
<g id="edge19" class="edge">
<title>Suica&#45;&gt;松屋</title>
<path fill="none" stroke="#000000" stroke-width="2" d="M521.2334,-1639.6084C529.8191,-1638.6611 539.2873,-1637.7005 548,-1637 705.8513,-1624.3091 894.545,-1616.9494 973.4385,-1614.2224"/>
<polygon fill="#000000" stroke="#000000" stroke-width="2" points="973.9525,-1617.707 983.8274,-1613.8683 973.7139,-1610.7111 973.9525,-1617.707"/>
</g>
<!-- 昼間回数券 -->
<g id="node33" class="node">
<title>昼間回数券</title>
<polygon fill="none" stroke="#000000" points="916,-1988 828,-1988 828,-1952 916,-1952 916,-1988"/>
<text text-anchor="middle" x="872" y="-1966.3" font-family="Times,serif" font-size="14.00" fill="#000000">昼間回数券</text>
</g>
<!-- 現金&#45;&gt;昼間回数券 -->
<g id="edge73" class="edge">
<title>現金&#45;&gt;昼間回数券</title>
<path fill="none" stroke="#000000" stroke-width="2" d="M520.2567,-1966.2971C582.3526,-1962.6851 735.3031,-1962.2843 817.5613,-1965.0947"/>
<polygon fill="#000000" stroke="#000000" stroke-width="2" points="817.5919,-1968.5982 827.7153,-1965.4729 817.8525,-1961.603 817.5919,-1968.5982"/>
</g>
<!-- 飲食店 -->
<g id="node49" class="node">
<title>飲食店</title>
<polygon fill="none" stroke="#000000" points="1040.5,-2054 981.5,-2054 981.5,-2018 1040.5,-2018 1040.5,-2054"/>
<text text-anchor="middle" x="1011" y="-2032.3" font-family="Times,serif" font-size="14.00" fill="#000000">飲食店</text>
</g>
<!-- 現金&#45;&gt;飲食店 -->
<g id="edge72" class="edge">
<title>現金&#45;&gt;飲食店</title>
<path fill="none" stroke="#000000" stroke-width="2" d="M520.1392,-1983.2671C528.8482,-1986.9993 538.6605,-1990.6714 548,-1993 627.8409,-2012.9064 874.1241,-2028.3765 971.1378,-2033.8525"/>
<polygon fill="#000000" stroke="#000000" stroke-width="2" points="971.2225,-2037.3626 981.4022,-2034.426 971.613,-2030.3735 971.2225,-2037.3626"/>
</g>
<!-- nanacoポイント -->
<g id="node28" class="node">
<title>nanacoポイント</title>
<polygon fill="none" stroke="#000000" points="759.5,-322 634.5,-322 634.5,-286 759.5,-286 759.5,-322"/>
<text text-anchor="middle" x="697" y="-300.3" font-family="Times,serif" font-size="14.00" fill="#000000">nanacoポイント</text>
</g>
<!-- nanaco&#45;&gt;nanacoポイント -->
<g id="edge61" class="edge">
<title>nanaco&#45;&gt;nanacoポイント</title>
<path fill="none" stroke="#000000" d="M527.145,-294.0085C553.5625,-295.5625 591.0936,-297.7702 624.1608,-299.7153"/>
<polygon fill="#000000" stroke="#000000" points="624.0741,-303.2162 634.2624,-300.3096 624.4852,-296.2283 624.0741,-303.2162"/>
<text text-anchor="middle" x="566.5" y="-301.8" font-family="Times,serif" font-size="14.00" fill="#000000">1%</text>
</g>
<!-- セブンイレブン -->
<g id="node35" class="node">
<title>セブンイレブン</title>
<polygon fill="none" stroke="#000000" points="1068,-276 954,-276 954,-240 1068,-240 1068,-276"/>
<text text-anchor="middle" x="1011" y="-254.3" font-family="Times,serif" font-size="14.00" fill="#000000">セブンイレブン</text>
</g>
<!-- nanaco&#45;&gt;セブンイレブン -->
<g id="edge60" class="edge">
<title>nanaco&#45;&gt;セブンイレブン</title>
<path fill="none" stroke="#000000" stroke-width="2" d="M527.0994,-286.5531C548.7786,-283.288 577.4718,-279.3303 603,-277 722.6953,-266.0738 862.7511,-261.2869 943.7321,-259.2994"/>
<polygon fill="#000000" stroke="#000000" stroke-width="2" points="943.8787,-262.797 953.7923,-259.0595 943.7117,-255.799 943.8787,-262.797"/>
</g>
<!-- Edy&#45;&gt;楽天ポイント -->
<g id="edge53" class="edge">
<title>Edy&#45;&gt;楽天ポイント</title>
<path fill="none" stroke="#000000" d="M495.6997,-683.8956C502.9142,-637.4189 523.7516,-515.2856 548,-483 570.2531,-453.371 605.7912,-432.0621 636.5792,-417.9509"/>
<polygon fill="#000000" stroke="#000000" points="638.2318,-421.0471 645.9617,-413.8013 635.4005,-414.6452 638.2318,-421.0471"/>
<text text-anchor="middle" x="566.5" y="-486.8" font-family="Times,serif" font-size="14.00" fill="#000000">0.5%</text>
</g>
<!-- ヤマト運輸 -->
<g id="node42" class="node">
<title>ヤマト運輸</title>
<polygon fill="none" stroke="#000000" points="1055,-898 967,-898 967,-862 1055,-862 1055,-898"/>
<text text-anchor="middle" x="1011" y="-876.3" font-family="Times,serif" font-size="14.00" fill="#000000">ヤマト運輸</text>
</g>
<!-- Edy&#45;&gt;ヤマト運輸 -->
<g id="edge45" class="edge">
<title>Edy&#45;&gt;ヤマト運輸</title>
<path fill="none" stroke="#000000" stroke-width="2" d="M501.8982,-720.1457C517.6728,-750.1513 553.594,-809.5176 603,-837 716.2635,-900.0036 874.6516,-895.1658 956.7878,-887.0987"/>
<polygon fill="#000000" stroke="#000000" stroke-width="2" points="957.3128,-890.5631 966.8988,-886.0509 956.5912,-883.6004 957.3128,-890.5631"/>
</g>
<!-- ウェルシア -->
<g id="node45" class="node">
<title>ウェルシア</title>
<polygon fill="none" stroke="#000000" points="1054.5,-774 967.5,-774 967.5,-738 1054.5,-738 1054.5,-774"/>
<text text-anchor="middle" x="1011" y="-752.3" font-family="Times,serif" font-size="14.00" fill="#000000">ウェルシア</text>
</g>
<!-- Edy&#45;&gt;ウェルシア -->
<g id="edge50" class="edge">
<title>Edy&#45;&gt;ウェルシア</title>
<path fill="none" stroke="#000000" stroke-width="2" d="M520.2286,-709.8661C529.0269,-712.1556 538.868,-714.4539 548,-716 694.7685,-740.8488 870.4722,-750.6569 957.1702,-754.1973"/>
<polygon fill="#000000" stroke="#000000" stroke-width="2" points="957.1632,-757.6996 967.294,-754.5985 957.4405,-750.7051 957.1632,-757.6996"/>
</g>
<!-- ヨドバシカメラ -->
<g id="node47" class="node">
<title>ヨドバシカメラ</title>
<polygon fill="none" stroke="#000000" points="1069,-1228 953,-1228 953,-1192 1069,-1192 1069,-1228"/>
<text text-anchor="middle" x="1011" y="-1206.3" font-family="Times,serif" font-size="14.00" fill="#000000">ヨドバシカメラ</text>
</g>
<!-- Edy&#45;&gt;ヨドバシカメラ -->
<g id="edge47" class="edge">
<title>Edy&#45;&gt;ヨドバシカメラ</title>
<path fill="none" stroke="#000000" stroke-width="2" d="M496.0369,-720.2038C509.8882,-802.2256 567.9061,-1134.7705 603,-1165 652.3948,-1207.5482 839.5954,-1212.2636 942.3872,-1211.4911"/>
<polygon fill="#000000" stroke="#000000" stroke-width="2" points="942.704,-1214.9883 952.6703,-1211.3934 942.6374,-1207.9887 942.704,-1214.9883"/>
</g>
<!-- 餃子の王将 -->
<g id="node48" class="node">
<title>餃子の王将</title>
<polygon fill="none" stroke="#000000" points="1055,-720 967,-720 967,-684 1055,-684 1055,-720"/>
<text text-anchor="middle" x="1011" y="-698.3" font-family="Times,serif" font-size="14.00" fill="#000000">餃子の王将</text>
</g>
<!-- Edy&#45;&gt;餃子の王将 -->
<g id="edge67" class="edge">
<title>Edy&#45;&gt;餃子の王将</title>
<path fill="none" stroke="#000000" stroke-width="2" d="M520.1206,-702C601.7943,-702 846.5448,-702 956.4822,-702"/>
<polygon fill="#000000" stroke="#000000" stroke-width="2" points="956.6905,-705.5001 966.6905,-702 956.6904,-698.5001 956.6905,-705.5001"/>
</g>
<!-- FRESCO -->
<g id="node50" class="node">
<title>FRESCO</title>
<polygon fill="none" stroke="#000000" points="1051,-1155 971,-1155 971,-1119 1051,-1119 1051,-1155"/>
<text text-anchor="middle" x="1011" y="-1133.3" font-family="Times,serif" font-size="14.00" fill="#000000">FRESCO</text>
</g>
<!-- Edy&#45;&gt;FRESCO -->
<g id="edge64" class="edge">
<title>Edy&#45;&gt;FRESCO</title>
<path fill="none" stroke="#000000" stroke-width="2" d="M494.6995,-720.0641C500.3687,-770.2207 523.0617,-912.6483 603,-991 616.3672,-1004.1019 855.5783,-1085.0854 961.3722,-1120.4767"/>
<polygon fill="#000000" stroke="#000000" stroke-width="2" points="960.2856,-1123.8037 970.8794,-1123.6545 962.5048,-1117.1648 960.2856,-1123.8037"/>
</g>
<!-- 業務スーパー -->
<g id="node51" class="node">
<title>業務スーパー</title>
<polygon fill="none" stroke="#000000" points="1061.5,-593 960.5,-593 960.5,-557 1061.5,-557 1061.5,-593"/>
<text text-anchor="middle" x="1011" y="-571.3" font-family="Times,serif" font-size="14.00" fill="#000000">業務スーパー</text>
</g>
<!-- Edy&#45;&gt;業務スーパー -->
<g id="edge63" class="edge">
<title>Edy&#45;&gt;業務スーパー</title>
<path fill="none" stroke="#000000" stroke-width="2" d="M508.7556,-683.7277C528.4049,-662.3531 564.1722,-627.8735 603,-612 718.8521,-564.6377 868.2174,-564.9057 950.2803,-569.7016"/>
<polygon fill="#000000" stroke="#000000" stroke-width="2" points="950.233,-573.2054 960.4326,-570.3385 950.6713,-566.2192 950.233,-573.2054"/>
</g>
<!-- 吉野家 -->
<g id="node53" class="node">
<title>吉野家</title>
<polygon fill="none" stroke="#000000" points="1040.5,-517 981.5,-517 981.5,-481 1040.5,-481 1040.5,-517"/>
<text text-anchor="middle" x="1011" y="-495.3" font-family="Times,serif" font-size="14.00" fill="#000000">吉野家</text>
</g>
<!-- Edy&#45;&gt;吉野家 -->
<g id="edge52" class="edge">
<title>Edy&#45;&gt;吉野家</title>
<path fill="none" stroke="#000000" stroke-width="2" d="M501.7653,-683.6692C517.3441,-653.4151 552.9842,-593.813 603,-568 726.1611,-504.437 895.4083,-497.4905 971.3313,-497.9261"/>
<polygon fill="#000000" stroke="#000000" stroke-width="2" points="971.3744,-501.4267 981.4105,-498.0315 971.4476,-494.4271 971.3744,-501.4267"/>
</g>
<!-- PayPay&#45;&gt;飲食店 -->
<g id="edge11" class="edge">
<title>PayPay&#45;&gt;飲食店</title>
<path fill="none" stroke="#000000" stroke-width="2" d="M527.3886,-2038.8008C619.7196,-2038.2661 872.6965,-2036.801 971.0994,-2036.2311"/>
<polygon fill="#000000" stroke="#000000" stroke-width="2" points="971.2455,-2039.7304 981.225,-2036.1724 971.2049,-2032.7305 971.2455,-2039.7304"/>
</g>
<!-- メルペイ&#45;&gt;三井住友銀行 -->
<g id="edge78" class="edge">
<title>メルペイ&#45;&gt;三井住友銀行</title>
<path fill="none" stroke="#000000" stroke-width="2" d="M463.4626,-1401.0568C409.3848,-1435.7086 294.564,-1516.9525 235,-1616 200.2798,-1673.7354 216.5201,-1698.2245 198,-1763 184.7545,-1809.3272 167.21,-1862.5224 156.5324,-1894.1386"/>
<polygon fill="#000000" stroke="#000000" stroke-width="2" points="153.0878,-1893.3979 153.1907,-1903.9922 159.717,-1895.6461 153.0878,-1893.3979"/>
</g>
<!-- メルペイ&#45;&gt;メルカリ -->
<g id="edge77" class="edge">
<title>メルペイ&#45;&gt;メルカリ</title>
<path fill="none" stroke="#000000" stroke-width="2" d="M530.2533,-1381.3459C622.5427,-1377.2481 861.6693,-1366.6305 963.7193,-1362.0993"/>
<polygon fill="#000000" stroke="#000000" stroke-width="2" points="963.9021,-1365.5948 973.737,-1361.6545 963.5915,-1358.6017 963.9021,-1365.5948"/>
</g>
<!-- Ponta&#45;&gt;じゃらん -->
<g id="edge55" class="edge">
<title>Ponta&#45;&gt;じゃらん</title>
<path fill="none" stroke="#000000" d="M725.6978,-961.2582C779.8755,-956.082 897.6933,-944.8255 963.7239,-938.5168"/>
<polygon fill="#000000" stroke="#000000" points="964.2373,-941.9838 973.8591,-937.5485 963.5715,-935.0155 964.2373,-941.9838"/>
</g>
<!-- Tポイント -->
<g id="node23" class="node">
<title>Tポイント</title>
<polygon fill="none" stroke="#000000" points="738.5,-828 655.5,-828 655.5,-792 738.5,-792 738.5,-828"/>
<text text-anchor="middle" x="697" y="-806.3" font-family="Times,serif" font-size="14.00" fill="#000000">Tポイント</text>
</g>
<!-- 楽天ポイント&#45;&gt;楽天モバイル -->
<g id="edge42" class="edge">
<title>楽天ポイント&#45;&gt;楽天モバイル</title>
<path fill="none" stroke="#000000" d="M748.1484,-403.9818C803.3454,-412.5953 891.2162,-426.3076 949.9792,-435.4776"/>
<polygon fill="#000000" stroke="#000000" points="949.4534,-438.9379 959.8735,-437.0217 950.5328,-432.0216 949.4534,-438.9379"/>
</g>
<!-- 楽天ポイント&#45;&gt;楽天でんき -->
<g id="edge43" class="edge">
<title>楽天ポイント&#45;&gt;楽天でんき</title>
<path fill="none" stroke="#000000" d="M748.1484,-382.317C805.6453,-366.9357 898.5955,-342.07 957.1685,-326.4008"/>
<polygon fill="#000000" stroke="#000000" points="958.2196,-329.7428 966.9754,-323.7773 956.4106,-322.9805 958.2196,-329.7428"/>
</g>
<!-- JREポイント&#45;&gt;Suica -->
<g id="edge22" class="edge">
<title>JREポイント&#45;&gt;Suica</title>
<path fill="none" stroke="#000000" d="M646.3564,-1556.4107C616.1938,-1552.6798 578.0616,-1552.6396 548,-1568 537.5733,-1573.3276 521.3082,-1596.6903 509.1664,-1615.9434"/>
<polygon fill="#000000" stroke="#000000" points="506.0369,-1614.3491 503.7475,-1624.6936 511.9881,-1618.0347 506.0369,-1614.3491"/>
</g>
<!-- ビックポイント&#45;&gt;ビックカメラ -->
<g id="edge16" class="edge">
<title>ビックポイント&#45;&gt;ビックカメラ</title>
<path fill="none" stroke="#000000" d="M755.3251,-1507.4275C810.7573,-1502.1315 893.788,-1494.1986 950.0662,-1488.8217"/>
<polygon fill="#000000" stroke="#000000" points="950.6289,-1492.284 960.2506,-1487.8487 949.963,-1485.3157 950.6289,-1492.284"/>
</g>
<!-- Amazonポイント -->
<g id="node27" class="node">
<title>Amazonポイント</title>
<polygon fill="none" stroke="#000000" points="762.5,-229 631.5,-229 631.5,-193 762.5,-193 762.5,-229"/>
<text text-anchor="middle" x="697" y="-207.3" font-family="Times,serif" font-size="14.00" fill="#000000">Amazonポイント</text>
</g>
<!-- Amazonポイント&#45;&gt;Amazon -->
<g id="edge58" class="edge">
<title>Amazonポイント&#45;&gt;Amazon</title>
<path fill="none" stroke="#000000" d="M762.8247,-198.8869C822.8442,-191.2648 910.0692,-182.858 963.5283,-179.6859"/>
<polygon fill="#000000" stroke="#000000" points="963.9594,-183.1676 973.7519,-179.1231 963.5746,-176.1782 963.9594,-183.1676"/>
</g>
<!-- nanacoポイント&#45;&gt;nanaco -->
<g id="edge62" class="edge">
<title>nanacoポイント&#45;&gt;nanaco</title>
<path fill="none" stroke="#000000" d="M634.2153,-299.9858C618.171,-298.9848 600.9484,-297.9318 585,-297 569.4306,-296.0904 552.3758,-295.1484 537.2254,-294.3306"/>
<polygon fill="#000000" stroke="#000000" points="537.2558,-290.8273 527.0826,-293.7862 536.8806,-297.8172 537.2558,-290.8273"/>
</g>
<!-- FRESCOポイント -->
<g id="node29" class="node">
<title>FRESCOポイント</title>
<polygon fill="none" stroke="#000000" points="765.5,-1156 628.5,-1156 628.5,-1120 765.5,-1120 765.5,-1156"/>
<text text-anchor="middle" x="697" y="-1134.3" font-family="Times,serif" font-size="14.00" fill="#000000">FRESCOポイント</text>
</g>
<!-- FRESCOポイント&#45;&gt;FRESCO -->
<g id="edge66" class="edge">
<title>FRESCOポイント&#45;&gt;FRESCO</title>
<path fill="none" stroke="#000000" d="M765.6124,-1150.6555C808.806,-1156.9628 865.7051,-1162.2368 916,-1157 930.5689,-1155.4831 946.1945,-1152.6911 960.4803,-1149.6647"/>
<polygon fill="#000000" stroke="#000000" points="961.5978,-1153.0026 970.6115,-1147.4345 960.0928,-1146.1663 961.5978,-1153.0026"/>
</g>
<!-- ヨドバシゴールドポイント -->
<g id="node30" class="node">
<title>ヨドバシゴールドポイント</title>
<polygon fill="none" stroke="#000000" points="791,-1288 603,-1288 603,-1252 791,-1252 791,-1288"/>
<text text-anchor="middle" x="697" y="-1266.3" font-family="Times,serif" font-size="14.00" fill="#000000">ヨドバシゴールドポイント</text>
</g>
<!-- ヨドバシゴールドポイント&#45;&gt;ヨドバシカメラ -->
<g id="edge49" class="edge">
<title>ヨドバシゴールドポイント&#45;&gt;ヨドバシカメラ</title>
<path fill="none" stroke="#000000" d="M791.2104,-1251.998C839.9794,-1242.6791 898.4263,-1231.5109 942.7857,-1223.0346"/>
<polygon fill="#000000" stroke="#000000" points="943.7188,-1226.4197 952.8841,-1221.1049 942.4049,-1219.5441 943.7188,-1226.4197"/>
</g>
<!-- はぴeポイント -->
<g id="node31" class="node">
<title>はぴeポイント</title>
<polygon fill="none" stroke="#000000" points="752,-657 642,-657 642,-621 752,-621 752,-657"/>
<text text-anchor="middle" x="697" y="-635.3" font-family="Times,serif" font-size="14.00" fill="#000000">はぴeポイント</text>
</g>
<!-- はぴeポイント&#45;&gt;関西電力 -->
<g id="edge37" class="edge">
<title>はぴeポイント&#45;&gt;関西電力</title>
<path fill="none" stroke="#000000" d="M752.0857,-633.9737C775.4729,-632.053 803.0468,-630.0689 828,-629 875.5141,-626.9646 887.4434,-627.6871 935,-628 944.3027,-628.0612 954.2455,-628.1645 963.7703,-628.2821"/>
<polygon fill="#000000" stroke="#000000" points="963.8468,-631.7833 973.8916,-628.4141 963.9381,-624.7839 963.8468,-631.7833"/>
</g>
<!-- 株主優待券&#45;&gt;住信SBI銀行 -->
<g id="edge30" class="edge">
<title>株主優待券&#45;&gt;住信SBI銀行</title>
<path fill="none" stroke="#000000" d="M827.7676,-1743.3133C792.3869,-1745 741.5095,-1745 697,-1745 327,-1745 327,-1745 327,-1745 287.0385,-1745 242.0865,-1745 207.101,-1743.8782"/>
<polygon fill="#000000" stroke="#000000" points="207.1669,-1740.3784 197.0462,-1743.5122 206.9122,-1747.3738 207.1669,-1740.3784"/>
</g>
<!-- 株主優待券&#45;&gt;電車 -->
<g id="edge29" class="edge">
<title>株主優待券&#45;&gt;電車</title>
<path fill="none" stroke="#000000" stroke-width="2" d="M916.3626,-1738.2341C934.6539,-1739.1552 955.6299,-1740.2116 973.1782,-1741.0953"/>
<polygon fill="#000000" stroke="#000000" stroke-width="2" points="973.4434,-1744.613 983.6068,-1741.6205 973.7955,-1737.6219 973.4434,-1744.613"/>
</g>
<!-- 昼間回数券&#45;&gt;現金 -->
<g id="edge74" class="edge">
<title>昼間回数券&#45;&gt;現金</title>
<path fill="none" stroke="#000000" d="M827.7153,-1974.5271C752.418,-1977.587 600.7783,-1977.4879 530.4271,-1974.2297"/>
<polygon fill="#000000" stroke="#000000" points="530.4244,-1970.7249 520.2567,-1973.7029 530.0623,-1977.7156 530.4244,-1970.7249"/>
</g>
<!-- 昼間回数券&#45;&gt;バス -->
<g id="edge75" class="edge">
<title>昼間回数券&#45;&gt;バス</title>
<path fill="none" stroke="#000000" stroke-width="2" d="M916.3626,-1953.4039C934.999,-1946.432 956.4224,-1938.4175 974.1677,-1931.779"/>
<polygon fill="#000000" stroke="#000000" stroke-width="2" points="975.4671,-1935.0299 983.6068,-1928.2478 973.0144,-1928.4736 975.4671,-1935.0299"/>
</g>
<!-- 電車&#45;&gt;PiTaPa -->
<g id="edge69" class="edge">
<title>電車&#45;&gt;PiTaPa</title>
<path fill="none" stroke="#000000" d="M983.9959,-1758.3195C956.6577,-1772.367 912.7208,-1791 872,-1791 493,-1791 493,-1791 493,-1791 449.9675,-1791 402.6073,-1804.709 369.5259,-1816.6458"/>
<polygon fill="#000000" stroke="#000000" points="367.8968,-1813.517 359.7382,-1820.2763 370.3313,-1820.08 367.8968,-1813.517"/>
<text text-anchor="middle" x="697" y="-1794.8" font-family="Times,serif" font-size="14.00" fill="#000000">10%</text>
</g>
<!-- バス&#45;&gt;PiTaPa -->
<g id="edge71" class="edge">
<title>バス&#45;&gt;PiTaPa</title>
<path fill="none" stroke="#000000" d="M983.7701,-1919.044C902.5185,-1921.5732 655.0848,-1925.0142 456,-1883 447.1946,-1881.1417 444.5142,-1880.9522 437,-1876 427.2874,-1869.599 429.044,-1862.8674 419,-1857 404.1899,-1848.3484 386.1977,-1842.9293 370.066,-1839.5446"/>
<polygon fill="#000000" stroke="#000000" points="370.2622,-1836.0198 359.786,-1837.6006 368.9615,-1842.8979 370.2622,-1836.0198"/>
<text text-anchor="middle" x="697" y="-1922.8" font-family="Times,serif" font-size="14.00" fill="#000000">10%</text>
</g>
<!-- 楽天モバイル&#45;&gt;楽天ポイント -->
<g id="edge41" class="edge">
<title>楽天モバイル&#45;&gt;楽天ポイント</title>
<path fill="none" stroke="#000000" d="M985.4207,-426.7551C967.0733,-414.8355 941.2345,-400.3452 916,-394 864.0011,-380.9249 802.838,-382.8613 758.3847,-387.2386"/>
<polygon fill="#000000" stroke="#000000" points="757.8911,-383.7711 748.313,-388.3 758.6248,-390.7326 757.8911,-383.7711"/>
<text text-anchor="middle" x="872" y="-397.8" font-family="Times,serif" font-size="14.00" fill="#000000">0.5%</text>
</g>
<!-- 関西電力&#45;&gt;はぴeポイント -->
<g id="edge36" class="edge">
<title>関西電力&#45;&gt;はぴeポイント</title>
<path fill="none" stroke="#000000" d="M973.741,-630.1866C921.7034,-631.8438 826.4628,-634.877 762.4428,-636.9158"/>
<polygon fill="#000000" stroke="#000000" points="761.9374,-633.4301 752.0539,-637.2467 762.1603,-640.4265 761.9374,-633.4301"/>
<text text-anchor="middle" x="872" y="-638.8" font-family="Times,serif" font-size="14.00" fill="#000000">0.5%</text>
</g>
<!-- ヤマト運輸&#45;&gt;Tポイント -->
<g id="edge46" class="edge">
<title>ヤマト運輸&#45;&gt;Tポイント</title>
<path fill="none" stroke="#000000" d="M966.8195,-865.3971C950.9067,-860.4345 932.7474,-855.1103 916,-851 859.3659,-837.1002 793.4865,-825.3527 748.8912,-818.0431"/>
<polygon fill="#000000" stroke="#000000" points="749.3034,-814.5643 738.8718,-816.4168 748.1818,-821.4738 749.3034,-814.5643"/>
<text text-anchor="middle" x="872" y="-854.8" font-family="Times,serif" font-size="14.00" fill="#000000">0.5%</text>
</g>
<!-- ウェルシア&#45;&gt;Tポイント -->
<g id="edge51" class="edge">
<title>ウェルシア&#45;&gt;Tポイント</title>
<path fill="none" stroke="#000000" d="M967.3622,-763.5046C910.1494,-773.3437 809.9115,-790.5821 748.8795,-801.078"/>
<polygon fill="#000000" stroke="#000000" points="747.9589,-797.6849 738.6968,-802.8292 749.1453,-804.5836 747.9589,-797.6849"/>
<text text-anchor="middle" x="872" y="-791.8" font-family="Times,serif" font-size="14.00" fill="#000000">1%</text>
</g>
<!-- ビックカメラ&#45;&gt;ビックポイント -->
<g id="edge14" class="edge">
<title>ビックカメラ&#45;&gt;ビックポイント</title>
<path fill="none" stroke="#000000" stroke-dasharray="5,2" d="M980.6915,-1501.143C967.1992,-1508.2043 950.811,-1515.4446 935,-1519 878.9049,-1531.6139 813.4993,-1528.7479 765.4642,-1523.5006"/>
<polygon fill="#000000" stroke="#000000" points="765.8226,-1520.0188 755.4873,-1522.3494 765.0202,-1526.9727 765.8226,-1520.0188"/>
<text text-anchor="middle" x="872" y="-1531.8" font-family="Times,serif" font-size="14.00" fill="#000000">9.5%</text>
</g>
<!-- ヨドバシカメラ&#45;&gt;ヨドバシゴールドポイント -->
<g id="edge48" class="edge">
<title>ヨドバシカメラ&#45;&gt;ヨドバシゴールドポイント</title>
<path fill="none" stroke="#000000" d="M991.4286,-1228.0592C977.0038,-1240.1288 956.2683,-1255.0268 935,-1262 892.6296,-1275.892 843.7167,-1279.4985 801.2946,-1279.0203"/>
<polygon fill="#000000" stroke="#000000" points="801.2881,-1275.5197 791.2237,-1278.8297 801.1556,-1282.5184 801.2881,-1275.5197"/>
<text text-anchor="middle" x="872" y="-1282.8" font-family="Times,serif" font-size="14.00" fill="#000000">10%</text>
</g>
<!-- FRESCO&#45;&gt;FRESCOポイント -->
<g id="edge65" class="edge">
<title>FRESCO&#45;&gt;FRESCOポイント</title>
<path fill="none" stroke="#000000" d="M970.9053,-1137.1277C921.8844,-1137.2838 837.7896,-1137.5516 775.6794,-1137.7494"/>
<polygon fill="#000000" stroke="#000000" points="775.5094,-1134.2499 765.5206,-1137.7818 775.5318,-1141.2498 775.5094,-1134.2499"/>
<text text-anchor="middle" x="872" y="-1141.8" font-family="Times,serif" font-size="14.00" fill="#000000">0.5%</text>
</g>
<!-- Amazon&#45;&gt;Amazonポイント -->
<g id="edge57" class="edge">
<title>Amazon&#45;&gt;Amazonポイント</title>
<path fill="none" stroke="#000000" d="M973.7519,-188.2316C924.4572,-195.487 836.3804,-204.6222 772.8076,-209.3892"/>
<polygon fill="#000000" stroke="#000000" points="772.5442,-205.8991 762.8247,-210.1158 773.0524,-212.8806 772.5442,-205.8991"/>
</g>
<!-- じゃらん&#45;&gt;Ponta -->
<g id="edge56" class="edge">
<title>じゃらん&#45;&gt;Ponta</title>
<path fill="none" stroke="#000000" d="M973.5655,-947.1985C956.2652,-952.7346 935.3139,-958.6532 916,-962 853.5696,-972.8183 779.6208,-970.3999 735.6023,-967.3935"/>
<polygon fill="#000000" stroke="#000000" points="735.842,-963.9018 725.6141,-966.6656 735.3332,-970.8832 735.842,-963.9018"/>
<text text-anchor="middle" x="872" y="-973.8" font-family="Times,serif" font-size="14.00" fill="#000000">2%</text>
</g>
</g>
</svg>
