<?xml version="1.0" encoding="UTF-8" standalone="no"?>
<!DOCTYPE svg PUBLIC "-//W3C//DTD SVG 1.1//EN"
 "http://www.w3.org/Graphics/SVG/1.1/DTD/svg11.dtd">
<!-- Generated by graphviz version 2.40.1 (0)
 -->
<!-- Title: MoneyFlow Pages: 1 -->
<svg width="1085pt" height="2012pt"
 viewBox="0.00 0.00 1085.00 2012.00" xmlns="http://www.w3.org/2000/svg" xmlns:xlink="http://www.w3.org/1999/xlink">
<g id="graph0" class="graph" transform="scale(1 1) rotate(0) translate(4 2008)">
<title>MoneyFlow</title>
<polygon fill="#ffffff" stroke="transparent" points="-4,4 -4,-2008 1081,-2008 1081,4 -4,4"/>
<!-- 収入 -->
<g id="node1" class="node">
<title>収入</title>
<text text-anchor="middle" x="27" y="-14.3" font-family="Times,serif" font-size="14.00" fill="#000000">収入</text>
</g>
<!-- 銀行口座 -->
<g id="node2" class="node">
<title>銀行口座</title>
<text text-anchor="middle" x="142" y="-14.3" font-family="Times,serif" font-size="14.00" fill="#000000">銀行口座</text>
</g>
<!-- 収入&#45;&gt;銀行口座 -->
<g id="edge1" class="edge">
<title>収入&#45;&gt;銀行口座</title>
<path fill="none" stroke="#000000" d="M54.2534,-18C69.3972,-18 88.4539,-18 104.9357,-18"/>
</g>
<!-- クレジットカード -->
<g id="node3" class="node">
<title>クレジットカード</title>
<text text-anchor="middle" x="322" y="-14.3" font-family="Times,serif" font-size="14.00" fill="#000000">クレジットカード</text>
</g>
<!-- 銀行口座&#45;&gt;クレジットカード -->
<g id="edge2" class="edge">
<title>銀行口座&#45;&gt;クレジットカード</title>
<path fill="none" stroke="#000000" d="M179.2961,-18C201.6417,-18 230.6798,-18 256.7236,-18"/>
</g>
<!-- マネー -->
<g id="node4" class="node">
<title>マネー</title>
<text text-anchor="middle" x="485" y="-14.3" font-family="Times,serif" font-size="14.00" fill="#000000">マネー</text>
</g>
<!-- クレジットカード&#45;&gt;マネー -->
<g id="edge3" class="edge">
<title>クレジットカード&#45;&gt;マネー</title>
<path fill="none" stroke="#000000" d="M387.3591,-18C410.9188,-18 436.353,-18 455.3549,-18"/>
</g>
<!-- ポイント -->
<g id="node5" class="node">
<title>ポイント</title>
<text text-anchor="middle" x="686" y="-14.3" font-family="Times,serif" font-size="14.00" fill="#000000">ポイント</text>
</g>
<!-- マネー&#45;&gt;ポイント -->
<g id="edge4" class="edge">
<title>マネー&#45;&gt;ポイント</title>
<path fill="none" stroke="#000000" d="M514.6582,-18C550.2582,-18 609.9876,-18 648.6865,-18"/>
</g>
<!-- 金券 -->
<g id="node6" class="node">
<title>金券</title>
<text text-anchor="middle" x="870.5" y="-14.3" font-family="Times,serif" font-size="14.00" fill="#000000">金券</text>
</g>
<!-- ポイント&#45;&gt;金券 -->
<g id="edge5" class="edge">
<title>ポイント&#45;&gt;金券</title>
<path fill="none" stroke="#000000" d="M723.3363,-18C758.9263,-18 811.6612,-18 843.3941,-18"/>
</g>
<!-- 支出 -->
<g id="node7" class="node">
<title>支出</title>
<text text-anchor="middle" x="1019" y="-14.3" font-family="Times,serif" font-size="14.00" fill="#000000">支出</text>
</g>
<!-- 金券&#45;&gt;支出 -->
<g id="edge6" class="edge">
<title>金券&#45;&gt;支出</title>
<path fill="none" stroke="#000000" d="M897.7372,-18C924.5314,-18 965.2011,-18 991.9355,-18"/>
</g>
<!-- 給与 -->
<g id="node8" class="node">
<title>給与</title>
<polygon fill="none" stroke="#000000" points="54,-2004 0,-2004 0,-1968 54,-1968 54,-2004"/>
<text text-anchor="middle" x="27" y="-1982.3" font-family="Times,serif" font-size="14.00" fill="#000000">給与</text>
</g>
<!-- 三井住友銀行 -->
<g id="node9" class="node">
<title>三井住友銀行</title>
<polygon fill="none" stroke="#000000" points="193,-2004 91,-2004 91,-1968 193,-1968 193,-2004"/>
<text text-anchor="middle" x="142" y="-1982.3" font-family="Times,serif" font-size="14.00" fill="#000000">三井住友銀行</text>
</g>
<!-- 給与&#45;&gt;三井住友銀行 -->
<g id="edge7" class="edge">
<title>給与&#45;&gt;三井住友銀行</title>
<path fill="none" stroke="#000000" stroke-width="2" d="M54.2534,-1986C62.2529,-1986 71.3442,-1986 80.571,-1986"/>
<polygon fill="#000000" stroke="#000000" stroke-width="2" points="80.5912,-1989.5001 90.5911,-1986 80.5911,-1982.5001 80.5912,-1989.5001"/>
</g>
<!-- 住信SBI銀行 -->
<g id="node10" class="node">
<title>住信SBI銀行</title>
<polygon fill="none" stroke="#000000" points="192,-1858 92,-1858 92,-1822 192,-1822 192,-1858"/>
<text text-anchor="middle" x="142" y="-1836.3" font-family="Times,serif" font-size="14.00" fill="#000000">住信SBI銀行</text>
</g>
<!-- 三井住友銀行&#45;&gt;住信SBI銀行 -->
<g id="edge9" class="edge">
<title>三井住友銀行&#45;&gt;住信SBI銀行</title>
<path fill="none" stroke="#000000" stroke-width="2" d="M142,-1967.5361C142,-1934.5226 142,-1901.5091 142,-1868.4956"/>
<polygon fill="#000000" stroke="#000000" stroke-width="2" points="145.5001,-1868.25 142,-1858.25 138.5001,-1868.25 145.5001,-1868.25"/>
</g>
<!-- 現金 -->
<g id="node15" class="node">
<title>現金</title>
<polygon fill="none" stroke="#000000" points="512,-1904 458,-1904 458,-1868 512,-1868 512,-1904"/>
<text text-anchor="middle" x="485" y="-1882.3" font-family="Times,serif" font-size="14.00" fill="#000000">現金</text>
</g>
<!-- 三井住友銀行&#45;&gt;現金 -->
<g id="edge8" class="edge">
<title>三井住友銀行&#45;&gt;現金</title>
<path fill="none" stroke="#000000" stroke-width="2" d="M193.0429,-1987.2508C199.4568,-1986.8276 205.9028,-1986.1163 212,-1985 300.0533,-1968.8781 397.2902,-1927.4955 448.6132,-1903.6484"/>
<polygon fill="#000000" stroke="#000000" stroke-width="2" points="450.3833,-1906.684 457.9495,-1899.2676 447.4098,-1900.347 450.3833,-1906.684"/>
</g>
<!-- ビックカメラSuicaカード -->
<g id="node11" class="node">
<title>ビックカメラSuicaカード</title>
<polygon fill="none" stroke="#000000" points="414,-1506 230,-1506 230,-1470 414,-1470 414,-1506"/>
<text text-anchor="middle" x="322" y="-1484.3" font-family="Times,serif" font-size="14.00" fill="#000000">ビックカメラSuicaカード</text>
</g>
<!-- 住信SBI銀行&#45;&gt;ビックカメラSuicaカード -->
<g id="edge29" class="edge">
<title>住信SBI銀行&#45;&gt;ビックカメラSuicaカード</title>
<path fill="none" stroke="#000000" stroke-width="2" d="M151.4241,-1821.5706C181.1316,-1763.476 272.9283,-1583.9624 308.0951,-1515.1917"/>
<polygon fill="#000000" stroke="#000000" stroke-width="2" points="311.2324,-1516.744 312.6691,-1506.247 305,-1513.5569 311.2324,-1516.744"/>
</g>
<!-- リクルートカード -->
<g id="node12" class="node">
<title>リクルートカード</title>
<polygon fill="none" stroke="#000000" points="386.5,-793 257.5,-793 257.5,-757 386.5,-757 386.5,-793"/>
<text text-anchor="middle" x="322" y="-771.3" font-family="Times,serif" font-size="14.00" fill="#000000">リクルートカード</text>
</g>
<!-- 住信SBI銀行&#45;&gt;リクルートカード -->
<g id="edge30" class="edge">
<title>住信SBI銀行&#45;&gt;リクルートカード</title>
<path fill="none" stroke="#000000" stroke-width="2" d="M145.0487,-1821.9618C166.2078,-1696.7707 291.1101,-957.7652 317.2176,-803.296"/>
<polygon fill="#000000" stroke="#000000" stroke-width="2" points="320.7083,-803.6443 318.9238,-793.2008 313.8062,-802.4777 320.7083,-803.6443"/>
</g>
<!-- PiTaPa -->
<g id="node13" class="node">
<title>PiTaPa</title>
<polygon fill="none" stroke="#000000" points="354.5,-1806 289.5,-1806 289.5,-1770 354.5,-1770 354.5,-1806"/>
<text text-anchor="middle" x="322" y="-1784.3" font-family="Times,serif" font-size="14.00" fill="#000000">PiTaPa</text>
</g>
<!-- 住信SBI銀行&#45;&gt;PiTaPa -->
<g id="edge31" class="edge">
<title>住信SBI銀行&#45;&gt;PiTaPa</title>
<path fill="none" stroke="#000000" stroke-width="2" d="M192.14,-1825.5151C219.7199,-1817.5476 253.5581,-1807.7721 279.7776,-1800.1976"/>
<polygon fill="#000000" stroke="#000000" stroke-width="2" points="280.7888,-1803.5487 289.4245,-1797.4107 278.846,-1796.8237 280.7888,-1803.5487"/>
</g>
<!-- 住信SBI銀行&#45;&gt;現金 -->
<g id="edge27" class="edge">
<title>住信SBI銀行&#45;&gt;現金</title>
<path fill="none" stroke="#000000" stroke-width="2" d="M192.2425,-1846.7381C261.7234,-1856.0562 385.5691,-1872.6652 447.529,-1880.9747"/>
<polygon fill="#000000" stroke="#000000" stroke-width="2" points="447.262,-1884.4702 457.6385,-1882.3305 448.1925,-1877.5323 447.262,-1884.4702"/>
</g>
<!-- 家賃 -->
<g id="node30" class="node">
<title>家賃</title>
<polygon fill="none" stroke="#000000" points="1046,-1997 992,-1997 992,-1961 1046,-1961 1046,-1997"/>
<text text-anchor="middle" x="1019" y="-1975.3" font-family="Times,serif" font-size="14.00" fill="#000000">家賃</text>
</g>
<!-- 住信SBI銀行&#45;&gt;家賃 -->
<g id="edge28" class="edge">
<title>住信SBI銀行&#45;&gt;家賃</title>
<path fill="none" stroke="#000000" stroke-width="2" d="M154.5444,-1858.215C180.9778,-1894.2102 246.2463,-1971 322,-1971 322,-1971 322,-1971 870.5,-1971 908.4922,-1971 951.8728,-1973.6432 981.8946,-1975.891"/>
<polygon fill="#000000" stroke="#000000" stroke-width="2" points="981.6862,-1979.3852 991.9258,-1976.6646 982.2245,-1972.4059 981.6862,-1979.3852"/>
</g>
<!-- Suica -->
<g id="node14" class="node">
<title>Suica</title>
<polygon fill="none" stroke="#000000" points="513,-1506 457,-1506 457,-1470 513,-1470 513,-1506"/>
<text text-anchor="middle" x="485" y="-1484.3" font-family="Times,serif" font-size="14.00" fill="#000000">Suica</text>
</g>
<!-- ビックカメラSuicaカード&#45;&gt;Suica -->
<g id="edge15" class="edge">
<title>ビックカメラSuicaカード&#45;&gt;Suica</title>
<path fill="none" stroke="#000000" stroke-width="2" d="M414.4538,-1488C425.7462,-1488 436.7529,-1488 446.5853,-1488"/>
<polygon fill="#000000" stroke="#000000" stroke-width="2" points="446.7516,-1491.5001 456.7515,-1488 446.7515,-1484.5001 446.7516,-1491.5001"/>
</g>
<!-- JREポイント -->
<g id="node21" class="node">
<title>JREポイント</title>
<polygon fill="none" stroke="#000000" points="736.5,-1460 635.5,-1460 635.5,-1424 736.5,-1424 736.5,-1460"/>
<text text-anchor="middle" x="686" y="-1438.3" font-family="Times,serif" font-size="14.00" fill="#000000">JREポイント</text>
</g>
<!-- ビックカメラSuicaカード&#45;&gt;JREポイント -->
<g id="edge10" class="edge">
<title>ビックカメラSuicaカード&#45;&gt;JREポイント</title>
<path fill="none" stroke="#000000" d="M366.8794,-1469.9588C391.3261,-1461.0117 422.3554,-1451.0591 451,-1446 509.3998,-1435.6856 577.2318,-1435.7934 624.9638,-1437.8139"/>
<polygon fill="#000000" stroke="#000000" points="624.983,-1441.3185 635.1346,-1438.2862 625.3077,-1434.326 624.983,-1441.3185"/>
<text text-anchor="middle" x="485" y="-1449.8" font-family="Times,serif" font-size="14.00" fill="#000000">0.5%</text>
</g>
<!-- ビックポイント -->
<g id="node22" class="node">
<title>ビックポイント</title>
<polygon fill="none" stroke="#000000" points="744,-1598 628,-1598 628,-1562 744,-1562 744,-1598"/>
<text text-anchor="middle" x="686" y="-1576.3" font-family="Times,serif" font-size="14.00" fill="#000000">ビックポイント</text>
</g>
<!-- ビックカメラSuicaカード&#45;&gt;ビックポイント -->
<g id="edge13" class="edge">
<title>ビックカメラSuicaカード&#45;&gt;ビックポイント</title>
<path fill="none" stroke="#000000" d="M348.2937,-1506.0253C369.8166,-1519.8488 401.5696,-1538.1739 432,-1548 492.9649,-1567.6858 565.8016,-1575.3483 617.8138,-1578.2859"/>
<polygon fill="#000000" stroke="#000000" points="617.7604,-1581.7878 627.9289,-1578.8126 618.1245,-1574.7973 617.7604,-1581.7878"/>
<text text-anchor="middle" x="485" y="-1571.8" font-family="Times,serif" font-size="14.00" fill="#000000">0.5%</text>
</g>
<!-- 楽天モバイル -->
<g id="node35" class="node">
<title>楽天モバイル</title>
<polygon fill="none" stroke="#000000" points="1070,-585 968,-585 968,-549 1070,-549 1070,-585"/>
<text text-anchor="middle" x="1019" y="-563.3" font-family="Times,serif" font-size="14.00" fill="#000000">楽天モバイル</text>
</g>
<!-- ビックカメラSuicaカード&#45;&gt;楽天モバイル -->
<g id="edge23" class="edge">
<title>ビックカメラSuicaカード&#45;&gt;楽天モバイル</title>
<path fill="none" stroke="#000000" stroke-width="2" d="M324.512,-1469.8981C336.6663,-1384.0256 391.235,-1017.8719 451,-921 471.557,-887.6796 497.8946,-897.9758 519,-865 587.8631,-757.4059 492.7019,-667.3649 592,-587 646.5023,-542.8896 853.1828,-553.0001 957.6974,-561.3209"/>
<polygon fill="#000000" stroke="#000000" stroke-width="2" points="957.5376,-564.8194 967.789,-562.1441 958.1067,-557.8426 957.5376,-564.8194"/>
</g>
<!-- ビックカメラ -->
<g id="node42" class="node">
<title>ビックカメラ</title>
<polygon fill="none" stroke="#000000" points="1069.5,-1568 968.5,-1568 968.5,-1532 1069.5,-1532 1069.5,-1568"/>
<text text-anchor="middle" x="1019" y="-1546.3" font-family="Times,serif" font-size="14.00" fill="#000000">ビックカメラ</text>
</g>
<!-- ビックカメラSuicaカード&#45;&gt;ビックカメラ -->
<g id="edge11" class="edge">
<title>ビックカメラSuicaカード&#45;&gt;ビックカメラ</title>
<path fill="none" stroke="#000000" stroke-width="2" stroke-dasharray="5,2" d="M362.3106,-1506.0484C394.7687,-1518.9356 441.9233,-1534 485,-1534 485,-1534 485,-1534 870.5,-1534 899.4712,-1534 931.4397,-1537.0476 958.2711,-1540.4826"/>
<polygon fill="#000000" stroke="#000000" stroke-width="2" points="957.9122,-1543.9656 968.2859,-1541.8125 958.8337,-1537.0265 957.9122,-1543.9656"/>
</g>
<!-- EX予約 -->
<g id="node52" class="node">
<title>EX予約</title>
<polygon fill="none" stroke="#000000" points="1052,-1066 986,-1066 986,-1030 1052,-1030 1052,-1066"/>
<text text-anchor="middle" x="1019" y="-1044.3" font-family="Times,serif" font-size="14.00" fill="#000000">EX予約</text>
</g>
<!-- ビックカメラSuicaカード&#45;&gt;EX予約 -->
<g id="edge20" class="edge">
<title>ビックカメラSuicaカード&#45;&gt;EX予約</title>
<path fill="none" stroke="#000000" stroke-width="2" stroke-dasharray="5,2" d="M332.189,-1469.6515C363.4238,-1415.1365 463.5581,-1252.7946 592,-1170 716.3449,-1089.8464 894.1837,-1061.3084 975.4636,-1052.0413"/>
<polygon fill="#000000" stroke="#000000" stroke-width="2" points="976.2549,-1055.4756 985.814,-1050.9067 975.4921,-1048.5173 976.2549,-1055.4756"/>
</g>
<!-- nanaco -->
<g id="node16" class="node">
<title>nanaco</title>
<polygon fill="none" stroke="#000000" points="519,-966 451,-966 451,-930 519,-930 519,-966"/>
<text text-anchor="middle" x="485" y="-944.3" font-family="Times,serif" font-size="14.00" fill="#000000">nanaco</text>
</g>
<!-- リクルートカード&#45;&gt;nanaco -->
<g id="edge56" class="edge">
<title>リクルートカード&#45;&gt;nanaco</title>
<path fill="none" stroke="#000000" stroke-width="2" d="M339.1358,-793.1871C368.2401,-824.0769 427.4105,-886.8774 460.7518,-922.2642"/>
<polygon fill="#000000" stroke="#000000" stroke-width="2" points="458.4442,-924.9189 467.8492,-929.797 463.539,-920.1186 458.4442,-924.9189"/>
</g>
<!-- Edy -->
<g id="node17" class="node">
<title>Edy</title>
<polygon fill="none" stroke="#000000" points="512,-420 458,-420 458,-384 512,-384 512,-420"/>
<text text-anchor="middle" x="485" y="-398.3" font-family="Times,serif" font-size="14.00" fill="#000000">Edy</text>
</g>
<!-- リクルートカード&#45;&gt;Edy -->
<g id="edge41" class="edge">
<title>リクルートカード&#45;&gt;Edy</title>
<path fill="none" stroke="#000000" stroke-width="2" d="M329.9722,-756.7569C356.4049,-696.2697 441.2776,-502.0518 472.9402,-429.5969"/>
<polygon fill="#000000" stroke="#000000" stroke-width="2" points="476.2459,-430.7728 477.0432,-420.208 469.8316,-427.9697 476.2459,-430.7728"/>
</g>
<!-- Ponta -->
<g id="node18" class="node">
<title>Ponta</title>
<polygon fill="none" stroke="#000000" points="714.5,-877 657.5,-877 657.5,-841 714.5,-841 714.5,-877"/>
<text text-anchor="middle" x="686" y="-855.3" font-family="Times,serif" font-size="14.00" fill="#000000">Ponta</text>
</g>
<!-- リクルートカード&#45;&gt;Ponta -->
<g id="edge51" class="edge">
<title>リクルートカード&#45;&gt;Ponta</title>
<path fill="none" stroke="#000000" d="M353.1978,-793.0157C374.666,-804.583 404.2156,-818.9063 432,-827 506.0995,-848.5854 596.5415,-855.6109 647.0614,-857.8973"/>
<polygon fill="#000000" stroke="#000000" points="647.0796,-861.4009 657.2156,-858.3168 647.3686,-854.4069 647.0796,-861.4009"/>
<text text-anchor="middle" x="485" y="-849.8" font-family="Times,serif" font-size="14.00" fill="#000000">1.2%</text>
</g>
<!-- ASAHIネット -->
<g id="node34" class="node">
<title>ASAHIネット</title>
<polygon fill="none" stroke="#000000" points="1073.5,-809 964.5,-809 964.5,-773 1073.5,-773 1073.5,-809"/>
<text text-anchor="middle" x="1019" y="-787.3" font-family="Times,serif" font-size="14.00" fill="#000000">ASAHIネット</text>
</g>
<!-- リクルートカード&#45;&gt;ASAHIネット -->
<g id="edge32" class="edge">
<title>リクルートカード&#45;&gt;ASAHIネット</title>
<path fill="none" stroke="#000000" stroke-width="2" d="M386.6479,-775C416.5731,-775 452.5981,-775 485,-775 485,-775 485,-775 870.5,-775 898.0845,-775 928.3863,-777.7628 954.3839,-780.9923"/>
<polygon fill="#000000" stroke="#000000" stroke-width="2" points="954.127,-784.4881 964.493,-782.2977 955.0236,-777.5458 954.127,-784.4881"/>
</g>
<!-- 楽天でんき -->
<g id="node36" class="node">
<title>楽天でんき</title>
<polygon fill="none" stroke="#000000" points="1063,-239 975,-239 975,-203 1063,-203 1063,-239"/>
<text text-anchor="middle" x="1019" y="-217.3" font-family="Times,serif" font-size="14.00" fill="#000000">楽天でんき</text>
</g>
<!-- リクルートカード&#45;&gt;楽天でんき -->
<g id="edge39" class="edge">
<title>リクルートカード&#45;&gt;楽天でんき</title>
<path fill="none" stroke="#000000" stroke-width="2" d="M323.4566,-756.7915C331.4614,-662.8132 373.8631,-237 485,-237 485,-237 485,-237 870.5,-237 901.9083,-237 936.8393,-233.4181 964.9283,-229.6439"/>
<polygon fill="#000000" stroke="#000000" stroke-width="2" points="965.5253,-233.0947 974.9481,-228.251 964.5614,-226.1613 965.5253,-233.0947"/>
</g>
<!-- 関西電力 -->
<g id="node37" class="node">
<title>関西電力</title>
<polygon fill="none" stroke="#000000" points="1056,-1285 982,-1285 982,-1249 1056,-1249 1056,-1285"/>
<text text-anchor="middle" x="1019" y="-1263.3" font-family="Times,serif" font-size="14.00" fill="#000000">関西電力</text>
</g>
<!-- リクルートカード&#45;&gt;関西電力 -->
<g id="edge36" class="edge">
<title>リクルートカード&#45;&gt;関西電力</title>
<path fill="none" stroke="#000000" stroke-width="2" d="M328.9054,-793.3426C353.6603,-856.4437 444.4067,-1066.1669 592,-1166 680.8072,-1226.0698 712.3474,-1229.6989 817,-1253 869.0356,-1264.5858 930.3057,-1267.358 971.6099,-1267.693"/>
<polygon fill="#000000" stroke="#000000" stroke-width="2" points="971.6503,-1271.1931 981.663,-1267.7296 971.6758,-1264.1931 971.6503,-1271.1931"/>
</g>
<!-- 楽天損保 -->
<g id="node39" class="node">
<title>楽天損保</title>
<polygon fill="none" stroke="#000000" points="1056,-755 982,-755 982,-719 1056,-719 1056,-755"/>
<text text-anchor="middle" x="1019" y="-733.3" font-family="Times,serif" font-size="14.00" fill="#000000">楽天損保</text>
</g>
<!-- リクルートカード&#45;&gt;楽天損保 -->
<g id="edge40" class="edge">
<title>リクルートカード&#45;&gt;楽天損保</title>
<path fill="none" stroke="#000000" stroke-width="2" d="M372.6839,-756.8903C404.5061,-747.103 446.6442,-737 485,-737 485,-737 485,-737 870.5,-737 904.2533,-737 942.3221,-737 971.4644,-737"/>
<polygon fill="#000000" stroke="#000000" stroke-width="2" points="971.7726,-740.5001 981.7726,-737 971.7726,-733.5001 971.7726,-740.5001"/>
</g>
<!-- アイハート -->
<g id="node40" class="node">
<title>アイハート</title>
<polygon fill="none" stroke="#000000" points="1062,-701 976,-701 976,-665 1062,-665 1062,-701"/>
<text text-anchor="middle" x="1019" y="-679.3" font-family="Times,serif" font-size="14.00" fill="#000000">アイハート</text>
</g>
<!-- リクルートカード&#45;&gt;アイハート -->
<g id="edge35" class="edge">
<title>リクルートカード&#45;&gt;アイハート</title>
<path fill="none" stroke="#000000" stroke-width="2" d="M344.2179,-756.9891C374.2525,-734.5148 430.3589,-699 485,-699 485,-699 485,-699 870.5,-699 902.2547,-699 937.6103,-695.3387 965.8552,-691.519"/>
<polygon fill="#000000" stroke="#000000" stroke-width="2" points="966.5011,-694.9628 975.9197,-690.111 965.5312,-688.0303 966.5011,-694.9628"/>
</g>
<!-- Amazon -->
<g id="node50" class="node">
<title>Amazon</title>
<polygon fill="none" stroke="#000000" points="1056,-647 982,-647 982,-611 1056,-611 1056,-647"/>
<text text-anchor="middle" x="1019" y="-625.3" font-family="Times,serif" font-size="14.00" fill="#000000">Amazon</text>
</g>
<!-- リクルートカード&#45;&gt;Amazon -->
<g id="edge33" class="edge">
<title>リクルートカード&#45;&gt;Amazon</title>
<path fill="none" stroke="#000000" stroke-width="2" d="M335.2339,-756.9364C360.4658,-724.7915 418.8695,-661 485,-661 485,-661 485,-661 870.5,-661 905.0616,-661 943.153,-652.6144 972.1034,-644.4285"/>
<polygon fill="#000000" stroke="#000000" stroke-width="2" points="973.3236,-647.7184 981.9415,-641.5554 971.3613,-640.999 973.3236,-647.7184"/>
</g>
<!-- じゃらん -->
<g id="node53" class="node">
<title>じゃらん</title>
<polygon fill="none" stroke="#000000" points="1056,-863 982,-863 982,-827 1056,-827 1056,-863"/>
<text text-anchor="middle" x="1019" y="-841.3" font-family="Times,serif" font-size="14.00" fill="#000000">じゃらん</text>
</g>
<!-- リクルートカード&#45;&gt;じゃらん -->
<g id="edge34" class="edge">
<title>リクルートカード&#45;&gt;じゃらん</title>
<path fill="none" stroke="#000000" stroke-width="2" d="M372.6839,-793.1097C404.5061,-802.897 446.6442,-813 485,-813 485,-813 485,-813 870.5,-813 905.0616,-813 943.153,-821.3856 972.1034,-829.5715"/>
<polygon fill="#000000" stroke="#000000" stroke-width="2" points="971.3613,-833.001 981.9415,-832.4446 973.3236,-826.2816 971.3613,-833.001"/>
</g>
<!-- 電車 -->
<g id="node32" class="node">
<title>電車</title>
<polygon fill="none" stroke="#000000" points="1046,-1806 992,-1806 992,-1770 1046,-1770 1046,-1806"/>
<text text-anchor="middle" x="1019" y="-1784.3" font-family="Times,serif" font-size="14.00" fill="#000000">電車</text>
</g>
<!-- PiTaPa&#45;&gt;電車 -->
<g id="edge67" class="edge">
<title>PiTaPa&#45;&gt;電車</title>
<path fill="none" stroke="#000000" stroke-width="2" d="M354.7816,-1788C387.6969,-1788 439.8637,-1788 485,-1788 485,-1788 485,-1788 870.5,-1788 908.4372,-1788 951.8261,-1788 981.8647,-1788"/>
<polygon fill="#000000" stroke="#000000" stroke-width="2" points="981.9022,-1791.5001 991.9022,-1788 981.9022,-1784.5001 981.9022,-1791.5001"/>
</g>
<!-- バス -->
<g id="node33" class="node">
<title>バス</title>
<polygon fill="none" stroke="#000000" points="1046,-1679 992,-1679 992,-1643 1046,-1643 1046,-1679"/>
<text text-anchor="middle" x="1019" y="-1657.3" font-family="Times,serif" font-size="14.00" fill="#000000">バス</text>
</g>
<!-- PiTaPa&#45;&gt;バス -->
<g id="edge69" class="edge">
<title>PiTaPa&#45;&gt;バス</title>
<path fill="none" stroke="#000000" stroke-width="2" d="M333.4383,-1769.804C357.0872,-1734.6874 415.0455,-1661 485,-1661 485,-1661 485,-1661 870.5,-1661 908.4372,-1661 951.8261,-1661 981.8647,-1661"/>
<polygon fill="#000000" stroke="#000000" stroke-width="2" points="981.9022,-1664.5001 991.9022,-1661 981.9022,-1657.5001 981.9022,-1664.5001"/>
</g>
<!-- Suica&#45;&gt;JREポイント -->
<g id="edge21" class="edge">
<title>Suica&#45;&gt;JREポイント</title>
<path fill="none" stroke="#000000" d="M513.2189,-1475.307C520.8247,-1472.2455 529.129,-1469.221 537,-1467 565.5399,-1458.9467 597.932,-1453.1306 625.2075,-1449.1464"/>
<polygon fill="#000000" stroke="#000000" points="625.9795,-1452.5722 635.3919,-1447.7083 625.0007,-1445.641 625.9795,-1452.5722"/>
<text text-anchor="middle" x="555.5" y="-1470.8" font-family="Times,serif" font-size="14.00" fill="#000000">1.5%</text>
</g>
<!-- Suica&#45;&gt;電車 -->
<g id="edge16" class="edge">
<title>Suica&#45;&gt;電車</title>
<path fill="none" stroke="#000000" stroke-width="2" d="M497.5346,-1506.4108C515.7372,-1531.9659 551.7414,-1578.278 592,-1607 721.2223,-1699.1919 904.6549,-1756.7337 982.1639,-1778.3178"/>
<polygon fill="#000000" stroke="#000000" stroke-width="2" points="981.3788,-1781.7318 991.9488,-1781.0075 983.2342,-1774.9821 981.3788,-1781.7318"/>
</g>
<!-- 松屋 -->
<g id="node48" class="node">
<title>松屋</title>
<polygon fill="none" stroke="#000000" points="1046,-1174 992,-1174 992,-1138 1046,-1138 1046,-1174"/>
<text text-anchor="middle" x="1019" y="-1152.3" font-family="Times,serif" font-size="14.00" fill="#000000">松屋</text>
</g>
<!-- Suica&#45;&gt;松屋 -->
<g id="edge17" class="edge">
<title>Suica&#45;&gt;松屋</title>
<path fill="none" stroke="#000000" stroke-width="2" d="M513.2495,-1470.9337C515.3342,-1469.0797 517.2875,-1467.0979 519,-1465 572.5514,-1399.3981 535.7328,-1352.2879 592,-1289 668.1529,-1203.3452 706.6187,-1193.8538 817,-1163 872.8045,-1147.4015 940.6617,-1149.0134 981.8053,-1152.1233"/>
<polygon fill="#000000" stroke="#000000" stroke-width="2" points="981.6626,-1155.6234 991.917,-1152.9592 982.2394,-1148.6472 981.6626,-1155.6234"/>
</g>
<!-- 吉野家 -->
<g id="node49" class="node">
<title>吉野家</title>
<polygon fill="none" stroke="#000000" points="1048.5,-1514 989.5,-1514 989.5,-1478 1048.5,-1478 1048.5,-1514"/>
<text text-anchor="middle" x="1019" y="-1492.3" font-family="Times,serif" font-size="14.00" fill="#000000">吉野家</text>
</g>
<!-- Suica&#45;&gt;吉野家 -->
<g id="edge18" class="edge">
<title>Suica&#45;&gt;吉野家</title>
<path fill="none" stroke="#000000" stroke-width="2" d="M513.3331,-1488.4245C602.256,-1489.7566 876.0027,-1493.8577 979.137,-1495.4028"/>
<polygon fill="#000000" stroke="#000000" stroke-width="2" points="979.3784,-1498.9067 989.4298,-1495.557 979.4834,-1491.9075 979.3784,-1498.9067"/>
</g>
<!-- 株主優待券 -->
<g id="node28" class="node">
<title>株主優待券</title>
<polygon fill="none" stroke="#000000" points="914.5,-1904 826.5,-1904 826.5,-1868 914.5,-1868 914.5,-1904"/>
<text text-anchor="middle" x="870.5" y="-1882.3" font-family="Times,serif" font-size="14.00" fill="#000000">株主優待券</text>
</g>
<!-- 現金&#45;&gt;株主優待券 -->
<g id="edge72" class="edge">
<title>現金&#45;&gt;株主優待券</title>
<path fill="none" stroke="#000000" stroke-width="2" d="M512.1076,-1882.3326C575.1191,-1878.6731 732.4432,-1878.2719 816.1363,-1881.1289"/>
<polygon fill="#000000" stroke="#000000" stroke-width="2" points="816.089,-1884.6294 826.2121,-1881.5034 816.3491,-1877.6343 816.089,-1884.6294"/>
</g>
<!-- 飲食店 -->
<g id="node45" class="node">
<title>飲食店</title>
<polygon fill="none" stroke="#000000" points="1048.5,-1943 989.5,-1943 989.5,-1907 1048.5,-1907 1048.5,-1943"/>
<text text-anchor="middle" x="1019" y="-1921.3" font-family="Times,serif" font-size="14.00" fill="#000000">飲食店</text>
</g>
<!-- 現金&#45;&gt;飲食店 -->
<g id="edge71" class="edge">
<title>現金&#45;&gt;飲食店</title>
<path fill="none" stroke="#000000" stroke-width="2" d="M512.1192,-1900.3334C519.9406,-1903.8159 528.628,-1907.0855 537,-1909 697.6535,-1945.7376 896.2047,-1935.4408 979.4036,-1928.7185"/>
<polygon fill="#000000" stroke="#000000" stroke-width="2" points="979.7604,-1932.201 989.4338,-1927.8795 979.1769,-1925.2253 979.7604,-1932.201"/>
</g>
<!-- nanacoポイント -->
<g id="node24" class="node">
<title>nanacoポイント</title>
<polygon fill="none" stroke="#000000" points="748.5,-1036 623.5,-1036 623.5,-1000 748.5,-1000 748.5,-1036"/>
<text text-anchor="middle" x="686" y="-1014.3" font-family="Times,serif" font-size="14.00" fill="#000000">nanacoポイント</text>
</g>
<!-- nanaco&#45;&gt;nanacoポイント -->
<g id="edge58" class="edge">
<title>nanaco&#45;&gt;nanacoポイント</title>
<path fill="none" stroke="#000000" d="M495.2044,-966.172C504.2104,-980.2759 518.7367,-998.9091 537,-1008 560.1532,-1019.5249 587.8868,-1023.5864 613.1155,-1024.251"/>
<polygon fill="#000000" stroke="#000000" points="613.3512,-1027.7532 623.3822,-1024.3429 613.4139,-1020.7535 613.3512,-1027.7532"/>
<text text-anchor="middle" x="555.5" y="-1023.8" font-family="Times,serif" font-size="14.00" fill="#000000">1%</text>
</g>
<!-- iTunesカード -->
<g id="node29" class="node">
<title>iTunesカード</title>
<polygon fill="none" stroke="#000000" points="924,-1008 817,-1008 817,-972 924,-972 924,-1008"/>
<text text-anchor="middle" x="870.5" y="-986.3" font-family="Times,serif" font-size="14.00" fill="#000000">iTunesカード</text>
</g>
<!-- nanaco&#45;&gt;iTunesカード -->
<g id="edge60" class="edge">
<title>nanaco&#45;&gt;iTunesカード</title>
<path fill="none" stroke="#000000" stroke-width="2" d="M519.2106,-951.7272C583.7762,-958.7616 724.4909,-974.0924 806.8919,-983.0699"/>
<polygon fill="#000000" stroke="#000000" stroke-width="2" points="806.5681,-986.5553 816.8884,-984.159 807.3263,-979.5965 806.5681,-986.5553"/>
</g>
<!-- セブンイレブン -->
<g id="node31" class="node">
<title>セブンイレブン</title>
<polygon fill="none" stroke="#000000" points="1076,-958 962,-958 962,-922 1076,-922 1076,-958"/>
<text text-anchor="middle" x="1019" y="-936.3" font-family="Times,serif" font-size="14.00" fill="#000000">セブンイレブン</text>
</g>
<!-- nanaco&#45;&gt;セブンイレブン -->
<g id="edge57" class="edge">
<title>nanaco&#45;&gt;セブンイレブン</title>
<path fill="none" stroke="#000000" stroke-width="2" d="M519.2164,-947.4874C606.1386,-946.1852 836.6898,-942.7312 951.7369,-941.0077"/>
<polygon fill="#000000" stroke="#000000" stroke-width="2" points="951.8845,-944.506 961.8309,-940.8565 951.7795,-937.5068 951.8845,-944.506"/>
</g>
<!-- 楽天ポイント -->
<g id="node20" class="node">
<title>楽天ポイント</title>
<polygon fill="none" stroke="#000000" points="737,-491 635,-491 635,-455 737,-455 737,-491"/>
<text text-anchor="middle" x="686" y="-469.3" font-family="Times,serif" font-size="14.00" fill="#000000">楽天ポイント</text>
</g>
<!-- Edy&#45;&gt;楽天ポイント -->
<g id="edge50" class="edge">
<title>Edy&#45;&gt;楽天ポイント</title>
<path fill="none" stroke="#000000" d="M512.1078,-411.5754C540.9292,-421.7561 587.4574,-438.1914 625.1353,-451.5005"/>
<polygon fill="#000000" stroke="#000000" points="624.4104,-454.9563 635.0052,-454.9869 626.7419,-448.356 624.4104,-454.9563"/>
<text text-anchor="middle" x="555.5" y="-437.8" font-family="Times,serif" font-size="14.00" fill="#000000">0.5%</text>
</g>
<!-- ヤマト運輸 -->
<g id="node38" class="node">
<title>ヤマト運輸</title>
<polygon fill="none" stroke="#000000" points="1063,-1120 975,-1120 975,-1084 1063,-1084 1063,-1120"/>
<text text-anchor="middle" x="1019" y="-1098.3" font-family="Times,serif" font-size="14.00" fill="#000000">ヤマト運輸</text>
</g>
<!-- Edy&#45;&gt;ヤマト運輸 -->
<g id="edge42" class="edge">
<title>Edy&#45;&gt;ヤマト運輸</title>
<path fill="none" stroke="#000000" stroke-width="2" d="M486.458,-420.3321C494.7495,-524.5242 535.6381,-1037.5438 537,-1039 647.7673,-1157.4342 863.8044,-1133.5707 964.6779,-1114.2998"/>
<polygon fill="#000000" stroke="#000000" stroke-width="2" points="965.5185,-1117.7016 974.6545,-1112.3365 964.1669,-1110.8333 965.5185,-1117.7016"/>
</g>
<!-- ウェルシア -->
<g id="node41" class="node">
<title>ウェルシア</title>
<polygon fill="none" stroke="#000000" points="1062.5,-1339 975.5,-1339 975.5,-1303 1062.5,-1303 1062.5,-1339"/>
<text text-anchor="middle" x="1019" y="-1317.3" font-family="Times,serif" font-size="14.00" fill="#000000">ウェルシア</text>
</g>
<!-- Edy&#45;&gt;ウェルシア -->
<g id="edge47" class="edge">
<title>Edy&#45;&gt;ウェルシア</title>
<path fill="none" stroke="#000000" stroke-width="2" d="M486.4882,-420.3095C491.2884,-479.4481 506.7615,-670.6997 519,-829 523.1226,-882.324 514.0191,-1020.7059 537,-1069 604.6907,-1211.2514 882.4415,-1155.7888 924,-1192 960.3581,-1223.6799 928.4282,-1258.4387 961,-1294 962.7724,-1295.935 964.7115,-1297.7429 966.7717,-1299.4305"/>
<polygon fill="#000000" stroke="#000000" stroke-width="2" points="965.024,-1302.4798 975.2202,-1305.3586 969.0447,-1296.7497 965.024,-1302.4798"/>
</g>
<!-- ヨドバシカメラ -->
<g id="node43" class="node">
<title>ヨドバシカメラ</title>
<polygon fill="none" stroke="#000000" points="1077,-420 961,-420 961,-384 1077,-384 1077,-420"/>
<text text-anchor="middle" x="1019" y="-398.3" font-family="Times,serif" font-size="14.00" fill="#000000">ヨドバシカメラ</text>
</g>
<!-- Edy&#45;&gt;ヨドバシカメラ -->
<g id="edge44" class="edge">
<title>Edy&#45;&gt;ヨドバシカメラ</title>
<path fill="none" stroke="#000000" stroke-width="2" d="M512.2153,-402C592.8604,-402 832.3117,-402 950.8959,-402"/>
<polygon fill="#000000" stroke="#000000" stroke-width="2" points="950.9497,-405.5001 960.9496,-402 950.9496,-398.5001 950.9497,-405.5001"/>
</g>
<!-- 餃子の王将 -->
<g id="node44" class="node">
<title>餃子の王将</title>
<polygon fill="none" stroke="#000000" points="1063,-90 975,-90 975,-54 1063,-54 1063,-90"/>
<text text-anchor="middle" x="1019" y="-68.3" font-family="Times,serif" font-size="14.00" fill="#000000">餃子の王将</text>
</g>
<!-- Edy&#45;&gt;餃子の王将 -->
<g id="edge66" class="edge">
<title>Edy&#45;&gt;餃子の王将</title>
<path fill="none" stroke="#000000" stroke-width="2" d="M486.0951,-383.732C489.1821,-342.0175 500.2818,-237.3211 537,-159 553.7949,-123.1759 556.7661,-107.0001 592,-89 713.2611,-27.0508 880.1311,-45.1922 964.8812,-60.4253"/>
<polygon fill="#000000" stroke="#000000" stroke-width="2" points="964.3307,-63.8828 974.8009,-62.263 965.6058,-56.9999 964.3307,-63.8828"/>
</g>
<!-- FRESCO -->
<g id="node46" class="node">
<title>FRESCO</title>
<polygon fill="none" stroke="#000000" points="1059,-144 979,-144 979,-108 1059,-108 1059,-144"/>
<text text-anchor="middle" x="1019" y="-122.3" font-family="Times,serif" font-size="14.00" fill="#000000">FRESCO</text>
</g>
<!-- Edy&#45;&gt;FRESCO -->
<g id="edge63" class="edge">
<title>Edy&#45;&gt;FRESCO</title>
<path fill="none" stroke="#000000" stroke-width="2" d="M486.3149,-383.8187C490.8866,-335.5607 510.6176,-204.0399 592,-147 706.4442,-66.7875 883.5414,-93.2108 969.2116,-112.7979"/>
<polygon fill="#000000" stroke="#000000" stroke-width="2" points="968.4127,-116.2055 978.9482,-115.0853 970.0137,-109.391 968.4127,-116.2055"/>
</g>
<!-- 業務スーパー -->
<g id="node47" class="node">
<title>業務スーパー</title>
<polygon fill="none" stroke="#000000" points="1069.5,-293 968.5,-293 968.5,-257 1069.5,-257 1069.5,-293"/>
<text text-anchor="middle" x="1019" y="-271.3" font-family="Times,serif" font-size="14.00" fill="#000000">業務スーパー</text>
</g>
<!-- Edy&#45;&gt;業務スーパー -->
<g id="edge62" class="edge">
<title>Edy&#45;&gt;業務スーパー</title>
<path fill="none" stroke="#000000" stroke-width="2" d="M500.2064,-383.7023C519.2022,-362.3027 553.8783,-327.7984 592,-312 714.3676,-261.2883 873.0236,-263.2122 958.3317,-269.0906"/>
<polygon fill="#000000" stroke="#000000" stroke-width="2" points="958.1356,-272.5855 968.3642,-269.8238 958.6459,-265.6041 958.1356,-272.5855"/>
</g>
<!-- Ponta&#45;&gt;じゃらん -->
<g id="edge52" class="edge">
<title>Ponta&#45;&gt;じゃらん</title>
<path fill="none" stroke="#000000" d="M714.6698,-865.128C759.4781,-873.8417 848.7718,-887.7328 924,-878 940.1927,-875.905 957.232,-870.9371 972.3387,-865.4747"/>
<polygon fill="#000000" stroke="#000000" points="973.8417,-868.6484 981.9585,-861.8389 971.3669,-862.1004 973.8417,-868.6484"/>
</g>
<!-- Tポイント -->
<g id="node19" class="node">
<title>Tポイント</title>
<polygon fill="none" stroke="#000000" points="727.5,-1406 644.5,-1406 644.5,-1370 727.5,-1370 727.5,-1406"/>
<text text-anchor="middle" x="686" y="-1384.3" font-family="Times,serif" font-size="14.00" fill="#000000">Tポイント</text>
</g>
<!-- はぴeポイント -->
<g id="node27" class="node">
<title>はぴeポイント</title>
<polygon fill="none" stroke="#000000" points="741,-1334 631,-1334 631,-1298 741,-1298 741,-1334"/>
<text text-anchor="middle" x="686" y="-1312.3" font-family="Times,serif" font-size="14.00" fill="#000000">はぴeポイント</text>
</g>
<!-- Tポイント&#45;&gt;はぴeポイント -->
<g id="edge49" class="edge">
<title>Tポイント&#45;&gt;はぴeポイント</title>
<path fill="none" stroke="#000000" d="M686,-1369.9539C686,-1361.4073 686,-1352.8607 686,-1344.3142"/>
<polygon fill="#000000" stroke="#000000" points="689.5001,-1344.2812 686,-1334.2813 682.5001,-1344.2813 689.5001,-1344.2812"/>
</g>
<!-- 楽天ポイント&#45;&gt;楽天モバイル -->
<g id="edge25" class="edge">
<title>楽天ポイント&#45;&gt;楽天モバイル</title>
<path fill="none" stroke="#000000" d="M737.1156,-490.1512C761.2435,-498.0506 790.4975,-507.3473 817,-515 863.9874,-528.5677 917.6177,-542.2924 957.8045,-552.2323"/>
<polygon fill="#000000" stroke="#000000" points="957.1726,-555.6813 967.7196,-554.6755 958.8474,-548.8845 957.1726,-555.6813"/>
</g>
<!-- 楽天ポイント&#45;&gt;楽天でんき -->
<g id="edge26" class="edge">
<title>楽天ポイント&#45;&gt;楽天でんき</title>
<path fill="none" stroke="#000000" d="M737.2233,-459.8303C790.8669,-443.5225 874.1112,-410.7106 924,-354 956.9583,-316.535 927.5211,-285.0005 961,-248 962.728,-246.0903 964.6187,-244.305 966.6287,-242.6373"/>
<polygon fill="#000000" stroke="#000000" points="968.756,-245.4193 974.8792,-236.7731 964.7006,-239.7137 968.756,-245.4193"/>
</g>
<!-- JREポイント&#45;&gt;Suica -->
<g id="edge22" class="edge">
<title>JREポイント&#45;&gt;Suica</title>
<path fill="none" stroke="#000000" d="M635.4566,-1440.504C606.0247,-1441.0723 568.6066,-1444.306 537,-1455 530.0368,-1457.356 523.0633,-1460.8265 516.5872,-1464.6431"/>
<polygon fill="#000000" stroke="#000000" points="514.7023,-1461.694 508.1122,-1469.9899 518.4373,-1467.6143 514.7023,-1461.694"/>
</g>
<!-- ビックポイント&#45;&gt;ビックカメラ -->
<g id="edge14" class="edge">
<title>ビックポイント&#45;&gt;ビックカメラ</title>
<path fill="none" stroke="#000000" d="M744.0042,-1574.7744C803.9835,-1569.3709 897.2338,-1560.9699 958.2169,-1555.476"/>
<polygon fill="#000000" stroke="#000000" points="958.8185,-1558.936 968.4641,-1554.5528 958.1903,-1551.9643 958.8185,-1558.936"/>
</g>
<!-- Amazonポイント -->
<g id="node23" class="node">
<title>Amazonポイント</title>
<polygon fill="none" stroke="#000000" points="751.5,-632 620.5,-632 620.5,-596 751.5,-596 751.5,-632"/>
<text text-anchor="middle" x="686" y="-610.3" font-family="Times,serif" font-size="14.00" fill="#000000">Amazonポイント</text>
</g>
<!-- Amazonポイント&#45;&gt;Amazon -->
<g id="edge55" class="edge">
<title>Amazonポイント&#45;&gt;Amazon</title>
<path fill="none" stroke="#000000" d="M751.7901,-611.4598C816.563,-612.5324 913.908,-617.121 971.4901,-621.9672"/>
<polygon fill="#000000" stroke="#000000" points="971.4933,-625.481 981.7624,-622.8743 972.1091,-618.5081 971.4933,-625.481"/>
</g>
<!-- nanacoポイント&#45;&gt;nanaco -->
<g id="edge59" class="edge">
<title>nanacoポイント&#45;&gt;nanaco</title>
<path fill="none" stroke="#000000" d="M623.4945,-1008.5371C596.2045,-1003.0933 564.2756,-994.9058 537,-983 530.0746,-979.9771 523.0805,-976.019 516.5643,-971.8556"/>
<polygon fill="#000000" stroke="#000000" points="518.2787,-968.7909 508.0262,-966.1193 514.375,-974.6013 518.2787,-968.7909"/>
</g>
<!-- FRESCOポイント -->
<g id="node25" class="node">
<title>FRESCOポイント</title>
<polygon fill="none" stroke="#000000" points="754.5,-192 617.5,-192 617.5,-156 754.5,-156 754.5,-192"/>
<text text-anchor="middle" x="686" y="-170.3" font-family="Times,serif" font-size="14.00" fill="#000000">FRESCOポイント</text>
</g>
<!-- FRESCOポイント&#45;&gt;FRESCO -->
<g id="edge65" class="edge">
<title>FRESCOポイント&#45;&gt;FRESCO</title>
<path fill="none" stroke="#000000" d="M754.7229,-182.9243C802.8164,-187.0873 868.1858,-188.5463 924,-175 945.0394,-169.8937 966.6323,-159.2651 983.9047,-149.208"/>
<polygon fill="#000000" stroke="#000000" points="985.7483,-152.1836 992.5174,-144.0332 982.1431,-146.1833 985.7483,-152.1836"/>
</g>
<!-- ヨドバシゴールドポイント -->
<g id="node26" class="node">
<title>ヨドバシゴールドポイント</title>
<polygon fill="none" stroke="#000000" points="780,-357 592,-357 592,-321 780,-321 780,-357"/>
<text text-anchor="middle" x="686" y="-335.3" font-family="Times,serif" font-size="14.00" fill="#000000">ヨドバシゴールドポイント</text>
</g>
<!-- ヨドバシゴールドポイント&#45;&gt;ヨドバシカメラ -->
<g id="edge46" class="edge">
<title>ヨドバシゴールドポイント&#45;&gt;ヨドバシカメラ</title>
<path fill="none" stroke="#000000" d="M780.0892,-356.8007C834.4286,-367.0811 901.5474,-379.7792 950.7947,-389.0963"/>
<polygon fill="#000000" stroke="#000000" points="950.2323,-392.5519 960.7086,-390.9719 951.5336,-385.6739 950.2323,-392.5519"/>
</g>
<!-- はぴeポイント&#45;&gt;関西電力 -->
<g id="edge38" class="edge">
<title>はぴeポイント&#45;&gt;関西電力</title>
<path fill="none" stroke="#000000" d="M741.2565,-1309.2344C793.3761,-1302.6731 873.6368,-1292.1057 943,-1281 952.3396,-1279.5046 962.299,-1277.7711 971.8285,-1276.0441"/>
<polygon fill="#000000" stroke="#000000" points="972.7478,-1279.4338 981.9506,-1274.1841 971.4826,-1272.5491 972.7478,-1279.4338"/>
</g>
<!-- 株主優待券&#45;&gt;現金 -->
<g id="edge74" class="edge">
<title>株主優待券&#45;&gt;現金</title>
<path fill="none" stroke="#000000" d="M826.2121,-1890.4966C749.6607,-1893.5968 593.9433,-1893.4981 522.4327,-1890.2005"/>
<polygon fill="#000000" stroke="#000000" points="522.2748,-1886.6878 512.1076,-1889.6674 521.9138,-1893.6785 522.2748,-1886.6878"/>
</g>
<!-- 株主優待券&#45;&gt;電車 -->
<g id="edge73" class="edge">
<title>株主優待券&#45;&gt;電車</title>
<path fill="none" stroke="#000000" stroke-width="2" d="M908.1361,-1867.9569C919.584,-1862.025 932.0321,-1855.116 943,-1848 959.3865,-1837.3684 976.5549,-1824.0271 990.4194,-1812.6261"/>
<polygon fill="#000000" stroke="#000000" stroke-width="2" points="992.7246,-1815.2611 998.17,-1806.1727 988.2456,-1809.8817 992.7246,-1815.2611"/>
</g>
<!-- iTunes -->
<g id="node51" class="node">
<title>iTunes</title>
<polygon fill="none" stroke="#000000" points="1051.5,-1012 986.5,-1012 986.5,-976 1051.5,-976 1051.5,-1012"/>
<text text-anchor="middle" x="1019" y="-990.3" font-family="Times,serif" font-size="14.00" fill="#000000">iTunes</text>
</g>
<!-- iTunesカード&#45;&gt;iTunes -->
<g id="edge61" class="edge">
<title>iTunesカード&#45;&gt;iTunes</title>
<path fill="none" stroke="#000000" stroke-width="2" d="M924.1119,-991.4441C941.1494,-991.903 959.7618,-992.4044 975.954,-992.8405"/>
<polygon fill="#000000" stroke="#000000" stroke-width="2" points="976.1136,-996.346 986.2042,-993.1166 976.3021,-989.3485 976.1136,-996.346"/>
</g>
<!-- 電車&#45;&gt;PiTaPa -->
<g id="edge68" class="edge">
<title>電車&#45;&gt;PiTaPa</title>
<path fill="none" stroke="#000000" d="M991.863,-1801.8015C962.6675,-1815.3511 914.4934,-1834 870.5,-1834 485,-1834 485,-1834 485,-1834 442.7641,-1834 396.6078,-1819.5179 364.2278,-1806.8053"/>
<polygon fill="#000000" stroke="#000000" points="365.2238,-1803.433 354.6406,-1802.9349 362.6032,-1809.924 365.2238,-1803.433"/>
<text text-anchor="middle" x="686" y="-1837.8" font-family="Times,serif" font-size="14.00" fill="#000000">10%</text>
</g>
<!-- バス&#45;&gt;PiTaPa -->
<g id="edge70" class="edge">
<title>バス&#45;&gt;PiTaPa</title>
<path fill="none" stroke="#000000" d="M1001.1677,-1679.2267C974.9974,-1703.9318 923.5199,-1745 870.5,-1745 485,-1745 485,-1745 485,-1745 442.9611,-1745 396.7808,-1758.5376 364.3416,-1770.4211"/>
<polygon fill="#000000" stroke="#000000" points="362.8599,-1767.2391 354.7353,-1774.0391 365.3272,-1773.7899 362.8599,-1767.2391"/>
<text text-anchor="middle" x="686" y="-1748.8" font-family="Times,serif" font-size="14.00" fill="#000000">10%</text>
</g>
<!-- 楽天モバイル&#45;&gt;楽天ポイント -->
<g id="edge24" class="edge">
<title>楽天モバイル&#45;&gt;楽天ポイント</title>
<path fill="none" stroke="#000000" d="M999.6082,-548.8311C981.5265,-533.0542 953.0486,-511.0537 924,-500 866.8515,-478.2535 796.8339,-472.5809 747.5846,-471.6915"/>
<polygon fill="#000000" stroke="#000000" points="747.4437,-468.1897 737.4027,-471.5703 747.3603,-475.1892 747.4437,-468.1897"/>
<text text-anchor="middle" x="870.5" y="-503.8" font-family="Times,serif" font-size="14.00" fill="#000000">0.5%</text>
</g>
<!-- 関西電力&#45;&gt;はぴeポイント -->
<g id="edge37" class="edge">
<title>関西電力&#45;&gt;はぴeポイント</title>
<path fill="none" stroke="#000000" d="M981.732,-1280.8932C974.445,-1284.5359 967.1615,-1288.902 961,-1294 950.4512,-1302.7281 955.1858,-1312.758 943,-1319 883.3676,-1349.5457 805.2732,-1343.2268 750.8896,-1332.7797"/>
<polygon fill="#000000" stroke="#000000" points="751.5153,-1329.3355 741.0207,-1330.789 750.1311,-1336.1973 751.5153,-1329.3355"/>
<text text-anchor="middle" x="870.5" y="-1345.8" font-family="Times,serif" font-size="14.00" fill="#000000">0.8%, 0.5%</text>
</g>
<!-- ヤマト運輸&#45;&gt;Tポイント -->
<g id="edge43" class="edge">
<title>ヤマト運輸&#45;&gt;Tポイント</title>
<path fill="none" stroke="#000000" d="M974.7439,-1120.0998C969.9243,-1122.7925 965.2371,-1125.7641 961,-1129 911.5,-1166.8035 829.2952,-1304.9298 780,-1343 767.1961,-1352.8884 751.8691,-1361.3589 737.3434,-1368.1957"/>
<polygon fill="#000000" stroke="#000000" points="735.6134,-1365.1369 727.9483,-1372.451 738.5015,-1371.5133 735.6134,-1365.1369"/>
<text text-anchor="middle" x="870.5" y="-1308.8" font-family="Times,serif" font-size="14.00" fill="#000000">0.5%</text>
</g>
<!-- ウェルシア&#45;&gt;Tポイント -->
<g id="edge48" class="edge">
<title>ウェルシア&#45;&gt;Tポイント</title>
<path fill="none" stroke="#000000" d="M982.8592,-1339.0928C965.472,-1347.0436 944.0835,-1355.7488 924,-1361 861.0865,-1377.4499 786.228,-1383.8776 737.4929,-1386.3893"/>
<polygon fill="#000000" stroke="#000000" points="737.3246,-1382.8932 727.5036,-1386.868 737.6597,-1389.8852 737.3246,-1382.8932"/>
<text text-anchor="middle" x="870.5" y="-1383.8" font-family="Times,serif" font-size="14.00" fill="#000000">1%</text>
</g>
<!-- ビックカメラ&#45;&gt;ビックポイント -->
<g id="edge12" class="edge">
<title>ビックカメラ&#45;&gt;ビックポイント</title>
<path fill="none" stroke="#000000" stroke-dasharray="5,2" d="M988.6915,-1568.143C975.1992,-1575.2043 958.811,-1582.4446 943,-1586 880.237,-1600.1133 806.676,-1596.4315 754.374,-1590.5193"/>
<polygon fill="#000000" stroke="#000000" points="754.5496,-1587.0157 744.2066,-1589.3118 753.724,-1593.9668 754.5496,-1587.0157"/>
<text text-anchor="middle" x="870.5" y="-1599.8" font-family="Times,serif" font-size="14.00" fill="#000000">9.5%</text>
</g>
<!-- ヨドバシカメラ&#45;&gt;ヨドバシゴールドポイント -->
<g id="edge45" class="edge">
<title>ヨドバシカメラ&#45;&gt;ヨドバシゴールドポイント</title>
<path fill="none" stroke="#000000" d="M1000.9173,-383.9878C983.0913,-367.6086 954.2034,-344.5793 924,-335 881.5148,-321.5254 832.5839,-320.1146 790.1793,-322.9942"/>
<polygon fill="#000000" stroke="#000000" points="789.8166,-319.5116 780.1132,-323.7655 790.3514,-326.4912 789.8166,-319.5116"/>
<text text-anchor="middle" x="870.5" y="-338.8" font-family="Times,serif" font-size="14.00" fill="#000000">10%</text>
</g>
<!-- FRESCO&#45;&gt;FRESCOポイント -->
<g id="edge64" class="edge">
<title>FRESCO&#45;&gt;FRESCOポイント</title>
<path fill="none" stroke="#000000" d="M978.7282,-131.8049C925.8713,-139.424 831.9362,-152.9642 764.7245,-162.6523"/>
<polygon fill="#000000" stroke="#000000" points="763.9924,-159.2216 754.594,-164.1126 764.9911,-166.15 763.9924,-159.2216"/>
<text text-anchor="middle" x="870.5" y="-159.8" font-family="Times,serif" font-size="14.00" fill="#000000">0.5%</text>
</g>
<!-- 吉野家&#45;&gt;Tポイント -->
<g id="edge19" class="edge">
<title>吉野家&#45;&gt;Tポイント</title>
<path fill="none" stroke="#000000" d="M989.3393,-1485.4458C944.3056,-1469.5354 855.8895,-1438.7445 780,-1415 766.3083,-1410.7161 751.4149,-1406.3189 737.6045,-1402.3497"/>
<polygon fill="#000000" stroke="#000000" points="738.3491,-1398.9225 727.7724,-1399.543 736.4275,-1405.6536 738.3491,-1398.9225"/>
<text text-anchor="middle" x="870.5" y="-1466.8" font-family="Times,serif" font-size="14.00" fill="#000000">0.5%</text>
</g>
<!-- Amazon&#45;&gt;Amazonポイント -->
<g id="edge54" class="edge">
<title>Amazon&#45;&gt;Amazonポイント</title>
<path fill="none" stroke="#000000" d="M981.7624,-631.771C928.8672,-631.9218 830.7837,-627.9456 762.1216,-623.2032"/>
<polygon fill="#000000" stroke="#000000" points="762.0135,-619.6867 751.7901,-622.4673 761.5161,-626.669 762.0135,-619.6867"/>
</g>
<!-- じゃらん&#45;&gt;Ponta -->
<g id="edge53" class="edge">
<title>じゃらん&#45;&gt;Ponta</title>
<path fill="none" stroke="#000000" d="M981.7612,-846.5656C918.2218,-849.2369 789.4805,-854.6495 724.8544,-857.3665"/>
<polygon fill="#000000" stroke="#000000" points="724.5237,-853.8772 714.6796,-857.7943 724.8178,-860.871 724.5237,-853.8772"/>
<text text-anchor="middle" x="870.5" y="-857.8" font-family="Times,serif" font-size="14.00" fill="#000000">2%</text>
</g>
</g>
</svg>
