<?xml version="1.0" encoding="UTF-8" standalone="no"?>
<!DOCTYPE svg PUBLIC "-//W3C//DTD SVG 1.1//EN"
 "http://www.w3.org/Graphics/SVG/1.1/DTD/svg11.dtd">
<!-- Generated by graphviz version 2.40.1 (20161225.0304)
 -->
<!-- Title: MoneyFlow Pages: 1 -->
<svg width="2866pt" height="496pt"
 viewBox="0.00 0.00 2865.50 496.00" xmlns="http://www.w3.org/2000/svg" xmlns:xlink="http://www.w3.org/1999/xlink">
<g id="graph0" class="graph" transform="scale(1 1) rotate(0) translate(4 492)">
<title>MoneyFlow</title>
<polygon fill="#ffffff" stroke="transparent" points="-4,4 -4,-492 2861.5,-492 2861.5,4 -4,4"/>
<!-- 収入 -->
<g id="node1" class="node">
<title>収入</title>
<text text-anchor="middle" x="65.5" y="-466.3" font-family="Times,serif" font-size="14.00" fill="#000000">収入</text>
</g>
<!-- 銀行口座 -->
<g id="node2" class="node">
<title>銀行口座</title>
<text text-anchor="middle" x="65.5" y="-393.3" font-family="Times,serif" font-size="14.00" fill="#000000">銀行口座</text>
</g>
<!-- 収入&#45;&gt;銀行口座 -->
<g id="edge1" class="edge">
<title>収入&#45;&gt;銀行口座</title>
<path fill="none" stroke="#000000" d="M65.5,-451.9551C65.5,-440.7241 65.5,-426.3298 65.5,-415.0904"/>
</g>
<!-- クレジットカード -->
<g id="node3" class="node">
<title>クレジットカード</title>
<text text-anchor="middle" x="65.5" y="-320.3" font-family="Times,serif" font-size="14.00" fill="#000000">クレジットカード</text>
</g>
<!-- 銀行口座&#45;&gt;クレジットカード -->
<g id="edge2" class="edge">
<title>銀行口座&#45;&gt;クレジットカード</title>
<path fill="none" stroke="#000000" d="M65.5,-378.9551C65.5,-367.7241 65.5,-353.3298 65.5,-342.0904"/>
</g>
<!-- マネー -->
<g id="node4" class="node">
<title>マネー</title>
<text text-anchor="middle" x="65.5" y="-247.3" font-family="Times,serif" font-size="14.00" fill="#000000">マネー</text>
</g>
<!-- クレジットカード&#45;&gt;マネー -->
<g id="edge3" class="edge">
<title>クレジットカード&#45;&gt;マネー</title>
<path fill="none" stroke="#000000" d="M65.5,-305.9551C65.5,-294.7241 65.5,-280.3298 65.5,-269.0904"/>
</g>
<!-- ポイント -->
<g id="node5" class="node">
<title>ポイント</title>
<text text-anchor="middle" x="65.5" y="-160.3" font-family="Times,serif" font-size="14.00" fill="#000000">ポイント</text>
</g>
<!-- マネー&#45;&gt;ポイント -->
<g id="edge4" class="edge">
<title>マネー&#45;&gt;ポイント</title>
<path fill="none" stroke="#000000" d="M65.5,-232.9735C65.5,-218.0422 65.5,-196.9283 65.5,-182.0034"/>
</g>
<!-- 金券 -->
<g id="node6" class="node">
<title>金券</title>
<text text-anchor="middle" x="65.5" y="-87.3" font-family="Times,serif" font-size="14.00" fill="#000000">金券</text>
</g>
<!-- ポイント&#45;&gt;金券 -->
<g id="edge5" class="edge">
<title>ポイント&#45;&gt;金券</title>
<path fill="none" stroke="#000000" d="M65.5,-145.9551C65.5,-134.7241 65.5,-120.3298 65.5,-109.0904"/>
</g>
<!-- 支出 -->
<g id="node7" class="node">
<title>支出</title>
<text text-anchor="middle" x="65.5" y="-14.3" font-family="Times,serif" font-size="14.00" fill="#000000">支出</text>
</g>
<!-- 金券&#45;&gt;支出 -->
<g id="edge6" class="edge">
<title>金券&#45;&gt;支出</title>
<path fill="none" stroke="#000000" d="M65.5,-72.9551C65.5,-61.7241 65.5,-47.3298 65.5,-36.0904"/>
</g>
<!-- 給与 -->
<g id="node8" class="node">
<title>給与</title>
<polygon fill="none" stroke="#000000" points="447.5,-488 393.5,-488 393.5,-452 447.5,-452 447.5,-488"/>
<text text-anchor="middle" x="420.5" y="-466.3" font-family="Times,serif" font-size="14.00" fill="#000000">給与</text>
</g>
<!-- 三井住友銀行 -->
<g id="node9" class="node">
<title>三井住友銀行</title>
<polygon fill="none" stroke="#000000" points="471.5,-415 369.5,-415 369.5,-379 471.5,-379 471.5,-415"/>
<text text-anchor="middle" x="420.5" y="-393.3" font-family="Times,serif" font-size="14.00" fill="#000000">三井住友銀行</text>
</g>
<!-- 給与&#45;&gt;三井住友銀行 -->
<g id="edge7" class="edge">
<title>給与&#45;&gt;三井住友銀行</title>
<path fill="none" stroke="#000000" stroke-width="2" d="M420.5,-451.9551C420.5,-443.8828 420.5,-434.1764 420.5,-425.1817"/>
<polygon fill="#000000" stroke="#000000" stroke-width="2" points="424.0001,-425.0903 420.5,-415.0904 417.0001,-425.0904 424.0001,-425.0903"/>
</g>
<!-- 住信SBI銀行 -->
<g id="node10" class="node">
<title>住信SBI銀行</title>
<polygon fill="none" stroke="#000000" points="643.5,-415 543.5,-415 543.5,-379 643.5,-379 643.5,-415"/>
<text text-anchor="middle" x="593.5" y="-393.3" font-family="Times,serif" font-size="14.00" fill="#000000">住信SBI銀行</text>
</g>
<!-- 三井住友銀行&#45;&gt;住信SBI銀行 -->
<g id="edge9" class="edge">
<title>三井住友銀行&#45;&gt;住信SBI銀行</title>
<path fill="none" stroke="#000000" stroke-width="2" d="M471.5215,-397C492.1317,-397 512.7418,-397 533.352,-397"/>
<polygon fill="#000000" stroke="#000000" stroke-width="2" points="533.4698,-400.5001 543.4697,-397 533.4697,-393.5001 533.4698,-400.5001"/>
</g>
<!-- 三井住友VISAカード -->
<g id="node11" class="node">
<title>三井住友VISAカード</title>
<polygon fill="none" stroke="#000000" points="317,-342 164,-342 164,-306 317,-306 317,-342"/>
<text text-anchor="middle" x="240.5" y="-320.3" font-family="Times,serif" font-size="14.00" fill="#000000">三井住友VISAカード</text>
</g>
<!-- 三井住友銀行&#45;&gt;三井住友VISAカード -->
<g id="edge11" class="edge">
<title>三井住友銀行&#45;&gt;三井住友VISAカード</title>
<path fill="none" stroke="#000000" stroke-width="2" d="M375.6736,-378.8863C361.538,-373.1694 345.8645,-366.8254 331.5,-361 319.5282,-356.1449 306.6736,-350.9235 294.507,-345.9776"/>
<polygon fill="#000000" stroke="#000000" stroke-width="2" points="295.5089,-342.6068 284.9271,-342.0824 292.8723,-349.0913 295.5089,-342.6068"/>
</g>
<!-- 現金 -->
<g id="node16" class="node">
<title>現金</title>
<polygon fill="none" stroke="#000000" points="565.5,-269 511.5,-269 511.5,-233 565.5,-233 565.5,-269"/>
<text text-anchor="middle" x="538.5" y="-247.3" font-family="Times,serif" font-size="14.00" fill="#000000">現金</text>
</g>
<!-- 三井住友銀行&#45;&gt;現金 -->
<g id="edge8" class="edge">
<title>三井住友銀行&#45;&gt;現金</title>
<path fill="none" stroke="#000000" stroke-width="2" d="M435.2062,-378.8042C455.7866,-353.3403 493.3118,-306.9108 517.0208,-277.5759"/>
<polygon fill="#000000" stroke="#000000" stroke-width="2" points="520.0447,-279.4026 523.6085,-269.4251 514.6005,-275.0025 520.0447,-279.4026"/>
</g>
<!-- 関西電力 -->
<g id="node40" class="node">
<title>関西電力</title>
<polygon fill="none" stroke="#000000" points="382.5,-36 308.5,-36 308.5,0 382.5,0 382.5,-36"/>
<text text-anchor="middle" x="345.5" y="-14.3" font-family="Times,serif" font-size="14.00" fill="#000000">関西電力</text>
</g>
<!-- 三井住友銀行&#45;&gt;関西電力 -->
<g id="edge10" class="edge">
<title>三井住友銀行&#45;&gt;関西電力</title>
<path fill="none" stroke="#000000" stroke-width="2" d="M384.3181,-378.8083C365.1392,-366.3608 345.5,-347.8032 345.5,-324 345.5,-324 345.5,-324 345.5,-91 345.5,-76.2996 345.5,-59.934 345.5,-46.4302"/>
<polygon fill="#000000" stroke="#000000" stroke-width="2" points="349.0001,-46.3003 345.5,-36.3003 342.0001,-46.3004 349.0001,-46.3003"/>
</g>
<!-- ビックカメラSuicaカード -->
<g id="node12" class="node">
<title>ビックカメラSuicaカード</title>
<polygon fill="none" stroke="#000000" points="952,-342 767,-342 767,-306 952,-306 952,-342"/>
<text text-anchor="middle" x="859.5" y="-320.3" font-family="Times,serif" font-size="14.00" fill="#000000">ビックカメラSuicaカード</text>
</g>
<!-- 住信SBI銀行&#45;&gt;ビックカメラSuicaカード -->
<g id="edge30" class="edge">
<title>住信SBI銀行&#45;&gt;ビックカメラSuicaカード</title>
<path fill="none" stroke="#000000" stroke-width="2" d="M643.5326,-383.2693C683.0711,-372.4184 738.8976,-357.0976 783.8858,-344.7513"/>
<polygon fill="#000000" stroke="#000000" stroke-width="2" points="784.8859,-348.1063 793.6031,-342.0845 783.0333,-341.3559 784.8859,-348.1063"/>
</g>
<!-- リクルートカード -->
<g id="node13" class="node">
<title>リクルートカード</title>
<polygon fill="none" stroke="#000000" points="2274,-342 2143,-342 2143,-306 2274,-306 2274,-342"/>
<text text-anchor="middle" x="2208.5" y="-320.3" font-family="Times,serif" font-size="14.00" fill="#000000">リクルートカード</text>
</g>
<!-- 住信SBI銀行&#45;&gt;リクルートカード -->
<g id="edge31" class="edge">
<title>住信SBI銀行&#45;&gt;リクルートカード</title>
<path fill="none" stroke="#000000" stroke-width="2" d="M643.6047,-394.7352C876.3209,-384.2161 1852.2161,-340.1045 2132.7674,-327.4232"/>
<polygon fill="#000000" stroke="#000000" stroke-width="2" points="2133.0154,-330.9157 2142.8472,-326.9676 2132.6993,-323.9228 2133.0154,-330.9157"/>
</g>
<!-- 住信SBI銀行&#45;&gt;現金 -->
<g id="edge28" class="edge">
<title>住信SBI銀行&#45;&gt;現金</title>
<path fill="none" stroke="#000000" stroke-width="2" d="M586.3278,-378.7051C584.1211,-373.0366 581.6955,-366.7656 579.5,-361 568.8709,-333.0864 556.9746,-301.0822 548.7456,-278.8191"/>
<polygon fill="#000000" stroke="#000000" stroke-width="2" points="551.9874,-277.494 545.2404,-269.3252 545.4206,-279.9185 551.9874,-277.494"/>
</g>
<!-- 家賃 -->
<g id="node30" class="node">
<title>家賃</title>
<polygon fill="none" stroke="#000000" points="638.5,-36 584.5,-36 584.5,0 638.5,0 638.5,-36"/>
<text text-anchor="middle" x="611.5" y="-14.3" font-family="Times,serif" font-size="14.00" fill="#000000">家賃</text>
</g>
<!-- 住信SBI銀行&#45;&gt;家賃 -->
<g id="edge29" class="edge">
<title>住信SBI銀行&#45;&gt;家賃</title>
<path fill="none" stroke="#000000" stroke-width="2" d="M593.5,-378.6997C593.5,-363.9349 593.5,-342.6302 593.5,-324 593.5,-324 593.5,-324 593.5,-91 593.5,-75.8134 597.2177,-59.353 601.274,-45.9132"/>
<polygon fill="#000000" stroke="#000000" stroke-width="2" points="604.6374,-46.8875 604.3859,-36.2956 597.9773,-44.7325 604.6374,-46.8875"/>
</g>
<!-- PiTaPa -->
<g id="node15" class="node">
<title>PiTaPa</title>
<polygon fill="none" stroke="#000000" points="273,-269 208,-269 208,-233 273,-233 273,-269"/>
<text text-anchor="middle" x="240.5" y="-247.3" font-family="Times,serif" font-size="14.00" fill="#000000">PiTaPa</text>
</g>
<!-- 三井住友VISAカード&#45;&gt;PiTaPa -->
<g id="edge12" class="edge">
<title>三井住友VISAカード&#45;&gt;PiTaPa</title>
<path fill="none" stroke="#000000" stroke-width="2" d="M240.5,-305.9551C240.5,-297.8828 240.5,-288.1764 240.5,-279.1817"/>
<polygon fill="#000000" stroke="#000000" stroke-width="2" points="244.0001,-279.0903 240.5,-269.0904 237.0001,-279.0904 244.0001,-279.0903"/>
</g>
<!-- Suica -->
<g id="node14" class="node">
<title>Suica</title>
<polygon fill="none" stroke="#000000" points="1155.5,-269 1099.5,-269 1099.5,-233 1155.5,-233 1155.5,-269"/>
<text text-anchor="middle" x="1127.5" y="-247.3" font-family="Times,serif" font-size="14.00" fill="#000000">Suica</text>
</g>
<!-- ビックカメラSuicaカード&#45;&gt;Suica -->
<g id="edge21" class="edge">
<title>ビックカメラSuicaカード&#45;&gt;Suica</title>
<path fill="none" stroke="#000000" stroke-width="2" d="M925.7472,-305.9551C977.4074,-291.8834 1047.2995,-272.8457 1089.7981,-261.2695"/>
<polygon fill="#000000" stroke="#000000" stroke-width="2" points="1090.739,-264.6408 1099.4676,-258.6357 1088.8993,-257.8869 1090.739,-264.6408"/>
</g>
<!-- ビューサンクスポイント -->
<g id="node21" class="node">
<title>ビューサンクスポイント</title>
<polygon fill="none" stroke="#000000" points="1099,-182 926,-182 926,-146 1099,-146 1099,-182"/>
<text text-anchor="middle" x="1012.5" y="-160.3" font-family="Times,serif" font-size="14.00" fill="#000000">ビューサンクスポイント</text>
</g>
<!-- ビックカメラSuicaカード&#45;&gt;ビューサンクスポイント -->
<g id="edge16" class="edge">
<title>ビックカメラSuicaカード&#45;&gt;ビューサンクスポイント</title>
<path fill="none" stroke="#000000" d="M888.6665,-305.941C896.4245,-300.5784 904.5676,-294.4118 911.5,-288 944.0976,-257.8503 975.3827,-216.9791 994.2741,-190.5475"/>
<polygon fill="#000000" stroke="#000000" points="997.2785,-192.3607 1000.1896,-182.1736 991.5611,-188.3218 997.2785,-192.3607"/>
<text text-anchor="middle" x="979" y="-247.3" font-family="Times,serif" font-size="14.00" fill="#000000">0.5%</text>
</g>
<!-- ビックポイント -->
<g id="node23" class="node">
<title>ビックポイント</title>
<polygon fill="none" stroke="#000000" points="737.5,-182 621.5,-182 621.5,-146 737.5,-146 737.5,-182"/>
<text text-anchor="middle" x="679.5" y="-160.3" font-family="Times,serif" font-size="14.00" fill="#000000">ビックポイント</text>
</g>
<!-- ビックカメラSuicaカード&#45;&gt;ビックポイント -->
<g id="edge19" class="edge">
<title>ビックカメラSuicaカード&#45;&gt;ビックポイント</title>
<path fill="none" stroke="#000000" d="M824.8874,-305.8861C807.6919,-296.0947 787.0988,-283.1268 770.5,-269 742.6455,-245.2937 715.8629,-212.8338 698.6543,-190.3065"/>
<polygon fill="#000000" stroke="#000000" points="701.3582,-188.0789 692.5454,-182.198 695.7673,-192.291 701.3582,-188.0789"/>
<text text-anchor="middle" x="789" y="-247.3" font-family="Times,serif" font-size="14.00" fill="#000000">0.5%</text>
</g>
<!-- ビックカメラ -->
<g id="node43" class="node">
<title>ビックカメラ</title>
<polygon fill="none" stroke="#000000" points="758.5,-36 656.5,-36 656.5,0 758.5,0 758.5,-36"/>
<text text-anchor="middle" x="707.5" y="-14.3" font-family="Times,serif" font-size="14.00" fill="#000000">ビックカメラ</text>
</g>
<!-- ビックカメラSuicaカード&#45;&gt;ビックカメラ -->
<g id="edge17" class="edge">
<title>ビックカメラSuicaカード&#45;&gt;ビックカメラ</title>
<path fill="none" stroke="#000000" stroke-width="2" stroke-dasharray="5,2" d="M843.8246,-305.8293C833.357,-291.8153 821.5,-271.4317 821.5,-251 821.5,-251 821.5,-251 821.5,-91 821.5,-75.0262 789.3557,-55.4331 759.2048,-40.5686"/>
<polygon fill="#000000" stroke="#000000" stroke-width="2" points="760.4782,-37.2973 749.9494,-36.1165 757.4438,-43.6055 760.4782,-37.2973"/>
</g>
<!-- EX予約 -->
<g id="node53" class="node">
<title>EX予約</title>
<polygon fill="none" stroke="#000000" points="992.5,-36 926.5,-36 926.5,0 992.5,0 992.5,-36"/>
<text text-anchor="middle" x="959.5" y="-14.3" font-family="Times,serif" font-size="14.00" fill="#000000">EX予約</text>
</g>
<!-- ビックカメラSuicaカード&#45;&gt;EX予約 -->
<g id="edge24" class="edge">
<title>ビックカメラSuicaカード&#45;&gt;EX予約</title>
<path fill="none" stroke="#000000" stroke-width="2" stroke-dasharray="5,2" d="M875.1754,-305.8293C885.643,-291.8153 897.5,-271.4317 897.5,-251 897.5,-251 897.5,-251 897.5,-91 897.5,-71.9197 909.9571,-55.2773 923.7037,-42.721"/>
<polygon fill="#000000" stroke="#000000" stroke-width="2" points="926.0505,-45.3198 931.4025,-36.1761 921.5165,-39.9865 926.0505,-45.3198"/>
</g>
<!-- nanaco -->
<g id="node17" class="node">
<title>nanaco</title>
<polygon fill="none" stroke="#000000" points="2745.5,-269 2677.5,-269 2677.5,-233 2745.5,-233 2745.5,-269"/>
<text text-anchor="middle" x="2711.5" y="-247.3" font-family="Times,serif" font-size="14.00" fill="#000000">nanaco</text>
</g>
<!-- リクルートカード&#45;&gt;nanaco -->
<g id="edge55" class="edge">
<title>リクルートカード&#45;&gt;nanaco</title>
<path fill="none" stroke="#000000" stroke-width="2" d="M2274.091,-321.2003C2375.5928,-316.3979 2565.8667,-305.3932 2631.5,-288 2644.3388,-284.5976 2657.6681,-279.2491 2669.6793,-273.6652"/>
<polygon fill="#000000" stroke="#000000" stroke-width="2" points="2671.5102,-276.6679 2678.9949,-269.1692 2668.4676,-270.3637 2671.5102,-276.6679"/>
</g>
<!-- Edy -->
<g id="node18" class="node">
<title>Edy</title>
<polygon fill="none" stroke="#000000" points="1877.5,-269 1823.5,-269 1823.5,-233 1877.5,-233 1877.5,-269"/>
<text text-anchor="middle" x="1850.5" y="-247.3" font-family="Times,serif" font-size="14.00" fill="#000000">Edy</text>
</g>
<!-- リクルートカード&#45;&gt;Edy -->
<g id="edge39" class="edge">
<title>リクルートカード&#45;&gt;Edy</title>
<path fill="none" stroke="#000000" stroke-width="2" d="M2142.8373,-310.6107C2067.8453,-295.319 1947.7671,-270.8338 1887.515,-258.5478"/>
<polygon fill="#000000" stroke="#000000" stroke-width="2" points="1888.1767,-255.1107 1877.679,-256.5421 1886.7781,-261.9696 1888.1767,-255.1107"/>
</g>
<!-- Ponta -->
<g id="node19" class="node">
<title>Ponta</title>
<polygon fill="none" stroke="#000000" points="1562,-182 1505,-182 1505,-146 1562,-146 1562,-182"/>
<text text-anchor="middle" x="1533.5" y="-160.3" font-family="Times,serif" font-size="14.00" fill="#000000">Ponta</text>
</g>
<!-- リクルートカード&#45;&gt;Ponta -->
<g id="edge50" class="edge">
<title>リクルートカード&#45;&gt;Ponta</title>
<path fill="none" stroke="#000000" d="M2142.8257,-317.7592C2058.0398,-309.2132 1906.1053,-292.2382 1777.5,-269 1674.1715,-250.3292 1623.1194,-287.8498 1547.5,-215 1541.2947,-209.0219 1537.7575,-200.5734 1535.7662,-192.2689"/>
<polygon fill="#000000" stroke="#000000" points="1539.2075,-191.6293 1534.0284,-182.3865 1532.3133,-192.8416 1539.2075,-191.6293"/>
<text text-anchor="middle" x="1796" y="-247.3" font-family="Times,serif" font-size="14.00" fill="#000000">1.2%</text>
</g>
<!-- NHK -->
<g id="node37" class="node">
<title>NHK</title>
<polygon fill="none" stroke="#000000" points="2197.5,-36 2143.5,-36 2143.5,0 2197.5,0 2197.5,-36"/>
<text text-anchor="middle" x="2170.5" y="-14.3" font-family="Times,serif" font-size="14.00" fill="#000000">NHK</text>
</g>
<!-- リクルートカード&#45;&gt;NHK -->
<g id="edge32" class="edge">
<title>リクルートカード&#45;&gt;NHK</title>
<path fill="none" stroke="#000000" stroke-width="2" d="M2192.8246,-305.8293C2182.357,-291.8153 2170.5,-271.4317 2170.5,-251 2170.5,-251 2170.5,-251 2170.5,-91 2170.5,-76.2996 2170.5,-59.934 2170.5,-46.4302"/>
<polygon fill="#000000" stroke="#000000" stroke-width="2" points="2174.0001,-46.3003 2170.5,-36.3003 2167.0001,-46.3004 2174.0001,-46.3003"/>
</g>
<!-- NTT -->
<g id="node38" class="node">
<title>NTT</title>
<polygon fill="none" stroke="#000000" points="2361.5,-36 2307.5,-36 2307.5,0 2361.5,0 2361.5,-36"/>
<text text-anchor="middle" x="2334.5" y="-14.3" font-family="Times,serif" font-size="14.00" fill="#000000">NTT</text>
</g>
<!-- リクルートカード&#45;&gt;NTT -->
<g id="edge33" class="edge">
<title>リクルートカード&#45;&gt;NTT</title>
<path fill="none" stroke="#000000" stroke-width="2" d="M2274.2533,-311.3081C2328.467,-298.9009 2396.5,-277.9601 2396.5,-251 2396.5,-251 2396.5,-251 2396.5,-91 2396.5,-71.4988 2383.4873,-54.5443 2369.3848,-41.896"/>
<polygon fill="#000000" stroke="#000000" stroke-width="2" points="2371.4329,-39.0465 2361.5137,-35.3234 2366.9462,-44.4195 2371.4329,-39.0465"/>
</g>
<!-- ASAHIネット -->
<g id="node39" class="node">
<title>ASAHIネット</title>
<polygon fill="none" stroke="#000000" points="2489,-36 2380,-36 2380,0 2489,0 2489,-36"/>
<text text-anchor="middle" x="2434.5" y="-14.3" font-family="Times,serif" font-size="14.00" fill="#000000">ASAHIネット</text>
</g>
<!-- リクルートカード&#45;&gt;ASAHIネット -->
<g id="edge34" class="edge">
<title>リクルートカード&#45;&gt;ASAHIネット</title>
<path fill="none" stroke="#000000" stroke-width="2" d="M2274.1721,-315.7334C2340.8992,-305.4472 2434.5,-284.965 2434.5,-251 2434.5,-251 2434.5,-251 2434.5,-91 2434.5,-76.2996 2434.5,-59.934 2434.5,-46.4302"/>
<polygon fill="#000000" stroke="#000000" stroke-width="2" points="2438.0001,-46.3003 2434.5,-36.3003 2431.0001,-46.3004 2438.0001,-46.3003"/>
</g>
<!-- アイハート -->
<g id="node41" class="node">
<title>アイハート</title>
<polygon fill="none" stroke="#000000" points="2595.5,-36 2507.5,-36 2507.5,0 2595.5,0 2595.5,-36"/>
<text text-anchor="middle" x="2551.5" y="-14.3" font-family="Times,serif" font-size="14.00" fill="#000000">アイハート</text>
</g>
<!-- リクルートカード&#45;&gt;アイハート -->
<g id="edge38" class="edge">
<title>リクルートカード&#45;&gt;アイハート</title>
<path fill="none" stroke="#000000" stroke-width="2" d="M2274.228,-316.6201C2373.8238,-304.5344 2551.5,-279.0439 2551.5,-251 2551.5,-251 2551.5,-251 2551.5,-91 2551.5,-76.2996 2551.5,-59.934 2551.5,-46.4302"/>
<polygon fill="#000000" stroke="#000000" stroke-width="2" points="2555.0001,-46.3003 2551.5,-36.3003 2548.0001,-46.3004 2555.0001,-46.3003"/>
</g>
<!-- Amazon -->
<g id="node51" class="node">
<title>Amazon</title>
<polygon fill="none" stroke="#000000" points="2289.5,-36 2215.5,-36 2215.5,0 2289.5,0 2289.5,-36"/>
<text text-anchor="middle" x="2252.5" y="-14.3" font-family="Times,serif" font-size="14.00" fill="#000000">Amazon</text>
</g>
<!-- リクルートカード&#45;&gt;Amazon -->
<g id="edge36" class="edge">
<title>リクルートカード&#45;&gt;Amazon</title>
<path fill="none" stroke="#000000" stroke-width="2" d="M2208.5,-305.6997C2208.5,-290.9349 2208.5,-269.6302 2208.5,-251 2208.5,-251 2208.5,-251 2208.5,-91 2208.5,-73.7629 2217.6098,-57.0982 2227.5391,-44.0538"/>
<polygon fill="#000000" stroke="#000000" stroke-width="2" points="2230.4752,-45.9922 2234.095,-36.0349 2225.0558,-41.5616 2230.4752,-45.9922"/>
</g>
<!-- iTunes -->
<g id="node52" class="node">
<title>iTunes</title>
<polygon fill="none" stroke="#000000" points="2679,-36 2614,-36 2614,0 2679,0 2679,-36"/>
<text text-anchor="middle" x="2646.5" y="-14.3" font-family="Times,serif" font-size="14.00" fill="#000000">iTunes</text>
</g>
<!-- リクルートカード&#45;&gt;iTunes -->
<g id="edge35" class="edge">
<title>リクルートカード&#45;&gt;iTunes</title>
<path fill="none" stroke="#000000" stroke-width="2" stroke-dasharray="5,2" d="M2274.2129,-318.9325C2389.8277,-309.1258 2617.5,-285.4416 2617.5,-251 2617.5,-251 2617.5,-251 2617.5,-91 2617.5,-75.0883 2623.5243,-58.5164 2630.0814,-45.1915"/>
<polygon fill="#000000" stroke="#000000" stroke-width="2" points="2633.2978,-46.596 2634.8717,-36.1187 2627.1076,-43.3277 2633.2978,-46.596"/>
</g>
<!-- じゃらん -->
<g id="node54" class="node">
<title>じゃらん</title>
<polygon fill="none" stroke="#000000" points="1485.5,-36 1411.5,-36 1411.5,0 1485.5,0 1485.5,-36"/>
<text text-anchor="middle" x="1448.5" y="-14.3" font-family="Times,serif" font-size="14.00" fill="#000000">じゃらん</text>
</g>
<!-- リクルートカード&#45;&gt;じゃらん -->
<g id="edge37" class="edge">
<title>リクルートカード&#45;&gt;じゃらん</title>
<path fill="none" stroke="#000000" stroke-width="2" d="M2142.669,-321.2958C1953.9493,-313.1116 1424.5,-286.9478 1424.5,-251 1424.5,-251 1424.5,-251 1424.5,-91 1424.5,-75.4786 1429.457,-58.9877 1434.8654,-45.6143"/>
<polygon fill="#000000" stroke="#000000" stroke-width="2" points="1438.2403,-46.6294 1439.0146,-36.0629 1431.8199,-43.8403 1438.2403,-46.6294"/>
</g>
<!-- Suica&#45;&gt;ビューサンクスポイント -->
<g id="edge27" class="edge">
<title>Suica&#45;&gt;ビューサンクスポイント</title>
<path fill="none" stroke="#000000" d="M1103.6719,-232.9735C1086.4793,-219.9669 1063.0855,-202.269 1044.2997,-188.0571"/>
<polygon fill="#000000" stroke="#000000" points="1046.3842,-185.2454 1036.2975,-182.0034 1042.1609,-190.8279 1046.3842,-185.2454"/>
<text text-anchor="middle" x="1088" y="-203.8" font-family="Times,serif" font-size="14.00" fill="#000000">1%</text>
</g>
<!-- JREポイント -->
<g id="node22" class="node">
<title>JREポイント</title>
<polygon fill="none" stroke="#000000" points="1295,-182 1194,-182 1194,-146 1295,-146 1295,-182"/>
<text text-anchor="middle" x="1244.5" y="-160.3" font-family="Times,serif" font-size="14.00" fill="#000000">JREポイント</text>
</g>
<!-- Suica&#45;&gt;JREポイント -->
<g id="edge25" class="edge">
<title>Suica&#45;&gt;JREポイント</title>
<path fill="none" stroke="#000000" d="M1155.8687,-244.3006C1174.2187,-238.8353 1197.7239,-229.5868 1214.5,-215 1222.0145,-208.4662 1228.1396,-199.5679 1232.8501,-191.0327"/>
<polygon fill="#000000" stroke="#000000" points="1236.0075,-192.545 1237.4051,-182.0428 1229.7632,-189.3812 1236.0075,-192.545"/>
<text text-anchor="middle" x="1245" y="-203.8" font-family="Times,serif" font-size="14.00" fill="#000000">0.5%</text>
</g>
<!-- 電車 -->
<g id="node34" class="node">
<title>電車</title>
<polygon fill="none" stroke="#000000" points="830.5,-36 776.5,-36 776.5,0 830.5,0 830.5,-36"/>
<text text-anchor="middle" x="803.5" y="-14.3" font-family="Times,serif" font-size="14.00" fill="#000000">電車</text>
</g>
<!-- Suica&#45;&gt;電車 -->
<g id="edge22" class="edge">
<title>Suica&#45;&gt;電車</title>
<path fill="none" stroke="#000000" stroke-width="2" d="M1129.1597,-232.9025C1130.2469,-210.1084 1128.6561,-170.9168 1108.5,-146 1103.439,-139.7436 847.844,-39.2896 840.5,-36 840.4022,-35.9562 840.3043,-35.9123 840.2063,-35.8683"/>
<polygon fill="#000000" stroke="#000000" stroke-width="2" points="841.434,-32.58 830.8881,-31.5629 838.4979,-38.9345 841.434,-32.58"/>
</g>
<!-- 松屋 -->
<g id="node49" class="node">
<title>松屋</title>
<polygon fill="none" stroke="#000000" points="1192.5,-36 1138.5,-36 1138.5,0 1192.5,0 1192.5,-36"/>
<text text-anchor="middle" x="1165.5" y="-14.3" font-family="Times,serif" font-size="14.00" fill="#000000">松屋</text>
</g>
<!-- Suica&#45;&gt;松屋 -->
<g id="edge23" class="edge">
<title>Suica&#45;&gt;松屋</title>
<path fill="none" stroke="#000000" stroke-width="2" d="M1135.525,-232.9736C1137.7664,-227.316 1139.9972,-220.9837 1141.5,-215 1156.2424,-156.3006 1162.0531,-85.403 1164.2483,-46.6849"/>
<polygon fill="#000000" stroke="#000000" stroke-width="2" points="1167.7694,-46.372 1164.7978,-36.2024 1160.779,-46.0054 1167.7694,-46.372"/>
</g>
<!-- 大阪地下鉄 -->
<g id="node35" class="node">
<title>大阪地下鉄</title>
<polygon fill="none" stroke="#000000" points="198.5,-36 110.5,-36 110.5,0 198.5,0 198.5,-36"/>
<text text-anchor="middle" x="154.5" y="-14.3" font-family="Times,serif" font-size="14.00" fill="#000000">大阪地下鉄</text>
</g>
<!-- PiTaPa&#45;&gt;大阪地下鉄 -->
<g id="edge13" class="edge">
<title>PiTaPa&#45;&gt;大阪地下鉄</title>
<path fill="none" stroke="#000000" stroke-width="2" d="M233.9736,-232.7568C221.4825,-197.928 193.2358,-119.5877 168.5,-54 167.4795,-51.2941 166.4055,-48.4782 165.3251,-45.6663"/>
<polygon fill="#000000" stroke="#000000" stroke-width="2" points="168.5683,-44.3489 161.6948,-36.2863 162.0401,-46.8755 168.5683,-44.3489"/>
</g>
<!-- 山陽バス -->
<g id="node36" class="node">
<title>山陽バス</title>
<polygon fill="none" stroke="#000000" points="290.5,-36 216.5,-36 216.5,0 290.5,0 290.5,-36"/>
<text text-anchor="middle" x="253.5" y="-14.3" font-family="Times,serif" font-size="14.00" fill="#000000">山陽バス</text>
</g>
<!-- PiTaPa&#45;&gt;山陽バス -->
<g id="edge15" class="edge">
<title>PiTaPa&#45;&gt;山陽バス</title>
<path fill="none" stroke="#000000" stroke-width="2" stroke-dasharray="5,2" d="M241.5201,-232.7169C243.7794,-192.2236 249.2184,-94.7396 251.921,-46.301"/>
<polygon fill="#000000" stroke="#000000" stroke-width="2" points="255.422,-46.3777 252.4847,-36.1982 248.4329,-45.9877 255.422,-46.3777"/>
</g>
<!-- 切符 -->
<g id="node28" class="node">
<title>切符</title>
<polygon fill="none" stroke="#000000" points="793.5,-109 739.5,-109 739.5,-73 793.5,-73 793.5,-109"/>
<text text-anchor="middle" x="766.5" y="-87.3" font-family="Times,serif" font-size="14.00" fill="#000000">切符</text>
</g>
<!-- 現金&#45;&gt;切符 -->
<g id="edge69" class="edge">
<title>現金&#45;&gt;切符</title>
<path fill="none" stroke="#000000" stroke-width="2" d="M565.7895,-244.2403C614.7451,-232.7996 713.8143,-208.2857 737.5,-182 752.8282,-164.9892 757.3199,-138.9662 759.7943,-119.0991"/>
<polygon fill="#000000" stroke="#000000" stroke-width="2" points="763.2813,-119.4148 760.9842,-109.072 756.3301,-118.5899 763.2813,-119.4148"/>
</g>
<!-- ぐるなびギフト券 -->
<g id="node29" class="node">
<title>ぐるなびギフト券</title>
<polygon fill="none" stroke="#000000" points="510,-109 379,-109 379,-73 510,-73 510,-109"/>
<text text-anchor="middle" x="444.5" y="-87.3" font-family="Times,serif" font-size="14.00" fill="#000000">ぐるなびギフト券</text>
</g>
<!-- 現金&#45;&gt;ぐるなびギフト券 -->
<g id="edge63" class="edge">
<title>現金&#45;&gt;ぐるなびギフト券</title>
<path fill="none" stroke="#000000" stroke-width="2" d="M523.4364,-232.957C504.2354,-204.9886 472.2565,-150.9884 455.2851,-118.2504"/>
<polygon fill="#000000" stroke="#000000" stroke-width="2" points="458.3576,-116.5703 450.7247,-109.2226 452.1096,-119.7265 458.3576,-116.5703"/>
</g>
<!-- 飲食店 -->
<g id="node46" class="node">
<title>飲食店</title>
<polygon fill="none" stroke="#000000" points="566,-36 507,-36 507,0 566,0 566,-36"/>
<text text-anchor="middle" x="536.5" y="-14.3" font-family="Times,serif" font-size="14.00" fill="#000000">飲食店</text>
</g>
<!-- 現金&#45;&gt;飲食店 -->
<g id="edge66" class="edge">
<title>現金&#45;&gt;飲食店</title>
<path fill="none" stroke="#000000" stroke-width="2" d="M538.3431,-232.7169C537.9955,-192.2236 537.1587,-94.7396 536.7429,-46.301"/>
<polygon fill="#000000" stroke="#000000" stroke-width="2" points="540.242,-46.1677 536.6562,-36.1982 533.2423,-46.2279 540.242,-46.1677"/>
</g>
<!-- 吉野家 -->
<g id="node50" class="node">
<title>吉野家</title>
<polygon fill="none" stroke="#000000" points="908,-36 849,-36 849,0 908,0 908,-36"/>
<text text-anchor="middle" x="878.5" y="-14.3" font-family="Times,serif" font-size="14.00" fill="#000000">吉野家</text>
</g>
<!-- 現金&#45;&gt;吉野家 -->
<g id="edge67" class="edge">
<title>現金&#45;&gt;吉野家</title>
<path fill="none" stroke="#000000" stroke-width="2" d="M565.6489,-248.5511C602.0897,-244.6216 668.3841,-235.1977 721.5,-215 748.5025,-204.7321 754.3474,-199.2778 777.5,-182 805.7271,-160.9353 815.704,-157.1309 835.5,-128 852.6898,-102.7042 864.4459,-69.5434 871.2646,-46.2697"/>
<polygon fill="#000000" stroke="#000000" stroke-width="2" points="874.7202,-46.9096 874.0519,-36.3358 867.9804,-45.0185 874.7202,-46.9096"/>
</g>
<!-- nanacoポイント -->
<g id="node25" class="node">
<title>nanacoポイント</title>
<polygon fill="none" stroke="#000000" points="2771,-182 2646,-182 2646,-146 2771,-146 2771,-182"/>
<text text-anchor="middle" x="2708.5" y="-160.3" font-family="Times,serif" font-size="14.00" fill="#000000">nanacoポイント</text>
</g>
<!-- nanaco&#45;&gt;nanacoポイント -->
<g id="edge57" class="edge">
<title>nanaco&#45;&gt;nanacoポイント</title>
<path fill="none" stroke="#000000" d="M2700.4325,-232.9406C2697.5986,-227.3873 2694.9449,-221.1207 2693.5,-215 2691.7013,-207.3805 2692.7416,-199.2108 2694.937,-191.6922"/>
<polygon fill="#000000" stroke="#000000" points="2698.2297,-192.8785 2698.3467,-182.2843 2691.6486,-190.4932 2698.2297,-192.8785"/>
<text text-anchor="middle" x="2705" y="-203.8" font-family="Times,serif" font-size="14.00" fill="#000000">1%</text>
</g>
<!-- セブンイレブン -->
<g id="node32" class="node">
<title>セブンイレブン</title>
<polygon fill="none" stroke="#000000" points="2857.5,-36 2741.5,-36 2741.5,0 2857.5,0 2857.5,-36"/>
<text text-anchor="middle" x="2799.5" y="-14.3" font-family="Times,serif" font-size="14.00" fill="#000000">セブンイレブン</text>
</g>
<!-- nanaco&#45;&gt;セブンイレブン -->
<g id="edge56" class="edge">
<title>nanaco&#45;&gt;セブンイレブン</title>
<path fill="none" stroke="#000000" stroke-width="2" d="M2736.8432,-232.8488C2752.1764,-220.3846 2770.6183,-202.4375 2780.5,-182 2801.6657,-138.2249 2803.1233,-80.4506 2801.6982,-46.4528"/>
<polygon fill="#000000" stroke="#000000" stroke-width="2" points="2805.1842,-46.0969 2801.1555,-36.2979 2798.1942,-46.4705 2805.1842,-46.0969"/>
</g>
<!-- Edy&#45;&gt;Ponta -->
<g id="edge49" class="edge">
<title>Edy&#45;&gt;Ponta</title>
<path fill="none" stroke="#000000" d="M1823.25,-250.3731C1760.8911,-248.4929 1609.9184,-241.2798 1567.5,-215 1558.2731,-209.2836 1551.0013,-200.026 1545.5914,-190.9567"/>
<polygon fill="#000000" stroke="#000000" points="1548.6322,-189.2218 1540.7987,-182.0883 1542.474,-192.5498 1548.6322,-189.2218"/>
<text text-anchor="middle" x="1586" y="-203.8" font-family="Times,serif" font-size="14.00" fill="#000000">0.5%</text>
</g>
<!-- ローソン -->
<g id="node31" class="node">
<title>ローソン</title>
<polygon fill="none" stroke="#000000" points="1754.5,-36 1680.5,-36 1680.5,0 1754.5,0 1754.5,-36"/>
<text text-anchor="middle" x="1717.5" y="-14.3" font-family="Times,serif" font-size="14.00" fill="#000000">ローソン</text>
</g>
<!-- Edy&#45;&gt;ローソン -->
<g id="edge40" class="edge">
<title>Edy&#45;&gt;ローソン</title>
<path fill="none" stroke="#000000" stroke-width="2" d="M1851.3374,-232.9856C1851.6353,-211.3006 1849.8381,-174.2758 1836.5,-146 1816.5886,-103.7892 1777.6437,-66.0928 1749.7261,-42.7246"/>
<polygon fill="#000000" stroke="#000000" stroke-width="2" points="1751.7617,-39.8676 1741.8099,-36.2327 1747.3228,-45.2803 1751.7617,-39.8676"/>
</g>
<!-- ファミリーマート -->
<g id="node33" class="node">
<title>ファミリーマート</title>
<polygon fill="none" stroke="#000000" points="1393,-36 1262,-36 1262,0 1393,0 1393,-36"/>
<text text-anchor="middle" x="1327.5" y="-14.3" font-family="Times,serif" font-size="14.00" fill="#000000">ファミリーマート</text>
</g>
<!-- Edy&#45;&gt;ファミリーマート -->
<g id="edge42" class="edge">
<title>Edy&#45;&gt;ファミリーマート</title>
<path fill="none" stroke="#000000" stroke-width="2" d="M1823.2696,-234.6644C1821.6842,-234.0354 1820.0884,-233.4729 1818.5,-233 1702.8083,-198.5572 1662.0701,-253.0073 1547.5,-215 1455.155,-184.3657 1378.8269,-90.8962 1345.5136,-44.5831"/>
<polygon fill="#000000" stroke="#000000" stroke-width="2" points="1348.2482,-42.3883 1339.6158,-36.2457 1342.5335,-46.4309 1348.2482,-42.3883"/>
</g>
<!-- ウェルシア -->
<g id="node42" class="node">
<title>ウェルシア</title>
<polygon fill="none" stroke="#000000" points="1662.5,-36 1574.5,-36 1574.5,0 1662.5,0 1662.5,-36"/>
<text text-anchor="middle" x="1618.5" y="-14.3" font-family="Times,serif" font-size="14.00" fill="#000000">ウェルシア</text>
</g>
<!-- Edy&#45;&gt;ウェルシア -->
<g id="edge47" class="edge">
<title>Edy&#45;&gt;ウェルシア</title>
<path fill="none" stroke="#000000" stroke-width="2" d="M1823.486,-235.2302C1821.818,-234.4365 1820.1478,-233.6855 1818.5,-233 1741.7294,-201.0616 1692.5748,-245.164 1638.5,-182 1606.1271,-144.1857 1608.4551,-82.2715 1613.3129,-46.3113"/>
<polygon fill="#000000" stroke="#000000" stroke-width="2" points="1616.8316,-46.4509 1614.8662,-36.0399 1609.9102,-45.4042 1616.8316,-46.4509"/>
</g>
<!-- ヨドバシカメラ -->
<g id="node44" class="node">
<title>ヨドバシカメラ</title>
<polygon fill="none" stroke="#000000" points="2005.5,-36 1889.5,-36 1889.5,0 2005.5,0 2005.5,-36"/>
<text text-anchor="middle" x="1947.5" y="-14.3" font-family="Times,serif" font-size="14.00" fill="#000000">ヨドバシカメラ</text>
</g>
<!-- Edy&#45;&gt;ヨドバシカメラ -->
<g id="edge44" class="edge">
<title>Edy&#45;&gt;ヨドバシカメラ</title>
<path fill="none" stroke="#000000" stroke-width="2" d="M1877.8626,-246.7118C1932.4513,-237.539 2051.6965,-214.1973 2075.5,-182 2113.0732,-131.1772 2039.469,-73.2047 1989.1253,-41.6048"/>
<polygon fill="#000000" stroke="#000000" stroke-width="2" points="1990.6903,-38.4585 1980.3378,-36.2053 1987.0256,-44.4226 1990.6903,-38.4585"/>
</g>
<!-- FRESCO -->
<g id="node47" class="node">
<title>FRESCO</title>
<polygon fill="none" stroke="#000000" points="1852.5,-36 1772.5,-36 1772.5,0 1852.5,0 1852.5,-36"/>
<text text-anchor="middle" x="1812.5" y="-14.3" font-family="Times,serif" font-size="14.00" fill="#000000">FRESCO</text>
</g>
<!-- Edy&#45;&gt;FRESCO -->
<g id="edge60" class="edge">
<title>Edy&#45;&gt;FRESCO</title>
<path fill="none" stroke="#000000" stroke-width="2" d="M1842.475,-232.9736C1840.2336,-227.316 1838.0028,-220.9837 1836.5,-215 1821.7576,-156.3006 1815.9469,-85.403 1813.7517,-46.6849"/>
<polygon fill="#000000" stroke="#000000" stroke-width="2" points="1817.221,-46.0054 1813.2022,-36.2024 1810.2306,-46.372 1817.221,-46.0054"/>
</g>
<!-- 業務スーパー -->
<g id="node48" class="node">
<title>業務スーパー</title>
<polygon fill="none" stroke="#000000" points="2125.5,-36 2023.5,-36 2023.5,0 2125.5,0 2125.5,-36"/>
<text text-anchor="middle" x="2074.5" y="-14.3" font-family="Times,serif" font-size="14.00" fill="#000000">業務スーパー</text>
</g>
<!-- Edy&#45;&gt;業務スーパー -->
<g id="edge59" class="edge">
<title>Edy&#45;&gt;業務スーパー</title>
<path fill="none" stroke="#000000" stroke-width="2" d="M1877.8214,-249.5859C1916.6535,-246.7862 1989.428,-238.5911 2046.5,-215 2070.4252,-205.1103 2082.4476,-204.912 2094.5,-182 2117.3489,-138.5635 2100.7185,-79.925 2087.1766,-45.8119"/>
<polygon fill="#000000" stroke="#000000" stroke-width="2" points="2090.3634,-44.3595 2083.2976,-36.4648 2083.898,-47.0426 2090.3634,-44.3595"/>
</g>
<!-- Ponta&#45;&gt;じゃらん -->
<g id="edge51" class="edge">
<title>Ponta&#45;&gt;じゃらん</title>
<path fill="none" stroke="#000000" d="M1510.3629,-145.6642C1504.6739,-140.3894 1498.9464,-134.3356 1494.5,-128 1476.6835,-102.614 1463.9651,-69.2641 1456.4801,-45.968"/>
<polygon fill="#000000" stroke="#000000" points="1459.8019,-44.8626 1453.5015,-36.3446 1453.1149,-46.9324 1459.8019,-44.8626"/>
</g>
<!-- Tポイント -->
<g id="node20" class="node">
<title>Tポイント</title>
<polygon fill="none" stroke="#000000" points="1396,-182 1313,-182 1313,-146 1396,-146 1396,-182"/>
<text text-anchor="middle" x="1354.5" y="-160.3" font-family="Times,serif" font-size="14.00" fill="#000000">Tポイント</text>
</g>
<!-- JREポイント&#45;&gt;Suica -->
<g id="edge26" class="edge">
<title>JREポイント&#45;&gt;Suica</title>
<path fill="none" stroke="#000000" d="M1222.1935,-182.0367C1209.7656,-191.9498 1193.9302,-204.3585 1179.5,-215 1174.0376,-219.0282 1168.1814,-223.21 1162.4401,-227.2363"/>
<polygon fill="#000000" stroke="#000000" points="1160.3811,-224.405 1154.1697,-232.9881 1164.3779,-230.1518 1160.3811,-224.405"/>
</g>
<!-- ビックポイント&#45;&gt;ビックカメラ -->
<g id="edge20" class="edge">
<title>ビックポイント&#45;&gt;ビックカメラ</title>
<path fill="none" stroke="#000000" d="M685.537,-145.8427C688.8826,-135.2069 692.8826,-121.4569 695.5,-109 699.8622,-88.2394 702.9325,-64.4623 704.875,-46.4202"/>
<polygon fill="#000000" stroke="#000000" points="708.3778,-46.571 705.9149,-36.2664 701.4142,-45.8578 708.3778,-46.571"/>
</g>
<!-- Amazonポイント -->
<g id="node24" class="node">
<title>Amazonポイント</title>
<polygon fill="none" stroke="#000000" points="2368,-182 2237,-182 2237,-146 2368,-146 2368,-182"/>
<text text-anchor="middle" x="2302.5" y="-160.3" font-family="Times,serif" font-size="14.00" fill="#000000">Amazonポイント</text>
</g>
<!-- Amazonポイント&#45;&gt;Amazon -->
<g id="edge54" class="edge">
<title>Amazonポイント&#45;&gt;Amazon</title>
<path fill="none" stroke="#000000" d="M2291.6247,-145.8042C2280.5487,-120.7775 2264.772,-75.4988 2256.6691,-46.1017"/>
<polygon fill="#000000" stroke="#000000" points="2260.0555,-45.2169 2254.1433,-36.4251 2253.2824,-46.9849 2260.0555,-45.2169"/>
</g>
<!-- nanacoポイント&#45;&gt;nanaco -->
<g id="edge58" class="edge">
<title>nanacoポイント&#45;&gt;nanaco</title>
<path fill="none" stroke="#000000" d="M2713.3517,-182.1847C2714.6433,-187.8487 2715.8573,-194.1449 2716.5,-200 2717.305,-207.3332 2717.0639,-215.2667 2716.3699,-222.6421"/>
<polygon fill="#000000" stroke="#000000" points="2712.895,-222.2243 2715.1491,-232.5765 2719.8427,-223.0781 2712.895,-222.2243"/>
</g>
<!-- FRESCOポイント -->
<g id="node26" class="node">
<title>FRESCOポイント</title>
<polygon fill="none" stroke="#000000" points="1784,-182 1647,-182 1647,-146 1784,-146 1784,-182"/>
<text text-anchor="middle" x="1715.5" y="-160.3" font-family="Times,serif" font-size="14.00" fill="#000000">FRESCOポイント</text>
</g>
<!-- FRESCOポイント&#45;&gt;FRESCO -->
<g id="edge62" class="edge">
<title>FRESCOポイント&#45;&gt;FRESCO</title>
<path fill="none" stroke="#000000" d="M1727.589,-145.8042C1744.4342,-120.4496 1775.0893,-74.3089 1794.5918,-44.9546"/>
<polygon fill="#000000" stroke="#000000" points="1797.64,-46.6913 1800.2587,-36.4251 1791.8095,-42.8175 1797.64,-46.6913"/>
</g>
<!-- ヨドバシゴールドポイント -->
<g id="node27" class="node">
<title>ヨドバシゴールドポイント</title>
<polygon fill="none" stroke="#000000" points="2066.5,-182 1878.5,-182 1878.5,-146 2066.5,-146 2066.5,-182"/>
<text text-anchor="middle" x="1972.5" y="-160.3" font-family="Times,serif" font-size="14.00" fill="#000000">ヨドバシゴールドポイント</text>
</g>
<!-- ヨドバシゴールドポイント&#45;&gt;ヨドバシカメラ -->
<g id="edge46" class="edge">
<title>ヨドバシゴールドポイント&#45;&gt;ヨドバシカメラ</title>
<path fill="none" stroke="#000000" d="M1964.3533,-145.8077C1960.0291,-135.2765 1955.0867,-121.6417 1952.5,-109 1948.2775,-88.3639 1947.0945,-64.5819 1946.9316,-46.5063"/>
<polygon fill="#000000" stroke="#000000" points="1950.4317,-46.3329 1946.9411,-36.3296 1943.4317,-46.3263 1950.4317,-46.3329"/>
</g>
<!-- 切符&#45;&gt;現金 -->
<g id="edge71" class="edge">
<title>切符&#45;&gt;現金</title>
<path fill="none" stroke="#000000" d="M773.9872,-109.072C776.5844,-129.3212 773.583,-161.932 755.5,-182 731.6437,-208.4751 631.3139,-233.1527 575.6853,-244.4855"/>
<polygon fill="#000000" stroke="#000000" points="574.9713,-241.0589 565.8469,-246.4438 576.3378,-247.9242 574.9713,-241.0589"/>
</g>
<!-- 切符&#45;&gt;電車 -->
<g id="edge70" class="edge">
<title>切符&#45;&gt;電車</title>
<path fill="none" stroke="#000000" stroke-width="2" d="M775.6461,-72.9551C779.9154,-64.5319 785.0865,-54.3292 789.8086,-45.0128"/>
<polygon fill="#000000" stroke="#000000" stroke-width="2" points="792.9318,-46.5924 794.3309,-36.0904 786.688,-43.4277 792.9318,-46.5924"/>
</g>
<!-- ぐるなびギフト券&#45;&gt;現金 -->
<g id="edge65" class="edge">
<title>ぐるなびギフト券&#45;&gt;現金</title>
<path fill="none" stroke="#000000" d="M459.6868,-109.2226C478.9423,-137.3019 510.9162,-191.3121 527.8234,-223.959"/>
<polygon fill="#000000" stroke="#000000" points="524.7338,-225.6055 532.3631,-232.957 530.9835,-222.4524 524.7338,-225.6055"/>
</g>
<!-- 餃子の王将 -->
<g id="node45" class="node">
<title>餃子の王将</title>
<polygon fill="none" stroke="#000000" points="488.5,-36 400.5,-36 400.5,0 488.5,0 488.5,-36"/>
<text text-anchor="middle" x="444.5" y="-14.3" font-family="Times,serif" font-size="14.00" fill="#000000">餃子の王将</text>
</g>
<!-- ぐるなびギフト券&#45;&gt;餃子の王将 -->
<g id="edge64" class="edge">
<title>ぐるなびギフト券&#45;&gt;餃子の王将</title>
<path fill="none" stroke="#000000" stroke-width="2" d="M444.5,-72.9551C444.5,-64.8828 444.5,-55.1764 444.5,-46.1817"/>
<polygon fill="#000000" stroke="#000000" stroke-width="2" points="448.0001,-46.0903 444.5,-36.0904 441.0001,-46.0904 448.0001,-46.0903"/>
</g>
<!-- ローソン&#45;&gt;Ponta -->
<g id="edge41" class="edge">
<title>ローソン&#45;&gt;Ponta</title>
<path fill="none" stroke="#000000" d="M1694.569,-36.1952C1661.6998,-62.2763 1601.1106,-110.3525 1564.3429,-139.5268"/>
<polygon fill="#000000" stroke="#000000" points="1562.0897,-136.8467 1556.4317,-145.8042 1566.4408,-142.3302 1562.0897,-136.8467"/>
<text text-anchor="middle" x="1658" y="-87.3" font-family="Times,serif" font-size="14.00" fill="#000000">1%</text>
</g>
<!-- ファミリーマート&#45;&gt;Tポイント -->
<g id="edge43" class="edge">
<title>ファミリーマート&#45;&gt;Tポイント</title>
<path fill="none" stroke="#000000" d="M1304.1771,-36.0012C1293.5771,-45.6754 1282.1591,-58.5741 1276.5,-73 1270.6569,-87.8949 1269.1354,-94.7957 1276.5,-109 1283.0668,-121.6656 1294.0397,-132.033 1305.7121,-140.2155"/>
<polygon fill="#000000" stroke="#000000" points="1303.9907,-143.2711 1314.282,-145.7891 1307.8072,-137.403 1303.9907,-143.2711"/>
<text text-anchor="middle" x="1295" y="-87.3" font-family="Times,serif" font-size="14.00" fill="#000000">0.5%</text>
</g>
<!-- 大阪地下鉄&#45;&gt;三井住友VISAカード -->
<g id="edge14" class="edge">
<title>大阪地下鉄&#45;&gt;三井住友VISAカード</title>
<path fill="none" stroke="#000000" d="M154.5,-36.3003C154.5,-51.0651 154.5,-72.3698 154.5,-91 154.5,-251 154.5,-251 154.5,-251 154.5,-272.2902 170.0083,-288.6626 187.8537,-300.4546"/>
<polygon fill="#000000" stroke="#000000" points="186.3843,-303.658 196.7442,-305.877 190.0292,-297.6818 186.3843,-303.658"/>
<text text-anchor="middle" x="170.5" y="-160.3" font-family="Times,serif" font-size="14.00" fill="#000000">10%</text>
</g>
<!-- ウェルシア&#45;&gt;Tポイント -->
<g id="edge48" class="edge">
<title>ウェルシア&#45;&gt;Tポイント</title>
<path fill="none" stroke="#000000" d="M1574.4006,-28.3883C1541.3643,-37.2999 1495.8002,-52.044 1459.5,-73 1428.5638,-90.8594 1398.2845,-118.5059 1378.2534,-138.6412"/>
<polygon fill="#000000" stroke="#000000" points="1375.5898,-136.3589 1371.098,-145.9544 1380.5933,-141.2544 1375.5898,-136.3589"/>
<text text-anchor="middle" x="1471" y="-87.3" font-family="Times,serif" font-size="14.00" fill="#000000">1%</text>
</g>
<!-- ビックカメラ&#45;&gt;ビックポイント -->
<g id="edge18" class="edge">
<title>ビックカメラ&#45;&gt;ビックポイント</title>
<path fill="none" stroke="#000000" stroke-dasharray="5,2" d="M685.0738,-36.1766C674.885,-45.8939 663.9163,-58.7782 658.5,-73 650.6247,-93.6786 657.114,-118.1712 664.8906,-136.5348"/>
<polygon fill="#000000" stroke="#000000" points="661.7823,-138.1534 669.1323,-145.7842 668.1452,-135.2354 661.7823,-138.1534"/>
<text text-anchor="middle" x="677" y="-87.3" font-family="Times,serif" font-size="14.00" fill="#000000">9.5%</text>
</g>
<!-- ヨドバシカメラ&#45;&gt;ヨドバシゴールドポイント -->
<g id="edge45" class="edge">
<title>ヨドバシカメラ&#45;&gt;ヨドバシゴールドポイント</title>
<path fill="none" stroke="#000000" d="M1950.655,-36.4251C1954.9426,-61.4651 1962.6492,-106.4714 1967.6681,-135.7818"/>
<polygon fill="#000000" stroke="#000000" points="1964.2466,-136.5384 1969.3843,-145.8042 1971.1462,-135.3569 1964.2466,-136.5384"/>
<text text-anchor="middle" x="1978.5" y="-87.3" font-family="Times,serif" font-size="14.00" fill="#000000">10%</text>
</g>
<!-- FRESCO&#45;&gt;FRESCOポイント -->
<g id="edge61" class="edge">
<title>FRESCO&#45;&gt;FRESCOポイント</title>
<path fill="none" stroke="#000000" d="M1772.391,-34.7346C1747.3363,-46.0989 1718.5366,-61.156 1711.5,-73 1700.3233,-91.8128 1702.3979,-116.8754 1706.6639,-135.9349"/>
<polygon fill="#000000" stroke="#000000" points="1703.3246,-137.0044 1709.1891,-145.8281 1710.1071,-135.2731 1703.3246,-137.0044"/>
<text text-anchor="middle" x="1730" y="-87.3" font-family="Times,serif" font-size="14.00" fill="#000000">0.5%</text>
</g>
<!-- 吉野家&#45;&gt;Tポイント -->
<g id="edge68" class="edge">
<title>吉野家&#45;&gt;Tポイント</title>
<path fill="none" stroke="#000000" d="M908.1093,-32.2432C911.2517,-33.581 914.423,-34.8605 917.5,-36 1082.1545,-96.9766 1132.4657,-91.4649 1303.2793,-145.7025"/>
<polygon fill="#000000" stroke="#000000" points="1302.2405,-149.0448 1312.8315,-148.7577 1304.373,-142.3776 1302.2405,-149.0448"/>
<text text-anchor="middle" x="1192" y="-87.3" font-family="Times,serif" font-size="14.00" fill="#000000">0.5%</text>
</g>
<!-- Amazon&#45;&gt;Amazonポイント -->
<g id="edge53" class="edge">
<title>Amazon&#45;&gt;Amazonポイント</title>
<path fill="none" stroke="#000000" d="M2263.4766,-36.4251C2274.5327,-61.4651 2290.2111,-106.4714 2298.2988,-135.7818"/>
<polygon fill="#000000" stroke="#000000" points="2295.0022,-137.011 2300.9124,-145.8042 2301.7757,-135.2446 2295.0022,-137.011"/>
</g>
<!-- じゃらん&#45;&gt;Ponta -->
<g id="edge52" class="edge">
<title>じゃらん&#45;&gt;Ponta</title>
<path fill="none" stroke="#000000" d="M1461.9434,-36.1957C1469.5019,-46.7281 1478.9133,-60.3628 1486.5,-73 1498.9904,-93.8054 1511.5206,-118.2896 1520.4986,-136.6177"/>
<polygon fill="#000000" stroke="#000000" points="1517.4612,-138.3756 1524.9741,-145.846 1523.7595,-135.321 1517.4612,-138.3756"/>
<text text-anchor="middle" x="1517" y="-87.3" font-family="Times,serif" font-size="14.00" fill="#000000">2%</text>
</g>
</g>
</svg>
