<?xml version="1.0" encoding="UTF-8" standalone="no"?>
<!DOCTYPE svg PUBLIC "-//W3C//DTD SVG 1.1//EN"
 "http://www.w3.org/Graphics/SVG/1.1/DTD/svg11.dtd">
<!-- Generated by graphviz version 2.40.1 (0)
 -->
<!-- Title: MoneyFlow Pages: 1 -->
<svg width="1072pt" height="1858pt"
 viewBox="0.00 0.00 1072.00 1858.00" xmlns="http://www.w3.org/2000/svg" xmlns:xlink="http://www.w3.org/1999/xlink">
<g id="graph0" class="graph" transform="scale(1 1) rotate(0) translate(4 1854)">
<title>MoneyFlow</title>
<polygon fill="#ffffff" stroke="transparent" points="-4,4 -4,-1854 1068,-1854 1068,4 -4,4"/>
<!-- 収入 -->
<g id="node1" class="node">
<title>収入</title>
<text text-anchor="middle" x="27" y="-14.3" font-family="Times,serif" font-size="14.00" fill="#000000">収入</text>
</g>
<!-- 銀行口座 -->
<g id="node2" class="node">
<title>銀行口座</title>
<text text-anchor="middle" x="142" y="-14.3" font-family="Times,serif" font-size="14.00" fill="#000000">銀行口座</text>
</g>
<!-- 収入&#45;&gt;銀行口座 -->
<g id="edge1" class="edge">
<title>収入&#45;&gt;銀行口座</title>
<path fill="none" stroke="#000000" d="M54.2534,-18C69.3972,-18 88.4539,-18 104.9357,-18"/>
</g>
<!-- クレジットカード -->
<g id="node3" class="node">
<title>クレジットカード</title>
<text text-anchor="middle" x="322" y="-14.3" font-family="Times,serif" font-size="14.00" fill="#000000">クレジットカード</text>
</g>
<!-- 銀行口座&#45;&gt;クレジットカード -->
<g id="edge2" class="edge">
<title>銀行口座&#45;&gt;クレジットカード</title>
<path fill="none" stroke="#000000" d="M179.2961,-18C201.6417,-18 230.6798,-18 256.7236,-18"/>
</g>
<!-- マネー -->
<g id="node4" class="node">
<title>マネー</title>
<text text-anchor="middle" x="485" y="-14.3" font-family="Times,serif" font-size="14.00" fill="#000000">マネー</text>
</g>
<!-- クレジットカード&#45;&gt;マネー -->
<g id="edge3" class="edge">
<title>クレジットカード&#45;&gt;マネー</title>
<path fill="none" stroke="#000000" d="M387.3591,-18C410.9188,-18 436.353,-18 455.3549,-18"/>
</g>
<!-- ポイント -->
<g id="node5" class="node">
<title>ポイント</title>
<text text-anchor="middle" x="692" y="-14.3" font-family="Times,serif" font-size="14.00" fill="#000000">ポイント</text>
</g>
<!-- マネー&#45;&gt;ポイント -->
<g id="edge4" class="edge">
<title>マネー&#45;&gt;ポイント</title>
<path fill="none" stroke="#000000" d="M514.6581,-18C551.5493,-18 614.5569,-18 654.6899,-18"/>
</g>
<!-- 金券 -->
<g id="node6" class="node">
<title>金券</title>
<text text-anchor="middle" x="870" y="-14.3" font-family="Times,serif" font-size="14.00" fill="#000000">金券</text>
</g>
<!-- ポイント&#45;&gt;金券 -->
<g id="edge5" class="edge">
<title>ポイント&#45;&gt;金券</title>
<path fill="none" stroke="#000000" d="M729.3146,-18C763.262,-18 812.5623,-18 842.8847,-18"/>
</g>
<!-- 支出 -->
<g id="node7" class="node">
<title>支出</title>
<text text-anchor="middle" x="1006" y="-14.3" font-family="Times,serif" font-size="14.00" fill="#000000">支出</text>
</g>
<!-- 金券&#45;&gt;支出 -->
<g id="edge6" class="edge">
<title>金券&#45;&gt;支出</title>
<path fill="none" stroke="#000000" d="M897.1948,-18C920.9147,-18 955.1464,-18 978.8524,-18"/>
</g>
<!-- 給与 -->
<g id="node8" class="node">
<title>給与</title>
<polygon fill="none" stroke="#000000" points="54,-1673 0,-1673 0,-1637 54,-1637 54,-1673"/>
<text text-anchor="middle" x="27" y="-1651.3" font-family="Times,serif" font-size="14.00" fill="#000000">給与</text>
</g>
<!-- 三井住友銀行 -->
<g id="node9" class="node">
<title>三井住友銀行</title>
<polygon fill="none" stroke="#000000" points="193,-1673 91,-1673 91,-1637 193,-1637 193,-1673"/>
<text text-anchor="middle" x="142" y="-1651.3" font-family="Times,serif" font-size="14.00" fill="#000000">三井住友銀行</text>
</g>
<!-- 給与&#45;&gt;三井住友銀行 -->
<g id="edge7" class="edge">
<title>給与&#45;&gt;三井住友銀行</title>
<path fill="none" stroke="#000000" stroke-width="2" d="M54.2534,-1655C62.2529,-1655 71.3442,-1655 80.571,-1655"/>
<polygon fill="#000000" stroke="#000000" stroke-width="2" points="80.5912,-1658.5001 90.5911,-1655 80.5911,-1651.5001 80.5912,-1658.5001"/>
</g>
<!-- 住信SBI銀行 -->
<g id="node10" class="node">
<title>住信SBI銀行</title>
<polygon fill="none" stroke="#000000" points="192,-1409 92,-1409 92,-1373 192,-1373 192,-1409"/>
<text text-anchor="middle" x="142" y="-1387.3" font-family="Times,serif" font-size="14.00" fill="#000000">住信SBI銀行</text>
</g>
<!-- 三井住友銀行&#45;&gt;住信SBI銀行 -->
<g id="edge9" class="edge">
<title>三井住友銀行&#45;&gt;住信SBI銀行</title>
<path fill="none" stroke="#000000" stroke-width="2" d="M142,-1636.7457C142,-1564.2556 142,-1491.7656 142,-1419.2755"/>
<polygon fill="#000000" stroke="#000000" stroke-width="2" points="145.5001,-1419.0468 142,-1409.0469 138.5001,-1419.0469 145.5001,-1419.0468"/>
</g>
<!-- 三井住友VISAカード -->
<g id="node11" class="node">
<title>三井住友VISAカード</title>
<polygon fill="none" stroke="#000000" points="398.5,-1767 245.5,-1767 245.5,-1731 398.5,-1731 398.5,-1767"/>
<text text-anchor="middle" x="322" y="-1745.3" font-family="Times,serif" font-size="14.00" fill="#000000">三井住友VISAカード</text>
</g>
<!-- 三井住友銀行&#45;&gt;三井住友VISAカード -->
<g id="edge13" class="edge">
<title>三井住友銀行&#45;&gt;三井住友VISAカード</title>
<path fill="none" stroke="#000000" stroke-width="2" d="M175.6276,-1673.1867C186.8538,-1679.2169 199.4455,-1685.936 211,-1692 232.791,-1703.4363 257.1003,-1715.9472 277.4018,-1726.3269"/>
<polygon fill="#000000" stroke="#000000" stroke-width="2" points="275.9263,-1729.5033 286.424,-1730.9345 279.11,-1723.2692 275.9263,-1729.5033"/>
</g>
<!-- 現金 -->
<g id="node16" class="node">
<title>現金</title>
<polygon fill="none" stroke="#000000" points="512,-1545 458,-1545 458,-1509 512,-1509 512,-1545"/>
<text text-anchor="middle" x="485" y="-1523.3" font-family="Times,serif" font-size="14.00" fill="#000000">現金</text>
</g>
<!-- 三井住友銀行&#45;&gt;現金 -->
<g id="edge8" class="edge">
<title>三井住友銀行&#45;&gt;現金</title>
<path fill="none" stroke="#000000" stroke-width="2" d="M190.416,-1636.9322C259.8297,-1611.0286 386.1003,-1563.9072 448.3301,-1540.6844"/>
<polygon fill="#000000" stroke="#000000" stroke-width="2" points="449.6041,-1543.9448 457.7493,-1537.1694 447.1566,-1537.3866 449.6041,-1543.9448"/>
</g>
<!-- 関西電力 -->
<g id="node39" class="node">
<title>関西電力</title>
<polygon fill="none" stroke="#000000" points="1043,-1700 969,-1700 969,-1664 1043,-1664 1043,-1700"/>
<text text-anchor="middle" x="1006" y="-1678.3" font-family="Times,serif" font-size="14.00" fill="#000000">関西電力</text>
</g>
<!-- 三井住友銀行&#45;&gt;関西電力 -->
<g id="edge10" class="edge">
<title>三井住友銀行&#45;&gt;関西電力</title>
<path fill="none" stroke="#000000" stroke-width="2" d="M193.3745,-1665.0881C229.2605,-1671.2679 278.3669,-1678 322,-1678 322,-1678 322,-1678 870,-1678 899.5073,-1678 932.6001,-1678.9524 958.7535,-1679.9278"/>
<polygon fill="#000000" stroke="#000000" stroke-width="2" points="958.6493,-1683.4263 968.7771,-1680.3152 958.9198,-1676.4315 958.6493,-1683.4263"/>
</g>
<!-- ビックカメラSuicaカード -->
<g id="node12" class="node">
<title>ビックカメラSuicaカード</title>
<polygon fill="none" stroke="#000000" points="414,-1409 230,-1409 230,-1373 414,-1373 414,-1409"/>
<text text-anchor="middle" x="322" y="-1387.3" font-family="Times,serif" font-size="14.00" fill="#000000">ビックカメラSuicaカード</text>
</g>
<!-- 住信SBI銀行&#45;&gt;ビックカメラSuicaカード -->
<g id="edge34" class="edge">
<title>住信SBI銀行&#45;&gt;ビックカメラSuicaカード</title>
<path fill="none" stroke="#000000" stroke-width="2" d="M192.14,-1391C200.7724,-1391 210.018,-1391 219.4511,-1391"/>
<polygon fill="#000000" stroke="#000000" stroke-width="2" points="219.7405,-1394.5001 229.7405,-1391 219.7404,-1387.5001 219.7405,-1394.5001"/>
</g>
<!-- リクルートカード -->
<g id="node13" class="node">
<title>リクルートカード</title>
<polygon fill="none" stroke="#000000" points="386.5,-360 257.5,-360 257.5,-324 386.5,-324 386.5,-360"/>
<text text-anchor="middle" x="322" y="-338.3" font-family="Times,serif" font-size="14.00" fill="#000000">リクルートカード</text>
</g>
<!-- 住信SBI銀行&#45;&gt;リクルートカード -->
<g id="edge35" class="edge">
<title>住信SBI銀行&#45;&gt;リクルートカード</title>
<path fill="none" stroke="#000000" stroke-width="2" d="M145.1242,-1372.7926C166.483,-1248.3185 290.9064,-523.2064 317.1437,-370.3015"/>
<polygon fill="#000000" stroke="#000000" stroke-width="2" points="320.6186,-370.7453 318.8603,-360.2974 313.7194,-369.5614 320.6186,-370.7453"/>
</g>
<!-- 住信SBI銀行&#45;&gt;現金 -->
<g id="edge32" class="edge">
<title>住信SBI銀行&#45;&gt;現金</title>
<path fill="none" stroke="#000000" stroke-width="2" d="M187.5478,-1409.0597C256.22,-1436.2884 384.94,-1487.3261 448.1146,-1512.3749"/>
<polygon fill="#000000" stroke="#000000" stroke-width="2" points="447.0857,-1515.732 457.6717,-1516.1643 449.6658,-1509.2248 447.0857,-1515.732"/>
</g>
<!-- 家賃 -->
<g id="node31" class="node">
<title>家賃</title>
<polygon fill="none" stroke="#000000" points="1033,-1221 979,-1221 979,-1185 1033,-1185 1033,-1221"/>
<text text-anchor="middle" x="1006" y="-1199.3" font-family="Times,serif" font-size="14.00" fill="#000000">家賃</text>
</g>
<!-- 住信SBI銀行&#45;&gt;家賃 -->
<g id="edge33" class="edge">
<title>住信SBI銀行&#45;&gt;家賃</title>
<path fill="none" stroke="#000000" stroke-width="2" d="M149.9174,-1372.8278C170.8761,-1327.8601 232.4029,-1215 322,-1215 322,-1215 322,-1215 870,-1215 903.4803,-1215 941.4179,-1211.3468 968.7016,-1208.0717"/>
<polygon fill="#000000" stroke="#000000" stroke-width="2" points="969.4757,-1211.5025 978.9682,-1206.7969 968.6131,-1204.5559 969.4757,-1211.5025"/>
</g>
<!-- PiTaPa -->
<g id="node15" class="node">
<title>PiTaPa</title>
<polygon fill="none" stroke="#000000" points="517.5,-1839 452.5,-1839 452.5,-1803 517.5,-1803 517.5,-1839"/>
<text text-anchor="middle" x="485" y="-1817.3" font-family="Times,serif" font-size="14.00" fill="#000000">PiTaPa</text>
</g>
<!-- 三井住友VISAカード&#45;&gt;PiTaPa -->
<g id="edge15" class="edge">
<title>三井住友VISAカード&#45;&gt;PiTaPa</title>
<path fill="none" stroke="#000000" stroke-width="2" d="M363.1318,-1767.1686C387.5267,-1777.9443 418.3773,-1791.5716 442.9344,-1802.4189"/>
<polygon fill="#000000" stroke="#000000" stroke-width="2" points="441.7897,-1805.7395 452.3513,-1806.5785 444.6181,-1799.3363 441.7897,-1805.7395"/>
</g>
<!-- ワールドプレゼントポイント -->
<g id="node22" class="node">
<title>ワールドプレゼントポイント</title>
<polygon fill="none" stroke="#000000" points="792,-1742 592,-1742 592,-1706 792,-1706 792,-1742"/>
<text text-anchor="middle" x="692" y="-1720.3" font-family="Times,serif" font-size="14.00" fill="#000000">ワールドプレゼントポイント</text>
</g>
<!-- 三井住友VISAカード&#45;&gt;ワールドプレゼントポイント -->
<g id="edge14" class="edge">
<title>三井住友VISAカード&#45;&gt;ワールドプレゼントポイント</title>
<path fill="none" stroke="#000000" stroke-dasharray="5,2" d="M398.6642,-1743.82C451.5893,-1740.244 522.7788,-1735.4339 581.7721,-1731.4478"/>
<polygon fill="#000000" stroke="#000000" points="582.1409,-1734.931 591.8822,-1730.7647 581.669,-1727.9469 582.1409,-1734.931"/>
<text text-anchor="middle" x="485" y="-1743.8" font-family="Times,serif" font-size="14.00" fill="#000000">0.5%</text>
</g>
<!-- Suica -->
<g id="node14" class="node">
<title>Suica</title>
<polygon fill="none" stroke="#000000" points="513,-1305 457,-1305 457,-1269 513,-1269 513,-1305"/>
<text text-anchor="middle" x="485" y="-1283.3" font-family="Times,serif" font-size="14.00" fill="#000000">Suica</text>
</g>
<!-- ビックカメラSuicaカード&#45;&gt;Suica -->
<g id="edge24" class="edge">
<title>ビックカメラSuicaカード&#45;&gt;Suica</title>
<path fill="none" stroke="#000000" stroke-width="2" d="M350.3924,-1372.8846C377.5052,-1355.5856 418.5069,-1329.425 448.1321,-1310.5231"/>
<polygon fill="#000000" stroke="#000000" stroke-width="2" points="450.3853,-1313.2372 456.9329,-1304.9078 446.6201,-1307.3361 450.3853,-1313.2372"/>
</g>
<!-- JREポイント -->
<g id="node23" class="node">
<title>JREポイント</title>
<polygon fill="none" stroke="#000000" points="742.5,-1322 641.5,-1322 641.5,-1286 742.5,-1286 742.5,-1322"/>
<text text-anchor="middle" x="692" y="-1300.3" font-family="Times,serif" font-size="14.00" fill="#000000">JREポイント</text>
</g>
<!-- ビックカメラSuicaカード&#45;&gt;JREポイント -->
<g id="edge19" class="edge">
<title>ビックカメラSuicaカード&#45;&gt;JREポイント</title>
<path fill="none" stroke="#000000" d="M398.6642,-1372.9735C467.7813,-1356.7217 568.048,-1333.1455 631.6205,-1318.1974"/>
<polygon fill="#000000" stroke="#000000" points="632.5646,-1321.5709 641.498,-1315.8748 630.9623,-1314.7567 632.5646,-1321.5709"/>
<text text-anchor="middle" x="485" y="-1364.8" font-family="Times,serif" font-size="14.00" fill="#000000">0.5%</text>
</g>
<!-- ビックポイント -->
<g id="node24" class="node">
<title>ビックポイント</title>
<polygon fill="none" stroke="#000000" points="750,-1414 634,-1414 634,-1378 750,-1378 750,-1414"/>
<text text-anchor="middle" x="692" y="-1392.3" font-family="Times,serif" font-size="14.00" fill="#000000">ビックポイント</text>
</g>
<!-- ビックカメラSuicaカード&#45;&gt;ビックポイント -->
<g id="edge22" class="edge">
<title>ビックカメラSuicaカード&#45;&gt;ビックポイント</title>
<path fill="none" stroke="#000000" d="M414.0476,-1403.5867C420.1151,-1404.147 426.1401,-1404.6286 432,-1405 494.9847,-1408.992 510.9346,-1407.4015 574,-1405 590.1519,-1404.3849 607.5205,-1403.2979 623.8325,-1402.0871"/>
<polygon fill="#000000" stroke="#000000" points="624.1291,-1405.5748 633.8322,-1401.3204 623.5938,-1398.5953 624.1291,-1405.5748"/>
<text text-anchor="middle" x="485" y="-1411.8" font-family="Times,serif" font-size="14.00" fill="#000000">0.5%</text>
</g>
<!-- ビックカメラ -->
<g id="node43" class="node">
<title>ビックカメラ</title>
<polygon fill="none" stroke="#000000" points="1056.5,-1333 955.5,-1333 955.5,-1297 1056.5,-1297 1056.5,-1333"/>
<text text-anchor="middle" x="1006" y="-1311.3" font-family="Times,serif" font-size="14.00" fill="#000000">ビックカメラ</text>
</g>
<!-- ビックカメラSuicaカード&#45;&gt;ビックカメラ -->
<g id="edge20" class="edge">
<title>ビックカメラSuicaカード&#45;&gt;ビックカメラ</title>
<path fill="none" stroke="#000000" stroke-width="2" stroke-dasharray="5,2" d="M414.3034,-1385.5995C447.366,-1383.3588 484.8879,-1380.4647 519,-1377 657.2662,-1362.9566 691.1032,-1353.2985 829,-1336 867.5384,-1331.1655 910.8353,-1326.0235 944.9604,-1322.0377"/>
<polygon fill="#000000" stroke="#000000" stroke-width="2" points="945.7135,-1325.4737 955.2411,-1320.8395 944.9031,-1318.5208 945.7135,-1325.4737"/>
</g>
<!-- EX予約 -->
<g id="node53" class="node">
<title>EX予約</title>
<polygon fill="none" stroke="#000000" points="1039,-1491 973,-1491 973,-1455 1039,-1455 1039,-1491"/>
<text text-anchor="middle" x="1006" y="-1469.3" font-family="Times,serif" font-size="14.00" fill="#000000">EX予約</text>
</g>
<!-- ビックカメラSuicaカード&#45;&gt;EX予約 -->
<g id="edge29" class="edge">
<title>ビックカメラSuicaカード&#45;&gt;EX予約</title>
<path fill="none" stroke="#000000" stroke-width="2" stroke-dasharray="5,2" d="M383.6464,-1409.1544C394.0468,-1413.1372 404.5312,-1417.7581 414,-1423 449.4035,-1442.5991 444.5336,-1480 485,-1480 485,-1480 485,-1480 810.5,-1480 862.8769,-1480 923.0965,-1477.4597 962.7017,-1475.4397"/>
<polygon fill="#000000" stroke="#000000" stroke-width="2" points="963.001,-1478.9289 972.8052,-1474.9128 962.6364,-1471.9384 963.001,-1478.9289"/>
</g>
<!-- nanaco -->
<g id="node17" class="node">
<title>nanaco</title>
<polygon fill="none" stroke="#000000" points="519,-930 451,-930 451,-894 519,-894 519,-930"/>
<text text-anchor="middle" x="485" y="-908.3" font-family="Times,serif" font-size="14.00" fill="#000000">nanaco</text>
</g>
<!-- リクルートカード&#45;&gt;nanaco -->
<g id="edge58" class="edge">
<title>リクルートカード&#45;&gt;nanaco</title>
<path fill="none" stroke="#000000" stroke-width="2" d="M327.1475,-360.0004C350.7191,-442.4287 448.4338,-784.1305 477.0762,-884.2911"/>
<polygon fill="#000000" stroke="#000000" stroke-width="2" points="473.7367,-885.343 479.8513,-893.9953 480.4669,-883.4183 473.7367,-885.343"/>
</g>
<!-- Edy -->
<g id="node18" class="node">
<title>Edy</title>
<polygon fill="none" stroke="#000000" points="512,-663 458,-663 458,-627 512,-627 512,-663"/>
<text text-anchor="middle" x="485" y="-641.3" font-family="Times,serif" font-size="14.00" fill="#000000">Edy</text>
</g>
<!-- リクルートカード&#45;&gt;Edy -->
<g id="edge43" class="edge">
<title>リクルートカード&#45;&gt;Edy</title>
<path fill="none" stroke="#000000" stroke-width="2" d="M331.7083,-360.0466C359.1621,-411.0804 437.487,-556.6783 470.2793,-617.6357"/>
<polygon fill="#000000" stroke="#000000" stroke-width="2" points="467.3166,-619.5164 475.1365,-626.6648 473.4813,-616.2001 467.3166,-619.5164"/>
</g>
<!-- Ponta -->
<g id="node19" class="node">
<title>Ponta</title>
<polygon fill="none" stroke="#000000" points="720.5,-360 663.5,-360 663.5,-324 720.5,-324 720.5,-360"/>
<text text-anchor="middle" x="692" y="-338.3" font-family="Times,serif" font-size="14.00" fill="#000000">Ponta</text>
</g>
<!-- リクルートカード&#45;&gt;Ponta -->
<g id="edge53" class="edge">
<title>リクルートカード&#45;&gt;Ponta</title>
<path fill="none" stroke="#000000" d="M386.8725,-342C463.8692,-342 589.7769,-342 653.0772,-342"/>
<polygon fill="#000000" stroke="#000000" points="653.4131,-345.5001 663.4131,-342 653.413,-338.5001 653.4131,-345.5001"/>
<text text-anchor="middle" x="485" y="-345.8" font-family="Times,serif" font-size="14.00" fill="#000000">1.2%</text>
</g>
<!-- NHK -->
<g id="node36" class="node">
<title>NHK</title>
<polygon fill="none" stroke="#000000" points="1033,-268 979,-268 979,-232 1033,-232 1033,-268"/>
<text text-anchor="middle" x="1006" y="-246.3" font-family="Times,serif" font-size="14.00" fill="#000000">NHK</text>
</g>
<!-- リクルートカード&#45;&gt;NHK -->
<g id="edge36" class="edge">
<title>リクルートカード&#45;&gt;NHK</title>
<path fill="none" stroke="#000000" stroke-width="2" d="M341.9023,-323.7733C371.0281,-299.0682 428.0149,-258 485,-258 485,-258 485,-258 870,-258 903.4083,-258 941.3534,-255.5645 968.6582,-253.3811"/>
<polygon fill="#000000" stroke="#000000" stroke-width="2" points="969.2564,-256.8437 978.9338,-252.5313 968.6793,-249.8675 969.2564,-256.8437"/>
</g>
<!-- NTT -->
<g id="node37" class="node">
<title>NTT</title>
<polygon fill="none" stroke="#000000" points="1033,-144 979,-144 979,-108 1033,-108 1033,-144"/>
<text text-anchor="middle" x="1006" y="-122.3" font-family="Times,serif" font-size="14.00" fill="#000000">NTT</text>
</g>
<!-- リクルートカード&#45;&gt;NTT -->
<g id="edge37" class="edge">
<title>リクルートカード&#45;&gt;NTT</title>
<path fill="none" stroke="#000000" stroke-width="2" d="M326.2451,-323.9555C339.6395,-272.0421 386.1084,-126 485,-126 485,-126 485,-126 870,-126 903.3507,-126 941.3018,-126 968.6235,-126"/>
<polygon fill="#000000" stroke="#000000" stroke-width="2" points="968.9063,-129.5001 978.9063,-126 968.9062,-122.5001 968.9063,-129.5001"/>
</g>
<!-- ASAHIネット -->
<g id="node38" class="node">
<title>ASAHIネット</title>
<polygon fill="none" stroke="#000000" points="1060.5,-90 951.5,-90 951.5,-54 1060.5,-54 1060.5,-90"/>
<text text-anchor="middle" x="1006" y="-68.3" font-family="Times,serif" font-size="14.00" fill="#000000">ASAHIネット</text>
</g>
<!-- リクルートカード&#45;&gt;ASAHIネット -->
<g id="edge38" class="edge">
<title>リクルートカード&#45;&gt;ASAHIネット</title>
<path fill="none" stroke="#000000" stroke-width="2" d="M324.0883,-323.8653C332.1598,-263.3279 367.0036,-72 485,-72 485,-72 485,-72 870,-72 893.2394,-72 918.7126,-72 941.2666,-72"/>
<polygon fill="#000000" stroke="#000000" stroke-width="2" points="941.4053,-75.5001 951.4053,-72 941.4053,-68.5001 941.4053,-75.5001"/>
</g>
<!-- アイハート -->
<g id="node41" class="node">
<title>アイハート</title>
<polygon fill="none" stroke="#000000" points="1049,-1072 963,-1072 963,-1036 1049,-1036 1049,-1072"/>
<text text-anchor="middle" x="1006" y="-1050.3" font-family="Times,serif" font-size="14.00" fill="#000000">アイハート</text>
</g>
<!-- リクルートカード&#45;&gt;アイハート -->
<g id="edge42" class="edge">
<title>リクルートカード&#45;&gt;アイハート</title>
<path fill="none" stroke="#000000" stroke-width="2" d="M322.1814,-360.2127C323.7614,-471.031 339.002,-1050 485,-1050 485,-1050 485,-1050 810.5,-1050 858.6473,-1050 913.4505,-1051.2277 952.7571,-1052.3228"/>
<polygon fill="#000000" stroke="#000000" stroke-width="2" points="952.8118,-1055.8257 962.9075,-1052.6122 953.0114,-1048.8285 952.8118,-1055.8257"/>
</g>
<!-- Amazon -->
<g id="node51" class="node">
<title>Amazon</title>
<polygon fill="none" stroke="#000000" points="1043,-198 969,-198 969,-162 1043,-162 1043,-198"/>
<text text-anchor="middle" x="1006" y="-176.3" font-family="Times,serif" font-size="14.00" fill="#000000">Amazon</text>
</g>
<!-- リクルートカード&#45;&gt;Amazon -->
<g id="edge40" class="edge">
<title>リクルートカード&#45;&gt;Amazon</title>
<path fill="none" stroke="#000000" stroke-width="2" d="M328.4739,-323.9528C345.993,-278.7001 398.891,-164 485,-164 485,-164 485,-164 870,-164 899.6979,-164 932.7954,-167.8097 958.9035,-171.7111"/>
<polygon fill="#000000" stroke="#000000" stroke-width="2" points="958.4887,-175.1885 968.9067,-173.2609 959.5605,-168.2711 958.4887,-175.1885"/>
</g>
<!-- iTunes -->
<g id="node52" class="node">
<title>iTunes</title>
<polygon fill="none" stroke="#000000" points="1038.5,-322 973.5,-322 973.5,-286 1038.5,-286 1038.5,-322"/>
<text text-anchor="middle" x="1006" y="-300.3" font-family="Times,serif" font-size="14.00" fill="#000000">iTunes</text>
</g>
<!-- リクルートカード&#45;&gt;iTunes -->
<g id="edge39" class="edge">
<title>リクルートカード&#45;&gt;iTunes</title>
<path fill="none" stroke="#000000" stroke-width="2" stroke-dasharray="5,2" d="M362.3106,-323.9516C394.7687,-311.0644 441.9233,-296 485,-296 485,-296 485,-296 870,-296 901.2159,-296 936.3927,-298.1263 963.1494,-300.1865"/>
<polygon fill="#000000" stroke="#000000" stroke-width="2" points="963.0841,-303.6923 973.3307,-300.9983 963.6405,-296.7145 963.0841,-303.6923"/>
</g>
<!-- じゃらん -->
<g id="node54" class="node">
<title>じゃらん</title>
<polygon fill="none" stroke="#000000" points="1043,-441 969,-441 969,-405 1043,-405 1043,-441"/>
<text text-anchor="middle" x="1006" y="-419.3" font-family="Times,serif" font-size="14.00" fill="#000000">じゃらん</text>
</g>
<!-- リクルートカード&#45;&gt;じゃらん -->
<g id="edge41" class="edge">
<title>リクルートカード&#45;&gt;じゃらん</title>
<path fill="none" stroke="#000000" stroke-width="2" d="M386.5723,-351.963C407.1434,-355.0156 430.0092,-358.2825 451,-361 638.6708,-385.2957 862.793,-408.5846 958.689,-418.2787"/>
<polygon fill="#000000" stroke="#000000" stroke-width="2" points="958.6236,-421.7898 968.9243,-419.311 959.326,-414.8251 958.6236,-421.7898"/>
</g>
<!-- Suica&#45;&gt;JREポイント -->
<g id="edge30" class="edge">
<title>Suica&#45;&gt;JREポイント</title>
<path fill="none" stroke="#000000" d="M513.0957,-1285.9738C530.6297,-1285.5877 553.6563,-1285.5421 574,-1287 592.7254,-1288.3419 612.9947,-1290.867 631.3633,-1293.5684"/>
<polygon fill="#000000" stroke="#000000" points="630.9392,-1297.0441 641.3506,-1295.081 631.9874,-1290.123 630.9392,-1297.0441"/>
<text text-anchor="middle" x="555.5" y="-1290.8" font-family="Times,serif" font-size="14.00" fill="#000000">1.5%</text>
</g>
<!-- 電車 -->
<g id="node33" class="node">
<title>電車</title>
<polygon fill="none" stroke="#000000" points="1033,-1545 979,-1545 979,-1509 1033,-1509 1033,-1545"/>
<text text-anchor="middle" x="1006" y="-1523.3" font-family="Times,serif" font-size="14.00" fill="#000000">電車</text>
</g>
<!-- Suica&#45;&gt;電車 -->
<g id="edge25" class="edge">
<title>Suica&#45;&gt;電車</title>
<path fill="none" stroke="#000000" stroke-width="2" d="M496.9564,-1305.126C519.3292,-1338.5057 567.4696,-1407.6897 592,-1423 669.1301,-1471.1396 703.789,-1443.9706 792,-1466 854.6329,-1481.6416 926.68,-1502.8541 969.1644,-1515.7"/>
<polygon fill="#000000" stroke="#000000" stroke-width="2" points="968.2066,-1519.0669 978.792,-1518.6211 970.239,-1512.3685 968.2066,-1519.0669"/>
</g>
<!-- 松屋 -->
<g id="node49" class="node">
<title>松屋</title>
<polygon fill="none" stroke="#000000" points="1033,-1275 979,-1275 979,-1239 1033,-1239 1033,-1275"/>
<text text-anchor="middle" x="1006" y="-1253.3" font-family="Times,serif" font-size="14.00" fill="#000000">松屋</text>
</g>
<!-- Suica&#45;&gt;松屋 -->
<g id="edge26" class="edge">
<title>Suica&#45;&gt;松屋</title>
<path fill="none" stroke="#000000" stroke-width="2" d="M513.1309,-1284.0034C534.693,-1281.7958 565.1982,-1278.8648 592,-1277 730.8933,-1267.3361 896.3256,-1260.8555 968.8405,-1258.2667"/>
<polygon fill="#000000" stroke="#000000" stroke-width="2" points="968.9808,-1261.764 978.851,-1257.913 968.7336,-1254.7683 968.9808,-1261.764"/>
</g>
<!-- 吉野家 -->
<g id="node50" class="node">
<title>吉野家</title>
<polygon fill="none" stroke="#000000" points="1035.5,-1018 976.5,-1018 976.5,-982 1035.5,-982 1035.5,-1018"/>
<text text-anchor="middle" x="1006" y="-996.3" font-family="Times,serif" font-size="14.00" fill="#000000">吉野家</text>
</g>
<!-- Suica&#45;&gt;吉野家 -->
<g id="edge27" class="edge">
<title>Suica&#45;&gt;吉野家</title>
<path fill="none" stroke="#000000" stroke-width="2" d="M491.9871,-1268.9355C505.8614,-1235.4529 540.0978,-1163.6559 592,-1125 593.9485,-1123.5488 863.6982,-1042.6359 966.6725,-1011.7798"/>
<polygon fill="#000000" stroke="#000000" stroke-width="2" points="967.814,-1015.0916 976.3887,-1008.8686 965.8049,-1008.3861 967.814,-1015.0916"/>
</g>
<!-- 大阪地下鉄 -->
<g id="node34" class="node">
<title>大阪地下鉄</title>
<polygon fill="none" stroke="#000000" points="1050,-1796 962,-1796 962,-1760 1050,-1760 1050,-1796"/>
<text text-anchor="middle" x="1006" y="-1774.3" font-family="Times,serif" font-size="14.00" fill="#000000">大阪地下鉄</text>
</g>
<!-- PiTaPa&#45;&gt;大阪地下鉄 -->
<g id="edge16" class="edge">
<title>PiTaPa&#45;&gt;大阪地下鉄</title>
<path fill="none" stroke="#000000" stroke-width="2" d="M517.75,-1831.6621C524.0785,-1833.3756 530.7004,-1834.9338 537,-1836 561.1375,-1840.0854 567.5283,-1838.3331 592,-1839 680.8559,-1841.4215 703.9665,-1851.3018 792,-1839 847.7287,-1831.2125 909.3179,-1812.5398 952.0586,-1797.8894"/>
<polygon fill="#000000" stroke="#000000" stroke-width="2" points="953.392,-1801.1314 961.6916,-1794.546 951.0968,-1794.5184 953.392,-1801.1314"/>
</g>
<!-- 山陽バス -->
<g id="node35" class="node">
<title>山陽バス</title>
<polygon fill="none" stroke="#000000" points="1043,-1850 969,-1850 969,-1814 1043,-1814 1043,-1850"/>
<text text-anchor="middle" x="1006" y="-1828.3" font-family="Times,serif" font-size="14.00" fill="#000000">山陽バス</text>
</g>
<!-- PiTaPa&#45;&gt;山陽バス -->
<g id="edge18" class="edge">
<title>PiTaPa&#45;&gt;山陽バス</title>
<path fill="none" stroke="#000000" stroke-width="2" stroke-dasharray="5,2" d="M517.5909,-1821.6881C606.6488,-1823.5684 854.3929,-1828.7991 958.7239,-1831.0018"/>
<polygon fill="#000000" stroke="#000000" stroke-width="2" points="958.8818,-1834.5059 968.9535,-1831.2178 959.0297,-1827.5074 958.8818,-1834.5059"/>
</g>
<!-- 切符 -->
<g id="node30" class="node">
<title>切符</title>
<polygon fill="none" stroke="#000000" points="897,-1545 843,-1545 843,-1509 897,-1509 897,-1545"/>
<text text-anchor="middle" x="870" y="-1523.3" font-family="Times,serif" font-size="14.00" fill="#000000">切符</text>
</g>
<!-- 現金&#45;&gt;切符 -->
<g id="edge68" class="edge">
<title>現金&#45;&gt;切符</title>
<path fill="none" stroke="#000000" stroke-width="2" d="M512.0725,-1523.3326C579.5862,-1519.4065 755.5126,-1519.2307 832.7373,-1522.8051"/>
<polygon fill="#000000" stroke="#000000" stroke-width="2" points="832.7898,-1526.3124 842.9575,-1523.3343 833.1519,-1519.3218 832.7898,-1526.3124"/>
</g>
<!-- 飲食店 -->
<g id="node46" class="node">
<title>飲食店</title>
<polygon fill="none" stroke="#000000" points="1035.5,-1646 976.5,-1646 976.5,-1610 1035.5,-1610 1035.5,-1646"/>
<text text-anchor="middle" x="1006" y="-1624.3" font-family="Times,serif" font-size="14.00" fill="#000000">飲食店</text>
</g>
<!-- 現金&#45;&gt;飲食店 -->
<g id="edge67" class="edge">
<title>現金&#45;&gt;飲食店</title>
<path fill="none" stroke="#000000" stroke-width="2" d="M501.843,-1545.3407C521.3476,-1565.1577 555.503,-1595.6828 592,-1609 722.2402,-1656.5228 890.9656,-1643.2704 966.4565,-1633.8087"/>
<polygon fill="#000000" stroke="#000000" stroke-width="2" points="967.0111,-1637.2661 976.4761,-1632.5054 966.1082,-1630.3246 967.0111,-1637.2661"/>
</g>
<!-- nanacoポイント -->
<g id="node26" class="node">
<title>nanacoポイント</title>
<polygon fill="none" stroke="#000000" points="754.5,-976 629.5,-976 629.5,-940 754.5,-940 754.5,-976"/>
<text text-anchor="middle" x="692" y="-954.3" font-family="Times,serif" font-size="14.00" fill="#000000">nanacoポイント</text>
</g>
<!-- nanaco&#45;&gt;nanacoポイント -->
<g id="edge60" class="edge">
<title>nanaco&#45;&gt;nanacoポイント</title>
<path fill="none" stroke="#000000" d="M519.1818,-919.596C546.3557,-925.6346 585.3278,-934.2951 619.3872,-941.8638"/>
<polygon fill="#000000" stroke="#000000" points="618.7927,-945.317 629.3139,-944.0697 620.3113,-938.4837 618.7927,-945.317"/>
<text text-anchor="middle" x="555.5" y="-934.8" font-family="Times,serif" font-size="14.00" fill="#000000">1%</text>
</g>
<!-- セブンイレブン -->
<g id="node32" class="node">
<title>セブンイレブン</title>
<polygon fill="none" stroke="#000000" points="1063,-930 949,-930 949,-894 1063,-894 1063,-930"/>
<text text-anchor="middle" x="1006" y="-908.3" font-family="Times,serif" font-size="14.00" fill="#000000">セブンイレブン</text>
</g>
<!-- nanaco&#45;&gt;セブンイレブン -->
<g id="edge59" class="edge">
<title>nanaco&#45;&gt;セブンイレブン</title>
<path fill="none" stroke="#000000" stroke-width="2" d="M519.1843,-912C604.1425,-912 826.1002,-912 938.5782,-912"/>
<polygon fill="#000000" stroke="#000000" stroke-width="2" points="938.7848,-915.5001 948.7847,-912 938.7847,-908.5001 938.7848,-915.5001"/>
</g>
<!-- 楽天スーパーポイント -->
<g id="node21" class="node">
<title>楽天スーパーポイント</title>
<polygon fill="none" stroke="#000000" points="771,-452 613,-452 613,-416 771,-416 771,-452"/>
<text text-anchor="middle" x="692" y="-430.3" font-family="Times,serif" font-size="14.00" fill="#000000">楽天スーパーポイント</text>
</g>
<!-- Edy&#45;&gt;楽天スーパーポイント -->
<g id="edge51" class="edge">
<title>Edy&#45;&gt;楽天スーパーポイント</title>
<path fill="none" stroke="#000000" d="M486.4984,-626.7578C490.854,-578.7881 505.2686,-451.0792 537,-426 563.515,-405.0436 601.2553,-406.5425 632.8565,-413.5235"/>
<polygon fill="#000000" stroke="#000000" points="632.3351,-416.9987 642.879,-415.9612 633.9894,-410.1969 632.3351,-416.9987"/>
<text text-anchor="middle" x="555.5" y="-429.8" font-family="Times,serif" font-size="14.00" fill="#000000">0.5%</text>
</g>
<!-- ヤマト運輸 -->
<g id="node40" class="node">
<title>ヤマト運輸</title>
<polygon fill="none" stroke="#000000" points="1050,-876 962,-876 962,-840 1050,-840 1050,-876"/>
<text text-anchor="middle" x="1006" y="-854.3" font-family="Times,serif" font-size="14.00" fill="#000000">ヤマト運輸</text>
</g>
<!-- Edy&#45;&gt;ヤマト運輸 -->
<g id="edge44" class="edge">
<title>Edy&#45;&gt;ヤマト運輸</title>
<path fill="none" stroke="#000000" stroke-width="2" d="M491.687,-663.0692C505.1667,-696.8865 538.9216,-769.682 592,-807 700.874,-883.5465 866.7896,-876.4729 951.7383,-866.3897"/>
<polygon fill="#000000" stroke="#000000" stroke-width="2" points="952.1965,-869.8597 961.6872,-865.1505 951.3313,-862.9134 952.1965,-869.8597"/>
</g>
<!-- ウェルシア -->
<g id="node42" class="node">
<title>ウェルシア</title>
<polygon fill="none" stroke="#000000" points="1049.5,-747 962.5,-747 962.5,-711 1049.5,-711 1049.5,-747"/>
<text text-anchor="middle" x="1006" y="-725.3" font-family="Times,serif" font-size="14.00" fill="#000000">ウェルシア</text>
</g>
<!-- Edy&#45;&gt;ウェルシア -->
<g id="edge49" class="edge">
<title>Edy&#45;&gt;ウェルシア</title>
<path fill="none" stroke="#000000" stroke-width="2" d="M512.3638,-644.4134C566.3264,-643.7373 690.0755,-644.5728 792,-663 847.9039,-673.107 909.7083,-693.178 952.4651,-708.546"/>
<polygon fill="#000000" stroke="#000000" stroke-width="2" points="951.504,-711.9206 962.0981,-712.0447 953.8937,-705.3411 951.504,-711.9206"/>
</g>
<!-- ヨドバシカメラ -->
<g id="node44" class="node">
<title>ヨドバシカメラ</title>
<polygon fill="none" stroke="#000000" points="1064,-1126 948,-1126 948,-1090 1064,-1090 1064,-1126"/>
<text text-anchor="middle" x="1006" y="-1104.3" font-family="Times,serif" font-size="14.00" fill="#000000">ヨドバシカメラ</text>
</g>
<!-- Edy&#45;&gt;ヨドバシカメラ -->
<g id="edge46" class="edge">
<title>Edy&#45;&gt;ヨドバシカメラ</title>
<path fill="none" stroke="#000000" stroke-width="2" d="M487.2361,-663.2424C494.964,-725.3164 520.9472,-925.8406 537,-950 586.18,-1024.0158 757.0953,-1019.8407 811,-1036 859.5982,-1050.5686 913.6279,-1070.8499 952.4673,-1086.1759"/>
<polygon fill="#000000" stroke="#000000" stroke-width="2" points="951.416,-1089.5242 962.0019,-1089.9591 953.9977,-1083.0176 951.416,-1089.5242"/>
</g>
<!-- 餃子の王将 -->
<g id="node45" class="node">
<title>餃子の王将</title>
<polygon fill="none" stroke="#000000" points="1050,-498 962,-498 962,-462 1050,-462 1050,-498"/>
<text text-anchor="middle" x="1006" y="-476.3" font-family="Times,serif" font-size="14.00" fill="#000000">餃子の王将</text>
</g>
<!-- Edy&#45;&gt;餃子の王将 -->
<g id="edge66" class="edge">
<title>Edy&#45;&gt;餃子の王将</title>
<path fill="none" stroke="#000000" stroke-width="2" d="M492.8574,-626.7247C507.237,-596.0751 541.0689,-535.6405 592,-515 713.1649,-465.8964 870.2837,-468.7793 951.71,-474.6496"/>
<polygon fill="#000000" stroke="#000000" stroke-width="2" points="951.496,-478.1434 961.7336,-475.4154 952.0293,-471.1637 951.496,-478.1434"/>
</g>
<!-- FRESCO -->
<g id="node47" class="node">
<title>FRESCO</title>
<polygon fill="none" stroke="#000000" points="1046,-552 966,-552 966,-516 1046,-516 1046,-552"/>
<text text-anchor="middle" x="1006" y="-530.3" font-family="Times,serif" font-size="14.00" fill="#000000">FRESCO</text>
</g>
<!-- Edy&#45;&gt;FRESCO -->
<g id="edge63" class="edge">
<title>Edy&#45;&gt;FRESCO</title>
<path fill="none" stroke="#000000" stroke-width="2" d="M499.7809,-626.851C518.6098,-605.2524 553.3761,-570.2033 592,-555 715.2107,-506.5011 875.1644,-516.8679 955.4028,-526.5376"/>
<polygon fill="#000000" stroke="#000000" stroke-width="2" points="955.3601,-530.0596 965.7178,-527.8305 956.2307,-523.1139 955.3601,-530.0596"/>
</g>
<!-- 業務スーパー -->
<g id="node48" class="node">
<title>業務スーパー</title>
<polygon fill="none" stroke="#000000" points="1056.5,-693 955.5,-693 955.5,-657 1056.5,-657 1056.5,-693"/>
<text text-anchor="middle" x="1006" y="-671.3" font-family="Times,serif" font-size="14.00" fill="#000000">業務スーパー</text>
</g>
<!-- Edy&#45;&gt;業務スーパー -->
<g id="edge62" class="edge">
<title>Edy&#45;&gt;業務スーパー</title>
<path fill="none" stroke="#000000" stroke-width="2" d="M512.0092,-653.528C519.9785,-655.7012 528.7708,-657.7685 537,-659 682.2755,-680.7406 855.5586,-679.794 945.3352,-677.3332"/>
<polygon fill="#000000" stroke="#000000" stroke-width="2" points="945.4422,-680.8317 955.3365,-677.0431 945.2392,-673.8346 945.4422,-680.8317"/>
</g>
<!-- Ponta&#45;&gt;じゃらん -->
<g id="edge54" class="edge">
<title>Ponta&#45;&gt;じゃらん</title>
<path fill="none" stroke="#000000" d="M720.6978,-349.4029C774.987,-363.4075 893.1784,-393.8963 959.1308,-410.9095"/>
<polygon fill="#000000" stroke="#000000" points="958.3018,-414.3102 968.8591,-413.4191 960.0503,-407.5321 958.3018,-414.3102"/>
</g>
<!-- Tポイント -->
<g id="node20" class="node">
<title>Tポイント</title>
<polygon fill="none" stroke="#000000" points="733.5,-798 650.5,-798 650.5,-762 733.5,-762 733.5,-798"/>
<text text-anchor="middle" x="692" y="-776.3" font-family="Times,serif" font-size="14.00" fill="#000000">Tポイント</text>
</g>
<!-- 楽天スーパーポイント&#45;&gt;Edy -->
<g id="edge52" class="edge">
<title>楽天スーパーポイント&#45;&gt;Edy</title>
<path fill="none" stroke="#000000" d="M612.705,-436.0047C585.7496,-440.4843 557.3339,-449.9504 537,-469 515.4202,-489.2168 497.7962,-572.6453 489.7367,-616.9904"/>
<polygon fill="#000000" stroke="#000000" points="486.2884,-616.3914 487.9857,-626.8494 493.1805,-617.6156 486.2884,-616.3914"/>
</g>
<!-- JREポイント&#45;&gt;Suica -->
<g id="edge31" class="edge">
<title>JREポイント&#45;&gt;Suica</title>
<path fill="none" stroke="#000000" d="M641.4681,-1306.7443C611.0385,-1307.5556 571.6089,-1307.1199 537,-1302 532.4325,-1301.3243 527.7025,-1300.3553 523.0406,-1299.2305"/>
<polygon fill="#000000" stroke="#000000" points="523.5969,-1295.757 513.0335,-1296.5727 521.8,-1302.5224 523.5969,-1295.757"/>
</g>
<!-- ビックポイント&#45;&gt;ビックカメラ -->
<g id="edge23" class="edge">
<title>ビックポイント&#45;&gt;ビックカメラ</title>
<path fill="none" stroke="#000000" d="M750.3251,-1380.9544C805.8723,-1366.6253 889.1326,-1345.1473 945.4162,-1330.6283"/>
<polygon fill="#000000" stroke="#000000" points="946.4419,-1333.9784 955.2506,-1328.0914 944.6933,-1327.2003 946.4419,-1333.9784"/>
</g>
<!-- Amazonポイント -->
<g id="node25" class="node">
<title>Amazonポイント</title>
<polygon fill="none" stroke="#000000" points="757.5,-229 626.5,-229 626.5,-193 757.5,-193 757.5,-229"/>
<text text-anchor="middle" x="692" y="-207.3" font-family="Times,serif" font-size="14.00" fill="#000000">Amazonポイント</text>
</g>
<!-- Amazonポイント&#45;&gt;Amazon -->
<g id="edge57" class="edge">
<title>Amazonポイント&#45;&gt;Amazon</title>
<path fill="none" stroke="#000000" d="M757.8247,-198.8869C817.8442,-191.2648 905.0692,-182.858 958.5283,-179.6859"/>
<polygon fill="#000000" stroke="#000000" points="958.9594,-183.1676 968.7519,-179.1231 958.5746,-176.1782 958.9594,-183.1676"/>
</g>
<!-- nanacoポイント&#45;&gt;nanaco -->
<g id="edge61" class="edge">
<title>nanacoポイント&#45;&gt;nanaco</title>
<path fill="none" stroke="#000000" d="M629.3081,-962.8326C600.444,-963.0404 566.1998,-960.3725 537,-950 528.3667,-946.9332 519.9329,-941.9368 512.4552,-936.56"/>
<polygon fill="#000000" stroke="#000000" points="514.2183,-933.5 504.1616,-930.1664 509.9445,-939.0438 514.2183,-933.5"/>
</g>
<!-- FRESCOポイント -->
<g id="node27" class="node">
<title>FRESCOポイント</title>
<polygon fill="none" stroke="#000000" points="760.5,-600 623.5,-600 623.5,-564 760.5,-564 760.5,-600"/>
<text text-anchor="middle" x="692" y="-578.3" font-family="Times,serif" font-size="14.00" fill="#000000">FRESCOポイント</text>
</g>
<!-- FRESCOポイント&#45;&gt;FRESCO -->
<g id="edge65" class="edge">
<title>FRESCOポイント&#45;&gt;FRESCO</title>
<path fill="none" stroke="#000000" d="M760.9876,-589.044C804.5747,-591.6199 861.7623,-591.5305 911,-580 930.8717,-575.3465 951.4339,-566.0354 968.3245,-557.0001"/>
<polygon fill="#000000" stroke="#000000" points="970.2421,-559.9394 977.3028,-552.0402 966.8572,-553.8122 970.2421,-559.9394"/>
</g>
<!-- ヨドバシゴールドポイント -->
<g id="node28" class="node">
<title>ヨドバシゴールドポイント</title>
<polygon fill="none" stroke="#000000" points="786,-1170 598,-1170 598,-1134 786,-1134 786,-1170"/>
<text text-anchor="middle" x="692" y="-1148.3" font-family="Times,serif" font-size="14.00" fill="#000000">ヨドバシゴールドポイント</text>
</g>
<!-- ヨドバシゴールドポイント&#45;&gt;ヨドバシカメラ -->
<g id="edge48" class="edge">
<title>ヨドバシゴールドポイント&#45;&gt;ヨドバシカメラ</title>
<path fill="none" stroke="#000000" d="M786.2104,-1138.7985C834.9794,-1131.9647 893.4263,-1123.7747 937.7857,-1117.5587"/>
<polygon fill="#000000" stroke="#000000" points="938.4666,-1120.9976 947.8841,-1116.1436 937.4952,-1114.0653 938.4666,-1120.9976"/>
</g>
<!-- はぴeポイント -->
<g id="node29" class="node">
<title>はぴeポイント</title>
<polygon fill="none" stroke="#000000" points="747,-1600 637,-1600 637,-1564 747,-1564 747,-1600"/>
<text text-anchor="middle" x="692" y="-1578.3" font-family="Times,serif" font-size="14.00" fill="#000000">はぴeポイント</text>
</g>
<!-- はぴeポイント&#45;&gt;Ponta -->
<g id="edge12" class="edge">
<title>はぴeポイント&#45;&gt;Ponta</title>
<path fill="none" stroke="#000000" d="M671.5618,-1563.8718C647.6787,-1541.2849 609.2365,-1500.2367 592,-1456 523.8096,-1280.9926 568.2822,-1222.2006 561.5,-1034.5 556.4588,-894.982 522.3782,-528.0103 592,-407 605.6433,-383.2864 631.8409,-366.7364 653.9998,-356.2721"/>
<polygon fill="#000000" stroke="#000000" points="655.5012,-359.4348 663.2007,-352.1569 652.6432,-353.0448 655.5012,-359.4348"/>
<text text-anchor="middle" x="555.5" y="-1023.3" font-family="Times,serif" font-size="14.00" fill="#000000">80%</text>
</g>
<!-- 切符&#45;&gt;現金 -->
<g id="edge70" class="edge">
<title>切符&#45;&gt;現金</title>
<path fill="none" stroke="#000000" d="M842.9575,-1530.6657C775.4757,-1534.5928 599.5508,-1534.7698 522.2969,-1531.1965"/>
<polygon fill="#000000" stroke="#000000" points="522.24,-1527.689 512.0725,-1530.6674 521.8782,-1534.6796 522.24,-1527.689"/>
</g>
<!-- 切符&#45;&gt;電車 -->
<g id="edge69" class="edge">
<title>切符&#45;&gt;電車</title>
<path fill="none" stroke="#000000" stroke-width="2" d="M897.1948,-1527C917.6717,-1527 945.9826,-1527 968.5927,-1527"/>
<polygon fill="#000000" stroke="#000000" stroke-width="2" points="968.8524,-1530.5001 978.8524,-1527 968.8523,-1523.5001 968.8524,-1530.5001"/>
</g>
<!-- 大阪地下鉄&#45;&gt;三井住友VISAカード -->
<g id="edge17" class="edge">
<title>大阪地下鉄&#45;&gt;三井住友VISAカード</title>
<path fill="none" stroke="#000000" d="M961.7262,-1777.1328C867.6429,-1775.1473 640.874,-1769.6046 451,-1759 437.3741,-1758.239 422.9502,-1757.276 408.8745,-1756.2497"/>
<polygon fill="#000000" stroke="#000000" points="408.9352,-1752.7446 398.7031,-1755.4932 408.4159,-1759.7253 408.9352,-1752.7446"/>
<text text-anchor="middle" x="692" y="-1775.8" font-family="Times,serif" font-size="14.00" fill="#000000">10%</text>
</g>
<!-- 関西電力&#45;&gt;はぴeポイント -->
<g id="edge11" class="edge">
<title>関西電力&#45;&gt;はぴeポイント</title>
<path fill="none" stroke="#000000" d="M968.6593,-1668.6669C951.1963,-1662.5247 930.087,-1655.2324 911,-1649 859.3458,-1632.1336 800.4295,-1614.1809 756.7256,-1601.1086"/>
<polygon fill="#000000" stroke="#000000" points="757.6638,-1597.7361 747.0804,-1598.2289 755.6612,-1604.4435 757.6638,-1597.7361"/>
<text text-anchor="middle" x="870" y="-1652.8" font-family="Times,serif" font-size="14.00" fill="#000000">0.8%, 0.5%</text>
</g>
<!-- ヤマト運輸&#45;&gt;Tポイント -->
<g id="edge45" class="edge">
<title>ヤマト運輸&#45;&gt;Tポイント</title>
<path fill="none" stroke="#000000" d="M985.8695,-839.7208C967.7391,-824.4825 939.6128,-803.7477 911,-794 856.1305,-775.3074 789.1252,-773.8887 743.7909,-775.8139"/>
<polygon fill="#000000" stroke="#000000" points="743.4221,-772.3278 733.6075,-776.3181 743.7684,-779.3192 743.4221,-772.3278"/>
<text text-anchor="middle" x="870" y="-797.8" font-family="Times,serif" font-size="14.00" fill="#000000">0.5%</text>
</g>
<!-- ウェルシア&#45;&gt;Tポイント -->
<g id="edge50" class="edge">
<title>ウェルシア&#45;&gt;Tポイント</title>
<path fill="none" stroke="#000000" d="M962.4396,-730.2036C926.4399,-731.7337 874.1049,-735.1945 829,-743 800.2822,-747.9697 768.8511,-756.2472 743.3465,-763.7142"/>
<polygon fill="#000000" stroke="#000000" points="742.1109,-760.4301 733.5233,-766.6353 744.1062,-767.1397 742.1109,-760.4301"/>
<text text-anchor="middle" x="870" y="-746.8" font-family="Times,serif" font-size="14.00" fill="#000000">1%</text>
</g>
<!-- ビックカメラ&#45;&gt;ビックポイント -->
<g id="edge21" class="edge">
<title>ビックカメラ&#45;&gt;ビックポイント</title>
<path fill="none" stroke="#000000" stroke-dasharray="5,2" d="M985.2859,-1333.2521C970.8184,-1344.922 950.4936,-1359.2709 930,-1367 875.2769,-1387.6386 808.9289,-1394.358 760.2014,-1396.2203"/>
<polygon fill="#000000" stroke="#000000" points="759.9632,-1392.7261 750.0815,-1396.5472 760.1893,-1399.7224 759.9632,-1392.7261"/>
<text text-anchor="middle" x="870" y="-1394.8" font-family="Times,serif" font-size="14.00" fill="#000000">9.5%</text>
</g>
<!-- ヨドバシカメラ&#45;&gt;ヨドバシゴールドポイント -->
<g id="edge47" class="edge">
<title>ヨドバシカメラ&#45;&gt;ヨドバシゴールドポイント</title>
<path fill="none" stroke="#000000" d="M970.133,-1126.122C957.7287,-1131.5664 943.5385,-1136.9092 930,-1140 886.9626,-1149.8253 838.4546,-1153.5448 796.5132,-1154.5415"/>
<polygon fill="#000000" stroke="#000000" points="796.2116,-1151.0465 786.2794,-1154.7344 796.3436,-1158.0453 796.2116,-1151.0465"/>
<text text-anchor="middle" x="870" y="-1157.8" font-family="Times,serif" font-size="14.00" fill="#000000">10%</text>
</g>
<!-- FRESCO&#45;&gt;FRESCOポイント -->
<g id="edge64" class="edge">
<title>FRESCO&#45;&gt;FRESCOポイント</title>
<path fill="none" stroke="#000000" d="M965.9053,-540.1291C916.8844,-547.6228 832.7896,-560.478 770.6794,-569.9726"/>
<polygon fill="#000000" stroke="#000000" points="769.8769,-566.5545 760.5206,-571.5255 770.9347,-573.4741 769.8769,-566.5545"/>
<text text-anchor="middle" x="870" y="-564.8" font-family="Times,serif" font-size="14.00" fill="#000000">0.5%</text>
</g>
<!-- 吉野家&#45;&gt;Tポイント -->
<g id="edge28" class="edge">
<title>吉野家&#45;&gt;Tポイント</title>
<path fill="none" stroke="#000000" d="M981.241,-981.8522C944.379,-954.9182 872.7751,-902.9253 811,-860 783.3248,-840.7695 751.6423,-819.5064 727.9299,-803.738"/>
<polygon fill="#000000" stroke="#000000" points="729.8433,-800.8072 719.5765,-798.1912 725.971,-806.6387 729.8433,-800.8072"/>
<text text-anchor="middle" x="870" y="-934.8" font-family="Times,serif" font-size="14.00" fill="#000000">0.5%</text>
</g>
<!-- Amazon&#45;&gt;Amazonポイント -->
<g id="edge56" class="edge">
<title>Amazon&#45;&gt;Amazonポイント</title>
<path fill="none" stroke="#000000" d="M968.7519,-188.2316C919.4572,-195.487 831.3804,-204.6222 767.8076,-209.3892"/>
<polygon fill="#000000" stroke="#000000" points="767.5442,-205.8991 757.8247,-210.1158 768.0524,-212.8806 767.5442,-205.8991"/>
</g>
<!-- じゃらん&#45;&gt;Ponta -->
<g id="edge55" class="edge">
<title>じゃらん&#45;&gt;Ponta</title>
<path fill="none" stroke="#000000" d="M985.8363,-404.8172C967.6846,-389.6407 939.5457,-368.9424 911,-359 850.6538,-337.9815 775.4783,-337.1951 730.7418,-339.1599"/>
<polygon fill="#000000" stroke="#000000" points="730.4017,-335.6725 720.5926,-339.6764 730.7576,-342.6635 730.4017,-335.6725"/>
<text text-anchor="middle" x="870" y="-362.8" font-family="Times,serif" font-size="14.00" fill="#000000">2%</text>
</g>
</g>
</svg>
