<?xml version="1.0" encoding="UTF-8" standalone="no"?>
<!DOCTYPE svg PUBLIC "-//W3C//DTD SVG 1.1//EN"
 "http://www.w3.org/Graphics/SVG/1.1/DTD/svg11.dtd">
<!-- Generated by graphviz version 2.40.1 (20161225.0304)
 -->
<!-- Title: MoneyFlow Pages: 1 -->
<svg width="2988pt" height="496pt"
 viewBox="0.00 0.00 2988.00 496.00" xmlns="http://www.w3.org/2000/svg" xmlns:xlink="http://www.w3.org/1999/xlink">
<g id="graph0" class="graph" transform="scale(1 1) rotate(0) translate(4 492)">
<title>MoneyFlow</title>
<polygon fill="#ffffff" stroke="transparent" points="-4,4 -4,-492 2984,-492 2984,4 -4,4"/>
<!-- 収入 -->
<g id="node1" class="node">
<title>収入</title>
<text text-anchor="middle" x="65.5" y="-466.3" font-family="Times,serif" font-size="14.00" fill="#000000">収入</text>
</g>
<!-- 銀行口座 -->
<g id="node2" class="node">
<title>銀行口座</title>
<text text-anchor="middle" x="65.5" y="-393.3" font-family="Times,serif" font-size="14.00" fill="#000000">銀行口座</text>
</g>
<!-- 収入&#45;&gt;銀行口座 -->
<g id="edge1" class="edge">
<title>収入&#45;&gt;銀行口座</title>
<path fill="none" stroke="#000000" d="M65.5,-451.9551C65.5,-440.7241 65.5,-426.3298 65.5,-415.0904"/>
</g>
<!-- クレジットカード -->
<g id="node3" class="node">
<title>クレジットカード</title>
<text text-anchor="middle" x="65.5" y="-320.3" font-family="Times,serif" font-size="14.00" fill="#000000">クレジットカード</text>
</g>
<!-- 銀行口座&#45;&gt;クレジットカード -->
<g id="edge2" class="edge">
<title>銀行口座&#45;&gt;クレジットカード</title>
<path fill="none" stroke="#000000" d="M65.5,-378.9551C65.5,-367.7241 65.5,-353.3298 65.5,-342.0904"/>
</g>
<!-- マネー -->
<g id="node4" class="node">
<title>マネー</title>
<text text-anchor="middle" x="65.5" y="-247.3" font-family="Times,serif" font-size="14.00" fill="#000000">マネー</text>
</g>
<!-- クレジットカード&#45;&gt;マネー -->
<g id="edge3" class="edge">
<title>クレジットカード&#45;&gt;マネー</title>
<path fill="none" stroke="#000000" d="M65.5,-305.9551C65.5,-294.7241 65.5,-280.3298 65.5,-269.0904"/>
</g>
<!-- ポイント -->
<g id="node5" class="node">
<title>ポイント</title>
<text text-anchor="middle" x="65.5" y="-160.3" font-family="Times,serif" font-size="14.00" fill="#000000">ポイント</text>
</g>
<!-- マネー&#45;&gt;ポイント -->
<g id="edge4" class="edge">
<title>マネー&#45;&gt;ポイント</title>
<path fill="none" stroke="#000000" d="M65.5,-232.9735C65.5,-218.0422 65.5,-196.9283 65.5,-182.0034"/>
</g>
<!-- 金券 -->
<g id="node6" class="node">
<title>金券</title>
<text text-anchor="middle" x="65.5" y="-87.3" font-family="Times,serif" font-size="14.00" fill="#000000">金券</text>
</g>
<!-- ポイント&#45;&gt;金券 -->
<g id="edge5" class="edge">
<title>ポイント&#45;&gt;金券</title>
<path fill="none" stroke="#000000" d="M65.5,-145.9551C65.5,-134.7241 65.5,-120.3298 65.5,-109.0904"/>
</g>
<!-- 支出 -->
<g id="node7" class="node">
<title>支出</title>
<text text-anchor="middle" x="65.5" y="-14.3" font-family="Times,serif" font-size="14.00" fill="#000000">支出</text>
</g>
<!-- 金券&#45;&gt;支出 -->
<g id="edge6" class="edge">
<title>金券&#45;&gt;支出</title>
<path fill="none" stroke="#000000" d="M65.5,-72.9551C65.5,-61.7241 65.5,-47.3298 65.5,-36.0904"/>
</g>
<!-- 給与 -->
<g id="node8" class="node">
<title>給与</title>
<polygon fill="none" stroke="#000000" points="617.5,-488 563.5,-488 563.5,-452 617.5,-452 617.5,-488"/>
<text text-anchor="middle" x="590.5" y="-466.3" font-family="Times,serif" font-size="14.00" fill="#000000">給与</text>
</g>
<!-- 三井住友銀行 -->
<g id="node9" class="node">
<title>三井住友銀行</title>
<polygon fill="none" stroke="#000000" points="641.5,-415 539.5,-415 539.5,-379 641.5,-379 641.5,-415"/>
<text text-anchor="middle" x="590.5" y="-393.3" font-family="Times,serif" font-size="14.00" fill="#000000">三井住友銀行</text>
</g>
<!-- 給与&#45;&gt;三井住友銀行 -->
<g id="edge7" class="edge">
<title>給与&#45;&gt;三井住友銀行</title>
<path fill="none" stroke="#000000" stroke-width="2" d="M590.5,-451.9551C590.5,-443.8828 590.5,-434.1764 590.5,-425.1817"/>
<polygon fill="#000000" stroke="#000000" stroke-width="2" points="594.0001,-425.0903 590.5,-415.0904 587.0001,-425.0904 594.0001,-425.0903"/>
</g>
<!-- 住信SBI銀行 -->
<g id="node10" class="node">
<title>住信SBI銀行</title>
<polygon fill="none" stroke="#000000" points="1286.5,-415 1186.5,-415 1186.5,-379 1286.5,-379 1286.5,-415"/>
<text text-anchor="middle" x="1236.5" y="-393.3" font-family="Times,serif" font-size="14.00" fill="#000000">住信SBI銀行</text>
</g>
<!-- 三井住友銀行&#45;&gt;住信SBI銀行 -->
<g id="edge9" class="edge">
<title>三井住友銀行&#45;&gt;住信SBI銀行</title>
<path fill="none" stroke="#000000" stroke-width="2" d="M641.5996,-397C819.7802,-397 997.9608,-397 1176.1414,-397"/>
<polygon fill="#000000" stroke="#000000" stroke-width="2" points="1176.2472,-400.5001 1186.2472,-397 1176.2471,-393.5001 1176.2472,-400.5001"/>
</g>
<!-- 三井住友VISAカード -->
<g id="node11" class="node">
<title>三井住友VISAカード</title>
<polygon fill="none" stroke="#000000" points="402,-342 249,-342 249,-306 402,-306 402,-342"/>
<text text-anchor="middle" x="325.5" y="-320.3" font-family="Times,serif" font-size="14.00" fill="#000000">三井住友VISAカード</text>
</g>
<!-- 三井住友銀行&#45;&gt;三井住友VISAカード -->
<g id="edge11" class="edge">
<title>三井住友銀行&#45;&gt;三井住友VISAカード</title>
<path fill="none" stroke="#000000" stroke-width="2" d="M539.4053,-382.9249C500.1139,-372.1012 445.2297,-356.9821 400.8939,-344.7689"/>
<polygon fill="#000000" stroke="#000000" stroke-width="2" points="401.5973,-341.3324 391.0269,-342.0508 399.7382,-348.081 401.5973,-341.3324"/>
</g>
<!-- 現金 -->
<g id="node16" class="node">
<title>現金</title>
<polygon fill="none" stroke="#000000" points="1263.5,-269 1209.5,-269 1209.5,-233 1263.5,-233 1263.5,-269"/>
<text text-anchor="middle" x="1236.5" y="-247.3" font-family="Times,serif" font-size="14.00" fill="#000000">現金</text>
</g>
<!-- 三井住友銀行&#45;&gt;現金 -->
<g id="edge8" class="edge">
<title>三井住友銀行&#45;&gt;現金</title>
<path fill="none" stroke="#000000" stroke-width="2" d="M641.6881,-380.1439C703.4452,-360.2793 810.6817,-327.2878 904.5,-306 1010.3354,-281.9855 1137.3793,-263.8635 1199.1318,-255.7264"/>
<polygon fill="#000000" stroke="#000000" stroke-width="2" points="1199.714,-259.1802 1209.1769,-254.4153 1198.8079,-252.2391 1199.714,-259.1802"/>
</g>
<!-- 関西電力 -->
<g id="node42" class="node">
<title>関西電力</title>
<polygon fill="none" stroke="#000000" points="563.5,-36 489.5,-36 489.5,0 563.5,0 563.5,-36"/>
<text text-anchor="middle" x="526.5" y="-14.3" font-family="Times,serif" font-size="14.00" fill="#000000">関西電力</text>
</g>
<!-- 三井住友銀行&#45;&gt;関西電力 -->
<g id="edge10" class="edge">
<title>三井住友銀行&#45;&gt;関西電力</title>
<path fill="none" stroke="#000000" stroke-width="2" d="M561.1224,-378.741C544.2979,-365.81 526.5,-346.7537 526.5,-324 526.5,-324 526.5,-324 526.5,-91 526.5,-76.2996 526.5,-59.934 526.5,-46.4302"/>
<polygon fill="#000000" stroke="#000000" stroke-width="2" points="530.0001,-46.3003 526.5,-36.3003 523.0001,-46.3004 530.0001,-46.3003"/>
</g>
<!-- ビックカメラSuicaカード -->
<g id="node12" class="node">
<title>ビックカメラSuicaカード</title>
<polygon fill="none" stroke="#000000" points="1098,-342 913,-342 913,-306 1098,-306 1098,-342"/>
<text text-anchor="middle" x="1005.5" y="-320.3" font-family="Times,serif" font-size="14.00" fill="#000000">ビックカメラSuicaカード</text>
</g>
<!-- 住信SBI銀行&#45;&gt;ビックカメラSuicaカード -->
<g id="edge32" class="edge">
<title>住信SBI銀行&#45;&gt;ビックカメラSuicaカード</title>
<path fill="none" stroke="#000000" stroke-width="2" d="M1186.3764,-381.1601C1153.001,-370.6129 1108.7659,-356.6338 1072.3955,-345.1401"/>
<polygon fill="#000000" stroke="#000000" stroke-width="2" points="1073.4368,-341.7986 1062.8469,-342.1226 1071.3274,-348.4733 1073.4368,-341.7986"/>
</g>
<!-- リクルートカード -->
<g id="node13" class="node">
<title>リクルートカード</title>
<polygon fill="none" stroke="#000000" points="2397,-342 2266,-342 2266,-306 2397,-306 2397,-342"/>
<text text-anchor="middle" x="2331.5" y="-320.3" font-family="Times,serif" font-size="14.00" fill="#000000">リクルートカード</text>
</g>
<!-- 住信SBI銀行&#45;&gt;リクルートカード -->
<g id="edge33" class="edge">
<title>住信SBI銀行&#45;&gt;リクルートカード</title>
<path fill="none" stroke="#000000" stroke-width="2" d="M1286.7561,-393.6496C1461.9648,-381.969 2046.5325,-342.9978 2256.0065,-329.0329"/>
<polygon fill="#000000" stroke="#000000" stroke-width="2" points="2256.248,-332.5247 2265.993,-328.3671 2255.7823,-325.5402 2256.248,-332.5247"/>
</g>
<!-- 住信SBI銀行&#45;&gt;現金 -->
<g id="edge30" class="edge">
<title>住信SBI銀行&#45;&gt;現金</title>
<path fill="none" stroke="#000000" stroke-width="2" d="M1236.5,-378.8042C1236.5,-353.8868 1236.5,-308.8938 1236.5,-279.4877"/>
<polygon fill="#000000" stroke="#000000" stroke-width="2" points="1240.0001,-279.4251 1236.5,-269.4251 1233.0001,-279.4251 1240.0001,-279.4251"/>
</g>
<!-- 家賃 -->
<g id="node32" class="node">
<title>家賃</title>
<polygon fill="none" stroke="#000000" points="2824.5,-36 2770.5,-36 2770.5,0 2824.5,0 2824.5,-36"/>
<text text-anchor="middle" x="2797.5" y="-14.3" font-family="Times,serif" font-size="14.00" fill="#000000">家賃</text>
</g>
<!-- 住信SBI銀行&#45;&gt;家賃 -->
<g id="edge31" class="edge">
<title>住信SBI銀行&#45;&gt;家賃</title>
<path fill="none" stroke="#000000" stroke-width="2" d="M1286.6693,-395.9951C1553.858,-390.483 2797.5,-362.7455 2797.5,-324 2797.5,-324 2797.5,-324 2797.5,-91 2797.5,-76.2996 2797.5,-59.934 2797.5,-46.4302"/>
<polygon fill="#000000" stroke="#000000" stroke-width="2" points="2801.0001,-46.3003 2797.5,-36.3003 2794.0001,-46.3004 2801.0001,-46.3003"/>
</g>
<!-- PiTaPa -->
<g id="node15" class="node">
<title>PiTaPa</title>
<polygon fill="none" stroke="#000000" points="233,-269 168,-269 168,-233 233,-233 233,-269"/>
<text text-anchor="middle" x="200.5" y="-247.3" font-family="Times,serif" font-size="14.00" fill="#000000">PiTaPa</text>
</g>
<!-- 三井住友VISAカード&#45;&gt;PiTaPa -->
<g id="edge13" class="edge">
<title>三井住友VISAカード&#45;&gt;PiTaPa</title>
<path fill="none" stroke="#000000" stroke-width="2" d="M281.6498,-305.9474C270.2529,-300.6703 258.1827,-294.5446 247.5,-288 241.4315,-284.2822 235.2438,-279.9034 229.4358,-275.4838"/>
<polygon fill="#000000" stroke="#000000" stroke-width="2" points="231.2803,-272.4818 221.256,-269.0519 226.9534,-277.9844 231.2803,-272.4818"/>
</g>
<!-- iD -->
<g id="node17" class="node">
<title>iD</title>
<polygon fill="none" stroke="#000000" points="352.5,-269 298.5,-269 298.5,-233 352.5,-233 352.5,-269"/>
<text text-anchor="middle" x="325.5" y="-247.3" font-family="Times,serif" font-size="14.00" fill="#000000">iD</text>
</g>
<!-- 三井住友VISAカード&#45;&gt;iD -->
<g id="edge17" class="edge">
<title>三井住友VISAカード&#45;&gt;iD</title>
<path fill="none" stroke="#000000" stroke-width="2" stroke-dasharray="5,2" d="M325.5,-305.9551C325.5,-297.8828 325.5,-288.1764 325.5,-279.1817"/>
<polygon fill="#000000" stroke="#000000" stroke-width="2" points="329.0001,-279.0903 325.5,-269.0904 322.0001,-279.0904 329.0001,-279.0903"/>
</g>
<!-- ワールドプレゼントポイント -->
<g id="node22" class="node">
<title>ワールドプレゼントポイント</title>
<polygon fill="none" stroke="#000000" points="498.5,-182 296.5,-182 296.5,-146 498.5,-146 498.5,-182"/>
<text text-anchor="middle" x="397.5" y="-160.3" font-family="Times,serif" font-size="14.00" fill="#000000">ワールドプレゼントポイント</text>
</g>
<!-- 三井住友VISAカード&#45;&gt;ワールドプレゼントポイント -->
<g id="edge12" class="edge">
<title>三井住友VISAカード&#45;&gt;ワールドプレゼントポイント</title>
<path fill="none" stroke="#000000" stroke-dasharray="5,2" d="M339.0339,-305.8483C346.362,-295.4424 355.1817,-281.9169 361.5,-269 373.7979,-243.8587 383.7288,-213.4492 390.0203,-191.8408"/>
<polygon fill="#000000" stroke="#000000" points="393.4494,-192.5772 392.8109,-182.0017 386.715,-190.6672 393.4494,-192.5772"/>
<text text-anchor="middle" x="396" y="-247.3" font-family="Times,serif" font-size="14.00" fill="#000000">0.5%</text>
</g>
<!-- Suica -->
<g id="node14" class="node">
<title>Suica</title>
<polygon fill="none" stroke="#000000" points="922.5,-269 866.5,-269 866.5,-233 922.5,-233 922.5,-269"/>
<text text-anchor="middle" x="894.5" y="-247.3" font-family="Times,serif" font-size="14.00" fill="#000000">Suica</text>
</g>
<!-- ビックカメラSuicaカード&#45;&gt;Suica -->
<g id="edge23" class="edge">
<title>ビックカメラSuicaカード&#45;&gt;Suica</title>
<path fill="none" stroke="#000000" stroke-width="2" d="M978.0618,-305.9551C963.7864,-296.5667 946.1496,-284.9678 930.7637,-274.8491"/>
<polygon fill="#000000" stroke="#000000" stroke-width="2" points="932.2855,-271.6609 922.0073,-269.0904 928.4392,-277.5095 932.2855,-271.6609"/>
</g>
<!-- ビューサンクスポイント -->
<g id="node23" class="node">
<title>ビューサンクスポイント</title>
<polygon fill="none" stroke="#000000" points="1208,-182 1035,-182 1035,-146 1208,-146 1208,-182"/>
<text text-anchor="middle" x="1121.5" y="-160.3" font-family="Times,serif" font-size="14.00" fill="#000000">ビューサンクスポイント</text>
</g>
<!-- ビックカメラSuicaカード&#45;&gt;ビューサンクスポイント -->
<g id="edge18" class="edge">
<title>ビックカメラSuicaカード&#45;&gt;ビューサンクスポイント</title>
<path fill="none" stroke="#000000" d="M1098.2381,-317.1701C1166.3247,-310.0007 1250.5985,-295.8728 1272.5,-269 1302.03,-232.7671 1248.4121,-203.6383 1197.0834,-185.3369"/>
<polygon fill="#000000" stroke="#000000" points="1198.1411,-181.9994 1187.5464,-182.0463 1195.8579,-188.6166 1198.1411,-181.9994"/>
<text text-anchor="middle" x="1299" y="-247.3" font-family="Times,serif" font-size="14.00" fill="#000000">0.5%</text>
</g>
<!-- ビックポイント -->
<g id="node25" class="node">
<title>ビックポイント</title>
<polygon fill="none" stroke="#000000" points="670.5,-182 554.5,-182 554.5,-146 670.5,-146 670.5,-182"/>
<text text-anchor="middle" x="612.5" y="-160.3" font-family="Times,serif" font-size="14.00" fill="#000000">ビックポイント</text>
</g>
<!-- ビックカメラSuicaカード&#45;&gt;ビックポイント -->
<g id="edge21" class="edge">
<title>ビックカメラSuicaカード&#45;&gt;ビックポイント</title>
<path fill="none" stroke="#000000" d="M912.9181,-317.3495C833.6052,-310.9673 725.8397,-300.4733 684.5,-288 666.8022,-282.6601 659.5367,-283.0302 647.5,-269 628.9222,-247.3455 620.1206,-215.4869 616.0044,-192.5463"/>
<polygon fill="#000000" stroke="#000000" points="619.4161,-191.7158 614.3811,-182.3939 612.5039,-192.8211 619.4161,-191.7158"/>
<text text-anchor="middle" x="666" y="-247.3" font-family="Times,serif" font-size="14.00" fill="#000000">0.5%</text>
</g>
<!-- ビックカメラ -->
<g id="node45" class="node">
<title>ビックカメラ</title>
<polygon fill="none" stroke="#000000" points="749.5,-36 647.5,-36 647.5,0 749.5,0 749.5,-36"/>
<text text-anchor="middle" x="698.5" y="-14.3" font-family="Times,serif" font-size="14.00" fill="#000000">ビックカメラ</text>
</g>
<!-- ビックカメラSuicaカード&#45;&gt;ビックカメラ -->
<g id="edge19" class="edge">
<title>ビックカメラSuicaカード&#45;&gt;ビックカメラ</title>
<path fill="none" stroke="#000000" stroke-width="2" stroke-dasharray="5,2" d="M912.9736,-319.7441C822.5796,-312.9823 698.5,-295.581 698.5,-251 698.5,-251 698.5,-251 698.5,-91 698.5,-76.2996 698.5,-59.934 698.5,-46.4302"/>
<polygon fill="#000000" stroke="#000000" stroke-width="2" points="702.0001,-46.3003 698.5,-36.3003 695.0001,-46.3004 702.0001,-46.3003"/>
</g>
<!-- EX予約 -->
<g id="node55" class="node">
<title>EX予約</title>
<polygon fill="none" stroke="#000000" points="1401.5,-36 1335.5,-36 1335.5,0 1401.5,0 1401.5,-36"/>
<text text-anchor="middle" x="1368.5" y="-14.3" font-family="Times,serif" font-size="14.00" fill="#000000">EX予約</text>
</g>
<!-- ビックカメラSuicaカード&#45;&gt;EX予約 -->
<g id="edge26" class="edge">
<title>ビックカメラSuicaカード&#45;&gt;EX予約</title>
<path fill="none" stroke="#000000" stroke-width="2" stroke-dasharray="5,2" d="M1098.4183,-314.1381C1204.7886,-301.5585 1364.5,-278.1501 1364.5,-251 1364.5,-251 1364.5,-251 1364.5,-91 1364.5,-76.2775 1365.3212,-59.9099 1366.2194,-46.4104"/>
<polygon fill="#000000" stroke="#000000" stroke-width="2" points="1369.7212,-46.509 1366.942,-36.2851 1362.7389,-46.0106 1369.7212,-46.509"/>
</g>
<!-- nanaco -->
<g id="node18" class="node">
<title>nanaco</title>
<polygon fill="none" stroke="#000000" points="1681.5,-269 1613.5,-269 1613.5,-233 1681.5,-233 1681.5,-269"/>
<text text-anchor="middle" x="1647.5" y="-247.3" font-family="Times,serif" font-size="14.00" fill="#000000">nanaco</text>
</g>
<!-- リクルートカード&#45;&gt;nanaco -->
<g id="edge56" class="edge">
<title>リクルートカード&#45;&gt;nanaco</title>
<path fill="none" stroke="#000000" stroke-width="2" d="M2265.9152,-317.0005C2127.4826,-302.2262 1808.58,-268.1913 1691.5773,-255.7042"/>
<polygon fill="#000000" stroke="#000000" stroke-width="2" points="1691.8607,-252.2146 1681.5457,-254.6335 1691.1178,-259.1751 1691.8607,-252.2146"/>
</g>
<!-- Edy -->
<g id="node19" class="node">
<title>Edy</title>
<polygon fill="none" stroke="#000000" points="2018.5,-269 1964.5,-269 1964.5,-233 2018.5,-233 2018.5,-269"/>
<text text-anchor="middle" x="1991.5" y="-247.3" font-family="Times,serif" font-size="14.00" fill="#000000">Edy</text>
</g>
<!-- リクルートカード&#45;&gt;Edy -->
<g id="edge41" class="edge">
<title>リクルートカード&#45;&gt;Edy</title>
<path fill="none" stroke="#000000" stroke-width="2" d="M2265.9446,-309.9249C2195.4597,-294.7913 2085.8646,-271.2606 2028.8359,-259.0162"/>
<polygon fill="#000000" stroke="#000000" stroke-width="2" points="2029.3324,-255.5431 2018.8205,-256.8659 2027.8629,-262.3872 2029.3324,-255.5431"/>
</g>
<!-- Ponta -->
<g id="node20" class="node">
<title>Ponta</title>
<polygon fill="none" stroke="#000000" points="2303,-182 2246,-182 2246,-146 2303,-146 2303,-182"/>
<text text-anchor="middle" x="2274.5" y="-160.3" font-family="Times,serif" font-size="14.00" fill="#000000">Ponta</text>
</g>
<!-- リクルートカード&#45;&gt;Ponta -->
<g id="edge51" class="edge">
<title>リクルートカード&#45;&gt;Ponta</title>
<path fill="none" stroke="#000000" d="M2308.5289,-305.855C2298.0152,-296.1454 2286.5685,-283.2585 2280.5,-269 2270.1624,-244.7107 2269.5874,-214.3677 2271.0452,-192.5552"/>
<polygon fill="#000000" stroke="#000000" points="2274.5573,-192.562 2271.921,-182.3004 2267.5827,-191.9663 2274.5573,-192.562"/>
<text text-anchor="middle" x="2299" y="-247.3" font-family="Times,serif" font-size="14.00" fill="#000000">1.2%</text>
</g>
<!-- NHK -->
<g id="node39" class="node">
<title>NHK</title>
<polygon fill="none" stroke="#000000" points="2362.5,-36 2308.5,-36 2308.5,0 2362.5,0 2362.5,-36"/>
<text text-anchor="middle" x="2335.5" y="-14.3" font-family="Times,serif" font-size="14.00" fill="#000000">NHK</text>
</g>
<!-- リクルートカード&#45;&gt;NHK -->
<g id="edge34" class="edge">
<title>リクルートカード&#45;&gt;NHK</title>
<path fill="none" stroke="#000000" stroke-width="2" d="M2347.1754,-305.8293C2357.643,-291.8153 2369.5,-271.4317 2369.5,-251 2369.5,-251 2369.5,-251 2369.5,-91 2369.5,-74.6424 2362.3982,-57.9887 2354.686,-44.7261"/>
<polygon fill="#000000" stroke="#000000" stroke-width="2" points="2357.589,-42.7667 2349.3291,-36.1315 2351.6484,-46.4694 2357.589,-42.7667"/>
</g>
<!-- NTT -->
<g id="node40" class="node">
<title>NTT</title>
<polygon fill="none" stroke="#000000" points="2434.5,-36 2380.5,-36 2380.5,0 2434.5,0 2434.5,-36"/>
<text text-anchor="middle" x="2407.5" y="-14.3" font-family="Times,serif" font-size="14.00" fill="#000000">NTT</text>
</g>
<!-- リクルートカード&#45;&gt;NTT -->
<g id="edge35" class="edge">
<title>リクルートカード&#45;&gt;NTT</title>
<path fill="none" stroke="#000000" stroke-width="2" d="M2368.1643,-305.9253C2387.5989,-293.5205 2407.5,-274.9667 2407.5,-251 2407.5,-251 2407.5,-251 2407.5,-91 2407.5,-76.2996 2407.5,-59.934 2407.5,-46.4302"/>
<polygon fill="#000000" stroke="#000000" stroke-width="2" points="2411.0001,-46.3003 2407.5,-36.3003 2404.0001,-46.3004 2411.0001,-46.3003"/>
</g>
<!-- ASAHIネット -->
<g id="node41" class="node">
<title>ASAHIネット</title>
<polygon fill="none" stroke="#000000" points="2562,-36 2453,-36 2453,0 2562,0 2562,-36"/>
<text text-anchor="middle" x="2507.5" y="-14.3" font-family="Times,serif" font-size="14.00" fill="#000000">ASAHIネット</text>
</g>
<!-- リクルートカード&#45;&gt;ASAHIネット -->
<g id="edge36" class="edge">
<title>リクルートカード&#45;&gt;ASAHIネット</title>
<path fill="none" stroke="#000000" stroke-width="2" d="M2397.0359,-309.5782C2447.0752,-296.6081 2507.5,-275.8097 2507.5,-251 2507.5,-251 2507.5,-251 2507.5,-91 2507.5,-76.2996 2507.5,-59.934 2507.5,-46.4302"/>
<polygon fill="#000000" stroke="#000000" stroke-width="2" points="2511.0001,-46.3003 2507.5,-36.3003 2504.0001,-46.3004 2511.0001,-46.3003"/>
</g>
<!-- アイハート -->
<g id="node43" class="node">
<title>アイハート</title>
<polygon fill="none" stroke="#000000" points="2668.5,-36 2580.5,-36 2580.5,0 2668.5,0 2668.5,-36"/>
<text text-anchor="middle" x="2624.5" y="-14.3" font-family="Times,serif" font-size="14.00" fill="#000000">アイハート</text>
</g>
<!-- リクルートカード&#45;&gt;アイハート -->
<g id="edge40" class="edge">
<title>リクルートカード&#45;&gt;アイハート</title>
<path fill="none" stroke="#000000" stroke-width="2" d="M2397.2549,-320.7415C2483.6411,-314.6278 2624.5,-297.5255 2624.5,-251 2624.5,-251 2624.5,-251 2624.5,-91 2624.5,-76.2996 2624.5,-59.934 2624.5,-46.4302"/>
<polygon fill="#000000" stroke="#000000" stroke-width="2" points="2628.0001,-46.3003 2624.5,-36.3003 2621.0001,-46.3004 2628.0001,-46.3003"/>
</g>
<!-- Amazon -->
<g id="node53" class="node">
<title>Amazon</title>
<polygon fill="none" stroke="#000000" points="2198.5,-36 2124.5,-36 2124.5,0 2198.5,0 2198.5,-36"/>
<text text-anchor="middle" x="2161.5" y="-14.3" font-family="Times,serif" font-size="14.00" fill="#000000">Amazon</text>
</g>
<!-- リクルートカード&#45;&gt;Amazon -->
<g id="edge38" class="edge">
<title>リクルートカード&#45;&gt;Amazon</title>
<path fill="none" stroke="#000000" stroke-width="2" d="M2306.7106,-305.8089C2294.0824,-295.8081 2279.0078,-282.6759 2267.5,-269 2200.4676,-189.3384 2209.5538,-152.0334 2174.5,-54 2173.5673,-51.3916 2172.5937,-48.6781 2171.6171,-45.9628"/>
<polygon fill="#000000" stroke="#000000" stroke-width="2" points="2174.8198,-44.5264 2168.1356,-36.3061 2168.2347,-46.9005 2174.8198,-44.5264"/>
</g>
<!-- iTunes -->
<g id="node54" class="node">
<title>iTunes</title>
<polygon fill="none" stroke="#000000" points="2752,-36 2687,-36 2687,0 2752,0 2752,-36"/>
<text text-anchor="middle" x="2719.5" y="-14.3" font-family="Times,serif" font-size="14.00" fill="#000000">iTunes</text>
</g>
<!-- リクルートカード&#45;&gt;iTunes -->
<g id="edge37" class="edge">
<title>リクルートカード&#45;&gt;iTunes</title>
<path fill="none" stroke="#000000" stroke-width="2" stroke-dasharray="5,2" d="M2397.3189,-318.2717C2508.017,-307.7417 2719.5,-283.3866 2719.5,-251 2719.5,-251 2719.5,-251 2719.5,-91 2719.5,-76.2996 2719.5,-59.934 2719.5,-46.4302"/>
<polygon fill="#000000" stroke="#000000" stroke-width="2" points="2723.0001,-46.3003 2719.5,-36.3003 2716.0001,-46.3004 2723.0001,-46.3003"/>
</g>
<!-- じゃらん -->
<g id="node56" class="node">
<title>じゃらん</title>
<polygon fill="none" stroke="#000000" points="2290.5,-36 2216.5,-36 2216.5,0 2290.5,0 2290.5,-36"/>
<text text-anchor="middle" x="2253.5" y="-14.3" font-family="Times,serif" font-size="14.00" fill="#000000">じゃらん</text>
</g>
<!-- リクルートカード&#45;&gt;じゃらん -->
<g id="edge39" class="edge">
<title>リクルートカード&#45;&gt;じゃらん</title>
<path fill="none" stroke="#000000" stroke-width="2" d="M2331.5,-305.6997C2331.5,-290.9349 2331.5,-269.6302 2331.5,-251 2331.5,-251 2331.5,-251 2331.5,-91 2331.5,-69.9606 2316.1846,-53.2333 2299.1268,-41.1277"/>
<polygon fill="#000000" stroke="#000000" stroke-width="2" points="2300.9486,-38.1367 2290.6725,-35.5576 2297.0974,-43.9821 2300.9486,-38.1367"/>
</g>
<!-- Suica&#45;&gt;ビューサンクスポイント -->
<g id="edge29" class="edge">
<title>Suica&#45;&gt;ビューサンクスポイント</title>
<path fill="none" stroke="#000000" d="M922.7907,-240.1573C958.1863,-226.5916 1019.6365,-203.0402 1064.855,-185.7098"/>
<polygon fill="#000000" stroke="#000000" points="1066.1574,-188.9589 1074.2425,-182.1119 1063.6522,-182.4225 1066.1574,-188.9589"/>
<text text-anchor="middle" x="1033" y="-203.8" font-family="Times,serif" font-size="14.00" fill="#000000">1%</text>
</g>
<!-- JREポイント -->
<g id="node24" class="node">
<title>JREポイント</title>
<polygon fill="none" stroke="#000000" points="828,-182 727,-182 727,-146 828,-146 828,-182"/>
<text text-anchor="middle" x="777.5" y="-160.3" font-family="Times,serif" font-size="14.00" fill="#000000">JREポイント</text>
</g>
<!-- Suica&#45;&gt;JREポイント -->
<g id="edge27" class="edge">
<title>Suica&#45;&gt;JREポイント</title>
<path fill="none" stroke="#000000" d="M866.316,-246.0018C835.8212,-239.965 790.1178,-228.8716 779.5,-215 774.6317,-208.6398 772.952,-200.4128 772.816,-192.4302"/>
<polygon fill="#000000" stroke="#000000" points="776.3211,-192.4355 773.3882,-182.2547 769.3322,-192.0424 776.3211,-192.4355"/>
<text text-anchor="middle" x="798" y="-203.8" font-family="Times,serif" font-size="14.00" fill="#000000">0.5%</text>
</g>
<!-- 電車 -->
<g id="node36" class="node">
<title>電車</title>
<polygon fill="none" stroke="#000000" points="965.5,-36 911.5,-36 911.5,0 965.5,0 965.5,-36"/>
<text text-anchor="middle" x="938.5" y="-14.3" font-family="Times,serif" font-size="14.00" fill="#000000">電車</text>
</g>
<!-- Suica&#45;&gt;電車 -->
<g id="edge24" class="edge">
<title>Suica&#45;&gt;電車</title>
<path fill="none" stroke="#000000" stroke-width="2" d="M894.5368,-232.9658C895.0161,-200.4223 897.9501,-129.9646 913.5,-73 916.0286,-63.7368 919.9458,-54.0653 923.935,-45.462"/>
<polygon fill="#000000" stroke="#000000" stroke-width="2" points="927.1738,-46.805 928.3995,-36.2813 920.8786,-43.7438 927.1738,-46.805"/>
</g>
<!-- 松屋 -->
<g id="node51" class="node">
<title>松屋</title>
<polygon fill="none" stroke="#000000" points="883.5,-36 829.5,-36 829.5,0 883.5,0 883.5,-36"/>
<text text-anchor="middle" x="856.5" y="-14.3" font-family="Times,serif" font-size="14.00" fill="#000000">松屋</text>
</g>
<!-- Suica&#45;&gt;松屋 -->
<g id="edge25" class="edge">
<title>Suica&#45;&gt;松屋</title>
<path fill="none" stroke="#000000" stroke-width="2" d="M886.475,-232.9736C884.2336,-227.316 882.0028,-220.9837 880.5,-215 865.7576,-156.3006 859.9469,-85.403 857.7517,-46.6849"/>
<polygon fill="#000000" stroke="#000000" stroke-width="2" points="861.221,-46.0054 857.2022,-36.2024 854.2306,-46.372 861.221,-46.0054"/>
</g>
<!-- 大阪地下鉄 -->
<g id="node37" class="node">
<title>大阪地下鉄</title>
<polygon fill="none" stroke="#000000" points="290.5,-36 202.5,-36 202.5,0 290.5,0 290.5,-36"/>
<text text-anchor="middle" x="246.5" y="-14.3" font-family="Times,serif" font-size="14.00" fill="#000000">大阪地下鉄</text>
</g>
<!-- PiTaPa&#45;&gt;大阪地下鉄 -->
<g id="edge14" class="edge">
<title>PiTaPa&#45;&gt;大阪地下鉄</title>
<path fill="none" stroke="#000000" stroke-width="2" d="M202.1666,-232.8028C205.6609,-197.727 214.9231,-118.5226 232.5,-54 233.2601,-51.2097 234.1614,-48.3379 235.1348,-45.4913"/>
<polygon fill="#000000" stroke="#000000" stroke-width="2" points="238.435,-46.6579 238.6212,-36.0647 231.8696,-44.2297 238.435,-46.6579"/>
</g>
<!-- 山陽バス -->
<g id="node38" class="node">
<title>山陽バス</title>
<polygon fill="none" stroke="#000000" points="184.5,-36 110.5,-36 110.5,0 184.5,0 184.5,-36"/>
<text text-anchor="middle" x="147.5" y="-14.3" font-family="Times,serif" font-size="14.00" fill="#000000">山陽バス</text>
</g>
<!-- PiTaPa&#45;&gt;山陽バス -->
<g id="edge16" class="edge">
<title>PiTaPa&#45;&gt;山陽バス</title>
<path fill="none" stroke="#000000" stroke-width="2" stroke-dasharray="5,2" d="M196.3412,-232.7169C187.1109,-192.1385 164.8626,-94.3298 153.8683,-45.9964"/>
<polygon fill="#000000" stroke="#000000" stroke-width="2" points="157.2704,-45.1728 151.6395,-36.1982 150.4448,-46.7254 157.2704,-45.1728"/>
</g>
<!-- 切符 -->
<g id="node30" class="node">
<title>切符</title>
<polygon fill="none" stroke="#000000" points="976.5,-109 922.5,-109 922.5,-73 976.5,-73 976.5,-109"/>
<text text-anchor="middle" x="949.5" y="-87.3" font-family="Times,serif" font-size="14.00" fill="#000000">切符</text>
</g>
<!-- 現金&#45;&gt;切符 -->
<g id="edge70" class="edge">
<title>現金&#45;&gt;切符</title>
<path fill="none" stroke="#000000" stroke-width="2" d="M1209.274,-250.0668C1153.9187,-247.5504 1031.764,-239.1046 999.5,-215 968.5084,-191.846 953.1005,-148.2237 948.2644,-119.3843"/>
<polygon fill="#000000" stroke="#000000" stroke-width="2" points="951.69,-118.5879 946.9181,-109.1286 944.7495,-119.4991 951.69,-118.5879"/>
</g>
<!-- ぐるなびギフト券 -->
<g id="node31" class="node">
<title>ぐるなびギフト券</title>
<polygon fill="none" stroke="#000000" points="1126,-109 995,-109 995,-73 1126,-73 1126,-109"/>
<text text-anchor="middle" x="1060.5" y="-87.3" font-family="Times,serif" font-size="14.00" fill="#000000">ぐるなびギフト券</text>
</g>
<!-- 現金&#45;&gt;ぐるなびギフト券 -->
<g id="edge63" class="edge">
<title>現金&#45;&gt;ぐるなびギフト券</title>
<path fill="none" stroke="#000000" stroke-width="2" d="M1209.2264,-248.8644C1151.8521,-243.6634 1023.9403,-229.6853 1011.5,-215 987.6494,-186.8453 1010.4356,-144.2232 1032.4367,-117.003"/>
<polygon fill="#000000" stroke="#000000" stroke-width="2" points="1035.3641,-118.964 1039.187,-109.0829 1030.0366,-114.4234 1035.3641,-118.964"/>
</g>
<!-- 飲食店 -->
<g id="node48" class="node">
<title>飲食店</title>
<polygon fill="none" stroke="#000000" points="1197,-36 1138,-36 1138,0 1197,0 1197,-36"/>
<text text-anchor="middle" x="1167.5" y="-14.3" font-family="Times,serif" font-size="14.00" fill="#000000">飲食店</text>
</g>
<!-- 現金&#45;&gt;飲食店 -->
<g id="edge66" class="edge">
<title>現金&#45;&gt;飲食店</title>
<path fill="none" stroke="#000000" stroke-width="2" d="M1234.3115,-232.9242C1231.5074,-211.8083 1225.9723,-175.947 1217.5,-146 1207.4663,-110.5341 1191.3332,-71.2576 1180.1168,-45.6863"/>
<polygon fill="#000000" stroke="#000000" stroke-width="2" points="1183.1924,-43.9881 1175.9358,-36.2685 1176.7945,-46.8285 1183.1924,-43.9881"/>
</g>
<!-- FRESCO -->
<g id="node49" class="node">
<title>FRESCO</title>
<polygon fill="none" stroke="#000000" points="2922.5,-36 2842.5,-36 2842.5,0 2922.5,0 2922.5,-36"/>
<text text-anchor="middle" x="2882.5" y="-14.3" font-family="Times,serif" font-size="14.00" fill="#000000">FRESCO</text>
</g>
<!-- 現金&#45;&gt;FRESCO -->
<g id="edge60" class="edge">
<title>現金&#45;&gt;FRESCO</title>
<path fill="none" stroke="#000000" stroke-width="2" d="M1263.7047,-234.5741C1265.2967,-233.9684 1266.901,-233.4356 1268.5,-233 1367.3615,-206.0693 2088.6075,-225.8067 2190.5,-215 2392.1996,-193.6078 2445.1939,-189.4255 2638.5,-128 2711.7775,-104.7151 2792.2667,-65.5749 2840.0307,-40.804"/>
<polygon fill="#000000" stroke="#000000" stroke-width="2" points="2841.8908,-43.7813 2849.1354,-36.0504 2838.6509,-37.5761 2841.8908,-43.7813"/>
</g>
<!-- 業務スーパー -->
<g id="node50" class="node">
<title>業務スーパー</title>
<polygon fill="none" stroke="#000000" points="1317.5,-36 1215.5,-36 1215.5,0 1317.5,0 1317.5,-36"/>
<text text-anchor="middle" x="1266.5" y="-14.3" font-family="Times,serif" font-size="14.00" fill="#000000">業務スーパー</text>
</g>
<!-- 現金&#45;&gt;業務スーパー -->
<g id="edge67" class="edge">
<title>現金&#45;&gt;業務スーパー</title>
<path fill="none" stroke="#000000" stroke-width="2" d="M1244.8199,-232.6394C1247.016,-227.0776 1249.1478,-220.8819 1250.5,-215 1264.0047,-156.2563 1266.5096,-85.3752 1266.7518,-46.6718"/>
<polygon fill="#000000" stroke="#000000" stroke-width="2" points="1270.2523,-46.1983 1266.7658,-36.1936 1263.2523,-46.1889 1270.2523,-46.1983"/>
</g>
<!-- 吉野家 -->
<g id="node52" class="node">
<title>吉野家</title>
<polygon fill="none" stroke="#000000" points="1479,-36 1420,-36 1420,0 1479,0 1479,-36"/>
<text text-anchor="middle" x="1449.5" y="-14.3" font-family="Times,serif" font-size="14.00" fill="#000000">吉野家</text>
</g>
<!-- 現金&#45;&gt;吉野家 -->
<g id="edge68" class="edge">
<title>現金&#45;&gt;吉野家</title>
<path fill="none" stroke="#000000" stroke-width="2" d="M1253.2138,-232.7169C1290.9312,-191.4579 1382.736,-91.0329 1426.0913,-43.6067"/>
<polygon fill="#000000" stroke="#000000" stroke-width="2" points="1428.6999,-45.9405 1432.8639,-36.1982 1423.5334,-41.2174 1428.6999,-45.9405"/>
</g>
<!-- nanacoポイント -->
<g id="node27" class="node">
<title>nanacoポイント</title>
<polygon fill="none" stroke="#000000" points="1619,-182 1494,-182 1494,-146 1619,-146 1619,-182"/>
<text text-anchor="middle" x="1556.5" y="-160.3" font-family="Times,serif" font-size="14.00" fill="#000000">nanacoポイント</text>
</g>
<!-- nanaco&#45;&gt;nanacoポイント -->
<g id="edge58" class="edge">
<title>nanaco&#45;&gt;nanacoポイント</title>
<path fill="none" stroke="#000000" d="M1613.171,-238.7198C1600.9916,-233.0155 1587.9719,-225.1963 1578.5,-215 1572.4344,-208.4705 1567.881,-200.0084 1564.5386,-191.8601"/>
<polygon fill="#000000" stroke="#000000" points="1567.7441,-190.4332 1561.0418,-182.2277 1561.1642,-192.8219 1567.7441,-190.4332"/>
<text text-anchor="middle" x="1590" y="-203.8" font-family="Times,serif" font-size="14.00" fill="#000000">1%</text>
</g>
<!-- セブンイレブン -->
<g id="node34" class="node">
<title>セブンイレブン</title>
<polygon fill="none" stroke="#000000" points="1613.5,-36 1497.5,-36 1497.5,0 1613.5,0 1613.5,-36"/>
<text text-anchor="middle" x="1555.5" y="-14.3" font-family="Times,serif" font-size="14.00" fill="#000000">セブンイレブン</text>
</g>
<!-- nanaco&#45;&gt;セブンイレブン -->
<g id="edge57" class="edge">
<title>nanaco&#45;&gt;セブンイレブン</title>
<path fill="none" stroke="#000000" stroke-width="2" d="M1650.8338,-232.8853C1656.0983,-198.9858 1662.9467,-124.7215 1633.5,-73 1626.3094,-60.3701 1614.8898,-49.9383 1602.9831,-41.6811"/>
<polygon fill="#000000" stroke="#000000" stroke-width="2" points="1604.5782,-38.5445 1594.2806,-36.0525 1600.7766,-44.4222 1604.5782,-38.5445"/>
</g>
<!-- Edy&#45;&gt;Ponta -->
<g id="edge50" class="edge">
<title>Edy&#45;&gt;Ponta</title>
<path fill="none" stroke="#000000" d="M2018.6352,-242.6581C2069.1422,-227.1312 2177.7124,-193.7545 2235.8626,-175.8779"/>
<polygon fill="#000000" stroke="#000000" points="2237.238,-179.1168 2245.7681,-172.8328 2235.181,-172.4259 2237.238,-179.1168"/>
<text text-anchor="middle" x="2168" y="-203.8" font-family="Times,serif" font-size="14.00" fill="#000000">0.5%</text>
</g>
<!-- ローソン -->
<g id="node33" class="node">
<title>ローソン</title>
<polygon fill="none" stroke="#000000" points="2095.5,-36 2021.5,-36 2021.5,0 2095.5,0 2095.5,-36"/>
<text text-anchor="middle" x="2058.5" y="-14.3" font-family="Times,serif" font-size="14.00" fill="#000000">ローソン</text>
</g>
<!-- Edy&#45;&gt;ローソン -->
<g id="edge42" class="edge">
<title>Edy&#45;&gt;ローソン</title>
<path fill="none" stroke="#000000" stroke-width="2" d="M1996.7574,-232.7169C2008.4258,-192.1385 2036.5511,-94.3298 2050.4495,-45.9964"/>
<polygon fill="#000000" stroke="#000000" stroke-width="2" points="2053.8671,-46.776 2053.267,-36.1982 2047.1397,-44.8415 2053.8671,-46.776"/>
</g>
<!-- ファミリーマート -->
<g id="node35" class="node">
<title>ファミリーマート</title>
<polygon fill="none" stroke="#000000" points="1763,-36 1632,-36 1632,0 1763,0 1763,-36"/>
<text text-anchor="middle" x="1697.5" y="-14.3" font-family="Times,serif" font-size="14.00" fill="#000000">ファミリーマート</text>
</g>
<!-- Edy&#45;&gt;ファミリーマート -->
<g id="edge43" class="edge">
<title>Edy&#45;&gt;ファミリーマート</title>
<path fill="none" stroke="#000000" stroke-width="2" d="M1964.1702,-248.124C1915.816,-242.7206 1817.3729,-230.215 1786.5,-215 1723.4135,-183.9093 1704.9972,-92.7689 1699.6572,-46.1574"/>
<polygon fill="#000000" stroke="#000000" stroke-width="2" points="1703.1306,-45.7176 1698.6325,-36.125 1696.1668,-46.429 1703.1306,-45.7176"/>
</g>
<!-- ウェルシア -->
<g id="node44" class="node">
<title>ウェルシア</title>
<polygon fill="none" stroke="#000000" points="1869.5,-36 1781.5,-36 1781.5,0 1869.5,0 1869.5,-36"/>
<text text-anchor="middle" x="1825.5" y="-14.3" font-family="Times,serif" font-size="14.00" fill="#000000">ウェルシア</text>
</g>
<!-- Edy&#45;&gt;ウェルシア -->
<g id="edge48" class="edge">
<title>Edy&#45;&gt;ウェルシア</title>
<path fill="none" stroke="#000000" stroke-width="2" d="M1964.1374,-246.7118C1909.5487,-237.539 1790.3035,-214.1973 1766.5,-182 1734.9424,-139.3142 1774.3455,-78.1139 1802.2716,-43.8214"/>
<polygon fill="#000000" stroke="#000000" stroke-width="2" points="1804.9872,-46.03 1808.7242,-36.1161 1799.6205,-41.5357 1804.9872,-46.03"/>
</g>
<!-- ヨドバシカメラ -->
<g id="node46" class="node">
<title>ヨドバシカメラ</title>
<polygon fill="none" stroke="#000000" points="2003.5,-36 1887.5,-36 1887.5,0 2003.5,0 2003.5,-36"/>
<text text-anchor="middle" x="1945.5" y="-14.3" font-family="Times,serif" font-size="14.00" fill="#000000">ヨドバシカメラ</text>
</g>
<!-- Edy&#45;&gt;ヨドバシカメラ -->
<g id="edge45" class="edge">
<title>Edy&#45;&gt;ヨドバシカメラ</title>
<path fill="none" stroke="#000000" stroke-width="2" d="M1988.364,-232.76C1984.7209,-211.7927 1978.4476,-176.36 1972.5,-146 1965.746,-111.5239 1957.2961,-71.9772 1951.6657,-46.0755"/>
<polygon fill="#000000" stroke="#000000" stroke-width="2" points="1955.0615,-45.2199 1949.5109,-36.1955 1948.2223,-46.7116 1955.0615,-45.2199"/>
</g>
<!-- Ponta&#45;&gt;じゃらん -->
<g id="edge52" class="edge">
<title>Ponta&#45;&gt;じゃらん</title>
<path fill="none" stroke="#000000" d="M2274.7143,-145.735C2274.6465,-127.2633 2273.7579,-97.9553 2269.5,-73 2267.9613,-63.9814 2265.4621,-54.3417 2262.8915,-45.692"/>
<polygon fill="#000000" stroke="#000000" points="2266.2149,-44.5924 2259.8943,-36.0893 2259.5328,-46.678 2266.2149,-44.5924"/>
</g>
<!-- Tポイント -->
<g id="node21" class="node">
<title>Tポイント</title>
<polygon fill="none" stroke="#000000" points="1476,-182 1393,-182 1393,-146 1476,-146 1476,-182"/>
<text text-anchor="middle" x="1434.5" y="-160.3" font-family="Times,serif" font-size="14.00" fill="#000000">Tポイント</text>
</g>
<!-- JREポイント&#45;&gt;Suica -->
<g id="edge28" class="edge">
<title>JREポイント&#45;&gt;Suica</title>
<path fill="none" stroke="#000000" d="M800.95,-182.0917C813.7569,-191.911 829.9316,-204.2137 844.5,-215 849.6902,-218.8428 855.2134,-222.8754 860.6237,-226.7945"/>
<polygon fill="#000000" stroke="#000000" points="858.8114,-229.8028 868.9687,-232.816 862.9074,-224.1263 858.8114,-229.8028"/>
</g>
<!-- ビックポイント&#45;&gt;ビックカメラ -->
<g id="edge22" class="edge">
<title>ビックポイント&#45;&gt;ビックカメラ</title>
<path fill="none" stroke="#000000" d="M611.1731,-145.9206C610.5981,-126.5439 612.1898,-95.5356 625.5,-73 632.7729,-60.6863 643.9725,-50.226 655.4326,-41.8403"/>
<polygon fill="#000000" stroke="#000000" points="657.516,-44.6553 663.771,-36.104 653.5486,-38.8882 657.516,-44.6553"/>
</g>
<!-- Amazonポイント -->
<g id="node26" class="node">
<title>Amazonポイント</title>
<polygon fill="none" stroke="#000000" points="2189,-182 2058,-182 2058,-146 2189,-146 2189,-182"/>
<text text-anchor="middle" x="2123.5" y="-160.3" font-family="Times,serif" font-size="14.00" fill="#000000">Amazonポイント</text>
</g>
<!-- Amazonポイント&#45;&gt;Amazon -->
<g id="edge55" class="edge">
<title>Amazonポイント&#45;&gt;Amazon</title>
<path fill="none" stroke="#000000" d="M2123.5921,-145.8042C2127.6006,-120.7775 2139.1152,-75.4988 2148.7311,-46.1017"/>
<polygon fill="#000000" stroke="#000000" points="2152.1161,-47.0197 2152.0378,-36.4251 2145.4921,-44.7561 2152.1161,-47.0197"/>
</g>
<!-- nanacoポイント&#45;&gt;nanaco -->
<g id="edge59" class="edge">
<title>nanacoポイント&#45;&gt;nanaco</title>
<path fill="none" stroke="#000000" d="M1580.9258,-182.3608C1587.7735,-187.8202 1595.093,-193.9613 1601.5,-200 1609.7852,-207.809 1618.2893,-216.8877 1625.6964,-225.2027"/>
<polygon fill="#000000" stroke="#000000" points="1623.196,-227.66 1632.419,-232.8743 1628.4607,-223.0466 1623.196,-227.66"/>
</g>
<!-- FRESCOポイント -->
<g id="node28" class="node">
<title>FRESCOポイント</title>
<polygon fill="none" stroke="#000000" points="2980,-182 2843,-182 2843,-146 2980,-146 2980,-182"/>
<text text-anchor="middle" x="2911.5" y="-160.3" font-family="Times,serif" font-size="14.00" fill="#000000">FRESCOポイント</text>
</g>
<!-- FRESCOポイント&#45;&gt;FRESCO -->
<g id="edge62" class="edge">
<title>FRESCOポイント&#45;&gt;FRESCO</title>
<path fill="none" stroke="#000000" d="M2902.6261,-145.8681C2897.8978,-135.3564 2892.4603,-121.721 2889.5,-109 2884.6891,-88.3265 2882.9963,-64.3718 2882.4757,-46.2305"/>
<polygon fill="#000000" stroke="#000000" points="2885.9715,-45.9628 2882.2877,-36.0291 2878.9727,-46.0919 2885.9715,-45.9628"/>
</g>
<!-- ヨドバシゴールドポイント -->
<g id="node29" class="node">
<title>ヨドバシゴールドポイント</title>
<polygon fill="none" stroke="#000000" points="1963.5,-182 1775.5,-182 1775.5,-146 1963.5,-146 1963.5,-182"/>
<text text-anchor="middle" x="1869.5" y="-160.3" font-family="Times,serif" font-size="14.00" fill="#000000">ヨドバシゴールドポイント</text>
</g>
<!-- ヨドバシゴールドポイント&#45;&gt;ヨドバシカメラ -->
<g id="edge47" class="edge">
<title>ヨドバシゴールドポイント&#45;&gt;ヨドバシカメラ</title>
<path fill="none" stroke="#000000" d="M1871.8586,-145.9357C1874.9281,-126.8466 1881.5119,-96.3348 1894.5,-73 1900.4759,-62.2636 1908.9753,-51.9696 1917.326,-43.2505"/>
<polygon fill="#000000" stroke="#000000" points="1919.9598,-45.5667 1924.5591,-36.0222 1915.0116,-40.6152 1919.9598,-45.5667"/>
</g>
<!-- 切符&#45;&gt;現金 -->
<g id="edge72" class="edge">
<title>切符&#45;&gt;現金</title>
<path fill="none" stroke="#000000" d="M958.3429,-109.1286C967.418,-136.7438 982.5491,-188.888 1017.5,-215 1046.001,-236.2932 1144.6468,-245.3673 1199.422,-248.9289"/>
<polygon fill="#000000" stroke="#000000" points="1199.2377,-252.4241 1209.4354,-249.5506 1199.6715,-245.4376 1199.2377,-252.4241"/>
</g>
<!-- 切符&#45;&gt;電車 -->
<g id="edge71" class="edge">
<title>切符&#45;&gt;電車</title>
<path fill="none" stroke="#000000" stroke-width="2" d="M946.7809,-72.9551C945.5645,-64.8828 944.1019,-55.1764 942.7466,-46.1817"/>
<polygon fill="#000000" stroke="#000000" stroke-width="2" points="946.177,-45.4572 941.2259,-36.0904 939.2551,-46.5003 946.177,-45.4572"/>
</g>
<!-- ぐるなびギフト券&#45;&gt;現金 -->
<g id="edge65" class="edge">
<title>ぐるなびギフト券&#45;&gt;現金</title>
<path fill="none" stroke="#000000" d="M1050.9299,-109.0829C1033.6491,-135.2501 1003.182,-183.9327 1029.5,-215 1040.5463,-228.0397 1142.6354,-240.5218 1199.3064,-246.7967"/>
<polygon fill="#000000" stroke="#000000" points="1199.0056,-250.2846 1209.3274,-247.8949 1199.7682,-243.3263 1199.0056,-250.2846"/>
</g>
<!-- 餃子の王将 -->
<g id="node47" class="node">
<title>餃子の王将</title>
<polygon fill="none" stroke="#000000" points="1104.5,-36 1016.5,-36 1016.5,0 1104.5,0 1104.5,-36"/>
<text text-anchor="middle" x="1060.5" y="-14.3" font-family="Times,serif" font-size="14.00" fill="#000000">餃子の王将</text>
</g>
<!-- ぐるなびギフト券&#45;&gt;餃子の王将 -->
<g id="edge64" class="edge">
<title>ぐるなびギフト券&#45;&gt;餃子の王将</title>
<path fill="none" stroke="#000000" stroke-width="2" d="M1060.5,-72.9551C1060.5,-64.8828 1060.5,-55.1764 1060.5,-46.1817"/>
<polygon fill="#000000" stroke="#000000" stroke-width="2" points="1064.0001,-46.0903 1060.5,-36.0904 1057.0001,-46.0904 1064.0001,-46.0903"/>
</g>
<!-- ファミリーマート&#45;&gt;Tポイント -->
<g id="edge44" class="edge">
<title>ファミリーマート&#45;&gt;Tポイント</title>
<path fill="none" stroke="#000000" d="M1631.9195,-34.2042C1601.942,-43.1752 1566.6899,-56.0006 1537.5,-73 1506.9663,-90.7821 1477.293,-118.4407 1457.7013,-138.6"/>
<polygon fill="#000000" stroke="#000000" points="1455.0826,-136.2744 1450.7055,-145.9228 1460.1441,-141.1099 1455.0826,-136.2744"/>
<text text-anchor="middle" x="1556" y="-87.3" font-family="Times,serif" font-size="14.00" fill="#000000">0.5%</text>
</g>
<!-- 大阪地下鉄&#45;&gt;三井住友VISAカード -->
<g id="edge15" class="edge">
<title>大阪地下鉄&#45;&gt;三井住友VISAカード</title>
<path fill="none" stroke="#000000" d="M245.6279,-36.4541C244.598,-67.0801 244.2524,-130.1683 255.5,-182 264.3038,-222.5703 270.4747,-232.1016 289.5,-269 294.4423,-278.5854 300.6414,-288.5886 306.4958,-297.3951"/>
<polygon fill="#000000" stroke="#000000" points="303.6568,-299.4443 312.1762,-305.7428 309.444,-295.5063 303.6568,-299.4443"/>
<text text-anchor="middle" x="271.5" y="-160.3" font-family="Times,serif" font-size="14.00" fill="#000000">10%</text>
</g>
<!-- ウェルシア&#45;&gt;Tポイント -->
<g id="edge49" class="edge">
<title>ウェルシア&#45;&gt;Tポイント</title>
<path fill="none" stroke="#000000" d="M1781.2712,-34.5151C1708.3439,-61.7463 1563.2565,-115.9221 1485.8884,-144.8115"/>
<polygon fill="#000000" stroke="#000000" points="1484.4877,-141.5984 1476.3438,-148.3754 1486.9364,-148.1562 1484.4877,-141.5984"/>
<text text-anchor="middle" x="1686" y="-87.3" font-family="Times,serif" font-size="14.00" fill="#000000">1%</text>
</g>
<!-- ビックカメラ&#45;&gt;ビックポイント -->
<g id="edge20" class="edge">
<title>ビックカメラ&#45;&gt;ビックポイント</title>
<path fill="none" stroke="#000000" stroke-dasharray="5,2" d="M678.3676,-36.1042C668.0774,-46.1799 655.9731,-59.4076 647.5,-73 635.1849,-92.7556 626.0003,-117.5488 620.137,-136.265"/>
<polygon fill="#000000" stroke="#000000" points="616.7475,-135.3829 617.2224,-145.9671 623.4515,-137.3969 616.7475,-135.3829"/>
<text text-anchor="middle" x="666" y="-87.3" font-family="Times,serif" font-size="14.00" fill="#000000">9.5%</text>
</g>
<!-- ヨドバシカメラ&#45;&gt;ヨドバシゴールドポイント -->
<g id="edge46" class="edge">
<title>ヨドバシカメラ&#45;&gt;ヨドバシゴールドポイント</title>
<path fill="none" stroke="#000000" d="M1935.9088,-36.4251C1922.7028,-61.7945 1898.8281,-107.6593 1883.5909,-136.9306"/>
<polygon fill="#000000" stroke="#000000" points="1880.4846,-135.3179 1878.9718,-145.8042 1886.6938,-138.5501 1880.4846,-135.3179"/>
<text text-anchor="middle" x="1931.5" y="-87.3" font-family="Times,serif" font-size="14.00" fill="#000000">10%</text>
</g>
<!-- FRESCO&#45;&gt;FRESCOポイント -->
<g id="edge61" class="edge">
<title>FRESCO&#45;&gt;FRESCOポイント</title>
<path fill="none" stroke="#000000" d="M2886.1598,-36.4251C2891.1335,-61.4651 2900.0731,-106.4714 2905.895,-135.7818"/>
<polygon fill="#000000" stroke="#000000" points="2902.5045,-136.6777 2907.8858,-145.8042 2909.3704,-135.3139 2902.5045,-136.6777"/>
<text text-anchor="middle" x="2918" y="-87.3" font-family="Times,serif" font-size="14.00" fill="#000000">0.5%</text>
</g>
<!-- 吉野家&#45;&gt;Tポイント -->
<g id="edge69" class="edge">
<title>吉野家&#45;&gt;Tポイント</title>
<path fill="none" stroke="#000000" d="M1447.607,-36.4251C1445.0344,-61.4651 1440.4105,-106.4714 1437.3991,-135.7818"/>
<polygon fill="#000000" stroke="#000000" points="1433.9099,-135.4988 1436.3694,-145.8042 1440.8732,-136.2143 1433.9099,-135.4988"/>
<text text-anchor="middle" x="1462" y="-87.3" font-family="Times,serif" font-size="14.00" fill="#000000">0.5%</text>
</g>
<!-- Amazon&#45;&gt;Amazonポイント -->
<g id="edge54" class="edge">
<title>Amazon&#45;&gt;Amazonポイント</title>
<path fill="none" stroke="#000000" d="M2161.3711,-36.4251C2157.3169,-61.5749 2145.7853,-106.8666 2136.1811,-136.1666"/>
<polygon fill="#000000" stroke="#000000" points="2132.8093,-135.2096 2132.8797,-145.8042 2139.4315,-137.4781 2132.8093,-135.2096"/>
</g>
<!-- じゃらん&#45;&gt;Ponta -->
<g id="edge53" class="edge">
<title>じゃらん&#45;&gt;Ponta</title>
<path fill="none" stroke="#000000" d="M2247.3232,-36.0746C2241.8985,-54.6481 2235.8274,-84.2632 2242.5,-109 2245.1478,-118.816 2250.0275,-128.6825 2255.1921,-137.2945"/>
<polygon fill="#000000" stroke="#000000" points="2252.2652,-139.2142 2260.5958,-145.7603 2258.1657,-135.448 2252.2652,-139.2142"/>
<text text-anchor="middle" x="2254" y="-87.3" font-family="Times,serif" font-size="14.00" fill="#000000">2%</text>
</g>
</g>
</svg>
