<?xml version="1.0" encoding="UTF-8" standalone="no"?>
<!DOCTYPE svg PUBLIC "-//W3C//DTD SVG 1.1//EN"
 "http://www.w3.org/Graphics/SVG/1.1/DTD/svg11.dtd">
<!-- Generated by graphviz version 2.42.4 (0)
 -->
<!-- Title: MoneyFlow Pages: 1 -->
<svg width="1075pt" height="1738pt"
 viewBox="0.00 0.00 1075.00 1738.00" xmlns="http://www.w3.org/2000/svg" xmlns:xlink="http://www.w3.org/1999/xlink">
<g id="graph0" class="graph" transform="scale(1 1) rotate(0) translate(4 1734)">
<title>MoneyFlow</title>
<polygon fill="white" stroke="transparent" points="-4,4 -4,-1734 1071,-1734 1071,4 -4,4"/>
<!-- 収入 -->
<g id="node1" class="node">
<title>収入</title>
<text text-anchor="middle" x="29.5" y="-14.3" font-family="Times,serif" font-size="14.00">収入</text>
</g>
<!-- 銀行口座 -->
<g id="node2" class="node">
<title>銀行口座</title>
<text text-anchor="middle" x="147" y="-14.3" font-family="Times,serif" font-size="14.00">銀行口座</text>
</g>
<!-- 収入&#45;&gt;銀行口座 -->
<g id="edge1" class="edge">
<title>収入&#45;&gt;銀行口座</title>
<path fill="none" stroke="black" d="M56.71,-18C72.42,-18 92.61,-18 109.83,-18"/>
</g>
<!-- クレジットカード -->
<g id="node3" class="node">
<title>クレジットカード</title>
<text text-anchor="middle" x="326.5" y="-14.3" font-family="Times,serif" font-size="14.00">クレジットカード</text>
</g>
<!-- 銀行口座&#45;&gt;クレジットカード -->
<g id="edge2" class="edge">
<title>銀行口座&#45;&gt;クレジットカード</title>
<path fill="none" stroke="black" d="M184.35,-18C206.66,-18 235.86,-18 261.91,-18"/>
</g>
<!-- マネー -->
<g id="node4" class="node">
<title>マネー</title>
<text text-anchor="middle" x="492" y="-14.3" font-family="Times,serif" font-size="14.00">マネー</text>
</g>
<!-- クレジットカード&#45;&gt;マネー -->
<g id="edge3" class="edge">
<title>クレジットカード&#45;&gt;マネー</title>
<path fill="none" stroke="black" d="M391.18,-18C415.75,-18 442.61,-18 462.27,-18"/>
</g>
<!-- ポイント -->
<g id="node5" class="node">
<title>ポイント</title>
<text text-anchor="middle" x="695.5" y="-14.3" font-family="Times,serif" font-size="14.00">ポイント</text>
</g>
<!-- マネー&#45;&gt;ポイント -->
<g id="edge4" class="edge">
<title>マネー&#45;&gt;ポイント</title>
<path fill="none" stroke="black" d="M521.87,-18C557.78,-18 619.11,-18 658.18,-18"/>
</g>
<!-- 金券 -->
<g id="node6" class="node">
<title>金券</title>
<text text-anchor="middle" x="870" y="-14.3" font-family="Times,serif" font-size="14.00">金券</text>
</g>
<!-- ポイント&#45;&gt;金券 -->
<g id="edge5" class="edge">
<title>ポイント&#45;&gt;金券</title>
<path fill="none" stroke="black" d="M732.66,-18C765.66,-18 813.62,-18 842.99,-18"/>
</g>
<!-- 支出 -->
<g id="node7" class="node">
<title>支出</title>
<text text-anchor="middle" x="1009" y="-14.3" font-family="Times,serif" font-size="14.00">支出</text>
</g>
<!-- 金券&#45;&gt;支出 -->
<g id="edge6" class="edge">
<title>金券&#45;&gt;支出</title>
<path fill="none" stroke="black" d="M897.09,-18C921.31,-18 957.2,-18 981.54,-18"/>
</g>
<!-- 給与 -->
<g id="node8" class="node">
<title>給与</title>
<polygon fill="none" stroke="black" points="56.5,-1633 2.5,-1633 2.5,-1597 56.5,-1597 56.5,-1633"/>
<text text-anchor="middle" x="29.5" y="-1611.3" font-family="Times,serif" font-size="14.00">給与</text>
</g>
<!-- 三井住友銀行 -->
<g id="node11" class="node">
<title>三井住友銀行</title>
<polygon fill="none" stroke="black" points="198,-1629 96,-1629 96,-1593 198,-1593 198,-1629"/>
<text text-anchor="middle" x="147" y="-1607.3" font-family="Times,serif" font-size="14.00">三井住友銀行</text>
</g>
<!-- 給与&#45;&gt;三井住友銀行 -->
<g id="edge7" class="edge">
<title>給与&#45;&gt;三井住友銀行</title>
<path fill="none" stroke="black" stroke-width="2" d="M56.71,-1614.09C65.39,-1613.79 75.45,-1613.44 85.62,-1613.09"/>
<polygon fill="black" stroke="black" stroke-width="2" points="85.91,-1616.58 95.78,-1612.74 85.66,-1609.59 85.91,-1616.58"/>
</g>
<!-- 譲渡 -->
<g id="node9" class="node">
<title>譲渡</title>
<polygon fill="none" stroke="black" points="56.5,-1579 2.5,-1579 2.5,-1543 56.5,-1543 56.5,-1579"/>
<text text-anchor="middle" x="29.5" y="-1557.3" font-family="Times,serif" font-size="14.00">譲渡</text>
</g>
<!-- メルペイ -->
<g id="node21" class="node">
<title>メルペイ</title>
<polygon fill="none" stroke="black" points="529,-1616 455,-1616 455,-1580 529,-1580 529,-1616"/>
<text text-anchor="middle" x="492" y="-1594.3" font-family="Times,serif" font-size="14.00">メルペイ</text>
</g>
<!-- 譲渡&#45;&gt;メルペイ -->
<g id="edge66" class="edge">
<title>譲渡&#45;&gt;メルペイ</title>
<path fill="none" stroke="black" stroke-width="2" d="M56.58,-1563.1C131.66,-1569.13 349.07,-1586.6 444.81,-1594.29"/>
<polygon fill="black" stroke="black" stroke-width="2" points="444.53,-1597.78 454.78,-1595.09 445.09,-1590.8 444.53,-1597.78"/>
</g>
<!-- 雑収入 -->
<g id="node10" class="node">
<title>雑収入</title>
<polygon fill="none" stroke="black" points="59,-439 0,-439 0,-403 59,-403 59,-439"/>
<text text-anchor="middle" x="29.5" y="-417.3" font-family="Times,serif" font-size="14.00">雑収入</text>
</g>
<!-- 楽天ポイント -->
<g id="node23" class="node">
<title>楽天ポイント</title>
<polygon fill="none" stroke="black" points="746.5,-633 644.5,-633 644.5,-597 746.5,-597 746.5,-633"/>
<text text-anchor="middle" x="695.5" y="-611.3" font-family="Times,serif" font-size="14.00">楽天ポイント</text>
</g>
<!-- 雑収入&#45;&gt;楽天ポイント -->
<g id="edge70" class="edge">
<title>雑収入&#45;&gt;楽天ポイント</title>
<path fill="none" stroke="black" stroke-width="2" d="M59.45,-421C82.82,-421 116.52,-421 146,-421 146,-421 146,-421 437,-421 530.09,-421 527.23,-494.56 602,-550 620.83,-563.96 642.23,-579.05 659.7,-591.17"/>
<polygon fill="black" stroke="black" stroke-width="2" points="657.71,-594.05 667.93,-596.86 661.7,-588.29 657.71,-594.05"/>
</g>
<!-- 住信SBI銀行 -->
<g id="node12" class="node">
<title>住信SBI銀行</title>
<polygon fill="none" stroke="black" points="196.5,-783 97.5,-783 97.5,-747 196.5,-747 196.5,-783"/>
<text text-anchor="middle" x="147" y="-761.3" font-family="Times,serif" font-size="14.00">住信SBI銀行</text>
</g>
<!-- 三井住友銀行&#45;&gt;住信SBI銀行 -->
<g id="edge9" class="edge">
<title>三井住友銀行&#45;&gt;住信SBI銀行</title>
<path fill="none" stroke="black" stroke-width="2" d="M147,-1592.81C147,-1326.36 147,-1059.91 147,-793.45"/>
<polygon fill="black" stroke="black" stroke-width="2" points="150.5,-793.18 147,-783.18 143.5,-793.18 150.5,-793.18"/>
</g>
<!-- 現金 -->
<g id="node17" class="node">
<title>現金</title>
<polygon fill="none" stroke="black" points="519,-1676 465,-1676 465,-1640 519,-1640 519,-1676"/>
<text text-anchor="middle" x="492" y="-1654.3" font-family="Times,serif" font-size="14.00">現金</text>
</g>
<!-- 三井住友銀行&#45;&gt;現金 -->
<g id="edge8" class="edge">
<title>三井住友銀行&#45;&gt;現金</title>
<path fill="none" stroke="black" stroke-width="2" d="M171.8,-1629.05C184.27,-1637.41 200.2,-1646.48 216,-1651 298.87,-1674.7 401.56,-1668.46 454.95,-1662.72"/>
<polygon fill="black" stroke="black" stroke-width="2" points="455.41,-1666.19 464.95,-1661.59 454.62,-1659.24 455.41,-1666.19"/>
</g>
<!-- ビックカメラSuicaカード -->
<g id="node13" class="node">
<title>ビックカメラSuicaカード</title>
<polygon fill="none" stroke="black" points="418,-355 235,-355 235,-319 418,-319 418,-355"/>
<text text-anchor="middle" x="326.5" y="-333.3" font-family="Times,serif" font-size="14.00">ビックカメラSuicaカード</text>
</g>
<!-- 住信SBI銀行&#45;&gt;ビックカメラSuicaカード -->
<g id="edge23" class="edge">
<title>住信SBI銀行&#45;&gt;ビックカメラSuicaカード</title>
<path fill="none" stroke="black" stroke-width="2" d="M148.28,-746.77C149.79,-695.81 159.14,-548.88 216,-445 234.55,-411.12 267.09,-381.05 291.9,-361.29"/>
<polygon fill="black" stroke="black" stroke-width="2" points="294.24,-363.91 299.98,-355 289.94,-358.38 294.24,-363.91"/>
</g>
<!-- リクルートカード -->
<g id="node14" class="node">
<title>リクルートカード</title>
<polygon fill="none" stroke="black" points="390.5,-1031 262.5,-1031 262.5,-995 390.5,-995 390.5,-1031"/>
<text text-anchor="middle" x="326.5" y="-1009.3" font-family="Times,serif" font-size="14.00">リクルートカード</text>
</g>
<!-- 住信SBI銀行&#45;&gt;リクルートカード -->
<g id="edge24" class="edge">
<title>住信SBI銀行&#45;&gt;リクルートカード</title>
<path fill="none" stroke="black" stroke-width="2" d="M161.05,-783.24C192.08,-826.59 270.37,-935.97 306.58,-986.57"/>
<polygon fill="black" stroke="black" stroke-width="2" points="303.76,-988.64 312.43,-994.74 309.45,-984.57 303.76,-988.64"/>
</g>
<!-- PiTaPa -->
<g id="node15" class="node">
<title>PiTaPa</title>
<polygon fill="none" stroke="black" points="359,-737 294,-737 294,-701 359,-701 359,-737"/>
<text text-anchor="middle" x="326.5" y="-715.3" font-family="Times,serif" font-size="14.00">PiTaPa</text>
</g>
<!-- 住信SBI銀行&#45;&gt;PiTaPa -->
<g id="edge25" class="edge">
<title>住信SBI銀行&#45;&gt;PiTaPa</title>
<path fill="none" stroke="black" stroke-width="2" d="M196.5,-752.43C223.87,-745.34 257.71,-736.57 283.87,-729.79"/>
<polygon fill="black" stroke="black" stroke-width="2" points="285.04,-733.1 293.84,-727.2 283.29,-726.32 285.04,-733.1"/>
</g>
<!-- 住信SBI銀行&#45;&gt;現金 -->
<g id="edge21" class="edge">
<title>住信SBI銀行&#45;&gt;現金</title>
<path fill="none" stroke="black" stroke-width="2" d="M148.69,-783.3C151.73,-850.97 167.04,-1092.57 235,-1277 295.3,-1440.64 321.41,-1482.54 436,-1614 442.2,-1621.11 449.65,-1627.93 457.04,-1633.98"/>
<polygon fill="black" stroke="black" stroke-width="2" points="454.95,-1636.8 464.97,-1640.24 459.29,-1631.3 454.95,-1636.8"/>
</g>
<!-- PayPay -->
<g id="node20" class="node">
<title>PayPay</title>
<polygon fill="none" stroke="black" points="526,-1562 458,-1562 458,-1526 526,-1526 526,-1562"/>
<text text-anchor="middle" x="492" y="-1540.3" font-family="Times,serif" font-size="14.00">PayPay</text>
</g>
<!-- 住信SBI銀行&#45;&gt;PayPay -->
<g id="edge26" class="edge">
<title>住信SBI銀行&#45;&gt;PayPay</title>
<path fill="none" stroke="black" stroke-width="2" d="M153.09,-783.23C165.64,-827.62 199.6,-944.71 235,-1040 313.96,-1252.59 289.13,-1336.2 436,-1509 439.9,-1513.59 444.55,-1517.78 449.47,-1521.54"/>
<polygon fill="black" stroke="black" stroke-width="2" points="447.73,-1524.59 457.93,-1527.46 451.75,-1518.86 447.73,-1524.59"/>
</g>
<!-- 株主優待券 -->
<g id="node30" class="node">
<title>株主優待券</title>
<polygon fill="none" stroke="black" points="914,-447 826,-447 826,-411 914,-411 914,-447"/>
<text text-anchor="middle" x="870" y="-425.3" font-family="Times,serif" font-size="14.00">株主優待券</text>
</g>
<!-- 住信SBI銀行&#45;&gt;株主優待券 -->
<g id="edge28" class="edge">
<title>住信SBI銀行&#45;&gt;株主優待券</title>
<path fill="none" stroke="black" stroke-width="2" d="M159.07,-746.67C194.19,-696.68 308.39,-559 436,-492 560.52,-426.62 730.54,-418.09 815.74,-421.79"/>
<polygon fill="black" stroke="black" stroke-width="2" points="815.78,-425.3 825.95,-422.31 816.14,-418.3 815.78,-425.3"/>
</g>
<!-- 家賃 -->
<g id="node31" class="node">
<title>家賃</title>
<polygon fill="none" stroke="black" points="1036,-790 982,-790 982,-754 1036,-754 1036,-790"/>
<text text-anchor="middle" x="1009" y="-768.3" font-family="Times,serif" font-size="14.00">家賃</text>
</g>
<!-- 住信SBI銀行&#45;&gt;家賃 -->
<g id="edge22" class="edge">
<title>住信SBI銀行&#45;&gt;家賃</title>
<path fill="none" stroke="black" stroke-width="2" d="M196.59,-765C232.27,-765 281.9,-765 325.5,-765 325.5,-765 325.5,-765 566.5,-765 716.83,-765 895.92,-769.11 971.49,-771.03"/>
<polygon fill="black" stroke="black" stroke-width="2" points="971.79,-774.54 981.88,-771.3 971.97,-767.54 971.79,-774.54"/>
</g>
<!-- Suica -->
<g id="node16" class="node">
<title>Suica</title>
<polygon fill="none" stroke="black" points="520,-355 464,-355 464,-319 520,-319 520,-355"/>
<text text-anchor="middle" x="492" y="-333.3" font-family="Times,serif" font-size="14.00">Suica</text>
</g>
<!-- ビックカメラSuicaカード&#45;&gt;Suica -->
<g id="edge15" class="edge">
<title>ビックカメラSuicaカード&#45;&gt;Suica</title>
<path fill="none" stroke="black" stroke-width="2" d="M418.33,-337C430.79,-337 442.97,-337 453.68,-337"/>
<polygon fill="black" stroke="black" stroke-width="2" points="453.86,-340.5 463.86,-337 453.86,-333.5 453.86,-340.5"/>
</g>
<!-- JREポイント -->
<g id="node24" class="node">
<title>JREポイント</title>
<polygon fill="none" stroke="black" points="745.5,-263 645.5,-263 645.5,-227 745.5,-227 745.5,-263"/>
<text text-anchor="middle" x="695.5" y="-241.3" font-family="Times,serif" font-size="14.00">JREポイント</text>
</g>
<!-- ビックカメラSuicaカード&#45;&gt;JREポイント -->
<g id="edge10" class="edge">
<title>ビックカメラSuicaカード&#45;&gt;JREポイント</title>
<path fill="none" stroke="black" d="M370.39,-318.91C414.04,-301.28 484.04,-275.12 547,-261 575.64,-254.58 608,-250.7 635.1,-248.38"/>
<polygon fill="black" stroke="black" points="635.53,-251.85 645.22,-247.56 634.97,-244.88 635.53,-251.85"/>
<text text-anchor="middle" x="492" y="-291.8" font-family="Times,serif" font-size="14.00">0.5%</text>
</g>
<!-- ビックポイント -->
<g id="node25" class="node">
<title>ビックポイント</title>
<polygon fill="none" stroke="black" points="753.5,-141 637.5,-141 637.5,-105 753.5,-105 753.5,-141"/>
<text text-anchor="middle" x="695.5" y="-119.3" font-family="Times,serif" font-size="14.00">ビックポイント</text>
</g>
<!-- ビックカメラSuicaカード&#45;&gt;ビックポイント -->
<g id="edge13" class="edge">
<title>ビックカメラSuicaカード&#45;&gt;ビックポイント</title>
<path fill="none" stroke="black" d="M351.28,-318.73C376.4,-299.78 417.49,-269.8 455,-247 519.27,-207.93 597.19,-169.06 646.32,-145.53"/>
<polygon fill="black" stroke="black" points="647.93,-148.64 655.45,-141.18 644.92,-142.32 647.93,-148.64"/>
<text text-anchor="middle" x="492" y="-250.8" font-family="Times,serif" font-size="14.00">0.5%</text>
</g>
<!-- ビックカメラ -->
<g id="node41" class="node">
<title>ビックカメラ</title>
<polygon fill="none" stroke="black" points="1059.5,-90 958.5,-90 958.5,-54 1059.5,-54 1059.5,-90"/>
<text text-anchor="middle" x="1009" y="-68.3" font-family="Times,serif" font-size="14.00">ビックカメラ</text>
</g>
<!-- ビックカメラSuicaカード&#45;&gt;ビックカメラ -->
<g id="edge11" class="edge">
<title>ビックカメラSuicaカード&#45;&gt;ビックカメラ</title>
<path fill="none" stroke="black" stroke-width="2" stroke-dasharray="5,2" d="M329.79,-318.79C338.45,-258.91 374.77,-72 491,-72 491,-72 491,-72 871,-72 896.29,-72 924.2,-72 948.19,-72"/>
<polygon fill="black" stroke="black" stroke-width="2" points="948.22,-75.5 958.22,-72 948.22,-68.5 948.22,-75.5"/>
</g>
<!-- EX予約 -->
<g id="node51" class="node">
<title>EX予約</title>
<polygon fill="none" stroke="black" points="1041.5,-417 976.5,-417 976.5,-381 1041.5,-381 1041.5,-417"/>
<text text-anchor="middle" x="1009" y="-395.3" font-family="Times,serif" font-size="14.00">EX予約</text>
</g>
<!-- ビックカメラSuicaカード&#45;&gt;EX予約 -->
<g id="edge18" class="edge">
<title>ビックカメラSuicaカード&#45;&gt;EX予約</title>
<path fill="none" stroke="black" stroke-width="2" stroke-dasharray="5,2" d="M367.94,-355.05C400.5,-367.94 447.8,-383 491,-383 491,-383 491,-383 871,-383 903.17,-383 939.3,-387.41 966.38,-391.59"/>
<polygon fill="black" stroke="black" stroke-width="2" points="965.86,-395.05 976.29,-393.18 966.97,-388.14 965.86,-395.05"/>
</g>
<!-- nanaco -->
<g id="node18" class="node">
<title>nanaco</title>
<polygon fill="none" stroke="black" points="525.5,-1310 458.5,-1310 458.5,-1274 525.5,-1274 525.5,-1310"/>
<text text-anchor="middle" x="492" y="-1288.3" font-family="Times,serif" font-size="14.00">nanaco</text>
</g>
<!-- リクルートカード&#45;&gt;nanaco -->
<g id="edge55" class="edge">
<title>リクルートカード&#45;&gt;nanaco</title>
<path fill="none" stroke="black" stroke-width="2" d="M338.23,-1031.31C366.36,-1079.31 442.35,-1208.98 475.35,-1265.29"/>
<polygon fill="black" stroke="black" stroke-width="2" points="472.37,-1267.13 480.45,-1273.99 478.41,-1263.59 472.37,-1267.13"/>
</g>
<!-- Edy -->
<g id="node19" class="node">
<title>Edy</title>
<polygon fill="none" stroke="black" points="519,-1170 465,-1170 465,-1134 519,-1134 519,-1170"/>
<text text-anchor="middle" x="492" y="-1148.3" font-family="Times,serif" font-size="14.00">Edy</text>
</g>
<!-- リクルートカード&#45;&gt;Edy -->
<g id="edge44" class="edge">
<title>リクルートカード&#45;&gt;Edy</title>
<path fill="none" stroke="black" stroke-width="2" d="M345.11,-1031.27C365.93,-1052.45 402.05,-1087.91 436,-1115 442.39,-1120.1 449.47,-1125.21 456.36,-1129.95"/>
<polygon fill="black" stroke="black" stroke-width="2" points="454.67,-1133.03 464.92,-1135.7 458.58,-1127.22 454.67,-1133.03"/>
</g>
<!-- Ponta -->
<g id="node22" class="node">
<title>Ponta</title>
<polygon fill="none" stroke="black" points="724,-1112 667,-1112 667,-1076 724,-1076 724,-1112"/>
<text text-anchor="middle" x="695.5" y="-1090.3" font-family="Times,serif" font-size="14.00">Ponta</text>
</g>
<!-- リクルートカード&#45;&gt;Ponta -->
<g id="edge50" class="edge">
<title>リクルートカード&#45;&gt;Ponta</title>
<path fill="none" stroke="black" d="M390.59,-1026.92C467.27,-1043.85 594.19,-1071.86 656.96,-1085.71"/>
<polygon fill="black" stroke="black" points="656.31,-1089.15 666.82,-1087.89 657.81,-1082.32 656.31,-1089.15"/>
<text text-anchor="middle" x="492" y="-1059.8" font-family="Times,serif" font-size="14.00">1.2%</text>
</g>
<!-- ASAHIネット -->
<g id="node34" class="node">
<title>ASAHIネット</title>
<polygon fill="none" stroke="black" points="1062,-993 956,-993 956,-957 1062,-957 1062,-993"/>
<text text-anchor="middle" x="1009" y="-971.3" font-family="Times,serif" font-size="14.00">ASAHIネット</text>
</g>
<!-- リクルートカード&#45;&gt;ASAHIネット -->
<g id="edge31" class="edge">
<title>リクルートカード&#45;&gt;ASAHIネット</title>
<path fill="none" stroke="black" stroke-width="2" d="M390.88,-1008.76C434.72,-1005.88 494.39,-1002.05 547,-999 689.57,-990.74 857.03,-982.35 945.64,-978.01"/>
<polygon fill="black" stroke="black" stroke-width="2" points="945.97,-981.5 955.79,-977.52 945.63,-974.51 945.97,-981.5"/>
</g>
<!-- 楽天モバイル -->
<g id="node35" class="node">
<title>楽天モバイル</title>
<polygon fill="none" stroke="black" points="1060,-682 958,-682 958,-646 1060,-646 1060,-682"/>
<text text-anchor="middle" x="1009" y="-660.3" font-family="Times,serif" font-size="14.00">楽天モバイル</text>
</g>
<!-- リクルートカード&#45;&gt;楽天モバイル -->
<g id="edge40" class="edge">
<title>リクルートカード&#45;&gt;楽天モバイル</title>
<path fill="none" stroke="black" stroke-width="2" d="M349.46,-994.98C394.57,-958.62 501.83,-875.37 602,-822 719.31,-759.5 866.88,-708.35 947.89,-682.43"/>
<polygon fill="black" stroke="black" stroke-width="2" points="949.44,-685.6 957.91,-679.24 947.32,-678.93 949.44,-685.6"/>
</g>
<!-- 楽天でんき -->
<g id="node36" class="node">
<title>楽天でんき</title>
<polygon fill="none" stroke="black" points="1053,-736 965,-736 965,-700 1053,-700 1053,-736"/>
<text text-anchor="middle" x="1009" y="-714.3" font-family="Times,serif" font-size="14.00">楽天でんき</text>
</g>
<!-- リクルートカード&#45;&gt;楽天でんき -->
<g id="edge38" class="edge">
<title>リクルートカード&#45;&gt;楽天でんき</title>
<path fill="none" stroke="black" stroke-width="2" d="M390.55,-1002.39C482.27,-985.21 656.04,-945.94 789,-876 809.49,-865.22 931.4,-757.32 951,-745 953.19,-743.62 955.46,-742.27 957.78,-740.95"/>
<polygon fill="black" stroke="black" stroke-width="2" points="959.76,-743.86 966.89,-736.02 956.43,-737.7 959.76,-743.86"/>
</g>
<!-- 関西電力 -->
<g id="node37" class="node">
<title>関西電力</title>
<polygon fill="none" stroke="black" points="1046,-309 972,-309 972,-273 1046,-273 1046,-309"/>
<text text-anchor="middle" x="1009" y="-287.3" font-family="Times,serif" font-size="14.00">関西電力</text>
</g>
<!-- リクルートカード&#45;&gt;関西電力 -->
<g id="edge35" class="edge">
<title>リクルートカード&#45;&gt;関西電力</title>
<path fill="none" stroke="black" stroke-width="2" d="M334.56,-994.79C350.97,-951.95 392.24,-841.2 418,-746 439.44,-666.74 404.22,-629.52 455,-565 499.64,-508.29 532.7,-516.17 602,-496 669.12,-476.47 861.36,-502 914,-456 961.82,-414.22 910.33,-366.76 951,-318 954.38,-313.95 958.5,-310.47 962.97,-307.49"/>
<polygon fill="black" stroke="black" stroke-width="2" points="964.97,-310.38 971.88,-302.35 961.47,-304.31 964.97,-310.38"/>
</g>
<!-- 楽天損保 -->
<g id="node38" class="node">
<title>楽天損保</title>
<polygon fill="none" stroke="black" points="1046,-1494 972,-1494 972,-1458 1046,-1458 1046,-1494"/>
<text text-anchor="middle" x="1009" y="-1472.3" font-family="Times,serif" font-size="14.00">楽天損保</text>
</g>
<!-- リクルートカード&#45;&gt;楽天損保 -->
<g id="edge39" class="edge">
<title>リクルートカード&#45;&gt;楽天損保</title>
<path fill="none" stroke="black" stroke-width="2" d="M390.7,-1018.4C401.14,-1022.03 410.87,-1027.6 418,-1036 433.15,-1053.86 433.63,-1222.7 436,-1246 443.3,-1317.68 429.82,-1339.49 455,-1407 464.95,-1433.68 462.52,-1460 491,-1460 491,-1460 491,-1460 871,-1460 901.34,-1460 935.2,-1463.92 961.67,-1467.88"/>
<polygon fill="black" stroke="black" stroke-width="2" points="961.37,-1471.37 971.79,-1469.45 962.44,-1464.46 961.37,-1471.37"/>
</g>
<!-- 郵便局 -->
<g id="node39" class="node">
<title>郵便局</title>
<polygon fill="none" stroke="black" points="1038.5,-1440 979.5,-1440 979.5,-1404 1038.5,-1404 1038.5,-1440"/>
<text text-anchor="middle" x="1009" y="-1418.3" font-family="Times,serif" font-size="14.00">郵便局</text>
</g>
<!-- リクルートカード&#45;&gt;郵便局 -->
<g id="edge61" class="edge">
<title>リクルートカード&#45;&gt;郵便局</title>
<path fill="none" stroke="black" stroke-width="2" d="M390.64,-1018.44C401.09,-1022.07 410.84,-1027.62 418,-1036 445.99,-1068.74 431.02,-1186.21 436,-1229 443.06,-1289.62 434.01,-1307.69 455,-1365 465.3,-1393.14 461.04,-1422 491,-1422 491,-1422 491,-1422 871,-1422 904.07,-1422 941.63,-1422 969.05,-1422"/>
<polygon fill="black" stroke="black" stroke-width="2" points="969.4,-1425.5 979.4,-1422 969.4,-1418.5 969.4,-1425.5"/>
</g>
<!-- アイハート -->
<g id="node40" class="node">
<title>アイハート</title>
<polygon fill="none" stroke="black" points="1052,-1386 966,-1386 966,-1350 1052,-1350 1052,-1386"/>
<text text-anchor="middle" x="1009" y="-1364.3" font-family="Times,serif" font-size="14.00">アイハート</text>
</g>
<!-- リクルートカード&#45;&gt;アイハート -->
<g id="edge34" class="edge">
<title>リクルートカード&#45;&gt;アイハート</title>
<path fill="none" stroke="black" stroke-width="2" d="M390.59,-1018.49C401.04,-1022.12 410.8,-1027.65 418,-1036 443.82,-1065.94 430.51,-1173.85 436,-1213 442.65,-1260.4 438.97,-1273.9 455,-1319 466.06,-1350.12 457.98,-1384 491,-1384 491,-1384 491,-1384 871,-1384 899.1,-1384 930.22,-1380.64 955.69,-1377"/>
<polygon fill="black" stroke="black" stroke-width="2" points="956.5,-1380.42 965.87,-1375.48 955.47,-1373.49 956.5,-1380.42"/>
</g>
<!-- Amazon -->
<g id="node50" class="node">
<title>Amazon</title>
<polygon fill="none" stroke="black" points="1045.5,-587 972.5,-587 972.5,-551 1045.5,-551 1045.5,-587"/>
<text text-anchor="middle" x="1009" y="-565.3" font-family="Times,serif" font-size="14.00">Amazon</text>
</g>
<!-- リクルートカード&#45;&gt;Amazon -->
<g id="edge32" class="edge">
<title>リクルートカード&#45;&gt;Amazon</title>
<path fill="none" stroke="black" stroke-width="2" d="M333.7,-994.77C362.16,-911.22 479.46,-569 491,-569 491,-569 491,-569 871,-569 901.34,-569 935.46,-569 962.06,-569"/>
<polygon fill="black" stroke="black" stroke-width="2" points="962.23,-572.5 972.23,-569 962.23,-565.5 962.23,-572.5"/>
</g>
<!-- じゃらん -->
<g id="node52" class="node">
<title>じゃらん</title>
<polygon fill="none" stroke="black" points="1046,-1047 972,-1047 972,-1011 1046,-1011 1046,-1047"/>
<text text-anchor="middle" x="1009" y="-1025.3" font-family="Times,serif" font-size="14.00">じゃらん</text>
</g>
<!-- リクルートカード&#45;&gt;じゃらん -->
<g id="edge33" class="edge">
<title>リクルートカード&#45;&gt;じゃらん</title>
<path fill="none" stroke="black" stroke-width="2" d="M390.78,-1013C421.1,-1013 457.93,-1013 491,-1013 491,-1013 491,-1013 871,-1013 901.34,-1013 935.2,-1016.92 961.67,-1020.88"/>
<polygon fill="black" stroke="black" stroke-width="2" points="961.37,-1024.37 971.79,-1022.45 962.44,-1017.46 961.37,-1024.37"/>
</g>
<!-- メルカリ -->
<g id="node53" class="node">
<title>メルカリ</title>
<polygon fill="none" stroke="black" points="1046,-1553 972,-1553 972,-1517 1046,-1517 1046,-1553"/>
<text text-anchor="middle" x="1009" y="-1531.3" font-family="Times,serif" font-size="14.00">メルカリ</text>
</g>
<!-- リクルートカード&#45;&gt;メルカリ -->
<g id="edge69" class="edge">
<title>リクルートカード&#45;&gt;メルカリ</title>
<path fill="none" stroke="black" stroke-width="2" d="M390.74,-1018.36C401.18,-1022 410.9,-1027.57 418,-1036 434.38,-1055.43 433.69,-1238.69 436,-1264 443.44,-1345.43 426.27,-1370.44 455,-1447 464.75,-1472.98 463.26,-1498 491,-1498 491,-1498 491,-1498 871,-1498 902.13,-1498 935.91,-1507.01 962.13,-1516.14"/>
<polygon fill="black" stroke="black" stroke-width="2" points="961.2,-1519.53 971.79,-1519.63 963.57,-1512.94 961.2,-1519.53"/>
</g>
<!-- Suica&#45;&gt;JREポイント -->
<g id="edge19" class="edge">
<title>Suica&#45;&gt;JREポイント</title>
<path fill="none" stroke="black" d="M505.61,-318.91C515.45,-306.14 530.23,-289.66 547,-280 573.81,-264.55 607.1,-255.91 635.27,-251.08"/>
<polygon fill="black" stroke="black" points="636.07,-254.5 645.39,-249.47 634.97,-247.59 636.07,-254.5"/>
<text text-anchor="middle" x="565.5" y="-283.8" font-family="Times,serif" font-size="14.00">1.5%</text>
</g>
<!-- 電車 -->
<g id="node33" class="node">
<title>電車</title>
<polygon fill="none" stroke="black" points="1036,-363 982,-363 982,-327 1036,-327 1036,-363"/>
<text text-anchor="middle" x="1009" y="-341.3" font-family="Times,serif" font-size="14.00">電車</text>
</g>
<!-- Suica&#45;&gt;電車 -->
<g id="edge16" class="edge">
<title>Suica&#45;&gt;電車</title>
<path fill="none" stroke="black" stroke-width="2" d="M520.33,-337.42C606.71,-338.77 873.97,-342.92 971.71,-344.44"/>
<polygon fill="black" stroke="black" stroke-width="2" points="971.92,-347.94 981.97,-344.6 972.03,-340.94 971.92,-347.94"/>
</g>
<!-- 松屋 -->
<g id="node46" class="node">
<title>松屋</title>
<polygon fill="none" stroke="black" points="1036,-217 982,-217 982,-181 1036,-181 1036,-217"/>
<text text-anchor="middle" x="1009" y="-195.3" font-family="Times,serif" font-size="14.00">松屋</text>
</g>
<!-- Suica&#45;&gt;松屋 -->
<g id="edge17" class="edge">
<title>Suica&#45;&gt;松屋</title>
<path fill="none" stroke="black" stroke-width="2" d="M518.24,-318.82C522.18,-315.21 525.96,-311.22 529,-307 541.84,-289.19 533.89,-278.61 547,-261 565.53,-236.11 572.91,-228.79 602,-218 730.95,-170.17 898.9,-184.16 971.71,-193.56"/>
<polygon fill="black" stroke="black" stroke-width="2" points="971.37,-197.05 981.74,-194.91 972.3,-190.11 971.37,-197.05"/>
</g>
<!-- 飲食店 -->
<g id="node44" class="node">
<title>飲食店</title>
<polygon fill="none" stroke="black" points="1038.5,-1615 979.5,-1615 979.5,-1579 1038.5,-1579 1038.5,-1615"/>
<text text-anchor="middle" x="1009" y="-1593.3" font-family="Times,serif" font-size="14.00">飲食店</text>
</g>
<!-- 現金&#45;&gt;飲食店 -->
<g id="edge63" class="edge">
<title>現金&#45;&gt;飲食店</title>
<path fill="none" stroke="black" stroke-width="2" d="M519.25,-1654.89C603.78,-1644.88 869.23,-1613.44 969.31,-1601.58"/>
<polygon fill="black" stroke="black" stroke-width="2" points="969.78,-1605.05 979.3,-1600.4 968.96,-1598.1 969.78,-1605.05"/>
</g>
<!-- 理髪店 -->
<g id="node48" class="node">
<title>理髪店</title>
<polygon fill="none" stroke="black" points="1038.5,-1676 979.5,-1676 979.5,-1640 1038.5,-1640 1038.5,-1676"/>
<text text-anchor="middle" x="1009" y="-1654.3" font-family="Times,serif" font-size="14.00">理髪店</text>
</g>
<!-- 現金&#45;&gt;理髪店 -->
<g id="edge64" class="edge">
<title>現金&#45;&gt;理髪店</title>
<path fill="none" stroke="black" stroke-width="2" d="M519.25,-1658C603.69,-1658 868.7,-1658 969.01,-1658"/>
<polygon fill="black" stroke="black" stroke-width="2" points="969.3,-1661.5 979.3,-1658 969.3,-1654.5 969.3,-1661.5"/>
</g>
<!-- クリーニング -->
<g id="node49" class="node">
<title>クリーニング</title>
<polygon fill="none" stroke="black" points="1059.5,-1730 958.5,-1730 958.5,-1694 1059.5,-1694 1059.5,-1730"/>
<text text-anchor="middle" x="1009" y="-1708.3" font-family="Times,serif" font-size="14.00">クリーニング</text>
</g>
<!-- 現金&#45;&gt;クリーニング -->
<g id="edge65" class="edge">
<title>現金&#45;&gt;クリーニング</title>
<path fill="none" stroke="black" stroke-width="2" d="M519.18,-1665.73C527.95,-1668.06 537.84,-1670.43 547,-1672 689.61,-1696.5 859.75,-1706.32 948.09,-1710"/>
<polygon fill="black" stroke="black" stroke-width="2" points="948.06,-1713.5 958.19,-1710.4 948.34,-1706.5 948.06,-1713.5"/>
</g>
<!-- nanacoポイント -->
<g id="node27" class="node">
<title>nanacoポイント</title>
<polygon fill="none" stroke="black" points="757.5,-1356 633.5,-1356 633.5,-1320 757.5,-1320 757.5,-1356"/>
<text text-anchor="middle" x="695.5" y="-1334.3" font-family="Times,serif" font-size="14.00">nanacoポイント</text>
</g>
<!-- nanaco&#45;&gt;nanacoポイント -->
<g id="edge57" class="edge">
<title>nanaco&#45;&gt;nanacoポイント</title>
<path fill="none" stroke="black" d="M525.82,-1299.49C552.1,-1305.49 589.91,-1314.12 623.08,-1321.7"/>
<polygon fill="black" stroke="black" points="622.68,-1325.19 633.21,-1324.01 624.24,-1318.37 622.68,-1325.19"/>
<text text-anchor="middle" x="565.5" y="-1315.8" font-family="Times,serif" font-size="14.00">1%</text>
</g>
<!-- セブンイレブン -->
<g id="node32" class="node">
<title>セブンイレブン</title>
<polygon fill="none" stroke="black" points="1066,-1307 952,-1307 952,-1271 1066,-1271 1066,-1307"/>
<text text-anchor="middle" x="1009" y="-1285.3" font-family="Times,serif" font-size="14.00">セブンイレブン</text>
</g>
<!-- nanaco&#45;&gt;セブンイレブン -->
<g id="edge56" class="edge">
<title>nanaco&#45;&gt;セブンイレブン</title>
<path fill="none" stroke="black" stroke-width="2" d="M525.61,-1291.81C608.8,-1291.33 830.23,-1290.04 941.8,-1289.39"/>
<polygon fill="black" stroke="black" stroke-width="2" points="941.94,-1292.88 951.92,-1289.33 941.9,-1285.89 941.94,-1292.88"/>
</g>
<!-- Edy&#45;&gt;楽天ポイント -->
<g id="edge49" class="edge">
<title>Edy&#45;&gt;楽天ポイント</title>
<path fill="none" stroke="black" d="M517.61,-1133.81C521.92,-1129.68 525.98,-1125.01 529,-1120 529.55,-1119.09 601.65,-823.01 602,-822 624.77,-755.58 660.72,-681.22 680.43,-642.23"/>
<polygon fill="black" stroke="black" points="683.65,-643.61 685.07,-633.11 677.41,-640.43 683.65,-643.61"/>
<text text-anchor="middle" x="565.5" y="-1042.8" font-family="Times,serif" font-size="14.00">0.5%</text>
</g>
<!-- Edy&#45;&gt;セブンイレブン -->
<g id="edge62" class="edge">
<title>Edy&#45;&gt;セブンイレブン</title>
<path fill="none" stroke="black" stroke-width="2" d="M519.13,-1169.67C527.82,-1175.22 537.66,-1181.15 547,-1186 570.51,-1198.21 576.65,-1201.29 602,-1209 719.32,-1244.69 860.7,-1268.35 941.89,-1280.16"/>
<polygon fill="black" stroke="black" stroke-width="2" points="941.57,-1283.65 951.97,-1281.61 942.57,-1276.72 941.57,-1283.65"/>
</g>
<!-- ヨドバシカメラ -->
<g id="node42" class="node">
<title>ヨドバシカメラ</title>
<polygon fill="none" stroke="black" points="1067,-939 951,-939 951,-903 1067,-903 1067,-939"/>
<text text-anchor="middle" x="1009" y="-917.3" font-family="Times,serif" font-size="14.00">ヨドバシカメラ</text>
</g>
<!-- Edy&#45;&gt;ヨドバシカメラ -->
<g id="edge45" class="edge">
<title>Edy&#45;&gt;ヨドバシカメラ</title>
<path fill="none" stroke="black" stroke-width="2" d="M512.14,-1133.97C532.92,-1115.18 567.74,-1085.88 602,-1067 714.36,-1005.07 858.12,-960.65 940.96,-938.04"/>
<polygon fill="black" stroke="black" stroke-width="2" points="942.02,-941.38 950.76,-935.39 940.19,-934.62 942.02,-941.38"/>
</g>
<!-- 餃子の王将 -->
<g id="node43" class="node">
<title>餃子の王将</title>
<polygon fill="none" stroke="black" points="1053,-1142 965,-1142 965,-1106 1053,-1106 1053,-1142"/>
<text text-anchor="middle" x="1009" y="-1120.3" font-family="Times,serif" font-size="14.00">餃子の王将</text>
</g>
<!-- Edy&#45;&gt;餃子の王将 -->
<g id="edge60" class="edge">
<title>Edy&#45;&gt;餃子の王将</title>
<path fill="none" stroke="black" stroke-width="2" d="M519.25,-1150.57C599.97,-1146.18 845.65,-1132.83 954.78,-1126.89"/>
<polygon fill="black" stroke="black" stroke-width="2" points="955.11,-1130.38 964.91,-1126.34 954.73,-1123.39 955.11,-1130.38"/>
</g>
<!-- 業務スーパー -->
<g id="node45" class="node">
<title>業務スーパー</title>
<polygon fill="none" stroke="black" points="1060,-1250 958,-1250 958,-1214 1060,-1214 1060,-1250"/>
<text text-anchor="middle" x="1009" y="-1228.3" font-family="Times,serif" font-size="14.00">業務スーパー</text>
</g>
<!-- Edy&#45;&gt;業務スーパー -->
<g id="edge59" class="edge">
<title>Edy&#45;&gt;業務スーパー</title>
<path fill="none" stroke="black" stroke-width="2" d="M519.12,-1161.2C527.9,-1164.03 537.79,-1166.94 547,-1169 688.79,-1200.77 858.92,-1219 947.57,-1227.03"/>
<polygon fill="black" stroke="black" stroke-width="2" points="947.44,-1230.53 957.71,-1227.93 948.06,-1223.56 947.44,-1230.53"/>
</g>
<!-- 吉野家 -->
<g id="node47" class="node">
<title>吉野家</title>
<polygon fill="none" stroke="black" points="1038.5,-1196 979.5,-1196 979.5,-1160 1038.5,-1160 1038.5,-1196"/>
<text text-anchor="middle" x="1009" y="-1174.3" font-family="Times,serif" font-size="14.00">吉野家</text>
</g>
<!-- Edy&#45;&gt;吉野家 -->
<g id="edge48" class="edge">
<title>Edy&#45;&gt;吉野家</title>
<path fill="none" stroke="black" stroke-width="2" d="M519.25,-1153.33C603.78,-1157.59 869.23,-1170.99 969.31,-1176.05"/>
<polygon fill="black" stroke="black" stroke-width="2" points="969.13,-1179.54 979.3,-1176.55 969.49,-1172.55 969.13,-1179.54"/>
</g>
<!-- PayPay&#45;&gt;飲食店 -->
<g id="edge27" class="edge">
<title>PayPay&#45;&gt;飲食店</title>
<path fill="none" stroke="black" stroke-width="2" d="M526.39,-1547.44C617.79,-1556.84 871.71,-1582.97 969.2,-1593.01"/>
<polygon fill="black" stroke="black" stroke-width="2" points="968.91,-1596.5 979.21,-1594.04 969.63,-1589.53 968.91,-1596.5"/>
</g>
<!-- メルペイ&#45;&gt;三井住友銀行 -->
<g id="edge68" class="edge">
<title>メルペイ&#45;&gt;三井住友銀行</title>
<path fill="none" stroke="black" stroke-width="2" d="M454.82,-1599.37C396.18,-1601.59 279.8,-1606 208.43,-1608.71"/>
<polygon fill="black" stroke="black" stroke-width="2" points="208.1,-1605.22 198.24,-1609.1 208.37,-1612.21 208.1,-1605.22"/>
</g>
<!-- メルペイ&#45;&gt;メルカリ -->
<g id="edge67" class="edge">
<title>メルペイ&#45;&gt;メルカリ</title>
<path fill="none" stroke="black" stroke-width="2" d="M529.21,-1593.57C620.63,-1582.39 860.65,-1553.03 961.9,-1540.64"/>
<polygon fill="black" stroke="black" stroke-width="2" points="962.33,-1544.11 971.83,-1539.43 961.48,-1537.17 962.33,-1544.11"/>
</g>
<!-- Ponta&#45;&gt;じゃらん -->
<g id="edge51" class="edge">
<title>Ponta&#45;&gt;じゃらん</title>
<path fill="none" stroke="black" d="M724.37,-1096.78C769.93,-1100.19 862.39,-1102.35 933,-1073 946.46,-1067.4 960.44,-1059.77 972.63,-1052.43"/>
<polygon fill="black" stroke="black" points="974.48,-1055.4 981.15,-1047.17 970.8,-1049.44 974.48,-1055.4"/>
</g>
<!-- 楽天ポイント&#45;&gt;楽天モバイル -->
<g id="edge42" class="edge">
<title>楽天ポイント&#45;&gt;楽天モバイル</title>
<path fill="none" stroke="black" d="M746.68,-627.6C770.58,-633.25 799.64,-639.61 826,-644 866.38,-650.72 912.2,-655.74 947.76,-659.07"/>
<polygon fill="black" stroke="black" points="947.69,-662.58 957.97,-660.01 948.33,-655.61 947.69,-662.58"/>
</g>
<!-- 楽天ポイント&#45;&gt;楽天でんき -->
<g id="edge43" class="edge">
<title>楽天ポイント&#45;&gt;楽天でんき</title>
<path fill="none" stroke="black" d="M741.75,-633.05C766.49,-642.69 797.75,-654.48 826,-664 868.97,-678.48 918.31,-692.99 954.77,-703.32"/>
<polygon fill="black" stroke="black" points="954.12,-706.77 964.7,-706.12 956.02,-700.04 954.12,-706.77"/>
</g>
<!-- JREポイント&#45;&gt;Suica -->
<g id="edge20" class="edge">
<title>JREポイント&#45;&gt;Suica</title>
<path fill="none" stroke="black" d="M645.42,-253.29C630.61,-257.33 614.88,-263.27 602,-272 591.25,-279.28 594.18,-286.94 584,-295 567.88,-307.76 547.27,-317.68 529.73,-324.68"/>
<polygon fill="black" stroke="black" points="528.45,-321.42 520.36,-328.26 530.95,-327.96 528.45,-321.42"/>
</g>
<!-- ビックポイント&#45;&gt;ビックカメラ -->
<g id="edge14" class="edge">
<title>ビックポイント&#45;&gt;ビックカメラ</title>
<path fill="none" stroke="black" d="M753.78,-130.6C798.2,-134.68 860.93,-136.47 914,-123 935.3,-117.59 957,-106.28 974.18,-95.69"/>
<polygon fill="black" stroke="black" points="976.17,-98.57 982.72,-90.24 972.4,-92.66 976.17,-98.57"/>
</g>
<!-- Amazonポイント -->
<g id="node26" class="node">
<title>Amazonポイント</title>
<polygon fill="none" stroke="black" points="760.5,-541 630.5,-541 630.5,-505 760.5,-505 760.5,-541"/>
<text text-anchor="middle" x="695.5" y="-519.3" font-family="Times,serif" font-size="14.00">Amazonポイント</text>
</g>
<!-- Amazonポイント&#45;&gt;Amazon -->
<g id="edge54" class="edge">
<title>Amazonポイント&#45;&gt;Amazon</title>
<path fill="none" stroke="black" d="M760.62,-523.34C808.27,-527.8 874.81,-536.64 933,-546 942.51,-547.53 952.67,-549.32 962.35,-551.31"/>
<polygon fill="black" stroke="black" points="961.69,-554.75 972.2,-553.45 963.17,-547.91 961.69,-554.75"/>
</g>
<!-- nanacoポイント&#45;&gt;nanaco -->
<g id="edge58" class="edge">
<title>nanacoポイント&#45;&gt;nanaco</title>
<path fill="none" stroke="black" d="M633.44,-1342.84C606.29,-1343.05 574.34,-1340.56 547,-1331 537.6,-1327.71 528.42,-1322.23 520.37,-1316.39"/>
<polygon fill="black" stroke="black" points="522.48,-1313.6 512.42,-1310.26 518.2,-1319.14 522.48,-1313.6"/>
</g>
<!-- ヨドバシゴールドポイント -->
<g id="node28" class="node">
<title>ヨドバシゴールドポイント</title>
<polygon fill="none" stroke="black" points="789,-867 602,-867 602,-831 789,-831 789,-867"/>
<text text-anchor="middle" x="695.5" y="-845.3" font-family="Times,serif" font-size="14.00">ヨドバシゴールドポイント</text>
</g>
<!-- ヨドバシゴールドポイント&#45;&gt;ヨドバシカメラ -->
<g id="edge47" class="edge">
<title>ヨドバシゴールドポイント&#45;&gt;ヨドバシカメラ</title>
<path fill="none" stroke="black" d="M757.84,-867.08C779.31,-873.13 803.64,-879.69 826,-885 863.79,-893.98 906.37,-902.49 940.83,-908.97"/>
<polygon fill="black" stroke="black" points="940.31,-912.44 950.79,-910.84 941.6,-905.56 940.31,-912.44"/>
</g>
<!-- はぴeポイント -->
<g id="node29" class="node">
<title>はぴeポイント</title>
<polygon fill="none" stroke="black" points="750.5,-317 640.5,-317 640.5,-281 750.5,-281 750.5,-317"/>
<text text-anchor="middle" x="695.5" y="-295.3" font-family="Times,serif" font-size="14.00">はぴeポイント</text>
</g>
<!-- はぴeポイント&#45;&gt;関西電力 -->
<g id="edge37" class="edge">
<title>はぴeポイント&#45;&gt;関西電力</title>
<path fill="none" stroke="black" d="M750.65,-294.51C773.84,-292.78 801.23,-290.98 826,-290 873.52,-288.13 885.45,-288.37 933,-289 942.28,-289.12 952.2,-289.33 961.69,-289.57"/>
<polygon fill="black" stroke="black" points="961.67,-293.07 971.76,-289.84 961.86,-286.07 961.67,-293.07"/>
</g>
<!-- 株主優待券&#45;&gt;住信SBI銀行 -->
<g id="edge30" class="edge">
<title>株主優待券&#45;&gt;住信SBI銀行</title>
<path fill="none" stroke="black" d="M825.95,-432.69C744.8,-435.47 565.71,-441.89 436,-510 321.71,-570.01 218.18,-686.7 172.58,-738.94"/>
<polygon fill="black" stroke="black" points="169.7,-736.91 165.76,-746.75 174.97,-741.51 169.7,-736.91"/>
</g>
<!-- 株主優待券&#45;&gt;電車 -->
<g id="edge29" class="edge">
<title>株主優待券&#45;&gt;電車</title>
<path fill="none" stroke="black" stroke-width="2" d="M894.07,-410.91C909.67,-399.09 931,-383.74 951,-372 957.91,-367.95 965.52,-364.01 972.87,-360.45"/>
<polygon fill="black" stroke="black" stroke-width="2" points="974.41,-363.59 981.97,-356.16 971.43,-357.25 974.41,-363.59"/>
</g>
<!-- 楽天モバイル&#45;&gt;楽天ポイント -->
<g id="edge41" class="edge">
<title>楽天モバイル&#45;&gt;楽天ポイント</title>
<path fill="none" stroke="black" d="M967.13,-645.82C950.91,-639.39 931.88,-632.82 914,-629 861.76,-617.85 800.99,-614.74 756.98,-614.19"/>
<polygon fill="black" stroke="black" points="756.76,-610.69 746.74,-614.11 756.71,-617.69 756.76,-610.69"/>
<text text-anchor="middle" x="870" y="-632.8" font-family="Times,serif" font-size="14.00">0.5%</text>
</g>
<!-- 関西電力&#45;&gt;はぴeポイント -->
<g id="edge36" class="edge">
<title>関西電力&#45;&gt;はぴeポイント</title>
<path fill="none" stroke="black" d="M971.85,-291.93C920.33,-293.25 824.96,-295.7 761.12,-297.34"/>
<polygon fill="black" stroke="black" points="760.67,-293.85 750.76,-297.61 760.85,-300.85 760.67,-293.85"/>
<text text-anchor="middle" x="870" y="-299.8" font-family="Times,serif" font-size="14.00">0.5%</text>
</g>
<!-- ビックカメラ&#45;&gt;ビックポイント -->
<g id="edge12" class="edge">
<title>ビックカメラ&#45;&gt;ビックポイント</title>
<path fill="none" stroke="black" stroke-dasharray="5,2" d="M958.42,-81.47C949.94,-83.03 941.22,-84.59 933,-86 876.14,-95.75 811.41,-105.81 764.06,-112.97"/>
<polygon fill="black" stroke="black" points="763.29,-109.55 753.92,-114.5 764.33,-116.47 763.29,-109.55"/>
<text text-anchor="middle" x="870" y="-107.8" font-family="Times,serif" font-size="14.00">9.5%</text>
</g>
<!-- ヨドバシカメラ&#45;&gt;ヨドバシゴールドポイント -->
<g id="edge46" class="edge">
<title>ヨドバシカメラ&#45;&gt;ヨドバシゴールドポイント</title>
<path fill="none" stroke="black" d="M981.32,-902.75C963.17,-891.31 938.15,-877.38 914,-870 877.52,-858.85 836.15,-853.22 799.35,-850.49"/>
<polygon fill="black" stroke="black" points="799.31,-846.98 789.1,-849.8 798.84,-853.96 799.31,-846.98"/>
<text text-anchor="middle" x="870" y="-873.8" font-family="Times,serif" font-size="14.00">10%</text>
</g>
<!-- Amazon&#45;&gt;Amazonポイント -->
<g id="edge53" class="edge">
<title>Amazon&#45;&gt;Amazonポイント</title>
<path fill="none" stroke="black" d="M972.2,-570.44C959.81,-568.6 945.82,-566.06 933,-564 878.79,-555.28 817.32,-547.01 770.65,-539.82"/>
<polygon fill="black" stroke="black" points="771.04,-536.34 760.62,-538.25 769.96,-543.25 771.04,-536.34"/>
</g>
<!-- じゃらん&#45;&gt;Ponta -->
<g id="edge52" class="edge">
<title>じゃらん&#45;&gt;Ponta</title>
<path fill="none" stroke="black" d="M971.93,-1034.52C935.1,-1040.35 876.34,-1050.18 826,-1061 794.76,-1067.72 759.66,-1076.76 733.88,-1083.68"/>
<polygon fill="black" stroke="black" points="732.88,-1080.32 724.14,-1086.31 734.71,-1087.08 732.88,-1080.32"/>
<text text-anchor="middle" x="870" y="-1064.8" font-family="Times,serif" font-size="14.00">2%</text>
</g>
</g>
</svg>
