<?xml version="1.0" encoding="UTF-8" standalone="no"?>
<!DOCTYPE svg PUBLIC "-//W3C//DTD SVG 1.1//EN"
 "http://www.w3.org/Graphics/SVG/1.1/DTD/svg11.dtd">
<!-- Generated by graphviz version 2.42.4 (0)
 -->
<!-- Title: MoneyFlow Pages: 1 -->
<svg width="1075pt" height="1885pt"
 viewBox="0.00 0.00 1075.00 1885.00" xmlns="http://www.w3.org/2000/svg" xmlns:xlink="http://www.w3.org/1999/xlink">
<g id="graph0" class="graph" transform="scale(1 1) rotate(0) translate(4 1881)">
<title>MoneyFlow</title>
<polygon fill="white" stroke="transparent" points="-4,4 -4,-1881 1071,-1881 1071,4 -4,4"/>
<!-- 収入 -->
<g id="node1" class="node">
<title>収入</title>
<text text-anchor="middle" x="29.5" y="-14.3" font-family="Times,serif" font-size="14.00">収入</text>
</g>
<!-- 銀行口座 -->
<g id="node2" class="node">
<title>銀行口座</title>
<text text-anchor="middle" x="147" y="-14.3" font-family="Times,serif" font-size="14.00">銀行口座</text>
</g>
<!-- 収入&#45;&gt;銀行口座 -->
<g id="edge1" class="edge">
<title>収入&#45;&gt;銀行口座</title>
<path fill="none" stroke="black" d="M56.71,-18C72.42,-18 92.61,-18 109.83,-18"/>
</g>
<!-- クレジットカード -->
<g id="node3" class="node">
<title>クレジットカード</title>
<text text-anchor="middle" x="326.5" y="-14.3" font-family="Times,serif" font-size="14.00">クレジットカード</text>
</g>
<!-- 銀行口座&#45;&gt;クレジットカード -->
<g id="edge2" class="edge">
<title>銀行口座&#45;&gt;クレジットカード</title>
<path fill="none" stroke="black" d="M184.35,-18C206.66,-18 235.86,-18 261.91,-18"/>
</g>
<!-- マネー -->
<g id="node4" class="node">
<title>マネー</title>
<text text-anchor="middle" x="492" y="-14.3" font-family="Times,serif" font-size="14.00">マネー</text>
</g>
<!-- クレジットカード&#45;&gt;マネー -->
<g id="edge3" class="edge">
<title>クレジットカード&#45;&gt;マネー</title>
<path fill="none" stroke="black" d="M391.18,-18C415.75,-18 442.61,-18 462.27,-18"/>
</g>
<!-- ポイント -->
<g id="node5" class="node">
<title>ポイント</title>
<text text-anchor="middle" x="695.5" y="-14.3" font-family="Times,serif" font-size="14.00">ポイント</text>
</g>
<!-- マネー&#45;&gt;ポイント -->
<g id="edge4" class="edge">
<title>マネー&#45;&gt;ポイント</title>
<path fill="none" stroke="black" d="M521.87,-18C557.78,-18 619.11,-18 658.18,-18"/>
</g>
<!-- 金券 -->
<g id="node6" class="node">
<title>金券</title>
<text text-anchor="middle" x="870" y="-14.3" font-family="Times,serif" font-size="14.00">金券</text>
</g>
<!-- ポイント&#45;&gt;金券 -->
<g id="edge5" class="edge">
<title>ポイント&#45;&gt;金券</title>
<path fill="none" stroke="black" d="M732.66,-18C765.66,-18 813.62,-18 842.99,-18"/>
</g>
<!-- 支出 -->
<g id="node7" class="node">
<title>支出</title>
<text text-anchor="middle" x="1009" y="-14.3" font-family="Times,serif" font-size="14.00">支出</text>
</g>
<!-- 金券&#45;&gt;支出 -->
<g id="edge6" class="edge">
<title>金券&#45;&gt;支出</title>
<path fill="none" stroke="black" d="M897.09,-18C921.31,-18 957.2,-18 981.54,-18"/>
</g>
<!-- 給与 -->
<g id="node8" class="node">
<title>給与</title>
<polygon fill="none" stroke="black" points="56.5,-1748 2.5,-1748 2.5,-1712 56.5,-1712 56.5,-1748"/>
<text text-anchor="middle" x="29.5" y="-1726.3" font-family="Times,serif" font-size="14.00">給与</text>
</g>
<!-- 三井住友銀行 -->
<g id="node11" class="node">
<title>三井住友銀行</title>
<polygon fill="none" stroke="black" points="198,-1748 96,-1748 96,-1712 198,-1712 198,-1748"/>
<text text-anchor="middle" x="147" y="-1726.3" font-family="Times,serif" font-size="14.00">三井住友銀行</text>
</g>
<!-- 給与&#45;&gt;三井住友銀行 -->
<g id="edge7" class="edge">
<title>給与&#45;&gt;三井住友銀行</title>
<path fill="none" stroke="black" stroke-width="2" d="M56.71,-1730C65.39,-1730 75.45,-1730 85.62,-1730"/>
<polygon fill="black" stroke="black" stroke-width="2" points="85.78,-1733.5 95.78,-1730 85.78,-1726.5 85.78,-1733.5"/>
</g>
<!-- 譲渡 -->
<g id="node9" class="node">
<title>譲渡</title>
<polygon fill="none" stroke="black" points="56.5,-1347 2.5,-1347 2.5,-1311 56.5,-1311 56.5,-1347"/>
<text text-anchor="middle" x="29.5" y="-1325.3" font-family="Times,serif" font-size="14.00">譲渡</text>
</g>
<!-- メルペイ -->
<g id="node21" class="node">
<title>メルペイ</title>
<polygon fill="none" stroke="black" points="529,-1347 455,-1347 455,-1311 529,-1311 529,-1347"/>
<text text-anchor="middle" x="492" y="-1325.3" font-family="Times,serif" font-size="14.00">メルペイ</text>
</g>
<!-- 譲渡&#45;&gt;メルペイ -->
<g id="edge70" class="edge">
<title>譲渡&#45;&gt;メルペイ</title>
<path fill="none" stroke="black" stroke-width="2" d="M56.58,-1329C131.58,-1329 348.63,-1329 444.52,-1329"/>
<polygon fill="black" stroke="black" stroke-width="2" points="444.78,-1332.5 454.78,-1329 444.78,-1325.5 444.78,-1332.5"/>
</g>
<!-- 雑収入 -->
<g id="node10" class="node">
<title>雑収入</title>
<polygon fill="none" stroke="black" points="59,-356 0,-356 0,-320 59,-320 59,-356"/>
<text text-anchor="middle" x="29.5" y="-334.3" font-family="Times,serif" font-size="14.00">雑収入</text>
</g>
<!-- Ponta -->
<g id="node22" class="node">
<title>Ponta</title>
<polygon fill="none" stroke="black" points="724,-138 667,-138 667,-102 724,-102 724,-138"/>
<text text-anchor="middle" x="695.5" y="-116.3" font-family="Times,serif" font-size="14.00">Ponta</text>
</g>
<!-- 雑収入&#45;&gt;Ponta -->
<g id="edge75" class="edge">
<title>雑収入&#45;&gt;Ponta</title>
<path fill="none" stroke="black" stroke-width="2" d="M31.6,-319.79C35.86,-267.39 55.84,-120 146,-120 146,-120 146,-120 493,-120 550,-120 616.07,-120 656.57,-120"/>
<polygon fill="black" stroke="black" stroke-width="2" points="656.8,-123.5 666.8,-120 656.8,-116.5 656.8,-123.5"/>
</g>
<!-- 楽天ポイント -->
<g id="node23" class="node">
<title>楽天ポイント</title>
<polygon fill="none" stroke="black" points="746.5,-716 644.5,-716 644.5,-680 746.5,-680 746.5,-716"/>
<text text-anchor="middle" x="695.5" y="-694.3" font-family="Times,serif" font-size="14.00">楽天ポイント</text>
</g>
<!-- 雑収入&#45;&gt;楽天ポイント -->
<g id="edge74" class="edge">
<title>雑収入&#45;&gt;楽天ポイント</title>
<path fill="none" stroke="black" stroke-width="2" d="M31.6,-356.21C35.86,-408.61 55.84,-556 146,-556 146,-556 146,-556 493,-556 572.48,-556 642.68,-630.72 675.24,-671.76"/>
<polygon fill="black" stroke="black" stroke-width="2" points="672.53,-673.97 681.43,-679.73 678.06,-669.68 672.53,-673.97"/>
</g>
<!-- 住信SBI銀行 -->
<g id="node12" class="node">
<title>住信SBI銀行</title>
<polygon fill="none" stroke="black" points="196.5,-1676 97.5,-1676 97.5,-1640 196.5,-1640 196.5,-1676"/>
<text text-anchor="middle" x="147" y="-1654.3" font-family="Times,serif" font-size="14.00">住信SBI銀行</text>
</g>
<!-- 三井住友銀行&#45;&gt;住信SBI銀行 -->
<g id="edge9" class="edge">
<title>三井住友銀行&#45;&gt;住信SBI銀行</title>
<path fill="none" stroke="black" stroke-width="2" d="M147,-1711.95C147,-1703.41 147,-1694.86 147,-1686.31"/>
<polygon fill="black" stroke="black" stroke-width="2" points="150.5,-1686.28 147,-1676.28 143.5,-1686.28 150.5,-1686.28"/>
</g>
<!-- 現金 -->
<g id="node17" class="node">
<title>現金</title>
<polygon fill="none" stroke="black" points="519,-1785 465,-1785 465,-1749 519,-1749 519,-1785"/>
<text text-anchor="middle" x="492" y="-1763.3" font-family="Times,serif" font-size="14.00">現金</text>
</g>
<!-- 三井住友銀行&#45;&gt;現金 -->
<g id="edge8" class="edge">
<title>三井住友銀行&#45;&gt;現金</title>
<path fill="none" stroke="black" stroke-width="2" d="M188.71,-1748.02C197.55,-1751.23 206.96,-1754.14 216,-1756 300.07,-1773.27 401.55,-1771.72 454.62,-1769.26"/>
<polygon fill="black" stroke="black" stroke-width="2" points="455.07,-1772.74 464.88,-1768.74 454.72,-1765.75 455.07,-1772.74"/>
</g>
<!-- ビックカメラSuicaカード -->
<g id="node13" class="node">
<title>ビックカメラSuicaカード</title>
<polygon fill="none" stroke="black" points="418,-1502 235,-1502 235,-1466 418,-1466 418,-1502"/>
<text text-anchor="middle" x="326.5" y="-1480.3" font-family="Times,serif" font-size="14.00">ビックカメラSuicaカード</text>
</g>
<!-- 住信SBI銀行&#45;&gt;ビックカメラSuicaカード -->
<g id="edge23" class="edge">
<title>住信SBI銀行&#45;&gt;ビックカメラSuicaカード</title>
<path fill="none" stroke="black" stroke-width="2" d="M162.74,-1639.73C176.09,-1623.52 196.59,-1599.46 216,-1580 241.44,-1554.49 272.49,-1527.63 295.01,-1508.84"/>
<polygon fill="black" stroke="black" stroke-width="2" points="297.44,-1511.37 302.9,-1502.29 292.97,-1505.98 297.44,-1511.37"/>
</g>
<!-- リクルートカード -->
<g id="node14" class="node">
<title>リクルートカード</title>
<polygon fill="none" stroke="black" points="390.5,-918 262.5,-918 262.5,-882 390.5,-882 390.5,-918"/>
<text text-anchor="middle" x="326.5" y="-896.3" font-family="Times,serif" font-size="14.00">リクルートカード</text>
</g>
<!-- 住信SBI銀行&#45;&gt;リクルートカード -->
<g id="edge24" class="edge">
<title>住信SBI銀行&#45;&gt;リクルートカード</title>
<path fill="none" stroke="black" stroke-width="2" d="M152.3,-1639.64C175.96,-1538.58 290.31,-1050.28 318.97,-927.87"/>
<polygon fill="black" stroke="black" stroke-width="2" points="322.38,-928.65 321.26,-918.12 315.57,-927.06 322.38,-928.65"/>
</g>
<!-- PiTaPa -->
<g id="node15" class="node">
<title>PiTaPa</title>
<polygon fill="none" stroke="black" points="359,-1676 294,-1676 294,-1640 359,-1640 359,-1676"/>
<text text-anchor="middle" x="326.5" y="-1654.3" font-family="Times,serif" font-size="14.00">PiTaPa</text>
</g>
<!-- 住信SBI銀行&#45;&gt;PiTaPa -->
<g id="edge25" class="edge">
<title>住信SBI銀行&#45;&gt;PiTaPa</title>
<path fill="none" stroke="black" stroke-width="2" d="M196.5,-1658C223.75,-1658 257.41,-1658 283.52,-1658"/>
<polygon fill="black" stroke="black" stroke-width="2" points="283.84,-1661.5 293.84,-1658 283.84,-1654.5 283.84,-1661.5"/>
</g>
<!-- 住信SBI銀行&#45;&gt;現金 -->
<g id="edge21" class="edge">
<title>住信SBI銀行&#45;&gt;現金</title>
<path fill="none" stroke="black" stroke-width="2" d="M176.05,-1676.03C192.66,-1686.04 214.41,-1698.04 235,-1706 310.59,-1735.23 404.33,-1753.24 454.78,-1761.55"/>
<polygon fill="black" stroke="black" stroke-width="2" points="454.44,-1765.04 464.87,-1763.17 455.56,-1758.12 454.44,-1765.04"/>
</g>
<!-- PayPay -->
<g id="node20" class="node">
<title>PayPay</title>
<polygon fill="none" stroke="black" points="526,-1713 458,-1713 458,-1677 526,-1677 526,-1713"/>
<text text-anchor="middle" x="492" y="-1691.3" font-family="Times,serif" font-size="14.00">PayPay</text>
</g>
<!-- 住信SBI銀行&#45;&gt;PayPay -->
<g id="edge26" class="edge">
<title>住信SBI銀行&#45;&gt;PayPay</title>
<path fill="none" stroke="black" stroke-width="2" d="M196.68,-1675.56C209.03,-1679.33 222.37,-1682.83 235,-1685 309.03,-1697.71 396.78,-1698 447.94,-1696.73"/>
<polygon fill="black" stroke="black" stroke-width="2" points="448.08,-1700.23 457.98,-1696.45 447.89,-1693.23 448.08,-1700.23"/>
</g>
<!-- 株主優待券 -->
<g id="node30" class="node">
<title>株主優待券</title>
<polygon fill="none" stroke="black" points="914,-1662 826,-1662 826,-1626 914,-1626 914,-1662"/>
<text text-anchor="middle" x="870" y="-1640.3" font-family="Times,serif" font-size="14.00">株主優待券</text>
</g>
<!-- 住信SBI銀行&#45;&gt;株主優待券 -->
<g id="edge28" class="edge">
<title>住信SBI銀行&#45;&gt;株主優待券</title>
<path fill="none" stroke="black" stroke-width="2" d="M174.17,-1639.9C191.19,-1632.43 214.05,-1625.18 235,-1622 448,-1589.71 705.82,-1614.38 815.48,-1631.82"/>
<polygon fill="black" stroke="black" stroke-width="2" points="815.19,-1635.32 825.62,-1633.48 816.32,-1628.41 815.19,-1635.32"/>
</g>
<!-- 家賃 -->
<g id="node31" class="node">
<title>家賃</title>
<polygon fill="none" stroke="black" points="1036,-1877 982,-1877 982,-1841 1036,-1841 1036,-1877"/>
<text text-anchor="middle" x="1009" y="-1855.3" font-family="Times,serif" font-size="14.00">家賃</text>
</g>
<!-- 住信SBI銀行&#45;&gt;家賃 -->
<g id="edge22" class="edge">
<title>住信SBI銀行&#45;&gt;家賃</title>
<path fill="none" stroke="black" stroke-width="2" d="M169.42,-1676.3C178.46,-1684.28 188.96,-1693.87 198,-1703 215.5,-1720.68 214.57,-1730.81 235,-1745 335.06,-1814.5 369.17,-1843 491,-1843 491,-1843 491,-1843 871,-1843 905.4,-1843 944.33,-1848.04 971.88,-1852.46"/>
<polygon fill="black" stroke="black" stroke-width="2" points="971.4,-1855.93 981.84,-1854.11 972.55,-1849.02 971.4,-1855.93"/>
</g>
<!-- Suica -->
<g id="node16" class="node">
<title>Suica</title>
<polygon fill="none" stroke="black" points="520,-1579 464,-1579 464,-1543 520,-1543 520,-1579"/>
<text text-anchor="middle" x="492" y="-1557.3" font-family="Times,serif" font-size="14.00">Suica</text>
</g>
<!-- ビックカメラSuicaカード&#45;&gt;Suica -->
<g id="edge15" class="edge">
<title>ビックカメラSuicaカード&#45;&gt;Suica</title>
<path fill="none" stroke="black" stroke-width="2" d="M365.83,-1502.05C392.65,-1514.68 428.25,-1531.45 454.62,-1543.87"/>
<polygon fill="black" stroke="black" stroke-width="2" points="453.35,-1547.14 463.89,-1548.23 456.33,-1540.8 453.35,-1547.14"/>
</g>
<!-- JREポイント -->
<g id="node24" class="node">
<title>JREポイント</title>
<polygon fill="none" stroke="black" points="745.5,-1531 645.5,-1531 645.5,-1495 745.5,-1495 745.5,-1531"/>
<text text-anchor="middle" x="695.5" y="-1509.3" font-family="Times,serif" font-size="14.00">JREポイント</text>
</g>
<!-- ビックカメラSuicaカード&#45;&gt;JREポイント -->
<g id="edge10" class="edge">
<title>ビックカメラSuicaカード&#45;&gt;JREポイント</title>
<path fill="none" stroke="black" d="M418.22,-1491.17C485.9,-1496.52 576.43,-1503.67 635.11,-1508.31"/>
<polygon fill="black" stroke="black" points="635.08,-1511.82 645.32,-1509.11 635.63,-1504.84 635.08,-1511.82"/>
<text text-anchor="middle" x="492" y="-1503.8" font-family="Times,serif" font-size="14.00">0.5%</text>
</g>
<!-- ビックポイント -->
<g id="node25" class="node">
<title>ビックポイント</title>
<polygon fill="none" stroke="black" points="753.5,-1477 637.5,-1477 637.5,-1441 753.5,-1441 753.5,-1477"/>
<text text-anchor="middle" x="695.5" y="-1455.3" font-family="Times,serif" font-size="14.00">ビックポイント</text>
</g>
<!-- ビックカメラSuicaカード&#45;&gt;ビックポイント -->
<g id="edge13" class="edge">
<title>ビックカメラSuicaカード&#45;&gt;ビックポイント</title>
<path fill="none" stroke="black" d="M418.1,-1471.99C457.61,-1467.3 504.52,-1462.46 547,-1460 573.18,-1458.48 602.01,-1458.02 627.19,-1458.01"/>
<polygon fill="black" stroke="black" points="627.36,-1461.51 637.37,-1458.03 627.38,-1454.51 627.36,-1461.51"/>
<text text-anchor="middle" x="492" y="-1471.8" font-family="Times,serif" font-size="14.00">0.5%</text>
</g>
<!-- ビックカメラ -->
<g id="node41" class="node">
<title>ビックカメラ</title>
<polygon fill="none" stroke="black" points="1059.5,-1447 958.5,-1447 958.5,-1411 1059.5,-1411 1059.5,-1447"/>
<text text-anchor="middle" x="1009" y="-1425.3" font-family="Times,serif" font-size="14.00">ビックカメラ</text>
</g>
<!-- ビックカメラSuicaカード&#45;&gt;ビックカメラ -->
<g id="edge11" class="edge">
<title>ビックカメラSuicaカード&#45;&gt;ビックカメラ</title>
<path fill="none" stroke="black" stroke-width="2" stroke-dasharray="5,2" d="M351.83,-1465.9C382.59,-1444.86 437.93,-1413 491,-1413 491,-1413 491,-1413 871,-1413 896.46,-1413 924.4,-1415.76 948.37,-1418.99"/>
<polygon fill="black" stroke="black" stroke-width="2" points="947.99,-1422.47 958.38,-1420.39 948.96,-1415.54 947.99,-1422.47"/>
</g>
<!-- EX予約 -->
<g id="node50" class="node">
<title>EX予約</title>
<polygon fill="none" stroke="black" points="1041.5,-1393 976.5,-1393 976.5,-1357 1041.5,-1357 1041.5,-1393"/>
<text text-anchor="middle" x="1009" y="-1371.3" font-family="Times,serif" font-size="14.00">EX予約</text>
</g>
<!-- ビックカメラSuicaカード&#45;&gt;EX予約 -->
<g id="edge18" class="edge">
<title>ビックカメラSuicaカード&#45;&gt;EX予約</title>
<path fill="none" stroke="black" stroke-width="2" stroke-dasharray="5,2" d="M356.71,-1465.9C378.41,-1452.61 408.82,-1434.28 436,-1419 488.62,-1389.42 504.13,-1375 564.5,-1375 564.5,-1375 564.5,-1375 871,-1375 902.92,-1375 939.01,-1375 966.14,-1375"/>
<polygon fill="black" stroke="black" stroke-width="2" points="966.44,-1378.5 976.44,-1375 966.44,-1371.5 966.44,-1378.5"/>
</g>
<!-- nanaco -->
<g id="node18" class="node">
<title>nanaco</title>
<polygon fill="none" stroke="black" points="525.5,-620 458.5,-620 458.5,-584 525.5,-584 525.5,-620"/>
<text text-anchor="middle" x="492" y="-598.3" font-family="Times,serif" font-size="14.00">nanaco</text>
</g>
<!-- リクルートカード&#45;&gt;nanaco -->
<g id="edge60" class="edge">
<title>リクルートカード&#45;&gt;nanaco</title>
<path fill="none" stroke="black" stroke-width="2" d="M330.72,-881.72C339.7,-835.32 368.92,-711.16 436,-634 439.95,-629.46 444.7,-625.4 449.75,-621.83"/>
<polygon fill="black" stroke="black" stroke-width="2" points="451.88,-624.62 458.41,-616.27 448.1,-618.73 451.88,-624.62"/>
</g>
<!-- Edy -->
<g id="node19" class="node">
<title>Edy</title>
<polygon fill="none" stroke="black" points="519,-1069 465,-1069 465,-1033 519,-1033 519,-1069"/>
<text text-anchor="middle" x="492" y="-1047.3" font-family="Times,serif" font-size="14.00">Edy</text>
</g>
<!-- リクルートカード&#45;&gt;Edy -->
<g id="edge47" class="edge">
<title>リクルートカード&#45;&gt;Edy</title>
<path fill="none" stroke="black" stroke-width="2" d="M347.22,-918.21C376.39,-945.16 431.13,-995.71 464,-1026.07"/>
<polygon fill="black" stroke="black" stroke-width="2" points="461.74,-1028.74 471.46,-1032.96 466.49,-1023.6 461.74,-1028.74"/>
</g>
<!-- リクルートカード&#45;&gt;Ponta -->
<g id="edge53" class="edge">
<title>リクルートカード&#45;&gt;Ponta</title>
<path fill="none" stroke="black" d="M328.5,-881.9C334.19,-783.95 364.69,-317.38 436,-195 458.39,-156.58 590.36,-133.83 656.6,-124.69"/>
<polygon fill="black" stroke="black" points="657.2,-128.14 666.64,-123.34 656.27,-121.2 657.2,-128.14"/>
<text text-anchor="middle" x="492" y="-181.8" font-family="Times,serif" font-size="14.00">1.2%</text>
</g>
<!-- ASAHIネット -->
<g id="node34" class="node">
<title>ASAHIネット</title>
<polygon fill="none" stroke="black" points="1062,-486 956,-486 956,-450 1062,-450 1062,-486"/>
<text text-anchor="middle" x="1009" y="-464.3" font-family="Times,serif" font-size="14.00">ASAHIネット</text>
</g>
<!-- リクルートカード&#45;&gt;ASAHIネット -->
<g id="edge31" class="edge">
<title>リクルートカード&#45;&gt;ASAHIネット</title>
<path fill="none" stroke="black" stroke-width="2" d="M330.23,-881.99C343.11,-800.23 400.98,-468 491,-468 491,-468 491,-468 871,-468 895.45,-468 922.35,-468 945.79,-468"/>
<polygon fill="black" stroke="black" stroke-width="2" points="945.96,-471.5 955.96,-468 945.96,-464.5 945.96,-471.5"/>
</g>
<!-- 楽天モバイル -->
<g id="node35" class="node">
<title>楽天モバイル</title>
<polygon fill="none" stroke="black" points="1060,-956 958,-956 958,-920 1060,-920 1060,-956"/>
<text text-anchor="middle" x="1009" y="-934.3" font-family="Times,serif" font-size="14.00">楽天モバイル</text>
</g>
<!-- リクルートカード&#45;&gt;楽天モバイル -->
<g id="edge43" class="edge">
<title>リクルートカード&#45;&gt;楽天モバイル</title>
<path fill="none" stroke="black" stroke-width="2" d="M378.34,-918.11C410.27,-927.9 452.53,-938 491,-938 491,-938 491,-938 871,-938 896.18,-938 923.97,-938 947.9,-938"/>
<polygon fill="black" stroke="black" stroke-width="2" points="947.9,-941.5 957.9,-938 947.9,-934.5 947.9,-941.5"/>
</g>
<!-- 楽天でんき -->
<g id="node36" class="node">
<title>楽天でんき</title>
<polygon fill="none" stroke="black" points="1053,-902 965,-902 965,-866 1053,-866 1053,-902"/>
<text text-anchor="middle" x="1009" y="-880.3" font-family="Times,serif" font-size="14.00">楽天でんき</text>
</g>
<!-- リクルートカード&#45;&gt;楽天でんき -->
<g id="edge38" class="edge">
<title>リクルートカード&#45;&gt;楽天でんき</title>
<path fill="none" stroke="black" stroke-width="2" d="M390.78,-900C421.1,-900 457.93,-900 491,-900 491,-900 491,-900 808,-900 857.83,-900 914.42,-895 954.65,-890.6"/>
<polygon fill="black" stroke="black" stroke-width="2" points="955.23,-894.05 964.77,-889.46 954.45,-887.1 955.23,-894.05"/>
</g>
<!-- 関西電力 -->
<g id="node37" class="node">
<title>関西電力</title>
<polygon fill="none" stroke="black" points="1046,-432 972,-432 972,-396 1046,-396 1046,-432"/>
<text text-anchor="middle" x="1009" y="-410.3" font-family="Times,serif" font-size="14.00">関西電力</text>
</g>
<!-- リクルートカード&#45;&gt;関西電力 -->
<g id="edge35" class="edge">
<title>リクルートカード&#45;&gt;関西電力</title>
<path fill="none" stroke="black" stroke-width="2" d="M329.72,-881.86C340.81,-795.49 393.48,-430 491,-430 491,-430 491,-430 871,-430 901.34,-430 935.2,-426.08 961.67,-422.12"/>
<polygon fill="black" stroke="black" stroke-width="2" points="962.44,-425.54 971.79,-420.55 961.37,-418.63 962.44,-425.54"/>
</g>
<!-- 楽天損保 -->
<g id="node38" class="node">
<title>楽天損保</title>
<polygon fill="none" stroke="black" points="1046,-1280 972,-1280 972,-1244 1046,-1244 1046,-1280"/>
<text text-anchor="middle" x="1009" y="-1258.3" font-family="Times,serif" font-size="14.00">楽天損保</text>
</g>
<!-- リクルートカード&#45;&gt;楽天損保 -->
<g id="edge40" class="edge">
<title>リクルートカード&#45;&gt;楽天損保</title>
<path fill="none" stroke="black" stroke-width="2" d="M327.63,-918.06C329.17,-989.05 344.85,-1245 491,-1245 491,-1245 491,-1245 871,-1245 901.36,-1245 935.22,-1249.16 961.69,-1253.37"/>
<polygon fill="black" stroke="black" stroke-width="2" points="961.37,-1256.86 971.81,-1255.04 962.51,-1249.96 961.37,-1256.86"/>
</g>
<!-- 郵便局 -->
<g id="node39" class="node">
<title>郵便局</title>
<polygon fill="none" stroke="black" points="1038.5,-1226 979.5,-1226 979.5,-1190 1038.5,-1190 1038.5,-1226"/>
<text text-anchor="middle" x="1009" y="-1204.3" font-family="Times,serif" font-size="14.00">郵便局</text>
</g>
<!-- リクルートカード&#45;&gt;郵便局 -->
<g id="edge65" class="edge">
<title>リクルートカード&#45;&gt;郵便局</title>
<path fill="none" stroke="black" stroke-width="2" d="M328.54,-918.28C333.36,-984.38 359.36,-1207 491,-1207 491,-1207 491,-1207 871,-1207 904.07,-1207 941.63,-1207.29 969.05,-1207.56"/>
<polygon fill="black" stroke="black" stroke-width="2" points="969.36,-1211.07 979.4,-1207.67 969.44,-1204.07 969.36,-1211.07"/>
</g>
<!-- アイハート -->
<g id="node40" class="node">
<title>アイハート</title>
<polygon fill="none" stroke="black" points="1052,-1172 966,-1172 966,-1136 1052,-1136 1052,-1172"/>
<text text-anchor="middle" x="1009" y="-1150.3" font-family="Times,serif" font-size="14.00">アイハート</text>
</g>
<!-- リクルートカード&#45;&gt;アイハート -->
<g id="edge34" class="edge">
<title>リクルートカード&#45;&gt;アイハート</title>
<path fill="none" stroke="black" stroke-width="2" d="M330.2,-918.27C339.92,-976.51 378.77,-1154 491,-1154 491,-1154 491,-1154 871,-1154 898.91,-1154 930.01,-1154 955.52,-1154"/>
<polygon fill="black" stroke="black" stroke-width="2" points="955.72,-1157.5 965.72,-1154 955.72,-1150.5 955.72,-1157.5"/>
</g>
<!-- Amazon -->
<g id="node49" class="node">
<title>Amazon</title>
<polygon fill="none" stroke="black" points="1045.5,-321 972.5,-321 972.5,-285 1045.5,-285 1045.5,-321"/>
<text text-anchor="middle" x="1009" y="-299.3" font-family="Times,serif" font-size="14.00">Amazon</text>
</g>
<!-- リクルートカード&#45;&gt;Amazon -->
<g id="edge32" class="edge">
<title>リクルートカード&#45;&gt;Amazon</title>
<path fill="none" stroke="black" stroke-width="2" d="M328.45,-881.81C334.14,-781.75 367.82,-303 491,-303 491,-303 491,-303 871,-303 901.34,-303 935.46,-303 962.06,-303"/>
<polygon fill="black" stroke="black" stroke-width="2" points="962.23,-306.5 972.23,-303 962.23,-299.5 962.23,-306.5"/>
</g>
<!-- じゃらん -->
<g id="node51" class="node">
<title>じゃらん</title>
<polygon fill="none" stroke="black" points="1046,-227 972,-227 972,-191 1046,-191 1046,-227"/>
<text text-anchor="middle" x="1009" y="-205.3" font-family="Times,serif" font-size="14.00">じゃらん</text>
</g>
<!-- リクルートカード&#45;&gt;じゃらん -->
<g id="edge33" class="edge">
<title>リクルートカード&#45;&gt;じゃらん</title>
<path fill="none" stroke="black" stroke-width="2" d="M327.79,-881.87C330.02,-772.85 348.46,-209 491,-209 491,-209 491,-209 871,-209 901.24,-209 935.23,-209 961.79,-209"/>
<polygon fill="black" stroke="black" stroke-width="2" points="961.94,-212.5 971.94,-209 961.94,-205.5 961.94,-212.5"/>
</g>
<!-- メルカリ -->
<g id="node53" class="node">
<title>メルカリ</title>
<polygon fill="none" stroke="black" points="1046,-1336 972,-1336 972,-1300 1046,-1300 1046,-1336"/>
<text text-anchor="middle" x="1009" y="-1314.3" font-family="Times,serif" font-size="14.00">メルカリ</text>
</g>
<!-- リクルートカード&#45;&gt;メルカリ -->
<g id="edge73" class="edge">
<title>リクルートカード&#45;&gt;メルカリ</title>
<path fill="none" stroke="black" stroke-width="2" d="M326.9,-918.22C325.4,-994.33 330.32,-1283 491,-1283 491,-1283 491,-1283 871,-1283 902.02,-1283 935.79,-1291.53 962.05,-1300.16"/>
<polygon fill="black" stroke="black" stroke-width="2" points="961.12,-1303.55 971.72,-1303.46 963.38,-1296.92 961.12,-1303.55"/>
</g>
<!-- 楽天市場 -->
<g id="node54" class="node">
<title>楽天市場</title>
<polygon fill="none" stroke="black" points="1046,-624 972,-624 972,-588 1046,-588 1046,-624"/>
<text text-anchor="middle" x="1009" y="-602.3" font-family="Times,serif" font-size="14.00">楽天市場</text>
</g>
<!-- リクルートカード&#45;&gt;楽天市場 -->
<g id="edge41" class="edge">
<title>リクルートカード&#45;&gt;楽天市場</title>
<path fill="none" stroke="black" stroke-width="2" d="M338.66,-881.98C371.49,-830.86 473.52,-684.99 602,-628 665.14,-599.99 869.02,-601.95 961.55,-604.43"/>
<polygon fill="black" stroke="black" stroke-width="2" points="961.65,-607.93 971.74,-604.71 961.84,-600.93 961.65,-607.93"/>
</g>
<!-- Suica&#45;&gt;JREポイント -->
<g id="edge19" class="edge">
<title>Suica&#45;&gt;JREポイント</title>
<path fill="none" stroke="black" d="M519.46,-1542.96C527.92,-1537.99 537.55,-1533.11 547,-1530 575.12,-1520.75 607.69,-1516.37 635.06,-1514.37"/>
<polygon fill="black" stroke="black" points="635.52,-1517.84 645.27,-1513.71 635.07,-1510.86 635.52,-1517.84"/>
<text text-anchor="middle" x="565.5" y="-1533.8" font-family="Times,serif" font-size="14.00">1.5%</text>
</g>
<!-- 電車 -->
<g id="node33" class="node">
<title>電車</title>
<polygon fill="none" stroke="black" points="1036,-1643 982,-1643 982,-1607 1036,-1607 1036,-1643"/>
<text text-anchor="middle" x="1009" y="-1621.3" font-family="Times,serif" font-size="14.00">電車</text>
</g>
<!-- Suica&#45;&gt;電車 -->
<g id="edge16" class="edge">
<title>Suica&#45;&gt;電車</title>
<path fill="none" stroke="black" stroke-width="2" d="M520.02,-1568.83C528.59,-1571.09 538.14,-1573.38 547,-1575 628.69,-1589.94 878.09,-1613.27 971.86,-1621.77"/>
<polygon fill="black" stroke="black" stroke-width="2" points="971.71,-1625.27 981.98,-1622.68 972.34,-1618.3 971.71,-1625.27"/>
</g>
<!-- 松屋 -->
<g id="node45" class="node">
<title>松屋</title>
<polygon fill="none" stroke="black" points="1036,-1577 982,-1577 982,-1541 1036,-1541 1036,-1577"/>
<text text-anchor="middle" x="1009" y="-1555.3" font-family="Times,serif" font-size="14.00">松屋</text>
</g>
<!-- Suica&#45;&gt;松屋 -->
<g id="edge17" class="edge">
<title>Suica&#45;&gt;松屋</title>
<path fill="none" stroke="black" stroke-width="2" d="M520.33,-1560.89C606.71,-1560.56 873.97,-1559.52 971.71,-1559.14"/>
<polygon fill="black" stroke="black" stroke-width="2" points="971.99,-1562.64 981.97,-1559.1 971.96,-1555.64 971.99,-1562.64"/>
</g>
<!-- 飲食店 -->
<g id="node43" class="node">
<title>飲食店</title>
<polygon fill="none" stroke="black" points="1038.5,-1712 979.5,-1712 979.5,-1676 1038.5,-1676 1038.5,-1712"/>
<text text-anchor="middle" x="1009" y="-1690.3" font-family="Times,serif" font-size="14.00">飲食店</text>
</g>
<!-- 現金&#45;&gt;飲食店 -->
<g id="edge67" class="edge">
<title>現金&#45;&gt;飲食店</title>
<path fill="none" stroke="black" stroke-width="2" d="M519.22,-1763.78C601.2,-1753.66 852.05,-1722.42 933,-1709 944.85,-1707.04 957.7,-1704.59 969.35,-1702.24"/>
<polygon fill="black" stroke="black" stroke-width="2" points="970.14,-1705.65 979.23,-1700.22 968.74,-1698.79 970.14,-1705.65"/>
</g>
<!-- 理髪店 -->
<g id="node47" class="node">
<title>理髪店</title>
<polygon fill="none" stroke="black" points="1038.5,-1769 979.5,-1769 979.5,-1733 1038.5,-1733 1038.5,-1769"/>
<text text-anchor="middle" x="1009" y="-1747.3" font-family="Times,serif" font-size="14.00">理髪店</text>
</g>
<!-- 現金&#45;&gt;理髪店 -->
<g id="edge68" class="edge">
<title>現金&#45;&gt;理髪店</title>
<path fill="none" stroke="black" stroke-width="2" d="M519.25,-1766.18C603.69,-1763.56 868.7,-1755.33 969.01,-1752.21"/>
<polygon fill="black" stroke="black" stroke-width="2" points="969.41,-1755.7 979.3,-1751.89 969.19,-1748.7 969.41,-1755.7"/>
</g>
<!-- クリーニング -->
<g id="node48" class="node">
<title>クリーニング</title>
<polygon fill="none" stroke="black" points="1059.5,-1823 958.5,-1823 958.5,-1787 1059.5,-1787 1059.5,-1823"/>
<text text-anchor="middle" x="1009" y="-1801.3" font-family="Times,serif" font-size="14.00">クリーニング</text>
</g>
<!-- 現金&#45;&gt;クリーニング -->
<g id="edge69" class="edge">
<title>現金&#45;&gt;クリーニング</title>
<path fill="none" stroke="black" stroke-width="2" d="M519.21,-1773.72C527.99,-1775.73 537.87,-1777.74 547,-1779 690.02,-1798.79 860,-1803.6 948.2,-1804.72"/>
<polygon fill="black" stroke="black" stroke-width="2" points="948.24,-1808.22 958.28,-1804.83 948.32,-1801.22 948.24,-1808.22"/>
</g>
<!-- nanacoポイント -->
<g id="node27" class="node">
<title>nanacoポイント</title>
<polygon fill="none" stroke="black" points="757.5,-586 633.5,-586 633.5,-550 757.5,-550 757.5,-586"/>
<text text-anchor="middle" x="695.5" y="-564.3" font-family="Times,serif" font-size="14.00">nanacoポイント</text>
</g>
<!-- nanaco&#45;&gt;nanacoポイント -->
<g id="edge62" class="edge">
<title>nanaco&#45;&gt;nanacoポイント</title>
<path fill="none" stroke="black" d="M496.89,-583.61C503,-559.92 517.35,-519.69 547,-502 561.12,-493.58 570.15,-493.14 584,-502 600.08,-512.29 587.54,-528.54 602,-541 608.47,-546.57 616.03,-551 624,-554.51"/>
<polygon fill="black" stroke="black" points="622.91,-557.84 633.5,-558.23 625.46,-551.32 622.91,-557.84"/>
<text text-anchor="middle" x="565.5" y="-505.8" font-family="Times,serif" font-size="14.00">0.5%</text>
</g>
<!-- セブンイレブン -->
<g id="node32" class="node">
<title>セブンイレブン</title>
<polygon fill="none" stroke="black" points="1066,-1010 952,-1010 952,-974 1066,-974 1066,-1010"/>
<text text-anchor="middle" x="1009" y="-988.3" font-family="Times,serif" font-size="14.00">セブンイレブン</text>
</g>
<!-- nanaco&#45;&gt;セブンイレブン -->
<g id="edge61" class="edge">
<title>nanaco&#45;&gt;セブンイレブン</title>
<path fill="none" stroke="black" stroke-width="2" d="M503.31,-620.21C537.73,-679.12 655.08,-865.75 807,-952 848.07,-975.32 900.6,-985.21 941.65,-989.33"/>
<polygon fill="black" stroke="black" stroke-width="2" points="941.55,-992.83 951.83,-990.26 942.19,-985.86 941.55,-992.83"/>
</g>
<!-- Edy&#45;&gt;楽天ポイント -->
<g id="edge52" class="edge">
<title>Edy&#45;&gt;楽天ポイント</title>
<path fill="none" stroke="black" d="M519.36,-1036.52C545.37,-1022.14 581.61,-1001.83 584,-999 654.39,-915.73 681.75,-783.67 690.73,-726.23"/>
<polygon fill="black" stroke="black" points="694.22,-726.49 692.24,-716.09 687.3,-725.46 694.22,-726.49"/>
<text text-anchor="middle" x="565.5" y="-1024.8" font-family="Times,serif" font-size="14.00">0.5%</text>
</g>
<!-- Edy&#45;&gt;セブンイレブン -->
<g id="edge66" class="edge">
<title>Edy&#45;&gt;セブンイレブン</title>
<path fill="none" stroke="black" stroke-width="2" d="M519.25,-1047.99C596.85,-1039.1 826.9,-1012.75 941.53,-999.61"/>
<polygon fill="black" stroke="black" stroke-width="2" points="942.05,-1003.08 951.59,-998.46 941.26,-996.12 942.05,-1003.08"/>
</g>
<!-- ヨドバシカメラ -->
<g id="node42" class="node">
<title>ヨドバシカメラ</title>
<polygon fill="none" stroke="black" points="1067,-570 951,-570 951,-534 1067,-534 1067,-570"/>
<text text-anchor="middle" x="1009" y="-548.3" font-family="Times,serif" font-size="14.00">ヨドバシカメラ</text>
</g>
<!-- Edy&#45;&gt;ヨドバシカメラ -->
<g id="edge48" class="edge">
<title>Edy&#45;&gt;ヨドバシカメラ</title>
<path fill="none" stroke="black" stroke-width="2" d="M492.25,-1032.69C490.82,-971.55 494.91,-772.52 602,-671 663.89,-612.33 707.04,-651.57 789,-628 844.74,-611.97 907.11,-589.91 951,-573.68"/>
<polygon fill="black" stroke="black" stroke-width="2" points="952.47,-576.87 960.63,-570.1 950.03,-570.31 952.47,-576.87"/>
</g>
<!-- 業務スーパー -->
<g id="node44" class="node">
<title>業務スーパー</title>
<polygon fill="none" stroke="black" points="1060,-1118 958,-1118 958,-1082 1060,-1082 1060,-1118"/>
<text text-anchor="middle" x="1009" y="-1096.3" font-family="Times,serif" font-size="14.00">業務スーパー</text>
</g>
<!-- Edy&#45;&gt;業務スーパー -->
<g id="edge64" class="edge">
<title>Edy&#45;&gt;業務スーパー</title>
<path fill="none" stroke="black" stroke-width="2" d="M519.12,-1066.16C527.72,-1070.44 537.52,-1074.59 547,-1077 687.06,-1112.66 858.59,-1109.49 947.73,-1104.5"/>
<polygon fill="black" stroke="black" stroke-width="2" points="948.14,-1107.98 957.92,-1103.9 947.73,-1101 948.14,-1107.98"/>
</g>
<!-- 吉野家 -->
<g id="node46" class="node">
<title>吉野家</title>
<polygon fill="none" stroke="black" points="1038.5,-1064 979.5,-1064 979.5,-1028 1038.5,-1028 1038.5,-1064"/>
<text text-anchor="middle" x="1009" y="-1042.3" font-family="Times,serif" font-size="14.00">吉野家</text>
</g>
<!-- Edy&#45;&gt;吉野家 -->
<g id="edge51" class="edge">
<title>Edy&#45;&gt;吉野家</title>
<path fill="none" stroke="black" stroke-width="2" d="M519.2,-1057.44C527.98,-1059.3 537.86,-1061.08 547,-1062 563.36,-1063.65 567.56,-1062.24 584,-1062 739.16,-1059.78 778.05,-1060.41 933,-1052 944.68,-1051.37 957.37,-1050.44 968.94,-1049.51"/>
<polygon fill="black" stroke="black" stroke-width="2" points="969.5,-1052.97 979.18,-1048.65 968.92,-1046 969.5,-1052.97"/>
</g>
<!-- PayPay&#45;&gt;飲食店 -->
<g id="edge27" class="edge">
<title>PayPay&#45;&gt;飲食店</title>
<path fill="none" stroke="black" stroke-width="2" d="M526.39,-1694.94C617.79,-1694.76 871.71,-1694.26 969.2,-1694.08"/>
<polygon fill="black" stroke="black" stroke-width="2" points="969.22,-1697.58 979.21,-1694.06 969.21,-1690.58 969.22,-1697.58"/>
</g>
<!-- メルペイ&#45;&gt;三井住友銀行 -->
<g id="edge72" class="edge">
<title>メルペイ&#45;&gt;三井住友銀行</title>
<path fill="none" stroke="black" stroke-width="2" d="M454.81,-1342.36C391.11,-1366.61 263.04,-1418.87 235,-1457 174.19,-1539.71 247.17,-1594.88 198,-1685 194.03,-1692.28 188.41,-1698.98 182.37,-1704.87"/>
<polygon fill="black" stroke="black" stroke-width="2" points="179.68,-1702.59 174.58,-1711.87 184.36,-1707.79 179.68,-1702.59"/>
</g>
<!-- メルペイ&#45;&gt;メルカリ -->
<g id="edge71" class="edge">
<title>メルペイ&#45;&gt;メルカリ</title>
<path fill="none" stroke="black" stroke-width="2" d="M529.21,-1328.23C620.54,-1326.28 860.17,-1321.16 961.59,-1318.99"/>
<polygon fill="black" stroke="black" stroke-width="2" points="961.9,-1322.49 971.83,-1318.77 961.75,-1315.49 961.9,-1322.49"/>
</g>
<!-- Ponta&#45;&gt;じゃらん -->
<g id="edge54" class="edge">
<title>Ponta&#45;&gt;じゃらん</title>
<path fill="none" stroke="black" d="M724.16,-117.27C770.65,-114.02 865.92,-113.22 933,-152 949.06,-161.29 965.62,-173.54 979.08,-184.3"/>
<polygon fill="black" stroke="black" points="977.06,-187.17 987.02,-190.77 981.48,-181.74 977.06,-187.17"/>
</g>
<!-- ホットペッパー -->
<g id="node52" class="node">
<title>ホットペッパー</title>
<polygon fill="none" stroke="black" points="1067,-91 951,-91 951,-55 1067,-55 1067,-91"/>
<text text-anchor="middle" x="1009" y="-69.3" font-family="Times,serif" font-size="14.00">ホットペッパー</text>
</g>
<!-- Ponta&#45;&gt;ホットペッパー -->
<g id="edge56" class="edge">
<title>Ponta&#45;&gt;ホットペッパー</title>
<path fill="none" stroke="black" d="M724.14,-111.78C772.37,-101.56 873.16,-85.82 940.73,-77.48"/>
<polygon fill="black" stroke="black" points="941.35,-80.93 950.86,-76.26 940.51,-73.98 941.35,-80.93"/>
</g>
<!-- 楽天ポイント&#45;&gt;楽天モバイル -->
<g id="edge45" class="edge">
<title>楽天ポイント&#45;&gt;楽天モバイル</title>
<path fill="none" stroke="black" d="M716.99,-716.02C741.68,-737.15 784.97,-772.42 826,-797 862.86,-819.08 883.06,-807.19 914,-837 940.48,-862.52 924.72,-885.28 951,-911 951.95,-911.93 952.93,-912.83 953.95,-913.7"/>
<polygon fill="black" stroke="black" points="952.15,-916.73 962.27,-919.87 956.32,-911.1 952.15,-916.73"/>
</g>
<!-- 楽天ポイント&#45;&gt;楽天でんき -->
<g id="edge46" class="edge">
<title>楽天ポイント&#45;&gt;楽天でんき</title>
<path fill="none" stroke="black" d="M746.88,-697.2C793.86,-698.79 864.02,-707.37 914,-741 956,-769.26 983.73,-823.24 997.58,-856.19"/>
<polygon fill="black" stroke="black" points="994.43,-857.74 1001.44,-865.69 1000.92,-855.11 994.43,-857.74"/>
</g>
<!-- JREポイント&#45;&gt;Suica -->
<g id="edge20" class="edge">
<title>JREポイント&#45;&gt;Suica</title>
<path fill="none" stroke="black" d="M645.19,-1507.07C615.8,-1505.37 578.25,-1506.48 547,-1518 541.06,-1520.19 530.81,-1527.91 520.83,-1536.21"/>
<polygon fill="black" stroke="black" points="518.32,-1533.76 512.97,-1542.9 522.85,-1539.09 518.32,-1533.76"/>
</g>
<!-- ビックポイント&#45;&gt;ビックカメラ -->
<g id="edge14" class="edge">
<title>ビックポイント&#45;&gt;ビックカメラ</title>
<path fill="none" stroke="black" d="M753.63,-1453.5C808.86,-1448.18 892.19,-1440.15 948.27,-1434.75"/>
<polygon fill="black" stroke="black" points="948.8,-1438.22 958.42,-1433.78 948.13,-1431.25 948.8,-1438.22"/>
</g>
<!-- Amazonポイント -->
<g id="node26" class="node">
<title>Amazonポイント</title>
<polygon fill="none" stroke="black" points="760.5,-274 630.5,-274 630.5,-238 760.5,-238 760.5,-274"/>
<text text-anchor="middle" x="695.5" y="-252.3" font-family="Times,serif" font-size="14.00">Amazonポイント</text>
</g>
<!-- Amazonポイント&#45;&gt;Amazon -->
<g id="edge59" class="edge">
<title>Amazonポイント&#45;&gt;Amazon</title>
<path fill="none" stroke="black" d="M760.61,-256.68C808.25,-261.38 874.8,-270.51 933,-280 942.51,-281.55 952.67,-283.35 962.34,-285.34"/>
<polygon fill="black" stroke="black" points="961.68,-288.78 972.2,-287.48 963.17,-281.94 961.68,-288.78"/>
</g>
<!-- nanacoポイント&#45;&gt;nanaco -->
<g id="edge63" class="edge">
<title>nanacoポイント&#45;&gt;nanaco</title>
<path fill="none" stroke="black" d="M633.21,-578.34C601.73,-583.65 564.14,-590 535.81,-594.78"/>
<polygon fill="black" stroke="black" points="535.1,-591.35 525.82,-596.46 536.27,-598.25 535.1,-591.35"/>
</g>
<!-- ヨドバシゴールドポイント -->
<g id="node28" class="node">
<title>ヨドバシゴールドポイント</title>
<polygon fill="none" stroke="black" points="789,-532 602,-532 602,-496 789,-496 789,-532"/>
<text text-anchor="middle" x="695.5" y="-510.3" font-family="Times,serif" font-size="14.00">ヨドバシゴールドポイント</text>
</g>
<!-- ヨドバシゴールドポイント&#45;&gt;ヨドバシカメラ -->
<g id="edge50" class="edge">
<title>ヨドバシゴールドポイント&#45;&gt;ヨドバシカメラ</title>
<path fill="none" stroke="black" d="M789.05,-514.73C827.85,-516.17 873.32,-519.33 914,-526 922.83,-527.45 932.03,-529.41 941.06,-531.6"/>
<polygon fill="black" stroke="black" points="940.22,-535 950.77,-534.07 941.94,-528.22 940.22,-535"/>
</g>
<!-- はぴeポイント -->
<g id="node29" class="node">
<title>はぴeポイント</title>
<polygon fill="none" stroke="black" points="750.5,-384 640.5,-384 640.5,-348 750.5,-348 750.5,-384"/>
<text text-anchor="middle" x="695.5" y="-362.3" font-family="Times,serif" font-size="14.00">はぴeポイント</text>
</g>
<!-- はぴeポイント&#45;&gt;関西電力 -->
<g id="edge37" class="edge">
<title>はぴeポイント&#45;&gt;関西電力</title>
<path fill="none" stroke="black" d="M750.76,-374.36C810.49,-383.57 905.5,-398.2 961.8,-406.88"/>
<polygon fill="black" stroke="black" points="961.43,-410.37 971.85,-408.43 962.5,-403.45 961.43,-410.37"/>
</g>
<!-- 株主優待券&#45;&gt;住信SBI銀行 -->
<g id="edge30" class="edge">
<title>株主優待券&#45;&gt;住信SBI銀行</title>
<path fill="none" stroke="black" d="M825.62,-1642.64C722.5,-1634.03 454.87,-1606.67 235,-1640 225.6,-1641.43 215.82,-1643.67 206.35,-1646.15"/>
<polygon fill="black" stroke="black" points="205.35,-1642.8 196.63,-1648.81 207.2,-1649.55 205.35,-1642.8"/>
</g>
<!-- 株主優待券&#45;&gt;電車 -->
<g id="edge29" class="edge">
<title>株主優待券&#45;&gt;電車</title>
<path fill="none" stroke="black" stroke-width="2" d="M914.35,-1637.99C932.65,-1635.45 953.75,-1632.52 971.27,-1630.09"/>
<polygon fill="black" stroke="black" stroke-width="2" points="972.24,-1633.49 981.67,-1628.65 971.28,-1626.56 972.24,-1633.49"/>
</g>
<!-- 楽天モバイル&#45;&gt;楽天ポイント -->
<g id="edge44" class="edge">
<title>楽天モバイル&#45;&gt;楽天ポイント</title>
<path fill="none" stroke="black" d="M968.51,-919.9C962.59,-917.01 956.6,-913.99 951,-911 885.24,-875.89 864.18,-872.83 807,-825 770.59,-794.54 735.9,-751.61 715.4,-724.29"/>
<polygon fill="black" stroke="black" points="718.03,-721.96 709.26,-716.01 712.41,-726.13 718.03,-721.96"/>
<text text-anchor="middle" x="870" y="-895.8" font-family="Times,serif" font-size="14.00">0.5%</text>
</g>
<!-- 楽天でんき&#45;&gt;楽天ポイント -->
<g id="edge39" class="edge">
<title>楽天でんき&#45;&gt;楽天ポイント</title>
<path fill="none" stroke="black" d="M993.99,-865.78C979.58,-847.54 956.04,-819.07 933,-797 925.23,-789.56 923.35,-787.33 914,-782 886.39,-766.25 810.78,-738.2 756.47,-718.88"/>
<polygon fill="black" stroke="black" points="757.53,-715.54 746.93,-715.5 755.19,-722.14 757.53,-715.54"/>
<text text-anchor="middle" x="870" y="-785.8" font-family="Times,serif" font-size="14.00">0.5%</text>
</g>
<!-- 関西電力&#45;&gt;はぴeポイント -->
<g id="edge36" class="edge">
<title>関西電力&#45;&gt;はぴeポイント</title>
<path fill="none" stroke="black" d="M982.72,-395.76C964.58,-383.84 939.01,-369.35 914,-363 863.57,-350.2 804.43,-352.05 760.56,-356.48"/>
<polygon fill="black" stroke="black" points="760.16,-353 750.59,-357.56 760.91,-359.96 760.16,-353"/>
<text text-anchor="middle" x="870" y="-366.8" font-family="Times,serif" font-size="14.00">0.5%</text>
</g>
<!-- ビックカメラ&#45;&gt;ビックポイント -->
<g id="edge12" class="edge">
<title>ビックカメラ&#45;&gt;ビックポイント</title>
<path fill="none" stroke="black" stroke-dasharray="5,2" d="M978.12,-1447.14C964.81,-1454.2 948.63,-1461.44 933,-1465 877.03,-1477.74 811.7,-1474.78 763.89,-1469.47"/>
<polygon fill="black" stroke="black" points="764.01,-1465.96 753.67,-1468.27 763.19,-1472.91 764.01,-1465.96"/>
<text text-anchor="middle" x="870" y="-1478.8" font-family="Times,serif" font-size="14.00">9.5%</text>
</g>
<!-- ヨドバシカメラ&#45;&gt;ヨドバシゴールドポイント -->
<g id="edge49" class="edge">
<title>ヨドバシカメラ&#45;&gt;ヨドバシゴールドポイント</title>
<path fill="none" stroke="black" d="M950.96,-545.04C908.58,-539.87 849.6,-532.68 799.1,-526.52"/>
<polygon fill="black" stroke="black" points="799.47,-523.04 789.12,-525.3 798.62,-529.98 799.47,-523.04"/>
<text text-anchor="middle" x="870" y="-544.8" font-family="Times,serif" font-size="14.00">10%</text>
</g>
<!-- Amazon&#45;&gt;Amazonポイント -->
<g id="edge58" class="edge">
<title>Amazon&#45;&gt;Amazonポイント</title>
<path fill="none" stroke="black" d="M972.2,-304.47C959.81,-302.63 945.81,-300.09 933,-298 878.77,-289.16 817.31,-280.63 770.64,-273.21"/>
<polygon fill="black" stroke="black" points="771.04,-269.73 760.61,-271.59 769.93,-276.64 771.04,-269.73"/>
</g>
<!-- じゃらん&#45;&gt;Ponta -->
<g id="edge55" class="edge">
<title>じゃらん&#45;&gt;Ponta</title>
<path fill="none" stroke="black" d="M971.92,-197.59C954.46,-192.14 933.18,-185.6 914,-180 851,-161.6 777.28,-141.58 733.88,-129.94"/>
<polygon fill="black" stroke="black" points="734.61,-126.52 724.04,-127.31 732.8,-133.28 734.61,-126.52"/>
<text text-anchor="middle" x="870" y="-183.8" font-family="Times,serif" font-size="14.00">2%</text>
</g>
<!-- ホットペッパー&#45;&gt;Ponta -->
<g id="edge57" class="edge">
<title>ホットペッパー&#45;&gt;Ponta</title>
<path fill="none" stroke="black" d="M950.86,-86.99C887.85,-98.57 788.28,-113.34 734.31,-118.89"/>
<polygon fill="black" stroke="black" points="733.76,-115.43 724.14,-119.88 734.43,-122.4 733.76,-115.43"/>
</g>
<!-- 楽天市場&#45;&gt;楽天ポイント -->
<g id="edge42" class="edge">
<title>楽天市場&#45;&gt;楽天ポイント</title>
<path fill="none" stroke="black" d="M971.99,-623.53C954.74,-631.46 933.6,-640.49 914,-647 861.93,-664.3 800.98,-678.06 756.87,-686.9"/>
<polygon fill="black" stroke="black" points="756.01,-683.5 746.88,-688.88 757.37,-690.37 756.01,-683.5"/>
<text text-anchor="middle" x="870" y="-675.8" font-family="Times,serif" font-size="14.00">3%</text>
</g>
</g>
</svg>
