<?xml version="1.0" encoding="UTF-8" standalone="no"?>
<!DOCTYPE svg PUBLIC "-//W3C//DTD SVG 1.1//EN"
 "http://www.w3.org/Graphics/SVG/1.1/DTD/svg11.dtd">
<!-- Generated by graphviz version 2.40.1 (0)
 -->
<!-- Title: MoneyFlow Pages: 1 -->
<svg width="1085pt" height="1960pt"
 viewBox="0.00 0.00 1085.00 1960.00" xmlns="http://www.w3.org/2000/svg" xmlns:xlink="http://www.w3.org/1999/xlink">
<g id="graph0" class="graph" transform="scale(1 1) rotate(0) translate(4 1956)">
<title>MoneyFlow</title>
<polygon fill="#ffffff" stroke="transparent" points="-4,4 -4,-1956 1081,-1956 1081,4 -4,4"/>
<!-- 収入 -->
<g id="node1" class="node">
<title>収入</title>
<text text-anchor="middle" x="27" y="-14.3" font-family="Times,serif" font-size="14.00" fill="#000000">収入</text>
</g>
<!-- 銀行口座 -->
<g id="node2" class="node">
<title>銀行口座</title>
<text text-anchor="middle" x="142" y="-14.3" font-family="Times,serif" font-size="14.00" fill="#000000">銀行口座</text>
</g>
<!-- 収入&#45;&gt;銀行口座 -->
<g id="edge1" class="edge">
<title>収入&#45;&gt;銀行口座</title>
<path fill="none" stroke="#000000" d="M54.2534,-18C69.3972,-18 88.4539,-18 104.9357,-18"/>
</g>
<!-- クレジットカード -->
<g id="node3" class="node">
<title>クレジットカード</title>
<text text-anchor="middle" x="322" y="-14.3" font-family="Times,serif" font-size="14.00" fill="#000000">クレジットカード</text>
</g>
<!-- 銀行口座&#45;&gt;クレジットカード -->
<g id="edge2" class="edge">
<title>銀行口座&#45;&gt;クレジットカード</title>
<path fill="none" stroke="#000000" d="M179.2961,-18C201.6417,-18 230.6798,-18 256.7236,-18"/>
</g>
<!-- マネー -->
<g id="node4" class="node">
<title>マネー</title>
<text text-anchor="middle" x="485" y="-14.3" font-family="Times,serif" font-size="14.00" fill="#000000">マネー</text>
</g>
<!-- クレジットカード&#45;&gt;マネー -->
<g id="edge3" class="edge">
<title>クレジットカード&#45;&gt;マネー</title>
<path fill="none" stroke="#000000" d="M387.3591,-18C410.9188,-18 436.353,-18 455.3549,-18"/>
</g>
<!-- ポイント -->
<g id="node5" class="node">
<title>ポイント</title>
<text text-anchor="middle" x="686" y="-14.3" font-family="Times,serif" font-size="14.00" fill="#000000">ポイント</text>
</g>
<!-- マネー&#45;&gt;ポイント -->
<g id="edge4" class="edge">
<title>マネー&#45;&gt;ポイント</title>
<path fill="none" stroke="#000000" d="M514.6582,-18C550.2582,-18 609.9876,-18 648.6865,-18"/>
</g>
<!-- 金券 -->
<g id="node6" class="node">
<title>金券</title>
<text text-anchor="middle" x="870.5" y="-14.3" font-family="Times,serif" font-size="14.00" fill="#000000">金券</text>
</g>
<!-- ポイント&#45;&gt;金券 -->
<g id="edge5" class="edge">
<title>ポイント&#45;&gt;金券</title>
<path fill="none" stroke="#000000" d="M723.3363,-18C758.9263,-18 811.6612,-18 843.3941,-18"/>
</g>
<!-- 支出 -->
<g id="node7" class="node">
<title>支出</title>
<text text-anchor="middle" x="1019" y="-14.3" font-family="Times,serif" font-size="14.00" fill="#000000">支出</text>
</g>
<!-- 金券&#45;&gt;支出 -->
<g id="edge6" class="edge">
<title>金券&#45;&gt;支出</title>
<path fill="none" stroke="#000000" d="M897.7372,-18C924.5314,-18 965.2011,-18 991.9355,-18"/>
</g>
<!-- 給与 -->
<g id="node8" class="node">
<title>給与</title>
<polygon fill="none" stroke="#000000" points="54,-1952 0,-1952 0,-1916 54,-1916 54,-1952"/>
<text text-anchor="middle" x="27" y="-1930.3" font-family="Times,serif" font-size="14.00" fill="#000000">給与</text>
</g>
<!-- 三井住友銀行 -->
<g id="node9" class="node">
<title>三井住友銀行</title>
<polygon fill="none" stroke="#000000" points="193,-1952 91,-1952 91,-1916 193,-1916 193,-1952"/>
<text text-anchor="middle" x="142" y="-1930.3" font-family="Times,serif" font-size="14.00" fill="#000000">三井住友銀行</text>
</g>
<!-- 給与&#45;&gt;三井住友銀行 -->
<g id="edge7" class="edge">
<title>給与&#45;&gt;三井住友銀行</title>
<path fill="none" stroke="#000000" stroke-width="2" d="M54.2534,-1934C62.2529,-1934 71.3442,-1934 80.571,-1934"/>
<polygon fill="#000000" stroke="#000000" stroke-width="2" points="80.5912,-1937.5001 90.5911,-1934 80.5911,-1930.5001 80.5912,-1937.5001"/>
</g>
<!-- 住信SBI銀行 -->
<g id="node10" class="node">
<title>住信SBI銀行</title>
<polygon fill="none" stroke="#000000" points="192,-1831 92,-1831 92,-1795 192,-1795 192,-1831"/>
<text text-anchor="middle" x="142" y="-1809.3" font-family="Times,serif" font-size="14.00" fill="#000000">住信SBI銀行</text>
</g>
<!-- 三井住友銀行&#45;&gt;住信SBI銀行 -->
<g id="edge9" class="edge">
<title>三井住友銀行&#45;&gt;住信SBI銀行</title>
<path fill="none" stroke="#000000" stroke-width="2" d="M142,-1915.9707C142,-1891.204 142,-1866.4373 142,-1841.6705"/>
<polygon fill="#000000" stroke="#000000" stroke-width="2" points="145.5001,-1841.4336 142,-1831.4336 138.5001,-1841.4336 145.5001,-1841.4336"/>
</g>
<!-- 現金 -->
<g id="node15" class="node">
<title>現金</title>
<polygon fill="none" stroke="#000000" points="512,-1849 458,-1849 458,-1813 512,-1813 512,-1849"/>
<text text-anchor="middle" x="485" y="-1827.3" font-family="Times,serif" font-size="14.00" fill="#000000">現金</text>
</g>
<!-- 三井住友銀行&#45;&gt;現金 -->
<g id="edge8" class="edge">
<title>三井住友銀行&#45;&gt;現金</title>
<path fill="none" stroke="#000000" stroke-width="2" d="M193.0737,-1932.8147C199.4824,-1932.1582 205.9188,-1931.2485 212,-1930 299.6882,-1911.9978 397.0665,-1871.3432 448.5104,-1848.1188"/>
<polygon fill="#000000" stroke="#000000" stroke-width="2" points="450.2196,-1851.1863 457.8696,-1843.8563 447.3183,-1844.8158 450.2196,-1851.1863"/>
</g>
<!-- ビックカメラSuicaカード -->
<g id="node11" class="node">
<title>ビックカメラSuicaカード</title>
<polygon fill="none" stroke="#000000" points="414,-1464 230,-1464 230,-1428 414,-1428 414,-1464"/>
<text text-anchor="middle" x="322" y="-1442.3" font-family="Times,serif" font-size="14.00" fill="#000000">ビックカメラSuicaカード</text>
</g>
<!-- 住信SBI銀行&#45;&gt;ビックカメラSuicaカード -->
<g id="edge28" class="edge">
<title>住信SBI銀行&#45;&gt;ビックカメラSuicaカード</title>
<path fill="none" stroke="#000000" stroke-width="2" d="M150.9262,-1794.8004C180.1948,-1735.125 273.3849,-1545.1207 308.4679,-1473.5905"/>
<polygon fill="#000000" stroke="#000000" stroke-width="2" points="311.7587,-1474.8289 313.0199,-1464.3094 305.4739,-1471.7465 311.7587,-1474.8289"/>
</g>
<!-- リクルートカード -->
<g id="node12" class="node">
<title>リクルートカード</title>
<polygon fill="none" stroke="#000000" points="386.5,-377 257.5,-377 257.5,-341 386.5,-341 386.5,-377"/>
<text text-anchor="middle" x="322" y="-355.3" font-family="Times,serif" font-size="14.00" fill="#000000">リクルートカード</text>
</g>
<!-- 住信SBI銀行&#45;&gt;リクルートカード -->
<g id="edge29" class="edge">
<title>住信SBI銀行&#45;&gt;リクルートカード</title>
<path fill="none" stroke="#000000" stroke-width="2" d="M144.2433,-1794.8793C163.1061,-1642.5095 295.1322,-576.0321 318.4768,-387.4598"/>
<polygon fill="#000000" stroke="#000000" stroke-width="2" points="321.9566,-387.8376 319.7118,-377.4834 315.0097,-386.9776 321.9566,-387.8376"/>
</g>
<!-- PiTaPa -->
<g id="node13" class="node">
<title>PiTaPa</title>
<polygon fill="none" stroke="#000000" points="354.5,-1802 289.5,-1802 289.5,-1766 354.5,-1766 354.5,-1802"/>
<text text-anchor="middle" x="322" y="-1780.3" font-family="Times,serif" font-size="14.00" fill="#000000">PiTaPa</text>
</g>
<!-- 住信SBI銀行&#45;&gt;PiTaPa -->
<g id="edge30" class="edge">
<title>住信SBI銀行&#45;&gt;PiTaPa</title>
<path fill="none" stroke="#000000" stroke-width="2" d="M192.14,-1804.9219C219.5984,-1800.498 253.2601,-1795.0748 279.4307,-1790.8584"/>
<polygon fill="#000000" stroke="#000000" stroke-width="2" points="280.1086,-1794.2944 289.4245,-1789.2483 278.9951,-1787.3835 280.1086,-1794.2944"/>
</g>
<!-- 住信SBI銀行&#45;&gt;現金 -->
<g id="edge26" class="edge">
<title>住信SBI銀行&#45;&gt;現金</title>
<path fill="none" stroke="#000000" stroke-width="2" d="M192.2425,-1815.6366C261.7234,-1819.2829 385.5691,-1825.7821 447.529,-1829.0336"/>
<polygon fill="#000000" stroke="#000000" stroke-width="2" points="447.4688,-1832.5352 457.6385,-1829.5641 447.8357,-1825.5448 447.4688,-1832.5352"/>
</g>
<!-- 家賃 -->
<g id="node30" class="node">
<title>家賃</title>
<polygon fill="none" stroke="#000000" points="1046,-1942 992,-1942 992,-1906 1046,-1906 1046,-1942"/>
<text text-anchor="middle" x="1019" y="-1920.3" font-family="Times,serif" font-size="14.00" fill="#000000">家賃</text>
</g>
<!-- 住信SBI銀行&#45;&gt;家賃 -->
<g id="edge27" class="edge">
<title>住信SBI銀行&#45;&gt;家賃</title>
<path fill="none" stroke="#000000" stroke-width="2" d="M159.5067,-1831.4143C189.6605,-1861.0408 254.6715,-1916 322,-1916 322,-1916 322,-1916 870.5,-1916 908.4922,-1916 951.8728,-1918.6432 981.8946,-1920.891"/>
<polygon fill="#000000" stroke="#000000" stroke-width="2" points="981.6862,-1924.3852 991.9258,-1921.6646 982.2245,-1917.4059 981.6862,-1924.3852"/>
</g>
<!-- Suica -->
<g id="node14" class="node">
<title>Suica</title>
<polygon fill="none" stroke="#000000" points="513,-1464 457,-1464 457,-1428 513,-1428 513,-1464"/>
<text text-anchor="middle" x="485" y="-1442.3" font-family="Times,serif" font-size="14.00" fill="#000000">Suica</text>
</g>
<!-- ビックカメラSuicaカード&#45;&gt;Suica -->
<g id="edge15" class="edge">
<title>ビックカメラSuicaカード&#45;&gt;Suica</title>
<path fill="none" stroke="#000000" stroke-width="2" d="M414.4538,-1446C425.7462,-1446 436.7529,-1446 446.5853,-1446"/>
<polygon fill="#000000" stroke="#000000" stroke-width="2" points="446.7516,-1449.5001 456.7515,-1446 446.7515,-1442.5001 446.7516,-1449.5001"/>
</g>
<!-- JREポイント -->
<g id="node21" class="node">
<title>JREポイント</title>
<polygon fill="none" stroke="#000000" points="736.5,-1274 635.5,-1274 635.5,-1238 736.5,-1238 736.5,-1274"/>
<text text-anchor="middle" x="686" y="-1252.3" font-family="Times,serif" font-size="14.00" fill="#000000">JREポイント</text>
</g>
<!-- ビックカメラSuicaカード&#45;&gt;JREポイント -->
<g id="edge10" class="edge">
<title>ビックカメラSuicaカード&#45;&gt;JREポイント</title>
<path fill="none" stroke="#000000" d="M338.2985,-1427.9724C371.6692,-1392.3635 451.8392,-1313.3166 537,-1277 564.6081,-1265.2266 597.4463,-1259.7911 625.2595,-1257.376"/>
<polygon fill="#000000" stroke="#000000" points="625.5538,-1260.8639 635.2601,-1256.6168 625.0238,-1253.884 625.5538,-1260.8639"/>
<text text-anchor="middle" x="485" y="-1331.8" font-family="Times,serif" font-size="14.00" fill="#000000">0.5%</text>
</g>
<!-- ビックポイント -->
<g id="node22" class="node">
<title>ビックポイント</title>
<polygon fill="none" stroke="#000000" points="744,-1556 628,-1556 628,-1520 744,-1520 744,-1556"/>
<text text-anchor="middle" x="686" y="-1534.3" font-family="Times,serif" font-size="14.00" fill="#000000">ビックポイント</text>
</g>
<!-- ビックカメラSuicaカード&#45;&gt;ビックポイント -->
<g id="edge13" class="edge">
<title>ビックカメラSuicaカード&#45;&gt;ビックポイント</title>
<path fill="none" stroke="#000000" d="M348.2937,-1464.0253C369.8166,-1477.8488 401.5696,-1496.1739 432,-1506 492.9649,-1525.6858 565.8016,-1533.3483 617.8138,-1536.2859"/>
<polygon fill="#000000" stroke="#000000" points="617.7604,-1539.7878 627.9289,-1536.8126 618.1245,-1532.7973 617.7604,-1539.7878"/>
<text text-anchor="middle" x="485" y="-1529.8" font-family="Times,serif" font-size="14.00" fill="#000000">0.5%</text>
</g>
<!-- 楽天モバイル -->
<g id="node35" class="node">
<title>楽天モバイル</title>
<polygon fill="none" stroke="#000000" points="1070,-556 968,-556 968,-520 1070,-520 1070,-556"/>
<text text-anchor="middle" x="1019" y="-534.3" font-family="Times,serif" font-size="14.00" fill="#000000">楽天モバイル</text>
</g>
<!-- ビックカメラSuicaカード&#45;&gt;楽天モバイル -->
<g id="edge23" class="edge">
<title>ビックカメラSuicaカード&#45;&gt;楽天モバイル</title>
<path fill="none" stroke="#000000" stroke-width="2" d="M323.3248,-1427.696C332.7872,-1300.2177 392.4076,-550 485,-550 485,-550 485,-550 870.5,-550 899.2837,-550 931.104,-547.7324 957.8819,-545.1687"/>
<polygon fill="#000000" stroke="#000000" stroke-width="2" points="958.2758,-548.6469 967.881,-544.1758 957.584,-541.6812 958.2758,-548.6469"/>
</g>
<!-- ビックカメラ -->
<g id="node42" class="node">
<title>ビックカメラ</title>
<polygon fill="none" stroke="#000000" points="1069.5,-1526 968.5,-1526 968.5,-1490 1069.5,-1490 1069.5,-1526"/>
<text text-anchor="middle" x="1019" y="-1504.3" font-family="Times,serif" font-size="14.00" fill="#000000">ビックカメラ</text>
</g>
<!-- ビックカメラSuicaカード&#45;&gt;ビックカメラ -->
<g id="edge11" class="edge">
<title>ビックカメラSuicaカード&#45;&gt;ビックカメラ</title>
<path fill="none" stroke="#000000" stroke-width="2" stroke-dasharray="5,2" d="M362.3106,-1464.0484C394.7687,-1476.9356 441.9233,-1492 485,-1492 485,-1492 485,-1492 870.5,-1492 899.4712,-1492 931.4397,-1495.0476 958.2711,-1498.4826"/>
<polygon fill="#000000" stroke="#000000" stroke-width="2" points="957.9122,-1501.9656 968.2859,-1499.8125 958.8337,-1495.0265 957.9122,-1501.9656"/>
</g>
<!-- EX予約 -->
<g id="node52" class="node">
<title>EX予約</title>
<polygon fill="none" stroke="#000000" points="1052,-1062 986,-1062 986,-1026 1052,-1026 1052,-1062"/>
<text text-anchor="middle" x="1019" y="-1040.3" font-family="Times,serif" font-size="14.00" fill="#000000">EX予約</text>
</g>
<!-- ビックカメラSuicaカード&#45;&gt;EX予約 -->
<g id="edge20" class="edge">
<title>ビックカメラSuicaカード&#45;&gt;EX予約</title>
<path fill="none" stroke="#000000" stroke-width="2" stroke-dasharray="5,2" d="M332.3473,-1427.8371C363.6548,-1374.7451 463.1768,-1219.153 592,-1149 720.326,-1079.1177 895.4625,-1055.0369 975.6733,-1047.3339"/>
<polygon fill="#000000" stroke="#000000" stroke-width="2" points="976.2536,-1050.7953 985.8903,-1046.3927 975.6114,-1043.8249 976.2536,-1050.7953"/>
</g>
<!-- nanaco -->
<g id="node16" class="node">
<title>nanaco</title>
<polygon fill="none" stroke="#000000" points="519,-859 451,-859 451,-823 519,-823 519,-859"/>
<text text-anchor="middle" x="485" y="-837.3" font-family="Times,serif" font-size="14.00" fill="#000000">nanaco</text>
</g>
<!-- リクルートカード&#45;&gt;nanaco -->
<g id="edge55" class="edge">
<title>リクルートカード&#45;&gt;nanaco</title>
<path fill="none" stroke="#000000" stroke-width="2" d="M328.0923,-377.0153C352.8038,-450.0887 445.6682,-724.6936 475.623,-813.2717"/>
<polygon fill="#000000" stroke="#000000" stroke-width="2" points="472.358,-814.5425 478.8771,-822.8943 478.9891,-812.3 472.358,-814.5425"/>
</g>
<!-- Edy -->
<g id="node17" class="node">
<title>Edy</title>
<polygon fill="none" stroke="#000000" points="512,-694 458,-694 458,-658 512,-658 512,-694"/>
<text text-anchor="middle" x="485" y="-672.3" font-family="Times,serif" font-size="14.00" fill="#000000">Edy</text>
</g>
<!-- リクルートカード&#45;&gt;Edy -->
<g id="edge40" class="edge">
<title>リクルートカード&#45;&gt;Edy</title>
<path fill="none" stroke="#000000" stroke-width="2" d="M340.4049,-377.1075C364.8771,-402.1541 407.9471,-449.7654 433,-498 458.7968,-547.6669 473.5369,-611.9603 480.3411,-648.1129"/>
<polygon fill="#000000" stroke="#000000" stroke-width="2" points="476.8978,-648.7409 482.127,-657.9553 483.7853,-647.491 476.8978,-648.7409"/>
</g>
<!-- Ponta -->
<g id="node18" class="node">
<title>Ponta</title>
<polygon fill="none" stroke="#000000" points="714.5,-377 657.5,-377 657.5,-341 714.5,-341 714.5,-377"/>
<text text-anchor="middle" x="686" y="-355.3" font-family="Times,serif" font-size="14.00" fill="#000000">Ponta</text>
</g>
<!-- リクルートカード&#45;&gt;Ponta -->
<g id="edge50" class="edge">
<title>リクルートカード&#45;&gt;Ponta</title>
<path fill="none" stroke="#000000" d="M386.6565,-359C462.1674,-359 584.6578,-359 646.9453,-359"/>
<polygon fill="#000000" stroke="#000000" points="647.1303,-362.5001 657.1303,-359 647.1303,-355.5001 647.1303,-362.5001"/>
<text text-anchor="middle" x="485" y="-362.8" font-family="Times,serif" font-size="14.00" fill="#000000">1.2%</text>
</g>
<!-- ASAHIネット -->
<g id="node34" class="node">
<title>ASAHIネット</title>
<polygon fill="none" stroke="#000000" points="1073.5,-322 964.5,-322 964.5,-286 1073.5,-286 1073.5,-322"/>
<text text-anchor="middle" x="1019" y="-300.3" font-family="Times,serif" font-size="14.00" fill="#000000">ASAHIネット</text>
</g>
<!-- リクルートカード&#45;&gt;ASAHIネット -->
<g id="edge31" class="edge">
<title>リクルートカード&#45;&gt;ASAHIネット</title>
<path fill="none" stroke="#000000" stroke-width="2" d="M349.8843,-340.9467C381.375,-322.3303 434.7894,-296 485,-296 485,-296 485,-296 870.5,-296 897.9656,-296 928.2473,-297.3814 954.262,-298.9962"/>
<polygon fill="#000000" stroke="#000000" stroke-width="2" points="954.1751,-302.4977 964.3797,-299.6488 954.6258,-295.5122 954.1751,-302.4977"/>
</g>
<!-- 楽天でんき -->
<g id="node36" class="node">
<title>楽天でんき</title>
<polygon fill="none" stroke="#000000" points="1063,-268 975,-268 975,-232 1063,-232 1063,-268"/>
<text text-anchor="middle" x="1019" y="-246.3" font-family="Times,serif" font-size="14.00" fill="#000000">楽天でんき</text>
</g>
<!-- リクルートカード&#45;&gt;楽天でんき -->
<g id="edge38" class="edge">
<title>リクルートカード&#45;&gt;楽天でんき</title>
<path fill="none" stroke="#000000" stroke-width="2" d="M337.5735,-340.9432C364.467,-311.892 422.7462,-258 485,-258 485,-258 485,-258 870.5,-258 901.7728,-258 936.6966,-256.2091 964.8155,-254.322"/>
<polygon fill="#000000" stroke="#000000" stroke-width="2" points="965.1143,-257.8097 974.8479,-253.6255 964.6295,-250.8265 965.1143,-257.8097"/>
</g>
<!-- 関西電力 -->
<g id="node37" class="node">
<title>関西電力</title>
<polygon fill="none" stroke="#000000" points="1056,-1243 982,-1243 982,-1207 1056,-1207 1056,-1243"/>
<text text-anchor="middle" x="1019" y="-1221.3" font-family="Times,serif" font-size="14.00" fill="#000000">関西電力</text>
</g>
<!-- リクルートカード&#45;&gt;関西電力 -->
<g id="edge35" class="edge">
<title>リクルートカード&#45;&gt;関西電力</title>
<path fill="none" stroke="#000000" stroke-width="2" d="M324.9715,-377.0536C336.293,-443.8211 379.7191,-682.4905 451,-868 480.379,-944.4592 493.9869,-961.2934 537,-1031 559.0848,-1066.7904 559.5626,-1081.2323 592,-1108 676.8269,-1178 710.4186,-1183.8705 817,-1211 868.8195,-1224.1903 930.3745,-1226.6485 971.801,-1226.4713"/>
<polygon fill="#000000" stroke="#000000" stroke-width="2" points="971.9155,-1229.9705 981.8813,-1226.3744 971.8481,-1222.9708 971.9155,-1229.9705"/>
</g>
<!-- 楽天損保 -->
<g id="node39" class="node">
<title>楽天損保</title>
<polygon fill="none" stroke="#000000" points="1056,-144 982,-144 982,-108 1056,-108 1056,-144"/>
<text text-anchor="middle" x="1019" y="-122.3" font-family="Times,serif" font-size="14.00" fill="#000000">楽天損保</text>
</g>
<!-- リクルートカード&#45;&gt;楽天損保 -->
<g id="edge39" class="edge">
<title>リクルートカード&#45;&gt;楽天損保</title>
<path fill="none" stroke="#000000" stroke-width="2" d="M325.5152,-340.7169C337.2397,-285.7893 380.3414,-126 485,-126 485,-126 485,-126 870.5,-126 904.2533,-126 942.3221,-126 971.4644,-126"/>
<polygon fill="#000000" stroke="#000000" stroke-width="2" points="971.7726,-129.5001 981.7726,-126 971.7726,-122.5001 971.7726,-129.5001"/>
</g>
<!-- アイハート -->
<g id="node40" class="node">
<title>アイハート</title>
<polygon fill="none" stroke="#000000" points="1062,-90 976,-90 976,-54 1062,-54 1062,-90"/>
<text text-anchor="middle" x="1019" y="-68.3" font-family="Times,serif" font-size="14.00" fill="#000000">アイハート</text>
</g>
<!-- リクルートカード&#45;&gt;アイハート -->
<g id="edge34" class="edge">
<title>リクルートカード&#45;&gt;アイハート</title>
<path fill="none" stroke="#000000" stroke-width="2" d="M323.5838,-340.6103C330.1366,-277.2664 360.9419,-72 485,-72 485,-72 485,-72 870.5,-72 902.072,-72 937.4196,-72 965.7061,-72"/>
<polygon fill="#000000" stroke="#000000" stroke-width="2" points="965.7878,-75.5001 975.7878,-72 965.7878,-68.5001 965.7878,-75.5001"/>
</g>
<!-- Amazon -->
<g id="node50" class="node">
<title>Amazon</title>
<polygon fill="none" stroke="#000000" points="1056,-198 982,-198 982,-162 1056,-162 1056,-198"/>
<text text-anchor="middle" x="1019" y="-176.3" font-family="Times,serif" font-size="14.00" fill="#000000">Amazon</text>
</g>
<!-- リクルートカード&#45;&gt;Amazon -->
<g id="edge32" class="edge">
<title>リクルートカード&#45;&gt;Amazon</title>
<path fill="none" stroke="#000000" stroke-width="2" d="M327.476,-340.6549C343.2197,-292.1123 393.443,-164 485,-164 485,-164 485,-164 870.5,-164 904.5975,-164 942.8469,-168.2215 971.9865,-172.3277"/>
<polygon fill="#000000" stroke="#000000" stroke-width="2" points="971.4923,-175.7925 981.8919,-173.7682 972.4997,-168.8654 971.4923,-175.7925"/>
</g>
<!-- じゃらん -->
<g id="node53" class="node">
<title>じゃらん</title>
<polygon fill="none" stroke="#000000" points="1056,-441 982,-441 982,-405 1056,-405 1056,-441"/>
<text text-anchor="middle" x="1019" y="-419.3" font-family="Times,serif" font-size="14.00" fill="#000000">じゃらん</text>
</g>
<!-- リクルートカード&#45;&gt;じゃらん -->
<g id="edge33" class="edge">
<title>リクルートカード&#45;&gt;じゃらん</title>
<path fill="none" stroke="#000000" stroke-width="2" d="M349.5607,-377.1686C380.9786,-396.0898 434.533,-423 485,-423 485,-423 485,-423 870.5,-423 904.2533,-423 942.3221,-423 971.4644,-423"/>
<polygon fill="#000000" stroke="#000000" stroke-width="2" points="971.7726,-426.5001 981.7726,-423 971.7726,-419.5001 971.7726,-426.5001"/>
</g>
<!-- 電車 -->
<g id="node32" class="node">
<title>電車</title>
<polygon fill="none" stroke="#000000" points="1046,-1802 992,-1802 992,-1766 1046,-1766 1046,-1802"/>
<text text-anchor="middle" x="1019" y="-1780.3" font-family="Times,serif" font-size="14.00" fill="#000000">電車</text>
</g>
<!-- PiTaPa&#45;&gt;電車 -->
<g id="edge66" class="edge">
<title>PiTaPa&#45;&gt;電車</title>
<path fill="none" stroke="#000000" stroke-width="2" d="M354.7816,-1784C387.6969,-1784 439.8637,-1784 485,-1784 485,-1784 485,-1784 870.5,-1784 908.4372,-1784 951.8261,-1784 981.8647,-1784"/>
<polygon fill="#000000" stroke="#000000" stroke-width="2" points="981.9022,-1787.5001 991.9022,-1784 981.9022,-1780.5001 981.9022,-1787.5001"/>
</g>
<!-- バス -->
<g id="node33" class="node">
<title>バス</title>
<polygon fill="none" stroke="#000000" points="1046,-1713 992,-1713 992,-1677 1046,-1677 1046,-1713"/>
<text text-anchor="middle" x="1019" y="-1691.3" font-family="Times,serif" font-size="14.00" fill="#000000">バス</text>
</g>
<!-- PiTaPa&#45;&gt;バス -->
<g id="edge68" class="edge">
<title>PiTaPa&#45;&gt;バス</title>
<path fill="none" stroke="#000000" stroke-width="2" d="M340.2759,-1765.9895C368.6898,-1739.9835 426.3193,-1695 485,-1695 485,-1695 485,-1695 870.5,-1695 908.4372,-1695 951.8261,-1695 981.8647,-1695"/>
<polygon fill="#000000" stroke="#000000" stroke-width="2" points="981.9022,-1698.5001 991.9022,-1695 981.9022,-1691.5001 981.9022,-1698.5001"/>
</g>
<!-- Suica&#45;&gt;JREポイント -->
<g id="edge21" class="edge">
<title>Suica&#45;&gt;JREポイント</title>
<path fill="none" stroke="#000000" d="M495.9803,-1427.7572C520.4416,-1387.3483 578.3377,-1293.0623 592,-1283 601.8264,-1275.7628 613.5448,-1270.4612 625.3182,-1266.5787"/>
<polygon fill="#000000" stroke="#000000" points="626.5965,-1269.85 635.1805,-1263.6398 624.5974,-1263.1415 626.5965,-1269.85"/>
<text text-anchor="middle" x="555.5" y="-1363.8" font-family="Times,serif" font-size="14.00" fill="#000000">1.5%</text>
</g>
<!-- Suica&#45;&gt;電車 -->
<g id="edge16" class="edge">
<title>Suica&#45;&gt;電車</title>
<path fill="none" stroke="#000000" stroke-width="2" d="M494.9485,-1464.2903C520.0093,-1510.2383 584.2902,-1627.2661 592,-1633 667.7809,-1689.3593 707.9435,-1655.9436 799,-1681 863.7783,-1698.8253 883.2934,-1696.1926 943,-1727 959.8715,-1735.7054 976.9364,-1748.1064 990.6097,-1759.1196"/>
<polygon fill="#000000" stroke="#000000" stroke-width="2" points="988.7109,-1762.0903 998.6529,-1765.752 993.1643,-1756.6897 988.7109,-1762.0903"/>
</g>
<!-- 松屋 -->
<g id="node48" class="node">
<title>松屋</title>
<polygon fill="none" stroke="#000000" points="1046,-1116 992,-1116 992,-1080 1046,-1080 1046,-1116"/>
<text text-anchor="middle" x="1019" y="-1094.3" font-family="Times,serif" font-size="14.00" fill="#000000">松屋</text>
</g>
<!-- Suica&#45;&gt;松屋 -->
<g id="edge17" class="edge">
<title>Suica&#45;&gt;松屋</title>
<path fill="none" stroke="#000000" stroke-width="2" d="M491.7014,-1427.8933C498.8952,-1408.1487 510.4419,-1375.5483 519,-1347 528.2242,-1316.2296 520.1419,-1304.3442 537,-1277 554.0266,-1249.3823 563.6465,-1244.7709 592,-1229 725.0011,-1155.0217 905.0512,-1117.4775 981.8311,-1103.9849"/>
<polygon fill="#000000" stroke="#000000" stroke-width="2" points="982.7035,-1107.3863 991.9641,-1102.2394 981.5151,-1100.4879 982.7035,-1107.3863"/>
</g>
<!-- 吉野家 -->
<g id="node49" class="node">
<title>吉野家</title>
<polygon fill="none" stroke="#000000" points="1048.5,-1472 989.5,-1472 989.5,-1436 1048.5,-1436 1048.5,-1472"/>
<text text-anchor="middle" x="1019" y="-1450.3" font-family="Times,serif" font-size="14.00" fill="#000000">吉野家</text>
</g>
<!-- Suica&#45;&gt;吉野家 -->
<g id="edge18" class="edge">
<title>Suica&#45;&gt;吉野家</title>
<path fill="none" stroke="#000000" stroke-width="2" d="M513.3331,-1446.4245C602.256,-1447.7566 876.0027,-1451.8577 979.137,-1453.4028"/>
<polygon fill="#000000" stroke="#000000" stroke-width="2" points="979.3784,-1456.9067 989.4298,-1453.557 979.4834,-1449.9075 979.3784,-1456.9067"/>
</g>
<!-- 株主優待券 -->
<g id="node28" class="node">
<title>株主優待券</title>
<polygon fill="none" stroke="#000000" points="914.5,-1849 826.5,-1849 826.5,-1813 914.5,-1813 914.5,-1849"/>
<text text-anchor="middle" x="870.5" y="-1827.3" font-family="Times,serif" font-size="14.00" fill="#000000">株主優待券</text>
</g>
<!-- 現金&#45;&gt;株主優待券 -->
<g id="edge71" class="edge">
<title>現金&#45;&gt;株主優待券</title>
<path fill="none" stroke="#000000" stroke-width="2" d="M512.1076,-1827.3326C575.1191,-1823.6731 732.4432,-1823.2719 816.1363,-1826.1289"/>
<polygon fill="#000000" stroke="#000000" stroke-width="2" points="816.089,-1829.6294 826.2121,-1826.5034 816.3491,-1822.6343 816.089,-1829.6294"/>
</g>
<!-- 飲食店 -->
<g id="node45" class="node">
<title>飲食店</title>
<polygon fill="none" stroke="#000000" points="1048.5,-1888 989.5,-1888 989.5,-1852 1048.5,-1852 1048.5,-1888"/>
<text text-anchor="middle" x="1019" y="-1866.3" font-family="Times,serif" font-size="14.00" fill="#000000">飲食店</text>
</g>
<!-- 現金&#45;&gt;飲食店 -->
<g id="edge70" class="edge">
<title>現金&#45;&gt;飲食店</title>
<path fill="none" stroke="#000000" stroke-width="2" d="M512.1192,-1845.3334C519.9406,-1848.8159 528.628,-1852.0855 537,-1854 697.6535,-1890.7376 896.2047,-1880.4408 979.4036,-1873.7185"/>
<polygon fill="#000000" stroke="#000000" stroke-width="2" points="979.7604,-1877.201 989.4338,-1872.8795 979.1769,-1870.2253 979.7604,-1877.201"/>
</g>
<!-- nanacoポイント -->
<g id="node24" class="node">
<title>nanacoポイント</title>
<polygon fill="none" stroke="#000000" points="748.5,-997 623.5,-997 623.5,-961 748.5,-961 748.5,-997"/>
<text text-anchor="middle" x="686" y="-975.3" font-family="Times,serif" font-size="14.00" fill="#000000">nanacoポイント</text>
</g>
<!-- nanaco&#45;&gt;nanacoポイント -->
<g id="edge57" class="edge">
<title>nanaco&#45;&gt;nanacoポイント</title>
<path fill="none" stroke="#000000" d="M489.1586,-859.2966C495.4338,-882.6033 509.615,-922.4378 537,-944 558.5668,-960.9812 586.9903,-969.9568 613.2249,-974.6227"/>
<polygon fill="#000000" stroke="#000000" points="612.7268,-978.0874 623.1536,-976.2077 613.8303,-971.175 612.7268,-978.0874"/>
<text text-anchor="middle" x="555.5" y="-967.8" font-family="Times,serif" font-size="14.00" fill="#000000">1%</text>
</g>
<!-- iTunesカード -->
<g id="node29" class="node">
<title>iTunesカード</title>
<polygon fill="none" stroke="#000000" points="924,-905 817,-905 817,-869 924,-869 924,-905"/>
<text text-anchor="middle" x="870.5" y="-883.3" font-family="Times,serif" font-size="14.00" fill="#000000">iTunesカード</text>
</g>
<!-- nanaco&#45;&gt;iTunesカード -->
<g id="edge59" class="edge">
<title>nanaco&#45;&gt;iTunesカード</title>
<path fill="none" stroke="#000000" stroke-width="2" d="M519.2202,-851.0823C525.1121,-852.568 531.2044,-853.9494 537,-855 630.0889,-871.8746 739.5143,-880.2241 806.9397,-884.0696"/>
<polygon fill="#000000" stroke="#000000" stroke-width="2" points="806.8051,-887.5674 816.9836,-884.6267 807.1929,-880.5781 806.8051,-887.5674"/>
</g>
<!-- セブンイレブン -->
<g id="node31" class="node">
<title>セブンイレブン</title>
<polygon fill="none" stroke="#000000" points="1076,-859 962,-859 962,-823 1076,-823 1076,-859"/>
<text text-anchor="middle" x="1019" y="-837.3" font-family="Times,serif" font-size="14.00" fill="#000000">セブンイレブン</text>
</g>
<!-- nanaco&#45;&gt;セブンイレブン -->
<g id="edge56" class="edge">
<title>nanaco&#45;&gt;セブンイレブン</title>
<path fill="none" stroke="#000000" stroke-width="2" d="M519.2164,-841C606.1386,-841 836.6898,-841 951.7369,-841"/>
<polygon fill="#000000" stroke="#000000" stroke-width="2" points="951.8309,-844.5001 961.8309,-841 951.8308,-837.5001 951.8309,-844.5001"/>
</g>
<!-- 楽天ポイント -->
<g id="node20" class="node">
<title>楽天ポイント</title>
<polygon fill="none" stroke="#000000" points="737,-522 635,-522 635,-486 737,-486 737,-522"/>
<text text-anchor="middle" x="686" y="-500.3" font-family="Times,serif" font-size="14.00" fill="#000000">楽天ポイント</text>
</g>
<!-- Edy&#45;&gt;楽天ポイント -->
<g id="edge49" class="edge">
<title>Edy&#45;&gt;楽天ポイント</title>
<path fill="none" stroke="#000000" d="M491.6906,-657.7806C499.8297,-637.6603 515.2318,-605.3006 537,-584 562.5636,-558.9854 597.5365,-539.6627 627.1755,-526.2789"/>
<polygon fill="#000000" stroke="#000000" points="628.8444,-529.3687 636.5925,-522.1426 626.0292,-522.9597 628.8444,-529.3687"/>
<text text-anchor="middle" x="555.5" y="-587.8" font-family="Times,serif" font-size="14.00" fill="#000000">0.5%</text>
</g>
<!-- ヤマト運輸 -->
<g id="node38" class="node">
<title>ヤマト運輸</title>
<polygon fill="none" stroke="#000000" points="1063,-1170 975,-1170 975,-1134 1063,-1134 1063,-1170"/>
<text text-anchor="middle" x="1019" y="-1148.3" font-family="Times,serif" font-size="14.00" fill="#000000">ヤマト運輸</text>
</g>
<!-- Edy&#45;&gt;ヤマト運輸 -->
<g id="edge41" class="edge">
<title>Edy&#45;&gt;ヤマト運輸</title>
<path fill="none" stroke="#000000" stroke-width="2" d="M501.8199,-694.1834C521.5647,-714.4945 556.1871,-747.0074 592,-766 727.4827,-837.8502 823.2483,-744.3837 924,-860 1002.1282,-949.655 890.2755,-1029.3963 961,-1125 962.6184,-1127.1877 964.4582,-1129.2039 966.4623,-1131.0615"/>
<polygon fill="#000000" stroke="#000000" stroke-width="2" points="964.8067,-1134.1996 974.8853,-1137.4668 969.0439,-1128.6276 964.8067,-1134.1996"/>
</g>
<!-- ウェルシア -->
<g id="node41" class="node">
<title>ウェルシア</title>
<polygon fill="none" stroke="#000000" points="1062.5,-1297 975.5,-1297 975.5,-1261 1062.5,-1261 1062.5,-1297"/>
<text text-anchor="middle" x="1019" y="-1275.3" font-family="Times,serif" font-size="14.00" fill="#000000">ウェルシア</text>
</g>
<!-- Edy&#45;&gt;ウェルシア -->
<g id="edge46" class="edge">
<title>Edy&#45;&gt;ウェルシア</title>
<path fill="none" stroke="#000000" stroke-width="2" d="M490.3041,-694.1371C497.7816,-720.3616 511.3606,-770.4978 519,-814 538.7257,-926.3268 502.128,-989.79 592,-1060 717.0035,-1157.6554 802.7467,-1088.7253 924,-1191 948.2378,-1211.4441 937.3848,-1230.8397 961,-1252 962.8819,-1253.6863 964.8874,-1255.286 966.9796,-1256.8014"/>
<polygon fill="#000000" stroke="#000000" stroke-width="2" points="965.1004,-1259.7542 975.4014,-1262.232 968.8939,-1253.8712 965.1004,-1259.7542"/>
</g>
<!-- ヨドバシカメラ -->
<g id="node43" class="node">
<title>ヨドバシカメラ</title>
<polygon fill="none" stroke="#000000" points="1077,-967 961,-967 961,-931 1077,-931 1077,-967"/>
<text text-anchor="middle" x="1019" y="-945.3" font-family="Times,serif" font-size="14.00" fill="#000000">ヨドバシカメラ</text>
</g>
<!-- Edy&#45;&gt;ヨドバシカメラ -->
<g id="edge43" class="edge">
<title>Edy&#45;&gt;ヨドバシカメラ</title>
<path fill="none" stroke="#000000" stroke-width="2" d="M486.7646,-694.2412C490.5983,-723.988 502.3463,-783.0268 537,-817 650.1717,-927.9495 847.2453,-947.7714 950.8646,-950.0235"/>
<polygon fill="#000000" stroke="#000000" stroke-width="2" points="950.841,-953.5235 960.8986,-950.1927 950.9591,-946.5245 950.841,-953.5235"/>
</g>
<!-- 餃子の王将 -->
<g id="node44" class="node">
<title>餃子の王将</title>
<polygon fill="none" stroke="#000000" points="1063,-664 975,-664 975,-628 1063,-628 1063,-664"/>
<text text-anchor="middle" x="1019" y="-642.3" font-family="Times,serif" font-size="14.00" fill="#000000">餃子の王将</text>
</g>
<!-- Edy&#45;&gt;餃子の王将 -->
<g id="edge65" class="edge">
<title>Edy&#45;&gt;餃子の王将</title>
<path fill="none" stroke="#000000" stroke-width="2" d="M512.2153,-674.4711C596.099,-669.7585 851.7998,-655.3933 964.5795,-649.0573"/>
<polygon fill="#000000" stroke="#000000" stroke-width="2" points="964.9266,-652.5434 974.7145,-648.4879 964.5339,-645.5545 964.9266,-652.5434"/>
</g>
<!-- FRESCO -->
<g id="node46" class="node">
<title>FRESCO</title>
<polygon fill="none" stroke="#000000" points="1059,-718 979,-718 979,-682 1059,-682 1059,-718"/>
<text text-anchor="middle" x="1019" y="-696.3" font-family="Times,serif" font-size="14.00" fill="#000000">FRESCO</text>
</g>
<!-- Edy&#45;&gt;FRESCO -->
<g id="edge62" class="edge">
<title>Edy&#45;&gt;FRESCO</title>
<path fill="none" stroke="#000000" stroke-width="2" d="M512.2153,-677.2232C597.147,-681.0403 858.2155,-692.7737 968.7388,-697.7411"/>
<polygon fill="#000000" stroke="#000000" stroke-width="2" points="968.8066,-701.2476 978.9537,-698.2002 969.121,-694.2546 968.8066,-701.2476"/>
</g>
<!-- 業務スーパー -->
<g id="node47" class="node">
<title>業務スーパー</title>
<polygon fill="none" stroke="#000000" points="1069.5,-610 968.5,-610 968.5,-574 1069.5,-574 1069.5,-610"/>
<text text-anchor="middle" x="1019" y="-588.3" font-family="Times,serif" font-size="14.00" fill="#000000">業務スーパー</text>
</g>
<!-- Edy&#45;&gt;業務スーパー -->
<g id="edge61" class="edge">
<title>Edy&#45;&gt;業務スーパー</title>
<path fill="none" stroke="#000000" stroke-width="2" d="M512.2187,-670.6325C533.8154,-666.4414 564.7916,-660.5804 592,-656 722.212,-634.0797 875.4019,-612.0234 958.2952,-600.3971"/>
<polygon fill="#000000" stroke="#000000" stroke-width="2" points="958.8756,-603.85 968.2938,-598.9975 957.9051,-596.9176 958.8756,-603.85"/>
</g>
<!-- Ponta&#45;&gt;じゃらん -->
<g id="edge51" class="edge">
<title>Ponta&#45;&gt;じゃらん</title>
<path fill="none" stroke="#000000" d="M714.6796,-364.512C772.1195,-375.5515 901.7585,-400.4671 971.8652,-413.9411"/>
<polygon fill="#000000" stroke="#000000" points="971.2803,-417.3926 981.7612,-415.843 972.6015,-410.5184 971.2803,-417.3926"/>
</g>
<!-- Tポイント -->
<g id="node19" class="node">
<title>Tポイント</title>
<polygon fill="none" stroke="#000000" points="727.5,-1400 644.5,-1400 644.5,-1364 727.5,-1364 727.5,-1400"/>
<text text-anchor="middle" x="686" y="-1378.3" font-family="Times,serif" font-size="14.00" fill="#000000">Tポイント</text>
</g>
<!-- はぴeポイント -->
<g id="node27" class="node">
<title>はぴeポイント</title>
<polygon fill="none" stroke="#000000" points="741,-1328 631,-1328 631,-1292 741,-1292 741,-1328"/>
<text text-anchor="middle" x="686" y="-1306.3" font-family="Times,serif" font-size="14.00" fill="#000000">はぴeポイント</text>
</g>
<!-- Tポイント&#45;&gt;はぴeポイント -->
<g id="edge48" class="edge">
<title>Tポイント&#45;&gt;はぴeポイント</title>
<path fill="none" stroke="#000000" d="M686,-1363.9539C686,-1355.4073 686,-1346.8607 686,-1338.3142"/>
<polygon fill="#000000" stroke="#000000" points="689.5001,-1338.2812 686,-1328.2813 682.5001,-1338.2813 689.5001,-1338.2812"/>
</g>
<!-- 楽天ポイント&#45;&gt;楽天モバイル -->
<g id="edge25" class="edge">
<title>楽天ポイント&#45;&gt;楽天モバイル</title>
<path fill="none" stroke="#000000" d="M737.4484,-500.6135C785.9105,-498.4238 860.3698,-497.6438 924,-508 936.3927,-510.017 949.3961,-513.3024 961.6673,-516.9747"/>
<polygon fill="#000000" stroke="#000000" points="960.7375,-520.3509 971.326,-519.9859 962.8209,-513.6681 960.7375,-520.3509"/>
</g>
<!-- JREポイント&#45;&gt;Suica -->
<g id="edge22" class="edge">
<title>JREポイント&#45;&gt;Suica</title>
<path fill="none" stroke="#000000" d="M635.1451,-1260.7729C602.969,-1266.3788 562.7337,-1278.557 537,-1305 506.7241,-1336.1104 493.8374,-1386.3416 488.5251,-1417.6978"/>
<polygon fill="#000000" stroke="#000000" points="485.0108,-1417.5228 486.9459,-1427.9394 491.9291,-1418.5896 485.0108,-1417.5228"/>
</g>
<!-- ビックポイント&#45;&gt;ビックカメラ -->
<g id="edge14" class="edge">
<title>ビックポイント&#45;&gt;ビックカメラ</title>
<path fill="none" stroke="#000000" d="M744.0042,-1532.7744C803.9835,-1527.3709 897.2338,-1518.9699 958.2169,-1513.476"/>
<polygon fill="#000000" stroke="#000000" points="958.8185,-1516.936 968.4641,-1512.5528 958.1903,-1509.9643 958.8185,-1516.936"/>
</g>
<!-- Amazonポイント -->
<g id="node23" class="node">
<title>Amazonポイント</title>
<polygon fill="none" stroke="#000000" points="751.5,-229 620.5,-229 620.5,-193 751.5,-193 751.5,-229"/>
<text text-anchor="middle" x="686" y="-207.3" font-family="Times,serif" font-size="14.00" fill="#000000">Amazonポイント</text>
</g>
<!-- Amazonポイント&#45;&gt;Amazon -->
<g id="edge54" class="edge">
<title>Amazonポイント&#45;&gt;Amazon</title>
<path fill="none" stroke="#000000" d="M751.7901,-199.3717C816.563,-191.4967 913.908,-182.6382 971.4901,-179.5301"/>
<polygon fill="#000000" stroke="#000000" points="971.9491,-183.0117 981.7624,-179.0182 971.6006,-176.0203 971.9491,-183.0117"/>
</g>
<!-- nanacoポイント&#45;&gt;nanaco -->
<g id="edge58" class="edge">
<title>nanacoポイント&#45;&gt;nanaco</title>
<path fill="none" stroke="#000000" d="M623.1452,-996.1088C594.5231,-1000.1555 561.6218,-999.1624 537,-982 518.0222,-968.7717 500.3853,-906.2154 491.3376,-869.0161"/>
<polygon fill="#000000" stroke="#000000" points="494.7361,-868.1787 489.0194,-859.2585 487.9257,-869.7967 494.7361,-868.1787"/>
</g>
<!-- FRESCOポイント -->
<g id="node25" class="node">
<title>FRESCOポイント</title>
<polygon fill="none" stroke="#000000" points="754.5,-757 617.5,-757 617.5,-721 754.5,-721 754.5,-757"/>
<text text-anchor="middle" x="686" y="-735.3" font-family="Times,serif" font-size="14.00" fill="#000000">FRESCOポイント</text>
</g>
<!-- FRESCOポイント&#45;&gt;FRESCO -->
<g id="edge64" class="edge">
<title>FRESCOポイント&#45;&gt;FRESCO</title>
<path fill="none" stroke="#000000" d="M754.5126,-748.3351C802.5096,-752.8955 867.8502,-755.1159 924,-743 942.7874,-738.9461 962.3304,-730.8594 978.7713,-722.782"/>
<polygon fill="#000000" stroke="#000000" points="980.7358,-725.7096 988.0638,-718.0577 977.5635,-719.4697 980.7358,-725.7096"/>
</g>
<!-- ヨドバシゴールドポイント -->
<g id="node26" class="node">
<title>ヨドバシゴールドポイント</title>
<polygon fill="none" stroke="#000000" points="780,-1051 592,-1051 592,-1015 780,-1015 780,-1051"/>
<text text-anchor="middle" x="686" y="-1029.3" font-family="Times,serif" font-size="14.00" fill="#000000">ヨドバシゴールドポイント</text>
</g>
<!-- ヨドバシゴールドポイント&#45;&gt;ヨドバシカメラ -->
<g id="edge45" class="edge">
<title>ヨドバシゴールドポイント&#45;&gt;ヨドバシカメラ</title>
<path fill="none" stroke="#000000" d="M780.2059,-1032.8003C824.8104,-1030.2812 878.2129,-1023.6938 924,-1008 947.0437,-1000.1016 970.3193,-985.773 988.0643,-973.2146"/>
<polygon fill="#000000" stroke="#000000" points="990.2723,-975.9366 996.3059,-967.2276 986.1582,-970.2732 990.2723,-975.9366"/>
</g>
<!-- はぴeポイント&#45;&gt;関西電力 -->
<g id="edge37" class="edge">
<title>はぴeポイント&#45;&gt;関西電力</title>
<path fill="none" stroke="#000000" d="M741.362,-1295.8686C805.8314,-1279.4124 911.213,-1252.5132 971.912,-1237.0195"/>
<polygon fill="#000000" stroke="#000000" points="972.7955,-1240.4062 981.6192,-1234.5417 971.0642,-1233.6237 972.7955,-1240.4062"/>
</g>
<!-- 株主優待券&#45;&gt;現金 -->
<g id="edge73" class="edge">
<title>株主優待券&#45;&gt;現金</title>
<path fill="none" stroke="#000000" d="M826.2121,-1835.4966C749.6607,-1838.5968 593.9433,-1838.4981 522.4327,-1835.2005"/>
<polygon fill="#000000" stroke="#000000" points="522.2748,-1831.6878 512.1076,-1834.6674 521.9138,-1838.6785 522.2748,-1831.6878"/>
</g>
<!-- 株主優待券&#45;&gt;電車 -->
<g id="edge72" class="edge">
<title>株主優待券&#45;&gt;電車</title>
<path fill="none" stroke="#000000" stroke-width="2" d="M914.6528,-1817.0257C936.1069,-1810.2355 961.5964,-1802.1681 982.0122,-1795.7066"/>
<polygon fill="#000000" stroke="#000000" stroke-width="2" points="983.1093,-1799.0305 991.587,-1792.6762 980.997,-1792.3568 983.1093,-1799.0305"/>
</g>
<!-- iTunes -->
<g id="node51" class="node">
<title>iTunes</title>
<polygon fill="none" stroke="#000000" points="1051.5,-913 986.5,-913 986.5,-877 1051.5,-877 1051.5,-913"/>
<text text-anchor="middle" x="1019" y="-891.3" font-family="Times,serif" font-size="14.00" fill="#000000">iTunes</text>
</g>
<!-- iTunesカード&#45;&gt;iTunes -->
<g id="edge60" class="edge">
<title>iTunesカード&#45;&gt;iTunes</title>
<path fill="none" stroke="#000000" stroke-width="2" d="M924.1119,-889.8882C941.1494,-890.806 959.7618,-891.8087 975.954,-892.681"/>
<polygon fill="#000000" stroke="#000000" stroke-width="2" points="976.0304,-896.1901 986.2042,-893.2332 976.407,-889.2003 976.0304,-896.1901"/>
</g>
<!-- 電車&#45;&gt;PiTaPa -->
<g id="edge67" class="edge">
<title>電車&#45;&gt;PiTaPa</title>
<path fill="none" stroke="#000000" d="M991.7665,-1771.0986C962.4904,-1758.4327 914.2497,-1741 870.5,-1741 485,-1741 485,-1741 485,-1741 442.9611,-1741 396.7808,-1754.5376 364.3416,-1766.4211"/>
<polygon fill="#000000" stroke="#000000" points="362.8599,-1763.2391 354.7353,-1770.0391 365.3272,-1769.7899 362.8599,-1763.2391"/>
<text text-anchor="middle" x="686" y="-1744.8" font-family="Times,serif" font-size="14.00" fill="#000000">10%</text>
</g>
<!-- バス&#45;&gt;PiTaPa -->
<g id="edge69" class="edge">
<title>バス&#45;&gt;PiTaPa</title>
<path fill="none" stroke="#000000" d="M991.8334,-1688.3306C908.0336,-1669.0916 647.376,-1619.2863 451,-1691 410.7498,-1705.6988 371.8895,-1736.7575 347.5279,-1758.9366"/>
<polygon fill="#000000" stroke="#000000" points="345.0901,-1756.424 340.1444,-1765.7937 349.8537,-1761.5533 345.0901,-1756.424"/>
<text text-anchor="middle" x="686" y="-1663.8" font-family="Times,serif" font-size="14.00" fill="#000000">10%</text>
</g>
<!-- 楽天モバイル&#45;&gt;楽天ポイント -->
<g id="edge24" class="edge">
<title>楽天モバイル&#45;&gt;楽天ポイント</title>
<path fill="none" stroke="#000000" d="M967.876,-527.8279C953.7111,-525.2891 938.2984,-522.7849 924,-521 864.2587,-513.5423 795.6414,-509.0732 747.4812,-506.603"/>
<polygon fill="#000000" stroke="#000000" points="747.3839,-503.0938 737.2219,-506.0911 747.035,-510.0851 747.3839,-503.0938"/>
<text text-anchor="middle" x="870.5" y="-524.8" font-family="Times,serif" font-size="14.00" fill="#000000">0.5%</text>
</g>
<!-- 関西電力&#45;&gt;はぴeポイント -->
<g id="edge36" class="edge">
<title>関西電力&#45;&gt;はぴeポイント</title>
<path fill="none" stroke="#000000" d="M981.732,-1238.8932C974.445,-1242.5359 967.1615,-1246.902 961,-1252 950.4512,-1260.7281 954.7627,-1269.9932 943,-1277 884.9084,-1311.6042 806.4328,-1316.949 751.5377,-1315.4643"/>
<polygon fill="#000000" stroke="#000000" points="751.3475,-1311.9554 741.2296,-1315.0981 751.099,-1318.951 751.3475,-1311.9554"/>
<text text-anchor="middle" x="870.5" y="-1317.8" font-family="Times,serif" font-size="14.00" fill="#000000">0.8%, 0.5%</text>
</g>
<!-- ヤマト運輸&#45;&gt;Tポイント -->
<g id="edge42" class="edge">
<title>ヤマト運輸&#45;&gt;Tポイント</title>
<path fill="none" stroke="#000000" d="M974.9984,-1169.0646C930.679,-1188.0271 862.5185,-1222.2508 817,-1269 792.9976,-1293.6513 804.9513,-1313.3096 780,-1337 767.8303,-1348.5547 752.14,-1357.6437 737.0776,-1364.5369"/>
<polygon fill="#000000" stroke="#000000" points="735.6027,-1361.3614 727.8174,-1368.5475 738.3847,-1367.7849 735.6027,-1361.3614"/>
<text text-anchor="middle" x="870.5" y="-1272.8" font-family="Times,serif" font-size="14.00" fill="#000000">0.5%</text>
</g>
<!-- ウェルシア&#45;&gt;Tポイント -->
<g id="edge47" class="edge">
<title>ウェルシア&#45;&gt;Tポイント</title>
<path fill="none" stroke="#000000" d="M992.2699,-1297.2225C973.8219,-1309.0236 948.325,-1323.8451 924,-1333 862.0743,-1356.3062 786.6918,-1369.4473 737.5863,-1376.1306"/>
<polygon fill="#000000" stroke="#000000" points="736.9765,-1372.6807 727.5209,-1377.4601 737.8932,-1379.6204 736.9765,-1372.6807"/>
<text text-anchor="middle" x="870.5" y="-1366.8" font-family="Times,serif" font-size="14.00" fill="#000000">1%</text>
</g>
<!-- ビックカメラ&#45;&gt;ビックポイント -->
<g id="edge12" class="edge">
<title>ビックカメラ&#45;&gt;ビックポイント</title>
<path fill="none" stroke="#000000" stroke-dasharray="5,2" d="M988.6915,-1526.143C975.1992,-1533.2043 958.811,-1540.4446 943,-1544 880.237,-1558.1133 806.676,-1554.4315 754.374,-1548.5193"/>
<polygon fill="#000000" stroke="#000000" points="754.5496,-1545.0157 744.2066,-1547.3118 753.724,-1551.9668 754.5496,-1545.0157"/>
<text text-anchor="middle" x="870.5" y="-1557.8" font-family="Times,serif" font-size="14.00" fill="#000000">9.5%</text>
</g>
<!-- ヨドバシカメラ&#45;&gt;ヨドバシゴールドポイント -->
<g id="edge44" class="edge">
<title>ヨドバシカメラ&#45;&gt;ヨドバシゴールドポイント</title>
<path fill="none" stroke="#000000" d="M960.6261,-959.7324C920.0281,-967.6784 864.8263,-979.4452 817,-993 800.2306,-997.7528 796.6055,-1000.7029 780,-1006 773.642,-1008.0282 767.0205,-1010.07 760.3663,-1012.0735"/>
<polygon fill="#000000" stroke="#000000" points="759.2059,-1008.7671 750.6206,-1014.9754 761.2036,-1015.476 759.2059,-1008.7671"/>
<text text-anchor="middle" x="870.5" y="-996.8" font-family="Times,serif" font-size="14.00" fill="#000000">10%</text>
</g>
<!-- FRESCO&#45;&gt;FRESCOポイント -->
<g id="edge63" class="edge">
<title>FRESCO&#45;&gt;FRESCOポイント</title>
<path fill="none" stroke="#000000" d="M978.7282,-704.7165C925.8713,-710.907 831.9362,-721.9084 764.7245,-729.78"/>
<polygon fill="#000000" stroke="#000000" points="764.119,-726.3269 754.594,-730.9665 764.9333,-733.2794 764.119,-726.3269"/>
<text text-anchor="middle" x="870.5" y="-727.8" font-family="Times,serif" font-size="14.00" fill="#000000">0.5%</text>
</g>
<!-- 吉野家&#45;&gt;Tポイント -->
<g id="edge19" class="edge">
<title>吉野家&#45;&gt;Tポイント</title>
<path fill="none" stroke="#000000" d="M989.2977,-1443.9491C970.6898,-1437.8985 946.1236,-1430.3557 924,-1425 860.3736,-1409.5973 785.9706,-1397.0067 737.517,-1389.5159"/>
<polygon fill="#000000" stroke="#000000" points="737.9991,-1386.049 727.5847,-1387.9957 736.94,-1392.9684 737.9991,-1386.049"/>
<text text-anchor="middle" x="870.5" y="-1428.8" font-family="Times,serif" font-size="14.00" fill="#000000">0.5%</text>
</g>
<!-- Amazon&#45;&gt;Amazonポイント -->
<g id="edge53" class="edge">
<title>Amazon&#45;&gt;Amazonポイント</title>
<path fill="none" stroke="#000000" d="M981.7624,-187.9149C928.8672,-195.3726 830.7837,-204.9454 762.1216,-209.6879"/>
<polygon fill="#000000" stroke="#000000" points="761.5341,-206.2193 751.7901,-210.3791 762.0015,-213.2037 761.5341,-206.2193"/>
</g>
<!-- じゃらん&#45;&gt;Ponta -->
<g id="edge52" class="edge">
<title>じゃらん&#45;&gt;Ponta</title>
<path fill="none" stroke="#000000" d="M996.3807,-404.844C978.0592,-391.3227 950.9496,-373.893 924,-366 856.138,-346.1246 772.6995,-349.6857 724.8023,-354.2366"/>
<polygon fill="#000000" stroke="#000000" points="724.1619,-350.7836 714.5669,-355.2764 724.8695,-357.7477 724.1619,-350.7836"/>
<text text-anchor="middle" x="870.5" y="-369.8" font-family="Times,serif" font-size="14.00" fill="#000000">2%</text>
</g>
</g>
</svg>
