<?xml version="1.0" encoding="UTF-8" standalone="no"?>
<!DOCTYPE svg PUBLIC "-//W3C//DTD SVG 1.1//EN"
 "http://www.w3.org/Graphics/SVG/1.1/DTD/svg11.dtd">
<!-- Generated by graphviz version 2.40.1 (0)
 -->
<!-- Title: MoneyFlow Pages: 1 -->
<svg width="1085pt" height="1794pt"
 viewBox="0.00 0.00 1085.00 1794.00" xmlns="http://www.w3.org/2000/svg" xmlns:xlink="http://www.w3.org/1999/xlink">
<g id="graph0" class="graph" transform="scale(1 1) rotate(0) translate(4 1790)">
<title>MoneyFlow</title>
<polygon fill="#ffffff" stroke="transparent" points="-4,4 -4,-1790 1081,-1790 1081,4 -4,4"/>
<!-- 収入 -->
<g id="node1" class="node">
<title>収入</title>
<text text-anchor="middle" x="27" y="-14.3" font-family="Times,serif" font-size="14.00" fill="#000000">収入</text>
</g>
<!-- 銀行口座 -->
<g id="node2" class="node">
<title>銀行口座</title>
<text text-anchor="middle" x="142" y="-14.3" font-family="Times,serif" font-size="14.00" fill="#000000">銀行口座</text>
</g>
<!-- 収入&#45;&gt;銀行口座 -->
<g id="edge1" class="edge">
<title>収入&#45;&gt;銀行口座</title>
<path fill="none" stroke="#000000" d="M54.2534,-18C69.3972,-18 88.4539,-18 104.9357,-18"/>
</g>
<!-- クレジットカード -->
<g id="node3" class="node">
<title>クレジットカード</title>
<text text-anchor="middle" x="322" y="-14.3" font-family="Times,serif" font-size="14.00" fill="#000000">クレジットカード</text>
</g>
<!-- 銀行口座&#45;&gt;クレジットカード -->
<g id="edge2" class="edge">
<title>銀行口座&#45;&gt;クレジットカード</title>
<path fill="none" stroke="#000000" d="M179.2961,-18C201.6417,-18 230.6798,-18 256.7236,-18"/>
</g>
<!-- マネー -->
<g id="node4" class="node">
<title>マネー</title>
<text text-anchor="middle" x="485" y="-14.3" font-family="Times,serif" font-size="14.00" fill="#000000">マネー</text>
</g>
<!-- クレジットカード&#45;&gt;マネー -->
<g id="edge3" class="edge">
<title>クレジットカード&#45;&gt;マネー</title>
<path fill="none" stroke="#000000" d="M387.3591,-18C410.9188,-18 436.353,-18 455.3549,-18"/>
</g>
<!-- ポイント -->
<g id="node5" class="node">
<title>ポイント</title>
<text text-anchor="middle" x="686" y="-14.3" font-family="Times,serif" font-size="14.00" fill="#000000">ポイント</text>
</g>
<!-- マネー&#45;&gt;ポイント -->
<g id="edge4" class="edge">
<title>マネー&#45;&gt;ポイント</title>
<path fill="none" stroke="#000000" d="M514.6582,-18C550.2582,-18 609.9876,-18 648.6865,-18"/>
</g>
<!-- 金券 -->
<g id="node6" class="node">
<title>金券</title>
<text text-anchor="middle" x="870.5" y="-14.3" font-family="Times,serif" font-size="14.00" fill="#000000">金券</text>
</g>
<!-- ポイント&#45;&gt;金券 -->
<g id="edge5" class="edge">
<title>ポイント&#45;&gt;金券</title>
<path fill="none" stroke="#000000" d="M723.3363,-18C758.9263,-18 811.6612,-18 843.3941,-18"/>
</g>
<!-- 支出 -->
<g id="node7" class="node">
<title>支出</title>
<text text-anchor="middle" x="1019" y="-14.3" font-family="Times,serif" font-size="14.00" fill="#000000">支出</text>
</g>
<!-- 金券&#45;&gt;支出 -->
<g id="edge6" class="edge">
<title>金券&#45;&gt;支出</title>
<path fill="none" stroke="#000000" d="M897.7372,-18C924.5314,-18 965.2011,-18 991.9355,-18"/>
</g>
<!-- 給与 -->
<g id="node8" class="node">
<title>給与</title>
<polygon fill="none" stroke="#000000" points="54,-285 0,-285 0,-249 54,-249 54,-285"/>
<text text-anchor="middle" x="27" y="-263.3" font-family="Times,serif" font-size="14.00" fill="#000000">給与</text>
</g>
<!-- 三井住友銀行 -->
<g id="node9" class="node">
<title>三井住友銀行</title>
<polygon fill="none" stroke="#000000" points="193,-285 91,-285 91,-249 193,-249 193,-285"/>
<text text-anchor="middle" x="142" y="-263.3" font-family="Times,serif" font-size="14.00" fill="#000000">三井住友銀行</text>
</g>
<!-- 給与&#45;&gt;三井住友銀行 -->
<g id="edge7" class="edge">
<title>給与&#45;&gt;三井住友銀行</title>
<path fill="none" stroke="#000000" stroke-width="2" d="M54.2534,-267C62.2529,-267 71.3442,-267 80.571,-267"/>
<polygon fill="#000000" stroke="#000000" stroke-width="2" points="80.5912,-270.5001 90.5911,-267 80.5911,-263.5001 80.5912,-270.5001"/>
</g>
<!-- 住信SBI銀行 -->
<g id="node10" class="node">
<title>住信SBI銀行</title>
<polygon fill="none" stroke="#000000" points="192,-213 92,-213 92,-177 192,-177 192,-213"/>
<text text-anchor="middle" x="142" y="-191.3" font-family="Times,serif" font-size="14.00" fill="#000000">住信SBI銀行</text>
</g>
<!-- 三井住友銀行&#45;&gt;住信SBI銀行 -->
<g id="edge9" class="edge">
<title>三井住友銀行&#45;&gt;住信SBI銀行</title>
<path fill="none" stroke="#000000" stroke-width="2" d="M142,-248.9539C142,-240.4073 142,-231.8607 142,-223.3142"/>
<polygon fill="#000000" stroke="#000000" stroke-width="2" points="145.5001,-223.2812 142,-213.2813 138.5001,-223.2813 145.5001,-223.2812"/>
</g>
<!-- 現金 -->
<g id="node14" class="node">
<title>現金</title>
<polygon fill="none" stroke="#000000" points="512,-1589 458,-1589 458,-1553 512,-1553 512,-1589"/>
<text text-anchor="middle" x="485" y="-1567.3" font-family="Times,serif" font-size="14.00" fill="#000000">現金</text>
</g>
<!-- 三井住友銀行&#45;&gt;現金 -->
<g id="edge8" class="edge">
<title>三井住友銀行&#45;&gt;現金</title>
<path fill="none" stroke="#000000" stroke-width="2" d="M142.3452,-285.0477C145.3044,-435.6891 167.3563,-1479.7096 211,-1528 270.849,-1594.221 387.6892,-1587.0864 447.6054,-1578.1088"/>
<polygon fill="#000000" stroke="#000000" stroke-width="2" points="448.4347,-1581.5208 457.7575,-1576.4873 447.3306,-1574.6085 448.4347,-1581.5208"/>
</g>
<!-- 関西電力 -->
<g id="node37" class="node">
<title>関西電力</title>
<polygon fill="none" stroke="#000000" points="1056,-131 982,-131 982,-95 1056,-95 1056,-131"/>
<text text-anchor="middle" x="1019" y="-109.3" font-family="Times,serif" font-size="14.00" fill="#000000">関西電力</text>
</g>
<!-- 三井住友銀行&#45;&gt;関西電力 -->
<g id="edge10" class="edge">
<title>三井住友銀行&#45;&gt;関西電力</title>
<path fill="none" stroke="#000000" stroke-width="2" d="M193.1417,-261.0463C301.7653,-248.0369 563.2924,-214.7838 780,-172 847.3293,-158.7074 924.2282,-138.8769 972.2005,-125.9404"/>
<polygon fill="#000000" stroke="#000000" stroke-width="2" points="973.2478,-129.2829 981.9843,-123.2893 971.417,-122.5265 973.2478,-129.2829"/>
</g>
<!-- ビックカメラSuicaカード -->
<g id="node11" class="node">
<title>ビックカメラSuicaカード</title>
<polygon fill="none" stroke="#000000" points="414,-1206 230,-1206 230,-1170 414,-1170 414,-1206"/>
<text text-anchor="middle" x="322" y="-1184.3" font-family="Times,serif" font-size="14.00" fill="#000000">ビックカメラSuicaカード</text>
</g>
<!-- 住信SBI銀行&#45;&gt;ビックカメラSuicaカード -->
<g id="edge31" class="edge">
<title>住信SBI銀行&#45;&gt;ビックカメラSuicaカード</title>
<path fill="none" stroke="#000000" stroke-width="2" d="M169.5252,-213.168C178.4257,-220.4462 187.4269,-229.5898 193,-240 237.6938,-323.4842 305.1249,-1010.4849 319.3197,-1159.5387"/>
<polygon fill="#000000" stroke="#000000" stroke-width="2" points="315.8549,-1160.0758 320.2842,-1169.7004 322.8236,-1159.4144 315.8549,-1160.0758"/>
</g>
<!-- リクルートカード -->
<g id="node12" class="node">
<title>リクルートカード</title>
<polygon fill="none" stroke="#000000" points="386.5,-382 257.5,-382 257.5,-346 386.5,-346 386.5,-382"/>
<text text-anchor="middle" x="322" y="-360.3" font-family="Times,serif" font-size="14.00" fill="#000000">リクルートカード</text>
</g>
<!-- 住信SBI銀行&#45;&gt;リクルートカード -->
<g id="edge32" class="edge">
<title>住信SBI銀行&#45;&gt;リクルートカード</title>
<path fill="none" stroke="#000000" stroke-width="2" d="M192.1611,-190.631C199.1188,-191.6559 205.9467,-193.6263 212,-197 266.5391,-227.3962 298.7373,-297.5045 313.0676,-336.5264"/>
<polygon fill="#000000" stroke="#000000" stroke-width="2" points="309.7714,-337.7037 316.4066,-345.9635 316.3705,-335.3687 309.7714,-337.7037"/>
</g>
<!-- 住信SBI銀行&#45;&gt;現金 -->
<g id="edge29" class="edge">
<title>住信SBI銀行&#45;&gt;現金</title>
<path fill="none" stroke="#000000" stroke-width="2" d="M170.3652,-213.0979C179.2283,-220.315 187.9904,-229.4378 193,-240 239.4583,-337.9522 194.8953,-1112.4297 230,-1215 278.552,-1356.8613 403.6431,-1491.4357 458.5244,-1545.7529"/>
<polygon fill="#000000" stroke="#000000" stroke-width="2" points="456.1973,-1548.3731 465.7871,-1552.8771 461.0992,-1543.3758 456.1973,-1548.3731"/>
</g>
<!-- 家賃 -->
<g id="node30" class="node">
<title>家賃</title>
<polygon fill="none" stroke="#000000" points="1046,-185 992,-185 992,-149 1046,-149 1046,-185"/>
<text text-anchor="middle" x="1019" y="-163.3" font-family="Times,serif" font-size="14.00" fill="#000000">家賃</text>
</g>
<!-- 住信SBI銀行&#45;&gt;家賃 -->
<g id="edge30" class="edge">
<title>住信SBI銀行&#45;&gt;家賃</title>
<path fill="none" stroke="#000000" stroke-width="2" d="M192.2532,-178.9865C228.0441,-168.9868 277.4948,-158 322,-158 322,-158 322,-158 798.5,-158 862.9184,-158 937.8349,-161.8823 981.6717,-164.5472"/>
<polygon fill="#000000" stroke="#000000" stroke-width="2" points="981.6604,-168.0531 991.8578,-165.1787 982.0936,-161.0666 981.6604,-168.0531"/>
</g>
<!-- Suica -->
<g id="node13" class="node">
<title>Suica</title>
<polygon fill="none" stroke="#000000" points="513,-1259 457,-1259 457,-1223 513,-1223 513,-1259"/>
<text text-anchor="middle" x="485" y="-1237.3" font-family="Times,serif" font-size="14.00" fill="#000000">Suica</text>
</g>
<!-- ビックカメラSuicaカード&#45;&gt;Suica -->
<g id="edge18" class="edge">
<title>ビックカメラSuicaカード&#45;&gt;Suica</title>
<path fill="none" stroke="#000000" stroke-width="2" d="M377.6395,-1206.0914C400.4655,-1213.5133 426.3107,-1221.917 446.9224,-1228.6189"/>
<polygon fill="#000000" stroke="#000000" stroke-width="2" points="445.9921,-1231.9968 456.5843,-1231.7605 448.1566,-1225.3398 445.9921,-1231.9968"/>
</g>
<!-- JREポイント -->
<g id="node20" class="node">
<title>JREポイント</title>
<polygon fill="none" stroke="#000000" points="736.5,-1252 635.5,-1252 635.5,-1216 736.5,-1216 736.5,-1252"/>
<text text-anchor="middle" x="686" y="-1230.3" font-family="Times,serif" font-size="14.00" fill="#000000">JREポイント</text>
</g>
<!-- ビックカメラSuicaカード&#45;&gt;JREポイント -->
<g id="edge13" class="edge">
<title>ビックカメラSuicaカード&#45;&gt;JREポイント</title>
<path fill="none" stroke="#000000" d="M343.0215,-1206.2663C367.1776,-1225.9343 408.9284,-1256.0135 451,-1268 510.7156,-1285.0134 581.5138,-1270.2363 629.6808,-1255.1882"/>
<polygon fill="#000000" stroke="#000000" points="630.8601,-1258.4854 639.3028,-1252.0845 628.7111,-1251.8234 630.8601,-1258.4854"/>
<text text-anchor="middle" x="485" y="-1278.8" font-family="Times,serif" font-size="14.00" fill="#000000">0.5%</text>
</g>
<!-- ビックポイント -->
<g id="node21" class="node">
<title>ビックポイント</title>
<polygon fill="none" stroke="#000000" points="744,-1160 628,-1160 628,-1124 744,-1124 744,-1160"/>
<text text-anchor="middle" x="686" y="-1138.3" font-family="Times,serif" font-size="14.00" fill="#000000">ビックポイント</text>
</g>
<!-- ビックカメラSuicaカード&#45;&gt;ビックポイント -->
<g id="edge16" class="edge">
<title>ビックカメラSuicaカード&#45;&gt;ビックポイント</title>
<path fill="none" stroke="#000000" d="M393.29,-1169.9834C411.9657,-1165.8118 432.1521,-1161.7845 451,-1159 506.7957,-1150.7571 570.6601,-1146.4619 617.7154,-1144.2532"/>
<polygon fill="#000000" stroke="#000000" points="617.9596,-1147.7458 627.7922,-1143.7999 617.645,-1140.7529 617.9596,-1147.7458"/>
<text text-anchor="middle" x="485" y="-1162.8" font-family="Times,serif" font-size="14.00" fill="#000000">0.5%</text>
</g>
<!-- 楽天モバイル -->
<g id="node36" class="node">
<title>楽天モバイル</title>
<polygon fill="none" stroke="#000000" points="1070,-739 968,-739 968,-703 1070,-703 1070,-739"/>
<text text-anchor="middle" x="1019" y="-717.3" font-family="Times,serif" font-size="14.00" fill="#000000">楽天モバイル</text>
</g>
<!-- ビックカメラSuicaカード&#45;&gt;楽天モバイル -->
<g id="edge26" class="edge">
<title>ビックカメラSuicaカード&#45;&gt;楽天モバイル</title>
<path fill="none" stroke="#000000" stroke-width="2" d="M324.6845,-1169.8624C337.367,-1087.5354 394.4719,-753 485,-753 485,-753 485,-753 870.5,-753 899.6149,-753 931.2348,-747.0491 957.7848,-740.2798"/>
<polygon fill="#000000" stroke="#000000" stroke-width="2" points="958.925,-743.5987 967.6963,-737.6561 957.1336,-736.8317 958.925,-743.5987"/>
</g>
<!-- ビックカメラ -->
<g id="node41" class="node">
<title>ビックカメラ</title>
<polygon fill="none" stroke="#000000" points="1069.5,-1241 968.5,-1241 968.5,-1205 1069.5,-1205 1069.5,-1241"/>
<text text-anchor="middle" x="1019" y="-1219.3" font-family="Times,serif" font-size="14.00" fill="#000000">ビックカメラ</text>
</g>
<!-- ビックカメラSuicaカード&#45;&gt;ビックカメラ -->
<g id="edge14" class="edge">
<title>ビックカメラSuicaカード&#45;&gt;ビックカメラ</title>
<path fill="none" stroke="#000000" stroke-width="2" stroke-dasharray="5,2" d="M414.1432,-1191.1352C506.6543,-1194.4447 653.2523,-1200.1295 780,-1207 840.6711,-1210.2888 909.939,-1215.0353 958.228,-1218.5043"/>
<polygon fill="#000000" stroke="#000000" stroke-width="2" points="957.9773,-1221.9952 968.2033,-1219.2242 958.4812,-1215.0134 957.9773,-1221.9952"/>
</g>
<!-- EX予約 -->
<g id="node51" class="node">
<title>EX予約</title>
<polygon fill="none" stroke="#000000" points="1052,-1509 986,-1509 986,-1473 1052,-1473 1052,-1509"/>
<text text-anchor="middle" x="1019" y="-1487.3" font-family="Times,serif" font-size="14.00" fill="#000000">EX予約</text>
</g>
<!-- ビックカメラSuicaカード&#45;&gt;EX予約 -->
<g id="edge23" class="edge">
<title>ビックカメラSuicaカード&#45;&gt;EX予約</title>
<path fill="none" stroke="#000000" stroke-width="2" stroke-dasharray="5,2" d="M408.4227,-1206.1536C410.3793,-1207.6502 412.2447,-1209.2628 414,-1211 425.1002,-1221.9859 469.3826,-1483 485,-1483 485,-1483 485,-1483 870.5,-1483 906.0672,-1483 946.3568,-1485.3166 975.9873,-1487.4565"/>
<polygon fill="#000000" stroke="#000000" stroke-width="2" points="975.7659,-1490.9496 985.9982,-1488.202 976.2858,-1483.969 975.7659,-1490.9496"/>
</g>
<!-- nanaco -->
<g id="node15" class="node">
<title>nanaco</title>
<polygon fill="none" stroke="#000000" points="519,-474 451,-474 451,-438 519,-438 519,-474"/>
<text text-anchor="middle" x="485" y="-452.3" font-family="Times,serif" font-size="14.00" fill="#000000">nanaco</text>
</g>
<!-- リクルートカード&#45;&gt;nanaco -->
<g id="edge52" class="edge">
<title>リクルートカード&#45;&gt;nanaco</title>
<path fill="none" stroke="#000000" stroke-width="2" d="M354.2036,-382.1762C379.9891,-396.73 416.3201,-417.2359 444.1504,-432.9438"/>
<polygon fill="#000000" stroke="#000000" stroke-width="2" points="442.4344,-435.9942 452.8633,-437.8615 445.8751,-429.8982 442.4344,-435.9942"/>
</g>
<!-- Edy -->
<g id="node16" class="node">
<title>Edy</title>
<polygon fill="none" stroke="#000000" points="512,-885 458,-885 458,-849 512,-849 512,-885"/>
<text text-anchor="middle" x="485" y="-863.3" font-family="Times,serif" font-size="14.00" fill="#000000">Edy</text>
</g>
<!-- リクルートカード&#45;&gt;Edy -->
<g id="edge38" class="edge">
<title>リクルートカード&#45;&gt;Edy</title>
<path fill="none" stroke="#000000" stroke-width="2" d="M327.8976,-382.1992C352.4085,-457.8373 446.328,-747.6625 475.9765,-839.1545"/>
<polygon fill="#000000" stroke="#000000" stroke-width="2" points="472.698,-840.3913 479.1104,-848.8253 479.3571,-838.2333 472.698,-840.3913"/>
</g>
<!-- Ponta -->
<g id="node17" class="node">
<title>Ponta</title>
<polygon fill="none" stroke="#000000" points="714.5,-336 657.5,-336 657.5,-300 714.5,-300 714.5,-336"/>
<text text-anchor="middle" x="686" y="-314.3" font-family="Times,serif" font-size="14.00" fill="#000000">Ponta</text>
</g>
<!-- リクルートカード&#45;&gt;Ponta -->
<g id="edge47" class="edge">
<title>リクルートカード&#45;&gt;Ponta</title>
<path fill="none" stroke="#000000" d="M386.6105,-347.4955C407.0821,-342.8003 429.8813,-338.1199 451,-335 519.6579,-324.857 600.5333,-320.6914 647.2729,-319.0355"/>
<polygon fill="#000000" stroke="#000000" points="647.3944,-322.5335 657.2719,-318.7013 647.1606,-315.5374 647.3944,-322.5335"/>
<text text-anchor="middle" x="485" y="-338.8" font-family="Times,serif" font-size="14.00" fill="#000000">1.2%</text>
</g>
<!-- NHK -->
<g id="node34" class="node">
<title>NHK</title>
<polygon fill="none" stroke="#000000" points="1046,-298 992,-298 992,-262 1046,-262 1046,-298"/>
<text text-anchor="middle" x="1019" y="-276.3" font-family="Times,serif" font-size="14.00" fill="#000000">NHK</text>
</g>
<!-- リクルートカード&#45;&gt;NHK -->
<g id="edge33" class="edge">
<title>リクルートカード&#45;&gt;NHK</title>
<path fill="none" stroke="#000000" stroke-width="2" d="M339.6973,-345.8238C367.7927,-319.0121 425.5342,-272 485,-272 485,-272 485,-272 870.5,-272 908.4922,-272 951.8728,-274.6432 981.8946,-276.891"/>
<polygon fill="#000000" stroke="#000000" stroke-width="2" points="981.6862,-280.3852 991.9258,-277.6646 982.2245,-273.4059 981.6862,-280.3852"/>
</g>
<!-- ASAHIネット -->
<g id="node35" class="node">
<title>ASAHIネット</title>
<polygon fill="none" stroke="#000000" points="1073.5,-244 964.5,-244 964.5,-208 1073.5,-208 1073.5,-244"/>
<text text-anchor="middle" x="1019" y="-222.3" font-family="Times,serif" font-size="14.00" fill="#000000">ASAHIネット</text>
</g>
<!-- リクルートカード&#45;&gt;ASAHIネット -->
<g id="edge34" class="edge">
<title>リクルートカード&#45;&gt;ASAHIネット</title>
<path fill="none" stroke="#000000" stroke-width="2" d="M332.973,-345.9241C356.1968,-310.2036 414.0547,-234 485,-234 485,-234 485,-234 870.5,-234 897.9656,-234 928.2473,-232.6186 954.262,-231.0038"/>
<polygon fill="#000000" stroke="#000000" stroke-width="2" points="954.6258,-234.4878 964.3797,-230.3512 954.1751,-227.5023 954.6258,-234.4878"/>
</g>
<!-- アイハート -->
<g id="node39" class="node">
<title>アイハート</title>
<polygon fill="none" stroke="#000000" points="1062,-566 976,-566 976,-530 1062,-530 1062,-566"/>
<text text-anchor="middle" x="1019" y="-544.3" font-family="Times,serif" font-size="14.00" fill="#000000">アイハート</text>
</g>
<!-- リクルートカード&#45;&gt;アイハート -->
<g id="edge37" class="edge">
<title>リクルートカード&#45;&gt;アイハート</title>
<path fill="none" stroke="#000000" stroke-width="2" d="M329.3198,-382.2988C348.0803,-425.8407 402.3002,-532 485,-532 485,-532 485,-532 870.5,-532 902.2547,-532 937.6103,-535.6613 965.8552,-539.481"/>
<polygon fill="#000000" stroke="#000000" stroke-width="2" points="965.5312,-542.9697 975.9197,-540.889 966.5011,-536.0372 965.5312,-542.9697"/>
</g>
<!-- Amazon -->
<g id="node49" class="node">
<title>Amazon</title>
<polygon fill="none" stroke="#000000" points="1056,-620 982,-620 982,-584 1056,-584 1056,-620"/>
<text text-anchor="middle" x="1019" y="-598.3" font-family="Times,serif" font-size="14.00" fill="#000000">Amazon</text>
</g>
<!-- リクルートカード&#45;&gt;Amazon -->
<g id="edge35" class="edge">
<title>リクルートカード&#45;&gt;Amazon</title>
<path fill="none" stroke="#000000" stroke-width="2" d="M326.8268,-382.2811C341.3587,-432.6971 389.6844,-570 485,-570 485,-570 485,-570 870.5,-570 905.0616,-570 943.153,-578.3856 972.1034,-586.5715"/>
<polygon fill="#000000" stroke="#000000" stroke-width="2" points="971.3613,-590.001 981.9415,-589.4446 973.3236,-583.2816 971.3613,-590.001"/>
</g>
<!-- じゃらん -->
<g id="node52" class="node">
<title>じゃらん</title>
<polygon fill="none" stroke="#000000" points="1056,-404 982,-404 982,-368 1056,-368 1056,-404"/>
<text text-anchor="middle" x="1019" y="-382.3" font-family="Times,serif" font-size="14.00" fill="#000000">じゃらん</text>
</g>
<!-- リクルートカード&#45;&gt;じゃらん -->
<g id="edge36" class="edge">
<title>リクルートカード&#45;&gt;じゃらん</title>
<path fill="none" stroke="#000000" stroke-width="2" d="M386.8596,-366.4344C475.6166,-369.8243 639.896,-376.3076 780,-383 796.4497,-383.7858 800.5387,-384.5146 817,-385 869.8859,-386.5593 930.5933,-386.628 971.5358,-386.4215"/>
<polygon fill="#000000" stroke="#000000" stroke-width="2" points="971.7808,-389.9203 981.7603,-386.3621 971.7401,-382.9204 971.7808,-389.9203"/>
</g>
<!-- Suica&#45;&gt;JREポイント -->
<g id="edge24" class="edge">
<title>Suica&#45;&gt;JREポイント</title>
<path fill="none" stroke="#000000" d="M513.1117,-1228.6999C520.7183,-1225.9362 529.0498,-1223.4069 537,-1222 565.778,-1216.9071 598.0701,-1218.617 625.2158,-1222.1302"/>
<polygon fill="#000000" stroke="#000000" points="624.9598,-1225.6285 635.3497,-1223.5545 625.9342,-1218.6967 624.9598,-1225.6285"/>
<text text-anchor="middle" x="555.5" y="-1225.8" font-family="Times,serif" font-size="14.00" fill="#000000">1.5%</text>
</g>
<!-- 電車 -->
<g id="node32" class="node">
<title>電車</title>
<polygon fill="none" stroke="#000000" points="1046,-1455 992,-1455 992,-1419 1046,-1419 1046,-1455"/>
<text text-anchor="middle" x="1019" y="-1433.3" font-family="Times,serif" font-size="14.00" fill="#000000">電車</text>
</g>
<!-- Suica&#45;&gt;電車 -->
<g id="edge19" class="edge">
<title>Suica&#45;&gt;電車</title>
<path fill="none" stroke="#000000" stroke-width="2" d="M513.242,-1258.0724C515.3284,-1259.9251 517.2841,-1261.9049 519,-1264 532.1276,-1280.0281 528.0727,-1288.304 537,-1307 559.1927,-1353.4772 548.6632,-1381.169 592,-1409 715.538,-1488.3366 902.8103,-1461.8673 981.7908,-1445.6713"/>
<polygon fill="#000000" stroke="#000000" stroke-width="2" points="982.6996,-1449.0566 991.7586,-1443.5625 981.2506,-1442.2082 982.6996,-1449.0566"/>
</g>
<!-- 松屋 -->
<g id="node47" class="node">
<title>松屋</title>
<polygon fill="none" stroke="#000000" points="1046,-1336 992,-1336 992,-1300 1046,-1300 1046,-1336"/>
<text text-anchor="middle" x="1019" y="-1314.3" font-family="Times,serif" font-size="14.00" fill="#000000">松屋</text>
</g>
<!-- Suica&#45;&gt;松屋 -->
<g id="edge20" class="edge">
<title>Suica&#45;&gt;松屋</title>
<path fill="none" stroke="#000000" stroke-width="2" d="M513.1311,-1258.7658C515.1929,-1260.444 517.1761,-1262.1957 519,-1264 528.9915,-1273.8843 524.7957,-1283.0297 537,-1290 558.2825,-1302.1552 567.5418,-1292.4234 592,-1294 735.8922,-1303.2756 907.1952,-1312.2895 981.5176,-1316.101"/>
<polygon fill="#000000" stroke="#000000" stroke-width="2" points="981.599,-1319.6096 991.7648,-1316.625 981.9566,-1312.6187 981.599,-1319.6096"/>
</g>
<!-- 吉野家 -->
<g id="node48" class="node">
<title>吉野家</title>
<polygon fill="none" stroke="#000000" points="1048.5,-1114 989.5,-1114 989.5,-1078 1048.5,-1078 1048.5,-1114"/>
<text text-anchor="middle" x="1019" y="-1092.3" font-family="Times,serif" font-size="14.00" fill="#000000">吉野家</text>
</g>
<!-- Suica&#45;&gt;吉野家 -->
<g id="edge21" class="edge">
<title>Suica&#45;&gt;吉野家</title>
<path fill="none" stroke="#000000" stroke-width="2" d="M494.1242,-1222.6912C509.6758,-1193.7594 544.3239,-1138.3613 592,-1115 659.371,-1081.9883 886.717,-1089.2725 979.2862,-1093.7914"/>
<polygon fill="#000000" stroke="#000000" stroke-width="2" points="979.2081,-1097.2918 989.3715,-1094.2991 979.5601,-1090.3007 979.2081,-1097.2918"/>
</g>
<!-- 切符 -->
<g id="node27" class="node">
<title>切符</title>
<polygon fill="none" stroke="#000000" points="897.5,-1635 843.5,-1635 843.5,-1599 897.5,-1599 897.5,-1635"/>
<text text-anchor="middle" x="870.5" y="-1613.3" font-family="Times,serif" font-size="14.00" fill="#000000">切符</text>
</g>
<!-- 現金&#45;&gt;切符 -->
<g id="edge64" class="edge">
<title>現金&#45;&gt;切符</title>
<path fill="none" stroke="#000000" stroke-width="2" d="M512.0626,-1570.5836C520.033,-1572.3715 528.8126,-1574.5158 537,-1576 643.5821,-1595.3206 771.5799,-1603.4655 833.4347,-1609.9347"/>
<polygon fill="#000000" stroke="#000000" stroke-width="2" points="833.1656,-1613.4261 843.4888,-1611.0424 833.9323,-1606.4682 833.1656,-1613.4261"/>
</g>
<!-- 回数カード -->
<g id="node28" class="node">
<title>回数カード</title>
<polygon fill="none" stroke="#000000" points="914.5,-1778 826.5,-1778 826.5,-1742 914.5,-1742 914.5,-1778"/>
<text text-anchor="middle" x="870.5" y="-1756.3" font-family="Times,serif" font-size="14.00" fill="#000000">回数カード</text>
</g>
<!-- 現金&#45;&gt;回数カード -->
<g id="edge67" class="edge">
<title>現金&#45;&gt;回数カード</title>
<path fill="none" stroke="#000000" stroke-width="2" d="M493.6191,-1589.1043C508.9099,-1619.0973 543.7745,-1678.6868 592,-1708 628.9059,-1730.4328 746.2346,-1746.5585 816.2805,-1754.4739"/>
<polygon fill="#000000" stroke="#000000" stroke-width="2" points="815.9316,-1757.9565 826.2569,-1755.5819 816.7044,-1750.9993 815.9316,-1757.9565"/>
</g>
<!-- 飲食店 -->
<g id="node44" class="node">
<title>飲食店</title>
<polygon fill="none" stroke="#000000" points="1048.5,-1589 989.5,-1589 989.5,-1553 1048.5,-1553 1048.5,-1589"/>
<text text-anchor="middle" x="1019" y="-1567.3" font-family="Times,serif" font-size="14.00" fill="#000000">飲食店</text>
</g>
<!-- 現金&#45;&gt;飲食店 -->
<g id="edge63" class="edge">
<title>現金&#45;&gt;飲食店</title>
<path fill="none" stroke="#000000" stroke-width="2" d="M512.2153,-1571C599.9552,-1571 875.6723,-1571 979.1965,-1571"/>
<polygon fill="#000000" stroke="#000000" stroke-width="2" points="979.2387,-1574.5001 989.2387,-1571 979.2387,-1567.5001 979.2387,-1574.5001"/>
</g>
<!-- nanacoポイント -->
<g id="node23" class="node">
<title>nanacoポイント</title>
<polygon fill="none" stroke="#000000" points="748.5,-428 623.5,-428 623.5,-392 748.5,-392 748.5,-428"/>
<text text-anchor="middle" x="686" y="-406.3" font-family="Times,serif" font-size="14.00" fill="#000000">nanacoポイント</text>
</g>
<!-- nanaco&#45;&gt;nanacoポイント -->
<g id="edge54" class="edge">
<title>nanaco&#45;&gt;nanacoポイント</title>
<path fill="none" stroke="#000000" d="M496.4396,-437.9821C505.6548,-425.28 519.8732,-409.2842 537,-402 560.5711,-391.975 588.1619,-390.8875 613.1509,-393.3291"/>
<polygon fill="#000000" stroke="#000000" points="612.9737,-396.8323 623.3142,-394.5251 613.7918,-389.8802 612.9737,-396.8323"/>
<text text-anchor="middle" x="555.5" y="-405.8" font-family="Times,serif" font-size="14.00" fill="#000000">1%</text>
</g>
<!-- iTunesカード -->
<g id="node29" class="node">
<title>iTunesカード</title>
<polygon fill="none" stroke="#000000" points="924,-464 817,-464 817,-428 924,-428 924,-464"/>
<text text-anchor="middle" x="870.5" y="-442.3" font-family="Times,serif" font-size="14.00" fill="#000000">iTunesカード</text>
</g>
<!-- nanaco&#45;&gt;iTunesカード -->
<g id="edge56" class="edge">
<title>nanaco&#45;&gt;iTunesカード</title>
<path fill="none" stroke="#000000" stroke-width="2" d="M519.2106,-455.1126C583.7105,-453.4394 724.2047,-449.7949 806.6402,-447.6565"/>
<polygon fill="#000000" stroke="#000000" stroke-width="2" points="806.9825,-451.1489 816.8884,-447.3907 806.8009,-444.1513 806.9825,-451.1489"/>
</g>
<!-- セブンイレブン -->
<g id="node31" class="node">
<title>セブンイレブン</title>
<polygon fill="none" stroke="#000000" points="1076,-512 962,-512 962,-476 1076,-476 1076,-512"/>
<text text-anchor="middle" x="1019" y="-490.3" font-family="Times,serif" font-size="14.00" fill="#000000">セブンイレブン</text>
</g>
<!-- nanaco&#45;&gt;セブンイレブン -->
<g id="edge53" class="edge">
<title>nanaco&#45;&gt;セブンイレブン</title>
<path fill="none" stroke="#000000" stroke-width="2" d="M519.2474,-464.7852C525.1362,-466.0421 531.2204,-467.1835 537,-468 683.9633,-488.7619 858.2815,-493.2407 951.7617,-494.0295"/>
<polygon fill="#000000" stroke="#000000" stroke-width="2" points="951.903,-497.5305 961.9282,-494.1033 951.9539,-490.5307 951.903,-497.5305"/>
</g>
<!-- 楽天ポイント -->
<g id="node19" class="node">
<title>楽天ポイント</title>
<polygon fill="none" stroke="#000000" points="737,-725 635,-725 635,-689 737,-689 737,-725"/>
<text text-anchor="middle" x="686" y="-703.3" font-family="Times,serif" font-size="14.00" fill="#000000">楽天ポイント</text>
</g>
<!-- Edy&#45;&gt;楽天ポイント -->
<g id="edge46" class="edge">
<title>Edy&#45;&gt;楽天ポイント</title>
<path fill="none" stroke="#000000" d="M489.4859,-848.8663C496.115,-825.6674 510.6784,-785.6644 537,-762 561.5023,-739.9712 595.5937,-726.5241 624.9841,-718.4469"/>
<polygon fill="#000000" stroke="#000000" points="625.9522,-721.8116 634.7504,-715.9089 624.1915,-715.0367 625.9522,-721.8116"/>
<text text-anchor="middle" x="555.5" y="-765.8" font-family="Times,serif" font-size="14.00" fill="#000000">0.5%</text>
</g>
<!-- ヤマト運輸 -->
<g id="node38" class="node">
<title>ヤマト運輸</title>
<polygon fill="none" stroke="#000000" points="1063,-955 975,-955 975,-919 1063,-919 1063,-955"/>
<text text-anchor="middle" x="1019" y="-933.3" font-family="Times,serif" font-size="14.00" fill="#000000">ヤマト運輸</text>
</g>
<!-- Edy&#45;&gt;ヤマト運輸 -->
<g id="edge39" class="edge">
<title>Edy&#45;&gt;ヤマト運輸</title>
<path fill="none" stroke="#000000" stroke-width="2" d="M512.2566,-876.5404C520.154,-878.9888 528.8465,-881.3843 537,-883 706.4477,-916.5781 752.9477,-894.8941 924,-919 937.2459,-920.8667 951.4504,-923.3154 964.7333,-925.8028"/>
<polygon fill="#000000" stroke="#000000" stroke-width="2" points="964.2008,-929.2643 974.6801,-927.7036 965.5148,-922.3888 964.2008,-929.2643"/>
</g>
<!-- ウェルシア -->
<g id="node40" class="node">
<title>ウェルシア</title>
<polygon fill="none" stroke="#000000" points="1062.5,-901 975.5,-901 975.5,-865 1062.5,-865 1062.5,-901"/>
<text text-anchor="middle" x="1019" y="-879.3" font-family="Times,serif" font-size="14.00" fill="#000000">ウェルシア</text>
</g>
<!-- Edy&#45;&gt;ウェルシア -->
<g id="edge44" class="edge">
<title>Edy&#45;&gt;ウェルシア</title>
<path fill="none" stroke="#000000" stroke-width="2" d="M512.2153,-867.8154C596.3051,-870.335 853.0574,-878.0279 965.4082,-881.3943"/>
<polygon fill="#000000" stroke="#000000" stroke-width="2" points="965.3983,-884.8954 975.4987,-881.6966 965.608,-877.8986 965.3983,-884.8954"/>
</g>
<!-- ヨドバシカメラ -->
<g id="node42" class="node">
<title>ヨドバシカメラ</title>
<polygon fill="none" stroke="#000000" points="1077,-1643 961,-1643 961,-1607 1077,-1607 1077,-1643"/>
<text text-anchor="middle" x="1019" y="-1621.3" font-family="Times,serif" font-size="14.00" fill="#000000">ヨドバシカメラ</text>
</g>
<!-- Edy&#45;&gt;ヨドバシカメラ -->
<g id="edge41" class="edge">
<title>Edy&#45;&gt;ヨドバシカメラ</title>
<path fill="none" stroke="#000000" stroke-width="2" d="M487.1282,-885.0982C495.7016,-957.7176 527.692,-1225.8375 537,-1263 553.8471,-1330.2627 545.8181,-1357.2764 592,-1409 645.4544,-1468.8688 861.4631,-1561.4112 964.1971,-1603.201"/>
<polygon fill="#000000" stroke="#000000" stroke-width="2" points="962.8967,-1606.4504 973.4791,-1606.9639 965.5266,-1599.9632 962.8967,-1606.4504"/>
</g>
<!-- 餃子の王将 -->
<g id="node43" class="node">
<title>餃子の王将</title>
<polygon fill="none" stroke="#000000" points="1063,-847 975,-847 975,-811 1063,-811 1063,-847"/>
<text text-anchor="middle" x="1019" y="-825.3" font-family="Times,serif" font-size="14.00" fill="#000000">餃子の王将</text>
</g>
<!-- Edy&#45;&gt;餃子の王将 -->
<g id="edge62" class="edge">
<title>Edy&#45;&gt;餃子の王将</title>
<path fill="none" stroke="#000000" stroke-width="2" d="M512.2153,-865.0633C596.099,-859.0941 851.7998,-840.8981 964.5795,-832.8726"/>
<polygon fill="#000000" stroke="#000000" stroke-width="2" points="964.9882,-836.3525 974.7145,-832.1514 964.4913,-829.3701 964.9882,-836.3525"/>
</g>
<!-- FRESCO -->
<g id="node45" class="node">
<title>FRESCO</title>
<polygon fill="none" stroke="#000000" points="1059,-1390 979,-1390 979,-1354 1059,-1354 1059,-1390"/>
<text text-anchor="middle" x="1019" y="-1368.3" font-family="Times,serif" font-size="14.00" fill="#000000">FRESCO</text>
</g>
<!-- Edy&#45;&gt;FRESCO -->
<g id="edge59" class="edge">
<title>Edy&#45;&gt;FRESCO</title>
<path fill="none" stroke="#000000" stroke-width="2" d="M487.0116,-885.2713C495.1327,-958.4247 525.6116,-1226.9195 537,-1241 561.0459,-1270.7301 635.51,-1257.9339 780,-1294 846.5585,-1310.6137 921.4776,-1336.2285 969.4029,-1353.5296"/>
<polygon fill="#000000" stroke="#000000" stroke-width="2" points="968.318,-1356.8592 978.9122,-1356.9813 970.7065,-1350.2792 968.318,-1356.8592"/>
</g>
<!-- 業務スーパー -->
<g id="node46" class="node">
<title>業務スーパー</title>
<polygon fill="none" stroke="#000000" points="1069.5,-793 968.5,-793 968.5,-757 1069.5,-757 1069.5,-793"/>
<text text-anchor="middle" x="1019" y="-771.3" font-family="Times,serif" font-size="14.00" fill="#000000">業務スーパー</text>
</g>
<!-- Edy&#45;&gt;業務スーパー -->
<g id="edge58" class="edge">
<title>Edy&#45;&gt;業務スーパー</title>
<path fill="none" stroke="#000000" stroke-width="2" d="M512.1474,-860.072C533.7048,-854.7125 564.6629,-847.3307 592,-842 721.7396,-816.7007 875.1072,-794.4952 958.1574,-783.1044"/>
<polygon fill="#000000" stroke="#000000" stroke-width="2" points="958.741,-786.5573 968.1754,-781.7361 957.7937,-779.6217 958.741,-786.5573"/>
</g>
<!-- Ponta&#45;&gt;じゃらん -->
<g id="edge48" class="edge">
<title>Ponta&#45;&gt;じゃらん</title>
<path fill="none" stroke="#000000" d="M714.6625,-316.9042C759.835,-315.8482 850.0581,-316.4666 924,-334 946.1225,-339.2458 968.5418,-351.1379 986.0416,-362.2271"/>
<polygon fill="#000000" stroke="#000000" points="984.4347,-365.3586 994.7169,-367.9134 988.2721,-359.5041 984.4347,-365.3586"/>
</g>
<!-- Tポイント -->
<g id="node18" class="node">
<title>Tポイント</title>
<polygon fill="none" stroke="#000000" points="727.5,-1020 644.5,-1020 644.5,-984 727.5,-984 727.5,-1020"/>
<text text-anchor="middle" x="686" y="-998.3" font-family="Times,serif" font-size="14.00" fill="#000000">Tポイント</text>
</g>
<!-- 楽天ポイント&#45;&gt;楽天モバイル -->
<g id="edge28" class="edge">
<title>楽天ポイント&#45;&gt;楽天モバイル</title>
<path fill="none" stroke="#000000" d="M737.1454,-705.2159C785.3935,-704.006 859.7081,-703.3631 924,-708 934.9325,-708.7885 946.5257,-710.0314 957.7167,-711.4427"/>
<polygon fill="#000000" stroke="#000000" points="957.4789,-714.9416 967.8505,-712.778 958.3935,-708.0016 957.4789,-714.9416"/>
</g>
<!-- JREポイント&#45;&gt;Suica -->
<g id="edge25" class="edge">
<title>JREポイント&#45;&gt;Suica</title>
<path fill="none" stroke="#000000" d="M635.2752,-1235.7665C600.5957,-1236.9743 555.338,-1238.5504 523.5872,-1239.6562"/>
<polygon fill="#000000" stroke="#000000" points="523.2442,-1236.1659 513.3721,-1240.0119 523.4879,-1243.1617 523.2442,-1236.1659"/>
</g>
<!-- ビックポイント&#45;&gt;ビックカメラ -->
<g id="edge17" class="edge">
<title>ビックポイント&#45;&gt;ビックカメラ</title>
<path fill="none" stroke="#000000" d="M744.0042,-1156.1091C804.1074,-1170.7288 897.6193,-1193.475 958.5945,-1208.3068"/>
<polygon fill="#000000" stroke="#000000" points="957.9201,-1211.7447 968.4641,-1210.7075 959.5746,-1204.943 957.9201,-1211.7447"/>
</g>
<!-- Amazonポイント -->
<g id="node22" class="node">
<title>Amazonポイント</title>
<polygon fill="none" stroke="#000000" points="751.5,-635 620.5,-635 620.5,-599 751.5,-599 751.5,-635"/>
<text text-anchor="middle" x="686" y="-613.3" font-family="Times,serif" font-size="14.00" fill="#000000">Amazonポイント</text>
</g>
<!-- Amazonポイント&#45;&gt;Amazon -->
<g id="edge51" class="edge">
<title>Amazonポイント&#45;&gt;Amazon</title>
<path fill="none" stroke="#000000" d="M751.7901,-608.5327C816.563,-603.7699 913.908,-599.5887 971.4901,-599.2473"/>
<polygon fill="#000000" stroke="#000000" points="971.7687,-602.7469 981.7624,-599.229 971.7562,-595.747 971.7687,-602.7469"/>
</g>
<!-- nanacoポイント&#45;&gt;nanaco -->
<g id="edge55" class="edge">
<title>nanacoポイント&#45;&gt;nanaco</title>
<path fill="none" stroke="#000000" d="M623.242,-424.3625C592.6068,-431.3736 556.4975,-439.6374 528.8671,-445.9608"/>
<polygon fill="#000000" stroke="#000000" points="528.0641,-442.554 519.0969,-448.1967 529.6257,-449.3776 528.0641,-442.554"/>
</g>
<!-- FRESCOポイント -->
<g id="node24" class="node">
<title>FRESCOポイント</title>
<polygon fill="none" stroke="#000000" points="754.5,-1400 617.5,-1400 617.5,-1364 754.5,-1364 754.5,-1400"/>
<text text-anchor="middle" x="686" y="-1378.3" font-family="Times,serif" font-size="14.00" fill="#000000">FRESCOポイント</text>
</g>
<!-- FRESCOポイント&#45;&gt;FRESCO -->
<g id="edge61" class="edge">
<title>FRESCOポイント&#45;&gt;FRESCO</title>
<path fill="none" stroke="#000000" d="M754.6562,-1390.781C802.2942,-1395.503 867.1529,-1399.2082 924,-1393 938.5928,-1391.4064 954.226,-1388.4746 968.5115,-1385.2969"/>
<polygon fill="#000000" stroke="#000000" points="969.6865,-1388.6176 978.6412,-1382.9551 968.1098,-1381.7975 969.6865,-1388.6176"/>
</g>
<!-- ヨドバシゴールドポイント -->
<g id="node25" class="node">
<title>ヨドバシゴールドポイント</title>
<polygon fill="none" stroke="#000000" points="780,-1699 592,-1699 592,-1663 780,-1663 780,-1699"/>
<text text-anchor="middle" x="686" y="-1677.3" font-family="Times,serif" font-size="14.00" fill="#000000">ヨドバシゴールドポイント</text>
</g>
<!-- ヨドバシゴールドポイント&#45;&gt;ヨドバシカメラ -->
<g id="edge43" class="edge">
<title>ヨドバシゴールドポイント&#45;&gt;ヨドバシカメラ</title>
<path fill="none" stroke="#000000" d="M780.2632,-1667.3028C824.0464,-1660.6955 876.7561,-1652.3927 924,-1644 932.6632,-1642.461 941.7527,-1640.7576 950.7326,-1639.0213"/>
<polygon fill="#000000" stroke="#000000" points="951.6534,-1642.4076 960.796,-1637.0539 950.3103,-1635.5377 951.6534,-1642.4076"/>
</g>
<!-- はぴeポイント -->
<g id="node26" class="node">
<title>はぴeポイント</title>
<polygon fill="none" stroke="#000000" points="741,-107 631,-107 631,-71 741,-71 741,-107"/>
<text text-anchor="middle" x="686" y="-85.3" font-family="Times,serif" font-size="14.00" fill="#000000">はぴeポイント</text>
</g>
<!-- はぴeポイント&#45;&gt;関西電力 -->
<g id="edge12" class="edge">
<title>はぴeポイント&#45;&gt;関西電力</title>
<path fill="none" stroke="#000000" d="M741.1016,-94.4424C764.4915,-96.6501 792.063,-99.1176 817,-101 869.8512,-104.9895 930.5647,-108.4444 971.5182,-110.6093"/>
<polygon fill="#000000" stroke="#000000" points="971.5763,-114.117 981.7457,-111.1448 971.9424,-107.1266 971.5763,-114.117"/>
</g>
<!-- 切符&#45;&gt;現金 -->
<g id="edge66" class="edge">
<title>切符&#45;&gt;現金</title>
<path fill="none" stroke="#000000" d="M843.4888,-1620.8398C786.4613,-1622.3705 649.748,-1614.4383 537,-1594 532.0108,-1593.0956 526.8017,-1591.946 521.6898,-1590.6102"/>
<polygon fill="#000000" stroke="#000000" points="522.6413,-1587.242 512.0626,-1587.8273 520.6973,-1593.9667 522.6413,-1587.242"/>
</g>
<!-- 切符&#45;&gt;電車 -->
<g id="edge65" class="edge">
<title>切符&#45;&gt;電車</title>
<path fill="none" stroke="#000000" stroke-width="2" d="M877.1631,-1598.5955C889.3515,-1567.21 918.0047,-1502.9572 961,-1464 967.2612,-1458.3268 974.9227,-1453.6411 982.5994,-1449.857"/>
<polygon fill="#000000" stroke="#000000" stroke-width="2" points="984.1942,-1452.9775 991.8777,-1445.6827 981.3221,-1446.5938 984.1942,-1452.9775"/>
</g>
<!-- 回数カード&#45;&gt;現金 -->
<g id="edge69" class="edge">
<title>回数カード&#45;&gt;現金</title>
<path fill="none" stroke="#000000" d="M826.1048,-1766.6738C769.019,-1773.1828 668.1752,-1777.5529 592,-1742 534.2214,-1715.0333 504.5055,-1639.929 492.1609,-1598.7996"/>
<polygon fill="#000000" stroke="#000000" points="495.5082,-1597.7748 489.3902,-1589.1249 488.7787,-1599.7021 495.5082,-1597.7748"/>
<text text-anchor="middle" x="686" y="-1774.8" font-family="Times,serif" font-size="14.00" fill="#000000">10%</text>
</g>
<!-- 大阪地下鉄 -->
<g id="node33" class="node">
<title>大阪地下鉄</title>
<polygon fill="none" stroke="#000000" points="1063,-1778 975,-1778 975,-1742 1063,-1742 1063,-1778"/>
<text text-anchor="middle" x="1019" y="-1756.3" font-family="Times,serif" font-size="14.00" fill="#000000">大阪地下鉄</text>
</g>
<!-- 回数カード&#45;&gt;大阪地下鉄 -->
<g id="edge68" class="edge">
<title>回数カード&#45;&gt;大阪地下鉄</title>
<path fill="none" stroke="#000000" stroke-width="2" d="M914.6528,-1760C930.3707,-1760 948.2545,-1760 964.7223,-1760"/>
<polygon fill="#000000" stroke="#000000" stroke-width="2" points="964.7609,-1763.5001 974.7609,-1760 964.7608,-1756.5001 964.7609,-1763.5001"/>
</g>
<!-- iTunes -->
<g id="node50" class="node">
<title>iTunes</title>
<polygon fill="none" stroke="#000000" points="1051.5,-458 986.5,-458 986.5,-422 1051.5,-422 1051.5,-458"/>
<text text-anchor="middle" x="1019" y="-436.3" font-family="Times,serif" font-size="14.00" fill="#000000">iTunes</text>
</g>
<!-- iTunesカード&#45;&gt;iTunes -->
<g id="edge57" class="edge">
<title>iTunesカード&#45;&gt;iTunes</title>
<path fill="none" stroke="#000000" stroke-width="2" d="M924.1119,-443.8339C941.1494,-443.1455 959.7618,-442.3935 975.954,-441.7392"/>
<polygon fill="#000000" stroke="#000000" stroke-width="2" points="976.3537,-445.226 986.2042,-441.3251 976.071,-438.2317 976.3537,-445.226"/>
</g>
<!-- 楽天モバイル&#45;&gt;楽天ポイント -->
<g id="edge27" class="edge">
<title>楽天モバイル&#45;&gt;楽天ポイント</title>
<path fill="none" stroke="#000000" d="M967.9137,-718.8522C908.6432,-716.3604 810.9642,-712.2537 747.5595,-709.5881"/>
<polygon fill="#000000" stroke="#000000" points="747.4397,-706.0801 737.3015,-709.1568 747.1456,-713.0739 747.4397,-706.0801"/>
<text text-anchor="middle" x="870.5" y="-720.8" font-family="Times,serif" font-size="14.00" fill="#000000">0.5%</text>
</g>
<!-- 関西電力&#45;&gt;はぴeポイント -->
<g id="edge11" class="edge">
<title>関西電力&#45;&gt;はぴeポイント</title>
<path fill="none" stroke="#000000" d="M981.6077,-99.7841C964.3159,-94.3469 943.3597,-88.6977 924,-86 866.0431,-77.9239 799.3802,-79.7006 751.377,-82.9008"/>
<polygon fill="#000000" stroke="#000000" points="750.8511,-79.4292 741.1225,-83.6249 751.3442,-86.4118 750.8511,-79.4292"/>
<text text-anchor="middle" x="870.5" y="-89.8" font-family="Times,serif" font-size="14.00" fill="#000000">0.8%, 0.5%</text>
</g>
<!-- ヤマト運輸&#45;&gt;Tポイント -->
<g id="edge40" class="edge">
<title>ヤマト運輸&#45;&gt;Tポイント</title>
<path fill="none" stroke="#000000" d="M974.6057,-954.4894C958.831,-960.149 940.8142,-965.9922 924,-970 860.9027,-985.0396 786.5925,-993.6181 738.0043,-998.0339"/>
<polygon fill="#000000" stroke="#000000" points="737.3925,-994.5742 727.7388,-998.9396 738.0077,-1001.5471 737.3925,-994.5742"/>
<text text-anchor="middle" x="870.5" y="-992.8" font-family="Times,serif" font-size="14.00" fill="#000000">0.5%</text>
</g>
<!-- ウェルシア&#45;&gt;Tポイント -->
<g id="edge45" class="edge">
<title>ウェルシア&#45;&gt;Tポイント</title>
<path fill="none" stroke="#000000" d="M975.4526,-897.0108C934.4048,-910.3704 871.265,-931.3153 817,-951 790.4669,-960.6249 761.1721,-971.9618 737.0257,-981.4995"/>
<polygon fill="#000000" stroke="#000000" points="735.708,-978.2568 727.7005,-985.1944 738.2866,-984.7646 735.708,-978.2568"/>
<text text-anchor="middle" x="870.5" y="-954.8" font-family="Times,serif" font-size="14.00" fill="#000000">1%</text>
</g>
<!-- ビックカメラ&#45;&gt;ビックポイント -->
<g id="edge15" class="edge">
<title>ビックカメラ&#45;&gt;ビックポイント</title>
<path fill="none" stroke="#000000" stroke-dasharray="5,2" d="M1000.0949,-1204.7657C982.1257,-1188.712 953.528,-1166.3291 924,-1156 869.2875,-1136.8612 803.2145,-1134.4719 754.5823,-1136.2344"/>
<polygon fill="#000000" stroke="#000000" points="754.32,-1132.7423 744.4797,-1136.669 754.6209,-1139.7359 754.32,-1132.7423"/>
<text text-anchor="middle" x="870.5" y="-1159.8" font-family="Times,serif" font-size="14.00" fill="#000000">9.5%</text>
</g>
<!-- ヨドバシカメラ&#45;&gt;ヨドバシゴールドポイント -->
<g id="edge42" class="edge">
<title>ヨドバシカメラ&#45;&gt;ヨドバシゴールドポイント</title>
<path fill="none" stroke="#000000" d="M999.4668,-1643.1775C985.0601,-1655.3028 964.3303,-1670.2189 943,-1677 894.3648,-1692.4616 837.8931,-1694.9069 790.2931,-1692.88"/>
<polygon fill="#000000" stroke="#000000" points="790.4377,-1689.3829 780.2764,-1692.3826 790.0905,-1696.3743 790.4377,-1689.3829"/>
<text text-anchor="middle" x="870.5" y="-1696.8" font-family="Times,serif" font-size="14.00" fill="#000000">10%</text>
</g>
<!-- FRESCO&#45;&gt;FRESCOポイント -->
<g id="edge60" class="edge">
<title>FRESCO&#45;&gt;FRESCOポイント</title>
<path fill="none" stroke="#000000" d="M978.7575,-1373.1855C937.9891,-1374.3888 873.1104,-1376.31 817,-1378 800.0793,-1378.5096 781.9294,-1379.0609 764.6938,-1379.5865"/>
<polygon fill="#000000" stroke="#000000" points="764.5562,-1376.089 754.6676,-1379.8925 764.7698,-1383.0857 764.5562,-1376.089"/>
<text text-anchor="middle" x="870.5" y="-1381.8" font-family="Times,serif" font-size="14.00" fill="#000000">0.5%</text>
</g>
<!-- 吉野家&#45;&gt;Tポイント -->
<g id="edge22" class="edge">
<title>吉野家&#45;&gt;Tポイント</title>
<path fill="none" stroke="#000000" d="M989.1171,-1086.6293C970.4413,-1080.8348 945.867,-1073.3221 924,-1067 860.039,-1048.5078 786.0034,-1028.5075 737.7099,-1015.6485"/>
<polygon fill="#000000" stroke="#000000" points="738.3718,-1012.203 727.8082,-1013.0161 736.5732,-1018.968 738.3718,-1012.203"/>
<text text-anchor="middle" x="870.5" y="-1070.8" font-family="Times,serif" font-size="14.00" fill="#000000">0.5%</text>
</g>
<!-- Amazon&#45;&gt;Amazonポイント -->
<g id="edge50" class="edge">
<title>Amazon&#45;&gt;Amazonポイント</title>
<path fill="none" stroke="#000000" d="M981.7624,-608.1257C928.8672,-613.0419 830.7837,-617.902 762.1216,-619.3454"/>
<polygon fill="#000000" stroke="#000000" points="761.7223,-615.8522 751.7901,-619.5402 761.8543,-622.851 761.7223,-615.8522"/>
</g>
<!-- じゃらん&#45;&gt;Ponta -->
<g id="edge49" class="edge">
<title>じゃらん&#45;&gt;Ponta</title>
<path fill="none" stroke="#000000" d="M981.7612,-378.3957C918.2218,-365.4207 789.4805,-339.1312 724.8544,-325.9342"/>
<polygon fill="#000000" stroke="#000000" points="725.1777,-322.4281 714.6796,-323.8565 723.7771,-329.2866 725.1777,-322.4281"/>
<text text-anchor="middle" x="870.5" y="-369.8" font-family="Times,serif" font-size="14.00" fill="#000000">2%</text>
</g>
</g>
</svg>
