<?xml version="1.0" encoding="UTF-8" standalone="no"?>
<!DOCTYPE svg PUBLIC "-//W3C//DTD SVG 1.1//EN"
 "http://www.w3.org/Graphics/SVG/1.1/DTD/svg11.dtd">
<!-- Generated by graphviz version 2.40.1 (20161225.0304)
 -->
<!-- Title: MoneyFlow Pages: 1 -->
<svg width="1087pt" height="1920pt"
 viewBox="0.00 0.00 1087.00 1920.00" xmlns="http://www.w3.org/2000/svg" xmlns:xlink="http://www.w3.org/1999/xlink">
<g id="graph0" class="graph" transform="scale(1 1) rotate(0) translate(4 1916)">
<title>MoneyFlow</title>
<polygon fill="#ffffff" stroke="transparent" points="-4,4 -4,-1916 1083,-1916 1083,4 -4,4"/>
<!-- 収入 -->
<g id="node1" class="node">
<title>収入</title>
<text text-anchor="middle" x="27" y="-14.3" font-family="Times,serif" font-size="14.00" fill="#000000">収入</text>
</g>
<!-- 銀行口座 -->
<g id="node2" class="node">
<title>銀行口座</title>
<text text-anchor="middle" x="142" y="-14.3" font-family="Times,serif" font-size="14.00" fill="#000000">銀行口座</text>
</g>
<!-- 収入&#45;&gt;銀行口座 -->
<g id="edge1" class="edge">
<title>収入&#45;&gt;銀行口座</title>
<path fill="none" stroke="#000000" d="M54.2534,-18C69.3972,-18 88.4539,-18 104.9357,-18"/>
</g>
<!-- クレジットカード -->
<g id="node3" class="node">
<title>クレジットカード</title>
<text text-anchor="middle" x="322" y="-14.3" font-family="Times,serif" font-size="14.00" fill="#000000">クレジットカード</text>
</g>
<!-- 銀行口座&#45;&gt;クレジットカード -->
<g id="edge2" class="edge">
<title>銀行口座&#45;&gt;クレジットカード</title>
<path fill="none" stroke="#000000" d="M179.2961,-18C201.6417,-18 230.6798,-18 256.7236,-18"/>
</g>
<!-- マネー -->
<g id="node4" class="node">
<title>マネー</title>
<text text-anchor="middle" x="485" y="-14.3" font-family="Times,serif" font-size="14.00" fill="#000000">マネー</text>
</g>
<!-- クレジットカード&#45;&gt;マネー -->
<g id="edge3" class="edge">
<title>クレジットカード&#45;&gt;マネー</title>
<path fill="none" stroke="#000000" d="M387.3591,-18C410.9188,-18 436.353,-18 455.3549,-18"/>
</g>
<!-- ポイント -->
<g id="node5" class="node">
<title>ポイント</title>
<text text-anchor="middle" x="692" y="-14.3" font-family="Times,serif" font-size="14.00" fill="#000000">ポイント</text>
</g>
<!-- マネー&#45;&gt;ポイント -->
<g id="edge4" class="edge">
<title>マネー&#45;&gt;ポイント</title>
<path fill="none" stroke="#000000" d="M514.6581,-18C551.5493,-18 614.5569,-18 654.6899,-18"/>
</g>
<!-- 金券 -->
<g id="node6" class="node">
<title>金券</title>
<text text-anchor="middle" x="870" y="-14.3" font-family="Times,serif" font-size="14.00" fill="#000000">金券</text>
</g>
<!-- ポイント&#45;&gt;金券 -->
<g id="edge5" class="edge">
<title>ポイント&#45;&gt;金券</title>
<path fill="none" stroke="#000000" d="M729.3146,-18C763.262,-18 812.5623,-18 842.8847,-18"/>
</g>
<!-- 支出 -->
<g id="node7" class="node">
<title>支出</title>
<text text-anchor="middle" x="1013.5" y="-14.3" font-family="Times,serif" font-size="14.00" fill="#000000">支出</text>
</g>
<!-- 金券&#45;&gt;支出 -->
<g id="edge6" class="edge">
<title>金券&#45;&gt;支出</title>
<path fill="none" stroke="#000000" d="M897.329,-18C922.8631,-18 960.7716,-18 986.2727,-18"/>
</g>
<!-- 給与 -->
<g id="node8" class="node">
<title>給与</title>
<polygon fill="none" stroke="#000000" points="54,-1653 0,-1653 0,-1617 54,-1617 54,-1653"/>
<text text-anchor="middle" x="27" y="-1631.3" font-family="Times,serif" font-size="14.00" fill="#000000">給与</text>
</g>
<!-- 三井住友銀行 -->
<g id="node9" class="node">
<title>三井住友銀行</title>
<polygon fill="none" stroke="#000000" points="193,-1653 91,-1653 91,-1617 193,-1617 193,-1653"/>
<text text-anchor="middle" x="142" y="-1631.3" font-family="Times,serif" font-size="14.00" fill="#000000">三井住友銀行</text>
</g>
<!-- 給与&#45;&gt;三井住友銀行 -->
<g id="edge7" class="edge">
<title>給与&#45;&gt;三井住友銀行</title>
<path fill="none" stroke="#000000" stroke-width="2" d="M54.2534,-1635C62.2529,-1635 71.3442,-1635 80.571,-1635"/>
<polygon fill="#000000" stroke="#000000" stroke-width="2" points="80.5912,-1638.5001 90.5911,-1635 80.5911,-1631.5001 80.5912,-1638.5001"/>
</g>
<!-- 住信SBI銀行 -->
<g id="node10" class="node">
<title>住信SBI銀行</title>
<polygon fill="none" stroke="#000000" points="192,-1445 92,-1445 92,-1409 192,-1409 192,-1445"/>
<text text-anchor="middle" x="142" y="-1423.3" font-family="Times,serif" font-size="14.00" fill="#000000">住信SBI銀行</text>
</g>
<!-- 三井住友銀行&#45;&gt;住信SBI銀行 -->
<g id="edge9" class="edge">
<title>三井住友銀行&#45;&gt;住信SBI銀行</title>
<path fill="none" stroke="#000000" stroke-width="2" d="M142,-1616.8433C142,-1563.0068 142,-1509.1703 142,-1455.3337"/>
<polygon fill="#000000" stroke="#000000" stroke-width="2" points="145.5001,-1455.2812 142,-1445.2813 138.5001,-1455.2813 145.5001,-1455.2812"/>
</g>
<!-- 三井住友VISAカード -->
<g id="node11" class="node">
<title>三井住友VISAカード</title>
<polygon fill="none" stroke="#000000" points="398.5,-1777 245.5,-1777 245.5,-1741 398.5,-1741 398.5,-1777"/>
<text text-anchor="middle" x="322" y="-1755.3" font-family="Times,serif" font-size="14.00" fill="#000000">三井住友VISAカード</text>
</g>
<!-- 三井住友銀行&#45;&gt;三井住友VISAカード -->
<g id="edge13" class="edge">
<title>三井住友銀行&#45;&gt;三井住友VISAカード</title>
<path fill="none" stroke="#000000" stroke-width="2" d="M168.1735,-1653.0307C199.6341,-1674.7035 252.5327,-1711.1448 287.3552,-1735.1336"/>
<polygon fill="#000000" stroke="#000000" stroke-width="2" points="285.5742,-1738.1568 295.7949,-1740.9476 289.5454,-1732.3922 285.5742,-1738.1568"/>
</g>
<!-- 現金 -->
<g id="node16" class="node">
<title>現金</title>
<polygon fill="none" stroke="#000000" points="512,-1445 458,-1445 458,-1409 512,-1409 512,-1445"/>
<text text-anchor="middle" x="485" y="-1423.3" font-family="Times,serif" font-size="14.00" fill="#000000">現金</text>
</g>
<!-- 三井住友銀行&#45;&gt;現金 -->
<g id="edge8" class="edge">
<title>三井住友銀行&#45;&gt;現金</title>
<path fill="none" stroke="#000000" stroke-width="2" d="M193.0134,-1620.8626C250.7819,-1603.0958 345.7317,-1568.4297 414,-1516 436.4304,-1498.7736 455.9673,-1473.0001 468.838,-1453.6155"/>
<polygon fill="#000000" stroke="#000000" stroke-width="2" points="471.7804,-1455.5108 474.2689,-1445.2123 465.9013,-1451.7112 471.7804,-1455.5108"/>
</g>
<!-- 関西電力 -->
<g id="node40" class="node">
<title>関西電力</title>
<polygon fill="none" stroke="#000000" points="1050.5,-1685 976.5,-1685 976.5,-1649 1050.5,-1649 1050.5,-1685"/>
<text text-anchor="middle" x="1013.5" y="-1663.3" font-family="Times,serif" font-size="14.00" fill="#000000">関西電力</text>
</g>
<!-- 三井住友銀行&#45;&gt;関西電力 -->
<g id="edge10" class="edge">
<title>三井住友銀行&#45;&gt;関西電力</title>
<path fill="none" stroke="#000000" stroke-width="2" d="M193.168,-1649.0357C228.9606,-1657.6337 278.0401,-1667 322,-1667 322,-1667 322,-1667 870,-1667 902.0319,-1667 938.0858,-1667 966.0417,-1667"/>
<polygon fill="#000000" stroke="#000000" stroke-width="2" points="966.3343,-1670.5001 976.3343,-1667 966.3343,-1663.5001 966.3343,-1670.5001"/>
</g>
<!-- ビックカメラSuicaカード -->
<g id="node12" class="node">
<title>ビックカメラSuicaカード</title>
<polygon fill="none" stroke="#000000" points="414,-1507 230,-1507 230,-1471 414,-1471 414,-1507"/>
<text text-anchor="middle" x="322" y="-1485.3" font-family="Times,serif" font-size="14.00" fill="#000000">ビックカメラSuicaカード</text>
</g>
<!-- 住信SBI銀行&#45;&gt;ビックカメラSuicaカード -->
<g id="edge31" class="edge">
<title>住信SBI銀行&#45;&gt;ビックカメラSuicaカード</title>
<path fill="none" stroke="#000000" stroke-width="2" d="M192.14,-1444.2705C213.1627,-1451.5116 237.8216,-1460.0052 259.9709,-1467.6344"/>
<polygon fill="#000000" stroke="#000000" stroke-width="2" points="259.0244,-1471.0102 269.6191,-1470.9577 261.3041,-1464.3918 259.0244,-1471.0102"/>
</g>
<!-- リクルートカード -->
<g id="node13" class="node">
<title>リクルートカード</title>
<polygon fill="none" stroke="#000000" points="386.5,-938 257.5,-938 257.5,-902 386.5,-902 386.5,-938"/>
<text text-anchor="middle" x="322" y="-916.3" font-family="Times,serif" font-size="14.00" fill="#000000">リクルートカード</text>
</g>
<!-- 住信SBI銀行&#45;&gt;リクルートカード -->
<g id="edge32" class="edge">
<title>住信SBI銀行&#45;&gt;リクルートカード</title>
<path fill="none" stroke="#000000" stroke-width="2" d="M148.4063,-1408.9556C175.3589,-1333.0391 279.652,-1039.2801 312.2239,-947.5361"/>
<polygon fill="#000000" stroke="#000000" stroke-width="2" points="315.5293,-948.687 315.5767,-938.0922 308.9327,-946.3449 315.5293,-948.687"/>
</g>
<!-- 住信SBI銀行&#45;&gt;現金 -->
<g id="edge29" class="edge">
<title>住信SBI銀行&#45;&gt;現金</title>
<path fill="none" stroke="#000000" stroke-width="2" d="M192.2425,-1427C261.7234,-1427 385.5691,-1427 447.529,-1427"/>
<polygon fill="#000000" stroke="#000000" stroke-width="2" points="447.6386,-1430.5001 457.6385,-1427 447.6385,-1423.5001 447.6386,-1430.5001"/>
</g>
<!-- 家賃 -->
<g id="node30" class="node">
<title>家賃</title>
<polygon fill="none" stroke="#000000" points="1040.5,-90 986.5,-90 986.5,-54 1040.5,-54 1040.5,-90"/>
<text text-anchor="middle" x="1013.5" y="-68.3" font-family="Times,serif" font-size="14.00" fill="#000000">家賃</text>
</g>
<!-- 住信SBI銀行&#45;&gt;家賃 -->
<g id="edge30" class="edge">
<title>住信SBI銀行&#45;&gt;家賃</title>
<path fill="none" stroke="#000000" stroke-width="2" d="M142.4248,-1408.8699C146.4231,-1248.078 180.5041,-72 322,-72 322,-72 322,-72 870,-72 906.056,-72 947.208,-72 976.1703,-72"/>
<polygon fill="#000000" stroke="#000000" stroke-width="2" points="976.2571,-75.5001 986.257,-72 976.257,-68.5001 976.2571,-75.5001"/>
</g>
<!-- PiTaPa -->
<g id="node15" class="node">
<title>PiTaPa</title>
<polygon fill="none" stroke="#000000" points="517.5,-1777 452.5,-1777 452.5,-1741 517.5,-1741 517.5,-1777"/>
<text text-anchor="middle" x="485" y="-1755.3" font-family="Times,serif" font-size="14.00" fill="#000000">PiTaPa</text>
</g>
<!-- 三井住友VISAカード&#45;&gt;PiTaPa -->
<g id="edge14" class="edge">
<title>三井住友VISAカード&#45;&gt;PiTaPa</title>
<path fill="none" stroke="#000000" stroke-width="2" d="M398.727,-1759C413.5824,-1759 428.6499,-1759 441.9463,-1759"/>
<polygon fill="#000000" stroke="#000000" stroke-width="2" points="442.1923,-1762.5001 452.1922,-1759 442.1922,-1755.5001 442.1923,-1762.5001"/>
</g>
<!-- Suica -->
<g id="node14" class="node">
<title>Suica</title>
<polygon fill="none" stroke="#000000" points="513,-1340 457,-1340 457,-1304 513,-1304 513,-1340"/>
<text text-anchor="middle" x="485" y="-1318.3" font-family="Times,serif" font-size="14.00" fill="#000000">Suica</text>
</g>
<!-- ビックカメラSuicaカード&#45;&gt;Suica -->
<g id="edge23" class="edge">
<title>ビックカメラSuicaカード&#45;&gt;Suica</title>
<path fill="none" stroke="#000000" stroke-width="2" d="M338.8127,-1470.801C363.1548,-1444.5918 409.8136,-1394.8758 451,-1354 453.3014,-1351.716 455.7137,-1349.3645 458.146,-1347.0223"/>
<polygon fill="#000000" stroke="#000000" stroke-width="2" points="460.5855,-1349.5323 465.4123,-1340.1008 455.7575,-1344.4637 460.5855,-1349.5323"/>
</g>
<!-- JREポイント -->
<g id="node22" class="node">
<title>JREポイント</title>
<polygon fill="none" stroke="#000000" points="742.5,-1299 641.5,-1299 641.5,-1263 742.5,-1263 742.5,-1299"/>
<text text-anchor="middle" x="692" y="-1277.3" font-family="Times,serif" font-size="14.00" fill="#000000">JREポイント</text>
</g>
<!-- ビックカメラSuicaカード&#45;&gt;JREポイント -->
<g id="edge18" class="edge">
<title>ビックカメラSuicaカード&#45;&gt;JREポイント</title>
<path fill="none" stroke="#000000" d="M341.2908,-1470.6234C365.4734,-1448.2809 408.8819,-1410.4162 451,-1385 483.5908,-1365.3331 576.2798,-1327.0444 636.7488,-1302.8141"/>
<polygon fill="#000000" stroke="#000000" points="638.1764,-1306.0128 646.1629,-1299.0511 635.5781,-1299.5129 638.1764,-1306.0128"/>
<text text-anchor="middle" x="485" y="-1388.8" font-family="Times,serif" font-size="14.00" fill="#000000">0.5%</text>
</g>
<!-- ビックポイント -->
<g id="node23" class="node">
<title>ビックポイント</title>
<polygon fill="none" stroke="#000000" points="750,-1566 634,-1566 634,-1530 750,-1530 750,-1566"/>
<text text-anchor="middle" x="692" y="-1544.3" font-family="Times,serif" font-size="14.00" fill="#000000">ビックポイント</text>
</g>
<!-- ビックカメラSuicaカード&#45;&gt;ビックポイント -->
<g id="edge21" class="edge">
<title>ビックカメラSuicaカード&#45;&gt;ビックポイント</title>
<path fill="none" stroke="#000000" d="M390.0897,-1507.0414C403.8971,-1510.3243 418.3647,-1513.4966 432,-1516 496.5815,-1527.8572 571.0143,-1536.5181 623.6462,-1541.8167"/>
<polygon fill="#000000" stroke="#000000" points="623.5758,-1545.3268 633.8725,-1542.8315 624.2671,-1538.361 623.5758,-1545.3268"/>
<text text-anchor="middle" x="485" y="-1532.8" font-family="Times,serif" font-size="14.00" fill="#000000">0.5%</text>
</g>
<!-- ビックカメラ -->
<g id="node43" class="node">
<title>ビックカメラ</title>
<polygon fill="none" stroke="#000000" points="1064,-1631 963,-1631 963,-1595 1064,-1595 1064,-1631"/>
<text text-anchor="middle" x="1013.5" y="-1609.3" font-family="Times,serif" font-size="14.00" fill="#000000">ビックカメラ</text>
</g>
<!-- ビックカメラSuicaカード&#45;&gt;ビックカメラ -->
<g id="edge19" class="edge">
<title>ビックカメラSuicaカード&#45;&gt;ビックカメラ</title>
<path fill="none" stroke="#000000" stroke-width="2" stroke-dasharray="5,2" d="M331.7687,-1507.0159C353.7357,-1544.8277 410.952,-1629 485,-1629 485,-1629 485,-1629 870,-1629 897.2096,-1629 927.1435,-1626.1235 952.5999,-1622.8099"/>
<polygon fill="#000000" stroke="#000000" stroke-width="2" points="953.4083,-1626.2324 962.848,-1621.4217 952.4686,-1619.2958 953.4083,-1626.2324"/>
</g>
<!-- EX予約 -->
<g id="node53" class="node">
<title>EX予約</title>
<polygon fill="none" stroke="#000000" points="1046.5,-1528 980.5,-1528 980.5,-1492 1046.5,-1492 1046.5,-1528"/>
<text text-anchor="middle" x="1013.5" y="-1506.3" font-family="Times,serif" font-size="14.00" fill="#000000">EX予約</text>
</g>
<!-- ビックカメラSuicaカード&#45;&gt;EX予約 -->
<g id="edge26" class="edge">
<title>ビックカメラSuicaカード&#45;&gt;EX予約</title>
<path fill="none" stroke="#000000" stroke-width="2" stroke-dasharray="5,2" d="M414.135,-1498.9192C437.2436,-1500.6985 462.0053,-1502 485,-1502 485,-1502 485,-1502 870,-1502 903.7786,-1502 941.9605,-1504.2371 970.4429,-1506.3453"/>
<polygon fill="#000000" stroke="#000000" stroke-width="2" points="970.2338,-1509.8395 980.4714,-1507.1118 970.7673,-1502.8598 970.2338,-1509.8395"/>
</g>
<!-- nanaco -->
<g id="node17" class="node">
<title>nanaco</title>
<polygon fill="none" stroke="#000000" points="519,-1039 451,-1039 451,-1003 519,-1003 519,-1039"/>
<text text-anchor="middle" x="485" y="-1017.3" font-family="Times,serif" font-size="14.00" fill="#000000">nanaco</text>
</g>
<!-- リクルートカード&#45;&gt;nanaco -->
<g id="edge56" class="edge">
<title>リクルートカード&#45;&gt;nanaco</title>
<path fill="none" stroke="#000000" stroke-width="2" d="M351.1411,-938.0568C377.9458,-954.6658 417.8542,-979.3943 447.1217,-997.5294"/>
<polygon fill="#000000" stroke="#000000" stroke-width="2" points="445.4929,-1000.6375 455.8368,-1002.9296 449.1799,-994.6872 445.4929,-1000.6375"/>
</g>
<!-- Edy -->
<g id="node18" class="node">
<title>Edy</title>
<polygon fill="none" stroke="#000000" points="512,-682 458,-682 458,-646 512,-646 512,-682"/>
<text text-anchor="middle" x="485" y="-660.3" font-family="Times,serif" font-size="14.00" fill="#000000">Edy</text>
</g>
<!-- リクルートカード&#45;&gt;Edy -->
<g id="edge40" class="edge">
<title>リクルートカード&#45;&gt;Edy</title>
<path fill="none" stroke="#000000" stroke-width="2" d="M333.4618,-901.9986C361.6265,-857.7645 434.3545,-743.5414 467.7591,-691.0777"/>
<polygon fill="#000000" stroke="#000000" stroke-width="2" points="470.9141,-692.6393 473.3326,-682.3242 465.0094,-688.8796 470.9141,-692.6393"/>
</g>
<!-- Ponta -->
<g id="node19" class="node">
<title>Ponta</title>
<polygon fill="none" stroke="#000000" points="720.5,-938 663.5,-938 663.5,-902 720.5,-902 720.5,-938"/>
<text text-anchor="middle" x="692" y="-916.3" font-family="Times,serif" font-size="14.00" fill="#000000">Ponta</text>
</g>
<!-- リクルートカード&#45;&gt;Ponta -->
<g id="edge51" class="edge">
<title>リクルートカード&#45;&gt;Ponta</title>
<path fill="none" stroke="#000000" d="M386.8725,-920C463.8692,-920 589.7769,-920 653.0772,-920"/>
<polygon fill="#000000" stroke="#000000" points="653.4131,-923.5001 663.4131,-920 653.413,-916.5001 653.4131,-923.5001"/>
<text text-anchor="middle" x="485" y="-923.8" font-family="Times,serif" font-size="14.00" fill="#000000">1.2%</text>
</g>
<!-- NHK -->
<g id="node37" class="node">
<title>NHK</title>
<polygon fill="none" stroke="#000000" points="1040.5,-314 986.5,-314 986.5,-278 1040.5,-278 1040.5,-314"/>
<text text-anchor="middle" x="1013.5" y="-292.3" font-family="Times,serif" font-size="14.00" fill="#000000">NHK</text>
</g>
<!-- リクルートカード&#45;&gt;NHK -->
<g id="edge33" class="edge">
<title>リクルートカード&#45;&gt;NHK</title>
<path fill="none" stroke="#000000" stroke-width="2" d="M322.7179,-901.9978C327.2729,-799.6865 356.2363,-296 485,-296 485,-296 485,-296 870,-296 906.056,-296 947.208,-296 976.1703,-296"/>
<polygon fill="#000000" stroke="#000000" stroke-width="2" points="976.2571,-299.5001 986.257,-296 976.257,-292.5001 976.2571,-299.5001"/>
</g>
<!-- NTT -->
<g id="node38" class="node">
<title>NTT</title>
<polygon fill="none" stroke="#000000" points="1040.5,-260 986.5,-260 986.5,-224 1040.5,-224 1040.5,-260"/>
<text text-anchor="middle" x="1013.5" y="-238.3" font-family="Times,serif" font-size="14.00" fill="#000000">NTT</text>
</g>
<!-- リクルートカード&#45;&gt;NTT -->
<g id="edge34" class="edge">
<title>リクルートカード&#45;&gt;NTT</title>
<path fill="none" stroke="#000000" stroke-width="2" d="M322.3594,-901.8651C324.9715,-794.044 345.1731,-242 485,-242 485,-242 485,-242 870,-242 906.056,-242 947.208,-242 976.1703,-242"/>
<polygon fill="#000000" stroke="#000000" stroke-width="2" points="976.2571,-245.5001 986.257,-242 976.257,-238.5001 976.2571,-245.5001"/>
</g>
<!-- ASAHIネット -->
<g id="node39" class="node">
<title>ASAHIネット</title>
<polygon fill="none" stroke="#000000" points="1068,-206 959,-206 959,-170 1068,-170 1068,-206"/>
<text text-anchor="middle" x="1013.5" y="-184.3" font-family="Times,serif" font-size="14.00" fill="#000000">ASAHIネット</text>
</g>
<!-- リクルートカード&#45;&gt;ASAHIネット -->
<g id="edge35" class="edge">
<title>リクルートカード&#45;&gt;ASAHIネット</title>
<path fill="none" stroke="#000000" stroke-width="2" d="M322.5595,-901.7424C325.478,-823.2702 342.4865,-507.811 432,-269 445.0829,-234.0963 447.7249,-204 485,-204 485,-204 485,-204 870,-204 895.8877,-204 924.2414,-201.3962 948.8587,-198.2895"/>
<polygon fill="#000000" stroke="#000000" stroke-width="2" points="949.3463,-201.7556 958.8049,-196.9822 948.4341,-194.8153 949.3463,-201.7556"/>
</g>
<!-- アイハート -->
<g id="node41" class="node">
<title>アイハート</title>
<polygon fill="none" stroke="#000000" points="1056.5,-1222 970.5,-1222 970.5,-1186 1056.5,-1186 1056.5,-1222"/>
<text text-anchor="middle" x="1013.5" y="-1200.3" font-family="Times,serif" font-size="14.00" fill="#000000">アイハート</text>
</g>
<!-- リクルートカード&#45;&gt;アイハート -->
<g id="edge39" class="edge">
<title>リクルートカード&#45;&gt;アイハート</title>
<path fill="none" stroke="#000000" stroke-width="2" d="M324.2675,-938.2145C332.8325,-998.0856 368.8711,-1185 485,-1185 485,-1185 485,-1185 870,-1185 900.0831,-1185 933.4092,-1189.1544 960.3675,-1193.5781"/>
<polygon fill="#000000" stroke="#000000" stroke-width="2" points="959.9225,-1197.0525 970.3677,-1195.2785 961.096,-1190.1516 959.9225,-1197.0525"/>
</g>
<!-- Amazon -->
<g id="node51" class="node">
<title>Amazon</title>
<polygon fill="none" stroke="#000000" points="1050.5,-152 976.5,-152 976.5,-116 1050.5,-116 1050.5,-152"/>
<text text-anchor="middle" x="1013.5" y="-130.3" font-family="Times,serif" font-size="14.00" fill="#000000">Amazon</text>
</g>
<!-- リクルートカード&#45;&gt;Amazon -->
<g id="edge37" class="edge">
<title>リクルートカード&#45;&gt;Amazon</title>
<path fill="none" stroke="#000000" stroke-width="2" d="M324.1839,-901.8046C333.681,-824.1835 373.5524,-513.2989 432,-263 443.1711,-215.1603 435.8733,-166 485,-166 485,-166 485,-166 870,-166 902.736,-166 938.6873,-157.9687 966.4164,-149.9531"/>
<polygon fill="#000000" stroke="#000000" stroke-width="2" points="967.6612,-153.2341 976.2391,-147.0156 965.6555,-146.5276 967.6612,-153.2341"/>
</g>
<!-- iTunes -->
<g id="node52" class="node">
<title>iTunes</title>
<polygon fill="none" stroke="#000000" points="1046,-1114 981,-1114 981,-1078 1046,-1078 1046,-1114"/>
<text text-anchor="middle" x="1013.5" y="-1092.3" font-family="Times,serif" font-size="14.00" fill="#000000">iTunes</text>
</g>
<!-- リクルートカード&#45;&gt;iTunes -->
<g id="edge36" class="edge">
<title>リクルートカード&#45;&gt;iTunes</title>
<path fill="none" stroke="#000000" stroke-width="2" stroke-dasharray="5,2" d="M328.6647,-938.1722C346.4592,-983.1399 399.6241,-1096 485,-1096 485,-1096 485,-1096 870,-1096 903.8372,-1096 942.1624,-1096 970.6889,-1096"/>
<polygon fill="#000000" stroke="#000000" stroke-width="2" points="970.7289,-1099.5001 980.7289,-1096 970.7289,-1092.5001 970.7289,-1099.5001"/>
</g>
<!-- じゃらん -->
<g id="node54" class="node">
<title>じゃらん</title>
<polygon fill="none" stroke="#000000" points="1050.5,-1006 976.5,-1006 976.5,-970 1050.5,-970 1050.5,-1006"/>
<text text-anchor="middle" x="1013.5" y="-984.3" font-family="Times,serif" font-size="14.00" fill="#000000">じゃらん</text>
</g>
<!-- リクルートカード&#45;&gt;じゃらん -->
<g id="edge38" class="edge">
<title>リクルートカード&#45;&gt;じゃらん</title>
<path fill="none" stroke="#000000" stroke-width="2" d="M386.5676,-929.9997C407.1384,-933.0541 430.0052,-936.3129 451,-939 662.9687,-966.1299 715.6157,-979.4275 929,-991 941.1385,-991.6583 954.2661,-991.5768 966.4727,-991.1652"/>
<polygon fill="#000000" stroke="#000000" stroke-width="2" points="966.6212,-994.6621 976.4676,-990.7508 966.3312,-987.6681 966.6212,-994.6621"/>
</g>
<!-- Suica&#45;&gt;JREポイント -->
<g id="edge27" class="edge">
<title>Suica&#45;&gt;JREポイント</title>
<path fill="none" stroke="#000000" d="M502.4906,-1303.8891C511.8409,-1295.5095 524.0746,-1286.4428 537,-1282 566.9357,-1271.7103 602.0869,-1270.6656 631.3401,-1272.5424"/>
<polygon fill="#000000" stroke="#000000" points="631.1841,-1276.0407 641.4231,-1273.3177 631.7208,-1269.0613 631.1841,-1276.0407"/>
<text text-anchor="middle" x="555.5" y="-1285.8" font-family="Times,serif" font-size="14.00" fill="#000000">1.5%</text>
</g>
<!-- 電車 -->
<g id="node34" class="node">
<title>電車</title>
<polygon fill="none" stroke="#000000" points="1040.5,-1404 986.5,-1404 986.5,-1368 1040.5,-1368 1040.5,-1404"/>
<text text-anchor="middle" x="1013.5" y="-1382.3" font-family="Times,serif" font-size="14.00" fill="#000000">電車</text>
</g>
<!-- Suica&#45;&gt;電車 -->
<g id="edge24" class="edge">
<title>Suica&#45;&gt;電車</title>
<path fill="none" stroke="#000000" stroke-width="2" d="M513.3848,-1324.9105C567.5851,-1330.5197 689.5459,-1343.3903 792,-1356 856.8954,-1363.9871 932.3179,-1374.4561 976.2981,-1380.6801"/>
<polygon fill="#000000" stroke="#000000" stroke-width="2" points="975.8552,-1384.1522 986.2477,-1382.0917 976.8385,-1377.2216 975.8552,-1384.1522"/>
</g>
<!-- 松屋 -->
<g id="node49" class="node">
<title>松屋</title>
<polygon fill="none" stroke="#000000" points="1040.5,-1276 986.5,-1276 986.5,-1240 1040.5,-1240 1040.5,-1276"/>
<text text-anchor="middle" x="1013.5" y="-1254.3" font-family="Times,serif" font-size="14.00" fill="#000000">松屋</text>
</g>
<!-- Suica&#45;&gt;松屋 -->
<g id="edge25" class="edge">
<title>Suica&#45;&gt;松屋</title>
<path fill="none" stroke="#000000" stroke-width="2" d="M494.2193,-1303.875C502.9897,-1288.7355 517.7037,-1268.0591 537,-1258 558.7333,-1246.6705 567.5071,-1254.8895 592,-1254 733.8478,-1248.8487 902.7123,-1253.7995 976.227,-1256.5015"/>
<polygon fill="#000000" stroke="#000000" stroke-width="2" points="976.2427,-1260.0045 986.367,-1256.8824 976.5055,-1253.0094 976.2427,-1260.0045"/>
</g>
<!-- 大阪地下鉄 -->
<g id="node35" class="node">
<title>大阪地下鉄</title>
<polygon fill="none" stroke="#000000" points="1057.5,-1861 969.5,-1861 969.5,-1825 1057.5,-1825 1057.5,-1861"/>
<text text-anchor="middle" x="1013.5" y="-1839.3" font-family="Times,serif" font-size="14.00" fill="#000000">大阪地下鉄</text>
</g>
<!-- PiTaPa&#45;&gt;大阪地下鉄 -->
<g id="edge15" class="edge">
<title>PiTaPa&#45;&gt;大阪地下鉄</title>
<path fill="none" stroke="#000000" stroke-width="2" d="M517.5559,-1758.2727C573.9292,-1757.5744 693.1696,-1758.5743 792,-1776 850.4855,-1786.3121 915.2812,-1807.0543 959.5997,-1822.7432"/>
<polygon fill="#000000" stroke="#000000" stroke-width="2" points="958.6976,-1826.1376 969.2922,-1826.2094 961.0548,-1819.5464 958.6976,-1826.1376"/>
</g>
<!-- 山陽バス -->
<g id="node36" class="node">
<title>山陽バス</title>
<polygon fill="none" stroke="#000000" points="1050.5,-1807 976.5,-1807 976.5,-1771 1050.5,-1771 1050.5,-1807"/>
<text text-anchor="middle" x="1013.5" y="-1785.3" font-family="Times,serif" font-size="14.00" fill="#000000">山陽バス</text>
</g>
<!-- PiTaPa&#45;&gt;山陽バス -->
<g id="edge17" class="edge">
<title>PiTaPa&#45;&gt;山陽バス</title>
<path fill="none" stroke="#000000" stroke-width="2" stroke-dasharray="5,2" d="M517.7693,-1769.0418C524.096,-1770.6327 530.7123,-1772.0608 537,-1773 692.7973,-1796.2725 880.2927,-1793.7856 966.255,-1790.9771"/>
<polygon fill="#000000" stroke="#000000" stroke-width="2" points="966.5978,-1794.4674 976.4716,-1790.6258 966.3572,-1787.4716 966.5978,-1794.4674"/>
</g>
<!-- 切符 -->
<g id="node29" class="node">
<title>切符</title>
<polygon fill="none" stroke="#000000" points="897,-1435 843,-1435 843,-1399 897,-1399 897,-1435"/>
<text text-anchor="middle" x="870" y="-1413.3" font-family="Times,serif" font-size="14.00" fill="#000000">切符</text>
</g>
<!-- 現金&#45;&gt;切符 -->
<g id="edge68" class="edge">
<title>現金&#45;&gt;切符</title>
<path fill="none" stroke="#000000" stroke-width="2" d="M512.0725,-1422.6294C579.5862,-1416.9498 755.5126,-1412.2044 832.7373,-1413.7729"/>
<polygon fill="#000000" stroke="#000000" stroke-width="2" points="832.8705,-1417.2775 842.9575,-1414.0367 833.0511,-1410.2798 832.8705,-1417.2775"/>
</g>
<!-- 飲食店 -->
<g id="node46" class="node">
<title>飲食店</title>
<polygon fill="none" stroke="#000000" points="1043,-1474 984,-1474 984,-1438 1043,-1438 1043,-1474"/>
<text text-anchor="middle" x="1013.5" y="-1452.3" font-family="Times,serif" font-size="14.00" fill="#000000">飲食店</text>
</g>
<!-- 現金&#45;&gt;飲食店 -->
<g id="edge65" class="edge">
<title>現金&#45;&gt;飲食店</title>
<path fill="none" stroke="#000000" stroke-width="2" d="M512.1542,-1440.8077C519.9759,-1444.1398 528.6547,-1447.2434 537,-1449 695.8057,-1482.4276 891.0007,-1468.7391 973.5871,-1460.512"/>
<polygon fill="#000000" stroke="#000000" stroke-width="2" points="974.1948,-1463.9681 983.7855,-1459.466 973.4805,-1457.0046 974.1948,-1463.9681"/>
</g>
<!-- 吉野家 -->
<g id="node50" class="node">
<title>吉野家</title>
<polygon fill="none" stroke="#000000" points="1043,-1168 984,-1168 984,-1132 1043,-1132 1043,-1168"/>
<text text-anchor="middle" x="1013.5" y="-1146.3" font-family="Times,serif" font-size="14.00" fill="#000000">吉野家</text>
</g>
<!-- 現金&#45;&gt;吉野家 -->
<g id="edge66" class="edge">
<title>現金&#45;&gt;吉野家</title>
<path fill="none" stroke="#000000" stroke-width="2" d="M512.4173,-1422.8811C578.4318,-1412.6149 744.2751,-1384.6474 792,-1356 882.4793,-1301.6889 862.2645,-1238.5275 948,-1177 956.0099,-1171.2518 965.4253,-1166.4562 974.5808,-1162.5802"/>
<polygon fill="#000000" stroke="#000000" stroke-width="2" points="975.9454,-1165.8044 983.9579,-1158.8725 973.3715,-1159.2947 975.9454,-1165.8044"/>
</g>
<!-- nanacoポイント -->
<g id="node25" class="node">
<title>nanacoポイント</title>
<polygon fill="none" stroke="#000000" points="754.5,-1030 629.5,-1030 629.5,-994 754.5,-994 754.5,-1030"/>
<text text-anchor="middle" x="692" y="-1008.3" font-family="Times,serif" font-size="14.00" fill="#000000">nanacoポイント</text>
</g>
<!-- nanaco&#45;&gt;nanacoポイント -->
<g id="edge58" class="edge">
<title>nanaco&#45;&gt;nanacoポイント</title>
<path fill="none" stroke="#000000" d="M519.2176,-1006.5926C525.0563,-1004.6884 531.132,-1003.0385 537,-1002 563.606,-997.2915 593.1301,-997.8008 619.212,-1000.1647"/>
<polygon fill="#000000" stroke="#000000" points="619.1001,-1003.6712 629.4018,-1001.1963 619.8052,-996.7068 619.1001,-1003.6712"/>
<text text-anchor="middle" x="555.5" y="-1005.8" font-family="Times,serif" font-size="14.00" fill="#000000">1%</text>
</g>
<!-- セブンイレブン -->
<g id="node32" class="node">
<title>セブンイレブン</title>
<polygon fill="none" stroke="#000000" points="1070.5,-1060 956.5,-1060 956.5,-1024 1070.5,-1024 1070.5,-1060"/>
<text text-anchor="middle" x="1013.5" y="-1038.3" font-family="Times,serif" font-size="14.00" fill="#000000">セブンイレブン</text>
</g>
<!-- nanaco&#45;&gt;セブンイレブン -->
<g id="edge57" class="edge">
<title>nanaco&#45;&gt;セブンイレブン</title>
<path fill="none" stroke="#000000" stroke-width="2" d="M519.0488,-1028.6195C525.0156,-1029.8354 531.177,-1031.0153 537,-1032 561.2966,-1036.1089 567.4134,-1037.3538 592,-1039 716.939,-1047.3652 863.1715,-1045.888 946.4126,-1043.9885"/>
<polygon fill="#000000" stroke="#000000" stroke-width="2" points="946.5794,-1047.4856 956.4935,-1043.7493 946.4132,-1040.4876 946.5794,-1047.4856"/>
</g>
<!-- Edy&#45;&gt;Ponta -->
<g id="edge50" class="edge">
<title>Edy&#45;&gt;Ponta</title>
<path fill="none" stroke="#000000" d="M487.8367,-682.2129C494.8063,-724.895 513.8954,-829.7552 537,-856 567.0281,-890.1092 618.063,-906.417 653.324,-913.9506"/>
<polygon fill="#000000" stroke="#000000" points="652.7782,-917.4106 663.2696,-915.9338 654.1471,-910.5457 652.7782,-917.4106"/>
<text text-anchor="middle" x="555.5" y="-888.8" font-family="Times,serif" font-size="14.00" fill="#000000">0.5%</text>
</g>
<!-- ローソン -->
<g id="node31" class="node">
<title>ローソン</title>
<polygon fill="none" stroke="#000000" points="1050,-868 977,-868 977,-832 1050,-832 1050,-868"/>
<text text-anchor="middle" x="1013.5" y="-846.3" font-family="Times,serif" font-size="14.00" fill="#000000">ローソン</text>
</g>
<!-- Edy&#45;&gt;ローソン -->
<g id="edge41" class="edge">
<title>Edy&#45;&gt;ローソン</title>
<path fill="none" stroke="#000000" stroke-width="2" d="M490.2644,-682.1291C501.754,-717.6554 532.904,-795.0551 592,-819 719.5614,-870.6861 886.4861,-863.2722 966.6027,-855.6169"/>
<polygon fill="#000000" stroke="#000000" stroke-width="2" points="967.2562,-859.069 976.8575,-854.5896 966.5584,-852.1039 967.2562,-859.069"/>
</g>
<!-- ファミリーマート -->
<g id="node33" class="node">
<title>ファミリーマート</title>
<polygon fill="none" stroke="#000000" points="1079,-698 948,-698 948,-662 1079,-662 1079,-698"/>
<text text-anchor="middle" x="1013.5" y="-676.3" font-family="Times,serif" font-size="14.00" fill="#000000">ファミリーマート</text>
</g>
<!-- Edy&#45;&gt;ファミリーマート -->
<g id="edge43" class="edge">
<title>Edy&#45;&gt;ファミリーマート</title>
<path fill="none" stroke="#000000" stroke-width="2" d="M512.3016,-664.8265C590.5533,-667.1956 817.6817,-674.0717 937.4794,-677.6985"/>
<polygon fill="#000000" stroke="#000000" stroke-width="2" points="937.5729,-681.2029 947.6743,-678.0072 937.7848,-674.2061 937.5729,-681.2029"/>
</g>
<!-- ウェルシア -->
<g id="node42" class="node">
<title>ウェルシア</title>
<polygon fill="none" stroke="#000000" points="1057,-814 970,-814 970,-778 1057,-778 1057,-814"/>
<text text-anchor="middle" x="1013.5" y="-792.3" font-family="Times,serif" font-size="14.00" fill="#000000">ウェルシア</text>
</g>
<!-- Edy&#45;&gt;ウェルシア -->
<g id="edge48" class="edge">
<title>Edy&#45;&gt;ウェルシア</title>
<path fill="none" stroke="#000000" stroke-width="2" d="M494.5338,-682.1545C510.42,-710.2232 545.238,-763.1902 592,-785 713.4791,-841.6578 876.8264,-822.8908 959.9943,-807.6113"/>
<polygon fill="#000000" stroke="#000000" stroke-width="2" points="960.7985,-811.0213 969.9735,-805.7234 959.4972,-804.1433 960.7985,-811.0213"/>
</g>
<!-- ヨドバシカメラ -->
<g id="node44" class="node">
<title>ヨドバシカメラ</title>
<polygon fill="none" stroke="#000000" points="1071.5,-590 955.5,-590 955.5,-554 1071.5,-554 1071.5,-590"/>
<text text-anchor="middle" x="1013.5" y="-568.3" font-family="Times,serif" font-size="14.00" fill="#000000">ヨドバシカメラ</text>
</g>
<!-- Edy&#45;&gt;ヨドバシカメラ -->
<g id="edge45" class="edge">
<title>Edy&#45;&gt;ヨドバシカメラ</title>
<path fill="none" stroke="#000000" stroke-width="2" d="M512.1282,-656.7477C533.675,-651.1478 564.6283,-643.4587 592,-638 715.7707,-613.3165 861.5115,-592.2522 945.143,-580.9246"/>
<polygon fill="#000000" stroke="#000000" stroke-width="2" points="945.8346,-584.3631 955.2773,-579.5584 944.8993,-577.4258 945.8346,-584.3631"/>
</g>
<!-- 餃子の王将 -->
<g id="node45" class="node">
<title>餃子の王将</title>
<polygon fill="none" stroke="#000000" points="1057.5,-368 969.5,-368 969.5,-332 1057.5,-332 1057.5,-368"/>
<text text-anchor="middle" x="1013.5" y="-346.3" font-family="Times,serif" font-size="14.00" fill="#000000">餃子の王将</text>
</g>
<!-- Edy&#45;&gt;餃子の王将 -->
<g id="edge64" class="edge">
<title>Edy&#45;&gt;餃子の王将</title>
<path fill="none" stroke="#000000" stroke-width="2" d="M485.9038,-645.8417C488.5941,-604.4016 498.9257,-500.5323 537,-424 553.7053,-390.421 558.1043,-376.0529 592,-360 712.8183,-302.7809 875.7741,-322.1135 959.2543,-337.8942"/>
<polygon fill="#000000" stroke="#000000" stroke-width="2" points="958.7918,-341.3698 969.2763,-339.8445 960.129,-334.4987 958.7918,-341.3698"/>
</g>
<!-- FRESCO -->
<g id="node47" class="node">
<title>FRESCO</title>
<polygon fill="none" stroke="#000000" points="1053.5,-422 973.5,-422 973.5,-386 1053.5,-386 1053.5,-422"/>
<text text-anchor="middle" x="1013.5" y="-400.3" font-family="Times,serif" font-size="14.00" fill="#000000">FRESCO</text>
</g>
<!-- Edy&#45;&gt;FRESCO -->
<g id="edge61" class="edge">
<title>Edy&#45;&gt;FRESCO</title>
<path fill="none" stroke="#000000" stroke-width="2" d="M486.3318,-645.9702C490.9455,-598.1372 510.7714,-467.9287 592,-413 705.6142,-336.1715 878.7331,-366.9924 963.3748,-389.0343"/>
<polygon fill="#000000" stroke="#000000" stroke-width="2" points="962.6839,-392.4724 973.2484,-391.671 964.49,-385.7094 962.6839,-392.4724"/>
</g>
<!-- 業務スーパー -->
<g id="node48" class="node">
<title>業務スーパー</title>
<polygon fill="none" stroke="#000000" points="1064,-644 963,-644 963,-608 1064,-608 1064,-644"/>
<text text-anchor="middle" x="1013.5" y="-622.3" font-family="Times,serif" font-size="14.00" fill="#000000">業務スーパー</text>
</g>
<!-- Edy&#45;&gt;業務スーパー -->
<g id="edge60" class="edge">
<title>Edy&#45;&gt;業務スーパー</title>
<path fill="none" stroke="#000000" stroke-width="2" d="M512.3016,-662.037C594.0652,-656.158 838.3688,-638.5922 952.9374,-630.3545"/>
<polygon fill="#000000" stroke="#000000" stroke-width="2" points="953.225,-633.843 962.9482,-629.6348 952.7229,-626.861 953.225,-633.843"/>
</g>
<!-- Ponta&#45;&gt;じゃらん -->
<g id="edge52" class="edge">
<title>Ponta&#45;&gt;じゃらん</title>
<path fill="none" stroke="#000000" d="M720.5792,-928.1251C744.4558,-934.8813 779.411,-944.6984 810,-953 818.4271,-955.2871 820.4585,-956.1861 829,-958 875.2805,-967.8284 928.6869,-976.1922 966.0924,-981.5719"/>
<polygon fill="#000000" stroke="#000000" points="965.806,-985.0663 976.1991,-983.0089 966.7914,-978.136 965.806,-985.0663"/>
</g>
<!-- Tポイント -->
<g id="node20" class="node">
<title>Tポイント</title>
<polygon fill="none" stroke="#000000" points="733.5,-776 650.5,-776 650.5,-740 733.5,-740 733.5,-776"/>
<text text-anchor="middle" x="692" y="-754.3" font-family="Times,serif" font-size="14.00" fill="#000000">Tポイント</text>
</g>
<!-- ワールドプレゼントポイント -->
<g id="node21" class="node">
<title>ワールドプレゼントポイント</title>
<polygon fill="none" stroke="#000000" points="792,-1912 592,-1912 592,-1876 792,-1876 792,-1912"/>
<text text-anchor="middle" x="692" y="-1890.3" font-family="Times,serif" font-size="14.00" fill="#000000">ワールドプレゼントポイント</text>
</g>
<!-- JREポイント&#45;&gt;Suica -->
<g id="edge28" class="edge">
<title>JREポイント&#45;&gt;Suica</title>
<path fill="none" stroke="#000000" d="M641.2882,-1266.166C610.0811,-1259.723 569.8995,-1256.3726 537,-1270 523.9698,-1275.3973 512.5023,-1285.8193 503.6752,-1295.9246"/>
<polygon fill="#000000" stroke="#000000" points="500.8069,-1293.9031 497.1827,-1303.8588 506.2243,-1298.3362 500.8069,-1293.9031"/>
</g>
<!-- ビックポイント&#45;&gt;ビックカメラ -->
<g id="edge22" class="edge">
<title>ビックポイント&#45;&gt;ビックカメラ</title>
<path fill="none" stroke="#000000" d="M750.2886,-1560.5519C774.6037,-1565.7324 803.151,-1571.7426 829,-1577 870.3636,-1585.4128 917.0263,-1594.5142 953.075,-1601.4608"/>
<polygon fill="#000000" stroke="#000000" points="952.4667,-1604.9079 962.9479,-1603.3606 953.7895,-1598.034 952.4667,-1604.9079"/>
</g>
<!-- Amazonポイント -->
<g id="node24" class="node">
<title>Amazonポイント</title>
<polygon fill="none" stroke="#000000" points="757.5,-137 626.5,-137 626.5,-101 757.5,-101 757.5,-137"/>
<text text-anchor="middle" x="692" y="-115.3" font-family="Times,serif" font-size="14.00" fill="#000000">Amazonポイント</text>
</g>
<!-- Amazonポイント&#45;&gt;Amazon -->
<g id="edge55" class="edge">
<title>Amazonポイント&#45;&gt;Amazon</title>
<path fill="none" stroke="#000000" d="M757.8361,-116.5009C819.7945,-117.6348 911.0617,-122.0992 966.1408,-126.8381"/>
<polygon fill="#000000" stroke="#000000" points="966.0476,-130.3439 976.3218,-127.757 966.6769,-123.3722 966.0476,-130.3439"/>
</g>
<!-- nanacoポイント&#45;&gt;nanaco -->
<g id="edge59" class="edge">
<title>nanacoポイント&#45;&gt;nanaco</title>
<path fill="none" stroke="#000000" d="M629.3139,-1014.7255C597.0937,-1016.1264 558.5899,-1017.8004 529.4606,-1019.0669"/>
<polygon fill="#000000" stroke="#000000" points="529.0203,-1015.5827 519.1818,-1019.5138 529.3245,-1022.5761 529.0203,-1015.5827"/>
</g>
<!-- FRESCOポイント -->
<g id="node26" class="node">
<title>FRESCOポイント</title>
<polygon fill="none" stroke="#000000" points="760.5,-458 623.5,-458 623.5,-422 760.5,-422 760.5,-458"/>
<text text-anchor="middle" x="692" y="-436.3" font-family="Times,serif" font-size="14.00" fill="#000000">FRESCOポイント</text>
</g>
<!-- FRESCOポイント&#45;&gt;FRESCO -->
<g id="edge63" class="edge">
<title>FRESCOポイント&#45;&gt;FRESCO</title>
<path fill="none" stroke="#000000" d="M760.6651,-448.3615C804.1272,-451.9096 861.2965,-453.3547 911,-444 930.1656,-440.3928 950.3466,-433.301 967.685,-426.0776"/>
<polygon fill="#000000" stroke="#000000" points="969.1961,-429.2377 977.0005,-422.0723 966.4311,-422.8069 969.1961,-429.2377"/>
</g>
<!-- ヨドバシゴールドポイント -->
<g id="node27" class="node">
<title>ヨドバシゴールドポイント</title>
<polygon fill="none" stroke="#000000" points="786,-547 598,-547 598,-511 786,-511 786,-547"/>
<text text-anchor="middle" x="692" y="-525.3" font-family="Times,serif" font-size="14.00" fill="#000000">ヨドバシゴールドポイント</text>
</g>
<!-- ヨドバシゴールドポイント&#45;&gt;ヨドバシカメラ -->
<g id="edge47" class="edge">
<title>ヨドバシゴールドポイント&#45;&gt;ヨドバシカメラ</title>
<path fill="none" stroke="#000000" d="M786.2637,-531.3621C825.0992,-533.3951 870.4175,-537.1371 911,-544 922.2544,-545.9032 934.0563,-548.5222 945.4836,-551.3996"/>
<polygon fill="#000000" stroke="#000000" points="944.8469,-554.8505 955.4062,-553.9834 946.6109,-548.0764 944.8469,-554.8505"/>
</g>
<!-- はぴeポイント -->
<g id="node28" class="node">
<title>はぴeポイント</title>
<polygon fill="none" stroke="#000000" points="747,-1731 637,-1731 637,-1695 747,-1695 747,-1731"/>
<text text-anchor="middle" x="692" y="-1709.3" font-family="Times,serif" font-size="14.00" fill="#000000">はぴeポイント</text>
</g>
<!-- はぴeポイント&#45;&gt;Ponta -->
<g id="edge12" class="edge">
<title>はぴeポイント&#45;&gt;Ponta</title>
<path fill="none" stroke="#000000" d="M673.9576,-1694.7817C650.6476,-1670.0089 610.8326,-1623.2315 592,-1575 549.9228,-1467.2377 568.2895,-1431.9864 561.5,-1316.5 552.8166,-1168.7994 515.2661,-1111.5021 592,-985 606.0948,-961.7636 632.0226,-945.2679 653.945,-934.7089"/>
<polygon fill="#000000" stroke="#000000" points="655.4109,-937.8872 663.0489,-930.5448 652.4992,-931.5215 655.4109,-937.8872"/>
<text text-anchor="middle" x="555.5" y="-1305.3" font-family="Times,serif" font-size="14.00" fill="#000000">80%</text>
</g>
<!-- 切符&#45;&gt;現金 -->
<g id="edge70" class="edge">
<title>切符&#45;&gt;現金</title>
<path fill="none" stroke="#000000" d="M842.9575,-1421.3681C775.4757,-1427.048 599.5508,-1431.7944 522.2969,-1430.2277"/>
<polygon fill="#000000" stroke="#000000" points="522.1593,-1426.7231 512.0725,-1429.9642 521.9789,-1433.7208 522.1593,-1426.7231"/>
</g>
<!-- 切符&#45;&gt;電車 -->
<g id="edge69" class="edge">
<title>切符&#45;&gt;電車</title>
<path fill="none" stroke="#000000" stroke-width="2" d="M897.329,-1411.0962C919.6714,-1406.2696 951.4878,-1399.3964 976.1766,-1394.0629"/>
<polygon fill="#000000" stroke="#000000" stroke-width="2" points="977.2373,-1397.4146 986.2727,-1391.8819 975.7591,-1390.5724 977.2373,-1397.4146"/>
</g>
<!-- ローソン&#45;&gt;Ponta -->
<g id="edge42" class="edge">
<title>ローソン&#45;&gt;Ponta</title>
<path fill="none" stroke="#000000" d="M976.7667,-857.9979C915.4363,-871.3514 792.7757,-898.0582 730.3719,-911.6453"/>
<polygon fill="#000000" stroke="#000000" points="729.5574,-908.2406 720.531,-913.788 731.0467,-915.0803 729.5574,-908.2406"/>
<text text-anchor="middle" x="870" y="-894.8" font-family="Times,serif" font-size="14.00" fill="#000000">1%</text>
</g>
<!-- ファミリーマート&#45;&gt;Tポイント -->
<g id="edge44" class="edge">
<title>ファミリーマート&#45;&gt;Tポイント</title>
<path fill="none" stroke="#000000" d="M947.9066,-695.9138C887.5318,-710.5615 799.1766,-731.9976 743.669,-745.4644"/>
<polygon fill="#000000" stroke="#000000" points="742.5938,-742.1237 733.7009,-747.8828 744.2442,-748.9264 742.5938,-742.1237"/>
<text text-anchor="middle" x="870" y="-728.8" font-family="Times,serif" font-size="14.00" fill="#000000">0.5%</text>
</g>
<!-- 大阪地下鉄&#45;&gt;三井住友VISAカード -->
<g id="edge16" class="edge">
<title>大阪地下鉄&#45;&gt;三井住友VISAカード</title>
<path fill="none" stroke="#000000" d="M969.2184,-1843C940.8543,-1843 903.2591,-1843 870,-1843 485,-1843 485,-1843 485,-1843 432.6894,-1843 380.3774,-1808.3932 349.6171,-1783.6051"/>
<polygon fill="#000000" stroke="#000000" points="351.8396,-1780.9013 341.9023,-1777.2267 347.3791,-1786.2962 351.8396,-1780.9013"/>
<text text-anchor="middle" x="692" y="-1846.8" font-family="Times,serif" font-size="14.00" fill="#000000">10%</text>
</g>
<!-- 関西電力&#45;&gt;はぴeポイント -->
<g id="edge11" class="edge">
<title>関西電力&#45;&gt;はぴeポイント</title>
<path fill="none" stroke="#000000" d="M976.1318,-1673.5314C961.7303,-1675.9787 945.1154,-1678.7173 930,-1681 871.6933,-1689.8054 805.1648,-1698.649 757.2979,-1704.8007"/>
<polygon fill="#000000" stroke="#000000" points="756.8508,-1701.3293 747.3766,-1706.0716 757.7403,-1708.2725 756.8508,-1701.3293"/>
<text text-anchor="middle" x="870" y="-1697.8" font-family="Times,serif" font-size="14.00" fill="#000000">0.8%, 0.5%</text>
</g>
<!-- ウェルシア&#45;&gt;Tポイント -->
<g id="edge49" class="edge">
<title>ウェルシア&#45;&gt;Tポイント</title>
<path fill="none" stroke="#000000" d="M969.8148,-785.7996C951.7048,-781.8978 930.4266,-777.7332 911,-775 854.0693,-766.9902 788.2425,-762.5187 743.7407,-760.1959"/>
<polygon fill="#000000" stroke="#000000" points="743.9075,-756.7 733.7438,-759.6916 743.5547,-763.6911 743.9075,-756.7"/>
<text text-anchor="middle" x="870" y="-778.8" font-family="Times,serif" font-size="14.00" fill="#000000">1%</text>
</g>
<!-- ビックカメラ&#45;&gt;ビックポイント -->
<g id="edge20" class="edge">
<title>ビックカメラ&#45;&gt;ビックポイント</title>
<path fill="none" stroke="#000000" stroke-dasharray="5,2" d="M984.6923,-1594.7701C964.802,-1583.1819 937.2957,-1569.0732 911,-1562 861.7831,-1548.7613 804.2016,-1545.5357 760.4372,-1545.4733"/>
<polygon fill="#000000" stroke="#000000" points="760.1748,-1541.9743 750.1894,-1545.5158 760.2039,-1548.9742 760.1748,-1541.9743"/>
<text text-anchor="middle" x="870" y="-1565.8" font-family="Times,serif" font-size="14.00" fill="#000000">9.5%</text>
</g>
<!-- ヨドバシカメラ&#45;&gt;ヨドバシゴールドポイント -->
<g id="edge46" class="edge">
<title>ヨドバシカメラ&#45;&gt;ヨドバシゴールドポイント</title>
<path fill="none" stroke="#000000" d="M955.1091,-564.1903C910.8979,-558.2772 848.9992,-549.9983 796.3462,-542.9561"/>
<polygon fill="#000000" stroke="#000000" points="796.664,-539.4675 786.2883,-541.6109 795.736,-546.4057 796.664,-539.4675"/>
<text text-anchor="middle" x="870" y="-562.8" font-family="Times,serif" font-size="14.00" fill="#000000">10%</text>
</g>
<!-- FRESCO&#45;&gt;FRESCOポイント -->
<g id="edge62" class="edge">
<title>FRESCO&#45;&gt;FRESCOポイント</title>
<path fill="none" stroke="#000000" d="M973.4021,-408.49C922.8568,-414.1498 834.8312,-424.0065 770.6603,-431.192"/>
<polygon fill="#000000" stroke="#000000" points="770.1239,-427.7301 760.5755,-432.3213 770.9029,-434.6866 770.1239,-427.7301"/>
<text text-anchor="middle" x="870" y="-428.8" font-family="Times,serif" font-size="14.00" fill="#000000">0.5%</text>
</g>
<!-- 吉野家&#45;&gt;Tポイント -->
<g id="edge67" class="edge">
<title>吉野家&#45;&gt;Tポイント</title>
<path fill="none" stroke="#000000" d="M983.7957,-1141.6966C966.0083,-1135.4434 944.0114,-1125.2863 929,-1110 872.3413,-1052.3038 871.2459,-1026.9518 829,-958 811.6338,-929.6557 810.148,-920.8503 792,-893 766.5675,-853.9707 733.9455,-811.0945 713.0042,-784.363"/>
<polygon fill="#000000" stroke="#000000" points="715.5746,-781.9698 706.6394,-776.2766 710.0741,-786.2992 715.5746,-781.9698"/>
<text text-anchor="middle" x="870" y="-1094.8" font-family="Times,serif" font-size="14.00" fill="#000000">0.5%</text>
</g>
<!-- Amazon&#45;&gt;Amazonポイント -->
<g id="edge54" class="edge">
<title>Amazon&#45;&gt;Amazonポイント</title>
<path fill="none" stroke="#000000" d="M976.3218,-136.7738C925.658,-136.8574 833.7405,-133.0122 768.13,-128.3904"/>
<polygon fill="#000000" stroke="#000000" points="768.0635,-124.8764 757.8361,-127.6425 767.5562,-131.858 768.0635,-124.8764"/>
</g>
<!-- じゃらん&#45;&gt;Ponta -->
<g id="edge53" class="edge">
<title>じゃらん&#45;&gt;Ponta</title>
<path fill="none" stroke="#000000" d="M983.2242,-969.9593C963.3873,-959.0532 936.4989,-945.9538 911,-939 849.474,-922.2212 774.9585,-919.2515 730.6261,-919.2123"/>
<polygon fill="#000000" stroke="#000000" points="730.5536,-915.7125 720.5681,-919.2538 730.5825,-922.7125 730.5536,-915.7125"/>
<text text-anchor="middle" x="870" y="-942.8" font-family="Times,serif" font-size="14.00" fill="#000000">2%</text>
</g>
</g>
</svg>
