<?xml version="1.0" encoding="UTF-8" standalone="no"?>
<!DOCTYPE svg PUBLIC "-//W3C//DTD SVG 1.1//EN"
 "http://www.w3.org/Graphics/SVG/1.1/DTD/svg11.dtd">
<!-- Generated by graphviz version 2.40.1 (0)
 -->
<!-- Title: MoneyFlow Pages: 1 -->
<svg width="1085pt" height="2014pt"
 viewBox="0.00 0.00 1085.00 2014.00" xmlns="http://www.w3.org/2000/svg" xmlns:xlink="http://www.w3.org/1999/xlink">
<g id="graph0" class="graph" transform="scale(1 1) rotate(0) translate(4 2010)">
<title>MoneyFlow</title>
<polygon fill="#ffffff" stroke="transparent" points="-4,4 -4,-2010 1081,-2010 1081,4 -4,4"/>
<!-- 収入 -->
<g id="node1" class="node">
<title>収入</title>
<text text-anchor="middle" x="27" y="-14.3" font-family="Times,serif" font-size="14.00" fill="#000000">収入</text>
</g>
<!-- 銀行口座 -->
<g id="node2" class="node">
<title>銀行口座</title>
<text text-anchor="middle" x="142" y="-14.3" font-family="Times,serif" font-size="14.00" fill="#000000">銀行口座</text>
</g>
<!-- 収入&#45;&gt;銀行口座 -->
<g id="edge1" class="edge">
<title>収入&#45;&gt;銀行口座</title>
<path fill="none" stroke="#000000" d="M54.2534,-18C69.3972,-18 88.4539,-18 104.9357,-18"/>
</g>
<!-- クレジットカード -->
<g id="node3" class="node">
<title>クレジットカード</title>
<text text-anchor="middle" x="322" y="-14.3" font-family="Times,serif" font-size="14.00" fill="#000000">クレジットカード</text>
</g>
<!-- 銀行口座&#45;&gt;クレジットカード -->
<g id="edge2" class="edge">
<title>銀行口座&#45;&gt;クレジットカード</title>
<path fill="none" stroke="#000000" d="M179.2961,-18C201.6417,-18 230.6798,-18 256.7236,-18"/>
</g>
<!-- マネー -->
<g id="node4" class="node">
<title>マネー</title>
<text text-anchor="middle" x="485" y="-14.3" font-family="Times,serif" font-size="14.00" fill="#000000">マネー</text>
</g>
<!-- クレジットカード&#45;&gt;マネー -->
<g id="edge3" class="edge">
<title>クレジットカード&#45;&gt;マネー</title>
<path fill="none" stroke="#000000" d="M387.3591,-18C410.9188,-18 436.353,-18 455.3549,-18"/>
</g>
<!-- ポイント -->
<g id="node5" class="node">
<title>ポイント</title>
<text text-anchor="middle" x="686" y="-14.3" font-family="Times,serif" font-size="14.00" fill="#000000">ポイント</text>
</g>
<!-- マネー&#45;&gt;ポイント -->
<g id="edge4" class="edge">
<title>マネー&#45;&gt;ポイント</title>
<path fill="none" stroke="#000000" d="M514.6582,-18C550.2582,-18 609.9876,-18 648.6865,-18"/>
</g>
<!-- 金券 -->
<g id="node6" class="node">
<title>金券</title>
<text text-anchor="middle" x="870.5" y="-14.3" font-family="Times,serif" font-size="14.00" fill="#000000">金券</text>
</g>
<!-- ポイント&#45;&gt;金券 -->
<g id="edge5" class="edge">
<title>ポイント&#45;&gt;金券</title>
<path fill="none" stroke="#000000" d="M723.3363,-18C758.9263,-18 811.6612,-18 843.3941,-18"/>
</g>
<!-- 支出 -->
<g id="node7" class="node">
<title>支出</title>
<text text-anchor="middle" x="1019" y="-14.3" font-family="Times,serif" font-size="14.00" fill="#000000">支出</text>
</g>
<!-- 金券&#45;&gt;支出 -->
<g id="edge6" class="edge">
<title>金券&#45;&gt;支出</title>
<path fill="none" stroke="#000000" d="M897.7372,-18C924.5314,-18 965.2011,-18 991.9355,-18"/>
</g>
<!-- 給与 -->
<g id="node8" class="node">
<title>給与</title>
<polygon fill="none" stroke="#000000" points="54,-1609 0,-1609 0,-1573 54,-1573 54,-1609"/>
<text text-anchor="middle" x="27" y="-1587.3" font-family="Times,serif" font-size="14.00" fill="#000000">給与</text>
</g>
<!-- 三井住友銀行 -->
<g id="node9" class="node">
<title>三井住友銀行</title>
<polygon fill="none" stroke="#000000" points="193,-1609 91,-1609 91,-1573 193,-1573 193,-1609"/>
<text text-anchor="middle" x="142" y="-1587.3" font-family="Times,serif" font-size="14.00" fill="#000000">三井住友銀行</text>
</g>
<!-- 給与&#45;&gt;三井住友銀行 -->
<g id="edge7" class="edge">
<title>給与&#45;&gt;三井住友銀行</title>
<path fill="none" stroke="#000000" stroke-width="2" d="M54.2534,-1591C62.2529,-1591 71.3442,-1591 80.571,-1591"/>
<polygon fill="#000000" stroke="#000000" stroke-width="2" points="80.5912,-1594.5001 90.5911,-1591 80.5911,-1587.5001 80.5912,-1594.5001"/>
</g>
<!-- 住信SBI銀行 -->
<g id="node10" class="node">
<title>住信SBI銀行</title>
<polygon fill="none" stroke="#000000" points="192,-1535 92,-1535 92,-1499 192,-1499 192,-1535"/>
<text text-anchor="middle" x="142" y="-1513.3" font-family="Times,serif" font-size="14.00" fill="#000000">住信SBI銀行</text>
</g>
<!-- 三井住友銀行&#45;&gt;住信SBI銀行 -->
<g id="edge9" class="edge">
<title>三井住友銀行&#45;&gt;住信SBI銀行</title>
<path fill="none" stroke="#000000" stroke-width="2" d="M142,-1572.6942C142,-1563.6162 142,-1554.5383 142,-1545.4603"/>
<polygon fill="#000000" stroke="#000000" stroke-width="2" points="145.5001,-1545.2109 142,-1535.2109 138.5001,-1545.211 145.5001,-1545.2109"/>
</g>
<!-- 現金 -->
<g id="node15" class="node">
<title>現金</title>
<polygon fill="none" stroke="#000000" points="512,-1610 458,-1610 458,-1574 512,-1574 512,-1610"/>
<text text-anchor="middle" x="485" y="-1588.3" font-family="Times,serif" font-size="14.00" fill="#000000">現金</text>
</g>
<!-- 三井住友銀行&#45;&gt;現金 -->
<g id="edge8" class="edge">
<title>三井住友銀行&#45;&gt;現金</title>
<path fill="none" stroke="#000000" stroke-width="2" d="M193.3506,-1591.1497C263.1334,-1591.3532 386.2513,-1591.7121 447.795,-1591.8915"/>
<polygon fill="#000000" stroke="#000000" stroke-width="2" points="447.8255,-1595.3915 457.8357,-1591.9208 447.846,-1588.3916 447.8255,-1595.3915"/>
</g>
<!-- ビックカメラSuicaカード -->
<g id="node11" class="node">
<title>ビックカメラSuicaカード</title>
<polygon fill="none" stroke="#000000" points="414,-1857 230,-1857 230,-1821 414,-1821 414,-1857"/>
<text text-anchor="middle" x="322" y="-1835.3" font-family="Times,serif" font-size="14.00" fill="#000000">ビックカメラSuicaカード</text>
</g>
<!-- 住信SBI銀行&#45;&gt;ビックカメラSuicaカード -->
<g id="edge25" class="edge">
<title>住信SBI銀行&#45;&gt;ビックカメラSuicaカード</title>
<path fill="none" stroke="#000000" stroke-width="2" d="M165.4624,-1535.2223C174.8451,-1543.3218 185.2424,-1553.4138 193,-1564 252.9065,-1645.7498 295.5698,-1759.7449 313.1167,-1811.496"/>
<polygon fill="#000000" stroke="#000000" stroke-width="2" points="309.7997,-1812.6133 316.2888,-1820.9883 316.4388,-1810.3946 309.7997,-1812.6133"/>
</g>
<!-- リクルートカード -->
<g id="node12" class="node">
<title>リクルートカード</title>
<polygon fill="none" stroke="#000000" points="386.5,-893 257.5,-893 257.5,-857 386.5,-857 386.5,-893"/>
<text text-anchor="middle" x="322" y="-871.3" font-family="Times,serif" font-size="14.00" fill="#000000">リクルートカード</text>
</g>
<!-- 住信SBI銀行&#45;&gt;リクルートカード -->
<g id="edge26" class="edge">
<title>住信SBI銀行&#45;&gt;リクルートカード</title>
<path fill="none" stroke="#000000" stroke-width="2" d="M147.0971,-1498.8203C172.2898,-1408.9665 283.5175,-1012.2542 314.1604,-902.9613"/>
<polygon fill="#000000" stroke="#000000" stroke-width="2" points="317.6177,-903.5947 316.9473,-893.0211 310.8776,-901.7049 317.6177,-903.5947"/>
</g>
<!-- PiTaPa -->
<g id="node13" class="node">
<title>PiTaPa</title>
<polygon fill="none" stroke="#000000" points="354.5,-1488 289.5,-1488 289.5,-1452 354.5,-1452 354.5,-1488"/>
<text text-anchor="middle" x="322" y="-1466.3" font-family="Times,serif" font-size="14.00" fill="#000000">PiTaPa</text>
</g>
<!-- 住信SBI銀行&#45;&gt;PiTaPa -->
<g id="edge27" class="edge">
<title>住信SBI銀行&#45;&gt;PiTaPa</title>
<path fill="none" stroke="#000000" stroke-width="2" d="M192.14,-1503.9079C219.5984,-1496.7382 253.2601,-1487.9488 279.4307,-1481.1153"/>
<polygon fill="#000000" stroke="#000000" stroke-width="2" points="280.6332,-1484.4188 289.4245,-1478.5058 278.8647,-1477.6458 280.6332,-1484.4188"/>
</g>
<!-- 住信SBI銀行&#45;&gt;現金 -->
<g id="edge23" class="edge">
<title>住信SBI銀行&#45;&gt;現金</title>
<path fill="none" stroke="#000000" stroke-width="2" d="M192.2425,-1527.986C261.7234,-1543.1786 385.5691,-1570.2586 447.529,-1583.8066"/>
<polygon fill="#000000" stroke="#000000" stroke-width="2" points="447.1217,-1587.3002 457.6385,-1586.0172 448.617,-1580.4618 447.1217,-1587.3002"/>
</g>
<!-- 家賃 -->
<g id="node30" class="node">
<title>家賃</title>
<polygon fill="none" stroke="#000000" points="1046,-1489 992,-1489 992,-1453 1046,-1453 1046,-1489"/>
<text text-anchor="middle" x="1019" y="-1467.3" font-family="Times,serif" font-size="14.00" fill="#000000">家賃</text>
</g>
<!-- 住信SBI銀行&#45;&gt;家賃 -->
<g id="edge24" class="edge">
<title>住信SBI銀行&#45;&gt;家賃</title>
<path fill="none" stroke="#000000" stroke-width="2" d="M192.0798,-1515.6876C299.7393,-1512.7061 561.2053,-1504.6065 780,-1491 851.4762,-1486.555 934.7892,-1479.0552 981.7715,-1474.6117"/>
<polygon fill="#000000" stroke="#000000" stroke-width="2" points="982.1637,-1478.0902 991.7871,-1473.6585 981.5005,-1471.1217 982.1637,-1478.0902"/>
</g>
<!-- Suica -->
<g id="node14" class="node">
<title>Suica</title>
<polygon fill="none" stroke="#000000" points="513,-1772 457,-1772 457,-1736 513,-1736 513,-1772"/>
<text text-anchor="middle" x="485" y="-1750.3" font-family="Times,serif" font-size="14.00" fill="#000000">Suica</text>
</g>
<!-- ビックカメラSuicaカード&#45;&gt;Suica -->
<g id="edge15" class="edge">
<title>ビックカメラSuicaカード&#45;&gt;Suica</title>
<path fill="none" stroke="#000000" stroke-width="2" d="M356.5681,-1820.9737C383.4354,-1806.9631 420.6252,-1787.5697 448.0733,-1773.2563"/>
<polygon fill="#000000" stroke="#000000" stroke-width="2" points="449.7308,-1776.3393 456.9793,-1768.612 446.4941,-1770.1325 449.7308,-1776.3393"/>
</g>
<!-- JREポイント -->
<g id="node21" class="node">
<title>JREポイント</title>
<polygon fill="none" stroke="#000000" points="736.5,-1779 635.5,-1779 635.5,-1743 736.5,-1743 736.5,-1779"/>
<text text-anchor="middle" x="686" y="-1757.3" font-family="Times,serif" font-size="14.00" fill="#000000">JREポイント</text>
</g>
<!-- ビックカメラSuicaカード&#45;&gt;JREポイント -->
<g id="edge10" class="edge">
<title>ビックカメラSuicaカード&#45;&gt;JREポイント</title>
<path fill="none" stroke="#000000" d="M406.4238,-1820.9092C473.4286,-1806.551 565.4851,-1786.8246 625.3549,-1773.9954"/>
<polygon fill="#000000" stroke="#000000" points="626.3666,-1777.3581 635.4113,-1771.8404 624.8999,-1770.5135 626.3666,-1777.3581"/>
<text text-anchor="middle" x="485" y="-1813.8" font-family="Times,serif" font-size="14.00" fill="#000000">0.5%</text>
</g>
<!-- ビックポイント -->
<g id="node22" class="node">
<title>ビックポイント</title>
<polygon fill="none" stroke="#000000" points="744,-1925 628,-1925 628,-1889 744,-1889 744,-1925"/>
<text text-anchor="middle" x="686" y="-1903.3" font-family="Times,serif" font-size="14.00" fill="#000000">ビックポイント</text>
</g>
<!-- ビックカメラSuicaカード&#45;&gt;ビックポイント -->
<g id="edge13" class="edge">
<title>ビックカメラSuicaカード&#45;&gt;ビックポイント</title>
<path fill="none" stroke="#000000" d="M370.4498,-1857.0694C389.4208,-1863.5581 411.5116,-1870.4011 432,-1875 494.2041,-1888.9626 566.4425,-1897.3247 617.9424,-1901.9788"/>
<polygon fill="#000000" stroke="#000000" points="617.6882,-1905.4699 627.9568,-1902.8608 618.3024,-1898.4969 617.6882,-1905.4699"/>
<text text-anchor="middle" x="485" y="-1893.8" font-family="Times,serif" font-size="14.00" fill="#000000">0.5%</text>
</g>
<!-- ビックカメラ -->
<g id="node42" class="node">
<title>ビックカメラ</title>
<polygon fill="none" stroke="#000000" points="1069.5,-2006 968.5,-2006 968.5,-1970 1069.5,-1970 1069.5,-2006"/>
<text text-anchor="middle" x="1019" y="-1984.3" font-family="Times,serif" font-size="14.00" fill="#000000">ビックカメラ</text>
</g>
<!-- ビックカメラSuicaカード&#45;&gt;ビックカメラ -->
<g id="edge11" class="edge">
<title>ビックカメラSuicaカード&#45;&gt;ビックカメラ</title>
<path fill="none" stroke="#000000" stroke-width="2" stroke-dasharray="5,2" d="M330.9792,-1857.2703C351.9651,-1897.0576 408.3197,-1988 485,-1988 485,-1988 485,-1988 870.5,-1988 899.4188,-1988 931.5054,-1988 958.4317,-1988"/>
<polygon fill="#000000" stroke="#000000" stroke-width="2" points="958.4815,-1991.5001 968.4815,-1988 958.4814,-1984.5001 958.4815,-1991.5001"/>
</g>
<!-- EX予約 -->
<g id="node52" class="node">
<title>EX予約</title>
<polygon fill="none" stroke="#000000" points="1052,-1879 986,-1879 986,-1843 1052,-1843 1052,-1879"/>
<text text-anchor="middle" x="1019" y="-1857.3" font-family="Times,serif" font-size="14.00" fill="#000000">EX予約</text>
</g>
<!-- ビックカメラSuicaカード&#45;&gt;EX予約 -->
<g id="edge20" class="edge">
<title>ビックカメラSuicaカード&#45;&gt;EX予約</title>
<path fill="none" stroke="#000000" stroke-width="2" stroke-dasharray="5,2" d="M414.3739,-1855.842C437.3652,-1858.8246 462.0131,-1861 485,-1861 485,-1861 485,-1861 870.5,-1861 906.0157,-1861 946.3093,-1861 975.9544,-1861"/>
<polygon fill="#000000" stroke="#000000" stroke-width="2" points="975.9708,-1864.5001 985.9708,-1861 975.9708,-1857.5001 975.9708,-1864.5001"/>
</g>
<!-- nanaco -->
<g id="node16" class="node">
<title>nanaco</title>
<polygon fill="none" stroke="#000000" points="519,-381 451,-381 451,-345 519,-345 519,-381"/>
<text text-anchor="middle" x="485" y="-359.3" font-family="Times,serif" font-size="14.00" fill="#000000">nanaco</text>
</g>
<!-- リクルートカード&#45;&gt;nanaco -->
<g id="edge56" class="edge">
<title>リクルートカード&#45;&gt;nanaco</title>
<path fill="none" stroke="#000000" stroke-width="2" d="M324.3831,-856.9402C334.8504,-779.6255 378.6128,-476.932 432,-399 434.988,-394.6383 438.6935,-390.6552 442.7471,-387.0605"/>
<polygon fill="#000000" stroke="#000000" stroke-width="2" points="445.2045,-389.5792 450.8742,-380.629 440.8606,-384.09 445.2045,-389.5792"/>
</g>
<!-- Edy -->
<g id="node17" class="node">
<title>Edy</title>
<polygon fill="none" stroke="#000000" points="512,-805 458,-805 458,-769 512,-769 512,-805"/>
<text text-anchor="middle" x="485" y="-783.3" font-family="Times,serif" font-size="14.00" fill="#000000">Edy</text>
</g>
<!-- リクルートカード&#45;&gt;Edy -->
<g id="edge41" class="edge">
<title>リクルートカード&#45;&gt;Edy</title>
<path fill="none" stroke="#000000" stroke-width="2" d="M355.3788,-856.9795C382.575,-842.2969 420.9093,-821.6011 448.8323,-806.5261"/>
<polygon fill="#000000" stroke="#000000" stroke-width="2" points="450.7348,-809.4766 457.8715,-801.646 447.4093,-803.3169 450.7348,-809.4766"/>
</g>
<!-- Ponta -->
<g id="node18" class="node">
<title>Ponta</title>
<polygon fill="none" stroke="#000000" points="714.5,-125 657.5,-125 657.5,-89 714.5,-89 714.5,-125"/>
<text text-anchor="middle" x="686" y="-103.3" font-family="Times,serif" font-size="14.00" fill="#000000">Ponta</text>
</g>
<!-- リクルートカード&#45;&gt;Ponta -->
<g id="edge51" class="edge">
<title>リクルートカード&#45;&gt;Ponta</title>
<path fill="none" stroke="#000000" d="M322.919,-856.7676C328.2636,-755.9977 357.7189,-267.1155 432,-139 473.2002,-67.9404 587.2875,-82.801 647.5546,-96.5616"/>
<polygon fill="#000000" stroke="#000000" points="646.9101,-100.006 657.4493,-98.9219 648.5344,-93.197 646.9101,-100.006"/>
<text text-anchor="middle" x="485" y="-118.8" font-family="Times,serif" font-size="14.00" fill="#000000">1.2%</text>
</g>
<!-- ASAHIネット -->
<g id="node34" class="node">
<title>ASAHIネット</title>
<polygon fill="none" stroke="#000000" points="1073.5,-1115 964.5,-1115 964.5,-1079 1073.5,-1079 1073.5,-1115"/>
<text text-anchor="middle" x="1019" y="-1093.3" font-family="Times,serif" font-size="14.00" fill="#000000">ASAHIネット</text>
</g>
<!-- リクルートカード&#45;&gt;ASAHIネット -->
<g id="edge28" class="edge">
<title>リクルートカード&#45;&gt;ASAHIネット</title>
<path fill="none" stroke="#000000" stroke-width="2" d="M329.5881,-893.1775C348.7634,-935.8769 403.5092,-1039 485,-1039 485,-1039 485,-1039 870.5,-1039 880.77,-1039 929.0478,-1058.4959 967.8094,-1074.8814"/>
<polygon fill="#000000" stroke="#000000" stroke-width="2" points="966.8576,-1078.2796 977.4301,-1078.9664 969.5934,-1071.8364 966.8576,-1078.2796"/>
</g>
<!-- 楽天モバイル -->
<g id="node35" class="node">
<title>楽天モバイル</title>
<polygon fill="none" stroke="#000000" points="1070,-779 968,-779 968,-743 1070,-743 1070,-779"/>
<text text-anchor="middle" x="1019" y="-757.3" font-family="Times,serif" font-size="14.00" fill="#000000">楽天モバイル</text>
</g>
<!-- リクルートカード&#45;&gt;楽天モバイル -->
<g id="edge37" class="edge">
<title>リクルートカード&#45;&gt;楽天モバイル</title>
<path fill="none" stroke="#000000" stroke-width="2" d="M386.6342,-864.4286C520.5312,-842.5286 826.6405,-792.462 957.6592,-771.0328"/>
<polygon fill="#000000" stroke="#000000" stroke-width="2" points="958.6076,-774.4243 967.9115,-769.3559 957.4777,-767.516 958.6076,-774.4243"/>
</g>
<!-- 楽天でんき -->
<g id="node36" class="node">
<title>楽天でんき</title>
<polygon fill="none" stroke="#000000" points="1063,-899 975,-899 975,-863 1063,-863 1063,-899"/>
<text text-anchor="middle" x="1019" y="-877.3" font-family="Times,serif" font-size="14.00" fill="#000000">楽天でんき</text>
</g>
<!-- リクルートカード&#45;&gt;楽天でんき -->
<g id="edge35" class="edge">
<title>リクルートカード&#45;&gt;楽天でんき</title>
<path fill="none" stroke="#000000" stroke-width="2" d="M386.6479,-875C416.5731,-875 452.5981,-875 485,-875 485,-875 485,-875 870.5,-875 901.753,-875 936.6757,-876.3432 964.799,-877.7585"/>
<polygon fill="#000000" stroke="#000000" stroke-width="2" points="964.6648,-881.2562 974.8332,-878.2809 965.0287,-874.2657 964.6648,-881.2562"/>
</g>
<!-- 関西電力 -->
<g id="node37" class="node">
<title>関西電力</title>
<polygon fill="none" stroke="#000000" points="1056,-1308 982,-1308 982,-1272 1056,-1272 1056,-1308"/>
<text text-anchor="middle" x="1019" y="-1286.3" font-family="Times,serif" font-size="14.00" fill="#000000">関西電力</text>
</g>
<!-- リクルートカード&#45;&gt;関西電力 -->
<g id="edge32" class="edge">
<title>リクルートカード&#45;&gt;関西電力</title>
<path fill="none" stroke="#000000" stroke-width="2" d="M324.7606,-893.2442C337.6749,-975.2786 395.3014,-1306 485,-1306 485,-1306 485,-1306 870.5,-1306 904.5975,-1306 942.8469,-1301.7785 971.9865,-1297.6723"/>
<polygon fill="#000000" stroke="#000000" stroke-width="2" points="972.4997,-1301.1346 981.8919,-1296.2318 971.4923,-1294.2075 972.4997,-1301.1346"/>
</g>
<!-- 楽天損保 -->
<g id="node39" class="node">
<title>楽天損保</title>
<polygon fill="none" stroke="#000000" points="1056,-1007 982,-1007 982,-971 1056,-971 1056,-1007"/>
<text text-anchor="middle" x="1019" y="-985.3" font-family="Times,serif" font-size="14.00" fill="#000000">楽天損保</text>
</g>
<!-- リクルートカード&#45;&gt;楽天損保 -->
<g id="edge36" class="edge">
<title>リクルートカード&#45;&gt;楽天損保</title>
<path fill="none" stroke="#000000" stroke-width="2" d="M335.2339,-893.0636C360.4658,-925.2085 418.8695,-989 485,-989 485,-989 485,-989 870.5,-989 904.2533,-989 942.3221,-989 971.4644,-989"/>
<polygon fill="#000000" stroke="#000000" stroke-width="2" points="971.7726,-992.5001 981.7726,-989 971.7726,-985.5001 971.7726,-992.5001"/>
</g>
<!-- アイハート -->
<g id="node40" class="node">
<title>アイハート</title>
<polygon fill="none" stroke="#000000" points="1062,-953 976,-953 976,-917 1062,-917 1062,-953"/>
<text text-anchor="middle" x="1019" y="-931.3" font-family="Times,serif" font-size="14.00" fill="#000000">アイハート</text>
</g>
<!-- リクルートカード&#45;&gt;アイハート -->
<g id="edge31" class="edge">
<title>リクルートカード&#45;&gt;アイハート</title>
<path fill="none" stroke="#000000" stroke-width="2" d="M344.2179,-893.0109C374.2525,-915.4852 430.3589,-951 485,-951 485,-951 485,-951 870.5,-951 902.2547,-951 937.6103,-947.3387 965.8552,-943.519"/>
<polygon fill="#000000" stroke="#000000" stroke-width="2" points="966.5011,-946.9628 975.9197,-942.111 965.5312,-940.0303 966.5011,-946.9628"/>
</g>
<!-- Amazon -->
<g id="node50" class="node">
<title>Amazon</title>
<polygon fill="none" stroke="#000000" points="1056,-447 982,-447 982,-411 1056,-411 1056,-447"/>
<text text-anchor="middle" x="1019" y="-425.3" font-family="Times,serif" font-size="14.00" fill="#000000">Amazon</text>
</g>
<!-- リクルートカード&#45;&gt;Amazon -->
<g id="edge29" class="edge">
<title>リクルートカード&#45;&gt;Amazon</title>
<path fill="none" stroke="#000000" stroke-width="2" d="M324.3061,-856.8891C335.6753,-771.4719 389.1016,-413 485,-413 485,-413 485,-413 870.5,-413 904.5975,-413 942.8469,-417.2215 971.9865,-421.3277"/>
<polygon fill="#000000" stroke="#000000" stroke-width="2" points="971.4923,-424.7925 981.8919,-422.7682 972.4997,-417.8654 971.4923,-424.7925"/>
</g>
<!-- じゃらん -->
<g id="node53" class="node">
<title>じゃらん</title>
<polygon fill="none" stroke="#000000" points="1056,-163 982,-163 982,-127 1056,-127 1056,-163"/>
<text text-anchor="middle" x="1019" y="-141.3" font-family="Times,serif" font-size="14.00" fill="#000000">じゃらん</text>
</g>
<!-- リクルートカード&#45;&gt;じゃらん -->
<g id="edge30" class="edge">
<title>リクルートカード&#45;&gt;じゃらん</title>
<path fill="none" stroke="#000000" stroke-width="2" d="M324.1066,-856.7916C337.3133,-744.6934 410.5492,-153 485,-153 485,-153 485,-153 870.5,-153 904.3022,-153 942.3699,-150.9076 971.4994,-148.8631"/>
<polygon fill="#000000" stroke="#000000" stroke-width="2" points="972.0818,-152.3301 981.8025,-148.1159 971.5755,-145.3484 972.0818,-152.3301"/>
</g>
<!-- 電車 -->
<g id="node32" class="node">
<title>電車</title>
<polygon fill="none" stroke="#000000" points="1046,-1611 992,-1611 992,-1575 1046,-1575 1046,-1611"/>
<text text-anchor="middle" x="1019" y="-1589.3" font-family="Times,serif" font-size="14.00" fill="#000000">電車</text>
</g>
<!-- PiTaPa&#45;&gt;電車 -->
<g id="edge67" class="edge">
<title>PiTaPa&#45;&gt;電車</title>
<path fill="none" stroke="#000000" stroke-width="2" d="M354.5576,-1473.8094C445.3479,-1484.7286 708.7935,-1518.4351 924,-1566 943.3137,-1570.2687 964.5118,-1576.1729 981.9741,-1581.3718"/>
<polygon fill="#000000" stroke="#000000" stroke-width="2" points="981.1966,-1584.7931 991.7815,-1584.3336 983.2204,-1578.092 981.1966,-1584.7931"/>
</g>
<!-- バス -->
<g id="node33" class="node">
<title>バス</title>
<polygon fill="none" stroke="#000000" points="1046,-1362 992,-1362 992,-1326 1046,-1326 1046,-1362"/>
<text text-anchor="middle" x="1019" y="-1340.3" font-family="Times,serif" font-size="14.00" fill="#000000">バス</text>
</g>
<!-- PiTaPa&#45;&gt;バス -->
<g id="edge69" class="edge">
<title>PiTaPa&#45;&gt;バス</title>
<path fill="none" stroke="#000000" stroke-width="2" d="M333.4737,-1451.9473C357.1861,-1417.1071 415.253,-1344 485,-1344 485,-1344 485,-1344 870.5,-1344 908.4372,-1344 951.8261,-1344 981.8647,-1344"/>
<polygon fill="#000000" stroke="#000000" stroke-width="2" points="981.9022,-1347.5001 991.9022,-1344 981.9022,-1340.5001 981.9022,-1347.5001"/>
</g>
<!-- Suica&#45;&gt;JREポイント -->
<g id="edge21" class="edge">
<title>Suica&#45;&gt;JREポイント</title>
<path fill="none" stroke="#000000" d="M513.3721,-1754.9881C542.2552,-1755.994 587.9372,-1757.5849 625.0544,-1758.8775"/>
<polygon fill="#000000" stroke="#000000" points="625.1594,-1762.3832 635.2752,-1759.2335 625.4031,-1755.3874 625.1594,-1762.3832"/>
<text text-anchor="middle" x="555.5" y="-1760.8" font-family="Times,serif" font-size="14.00" fill="#000000">1.5%</text>
</g>
<!-- Suica&#45;&gt;電車 -->
<g id="edge16" class="edge">
<title>Suica&#45;&gt;電車</title>
<path fill="none" stroke="#000000" stroke-width="2" d="M513.0961,-1741.3902C520.7752,-1738.1428 529.1463,-1734.7826 537,-1732 558.6706,-1724.3221 872.6093,-1634.7163 981.8544,-1603.5808"/>
<polygon fill="#000000" stroke="#000000" stroke-width="2" points="983.1129,-1606.8616 991.7708,-1600.7549 981.1945,-1600.1296 983.1129,-1606.8616"/>
</g>
<!-- 松屋 -->
<g id="node48" class="node">
<title>松屋</title>
<polygon fill="none" stroke="#000000" points="1046,-1825 992,-1825 992,-1789 1046,-1789 1046,-1825"/>
<text text-anchor="middle" x="1019" y="-1803.3" font-family="Times,serif" font-size="14.00" fill="#000000">松屋</text>
</g>
<!-- Suica&#45;&gt;松屋 -->
<g id="edge17" class="edge">
<title>Suica&#45;&gt;松屋</title>
<path fill="none" stroke="#000000" stroke-width="2" d="M513.2503,-1767.073C520.8559,-1770.2821 529.1522,-1773.5075 537,-1776 560.8457,-1783.5735 567.1905,-1784.7655 592,-1788 735.0721,-1806.6527 907.1363,-1807.9317 981.6179,-1807.4682"/>
<polygon fill="#000000" stroke="#000000" stroke-width="2" points="981.9112,-1810.9661 991.8838,-1807.389 981.8571,-1803.9663 981.9112,-1810.9661"/>
</g>
<!-- 吉野家 -->
<g id="node49" class="node">
<title>吉野家</title>
<polygon fill="none" stroke="#000000" points="1048.5,-1749 989.5,-1749 989.5,-1713 1048.5,-1713 1048.5,-1749"/>
<text text-anchor="middle" x="1019" y="-1727.3" font-family="Times,serif" font-size="14.00" fill="#000000">吉野家</text>
</g>
<!-- Suica&#45;&gt;吉野家 -->
<g id="edge18" class="edge">
<title>Suica&#45;&gt;吉野家</title>
<path fill="none" stroke="#000000" stroke-width="2" d="M513.4151,-1747.2624C534.8654,-1742.5251 565.0999,-1736.5878 592,-1734 734.0135,-1720.3383 903.8197,-1725.5216 979.3762,-1728.937"/>
<polygon fill="#000000" stroke="#000000" stroke-width="2" points="979.247,-1732.4347 989.3994,-1729.4051 979.5736,-1725.4424 979.247,-1732.4347"/>
</g>
<!-- 株主優待券 -->
<g id="node28" class="node">
<title>株主優待券</title>
<polygon fill="none" stroke="#000000" points="914.5,-1611 826.5,-1611 826.5,-1575 914.5,-1575 914.5,-1611"/>
<text text-anchor="middle" x="870.5" y="-1589.3" font-family="Times,serif" font-size="14.00" fill="#000000">株主優待券</text>
</g>
<!-- 現金&#45;&gt;株主優待券 -->
<g id="edge72" class="edge">
<title>現金&#45;&gt;株主優待券</title>
<path fill="none" stroke="#000000" stroke-width="2" d="M512.1076,-1588.4029C575.1191,-1584.9069 732.4432,-1584.9138 816.1363,-1587.9879"/>
<polygon fill="#000000" stroke="#000000" stroke-width="2" points="816.0809,-1591.4883 826.2121,-1588.3885 816.3591,-1584.4938 816.0809,-1591.4883"/>
</g>
<!-- 飲食店 -->
<g id="node45" class="node">
<title>飲食店</title>
<polygon fill="none" stroke="#000000" points="1048.5,-1695 989.5,-1695 989.5,-1659 1048.5,-1659 1048.5,-1695"/>
<text text-anchor="middle" x="1019" y="-1673.3" font-family="Times,serif" font-size="14.00" fill="#000000">飲食店</text>
</g>
<!-- 現金&#45;&gt;飲食店 -->
<g id="edge71" class="edge">
<title>現金&#45;&gt;飲食店</title>
<path fill="none" stroke="#000000" stroke-width="2" d="M512.2167,-1606.3711C520.0391,-1609.9993 528.7025,-1613.5545 537,-1616 696.2508,-1662.9361 895.5563,-1673.7575 979.1788,-1676.2524"/>
<polygon fill="#000000" stroke="#000000" stroke-width="2" points="979.1691,-1679.7534 989.2614,-1676.529 979.3611,-1672.756 979.1691,-1679.7534"/>
</g>
<!-- nanacoポイント -->
<g id="node24" class="node">
<title>nanacoポイント</title>
<polygon fill="none" stroke="#000000" points="748.5,-309 623.5,-309 623.5,-273 748.5,-273 748.5,-309"/>
<text text-anchor="middle" x="686" y="-287.3" font-family="Times,serif" font-size="14.00" fill="#000000">nanacoポイント</text>
</g>
<!-- nanaco&#45;&gt;nanacoポイント -->
<g id="edge58" class="edge">
<title>nanaco&#45;&gt;nanacoポイント</title>
<path fill="none" stroke="#000000" d="M495.5099,-344.9414C504.5982,-331.1594 519.0847,-313.0487 537,-304 560.1211,-292.322 587.8477,-287.7712 613.0797,-286.5663"/>
<polygon fill="#000000" stroke="#000000" points="613.4612,-290.0563 623.3483,-286.2489 613.2449,-283.0596 613.4612,-290.0563"/>
<text text-anchor="middle" x="555.5" y="-307.8" font-family="Times,serif" font-size="14.00" fill="#000000">1%</text>
</g>
<!-- iTunesカード -->
<g id="node29" class="node">
<title>iTunesカード</title>
<polygon fill="none" stroke="#000000" points="924,-217 817,-217 817,-181 924,-181 924,-217"/>
<text text-anchor="middle" x="870.5" y="-195.3" font-family="Times,serif" font-size="14.00" fill="#000000">iTunesカード</text>
</g>
<!-- nanaco&#45;&gt;iTunesカード -->
<g id="edge60" class="edge">
<title>nanaco&#45;&gt;iTunesカード</title>
<path fill="none" stroke="#000000" stroke-width="2" d="M491.3769,-344.9506C504.3334,-311.3515 537.2418,-239.914 592,-210 658.3358,-173.7612 747.4145,-177.6528 806.7802,-186.1928"/>
<polygon fill="#000000" stroke="#000000" stroke-width="2" points="806.3619,-189.6694 816.7748,-187.7147 807.4157,-182.7491 806.3619,-189.6694"/>
</g>
<!-- セブンイレブン -->
<g id="node31" class="node">
<title>セブンイレブン</title>
<polygon fill="none" stroke="#000000" points="1076,-393 962,-393 962,-357 1076,-357 1076,-393"/>
<text text-anchor="middle" x="1019" y="-371.3" font-family="Times,serif" font-size="14.00" fill="#000000">セブンイレブン</text>
</g>
<!-- nanaco&#45;&gt;セブンイレブン -->
<g id="edge57" class="edge">
<title>nanaco&#45;&gt;セブンイレブン</title>
<path fill="none" stroke="#000000" stroke-width="2" d="M519.2164,-363.7689C606.1386,-365.7222 836.6898,-370.9031 951.7369,-373.4885"/>
<polygon fill="#000000" stroke="#000000" stroke-width="2" points="951.7547,-376.9897 961.8309,-373.7153 951.9121,-369.9914 951.7547,-376.9897"/>
</g>
<!-- 楽天ポイント -->
<g id="node20" class="node">
<title>楽天ポイント</title>
<polygon fill="none" stroke="#000000" points="737,-754 635,-754 635,-718 737,-718 737,-754"/>
<text text-anchor="middle" x="686" y="-732.3" font-family="Times,serif" font-size="14.00" fill="#000000">楽天ポイント</text>
</g>
<!-- Edy&#45;&gt;楽天ポイント -->
<g id="edge50" class="edge">
<title>Edy&#45;&gt;楽天ポイント</title>
<path fill="none" stroke="#000000" d="M512.2029,-769.4043C519.9532,-765.0725 528.5833,-760.8609 537,-758 564.9898,-748.4859 597.3177,-743.0844 624.693,-740.0186"/>
<polygon fill="#000000" stroke="#000000" points="625.3389,-743.4704 634.923,-738.9543 624.6145,-736.508 625.3389,-743.4704"/>
<text text-anchor="middle" x="555.5" y="-761.8" font-family="Times,serif" font-size="14.00" fill="#000000">0.5%</text>
</g>
<!-- ヤマト運輸 -->
<g id="node38" class="node">
<title>ヤマト運輸</title>
<polygon fill="none" stroke="#000000" points="1063,-1169 975,-1169 975,-1133 1063,-1133 1063,-1169"/>
<text text-anchor="middle" x="1019" y="-1147.3" font-family="Times,serif" font-size="14.00" fill="#000000">ヤマト運輸</text>
</g>
<!-- Edy&#45;&gt;ヤマト運輸 -->
<g id="edge42" class="edge">
<title>Edy&#45;&gt;ヤマト運輸</title>
<path fill="none" stroke="#000000" stroke-width="2" d="M497.252,-805.3159C536.2647,-862.0073 664.0548,-1035.4933 817,-1114 863.2977,-1137.7646 922.47,-1146.4579 964.7839,-1149.5406"/>
<polygon fill="#000000" stroke="#000000" stroke-width="2" points="964.685,-1153.0415 974.89,-1150.194 965.1367,-1146.056 964.685,-1153.0415"/>
</g>
<!-- ウェルシア -->
<g id="node41" class="node">
<title>ウェルシア</title>
<polygon fill="none" stroke="#000000" points="1062.5,-1061 975.5,-1061 975.5,-1025 1062.5,-1025 1062.5,-1061"/>
<text text-anchor="middle" x="1019" y="-1039.3" font-family="Times,serif" font-size="14.00" fill="#000000">ウェルシア</text>
</g>
<!-- Edy&#45;&gt;ウェルシア -->
<g id="edge47" class="edge">
<title>Edy&#45;&gt;ウェルシア</title>
<path fill="none" stroke="#000000" stroke-width="2" d="M512.3361,-799.9677C566.9002,-825.8719 693.1757,-885.9217 799,-937 871.141,-971.8204 888.6862,-981.5397 961,-1016 964.1537,-1017.5029 967.408,-1019.044 970.6906,-1020.5914"/>
<polygon fill="#000000" stroke="#000000" stroke-width="2" points="969.4169,-1023.8599 979.9563,-1024.9418 972.392,-1017.5235 969.4169,-1023.8599"/>
</g>
<!-- ヨドバシカメラ -->
<g id="node43" class="node">
<title>ヨドバシカメラ</title>
<polygon fill="none" stroke="#000000" points="1077,-598 961,-598 961,-562 1077,-562 1077,-598"/>
<text text-anchor="middle" x="1019" y="-576.3" font-family="Times,serif" font-size="14.00" fill="#000000">ヨドバシカメラ</text>
</g>
<!-- Edy&#45;&gt;ヨドバシカメラ -->
<g id="edge44" class="edge">
<title>Edy&#45;&gt;ヨドバシカメラ</title>
<path fill="none" stroke="#000000" stroke-width="2" d="M493.8079,-768.6592C509.1411,-738.9935 543.7727,-681.1698 592,-655 652.7415,-622.0395 846.0549,-597.7742 950.4913,-586.6895"/>
<polygon fill="#000000" stroke="#000000" stroke-width="2" points="951.0407,-590.1511 960.6206,-585.6261 950.3098,-583.1894 951.0407,-590.1511"/>
</g>
<!-- 餃子の王将 -->
<g id="node44" class="node">
<title>餃子の王将</title>
<polygon fill="none" stroke="#000000" points="1063,-845 975,-845 975,-809 1063,-809 1063,-845"/>
<text text-anchor="middle" x="1019" y="-823.3" font-family="Times,serif" font-size="14.00" fill="#000000">餃子の王将</text>
</g>
<!-- Edy&#45;&gt;餃子の王将 -->
<g id="edge66" class="edge">
<title>Edy&#45;&gt;餃子の王将</title>
<path fill="none" stroke="#000000" stroke-width="2" d="M512.2153,-789.0386C596.099,-795.322 851.7998,-814.4756 964.5795,-822.9236"/>
<polygon fill="#000000" stroke="#000000" stroke-width="2" points="964.481,-826.4259 974.7145,-823.6827 965.0039,-819.4455 964.481,-826.4259"/>
</g>
<!-- FRESCO -->
<g id="node46" class="node">
<title>FRESCO</title>
<polygon fill="none" stroke="#000000" points="1059,-339 979,-339 979,-303 1059,-303 1059,-339"/>
<text text-anchor="middle" x="1019" y="-317.3" font-family="Times,serif" font-size="14.00" fill="#000000">FRESCO</text>
</g>
<!-- Edy&#45;&gt;FRESCO -->
<g id="edge63" class="edge">
<title>Edy&#45;&gt;FRESCO</title>
<path fill="none" stroke="#000000" stroke-width="2" d="M488.1686,-768.7248C499.8527,-703.3191 542.4262,-482.169 592,-433 645.3965,-380.0395 867.8847,-342.4558 968.8167,-327.7987"/>
<polygon fill="#000000" stroke="#000000" stroke-width="2" points="969.3724,-331.2549 978.7739,-326.37 968.3781,-324.3259 969.3724,-331.2549"/>
</g>
<!-- 業務スーパー -->
<g id="node47" class="node">
<title>業務スーパー</title>
<polygon fill="none" stroke="#000000" points="1069.5,-652 968.5,-652 968.5,-616 1069.5,-616 1069.5,-652"/>
<text text-anchor="middle" x="1019" y="-630.3" font-family="Times,serif" font-size="14.00" fill="#000000">業務スーパー</text>
</g>
<!-- Edy&#45;&gt;業務スーパー -->
<g id="edge62" class="edge">
<title>Edy&#45;&gt;業務スーパー</title>
<path fill="none" stroke="#000000" stroke-width="2" d="M503.678,-768.7149C523.7206,-750.296 557.3705,-722.6998 592,-709 716.1272,-659.8939 873.2063,-642.8314 958.0054,-636.9824"/>
<polygon fill="#000000" stroke="#000000" stroke-width="2" points="958.4834,-640.4585 968.2312,-636.3075 958.0224,-633.4737 958.4834,-640.4585"/>
</g>
<!-- Ponta&#45;&gt;じゃらん -->
<g id="edge52" class="edge">
<title>Ponta&#45;&gt;じゃらん</title>
<path fill="none" stroke="#000000" d="M714.6796,-110.2727C772.0017,-116.814 901.2275,-131.5605 971.4335,-139.572"/>
<polygon fill="#000000" stroke="#000000" points="971.4288,-143.0941 981.7612,-140.7505 972.2225,-136.1392 971.4288,-143.0941"/>
</g>
<!-- Tポイント -->
<g id="node19" class="node">
<title>Tポイント</title>
<polygon fill="none" stroke="#000000" points="727.5,-1268 644.5,-1268 644.5,-1232 727.5,-1232 727.5,-1268"/>
<text text-anchor="middle" x="686" y="-1246.3" font-family="Times,serif" font-size="14.00" fill="#000000">Tポイント</text>
</g>
<!-- はぴeポイント -->
<g id="node27" class="node">
<title>はぴeポイント</title>
<polygon fill="none" stroke="#000000" points="741,-1196 631,-1196 631,-1160 741,-1160 741,-1196"/>
<text text-anchor="middle" x="686" y="-1174.3" font-family="Times,serif" font-size="14.00" fill="#000000">はぴeポイント</text>
</g>
<!-- Tポイント&#45;&gt;はぴeポイント -->
<g id="edge49" class="edge">
<title>Tポイント&#45;&gt;はぴeポイント</title>
<path fill="none" stroke="#000000" d="M686,-1231.9539C686,-1223.4073 686,-1214.8607 686,-1206.3142"/>
<polygon fill="#000000" stroke="#000000" points="689.5001,-1206.2812 686,-1196.2813 682.5001,-1206.2813 689.5001,-1206.2812"/>
</g>
<!-- 楽天ポイント&#45;&gt;楽天モバイル -->
<g id="edge39" class="edge">
<title>楽天ポイント&#45;&gt;楽天モバイル</title>
<path fill="none" stroke="#000000" d="M737.1111,-725.6174C785.6525,-717.4864 860.4481,-709.4628 924,-722 941.2375,-725.4005 959.2815,-731.9622 974.9567,-738.7474"/>
<polygon fill="#000000" stroke="#000000" points="973.8257,-742.076 984.3823,-742.9748 976.6903,-735.6889 973.8257,-742.076"/>
</g>
<!-- 楽天ポイント&#45;&gt;楽天でんき -->
<g id="edge40" class="edge">
<title>楽天ポイント&#45;&gt;楽天でんき</title>
<path fill="none" stroke="#000000" d="M727.5014,-754.0712C788.488,-780.6269 902.2022,-830.1421 968.1314,-858.85"/>
<polygon fill="#000000" stroke="#000000" points="966.9341,-862.146 977.4999,-862.9294 969.7287,-855.7281 966.9341,-862.146"/>
</g>
<!-- JREポイント&#45;&gt;Suica -->
<g id="edge22" class="edge">
<title>JREポイント&#45;&gt;Suica</title>
<path fill="none" stroke="#000000" d="M635.273,-1758.4973C616.0804,-1757.613 594.0364,-1756.6723 574,-1756 557.4335,-1755.4441 539.1271,-1755.003 523.4463,-1754.678"/>
<polygon fill="#000000" stroke="#000000" points="523.1311,-1751.1712 513.0634,-1754.4716 522.9919,-1758.1698 523.1311,-1751.1712"/>
</g>
<!-- ビックポイント&#45;&gt;ビックカメラ -->
<g id="edge14" class="edge">
<title>ビックポイント&#45;&gt;ビックカメラ</title>
<path fill="none" stroke="#000000" d="M744.2437,-1905.4219C793.3776,-1905.7736 864.937,-1910.2808 924,-1930 946.8401,-1937.6256 969.9535,-1951.5696 987.6627,-1963.8742"/>
<polygon fill="#000000" stroke="#000000" points="985.7237,-1966.7902 995.8973,-1969.7481 989.7887,-1961.0915 985.7237,-1966.7902"/>
</g>
<!-- Amazonポイント -->
<g id="node23" class="node">
<title>Amazonポイント</title>
<polygon fill="none" stroke="#000000" points="751.5,-478 620.5,-478 620.5,-442 751.5,-442 751.5,-478"/>
<text text-anchor="middle" x="686" y="-456.3" font-family="Times,serif" font-size="14.00" fill="#000000">Amazonポイント</text>
</g>
<!-- Amazonポイント&#45;&gt;Amazon -->
<g id="edge55" class="edge">
<title>Amazonポイント&#45;&gt;Amazon</title>
<path fill="none" stroke="#000000" d="M751.7901,-448.3717C816.563,-440.4967 913.908,-431.6382 971.4901,-428.5301"/>
<polygon fill="#000000" stroke="#000000" points="971.9491,-432.0117 981.7624,-428.0182 971.6006,-425.0203 971.9491,-432.0117"/>
</g>
<!-- nanacoポイント&#45;&gt;nanaco -->
<g id="edge59" class="edge">
<title>nanacoポイント&#45;&gt;nanaco</title>
<path fill="none" stroke="#000000" d="M632.2187,-309.0025C619.0386,-313.4987 604.9883,-318.3627 592,-323 571.0691,-330.4732 547.9589,-339.0688 528.5884,-346.372"/>
<polygon fill="#000000" stroke="#000000" points="527.2357,-343.1415 519.1192,-349.9513 529.7108,-349.6893 527.2357,-343.1415"/>
</g>
<!-- FRESCOポイント -->
<g id="node25" class="node">
<title>FRESCOポイント</title>
<polygon fill="none" stroke="#000000" points="754.5,-255 617.5,-255 617.5,-219 754.5,-219 754.5,-255"/>
<text text-anchor="middle" x="686" y="-233.3" font-family="Times,serif" font-size="14.00" fill="#000000">FRESCOポイント</text>
</g>
<!-- FRESCOポイント&#45;&gt;FRESCO -->
<g id="edge65" class="edge">
<title>FRESCOポイント&#45;&gt;FRESCO</title>
<path fill="none" stroke="#000000" d="M754.62,-254.834C763.2618,-257.6266 771.9044,-260.6947 780,-264 797.3062,-271.0659 799.3668,-277.7951 817,-284 867.0714,-301.6195 927.2244,-311.2594 968.7971,-316.2417"/>
<polygon fill="#000000" stroke="#000000" points="968.614,-319.7436 978.9487,-317.41 969.4144,-312.7895 968.614,-319.7436"/>
</g>
<!-- ヨドバシゴールドポイント -->
<g id="node26" class="node">
<title>ヨドバシゴールドポイント</title>
<polygon fill="none" stroke="#000000" points="780,-550 592,-550 592,-514 780,-514 780,-550"/>
<text text-anchor="middle" x="686" y="-528.3" font-family="Times,serif" font-size="14.00" fill="#000000">ヨドバシゴールドポイント</text>
</g>
<!-- ヨドバシゴールドポイント&#45;&gt;ヨドバシカメラ -->
<g id="edge46" class="edge">
<title>ヨドバシゴールドポイント&#45;&gt;ヨドバシカメラ</title>
<path fill="none" stroke="#000000" d="M780.0152,-532.0683C824.0973,-533.589 877.1216,-537.5639 924,-547 937.6357,-549.7447 951.9844,-553.9768 965.282,-558.5048"/>
<polygon fill="#000000" stroke="#000000" points="964.1589,-561.8199 974.7537,-561.8372 966.4821,-555.2167 964.1589,-561.8199"/>
</g>
<!-- はぴeポイント&#45;&gt;関西電力 -->
<g id="edge34" class="edge">
<title>はぴeポイント&#45;&gt;関西電力</title>
<path fill="none" stroke="#000000" d="M725.0839,-1196.1846C742.0544,-1204.2158 762.1036,-1213.8863 780,-1223 796.6576,-1231.4828 799.5189,-1236.3785 817,-1243 868.3263,-1262.4413 930.1474,-1275.394 971.768,-1282.6925"/>
<polygon fill="#000000" stroke="#000000" points="971.1864,-1286.1438 981.6339,-1284.383 972.3687,-1279.2443 971.1864,-1286.1438"/>
</g>
<!-- 株主優待券&#45;&gt;現金 -->
<g id="edge74" class="edge">
<title>株主優待券&#45;&gt;現金</title>
<path fill="none" stroke="#000000" d="M826.2121,-1597.3818C749.6607,-1600.2833 593.9433,-1599.7807 522.4327,-1596.2976"/>
<polygon fill="#000000" stroke="#000000" points="522.2825,-1592.7844 512.1076,-1595.7377 521.9034,-1599.7742 522.2825,-1592.7844"/>
</g>
<!-- 株主優待券&#45;&gt;電車 -->
<g id="edge73" class="edge">
<title>株主優待券&#45;&gt;電車</title>
<path fill="none" stroke="#000000" stroke-width="2" d="M914.6528,-1593C935.9119,-1593 961.1333,-1593 981.4542,-1593"/>
<polygon fill="#000000" stroke="#000000" stroke-width="2" points="981.5871,-1596.5001 991.587,-1593 981.587,-1589.5001 981.5871,-1596.5001"/>
</g>
<!-- iTunes -->
<g id="node51" class="node">
<title>iTunes</title>
<polygon fill="none" stroke="#000000" points="1051.5,-217 986.5,-217 986.5,-181 1051.5,-181 1051.5,-217"/>
<text text-anchor="middle" x="1019" y="-195.3" font-family="Times,serif" font-size="14.00" fill="#000000">iTunes</text>
</g>
<!-- iTunesカード&#45;&gt;iTunes -->
<g id="edge61" class="edge">
<title>iTunesカード&#45;&gt;iTunes</title>
<path fill="none" stroke="#000000" stroke-width="2" d="M924.1119,-199C941.1494,-199 959.7618,-199 975.954,-199"/>
<polygon fill="#000000" stroke="#000000" stroke-width="2" points="976.2042,-202.5001 986.2042,-199 976.2042,-195.5001 976.2042,-202.5001"/>
</g>
<!-- 電車&#45;&gt;PiTaPa -->
<g id="edge68" class="edge">
<title>電車&#45;&gt;PiTaPa</title>
<path fill="none" stroke="#000000" d="M991.9782,-1576.4021C949.0004,-1551.1211 861.5718,-1504.1939 780,-1488 629.8565,-1458.1931 446.7535,-1463.0178 364.9995,-1467.2583"/>
<polygon fill="#000000" stroke="#000000" points="364.4081,-1463.7852 354.6128,-1467.8227 364.788,-1470.7749 364.4081,-1463.7852"/>
<text text-anchor="middle" x="686" y="-1491.8" font-family="Times,serif" font-size="14.00" fill="#000000">10%</text>
</g>
<!-- バス&#45;&gt;PiTaPa -->
<g id="edge70" class="edge">
<title>バス&#45;&gt;PiTaPa</title>
<path fill="none" stroke="#000000" d="M1002.4606,-1362.1818C984.9262,-1380.1061 955.4631,-1406.5643 924,-1419 920.7357,-1420.2902 501.5905,-1455.1168 364.7037,-1466.4634"/>
<polygon fill="#000000" stroke="#000000" points="364.2689,-1462.9874 354.5922,-1467.3014 364.8471,-1469.9635 364.2689,-1462.9874"/>
<text text-anchor="middle" x="686" y="-1451.8" font-family="Times,serif" font-size="14.00" fill="#000000">10%</text>
</g>
<!-- 楽天モバイル&#45;&gt;楽天ポイント -->
<g id="edge38" class="edge">
<title>楽天モバイル&#45;&gt;楽天ポイント</title>
<path fill="none" stroke="#000000" d="M969.8417,-742.9701C955.2866,-738.4605 939.1794,-734.2653 924,-732 864.4728,-723.1166 795.6463,-725.6355 747.3678,-729.4582"/>
<polygon fill="#000000" stroke="#000000" points="747.063,-725.9714 737.3883,-730.29 747.6445,-732.9472 747.063,-725.9714"/>
<text text-anchor="middle" x="870.5" y="-735.8" font-family="Times,serif" font-size="14.00" fill="#000000">0.5%</text>
</g>
<!-- 関西電力&#45;&gt;はぴeポイント -->
<g id="edge33" class="edge">
<title>関西電力&#45;&gt;はぴeポイント</title>
<path fill="none" stroke="#000000" d="M1010.5083,-1271.6087C996.7695,-1244.3532 966.8168,-1194.2777 924,-1174 870.0157,-1148.4335 801.1197,-1153.0127 751.3606,-1161.8465"/>
<polygon fill="#000000" stroke="#000000" points="750.5422,-1158.4389 741.36,-1163.7244 751.8341,-1165.3187 750.5422,-1158.4389"/>
<text text-anchor="middle" x="870.5" y="-1177.8" font-family="Times,serif" font-size="14.00" fill="#000000">0.5%</text>
</g>
<!-- ヤマト運輸&#45;&gt;Tポイント -->
<g id="edge43" class="edge">
<title>ヤマト運輸&#45;&gt;Tポイント</title>
<path fill="none" stroke="#000000" d="M982.1697,-1169.1499C964.8142,-1177.2157 943.6479,-1186.365 924,-1193 861.2389,-1214.1939 786.6472,-1230.7145 737.9139,-1240.3931"/>
<polygon fill="#000000" stroke="#000000" points="737.0598,-1236.9938 727.9208,-1242.3538 738.4076,-1243.8629 737.0598,-1236.9938"/>
<text text-anchor="middle" x="870.5" y="-1227.8" font-family="Times,serif" font-size="14.00" fill="#000000">0.5%</text>
</g>
<!-- ウェルシア&#45;&gt;Tポイント -->
<g id="edge48" class="edge">
<title>ウェルシア&#45;&gt;Tポイント</title>
<path fill="none" stroke="#000000" d="M975.3075,-1054.1942C930.9163,-1067.4409 862.4077,-1093.2701 817,-1136 791.6586,-1159.847 805.1616,-1180.9635 780,-1205 767.8656,-1216.5918 752.185,-1225.691 737.1207,-1232.5821"/>
<polygon fill="#000000" stroke="#000000" points="735.6457,-1229.4067 727.8579,-1236.59 738.4255,-1235.8311 735.6457,-1229.4067"/>
<text text-anchor="middle" x="870.5" y="-1139.8" font-family="Times,serif" font-size="14.00" fill="#000000">1%</text>
</g>
<!-- ビックカメラ&#45;&gt;ビックポイント -->
<g id="edge12" class="edge">
<title>ビックカメラ&#45;&gt;ビックポイント</title>
<path fill="none" stroke="#000000" stroke-dasharray="5,2" d="M968.4353,-1971.7323C954.1361,-1967.3591 938.5149,-1962.7944 924,-1959 867.0793,-1944.1201 801.7453,-1930.0574 753.9478,-1920.3174"/>
<polygon fill="#000000" stroke="#000000" points="754.5199,-1916.8622 744.0239,-1918.3058 753.1292,-1923.7227 754.5199,-1916.8622"/>
<text text-anchor="middle" x="870.5" y="-1962.8" font-family="Times,serif" font-size="14.00" fill="#000000">9.5%</text>
</g>
<!-- ヨドバシカメラ&#45;&gt;ヨドバシゴールドポイント -->
<g id="edge45" class="edge">
<title>ヨドバシカメラ&#45;&gt;ヨドバシゴールドポイント</title>
<path fill="none" stroke="#000000" d="M960.7086,-571.5976C913.6799,-564.8187 846.3327,-555.111 790.0925,-547.0043"/>
<polygon fill="#000000" stroke="#000000" points="790.4863,-543.525 780.0892,-545.5624 789.4875,-550.4534 790.4863,-543.525"/>
<text text-anchor="middle" x="870.5" y="-570.8" font-family="Times,serif" font-size="14.00" fill="#000000">10%</text>
</g>
<!-- FRESCO&#45;&gt;FRESCOポイント -->
<g id="edge64" class="edge">
<title>FRESCO&#45;&gt;FRESCOポイント</title>
<path fill="none" stroke="#000000" d="M992.3663,-302.9465C973.9601,-291.3627 948.4736,-277.0353 924,-269 872.5201,-252.0979 811.9702,-244.1098 764.8273,-240.3412"/>
<polygon fill="#000000" stroke="#000000" points="764.9097,-236.8376 754.6754,-239.5779 764.3848,-243.8179 764.9097,-236.8376"/>
<text text-anchor="middle" x="870.5" y="-272.8" font-family="Times,serif" font-size="14.00" fill="#000000">0.5%</text>
</g>
<!-- 吉野家&#45;&gt;Tポイント -->
<g id="edge19" class="edge">
<title>吉野家&#45;&gt;Tポイント</title>
<path fill="none" stroke="#000000" d="M989.3793,-1723.0797C979.0533,-1718.9504 968.2485,-1712.8509 961,-1704 916.6735,-1649.8744 954.6291,-1613.899 924,-1551 867.9375,-1435.8717 761.8862,-1323.9358 712.5204,-1275.3043"/>
<polygon fill="#000000" stroke="#000000" points="714.6984,-1272.5388 705.1005,-1268.0519 709.8054,-1277.5448 714.6984,-1272.5388"/>
<text text-anchor="middle" x="870.5" y="-1554.8" font-family="Times,serif" font-size="14.00" fill="#000000">0.5%</text>
</g>
<!-- Amazon&#45;&gt;Amazonポイント -->
<g id="edge54" class="edge">
<title>Amazon&#45;&gt;Amazonポイント</title>
<path fill="none" stroke="#000000" d="M981.7624,-436.9149C928.8672,-444.3726 830.7837,-453.9454 762.1216,-458.6879"/>
<polygon fill="#000000" stroke="#000000" points="761.5341,-455.2193 751.7901,-459.3791 762.0015,-462.2037 761.5341,-455.2193"/>
</g>
<!-- じゃらん&#45;&gt;Ponta -->
<g id="edge53" class="edge">
<title>じゃらん&#45;&gt;Ponta</title>
<path fill="none" stroke="#000000" d="M987.1559,-126.9209C969.2214,-117.7806 946.0548,-107.6578 924,-103 855.0216,-88.4322 772.2849,-95.0566 724.7592,-101.0977"/>
<polygon fill="#000000" stroke="#000000" points="724.0526,-97.6608 714.6015,-102.449 724.9757,-104.5997 724.0526,-97.6608"/>
<text text-anchor="middle" x="870.5" y="-106.8" font-family="Times,serif" font-size="14.00" fill="#000000">2%</text>
</g>
</g>
</svg>
