<?xml version="1.0" encoding="UTF-8" standalone="no"?>
<!DOCTYPE svg PUBLIC "-//W3C//DTD SVG 1.1//EN"
 "http://www.w3.org/Graphics/SVG/1.1/DTD/svg11.dtd">
<!-- Generated by graphviz version 2.42.4 (0)
 -->
<!-- Title: MoneyFlow Pages: 1 -->
<svg width="1075pt" height="1680pt"
 viewBox="0.00 0.00 1075.00 1680.00" xmlns="http://www.w3.org/2000/svg" xmlns:xlink="http://www.w3.org/1999/xlink">
<g id="graph0" class="graph" transform="scale(1 1) rotate(0) translate(4 1676)">
<title>MoneyFlow</title>
<polygon fill="white" stroke="transparent" points="-4,4 -4,-1676 1071,-1676 1071,4 -4,4"/>
<!-- 収入 -->
<g id="node1" class="node">
<title>収入</title>
<text text-anchor="middle" x="29.5" y="-14.3" font-family="Times,serif" font-size="14.00">収入</text>
</g>
<!-- 銀行口座 -->
<g id="node2" class="node">
<title>銀行口座</title>
<text text-anchor="middle" x="147" y="-14.3" font-family="Times,serif" font-size="14.00">銀行口座</text>
</g>
<!-- 収入&#45;&gt;銀行口座 -->
<g id="edge1" class="edge">
<title>収入&#45;&gt;銀行口座</title>
<path fill="none" stroke="black" d="M56.71,-18C72.42,-18 92.61,-18 109.83,-18"/>
</g>
<!-- クレジットカード -->
<g id="node3" class="node">
<title>クレジットカード</title>
<text text-anchor="middle" x="326.5" y="-14.3" font-family="Times,serif" font-size="14.00">クレジットカード</text>
</g>
<!-- 銀行口座&#45;&gt;クレジットカード -->
<g id="edge2" class="edge">
<title>銀行口座&#45;&gt;クレジットカード</title>
<path fill="none" stroke="black" d="M184.35,-18C206.66,-18 235.86,-18 261.91,-18"/>
</g>
<!-- マネー -->
<g id="node4" class="node">
<title>マネー</title>
<text text-anchor="middle" x="492" y="-14.3" font-family="Times,serif" font-size="14.00">マネー</text>
</g>
<!-- クレジットカード&#45;&gt;マネー -->
<g id="edge3" class="edge">
<title>クレジットカード&#45;&gt;マネー</title>
<path fill="none" stroke="black" d="M391.18,-18C415.75,-18 442.61,-18 462.27,-18"/>
</g>
<!-- ポイント -->
<g id="node5" class="node">
<title>ポイント</title>
<text text-anchor="middle" x="695.5" y="-14.3" font-family="Times,serif" font-size="14.00">ポイント</text>
</g>
<!-- マネー&#45;&gt;ポイント -->
<g id="edge4" class="edge">
<title>マネー&#45;&gt;ポイント</title>
<path fill="none" stroke="black" d="M521.87,-18C557.78,-18 619.11,-18 658.18,-18"/>
</g>
<!-- 金券 -->
<g id="node6" class="node">
<title>金券</title>
<text text-anchor="middle" x="870" y="-14.3" font-family="Times,serif" font-size="14.00">金券</text>
</g>
<!-- ポイント&#45;&gt;金券 -->
<g id="edge5" class="edge">
<title>ポイント&#45;&gt;金券</title>
<path fill="none" stroke="black" d="M732.66,-18C765.66,-18 813.62,-18 842.99,-18"/>
</g>
<!-- 支出 -->
<g id="node7" class="node">
<title>支出</title>
<text text-anchor="middle" x="1009" y="-14.3" font-family="Times,serif" font-size="14.00">支出</text>
</g>
<!-- 金券&#45;&gt;支出 -->
<g id="edge6" class="edge">
<title>金券&#45;&gt;支出</title>
<path fill="none" stroke="black" d="M897.09,-18C921.31,-18 957.2,-18 981.54,-18"/>
</g>
<!-- 給与 -->
<g id="node8" class="node">
<title>給与</title>
<polygon fill="none" stroke="black" points="56.5,-1588 2.5,-1588 2.5,-1552 56.5,-1552 56.5,-1588"/>
<text text-anchor="middle" x="29.5" y="-1566.3" font-family="Times,serif" font-size="14.00">給与</text>
</g>
<!-- 三井住友銀行 -->
<g id="node11" class="node">
<title>三井住友銀行</title>
<polygon fill="none" stroke="black" points="198,-1588 96,-1588 96,-1552 198,-1552 198,-1588"/>
<text text-anchor="middle" x="147" y="-1566.3" font-family="Times,serif" font-size="14.00">三井住友銀行</text>
</g>
<!-- 給与&#45;&gt;三井住友銀行 -->
<g id="edge7" class="edge">
<title>給与&#45;&gt;三井住友銀行</title>
<path fill="none" stroke="black" stroke-width="2" d="M56.71,-1570C65.39,-1570 75.45,-1570 85.62,-1570"/>
<polygon fill="black" stroke="black" stroke-width="2" points="85.78,-1573.5 95.78,-1570 85.78,-1566.5 85.78,-1573.5"/>
</g>
<!-- 譲渡 -->
<g id="node9" class="node">
<title>譲渡</title>
<polygon fill="none" stroke="black" points="56.5,-1160 2.5,-1160 2.5,-1124 56.5,-1124 56.5,-1160"/>
<text text-anchor="middle" x="29.5" y="-1138.3" font-family="Times,serif" font-size="14.00">譲渡</text>
</g>
<!-- メルペイ -->
<g id="node21" class="node">
<title>メルペイ</title>
<polygon fill="none" stroke="black" points="529,-1160 455,-1160 455,-1124 529,-1124 529,-1160"/>
<text text-anchor="middle" x="492" y="-1138.3" font-family="Times,serif" font-size="14.00">メルペイ</text>
</g>
<!-- 譲渡&#45;&gt;メルペイ -->
<g id="edge65" class="edge">
<title>譲渡&#45;&gt;メルペイ</title>
<path fill="none" stroke="black" stroke-width="2" d="M56.58,-1142C131.58,-1142 348.63,-1142 444.52,-1142"/>
<polygon fill="black" stroke="black" stroke-width="2" points="444.78,-1145.5 454.78,-1142 444.78,-1138.5 444.78,-1145.5"/>
</g>
<!-- 雑収入 -->
<g id="node10" class="node">
<title>雑収入</title>
<polygon fill="none" stroke="black" points="59,-590 0,-590 0,-554 59,-554 59,-590"/>
<text text-anchor="middle" x="29.5" y="-568.3" font-family="Times,serif" font-size="14.00">雑収入</text>
</g>
<!-- 楽天ポイント -->
<g id="node23" class="node">
<title>楽天ポイント</title>
<polygon fill="none" stroke="black" points="746.5,-611 644.5,-611 644.5,-575 746.5,-575 746.5,-611"/>
<text text-anchor="middle" x="695.5" y="-589.3" font-family="Times,serif" font-size="14.00">楽天ポイント</text>
</g>
<!-- 雑収入&#45;&gt;楽天ポイント -->
<g id="edge69" class="edge">
<title>雑収入&#45;&gt;楽天ポイント</title>
<path fill="none" stroke="black" stroke-width="2" d="M59.45,-572C82.82,-572 116.52,-572 146,-572 146,-572 146,-572 493,-572 540.56,-572 594.1,-577.86 634.03,-583.39"/>
<polygon fill="black" stroke="black" stroke-width="2" points="633.75,-586.88 644.14,-584.82 634.73,-579.95 633.75,-586.88"/>
</g>
<!-- 住信SBI銀行 -->
<g id="node12" class="node">
<title>住信SBI銀行</title>
<polygon fill="none" stroke="black" points="196.5,-1453 97.5,-1453 97.5,-1417 196.5,-1417 196.5,-1453"/>
<text text-anchor="middle" x="147" y="-1431.3" font-family="Times,serif" font-size="14.00">住信SBI銀行</text>
</g>
<!-- 三井住友銀行&#45;&gt;住信SBI銀行 -->
<g id="edge9" class="edge">
<title>三井住友銀行&#45;&gt;住信SBI銀行</title>
<path fill="none" stroke="black" stroke-width="2" d="M147,-1551.75C147,-1522.23 147,-1492.72 147,-1463.2"/>
<polygon fill="black" stroke="black" stroke-width="2" points="150.5,-1463.19 147,-1453.19 143.5,-1463.19 150.5,-1463.19"/>
</g>
<!-- 現金 -->
<g id="node17" class="node">
<title>現金</title>
<polygon fill="none" stroke="black" points="519,-1614 465,-1614 465,-1578 519,-1578 519,-1614"/>
<text text-anchor="middle" x="492" y="-1592.3" font-family="Times,serif" font-size="14.00">現金</text>
</g>
<!-- 三井住友銀行&#45;&gt;現金 -->
<g id="edge8" class="edge">
<title>三井住友銀行&#45;&gt;現金</title>
<path fill="none" stroke="black" stroke-width="2" d="M198.03,-1579.55C204.07,-1580.49 210.16,-1581.34 216,-1582 301.1,-1591.64 401.78,-1594.64 454.55,-1595.58"/>
<polygon fill="black" stroke="black" stroke-width="2" points="454.69,-1599.08 464.75,-1595.74 454.81,-1592.08 454.69,-1599.08"/>
</g>
<!-- ビックカメラSuicaカード -->
<g id="node13" class="node">
<title>ビックカメラSuicaカード</title>
<polygon fill="none" stroke="black" points="418,-1398 235,-1398 235,-1362 418,-1362 418,-1398"/>
<text text-anchor="middle" x="326.5" y="-1376.3" font-family="Times,serif" font-size="14.00">ビックカメラSuicaカード</text>
</g>
<!-- 住信SBI銀行&#45;&gt;ビックカメラSuicaカード -->
<g id="edge23" class="edge">
<title>住信SBI銀行&#45;&gt;ビックカメラSuicaカード</title>
<path fill="none" stroke="black" stroke-width="2" d="M196.58,-1418.29C203.09,-1416.13 209.7,-1413.98 216,-1412 227.7,-1408.31 240.15,-1404.54 252.3,-1400.93"/>
<polygon fill="black" stroke="black" stroke-width="2" points="253.36,-1404.27 261.96,-1398.08 251.38,-1397.55 253.36,-1404.27"/>
</g>
<!-- リクルートカード -->
<g id="node14" class="node">
<title>リクルートカード</title>
<polygon fill="none" stroke="black" points="390.5,-890 262.5,-890 262.5,-854 390.5,-854 390.5,-890"/>
<text text-anchor="middle" x="326.5" y="-868.3" font-family="Times,serif" font-size="14.00">リクルートカード</text>
</g>
<!-- 住信SBI銀行&#45;&gt;リクルートカード -->
<g id="edge24" class="edge">
<title>住信SBI銀行&#45;&gt;リクルートカード</title>
<path fill="none" stroke="black" stroke-width="2" d="M153.7,-1416.91C179.52,-1335.01 285.53,-998.79 316.79,-899.64"/>
<polygon fill="black" stroke="black" stroke-width="2" points="320.15,-900.62 319.82,-890.03 313.47,-898.51 320.15,-900.62"/>
</g>
<!-- PiTaPa -->
<g id="node15" class="node">
<title>PiTaPa</title>
<polygon fill="none" stroke="black" points="359,-1306 294,-1306 294,-1270 359,-1270 359,-1306"/>
<text text-anchor="middle" x="326.5" y="-1284.3" font-family="Times,serif" font-size="14.00">PiTaPa</text>
</g>
<!-- 住信SBI銀行&#45;&gt;PiTaPa -->
<g id="edge25" class="edge">
<title>住信SBI銀行&#45;&gt;PiTaPa</title>
<path fill="none" stroke="black" stroke-width="2" d="M157.29,-1416.8C171.02,-1391.63 199.03,-1346.31 235,-1320 249.37,-1309.49 267.51,-1302.18 283.76,-1297.23"/>
<polygon fill="black" stroke="black" stroke-width="2" points="284.92,-1300.54 293.59,-1294.44 283.02,-1293.8 284.92,-1300.54"/>
</g>
<!-- 住信SBI銀行&#45;&gt;現金 -->
<g id="edge21" class="edge">
<title>住信SBI銀行&#45;&gt;現金</title>
<path fill="none" stroke="black" stroke-width="2" d="M159.18,-1453.01C173.83,-1475.08 201.63,-1511.99 235,-1532 253.88,-1543.32 388.73,-1573.72 454.76,-1588.17"/>
<polygon fill="black" stroke="black" stroke-width="2" points="454.22,-1591.63 464.74,-1590.35 455.71,-1584.79 454.22,-1591.63"/>
</g>
<!-- PayPay -->
<g id="node20" class="node">
<title>PayPay</title>
<polygon fill="none" stroke="black" points="526,-1546 458,-1546 458,-1510 526,-1510 526,-1546"/>
<text text-anchor="middle" x="492" y="-1524.3" font-family="Times,serif" font-size="14.00">PayPay</text>
</g>
<!-- 住信SBI銀行&#45;&gt;PayPay -->
<g id="edge26" class="edge">
<title>住信SBI銀行&#45;&gt;PayPay</title>
<path fill="none" stroke="black" stroke-width="2" d="M162.67,-1453.26C175.22,-1467.47 194.6,-1486.35 216,-1496 292.16,-1530.33 391.66,-1532.8 447.7,-1530.84"/>
<polygon fill="black" stroke="black" stroke-width="2" points="448.13,-1534.33 457.98,-1530.41 447.84,-1527.33 448.13,-1534.33"/>
</g>
<!-- 株主優待券 -->
<g id="node30" class="node">
<title>株主優待券</title>
<polygon fill="none" stroke="black" points="914,-1453 826,-1453 826,-1417 914,-1417 914,-1453"/>
<text text-anchor="middle" x="870" y="-1431.3" font-family="Times,serif" font-size="14.00">株主優待券</text>
</g>
<!-- 住信SBI銀行&#45;&gt;株主優待券 -->
<g id="edge28" class="edge">
<title>住信SBI銀行&#45;&gt;株主優待券</title>
<path fill="none" stroke="black" stroke-width="2" d="M196.59,-1427.52C232.27,-1426 281.9,-1426 325.5,-1426 325.5,-1426 325.5,-1426 696.5,-1426 736.4,-1426 781.48,-1426 815.55,-1427.27"/>
<polygon fill="black" stroke="black" stroke-width="2" points="815.62,-1430.77 825.76,-1427.7 815.91,-1423.78 815.62,-1430.77"/>
</g>
<!-- 家賃 -->
<g id="node31" class="node">
<title>家賃</title>
<polygon fill="none" stroke="black" points="1036,-1500 982,-1500 982,-1464 1036,-1464 1036,-1500"/>
<text text-anchor="middle" x="1009" y="-1478.3" font-family="Times,serif" font-size="14.00">家賃</text>
</g>
<!-- 住信SBI銀行&#45;&gt;家賃 -->
<g id="edge22" class="edge">
<title>住信SBI銀行&#45;&gt;家賃</title>
<path fill="none" stroke="black" stroke-width="2" d="M190.93,-1453.04C226.37,-1466.29 278.32,-1482 325.5,-1482 325.5,-1482 325.5,-1482 871,-1482 905.12,-1482 944.02,-1482 971.63,-1482"/>
<polygon fill="black" stroke="black" stroke-width="2" points="971.99,-1485.5 981.99,-1482 971.99,-1478.5 971.99,-1485.5"/>
</g>
<!-- Suica -->
<g id="node16" class="node">
<title>Suica</title>
<polygon fill="none" stroke="black" points="520,-1220 464,-1220 464,-1184 520,-1184 520,-1220"/>
<text text-anchor="middle" x="492" y="-1198.3" font-family="Times,serif" font-size="14.00">Suica</text>
</g>
<!-- ビックカメラSuicaカード&#45;&gt;Suica -->
<g id="edge15" class="edge">
<title>ビックカメラSuicaカード&#45;&gt;Suica</title>
<path fill="none" stroke="black" stroke-width="2" d="M400.95,-1361.85C407.32,-1358.08 413.17,-1353.51 418,-1348 443.46,-1318.96 421.16,-1298.65 436,-1263 441.54,-1249.68 451.3,-1237.35 461.07,-1227.32"/>
<polygon fill="black" stroke="black" stroke-width="2" points="463.75,-1229.6 468.48,-1220.12 458.87,-1224.58 463.75,-1229.6"/>
</g>
<!-- JREポイント -->
<g id="node24" class="node">
<title>JREポイント</title>
<polygon fill="none" stroke="black" points="745.5,-1230 645.5,-1230 645.5,-1194 745.5,-1194 745.5,-1230"/>
<text text-anchor="middle" x="695.5" y="-1208.3" font-family="Times,serif" font-size="14.00">JREポイント</text>
</g>
<!-- ビックカメラSuicaカード&#45;&gt;JREポイント -->
<g id="edge10" class="edge">
<title>ビックカメラSuicaカード&#45;&gt;JREポイント</title>
<path fill="none" stroke="black" d="M399.61,-1361.93C406.4,-1358.14 412.71,-1353.55 418,-1348 437.2,-1327.84 421.4,-1311.71 436,-1288 442.1,-1278.1 444.78,-1275.56 455,-1270 511.61,-1239.22 584.52,-1224.58 634.94,-1217.75"/>
<polygon fill="black" stroke="black" points="635.56,-1221.19 645.03,-1216.44 634.67,-1214.25 635.56,-1221.19"/>
<text text-anchor="middle" x="492" y="-1273.8" font-family="Times,serif" font-size="14.00">0.5%</text>
</g>
<!-- ビックポイント -->
<g id="node25" class="node">
<title>ビックポイント</title>
<polygon fill="none" stroke="black" points="753.5,-1322 637.5,-1322 637.5,-1286 753.5,-1286 753.5,-1322"/>
<text text-anchor="middle" x="695.5" y="-1300.3" font-family="Times,serif" font-size="14.00">ビックポイント</text>
</g>
<!-- ビックカメラSuicaカード&#45;&gt;ビックポイント -->
<g id="edge13" class="edge">
<title>ビックカメラSuicaカード&#45;&gt;ビックポイント</title>
<path fill="none" stroke="black" d="M414.47,-1361.99C479.6,-1348.5 567.39,-1330.32 627.2,-1317.94"/>
<polygon fill="black" stroke="black" points="628.21,-1321.3 637.29,-1315.85 626.79,-1314.45 628.21,-1321.3"/>
<text text-anchor="middle" x="492" y="-1357.8" font-family="Times,serif" font-size="14.00">0.5%</text>
</g>
<!-- ビックカメラ -->
<g id="node41" class="node">
<title>ビックカメラ</title>
<polygon fill="none" stroke="black" points="1059.5,-1241 958.5,-1241 958.5,-1205 1059.5,-1205 1059.5,-1241"/>
<text text-anchor="middle" x="1009" y="-1219.3" font-family="Times,serif" font-size="14.00">ビックカメラ</text>
</g>
<!-- ビックカメラSuicaカード&#45;&gt;ビックカメラ -->
<g id="edge11" class="edge">
<title>ビックカメラSuicaカード&#45;&gt;ビックカメラ</title>
<path fill="none" stroke="black" stroke-width="2" stroke-dasharray="5,2" d="M379.28,-1361.98C391.97,-1357.48 405.49,-1352.62 418,-1348 500.22,-1317.61 517.23,-1299.3 602,-1277 699.32,-1251.4 726.23,-1257.1 826,-1244 866.61,-1238.67 912.43,-1233.38 947.93,-1229.45"/>
<polygon fill="black" stroke="black" stroke-width="2" points="948.57,-1232.9 958.12,-1228.33 947.8,-1225.94 948.57,-1232.9"/>
</g>
<!-- EX予約 -->
<g id="node51" class="node">
<title>EX予約</title>
<polygon fill="none" stroke="black" points="1041.5,-1414 976.5,-1414 976.5,-1378 1041.5,-1378 1041.5,-1414"/>
<text text-anchor="middle" x="1009" y="-1392.3" font-family="Times,serif" font-size="14.00">EX予約</text>
</g>
<!-- ビックカメラSuicaカード&#45;&gt;EX予約 -->
<g id="edge18" class="edge">
<title>ビックカメラSuicaカード&#45;&gt;EX予約</title>
<path fill="none" stroke="black" stroke-width="2" stroke-dasharray="5,2" d="M418.27,-1386.02C441.93,-1387.16 467.41,-1388 491,-1388 491,-1388 491,-1388 871,-1388 902.97,-1388 939.07,-1390.2 966.18,-1392.29"/>
<polygon fill="black" stroke="black" stroke-width="2" points="966.22,-1395.8 976.47,-1393.11 966.78,-1388.83 966.22,-1395.8"/>
</g>
<!-- nanaco -->
<g id="node18" class="node">
<title>nanaco</title>
<polygon fill="none" stroke="black" points="525.5,-890 458.5,-890 458.5,-854 525.5,-854 525.5,-890"/>
<text text-anchor="middle" x="492" y="-868.3" font-family="Times,serif" font-size="14.00">nanaco</text>
</g>
<!-- リクルートカード&#45;&gt;nanaco -->
<g id="edge55" class="edge">
<title>リクルートカード&#45;&gt;nanaco</title>
<path fill="none" stroke="black" stroke-width="2" d="M390.71,-872C409.76,-872 430.23,-872 447.68,-872"/>
<polygon fill="black" stroke="black" stroke-width="2" points="448.11,-875.5 458.11,-872 448.11,-868.5 448.11,-875.5"/>
</g>
<!-- Edy -->
<g id="node19" class="node">
<title>Edy</title>
<polygon fill="none" stroke="black" points="519,-768 465,-768 465,-732 519,-732 519,-768"/>
<text text-anchor="middle" x="492" y="-746.3" font-family="Times,serif" font-size="14.00">Edy</text>
</g>
<!-- リクルートカード&#45;&gt;Edy -->
<g id="edge44" class="edge">
<title>リクルートカード&#45;&gt;Edy</title>
<path fill="none" stroke="black" stroke-width="2" d="M351.62,-854C380,-832.82 427.23,-797.59 458.73,-774.08"/>
<polygon fill="black" stroke="black" stroke-width="2" points="460.85,-776.86 466.78,-768.08 456.67,-771.25 460.85,-776.86"/>
</g>
<!-- Ponta -->
<g id="node22" class="node">
<title>Ponta</title>
<polygon fill="none" stroke="black" points="724,-519 667,-519 667,-483 724,-483 724,-519"/>
<text text-anchor="middle" x="695.5" y="-497.3" font-family="Times,serif" font-size="14.00">Ponta</text>
</g>
<!-- リクルートカード&#45;&gt;Ponta -->
<g id="edge50" class="edge">
<title>リクルートカード&#45;&gt;Ponta</title>
<path fill="none" stroke="black" d="M331.14,-853.93C341.2,-807.37 372.94,-680.96 436,-596 488.31,-525.52 598.52,-507.27 656.7,-502.59"/>
<polygon fill="black" stroke="black" points="657.2,-506.06 666.93,-501.86 656.71,-499.08 657.2,-506.06"/>
<text text-anchor="middle" x="492" y="-576.8" font-family="Times,serif" font-size="14.00">1.2%</text>
</g>
<!-- ASAHIネット -->
<g id="node34" class="node">
<title>ASAHIネット</title>
<polygon fill="none" stroke="black" points="1062,-311 956,-311 956,-275 1062,-275 1062,-311"/>
<text text-anchor="middle" x="1009" y="-289.3" font-family="Times,serif" font-size="14.00">ASAHIネット</text>
</g>
<!-- リクルートカード&#45;&gt;ASAHIネット -->
<g id="edge31" class="edge">
<title>リクルートカード&#45;&gt;ASAHIネット</title>
<path fill="none" stroke="black" stroke-width="2" d="M328.6,-853.72C335.02,-755.3 371.53,-293 491,-293 491,-293 491,-293 871,-293 895.45,-293 922.35,-293 945.79,-293"/>
<polygon fill="black" stroke="black" stroke-width="2" points="945.96,-296.5 955.96,-293 945.96,-289.5 945.96,-296.5"/>
</g>
<!-- 楽天モバイル -->
<g id="node35" class="node">
<title>楽天モバイル</title>
<polygon fill="none" stroke="black" points="1060,-644 958,-644 958,-608 1060,-608 1060,-644"/>
<text text-anchor="middle" x="1009" y="-622.3" font-family="Times,serif" font-size="14.00">楽天モバイル</text>
</g>
<!-- リクルートカード&#45;&gt;楽天モバイル -->
<g id="edge40" class="edge">
<title>リクルートカード&#45;&gt;楽天モバイル</title>
<path fill="none" stroke="black" stroke-width="2" d="M339.4,-853.95C360.02,-823.75 405,-762.42 455,-723 491.06,-694.57 503,-689.14 547,-676 565.93,-670.35 826.83,-643.97 947.53,-631.97"/>
<polygon fill="black" stroke="black" stroke-width="2" points="948.11,-635.43 957.72,-630.96 947.42,-628.46 948.11,-635.43"/>
</g>
<!-- 楽天でんき -->
<g id="node36" class="node">
<title>楽天でんき</title>
<polygon fill="none" stroke="black" points="1053,-806 965,-806 965,-770 1053,-770 1053,-806"/>
<text text-anchor="middle" x="1009" y="-784.3" font-family="Times,serif" font-size="14.00">楽天でんき</text>
</g>
<!-- リクルートカード&#45;&gt;楽天でんき -->
<g id="edge38" class="edge">
<title>リクルートカード&#45;&gt;楽天でんき</title>
<path fill="none" stroke="black" stroke-width="2" d="M367.94,-890.05C400.5,-902.94 447.8,-918 491,-918 491,-918 491,-918 871,-918 928.96,-918 905.8,-851.28 951,-815 952.73,-813.61 954.55,-812.27 956.43,-810.98"/>
<polygon fill="black" stroke="black" stroke-width="2" points="958.33,-813.91 964.97,-805.65 954.63,-807.97 958.33,-813.91"/>
</g>
<!-- 関西電力 -->
<g id="node37" class="node">
<title>関西電力</title>
<polygon fill="none" stroke="black" points="1046,-184 972,-184 972,-148 1046,-148 1046,-184"/>
<text text-anchor="middle" x="1009" y="-162.3" font-family="Times,serif" font-size="14.00">関西電力</text>
</g>
<!-- リクルートカード&#45;&gt;関西電力 -->
<g id="edge35" class="edge">
<title>リクルートカード&#45;&gt;関西電力</title>
<path fill="none" stroke="black" stroke-width="2" d="M327.7,-853.84C329.42,-743.33 345.37,-166 491,-166 491,-166 491,-166 871,-166 901.24,-166 935.23,-166 961.79,-166"/>
<polygon fill="black" stroke="black" stroke-width="2" points="961.94,-169.5 971.94,-166 961.94,-162.5 961.94,-169.5"/>
</g>
<!-- 楽天損保 -->
<g id="node38" class="node">
<title>楽天損保</title>
<polygon fill="none" stroke="black" points="1046,-1076 972,-1076 972,-1040 1046,-1040 1046,-1076"/>
<text text-anchor="middle" x="1009" y="-1054.3" font-family="Times,serif" font-size="14.00">楽天損保</text>
</g>
<!-- リクルートカード&#45;&gt;楽天損保 -->
<g id="edge39" class="edge">
<title>リクルートカード&#45;&gt;楽天損保</title>
<path fill="none" stroke="black" stroke-width="2" d="M333.95,-890.25C351.42,-936.01 404.24,-1052 491,-1052 491,-1052 491,-1052 871,-1052 901.27,-1052 935.26,-1053.48 961.81,-1054.97"/>
<polygon fill="black" stroke="black" stroke-width="2" points="961.78,-1058.47 971.96,-1055.56 962.18,-1051.49 961.78,-1058.47"/>
</g>
<!-- 郵便局 -->
<g id="node39" class="node">
<title>郵便局</title>
<polygon fill="none" stroke="black" points="1038.5,-1022 979.5,-1022 979.5,-986 1038.5,-986 1038.5,-1022"/>
<text text-anchor="middle" x="1009" y="-1000.3" font-family="Times,serif" font-size="14.00">郵便局</text>
</g>
<!-- リクルートカード&#45;&gt;郵便局 -->
<g id="edge61" class="edge">
<title>リクルートカード&#45;&gt;郵便局</title>
<path fill="none" stroke="black" stroke-width="2" d="M338.27,-890.08C361.35,-926.23 419.31,-1004 491,-1004 491,-1004 491,-1004 871,-1004 904.07,-1004 941.63,-1004 969.05,-1004"/>
<polygon fill="black" stroke="black" stroke-width="2" points="969.4,-1007.5 979.4,-1004 969.4,-1000.5 969.4,-1007.5"/>
</g>
<!-- アイハート -->
<g id="node40" class="node">
<title>アイハート</title>
<polygon fill="none" stroke="black" points="1052,-968 966,-968 966,-932 1052,-932 1052,-968"/>
<text text-anchor="middle" x="1009" y="-946.3" font-family="Times,serif" font-size="14.00">アイハート</text>
</g>
<!-- リクルートカード&#45;&gt;アイハート -->
<g id="edge34" class="edge">
<title>リクルートカード&#45;&gt;アイハート</title>
<path fill="none" stroke="black" stroke-width="2" d="M347.47,-890.23C376.7,-914.93 433.88,-956 491,-956 491,-956 491,-956 871,-956 898.93,-956 930.04,-954.74 955.55,-953.37"/>
<polygon fill="black" stroke="black" stroke-width="2" points="955.95,-956.86 965.75,-952.81 955.57,-949.87 955.95,-956.86"/>
</g>
<!-- Amazon -->
<g id="node50" class="node">
<title>Amazon</title>
<polygon fill="none" stroke="black" points="1045.5,-90 972.5,-90 972.5,-54 1045.5,-54 1045.5,-90"/>
<text text-anchor="middle" x="1009" y="-68.3" font-family="Times,serif" font-size="14.00">Amazon</text>
</g>
<!-- リクルートカード&#45;&gt;Amazon -->
<g id="edge32" class="edge">
<title>リクルートカード&#45;&gt;Amazon</title>
<path fill="none" stroke="black" stroke-width="2" d="M327.22,-853.79C325.88,-734.71 325.85,-72 491,-72 491,-72 491,-72 871,-72 901.34,-72 935.46,-72 962.06,-72"/>
<polygon fill="black" stroke="black" stroke-width="2" points="962.23,-75.5 972.23,-72 962.23,-68.5 962.23,-75.5"/>
</g>
<!-- じゃらん -->
<g id="node52" class="node">
<title>じゃらん</title>
<polygon fill="none" stroke="black" points="1046,-565 972,-565 972,-529 1046,-529 1046,-565"/>
<text text-anchor="middle" x="1009" y="-543.3" font-family="Times,serif" font-size="14.00">じゃらん</text>
</g>
<!-- リクルートカード&#45;&gt;じゃらん -->
<g id="edge33" class="edge">
<title>リクルートカード&#45;&gt;じゃらん</title>
<path fill="none" stroke="black" stroke-width="2" d="M335.85,-853.81C363.53,-796.13 458.81,-618.09 602,-566 666.89,-542.39 869.84,-543.78 961.84,-545.74"/>
<polygon fill="black" stroke="black" stroke-width="2" points="961.9,-549.24 971.97,-545.96 962.05,-542.24 961.9,-549.24"/>
</g>
<!-- メルカリ -->
<g id="node53" class="node">
<title>メルカリ</title>
<polygon fill="none" stroke="black" points="1046,-1130 972,-1130 972,-1094 1046,-1094 1046,-1130"/>
<text text-anchor="middle" x="1009" y="-1108.3" font-family="Times,serif" font-size="14.00">メルカリ</text>
</g>
<!-- リクルートカード&#45;&gt;メルカリ -->
<g id="edge68" class="edge">
<title>リクルートカード&#45;&gt;メルカリ</title>
<path fill="none" stroke="black" stroke-width="2" d="M331.72,-890.21C345.05,-942.61 391.41,-1090 491,-1090 491,-1090 491,-1090 871,-1090 901.52,-1090 935.38,-1095.39 961.8,-1100.83"/>
<polygon fill="black" stroke="black" stroke-width="2" points="961.4,-1104.32 971.91,-1102.99 962.86,-1097.48 961.4,-1104.32"/>
</g>
<!-- Suica&#45;&gt;JREポイント -->
<g id="edge19" class="edge">
<title>Suica&#45;&gt;JREポイント</title>
<path fill="none" stroke="black" d="M520.18,-1203.35C549.44,-1204.8 596.9,-1207.16 634.92,-1209.04"/>
<polygon fill="black" stroke="black" points="635.21,-1212.56 645.37,-1209.56 635.56,-1205.57 635.21,-1212.56"/>
<text text-anchor="middle" x="565.5" y="-1210.8" font-family="Times,serif" font-size="14.00">1.5%</text>
</g>
<!-- 電車 -->
<g id="node33" class="node">
<title>電車</title>
<polygon fill="none" stroke="black" points="1036,-1360 982,-1360 982,-1324 1036,-1324 1036,-1360"/>
<text text-anchor="middle" x="1009" y="-1338.3" font-family="Times,serif" font-size="14.00">電車</text>
</g>
<!-- Suica&#45;&gt;電車 -->
<g id="edge16" class="edge">
<title>Suica&#45;&gt;電車</title>
<path fill="none" stroke="black" stroke-width="2" d="M512.55,-1220.05C518.03,-1225.36 523.89,-1231.28 529,-1237 564.27,-1276.42 554.81,-1307.1 602,-1331 725.21,-1393.4 897.55,-1366.75 971.71,-1350.79"/>
<polygon fill="black" stroke="black" stroke-width="2" points="972.92,-1354.11 981.93,-1348.53 971.41,-1347.28 972.92,-1354.11"/>
</g>
<!-- 松屋 -->
<g id="node46" class="node">
<title>松屋</title>
<polygon fill="none" stroke="black" points="1036,-1184 982,-1184 982,-1148 1036,-1148 1036,-1184"/>
<text text-anchor="middle" x="1009" y="-1162.3" font-family="Times,serif" font-size="14.00">松屋</text>
</g>
<!-- Suica&#45;&gt;松屋 -->
<g id="edge17" class="edge">
<title>Suica&#45;&gt;松屋</title>
<path fill="none" stroke="black" stroke-width="2" d="M520.22,-1196.92C542.21,-1193.02 573.99,-1187.83 602,-1185 737.89,-1171.26 900.4,-1167.44 971.58,-1166.39"/>
<polygon fill="black" stroke="black" stroke-width="2" points="971.85,-1169.88 981.8,-1166.25 971.76,-1162.89 971.85,-1169.88"/>
</g>
<!-- 飲食店 -->
<g id="node44" class="node">
<title>飲食店</title>
<polygon fill="none" stroke="black" points="1038.5,-1559 979.5,-1559 979.5,-1523 1038.5,-1523 1038.5,-1559"/>
<text text-anchor="middle" x="1009" y="-1537.3" font-family="Times,serif" font-size="14.00">飲食店</text>
</g>
<!-- 現金&#45;&gt;飲食店 -->
<g id="edge62" class="edge">
<title>現金&#45;&gt;飲食店</title>
<path fill="none" stroke="black" stroke-width="2" d="M519.25,-1593.2C603.78,-1584.17 869.23,-1555.82 969.31,-1545.13"/>
<polygon fill="black" stroke="black" stroke-width="2" points="969.73,-1548.61 979.3,-1544.07 968.98,-1541.65 969.73,-1548.61"/>
</g>
<!-- 理髪店 -->
<g id="node48" class="node">
<title>理髪店</title>
<polygon fill="none" stroke="black" points="1038.5,-1672 979.5,-1672 979.5,-1636 1038.5,-1636 1038.5,-1672"/>
<text text-anchor="middle" x="1009" y="-1650.3" font-family="Times,serif" font-size="14.00">理髪店</text>
</g>
<!-- 現金&#45;&gt;理髪店 -->
<g id="edge63" class="edge">
<title>現金&#45;&gt;理髪店</title>
<path fill="none" stroke="black" stroke-width="2" d="M519.15,-1604.27C527.92,-1606.78 537.81,-1609.31 547,-1611 701.91,-1639.51 889.77,-1649.57 969.38,-1652.72"/>
<polygon fill="black" stroke="black" stroke-width="2" points="969.31,-1656.22 979.43,-1653.1 969.57,-1649.22 969.31,-1656.22"/>
</g>
<!-- クリーニング -->
<g id="node49" class="node">
<title>クリーニング</title>
<polygon fill="none" stroke="black" points="1059.5,-1618 958.5,-1618 958.5,-1582 1059.5,-1582 1059.5,-1618"/>
<text text-anchor="middle" x="1009" y="-1596.3" font-family="Times,serif" font-size="14.00">クリーニング</text>
</g>
<!-- 現金&#45;&gt;クリーニング -->
<g id="edge64" class="edge">
<title>現金&#45;&gt;クリーニング</title>
<path fill="none" stroke="black" stroke-width="2" d="M519.25,-1596.2C598.36,-1596.82 835.92,-1598.66 948.1,-1599.53"/>
<polygon fill="black" stroke="black" stroke-width="2" points="948.21,-1603.04 958.23,-1599.61 948.26,-1596.04 948.21,-1603.04"/>
</g>
<!-- nanacoポイント -->
<g id="node27" class="node">
<title>nanacoポイント</title>
<polygon fill="none" stroke="black" points="757.5,-852 633.5,-852 633.5,-816 757.5,-816 757.5,-852"/>
<text text-anchor="middle" x="695.5" y="-830.3" font-family="Times,serif" font-size="14.00">nanacoポイント</text>
</g>
<!-- nanaco&#45;&gt;nanacoポイント -->
<g id="edge57" class="edge">
<title>nanaco&#45;&gt;nanacoポイント</title>
<path fill="none" stroke="black" d="M525.69,-857.75C532.62,-855.16 539.97,-852.74 547,-851 571.41,-844.95 598.64,-841.05 622.99,-838.53"/>
<polygon fill="black" stroke="black" points="623.62,-841.98 633.23,-837.53 622.94,-835.01 623.62,-841.98"/>
<text text-anchor="middle" x="565.5" y="-854.8" font-family="Times,serif" font-size="14.00">1%</text>
</g>
<!-- セブンイレブン -->
<g id="node32" class="node">
<title>セブンイレブン</title>
<polygon fill="none" stroke="black" points="1066,-914 952,-914 952,-878 1066,-878 1066,-914"/>
<text text-anchor="middle" x="1009" y="-892.3" font-family="Times,serif" font-size="14.00">セブンイレブン</text>
</g>
<!-- nanaco&#45;&gt;セブンイレブン -->
<g id="edge56" class="edge">
<title>nanaco&#45;&gt;セブンイレブン</title>
<path fill="none" stroke="black" stroke-width="2" d="M525.61,-873.52C608.8,-877.4 830.23,-887.72 941.8,-892.91"/>
<polygon fill="black" stroke="black" stroke-width="2" points="941.77,-896.42 951.92,-893.39 942.09,-889.42 941.77,-896.42"/>
</g>
<!-- Edy&#45;&gt;楽天ポイント -->
<g id="edge49" class="edge">
<title>Edy&#45;&gt;楽天ポイント</title>
<path fill="none" stroke="black" d="M509.77,-731.68C520.07,-720.82 533.79,-707.07 547,-696 582.41,-666.33 626.13,-636.56 656.75,-616.72"/>
<polygon fill="black" stroke="black" points="658.9,-619.49 665.41,-611.14 655.11,-613.61 658.9,-619.49"/>
<text text-anchor="middle" x="565.5" y="-699.8" font-family="Times,serif" font-size="14.00">0.5%</text>
</g>
<!-- ヨドバシカメラ -->
<g id="node42" class="node">
<title>ヨドバシカメラ</title>
<polygon fill="none" stroke="black" points="1067,-438 951,-438 951,-402 1067,-402 1067,-438"/>
<text text-anchor="middle" x="1009" y="-416.3" font-family="Times,serif" font-size="14.00">ヨドバシカメラ</text>
</g>
<!-- Edy&#45;&gt;ヨドバシカメラ -->
<g id="edge45" class="edge">
<title>Edy&#45;&gt;ヨドバシカメラ</title>
<path fill="none" stroke="black" stroke-width="2" d="M497.64,-731.72C512.24,-675.63 558.87,-507.71 602,-474 653.32,-433.89 839.12,-423.53 940.64,-420.89"/>
<polygon fill="black" stroke="black" stroke-width="2" points="940.88,-424.38 950.79,-420.64 940.71,-417.38 940.88,-424.38"/>
</g>
<!-- 餃子の王将 -->
<g id="node43" class="node">
<title>餃子の王将</title>
<polygon fill="none" stroke="black" points="1053,-860 965,-860 965,-824 1053,-824 1053,-860"/>
<text text-anchor="middle" x="1009" y="-838.3" font-family="Times,serif" font-size="14.00">餃子の王将</text>
</g>
<!-- Edy&#45;&gt;餃子の王将 -->
<g id="edge60" class="edge">
<title>Edy&#45;&gt;餃子の王将</title>
<path fill="none" stroke="black" stroke-width="2" d="M519.04,-756.05C527.9,-758.03 537.86,-760.19 547,-762 694.21,-791.11 869.03,-819.87 954.95,-833.62"/>
<polygon fill="black" stroke="black" stroke-width="2" points="954.55,-837.1 964.98,-835.22 955.65,-830.19 954.55,-837.1"/>
</g>
<!-- 業務スーパー -->
<g id="node45" class="node">
<title>業務スーパー</title>
<polygon fill="none" stroke="black" points="1060,-752 958,-752 958,-716 1060,-716 1060,-752"/>
<text text-anchor="middle" x="1009" y="-730.3" font-family="Times,serif" font-size="14.00">業務スーパー</text>
</g>
<!-- Edy&#45;&gt;業務スーパー -->
<g id="edge59" class="edge">
<title>Edy&#45;&gt;業務スーパー</title>
<path fill="none" stroke="black" stroke-width="2" d="M519.25,-749.18C598.26,-746.73 835.33,-739.36 947.68,-735.87"/>
<polygon fill="black" stroke="black" stroke-width="2" points="947.94,-739.37 957.83,-735.56 947.72,-732.37 947.94,-739.37"/>
</g>
<!-- 吉野家 -->
<g id="node47" class="node">
<title>吉野家</title>
<polygon fill="none" stroke="black" points="1038.5,-698 979.5,-698 979.5,-662 1038.5,-662 1038.5,-698"/>
<text text-anchor="middle" x="1009" y="-676.3" font-family="Times,serif" font-size="14.00">吉野家</text>
</g>
<!-- Edy&#45;&gt;吉野家 -->
<g id="edge48" class="edge">
<title>Edy&#45;&gt;吉野家</title>
<path fill="none" stroke="black" stroke-width="2" d="M519.25,-746.43C603.78,-734.94 869.23,-698.86 969.31,-685.26"/>
<polygon fill="black" stroke="black" stroke-width="2" points="969.86,-688.72 979.3,-683.9 968.92,-681.78 969.86,-688.72"/>
</g>
<!-- PayPay&#45;&gt;飲食店 -->
<g id="edge27" class="edge">
<title>PayPay&#45;&gt;飲食店</title>
<path fill="none" stroke="black" stroke-width="2" d="M526.39,-1528.84C617.79,-1531.15 871.71,-1537.56 969.2,-1540.02"/>
<polygon fill="black" stroke="black" stroke-width="2" points="969.13,-1543.52 979.21,-1540.27 969.31,-1536.52 969.13,-1543.52"/>
</g>
<!-- メルペイ&#45;&gt;三井住友銀行 -->
<g id="edge67" class="edge">
<title>メルペイ&#45;&gt;三井住友銀行</title>
<path fill="none" stroke="black" stroke-width="2" d="M467.21,-1160.18C462.62,-1164.61 458.25,-1169.63 455,-1175 446.68,-1188.77 429.68,-1303.93 418,-1315 357.71,-1372.14 297.22,-1297.97 235,-1353 196.68,-1386.89 217,-1414.5 198,-1462 186.82,-1489.95 172.17,-1521.07 161.63,-1542.69"/>
<polygon fill="black" stroke="black" stroke-width="2" points="158.36,-1541.4 157.09,-1551.91 164.64,-1544.48 158.36,-1541.4"/>
</g>
<!-- メルペイ&#45;&gt;メルカリ -->
<g id="edge66" class="edge">
<title>メルペイ&#45;&gt;メルカリ</title>
<path fill="none" stroke="black" stroke-width="2" d="M529.21,-1139.89C620.54,-1134.57 860.17,-1120.61 961.59,-1114.7"/>
<polygon fill="black" stroke="black" stroke-width="2" points="962.05,-1118.18 971.83,-1114.11 961.64,-1111.19 962.05,-1118.18"/>
</g>
<!-- Ponta&#45;&gt;じゃらん -->
<g id="edge51" class="edge">
<title>Ponta&#45;&gt;じゃらん</title>
<path fill="none" stroke="black" d="M724.24,-504.3C768.48,-509.66 857.73,-520.89 933,-533 942.32,-534.5 952.25,-536.25 961.75,-537.99"/>
<polygon fill="black" stroke="black" points="961.35,-541.48 971.82,-539.87 962.63,-534.6 961.35,-541.48"/>
</g>
<!-- 楽天ポイント&#45;&gt;楽天モバイル -->
<g id="edge42" class="edge">
<title>楽天ポイント&#45;&gt;楽天モバイル</title>
<path fill="none" stroke="black" d="M746.86,-592.56C791.12,-592.82 857.13,-594.81 914,-603 924.95,-604.58 936.48,-606.86 947.58,-609.39"/>
<polygon fill="black" stroke="black" points="947.08,-612.87 957.62,-611.77 948.69,-606.06 947.08,-612.87"/>
</g>
<!-- 楽天ポイント&#45;&gt;楽天でんき -->
<g id="edge43" class="edge">
<title>楽天ポイント&#45;&gt;楽天でんき</title>
<path fill="none" stroke="black" d="M716.75,-611.26C755.75,-645.59 845.15,-720.21 932,-764 939.29,-767.68 947.26,-770.93 955.2,-773.77"/>
<polygon fill="black" stroke="black" points="954.24,-777.14 964.84,-777.02 956.48,-770.5 954.24,-777.14"/>
</g>
<!-- JREポイント&#45;&gt;Suica -->
<g id="edge20" class="edge">
<title>JREポイント&#45;&gt;Suica</title>
<path fill="none" stroke="black" d="M645.27,-1209.22C626.15,-1208.17 604.05,-1206.99 584,-1206 566.38,-1205.13 546.83,-1204.26 530.39,-1203.56"/>
<polygon fill="black" stroke="black" points="530.22,-1200.05 520.08,-1203.12 529.92,-1207.04 530.22,-1200.05"/>
</g>
<!-- ビックポイント&#45;&gt;ビックカメラ -->
<g id="edge14" class="edge">
<title>ビックポイント&#45;&gt;ビックカメラ</title>
<path fill="none" stroke="black" d="M753.63,-1308.72C798.53,-1310.46 861.95,-1308.51 914,-1290 939.38,-1280.97 964.02,-1262.95 981.7,-1247.87"/>
<polygon fill="black" stroke="black" points="984.11,-1250.42 989.32,-1241.2 979.49,-1245.16 984.11,-1250.42"/>
</g>
<!-- Amazonポイント -->
<g id="node26" class="node">
<title>Amazonポイント</title>
<polygon fill="none" stroke="black" points="760.5,-137 630.5,-137 630.5,-101 760.5,-101 760.5,-137"/>
<text text-anchor="middle" x="695.5" y="-115.3" font-family="Times,serif" font-size="14.00">Amazonポイント</text>
</g>
<!-- Amazonポイント&#45;&gt;Amazon -->
<g id="edge54" class="edge">
<title>Amazonポイント&#45;&gt;Amazon</title>
<path fill="none" stroke="black" d="M760.61,-103.41C808.25,-95.62 874.8,-86.49 933,-77 942.41,-75.47 952.45,-73.69 962.04,-72.12"/>
<polygon fill="black" stroke="black" points="962.86,-75.54 972.2,-70.53 961.78,-68.62 962.86,-75.54"/>
</g>
<!-- nanacoポイント&#45;&gt;nanaco -->
<g id="edge58" class="edge">
<title>nanacoポイント&#45;&gt;nanaco</title>
<path fill="none" stroke="black" d="M633.48,-829.83C606.48,-829.67 574.65,-831.82 547,-840 539.96,-842.08 532.89,-845.29 526.28,-848.88"/>
<polygon fill="black" stroke="black" points="524.48,-845.87 517.62,-853.94 528.02,-851.92 524.48,-845.87"/>
</g>
<!-- ヨドバシゴールドポイント -->
<g id="node28" class="node">
<title>ヨドバシゴールドポイント</title>
<polygon fill="none" stroke="black" points="789,-379 602,-379 602,-343 789,-343 789,-379"/>
<text text-anchor="middle" x="695.5" y="-357.3" font-family="Times,serif" font-size="14.00">ヨドバシゴールドポイント</text>
</g>
<!-- ヨドバシゴールドポイント&#45;&gt;ヨドバシカメラ -->
<g id="edge47" class="edge">
<title>ヨドバシゴールドポイント&#45;&gt;ヨドバシカメラ</title>
<path fill="none" stroke="black" d="M789.12,-378.54C837.87,-387.78 896.55,-398.89 940.88,-407.29"/>
<polygon fill="black" stroke="black" points="940.48,-410.77 950.96,-409.2 941.79,-403.9 940.48,-410.77"/>
</g>
<!-- はぴeポイント -->
<g id="node29" class="node">
<title>はぴeポイント</title>
<polygon fill="none" stroke="black" points="750.5,-248 640.5,-248 640.5,-212 750.5,-212 750.5,-248"/>
<text text-anchor="middle" x="695.5" y="-226.3" font-family="Times,serif" font-size="14.00">はぴeポイント</text>
</g>
<!-- はぴeポイント&#45;&gt;関西電力 -->
<g id="edge37" class="edge">
<title>はぴeポイント&#45;&gt;関西電力</title>
<path fill="none" stroke="black" d="M750.9,-235.78C795.64,-238.77 860.22,-238.97 914,-223 936.96,-216.18 959.99,-202.36 977.51,-190.03"/>
<polygon fill="black" stroke="black" points="979.6,-192.84 985.64,-184.13 975.49,-187.17 979.6,-192.84"/>
</g>
<!-- 株主優待券&#45;&gt;住信SBI銀行 -->
<g id="edge30" class="edge">
<title>株主優待券&#45;&gt;住信SBI銀行</title>
<path fill="none" stroke="black" d="M825.76,-1442.3C790.87,-1444 740.52,-1444 696.5,-1444 325.5,-1444 325.5,-1444 325.5,-1444 285.98,-1444 241.52,-1444 206.98,-1442.87"/>
<polygon fill="black" stroke="black" points="206.72,-1439.36 196.59,-1442.48 206.45,-1446.35 206.72,-1439.36"/>
</g>
<!-- 株主優待券&#45;&gt;電車 -->
<g id="edge29" class="edge">
<title>株主優待券&#45;&gt;電車</title>
<path fill="none" stroke="black" stroke-width="2" d="M890.33,-1416.72C905.91,-1402.58 928.81,-1383.1 951,-1369 957.76,-1364.71 965.31,-1360.66 972.64,-1357.08"/>
<polygon fill="black" stroke="black" stroke-width="2" points="974.18,-1360.22 981.74,-1352.79 971.2,-1353.88 974.18,-1360.22"/>
</g>
<!-- 楽天モバイル&#45;&gt;楽天ポイント -->
<g id="edge41" class="edge">
<title>楽天モバイル&#45;&gt;楽天ポイント</title>
<path fill="none" stroke="black" d="M957.82,-620.68C903.01,-614.88 815.25,-605.58 756.75,-599.38"/>
<polygon fill="black" stroke="black" points="756.86,-595.88 746.55,-598.3 756.12,-602.84 756.86,-595.88"/>
<text text-anchor="middle" x="870" y="-619.8" font-family="Times,serif" font-size="14.00">0.5%</text>
</g>
<!-- 関西電力&#45;&gt;はぴeポイント -->
<g id="edge36" class="edge">
<title>関西電力&#45;&gt;はぴeポイント</title>
<path fill="none" stroke="black" d="M971.85,-173.43C920.22,-184.03 824.57,-203.69 760.72,-216.81"/>
<polygon fill="black" stroke="black" points="759.85,-213.41 750.76,-218.85 761.26,-220.27 759.85,-213.41"/>
<text text-anchor="middle" x="870" y="-207.8" font-family="Times,serif" font-size="14.00">0.5%</text>
</g>
<!-- ビックカメラ&#45;&gt;ビックポイント -->
<g id="edge12" class="edge">
<title>ビックカメラ&#45;&gt;ビックポイント</title>
<path fill="none" stroke="black" stroke-dasharray="5,2" d="M958.42,-1235.89C905.72,-1249.6 822.08,-1271.35 763.53,-1286.57"/>
<polygon fill="black" stroke="black" points="762.43,-1283.24 753.63,-1289.14 764.19,-1290.01 762.43,-1283.24"/>
<text text-anchor="middle" x="870" y="-1274.8" font-family="Times,serif" font-size="14.00">9.5%</text>
</g>
<!-- ヨドバシカメラ&#45;&gt;ヨドバシゴールドポイント -->
<g id="edge46" class="edge">
<title>ヨドバシカメラ&#45;&gt;ヨドバシゴールドポイント</title>
<path fill="none" stroke="black" d="M990.14,-401.99C972.53,-385.61 943.97,-362.59 914,-353 877.73,-341.4 836.31,-340.17 799.42,-342.95"/>
<polygon fill="black" stroke="black" points="798.8,-339.49 789.14,-343.83 799.4,-346.46 798.8,-339.49"/>
<text text-anchor="middle" x="870" y="-356.8" font-family="Times,serif" font-size="14.00">10%</text>
</g>
<!-- Amazon&#45;&gt;Amazonポイント -->
<g id="edge53" class="edge">
<title>Amazon&#45;&gt;Amazonポイント</title>
<path fill="none" stroke="black" d="M972.2,-87.52C959.81,-90.37 945.81,-92.91 933,-95 878.77,-103.84 817.31,-112.37 770.64,-117.3"/>
<polygon fill="black" stroke="black" points="770.2,-113.82 760.61,-118.32 770.91,-120.78 770.2,-113.82"/>
</g>
<!-- じゃらん&#45;&gt;Ponta -->
<g id="edge52" class="edge">
<title>じゃらん&#45;&gt;Ponta</title>
<path fill="none" stroke="black" d="M980.97,-528.84C962.88,-517.82 938.05,-504.79 914,-499 852.31,-484.16 777.9,-489.66 734.04,-495.2"/>
<polygon fill="black" stroke="black" points="733.56,-491.73 724.11,-496.52 734.48,-498.67 733.56,-491.73"/>
<text text-anchor="middle" x="870" y="-502.8" font-family="Times,serif" font-size="14.00">2%</text>
</g>
</g>
</svg>
