<?xml version="1.0" encoding="UTF-8" standalone="no"?>
<!DOCTYPE svg PUBLIC "-//W3C//DTD SVG 1.1//EN"
 "http://www.w3.org/Graphics/SVG/1.1/DTD/svg11.dtd">
<!-- Generated by graphviz version 2.40.1 (20161225.0304)
 -->
<!-- Title: MoneyFlow Pages: 1 -->
<svg width="3126pt" height="496pt"
 viewBox="0.00 0.00 3126.00 496.00" xmlns="http://www.w3.org/2000/svg" xmlns:xlink="http://www.w3.org/1999/xlink">
<g id="graph0" class="graph" transform="scale(1 1) rotate(0) translate(4 492)">
<title>MoneyFlow</title>
<polygon fill="#ffffff" stroke="transparent" points="-4,4 -4,-492 3122,-492 3122,4 -4,4"/>
<!-- 収入 -->
<g id="node1" class="node">
<title>収入</title>
<text text-anchor="middle" x="65.5" y="-466.3" font-family="Times,serif" font-size="14.00" fill="#000000">収入</text>
</g>
<!-- 銀行口座 -->
<g id="node2" class="node">
<title>銀行口座</title>
<text text-anchor="middle" x="65.5" y="-393.3" font-family="Times,serif" font-size="14.00" fill="#000000">銀行口座</text>
</g>
<!-- 収入&#45;&gt;銀行口座 -->
<g id="edge1" class="edge">
<title>収入&#45;&gt;銀行口座</title>
<path fill="none" stroke="#000000" d="M65.5,-451.9551C65.5,-440.7241 65.5,-426.3298 65.5,-415.0904"/>
</g>
<!-- クレジットカード -->
<g id="node3" class="node">
<title>クレジットカード</title>
<text text-anchor="middle" x="65.5" y="-320.3" font-family="Times,serif" font-size="14.00" fill="#000000">クレジットカード</text>
</g>
<!-- 銀行口座&#45;&gt;クレジットカード -->
<g id="edge2" class="edge">
<title>銀行口座&#45;&gt;クレジットカード</title>
<path fill="none" stroke="#000000" d="M65.5,-378.9551C65.5,-367.7241 65.5,-353.3298 65.5,-342.0904"/>
</g>
<!-- マネー -->
<g id="node4" class="node">
<title>マネー</title>
<text text-anchor="middle" x="65.5" y="-247.3" font-family="Times,serif" font-size="14.00" fill="#000000">マネー</text>
</g>
<!-- クレジットカード&#45;&gt;マネー -->
<g id="edge3" class="edge">
<title>クレジットカード&#45;&gt;マネー</title>
<path fill="none" stroke="#000000" d="M65.5,-305.9551C65.5,-294.7241 65.5,-280.3298 65.5,-269.0904"/>
</g>
<!-- ポイント -->
<g id="node5" class="node">
<title>ポイント</title>
<text text-anchor="middle" x="65.5" y="-160.3" font-family="Times,serif" font-size="14.00" fill="#000000">ポイント</text>
</g>
<!-- マネー&#45;&gt;ポイント -->
<g id="edge4" class="edge">
<title>マネー&#45;&gt;ポイント</title>
<path fill="none" stroke="#000000" d="M65.5,-232.9735C65.5,-218.0422 65.5,-196.9283 65.5,-182.0034"/>
</g>
<!-- 金券 -->
<g id="node6" class="node">
<title>金券</title>
<text text-anchor="middle" x="65.5" y="-87.3" font-family="Times,serif" font-size="14.00" fill="#000000">金券</text>
</g>
<!-- ポイント&#45;&gt;金券 -->
<g id="edge5" class="edge">
<title>ポイント&#45;&gt;金券</title>
<path fill="none" stroke="#000000" d="M65.5,-145.9551C65.5,-134.7241 65.5,-120.3298 65.5,-109.0904"/>
</g>
<!-- 支出 -->
<g id="node7" class="node">
<title>支出</title>
<text text-anchor="middle" x="65.5" y="-14.3" font-family="Times,serif" font-size="14.00" fill="#000000">支出</text>
</g>
<!-- 金券&#45;&gt;支出 -->
<g id="edge6" class="edge">
<title>金券&#45;&gt;支出</title>
<path fill="none" stroke="#000000" d="M65.5,-72.9551C65.5,-61.7241 65.5,-47.3298 65.5,-36.0904"/>
</g>
<!-- 給与 -->
<g id="node8" class="node">
<title>給与</title>
<polygon fill="none" stroke="#000000" points="578.5,-488 524.5,-488 524.5,-452 578.5,-452 578.5,-488"/>
<text text-anchor="middle" x="551.5" y="-466.3" font-family="Times,serif" font-size="14.00" fill="#000000">給与</text>
</g>
<!-- 三井住友銀行 -->
<g id="node9" class="node">
<title>三井住友銀行</title>
<polygon fill="none" stroke="#000000" points="602.5,-415 500.5,-415 500.5,-379 602.5,-379 602.5,-415"/>
<text text-anchor="middle" x="551.5" y="-393.3" font-family="Times,serif" font-size="14.00" fill="#000000">三井住友銀行</text>
</g>
<!-- 給与&#45;&gt;三井住友銀行 -->
<g id="edge7" class="edge">
<title>給与&#45;&gt;三井住友銀行</title>
<path fill="none" stroke="#000000" stroke-width="2" d="M551.5,-451.9551C551.5,-443.8828 551.5,-434.1764 551.5,-425.1817"/>
<polygon fill="#000000" stroke="#000000" stroke-width="2" points="555.0001,-425.0903 551.5,-415.0904 548.0001,-425.0904 555.0001,-425.0903"/>
</g>
<!-- 住信SBI銀行 -->
<g id="node10" class="node">
<title>住信SBI銀行</title>
<polygon fill="none" stroke="#000000" points="1230.5,-415 1130.5,-415 1130.5,-379 1230.5,-379 1230.5,-415"/>
<text text-anchor="middle" x="1180.5" y="-393.3" font-family="Times,serif" font-size="14.00" fill="#000000">住信SBI銀行</text>
</g>
<!-- 三井住友銀行&#45;&gt;住信SBI銀行 -->
<g id="edge9" class="edge">
<title>三井住友銀行&#45;&gt;住信SBI銀行</title>
<path fill="none" stroke="#000000" stroke-width="2" d="M602.7905,-397C775.2749,-397 947.7594,-397 1120.2438,-397"/>
<polygon fill="#000000" stroke="#000000" stroke-width="2" points="1120.289,-400.5001 1130.2889,-397 1120.2889,-393.5001 1120.289,-400.5001"/>
</g>
<!-- 三井住友VISAカード -->
<g id="node11" class="node">
<title>三井住友VISAカード</title>
<polygon fill="none" stroke="#000000" points="402,-342 249,-342 249,-306 402,-306 402,-342"/>
<text text-anchor="middle" x="325.5" y="-320.3" font-family="Times,serif" font-size="14.00" fill="#000000">三井住友VISAカード</text>
</g>
<!-- 三井住友銀行&#45;&gt;三井住友VISAカード -->
<g id="edge11" class="edge">
<title>三井住友銀行&#45;&gt;三井住友VISAカード</title>
<path fill="none" stroke="#000000" stroke-width="2" d="M500.4994,-380.5264C468.1314,-370.0712 425.9335,-356.4409 391.0849,-345.1845"/>
<polygon fill="#000000" stroke="#000000" stroke-width="2" points="392.0567,-341.8204 381.4649,-342.0772 389.905,-348.4815 392.0567,-341.8204"/>
</g>
<!-- 現金 -->
<g id="node16" class="node">
<title>現金</title>
<polygon fill="none" stroke="#000000" points="1207.5,-269 1153.5,-269 1153.5,-233 1207.5,-233 1207.5,-269"/>
<text text-anchor="middle" x="1180.5" y="-247.3" font-family="Times,serif" font-size="14.00" fill="#000000">現金</text>
</g>
<!-- 三井住友銀行&#45;&gt;現金 -->
<g id="edge8" class="edge">
<title>三井住友銀行&#45;&gt;現金</title>
<path fill="none" stroke="#000000" stroke-width="2" d="M602.621,-381.0761C666.3187,-361.6085 778.7099,-328.4844 876.5,-306 971.9635,-284.0506 1085.9396,-265.4266 1143.4277,-256.5545"/>
<polygon fill="#000000" stroke="#000000" stroke-width="2" points="1144.1331,-259.9873 1153.4875,-255.0127 1143.0726,-253.0681 1144.1331,-259.9873"/>
</g>
<!-- 関西電力 -->
<g id="node42" class="node">
<title>関西電力</title>
<polygon fill="none" stroke="#000000" points="563.5,-36 489.5,-36 489.5,0 563.5,0 563.5,-36"/>
<text text-anchor="middle" x="526.5" y="-14.3" font-family="Times,serif" font-size="14.00" fill="#000000">関西電力</text>
</g>
<!-- 三井住友銀行&#45;&gt;関西電力 -->
<g id="edge10" class="edge">
<title>三井住友銀行&#45;&gt;関西電力</title>
<path fill="none" stroke="#000000" stroke-width="2" d="M541.6193,-378.9818C534.6314,-364.5518 526.5,-343.5585 526.5,-324 526.5,-324 526.5,-324 526.5,-91 526.5,-76.2996 526.5,-59.934 526.5,-46.4302"/>
<polygon fill="#000000" stroke="#000000" stroke-width="2" points="530.0001,-46.3003 526.5,-36.3003 523.0001,-46.3004 530.0001,-46.3003"/>
</g>
<!-- ビックカメラSuicaカード -->
<g id="node12" class="node">
<title>ビックカメラSuicaカード</title>
<polygon fill="none" stroke="#000000" points="1070,-342 885,-342 885,-306 1070,-306 1070,-342"/>
<text text-anchor="middle" x="977.5" y="-320.3" font-family="Times,serif" font-size="14.00" fill="#000000">ビックカメラSuicaカード</text>
</g>
<!-- 住信SBI銀行&#45;&gt;ビックカメラSuicaカード -->
<g id="edge32" class="edge">
<title>住信SBI銀行&#45;&gt;ビックカメラSuicaカード</title>
<path fill="none" stroke="#000000" stroke-width="2" d="M1130.3202,-378.9551C1102.261,-368.8648 1067.1009,-356.221 1037.5821,-345.6059"/>
<polygon fill="#000000" stroke="#000000" stroke-width="2" points="1038.4005,-342.1808 1027.8061,-342.0904 1036.0317,-348.7679 1038.4005,-342.1808"/>
</g>
<!-- リクルートカード -->
<g id="node13" class="node">
<title>リクルートカード</title>
<polygon fill="none" stroke="#000000" points="2535,-342 2404,-342 2404,-306 2535,-306 2535,-342"/>
<text text-anchor="middle" x="2469.5" y="-320.3" font-family="Times,serif" font-size="14.00" fill="#000000">リクルートカード</text>
</g>
<!-- 住信SBI銀行&#45;&gt;リクルートカード -->
<g id="edge33" class="edge">
<title>住信SBI銀行&#45;&gt;リクルートカード</title>
<path fill="none" stroke="#000000" stroke-width="2" d="M1230.6347,-394.1607C1428.405,-382.9604 2155.2454,-341.7972 2393.3927,-328.3102"/>
<polygon fill="#000000" stroke="#000000" stroke-width="2" points="2393.9004,-331.7871 2403.6864,-327.7272 2393.5045,-324.7983 2393.9004,-331.7871"/>
</g>
<!-- 住信SBI銀行&#45;&gt;現金 -->
<g id="edge30" class="edge">
<title>住信SBI銀行&#45;&gt;現金</title>
<path fill="none" stroke="#000000" stroke-width="2" d="M1180.5,-378.8042C1180.5,-353.8868 1180.5,-308.8938 1180.5,-279.4877"/>
<polygon fill="#000000" stroke="#000000" stroke-width="2" points="1184.0001,-279.4251 1180.5,-269.4251 1177.0001,-279.4251 1184.0001,-279.4251"/>
</g>
<!-- 家賃 -->
<g id="node32" class="node">
<title>家賃</title>
<polygon fill="none" stroke="#000000" points="2962.5,-36 2908.5,-36 2908.5,0 2962.5,0 2962.5,-36"/>
<text text-anchor="middle" x="2935.5" y="-14.3" font-family="Times,serif" font-size="14.00" fill="#000000">家賃</text>
</g>
<!-- 住信SBI銀行&#45;&gt;家賃 -->
<g id="edge31" class="edge">
<title>住信SBI銀行&#45;&gt;家賃</title>
<path fill="none" stroke="#000000" stroke-width="2" d="M1230.6629,-396.2577C1517.3414,-391.8553 2935.5,-367.8605 2935.5,-324 2935.5,-324 2935.5,-324 2935.5,-91 2935.5,-76.2996 2935.5,-59.934 2935.5,-46.4302"/>
<polygon fill="#000000" stroke="#000000" stroke-width="2" points="2939.0001,-46.3003 2935.5,-36.3003 2932.0001,-46.3004 2939.0001,-46.3003"/>
</g>
<!-- PiTaPa -->
<g id="node15" class="node">
<title>PiTaPa</title>
<polygon fill="none" stroke="#000000" points="233,-269 168,-269 168,-233 233,-233 233,-269"/>
<text text-anchor="middle" x="200.5" y="-247.3" font-family="Times,serif" font-size="14.00" fill="#000000">PiTaPa</text>
</g>
<!-- 三井住友VISAカード&#45;&gt;PiTaPa -->
<g id="edge13" class="edge">
<title>三井住友VISAカード&#45;&gt;PiTaPa</title>
<path fill="none" stroke="#000000" stroke-width="2" d="M281.6498,-305.9474C270.2529,-300.6703 258.1827,-294.5446 247.5,-288 241.4315,-284.2822 235.2438,-279.9034 229.4358,-275.4838"/>
<polygon fill="#000000" stroke="#000000" stroke-width="2" points="231.2803,-272.4818 221.256,-269.0519 226.9534,-277.9844 231.2803,-272.4818"/>
</g>
<!-- iD -->
<g id="node17" class="node">
<title>iD</title>
<polygon fill="none" stroke="#000000" points="352.5,-269 298.5,-269 298.5,-233 352.5,-233 352.5,-269"/>
<text text-anchor="middle" x="325.5" y="-247.3" font-family="Times,serif" font-size="14.00" fill="#000000">iD</text>
</g>
<!-- 三井住友VISAカード&#45;&gt;iD -->
<g id="edge17" class="edge">
<title>三井住友VISAカード&#45;&gt;iD</title>
<path fill="none" stroke="#000000" stroke-width="2" stroke-dasharray="5,2" d="M325.5,-305.9551C325.5,-297.8828 325.5,-288.1764 325.5,-279.1817"/>
<polygon fill="#000000" stroke="#000000" stroke-width="2" points="329.0001,-279.0903 325.5,-269.0904 322.0001,-279.0904 329.0001,-279.0903"/>
</g>
<!-- ワールドプレゼントポイント -->
<g id="node22" class="node">
<title>ワールドプレゼントポイント</title>
<polygon fill="none" stroke="#000000" points="498.5,-182 296.5,-182 296.5,-146 498.5,-146 498.5,-182"/>
<text text-anchor="middle" x="397.5" y="-160.3" font-family="Times,serif" font-size="14.00" fill="#000000">ワールドプレゼントポイント</text>
</g>
<!-- 三井住友VISAカード&#45;&gt;ワールドプレゼントポイント -->
<g id="edge12" class="edge">
<title>三井住友VISAカード&#45;&gt;ワールドプレゼントポイント</title>
<path fill="none" stroke="#000000" stroke-dasharray="5,2" d="M339.0339,-305.8483C346.362,-295.4424 355.1817,-281.9169 361.5,-269 373.7979,-243.8587 383.7288,-213.4492 390.0203,-191.8408"/>
<polygon fill="#000000" stroke="#000000" points="393.4494,-192.5772 392.8109,-182.0017 386.715,-190.6672 393.4494,-192.5772"/>
<text text-anchor="middle" x="396" y="-247.3" font-family="Times,serif" font-size="14.00" fill="#000000">0.5%</text>
</g>
<!-- Suica -->
<g id="node14" class="node">
<title>Suica</title>
<polygon fill="none" stroke="#000000" points="922.5,-269 866.5,-269 866.5,-233 922.5,-233 922.5,-269"/>
<text text-anchor="middle" x="894.5" y="-247.3" font-family="Times,serif" font-size="14.00" fill="#000000">Suica</text>
</g>
<!-- ビックカメラSuicaカード&#45;&gt;Suica -->
<g id="edge23" class="edge">
<title>ビックカメラSuicaカード&#45;&gt;Suica</title>
<path fill="none" stroke="#000000" stroke-width="2" d="M956.9831,-305.9551C946.608,-296.8299 933.8584,-285.6165 922.5877,-275.7036"/>
<polygon fill="#000000" stroke="#000000" stroke-width="2" points="924.8889,-273.0665 915.0685,-269.0904 920.2659,-278.3228 924.8889,-273.0665"/>
</g>
<!-- ビューサンクスポイント -->
<g id="node23" class="node">
<title>ビューサンクスポイント</title>
<polygon fill="none" stroke="#000000" points="1096,-182 923,-182 923,-146 1096,-146 1096,-182"/>
<text text-anchor="middle" x="1009.5" y="-160.3" font-family="Times,serif" font-size="14.00" fill="#000000">ビューサンクスポイント</text>
</g>
<!-- ビックカメラSuicaカード&#45;&gt;ビューサンクスポイント -->
<g id="edge18" class="edge">
<title>ビックカメラSuicaカード&#45;&gt;ビューサンクスポイント</title>
<path fill="none" stroke="#000000" d="M1070.0853,-314.544C1129.1937,-306.3772 1198.0707,-292.152 1216.5,-269 1254.1312,-221.7254 1176.661,-193.8077 1106.0158,-178.79"/>
<polygon fill="#000000" stroke="#000000" points="1106.605,-175.3381 1096.1055,-176.7559 1105.1975,-182.1951 1106.605,-175.3381"/>
<text text-anchor="middle" x="1244" y="-247.3" font-family="Times,serif" font-size="14.00" fill="#000000">0.5%</text>
</g>
<!-- ビックポイント -->
<g id="node25" class="node">
<title>ビックポイント</title>
<polygon fill="none" stroke="#000000" points="670.5,-182 554.5,-182 554.5,-146 670.5,-146 670.5,-182"/>
<text text-anchor="middle" x="612.5" y="-160.3" font-family="Times,serif" font-size="14.00" fill="#000000">ビックポイント</text>
</g>
<!-- ビックカメラSuicaカード&#45;&gt;ビックポイント -->
<g id="edge21" class="edge">
<title>ビックカメラSuicaカード&#45;&gt;ビックポイント</title>
<path fill="none" stroke="#000000" d="M884.7734,-316.1702C813.327,-309.4724 720.8115,-299.1659 684.5,-288 666.8306,-282.5666 659.5367,-283.0302 647.5,-269 628.9222,-247.3455 620.1206,-215.4869 616.0044,-192.5463"/>
<polygon fill="#000000" stroke="#000000" points="619.4161,-191.7158 614.3811,-182.3939 612.5039,-192.8211 619.4161,-191.7158"/>
<text text-anchor="middle" x="666" y="-247.3" font-family="Times,serif" font-size="14.00" fill="#000000">0.5%</text>
</g>
<!-- ビックカメラ -->
<g id="node45" class="node">
<title>ビックカメラ</title>
<polygon fill="none" stroke="#000000" points="749.5,-36 647.5,-36 647.5,0 749.5,0 749.5,-36"/>
<text text-anchor="middle" x="698.5" y="-14.3" font-family="Times,serif" font-size="14.00" fill="#000000">ビックカメラ</text>
</g>
<!-- ビックカメラSuicaカード&#45;&gt;ビックカメラ -->
<g id="edge19" class="edge">
<title>ビックカメラSuicaカード&#45;&gt;ビックカメラ</title>
<path fill="none" stroke="#000000" stroke-width="2" stroke-dasharray="5,2" d="M884.9846,-317.3661C803.7702,-308.9141 698.5,-290.366 698.5,-251 698.5,-251 698.5,-251 698.5,-91 698.5,-76.2996 698.5,-59.934 698.5,-46.4302"/>
<polygon fill="#000000" stroke="#000000" stroke-width="2" points="702.0001,-46.3003 698.5,-36.3003 695.0001,-46.3004 702.0001,-46.3003"/>
</g>
<!-- EX予約 -->
<g id="node55" class="node">
<title>EX予約</title>
<polygon fill="none" stroke="#000000" points="1451.5,-36 1385.5,-36 1385.5,0 1451.5,0 1451.5,-36"/>
<text text-anchor="middle" x="1418.5" y="-14.3" font-family="Times,serif" font-size="14.00" fill="#000000">EX予約</text>
</g>
<!-- ビックカメラSuicaカード&#45;&gt;EX予約 -->
<g id="edge26" class="edge">
<title>ビックカメラSuicaカード&#45;&gt;EX予約</title>
<path fill="none" stroke="#000000" stroke-width="2" stroke-dasharray="5,2" d="M1070.0647,-314.1154C1141.9714,-305.0311 1234.6473,-289.814 1266.5,-269 1343.9097,-218.4169 1359.3056,-192.2786 1399.5,-109 1409.0002,-89.3166 1413.7661,-64.9932 1416.1482,-46.4468"/>
<polygon fill="#000000" stroke="#000000" stroke-width="2" points="1419.6527,-46.6021 1417.2929,-36.2734 1412.6966,-45.8193 1419.6527,-46.6021"/>
</g>
<!-- nanaco -->
<g id="node18" class="node">
<title>nanaco</title>
<polygon fill="none" stroke="#000000" points="1711.5,-269 1643.5,-269 1643.5,-233 1711.5,-233 1711.5,-269"/>
<text text-anchor="middle" x="1677.5" y="-247.3" font-family="Times,serif" font-size="14.00" fill="#000000">nanaco</text>
</g>
<!-- リクルートカード&#45;&gt;nanaco -->
<g id="edge56" class="edge">
<title>リクルートカード&#45;&gt;nanaco</title>
<path fill="none" stroke="#000000" stroke-width="2" d="M2403.6755,-317.9328C2246.8247,-303.4756 1854.2539,-267.2917 1721.881,-255.0907"/>
<polygon fill="#000000" stroke="#000000" stroke-width="2" points="1721.988,-251.5858 1711.7089,-254.1531 1721.3454,-258.5562 1721.988,-251.5858"/>
</g>
<!-- Edy -->
<g id="node19" class="node">
<title>Edy</title>
<polygon fill="none" stroke="#000000" points="2135.5,-269 2081.5,-269 2081.5,-233 2135.5,-233 2135.5,-269"/>
<text text-anchor="middle" x="2108.5" y="-247.3" font-family="Times,serif" font-size="14.00" fill="#000000">Edy</text>
</g>
<!-- リクルートカード&#45;&gt;Edy -->
<g id="edge41" class="edge">
<title>リクルートカード&#45;&gt;Edy</title>
<path fill="none" stroke="#000000" stroke-width="2" d="M2403.9077,-319.5859C2349.3311,-314.8631 2269.9477,-305.5464 2202.5,-288 2183.2036,-282.9801 2162.5075,-275.1217 2145.4605,-267.936"/>
<polygon fill="#000000" stroke="#000000" stroke-width="2" points="2146.452,-264.5522 2135.8833,-263.8094 2143.6821,-270.9808 2146.452,-264.5522"/>
</g>
<!-- Ponta -->
<g id="node20" class="node">
<title>Ponta</title>
<polygon fill="none" stroke="#000000" points="2243,-182 2186,-182 2186,-146 2243,-146 2243,-182"/>
<text text-anchor="middle" x="2214.5" y="-160.3" font-family="Times,serif" font-size="14.00" fill="#000000">Ponta</text>
</g>
<!-- リクルートカード&#45;&gt;Ponta -->
<g id="edge51" class="edge">
<title>リクルートカード&#45;&gt;Ponta</title>
<path fill="none" stroke="#000000" d="M2403.7563,-318.4248C2340.1671,-311.4464 2250.5521,-296.8628 2230.5,-269 2221.8945,-257.0424 2217.7981,-219.1046 2215.9346,-192.2776"/>
<polygon fill="#000000" stroke="#000000" points="2219.426,-192.029 2215.3052,-182.2684 2212.4398,-192.4684 2219.426,-192.029"/>
<text text-anchor="middle" x="2249" y="-247.3" font-family="Times,serif" font-size="14.00" fill="#000000">1.2%</text>
</g>
<!-- NHK -->
<g id="node39" class="node">
<title>NHK</title>
<polygon fill="none" stroke="#000000" points="2500.5,-36 2446.5,-36 2446.5,0 2500.5,0 2500.5,-36"/>
<text text-anchor="middle" x="2473.5" y="-14.3" font-family="Times,serif" font-size="14.00" fill="#000000">NHK</text>
</g>
<!-- リクルートカード&#45;&gt;NHK -->
<g id="edge34" class="edge">
<title>リクルートカード&#45;&gt;NHK</title>
<path fill="none" stroke="#000000" stroke-width="2" d="M2485.1754,-305.8293C2495.643,-291.8153 2507.5,-271.4317 2507.5,-251 2507.5,-251 2507.5,-251 2507.5,-91 2507.5,-74.6424 2500.3982,-57.9887 2492.686,-44.7261"/>
<polygon fill="#000000" stroke="#000000" stroke-width="2" points="2495.589,-42.7667 2487.3291,-36.1315 2489.6484,-46.4694 2495.589,-42.7667"/>
</g>
<!-- NTT -->
<g id="node40" class="node">
<title>NTT</title>
<polygon fill="none" stroke="#000000" points="2572.5,-36 2518.5,-36 2518.5,0 2572.5,0 2572.5,-36"/>
<text text-anchor="middle" x="2545.5" y="-14.3" font-family="Times,serif" font-size="14.00" fill="#000000">NTT</text>
</g>
<!-- リクルートカード&#45;&gt;NTT -->
<g id="edge35" class="edge">
<title>リクルートカード&#45;&gt;NTT</title>
<path fill="none" stroke="#000000" stroke-width="2" d="M2506.1643,-305.9253C2525.5989,-293.5205 2545.5,-274.9667 2545.5,-251 2545.5,-251 2545.5,-251 2545.5,-91 2545.5,-76.2996 2545.5,-59.934 2545.5,-46.4302"/>
<polygon fill="#000000" stroke="#000000" stroke-width="2" points="2549.0001,-46.3003 2545.5,-36.3003 2542.0001,-46.3004 2549.0001,-46.3003"/>
</g>
<!-- ASAHIネット -->
<g id="node41" class="node">
<title>ASAHIネット</title>
<polygon fill="none" stroke="#000000" points="2700,-36 2591,-36 2591,0 2700,0 2700,-36"/>
<text text-anchor="middle" x="2645.5" y="-14.3" font-family="Times,serif" font-size="14.00" fill="#000000">ASAHIネット</text>
</g>
<!-- リクルートカード&#45;&gt;ASAHIネット -->
<g id="edge36" class="edge">
<title>リクルートカード&#45;&gt;ASAHIネット</title>
<path fill="none" stroke="#000000" stroke-width="2" d="M2535.0359,-309.5782C2585.0752,-296.6081 2645.5,-275.8097 2645.5,-251 2645.5,-251 2645.5,-251 2645.5,-91 2645.5,-76.2996 2645.5,-59.934 2645.5,-46.4302"/>
<polygon fill="#000000" stroke="#000000" stroke-width="2" points="2649.0001,-46.3003 2645.5,-36.3003 2642.0001,-46.3004 2649.0001,-46.3003"/>
</g>
<!-- アイハート -->
<g id="node43" class="node">
<title>アイハート</title>
<polygon fill="none" stroke="#000000" points="2806.5,-36 2718.5,-36 2718.5,0 2806.5,0 2806.5,-36"/>
<text text-anchor="middle" x="2762.5" y="-14.3" font-family="Times,serif" font-size="14.00" fill="#000000">アイハート</text>
</g>
<!-- リクルートカード&#45;&gt;アイハート -->
<g id="edge40" class="edge">
<title>リクルートカード&#45;&gt;アイハート</title>
<path fill="none" stroke="#000000" stroke-width="2" d="M2535.2549,-320.7415C2621.6411,-314.6278 2762.5,-297.5255 2762.5,-251 2762.5,-251 2762.5,-251 2762.5,-91 2762.5,-76.2996 2762.5,-59.934 2762.5,-46.4302"/>
<polygon fill="#000000" stroke="#000000" stroke-width="2" points="2766.0001,-46.3003 2762.5,-36.3003 2759.0001,-46.3004 2766.0001,-46.3003"/>
</g>
<!-- Amazon -->
<g id="node53" class="node">
<title>Amazon</title>
<polygon fill="none" stroke="#000000" points="2428.5,-36 2354.5,-36 2354.5,0 2428.5,0 2428.5,-36"/>
<text text-anchor="middle" x="2391.5" y="-14.3" font-family="Times,serif" font-size="14.00" fill="#000000">Amazon</text>
</g>
<!-- リクルートカード&#45;&gt;Amazon -->
<g id="edge38" class="edge">
<title>リクルートカード&#45;&gt;Amazon</title>
<path fill="none" stroke="#000000" stroke-width="2" d="M2469.5,-305.6997C2469.5,-290.9349 2469.5,-269.6302 2469.5,-251 2469.5,-251 2469.5,-251 2469.5,-91 2469.5,-69.9606 2454.1846,-53.2333 2437.1268,-41.1277"/>
<polygon fill="#000000" stroke="#000000" stroke-width="2" points="2438.9486,-38.1367 2428.6725,-35.5576 2435.0974,-43.9821 2438.9486,-38.1367"/>
</g>
<!-- iTunes -->
<g id="node54" class="node">
<title>iTunes</title>
<polygon fill="none" stroke="#000000" points="2890,-36 2825,-36 2825,0 2890,0 2890,-36"/>
<text text-anchor="middle" x="2857.5" y="-14.3" font-family="Times,serif" font-size="14.00" fill="#000000">iTunes</text>
</g>
<!-- リクルートカード&#45;&gt;iTunes -->
<g id="edge37" class="edge">
<title>リクルートカード&#45;&gt;iTunes</title>
<path fill="none" stroke="#000000" stroke-width="2" stroke-dasharray="5,2" d="M2535.3189,-318.2717C2646.017,-307.7417 2857.5,-283.3866 2857.5,-251 2857.5,-251 2857.5,-251 2857.5,-91 2857.5,-76.2996 2857.5,-59.934 2857.5,-46.4302"/>
<polygon fill="#000000" stroke="#000000" stroke-width="2" points="2861.0001,-46.3003 2857.5,-36.3003 2854.0001,-46.3004 2861.0001,-46.3003"/>
</g>
<!-- じゃらん -->
<g id="node56" class="node">
<title>じゃらん</title>
<polygon fill="none" stroke="#000000" points="2336.5,-36 2262.5,-36 2262.5,0 2336.5,0 2336.5,-36"/>
<text text-anchor="middle" x="2299.5" y="-14.3" font-family="Times,serif" font-size="14.00" fill="#000000">じゃらん</text>
</g>
<!-- リクルートカード&#45;&gt;じゃらん -->
<g id="edge39" class="edge">
<title>リクルートカード&#45;&gt;じゃらん</title>
<path fill="none" stroke="#000000" stroke-width="2" d="M2403.7467,-311.3081C2349.533,-298.9009 2281.5,-277.9601 2281.5,-251 2281.5,-251 2281.5,-251 2281.5,-91 2281.5,-75.8134 2285.2177,-59.353 2289.274,-45.9132"/>
<polygon fill="#000000" stroke="#000000" stroke-width="2" points="2292.6374,-46.8875 2292.3859,-36.2956 2285.9773,-44.7325 2292.6374,-46.8875"/>
</g>
<!-- Suica&#45;&gt;ビューサンクスポイント -->
<g id="edge29" class="edge">
<title>Suica&#45;&gt;ビューサンクスポイント</title>
<path fill="none" stroke="#000000" d="M918.3281,-232.9735C935.5207,-219.9669 958.9145,-202.269 977.7003,-188.0571"/>
<polygon fill="#000000" stroke="#000000" points="979.8391,-190.8279 985.7025,-182.0034 975.6158,-185.2454 979.8391,-190.8279"/>
<text text-anchor="middle" x="970" y="-203.8" font-family="Times,serif" font-size="14.00" fill="#000000">1%</text>
</g>
<!-- JREポイント -->
<g id="node24" class="node">
<title>JREポイント</title>
<polygon fill="none" stroke="#000000" points="828,-182 727,-182 727,-146 828,-146 828,-182"/>
<text text-anchor="middle" x="777.5" y="-160.3" font-family="Times,serif" font-size="14.00" fill="#000000">JREポイント</text>
</g>
<!-- Suica&#45;&gt;JREポイント -->
<g id="edge27" class="edge">
<title>Suica&#45;&gt;JREポイント</title>
<path fill="none" stroke="#000000" d="M866.1628,-244.8441C847.2121,-239.5469 822.6929,-230.2794 805.5,-215 798.2589,-208.5648 792.5136,-199.7935 788.1595,-191.3395"/>
<polygon fill="#000000" stroke="#000000" points="791.2331,-189.6494 783.8292,-182.071 784.8911,-192.6125 791.2331,-189.6494"/>
<text text-anchor="middle" x="824" y="-203.8" font-family="Times,serif" font-size="14.00" fill="#000000">0.5%</text>
</g>
<!-- 電車 -->
<g id="node36" class="node">
<title>電車</title>
<polygon fill="none" stroke="#000000" points="1010.5,-36 956.5,-36 956.5,0 1010.5,0 1010.5,-36"/>
<text text-anchor="middle" x="983.5" y="-14.3" font-family="Times,serif" font-size="14.00" fill="#000000">電車</text>
</g>
<!-- Suica&#45;&gt;電車 -->
<g id="edge24" class="edge">
<title>Suica&#45;&gt;電車</title>
<path fill="none" stroke="#000000" stroke-width="2" d="M896.2659,-232.7223C898.7125,-211.4166 904.0647,-175.3773 914.5,-146 927.5953,-109.1344 950.1209,-69.9968 965.8609,-44.8471"/>
<polygon fill="#000000" stroke="#000000" stroke-width="2" points="968.9175,-46.5627 971.3228,-36.2445 963.0079,-42.8106 968.9175,-46.5627"/>
</g>
<!-- 松屋 -->
<g id="node51" class="node">
<title>松屋</title>
<polygon fill="none" stroke="#000000" points="883.5,-36 829.5,-36 829.5,0 883.5,0 883.5,-36"/>
<text text-anchor="middle" x="856.5" y="-14.3" font-family="Times,serif" font-size="14.00" fill="#000000">松屋</text>
</g>
<!-- Suica&#45;&gt;松屋 -->
<g id="edge25" class="edge">
<title>Suica&#45;&gt;松屋</title>
<path fill="none" stroke="#000000" stroke-width="2" d="M886.475,-232.9736C884.2336,-227.316 882.0028,-220.9837 880.5,-215 865.7576,-156.3006 859.9469,-85.403 857.7517,-46.6849"/>
<polygon fill="#000000" stroke="#000000" stroke-width="2" points="861.221,-46.0054 857.2022,-36.2024 854.2306,-46.372 861.221,-46.0054"/>
</g>
<!-- 大阪地下鉄 -->
<g id="node37" class="node">
<title>大阪地下鉄</title>
<polygon fill="none" stroke="#000000" points="290.5,-36 202.5,-36 202.5,0 290.5,0 290.5,-36"/>
<text text-anchor="middle" x="246.5" y="-14.3" font-family="Times,serif" font-size="14.00" fill="#000000">大阪地下鉄</text>
</g>
<!-- PiTaPa&#45;&gt;大阪地下鉄 -->
<g id="edge14" class="edge">
<title>PiTaPa&#45;&gt;大阪地下鉄</title>
<path fill="none" stroke="#000000" stroke-width="2" d="M202.1666,-232.8028C205.6609,-197.727 214.9231,-118.5226 232.5,-54 233.2601,-51.2097 234.1614,-48.3379 235.1348,-45.4913"/>
<polygon fill="#000000" stroke="#000000" stroke-width="2" points="238.435,-46.6579 238.6212,-36.0647 231.8696,-44.2297 238.435,-46.6579"/>
</g>
<!-- 山陽バス -->
<g id="node38" class="node">
<title>山陽バス</title>
<polygon fill="none" stroke="#000000" points="184.5,-36 110.5,-36 110.5,0 184.5,0 184.5,-36"/>
<text text-anchor="middle" x="147.5" y="-14.3" font-family="Times,serif" font-size="14.00" fill="#000000">山陽バス</text>
</g>
<!-- PiTaPa&#45;&gt;山陽バス -->
<g id="edge16" class="edge">
<title>PiTaPa&#45;&gt;山陽バス</title>
<path fill="none" stroke="#000000" stroke-width="2" stroke-dasharray="5,2" d="M196.3412,-232.7169C187.1109,-192.1385 164.8626,-94.3298 153.8683,-45.9964"/>
<polygon fill="#000000" stroke="#000000" stroke-width="2" points="157.2704,-45.1728 151.6395,-36.1982 150.4448,-46.7254 157.2704,-45.1728"/>
</g>
<!-- 切符 -->
<g id="node30" class="node">
<title>切符</title>
<polygon fill="none" stroke="#000000" points="1152.5,-109 1098.5,-109 1098.5,-73 1152.5,-73 1152.5,-109"/>
<text text-anchor="middle" x="1125.5" y="-87.3" font-family="Times,serif" font-size="14.00" fill="#000000">切符</text>
</g>
<!-- 現金&#45;&gt;切符 -->
<g id="edge70" class="edge">
<title>現金&#45;&gt;切符</title>
<path fill="none" stroke="#000000" stroke-width="2" d="M1164.6122,-232.7545C1161.9823,-227.088 1159.5871,-220.8057 1157.5,-215 1145.7543,-182.3275 1133.391,-144.3764 1127.2773,-119.1509"/>
<polygon fill="#000000" stroke="#000000" stroke-width="2" points="1130.6457,-118.1743 1125.0598,-109.1716 1123.8124,-119.6928 1130.6457,-118.1743"/>
</g>
<!-- ぐるなびギフト券 -->
<g id="node31" class="node">
<title>ぐるなびギフト券</title>
<polygon fill="none" stroke="#000000" points="1390,-109 1259,-109 1259,-73 1390,-73 1390,-109"/>
<text text-anchor="middle" x="1324.5" y="-87.3" font-family="Times,serif" font-size="14.00" fill="#000000">ぐるなびギフト券</text>
</g>
<!-- 現金&#45;&gt;ぐるなびギフト券 -->
<g id="edge64" class="edge">
<title>現金&#45;&gt;ぐるなびギフト券</title>
<path fill="none" stroke="#000000" stroke-width="2" d="M1204.9387,-232.8221C1219.7026,-223.9036 1235.4539,-215.0433 1235.5,-215 1265.372,-186.8849 1289.173,-145.4294 1305.0134,-118.3208"/>
<polygon fill="#000000" stroke="#000000" stroke-width="2" points="1308.2225,-119.7687 1310.2813,-109.3758 1302.1908,-116.2165 1308.2225,-119.7687"/>
</g>
<!-- 飲食店 -->
<g id="node48" class="node">
<title>飲食店</title>
<polygon fill="none" stroke="#000000" points="1143,-36 1084,-36 1084,0 1143,0 1143,-36"/>
<text text-anchor="middle" x="1113.5" y="-14.3" font-family="Times,serif" font-size="14.00" fill="#000000">飲食店</text>
</g>
<!-- 現金&#45;&gt;飲食店 -->
<g id="edge67" class="edge">
<title>現金&#45;&gt;飲食店</title>
<path fill="none" stroke="#000000" stroke-width="2" d="M1182.044,-232.9213C1184.1456,-199.7067 1185.2669,-127.3939 1161.5,-73 1156.8379,-62.3302 1149.3398,-52.2349 1141.6417,-43.676"/>
<polygon fill="#000000" stroke="#000000" stroke-width="2" points="1144.0232,-41.1016 1134.5914,-36.2754 1138.9549,-45.9299 1144.0232,-41.1016"/>
</g>
<!-- FRESCO -->
<g id="node49" class="node">
<title>FRESCO</title>
<polygon fill="none" stroke="#000000" points="3060.5,-36 2980.5,-36 2980.5,0 3060.5,0 3060.5,-36"/>
<text text-anchor="middle" x="3020.5" y="-14.3" font-family="Times,serif" font-size="14.00" fill="#000000">FRESCO</text>
</g>
<!-- 現金&#45;&gt;FRESCO -->
<g id="edge61" class="edge">
<title>現金&#45;&gt;FRESCO</title>
<path fill="none" stroke="#000000" stroke-width="2" d="M1207.7039,-234.571C1209.2961,-233.9661 1210.9006,-233.4343 1212.5,-233 1320.0666,-203.789 2104.3829,-223.7662 2215.5,-215 2320.6425,-206.7051 2347.0538,-202.5583 2450.5,-182 2544.599,-163.2993 2567.0313,-153.571 2659.5,-128 2795.7101,-90.3329 2832.5992,-81.7717 2970.7759,-36.1531"/>
<polygon fill="#000000" stroke="#000000" stroke-width="2" points="2972.0683,-39.4122 2980.4634,-32.9491 2969.8702,-32.7663 2972.0683,-39.4122"/>
</g>
<!-- 吉野家 -->
<g id="node52" class="node">
<title>吉野家</title>
<polygon fill="none" stroke="#000000" points="1327,-36 1268,-36 1268,0 1327,0 1327,-36"/>
<text text-anchor="middle" x="1297.5" y="-14.3" font-family="Times,serif" font-size="14.00" fill="#000000">吉野家</text>
</g>
<!-- 現金&#45;&gt;吉野家 -->
<g id="edge68" class="edge">
<title>現金&#45;&gt;吉野家</title>
<path fill="none" stroke="#000000" stroke-width="2" d="M1188.8349,-232.7695C1191.3625,-227.1036 1194.103,-220.8179 1196.5,-215 1222.221,-152.5705 1216.0602,-131.0768 1250.5,-73 1256.5822,-62.7435 1264.6171,-52.5301 1272.3199,-43.7384"/>
<polygon fill="#000000" stroke="#000000" stroke-width="2" points="1275.116,-45.8651 1279.235,-36.1037 1269.9277,-41.1658 1275.116,-45.8651"/>
</g>
<!-- nanacoポイント -->
<g id="node27" class="node">
<title>nanacoポイント</title>
<polygon fill="none" stroke="#000000" points="1649,-182 1524,-182 1524,-146 1649,-146 1649,-182"/>
<text text-anchor="middle" x="1586.5" y="-160.3" font-family="Times,serif" font-size="14.00" fill="#000000">nanacoポイント</text>
</g>
<!-- nanaco&#45;&gt;nanacoポイント -->
<g id="edge58" class="edge">
<title>nanaco&#45;&gt;nanacoポイント</title>
<path fill="none" stroke="#000000" d="M1643.171,-238.7198C1630.9916,-233.0155 1617.9719,-225.1963 1608.5,-215 1602.4344,-208.4705 1597.881,-200.0084 1594.5386,-191.8601"/>
<polygon fill="#000000" stroke="#000000" points="1597.7441,-190.4332 1591.0418,-182.2277 1591.1642,-192.8219 1597.7441,-190.4332"/>
<text text-anchor="middle" x="1620" y="-203.8" font-family="Times,serif" font-size="14.00" fill="#000000">1%</text>
</g>
<!-- セブンイレブン -->
<g id="node34" class="node">
<title>セブンイレブン</title>
<polygon fill="none" stroke="#000000" points="1642.5,-36 1526.5,-36 1526.5,0 1642.5,0 1642.5,-36"/>
<text text-anchor="middle" x="1584.5" y="-14.3" font-family="Times,serif" font-size="14.00" fill="#000000">セブンイレブン</text>
</g>
<!-- nanaco&#45;&gt;セブンイレブン -->
<g id="edge57" class="edge">
<title>nanaco&#45;&gt;セブンイレブン</title>
<path fill="none" stroke="#000000" stroke-width="2" d="M1677.0712,-232.7973C1675.5403,-199.0693 1668.6978,-125.52 1638.5,-73 1632.1946,-62.0337 1623.1828,-51.6668 1614.323,-42.9519"/>
<polygon fill="#000000" stroke="#000000" stroke-width="2" points="1616.661,-40.346 1606.9793,-36.043 1611.8645,-45.4444 1616.661,-40.346"/>
</g>
<!-- Edy&#45;&gt;Ponta -->
<g id="edge50" class="edge">
<title>Edy&#45;&gt;Ponta</title>
<path fill="none" stroke="#000000" d="M2134.0317,-232.9568C2141.6937,-227.3521 2150.0413,-221.0534 2157.5,-215 2167.5687,-206.8283 2178.2502,-197.4697 2187.6118,-189.0188"/>
<polygon fill="#000000" stroke="#000000" points="2190.0852,-191.5002 2195.1226,-182.1795 2185.3722,-186.3244 2190.0852,-191.5002"/>
<text text-anchor="middle" x="2193" y="-203.8" font-family="Times,serif" font-size="14.00" fill="#000000">0.5%</text>
</g>
<!-- ローソン -->
<g id="node33" class="node">
<title>ローソン</title>
<polygon fill="none" stroke="#000000" points="2244.5,-36 2170.5,-36 2170.5,0 2244.5,0 2244.5,-36"/>
<text text-anchor="middle" x="2207.5" y="-14.3" font-family="Times,serif" font-size="14.00" fill="#000000">ローソン</text>
</g>
<!-- Edy&#45;&gt;ローソン -->
<g id="edge42" class="edge">
<title>Edy&#45;&gt;ローソン</title>
<path fill="none" stroke="#000000" stroke-width="2" d="M2116.2684,-232.7169C2133.546,-192.0534 2175.2424,-93.9194 2195.7334,-45.693"/>
<polygon fill="#000000" stroke="#000000" stroke-width="2" points="2199.0784,-46.7706 2199.7677,-36.1982 2192.6358,-44.0331 2199.0784,-46.7706"/>
</g>
<!-- ファミリーマート -->
<g id="node35" class="node">
<title>ファミリーマート</title>
<polygon fill="none" stroke="#000000" points="1898,-36 1767,-36 1767,0 1898,0 1898,-36"/>
<text text-anchor="middle" x="1832.5" y="-14.3" font-family="Times,serif" font-size="14.00" fill="#000000">ファミリーマート</text>
</g>
<!-- Edy&#45;&gt;ファミリーマート -->
<g id="edge43" class="edge">
<title>Edy&#45;&gt;ファミリーマート</title>
<path fill="none" stroke="#000000" stroke-width="2" d="M2081.0576,-247.7948C2019.9923,-240.0629 1875.8653,-218.2962 1845.5,-182 1813.6407,-143.918 1819.0556,-81.9316 1825.8129,-46.0664"/>
<polygon fill="#000000" stroke="#000000" stroke-width="2" points="1829.2443,-46.7556 1827.8187,-36.2571 1822.3862,-45.3532 1829.2443,-46.7556"/>
</g>
<!-- ウェルシア -->
<g id="node44" class="node">
<title>ウェルシア</title>
<polygon fill="none" stroke="#000000" points="1748.5,-36 1660.5,-36 1660.5,0 1748.5,0 1748.5,-36"/>
<text text-anchor="middle" x="1704.5" y="-14.3" font-family="Times,serif" font-size="14.00" fill="#000000">ウェルシア</text>
</g>
<!-- Edy&#45;&gt;ウェルシア -->
<g id="edge48" class="edge">
<title>Edy&#45;&gt;ウェルシア</title>
<path fill="none" stroke="#000000" stroke-width="2" d="M2081.3077,-248.5951C2026.7403,-243.5002 1905.8371,-230.7818 1867.5,-215 1839.8605,-203.622 1744.3272,-131.3034 1729.5,-109 1717.0068,-90.2075 1710.7201,-65.2948 1707.5779,-46.2874"/>
<polygon fill="#000000" stroke="#000000" stroke-width="2" points="1711.0051,-45.5332 1706.102,-36.1411 1704.078,-46.5408 1711.0051,-45.5332"/>
</g>
<!-- ヨドバシカメラ -->
<g id="node46" class="node">
<title>ヨドバシカメラ</title>
<polygon fill="none" stroke="#000000" points="2032.5,-36 1916.5,-36 1916.5,0 2032.5,0 2032.5,-36"/>
<text text-anchor="middle" x="1974.5" y="-14.3" font-family="Times,serif" font-size="14.00" fill="#000000">ヨドバシカメラ</text>
</g>
<!-- Edy&#45;&gt;ヨドバシカメラ -->
<g id="edge45" class="edge">
<title>Edy&#45;&gt;ヨドバシカメラ</title>
<path fill="none" stroke="#000000" stroke-width="2" d="M2098.8572,-232.6548C2087.7125,-211.591 2068.6951,-176.0699 2051.5,-146 2031.3209,-110.7119 2006.9847,-70.6485 1991.1477,-44.8879"/>
<polygon fill="#000000" stroke="#000000" stroke-width="2" points="1993.9463,-42.7576 1985.721,-36.0796 1987.9865,-46.4294 1993.9463,-42.7576"/>
</g>
<!-- 業務スーパー -->
<g id="node50" class="node">
<title>業務スーパー</title>
<polygon fill="none" stroke="#000000" points="2152.5,-36 2050.5,-36 2050.5,0 2152.5,0 2152.5,-36"/>
<text text-anchor="middle" x="2101.5" y="-14.3" font-family="Times,serif" font-size="14.00" fill="#000000">業務スーパー</text>
</g>
<!-- Edy&#45;&gt;業務スーパー -->
<g id="edge60" class="edge">
<title>Edy&#45;&gt;業務スーパー</title>
<path fill="none" stroke="#000000" stroke-width="2" d="M2107.9507,-232.7169C2106.7342,-192.2236 2103.8055,-94.7396 2102.3502,-46.301"/>
<polygon fill="#000000" stroke="#000000" stroke-width="2" points="2105.8455,-46.0885 2102.0467,-36.1982 2098.8487,-46.2988 2105.8455,-46.0885"/>
</g>
<!-- Ponta&#45;&gt;じゃらん -->
<g id="edge52" class="edge">
<title>Ponta&#45;&gt;じゃらん</title>
<path fill="none" stroke="#000000" d="M2208.1609,-145.9054C2200.869,-121.4178 2192.7229,-78.0335 2216.5,-54 2219.5525,-50.9146 2235.4419,-43.7824 2252.5141,-36.6732"/>
<polygon fill="#000000" stroke="#000000" points="2254.1299,-39.7931 2262.0464,-32.7518 2251.4667,-33.3195 2254.1299,-39.7931"/>
</g>
<!-- Tポイント -->
<g id="node21" class="node">
<title>Tポイント</title>
<polygon fill="none" stroke="#000000" points="1506,-182 1423,-182 1423,-146 1506,-146 1506,-182"/>
<text text-anchor="middle" x="1464.5" y="-160.3" font-family="Times,serif" font-size="14.00" fill="#000000">Tポイント</text>
</g>
<!-- JREポイント&#45;&gt;Suica -->
<g id="edge28" class="edge">
<title>JREポイント&#45;&gt;Suica</title>
<path fill="none" stroke="#000000" d="M777.1433,-182.0224C777.8694,-192.7935 780.5453,-206.0739 788.5,-215 797.7872,-225.4214 830.0273,-235.4824 856.5371,-242.3062"/>
<polygon fill="#000000" stroke="#000000" points="855.807,-245.7312 866.3569,-244.757 857.5021,-238.9396 855.807,-245.7312"/>
</g>
<!-- ビックポイント&#45;&gt;ビックカメラ -->
<g id="edge22" class="edge">
<title>ビックポイント&#45;&gt;ビックカメラ</title>
<path fill="none" stroke="#000000" d="M611.1731,-145.9206C610.5981,-126.5439 612.1898,-95.5356 625.5,-73 632.7729,-60.6863 643.9725,-50.226 655.4326,-41.8403"/>
<polygon fill="#000000" stroke="#000000" points="657.516,-44.6553 663.771,-36.104 653.5486,-38.8882 657.516,-44.6553"/>
</g>
<!-- Amazonポイント -->
<g id="node26" class="node">
<title>Amazonポイント</title>
<polygon fill="none" stroke="#000000" points="2441,-182 2310,-182 2310,-146 2441,-146 2441,-182"/>
<text text-anchor="middle" x="2375.5" y="-160.3" font-family="Times,serif" font-size="14.00" fill="#000000">Amazonポイント</text>
</g>
<!-- Amazonポイント&#45;&gt;Amazon -->
<g id="edge55" class="edge">
<title>Amazonポイント&#45;&gt;Amazon</title>
<path fill="none" stroke="#000000" d="M2372.8502,-145.8042C2373.0866,-120.8868 2377.7385,-75.8938 2382.8977,-46.4877"/>
<polygon fill="#000000" stroke="#000000" points="2386.3814,-46.9034 2384.8142,-36.4251 2379.505,-45.5937 2386.3814,-46.9034"/>
</g>
<!-- nanacoポイント&#45;&gt;nanaco -->
<g id="edge59" class="edge">
<title>nanacoポイント&#45;&gt;nanaco</title>
<path fill="none" stroke="#000000" d="M1610.9258,-182.3608C1617.7735,-187.8202 1625.093,-193.9613 1631.5,-200 1639.7852,-207.809 1648.2893,-216.8877 1655.6964,-225.2027"/>
<polygon fill="#000000" stroke="#000000" points="1653.196,-227.66 1662.419,-232.8743 1658.4607,-223.0466 1653.196,-227.66"/>
</g>
<!-- FRESCOポイント -->
<g id="node28" class="node">
<title>FRESCOポイント</title>
<polygon fill="none" stroke="#000000" points="3118,-182 2981,-182 2981,-146 3118,-146 3118,-182"/>
<text text-anchor="middle" x="3049.5" y="-160.3" font-family="Times,serif" font-size="14.00" fill="#000000">FRESCOポイント</text>
</g>
<!-- FRESCOポイント&#45;&gt;FRESCO -->
<g id="edge63" class="edge">
<title>FRESCOポイント&#45;&gt;FRESCO</title>
<path fill="none" stroke="#000000" d="M3040.6261,-145.8681C3035.8978,-135.3564 3030.4603,-121.721 3027.5,-109 3022.6891,-88.3265 3020.9963,-64.3718 3020.4757,-46.2305"/>
<polygon fill="#000000" stroke="#000000" points="3023.9715,-45.9628 3020.2877,-36.0291 3016.9727,-46.0919 3023.9715,-45.9628"/>
</g>
<!-- ヨドバシゴールドポイント -->
<g id="node29" class="node">
<title>ヨドバシゴールドポイント</title>
<polygon fill="none" stroke="#000000" points="2042.5,-182 1854.5,-182 1854.5,-146 2042.5,-146 2042.5,-182"/>
<text text-anchor="middle" x="1948.5" y="-160.3" font-family="Times,serif" font-size="14.00" fill="#000000">ヨドバシゴールドポイント</text>
</g>
<!-- ヨドバシゴールドポイント&#45;&gt;ヨドバシカメラ -->
<g id="edge47" class="edge">
<title>ヨドバシゴールドポイント&#45;&gt;ヨドバシカメラ</title>
<path fill="none" stroke="#000000" d="M1961.1146,-145.575C1967.3798,-135.3034 1974.2843,-121.9934 1977.5,-109 1982.6109,-88.3488 1981.5188,-64.26 1979.3332,-46.0559"/>
<polygon fill="#000000" stroke="#000000" points="1982.792,-45.5161 1977.9587,-36.088 1975.8576,-46.4724 1982.792,-45.5161"/>
</g>
<!-- 切符&#45;&gt;現金 -->
<g id="edge72" class="edge">
<title>切符&#45;&gt;現金</title>
<path fill="none" stroke="#000000" d="M1137.3098,-109.1716C1147.8461,-133.4255 1162.0764,-177.66 1175.5,-215 1176.4457,-217.6307 1177.4547,-220.3593 1178.4424,-223.0841"/>
<polygon fill="#000000" stroke="#000000" points="1175.2082,-224.4416 1181.7767,-232.7545 1181.8258,-222.1598 1175.2082,-224.4416"/>
</g>
<!-- 切符&#45;&gt;電車 -->
<g id="edge71" class="edge">
<title>切符&#45;&gt;電車</title>
<path fill="none" stroke="#000000" stroke-width="2" d="M1098.4566,-77.0974C1076.1945,-65.6528 1044.4267,-49.3214 1019.9258,-36.7259"/>
<polygon fill="#000000" stroke="#000000" stroke-width="2" points="1021.4202,-33.5588 1010.9263,-32.0995 1018.2197,-39.7843 1021.4202,-33.5588"/>
</g>
<!-- ぐるなびギフト券&#45;&gt;現金 -->
<g id="edge66" class="edge">
<title>ぐるなびギフト券&#45;&gt;現金</title>
<path fill="none" stroke="#000000" d="M1322.1279,-109.3758C1312.7011,-135.4685 1286.894,-183.57 1253.5,-215 1253.4501,-215.0469 1234.9907,-225.429 1216.5175,-235.0304"/>
<polygon fill="#000000" stroke="#000000" points="1214.8346,-231.9599 1207.5283,-239.6324 1218.0246,-238.1908 1214.8346,-231.9599"/>
</g>
<!-- 餃子の王将 -->
<g id="node47" class="node">
<title>餃子の王将</title>
<polygon fill="none" stroke="#000000" points="1249.5,-36 1161.5,-36 1161.5,0 1249.5,0 1249.5,-36"/>
<text text-anchor="middle" x="1205.5" y="-14.3" font-family="Times,serif" font-size="14.00" fill="#000000">餃子の王将</text>
</g>
<!-- ぐるなびギフト券&#45;&gt;餃子の王将 -->
<g id="edge65" class="edge">
<title>ぐるなびギフト券&#45;&gt;餃子の王将</title>
<path fill="none" stroke="#000000" stroke-width="2" d="M1295.0843,-72.9551C1279.637,-63.479 1260.5184,-51.7508 1243.9155,-41.5658"/>
<polygon fill="#000000" stroke="#000000" stroke-width="2" points="1245.3439,-38.336 1234.9898,-36.0904 1241.6836,-44.3028 1245.3439,-38.336"/>
</g>
<!-- ファミリーマート&#45;&gt;Tポイント -->
<g id="edge44" class="edge">
<title>ファミリーマート&#45;&gt;Tポイント</title>
<path fill="none" stroke="#000000" d="M1798.1197,-36.0065C1759.85,-55.6033 1695.8305,-87.0664 1638.5,-109 1587.994,-128.3227 1571.4959,-128.3319 1515.8619,-145.9858"/>
<polygon fill="#000000" stroke="#000000" points="1514.6365,-142.7035 1506.194,-149.1047 1516.7856,-149.3654 1514.6365,-142.7035"/>
<text text-anchor="middle" x="1738" y="-87.3" font-family="Times,serif" font-size="14.00" fill="#000000">0.5%</text>
</g>
<!-- 大阪地下鉄&#45;&gt;三井住友VISAカード -->
<g id="edge15" class="edge">
<title>大阪地下鉄&#45;&gt;三井住友VISAカード</title>
<path fill="none" stroke="#000000" d="M245.6279,-36.4541C244.598,-67.0801 244.2524,-130.1683 255.5,-182 264.3038,-222.5703 270.4747,-232.1016 289.5,-269 294.4423,-278.5854 300.6414,-288.5886 306.4958,-297.3951"/>
<polygon fill="#000000" stroke="#000000" points="303.6568,-299.4443 312.1762,-305.7428 309.444,-295.5063 303.6568,-299.4443"/>
<text text-anchor="middle" x="271.5" y="-160.3" font-family="Times,serif" font-size="14.00" fill="#000000">10%</text>
</g>
<!-- ウェルシア&#45;&gt;Tポイント -->
<g id="edge49" class="edge">
<title>ウェルシア&#45;&gt;Tポイント</title>
<path fill="none" stroke="#000000" d="M1674.59,-36.1952C1631.2668,-62.5502 1551.0235,-111.3649 1503.2289,-140.4399"/>
<polygon fill="#000000" stroke="#000000" points="1501.1352,-137.6168 1494.4109,-145.8042 1504.7733,-143.5971 1501.1352,-137.6168"/>
<text text-anchor="middle" x="1623" y="-87.3" font-family="Times,serif" font-size="14.00" fill="#000000">1%</text>
</g>
<!-- ビックカメラ&#45;&gt;ビックポイント -->
<g id="edge20" class="edge">
<title>ビックカメラ&#45;&gt;ビックポイント</title>
<path fill="none" stroke="#000000" stroke-dasharray="5,2" d="M678.3676,-36.1042C668.0774,-46.1799 655.9731,-59.4076 647.5,-73 635.1849,-92.7556 626.0003,-117.5488 620.137,-136.265"/>
<polygon fill="#000000" stroke="#000000" points="616.7475,-135.3829 617.2224,-145.9671 623.4515,-137.3969 616.7475,-135.3829"/>
<text text-anchor="middle" x="666" y="-87.3" font-family="Times,serif" font-size="14.00" fill="#000000">9.5%</text>
</g>
<!-- ヨドバシカメラ&#45;&gt;ヨドバシゴールドポイント -->
<g id="edge46" class="edge">
<title>ヨドバシカメラ&#45;&gt;ヨドバシゴールドポイント</title>
<path fill="none" stroke="#000000" d="M1961.8854,-36.425C1955.6202,-46.6966 1948.7157,-60.0066 1945.5,-73 1940.3891,-93.6512 1941.4812,-117.74 1943.6668,-135.9441"/>
<polygon fill="#000000" stroke="#000000" points="1940.208,-136.4839 1945.0413,-145.912 1947.1424,-135.5276 1940.208,-136.4839"/>
<text text-anchor="middle" x="1961.5" y="-87.3" font-family="Times,serif" font-size="14.00" fill="#000000">10%</text>
</g>
<!-- FRESCO&#45;&gt;FRESCOポイント -->
<g id="edge62" class="edge">
<title>FRESCO&#45;&gt;FRESCOポイント</title>
<path fill="none" stroke="#000000" d="M3024.1598,-36.4251C3029.1335,-61.4651 3038.0731,-106.4714 3043.895,-135.7818"/>
<polygon fill="#000000" stroke="#000000" points="3040.5045,-136.6777 3045.8858,-145.8042 3047.3704,-135.3139 3040.5045,-136.6777"/>
<text text-anchor="middle" x="3056" y="-87.3" font-family="Times,serif" font-size="14.00" fill="#000000">0.5%</text>
</g>
<!-- 吉野家&#45;&gt;Tポイント -->
<g id="edge69" class="edge">
<title>吉野家&#45;&gt;Tポイント</title>
<path fill="none" stroke="#000000" d="M1327.4172,-29.7672C1349.0306,-39.252 1378.0699,-54.1079 1399.5,-73 1420.2448,-91.2879 1438.0279,-117.3977 1449.7227,-136.9631"/>
<polygon fill="#000000" stroke="#000000" points="1446.7561,-138.824 1454.8085,-145.7094 1452.8074,-135.3053 1446.7561,-138.824"/>
<text text-anchor="middle" x="1449" y="-87.3" font-family="Times,serif" font-size="14.00" fill="#000000">0.5%</text>
</g>
<!-- Amazon&#45;&gt;Amazonポイント -->
<g id="edge54" class="edge">
<title>Amazon&#45;&gt;Amazonポイント</title>
<path fill="none" stroke="#000000" d="M2394.1475,-36.4251C2393.8841,-61.4651 2389.2172,-106.4714 2384.0549,-135.7818"/>
<polygon fill="#000000" stroke="#000000" points="2380.579,-135.3247 2382.1379,-145.8042 2387.4544,-136.6398 2380.579,-135.3247"/>
</g>
<!-- じゃらん&#45;&gt;Ponta -->
<g id="edge53" class="edge">
<title>じゃらん&#45;&gt;Ponta</title>
<path fill="none" stroke="#000000" d="M2276.8938,-36.146C2265.823,-46.0385 2253.0673,-59.0866 2244.5,-73 2232.5043,-92.4813 2224.739,-117.2948 2220.1209,-136.0887"/>
<polygon fill="#000000" stroke="#000000" points="2216.7092,-135.3075 2217.8721,-145.8384 2223.5301,-136.8808 2216.7092,-135.3075"/>
<text text-anchor="middle" x="2256" y="-87.3" font-family="Times,serif" font-size="14.00" fill="#000000">2%</text>
</g>
</g>
</svg>
