<?xml version="1.0" encoding="UTF-8" standalone="no"?>
<!DOCTYPE svg PUBLIC "-//W3C//DTD SVG 1.1//EN"
 "http://www.w3.org/Graphics/SVG/1.1/DTD/svg11.dtd">
<!-- Generated by graphviz version 2.40.1 (20161225.0304)
 -->
<!-- Title: MoneyFlow Pages: 1 -->
<svg width="1048pt" height="1968pt"
 viewBox="0.00 0.00 1048.00 1968.00" xmlns="http://www.w3.org/2000/svg" xmlns:xlink="http://www.w3.org/1999/xlink">
<g id="graph0" class="graph" transform="scale(1 1) rotate(0) translate(4 1964)">
<title>MoneyFlow</title>
<polygon fill="#ffffff" stroke="transparent" points="-4,4 -4,-1964 1044,-1964 1044,4 -4,4"/>
<!-- 収入 -->
<g id="node1" class="node">
<title>収入</title>
<text text-anchor="middle" x="27" y="-14.3" font-family="Times,serif" font-size="14.00" fill="#000000">収入</text>
</g>
<!-- 銀行口座 -->
<g id="node2" class="node">
<title>銀行口座</title>
<text text-anchor="middle" x="142" y="-14.3" font-family="Times,serif" font-size="14.00" fill="#000000">銀行口座</text>
</g>
<!-- 収入&#45;&gt;銀行口座 -->
<g id="edge1" class="edge">
<title>収入&#45;&gt;銀行口座</title>
<path fill="none" stroke="#000000" d="M54.2534,-18C69.3972,-18 88.4539,-18 104.9357,-18"/>
</g>
<!-- クレジットカード -->
<g id="node3" class="node">
<title>クレジットカード</title>
<text text-anchor="middle" x="322.5" y="-14.3" font-family="Times,serif" font-size="14.00" fill="#000000">クレジットカード</text>
</g>
<!-- 銀行口座&#45;&gt;クレジットカード -->
<g id="edge2" class="edge">
<title>銀行口座&#45;&gt;クレジットカード</title>
<path fill="none" stroke="#000000" d="M179.3997,-18C201.7041,-18 230.6579,-18 256.681,-18"/>
</g>
<!-- マネー -->
<g id="node4" class="node">
<title>マネー</title>
<text text-anchor="middle" x="486" y="-14.3" font-family="Times,serif" font-size="14.00" fill="#000000">マネー</text>
</g>
<!-- クレジットカード&#45;&gt;マネー -->
<g id="edge3" class="edge">
<title>クレジットカード&#45;&gt;マネー</title>
<path fill="none" stroke="#000000" d="M388.0596,-18C411.6915,-18 437.2038,-18 456.264,-18"/>
</g>
<!-- ポイント -->
<g id="node5" class="node">
<title>ポイント</title>
<text text-anchor="middle" x="687" y="-14.3" font-family="Times,serif" font-size="14.00" fill="#000000">ポイント</text>
</g>
<!-- マネー&#45;&gt;ポイント -->
<g id="edge4" class="edge">
<title>マネー&#45;&gt;ポイント</title>
<path fill="none" stroke="#000000" d="M515.6582,-18C551.2582,-18 610.9876,-18 649.6865,-18"/>
</g>
<!-- 金券 -->
<g id="node6" class="node">
<title>金券</title>
<text text-anchor="middle" x="845" y="-14.3" font-family="Times,serif" font-size="14.00" fill="#000000">金券</text>
</g>
<!-- ポイント&#45;&gt;金券 -->
<g id="edge5" class="edge">
<title>ポイント&#45;&gt;金券</title>
<path fill="none" stroke="#000000" d="M724.044,-18C752.6842,-18 791.6887,-18 817.573,-18"/>
</g>
<!-- 支出 -->
<g id="node7" class="node">
<title>支出</title>
<text text-anchor="middle" x="974.5" y="-14.3" font-family="Times,serif" font-size="14.00" fill="#000000">支出</text>
</g>
<!-- 金券&#45;&gt;支出 -->
<g id="edge6" class="edge">
<title>金券&#45;&gt;支出</title>
<path fill="none" stroke="#000000" d="M872.1474,-18C894.2492,-18 925.2962,-18 947.3883,-18"/>
</g>
<!-- 給与 -->
<g id="node8" class="node">
<title>給与</title>
<polygon fill="none" stroke="#000000" points="54,-1788 0,-1788 0,-1752 54,-1752 54,-1788"/>
<text text-anchor="middle" x="27" y="-1766.3" font-family="Times,serif" font-size="14.00" fill="#000000">給与</text>
</g>
<!-- 三井住友銀行 -->
<g id="node9" class="node">
<title>三井住友銀行</title>
<polygon fill="none" stroke="#000000" points="193,-1788 91,-1788 91,-1752 193,-1752 193,-1788"/>
<text text-anchor="middle" x="142" y="-1766.3" font-family="Times,serif" font-size="14.00" fill="#000000">三井住友銀行</text>
</g>
<!-- 給与&#45;&gt;三井住友銀行 -->
<g id="edge7" class="edge">
<title>給与&#45;&gt;三井住友銀行</title>
<path fill="none" stroke="#000000" stroke-width="2" d="M54.2534,-1770C62.2529,-1770 71.3442,-1770 80.571,-1770"/>
<polygon fill="#000000" stroke="#000000" stroke-width="2" points="80.5912,-1773.5001 90.5911,-1770 80.5911,-1766.5001 80.5912,-1773.5001"/>
</g>
<!-- 住信SBI銀行 -->
<g id="node10" class="node">
<title>住信SBI銀行</title>
<polygon fill="none" stroke="#000000" points="192,-1609 92,-1609 92,-1573 192,-1573 192,-1609"/>
<text text-anchor="middle" x="142" y="-1587.3" font-family="Times,serif" font-size="14.00" fill="#000000">住信SBI銀行</text>
</g>
<!-- 三井住友銀行&#45;&gt;住信SBI銀行 -->
<g id="edge9" class="edge">
<title>三井住友銀行&#45;&gt;住信SBI銀行</title>
<path fill="none" stroke="#000000" stroke-width="2" d="M142,-1751.7821C142,-1707.5902 142,-1663.3983 142,-1619.2064"/>
<polygon fill="#000000" stroke="#000000" stroke-width="2" points="145.5001,-1619.1797 142,-1609.1797 138.5001,-1619.1797 145.5001,-1619.1797"/>
</g>
<!-- 三井住友VISAカード -->
<g id="node11" class="node">
<title>三井住友VISAカード</title>
<polygon fill="none" stroke="#000000" points="399,-1822 246,-1822 246,-1786 399,-1786 399,-1822"/>
<text text-anchor="middle" x="322.5" y="-1800.3" font-family="Times,serif" font-size="14.00" fill="#000000">三井住友VISAカード</text>
</g>
<!-- 三井住友銀行&#45;&gt;三井住友VISAカード -->
<g id="edge11" class="edge">
<title>三井住友銀行&#45;&gt;三井住友VISAカード</title>
<path fill="none" stroke="#000000" stroke-width="2" d="M193.2412,-1779.6521C206.5366,-1782.1565 221.2305,-1784.9243 235.8008,-1787.6689"/>
<polygon fill="#000000" stroke="#000000" stroke-width="2" points="235.3744,-1791.15 245.8495,-1789.5617 236.6703,-1784.271 235.3744,-1791.15"/>
</g>
<!-- 現金 -->
<g id="node16" class="node">
<title>現金</title>
<polygon fill="none" stroke="#000000" points="513,-1732 459,-1732 459,-1696 513,-1696 513,-1732"/>
<text text-anchor="middle" x="486" y="-1710.3" font-family="Times,serif" font-size="14.00" fill="#000000">現金</text>
</g>
<!-- 三井住友銀行&#45;&gt;現金 -->
<g id="edge8" class="edge">
<title>三井住友銀行&#45;&gt;現金</title>
<path fill="none" stroke="#000000" stroke-width="2" d="M193.1288,-1761.6767C263.0154,-1750.2998 386.7355,-1730.1593 448.5977,-1720.0887"/>
<polygon fill="#000000" stroke="#000000" stroke-width="2" points="449.383,-1723.5071 458.6906,-1718.4457 448.2582,-1716.598 449.383,-1723.5071"/>
</g>
<!-- 関西電力 -->
<g id="node39" class="node">
<title>関西電力</title>
<polygon fill="none" stroke="#000000" points="1011.5,-1960 937.5,-1960 937.5,-1924 1011.5,-1924 1011.5,-1960"/>
<text text-anchor="middle" x="974.5" y="-1938.3" font-family="Times,serif" font-size="14.00" fill="#000000">関西電力</text>
</g>
<!-- 三井住友銀行&#45;&gt;関西電力 -->
<g id="edge10" class="edge">
<title>三井住友銀行&#45;&gt;関西電力</title>
<path fill="none" stroke="#000000" stroke-width="2" d="M150.2283,-1788.0819C171.7027,-1832.2423 233.98,-1942 322.5,-1942 322.5,-1942 322.5,-1942 845,-1942 872.2461,-1942 902.7168,-1942 927.2533,-1942"/>
<polygon fill="#000000" stroke="#000000" stroke-width="2" points="927.379,-1945.5001 937.3789,-1942 927.3789,-1938.5001 927.379,-1945.5001"/>
</g>
<!-- ビックカメラSuicaカード -->
<g id="node12" class="node">
<title>ビックカメラSuicaカード</title>
<polygon fill="none" stroke="#000000" points="415,-1392 230,-1392 230,-1356 415,-1356 415,-1392"/>
<text text-anchor="middle" x="322.5" y="-1370.3" font-family="Times,serif" font-size="14.00" fill="#000000">ビックカメラSuicaカード</text>
</g>
<!-- 住信SBI銀行&#45;&gt;ビックカメラSuicaカード -->
<g id="edge30" class="edge">
<title>住信SBI銀行&#45;&gt;ビックカメラSuicaカード</title>
<path fill="none" stroke="#000000" stroke-width="2" d="M157.0789,-1572.8719C189.0645,-1534.4183 263.8111,-1444.5567 300.874,-1399.9991"/>
<polygon fill="#000000" stroke="#000000" stroke-width="2" points="303.633,-1402.1553 307.3371,-1392.2291 298.2514,-1397.6789 303.633,-1402.1553"/>
</g>
<!-- リクルートカード -->
<g id="node13" class="node">
<title>リクルートカード</title>
<polygon fill="none" stroke="#000000" points="388,-410 257,-410 257,-374 388,-374 388,-410"/>
<text text-anchor="middle" x="322.5" y="-388.3" font-family="Times,serif" font-size="14.00" fill="#000000">リクルートカード</text>
</g>
<!-- 住信SBI銀行&#45;&gt;リクルートカード -->
<g id="edge31" class="edge">
<title>住信SBI銀行&#45;&gt;リクルートカード</title>
<path fill="none" stroke="#000000" stroke-width="2" d="M144.763,-1572.6464C165.2265,-1436.7141 293.1336,-587.0712 318.23,-420.364"/>
<polygon fill="#000000" stroke="#000000" stroke-width="2" points="321.7044,-420.7954 319.7322,-410.3858 314.7824,-419.7533 321.7044,-420.7954"/>
</g>
<!-- 住信SBI銀行&#45;&gt;現金 -->
<g id="edge28" class="edge">
<title>住信SBI銀行&#45;&gt;現金</title>
<path fill="none" stroke="#000000" stroke-width="2" d="M192.0206,-1608.8853C261.921,-1633.8787 387.1977,-1678.6724 449.1867,-1700.8371"/>
<polygon fill="#000000" stroke="#000000" stroke-width="2" points="448.336,-1704.2499 458.9306,-1704.3211 450.6929,-1697.6586 448.336,-1704.2499"/>
</g>
<!-- 家賃 -->
<g id="node29" class="node">
<title>家賃</title>
<polygon fill="none" stroke="#000000" points="1001.5,-1628 947.5,-1628 947.5,-1592 1001.5,-1592 1001.5,-1628"/>
<text text-anchor="middle" x="974.5" y="-1606.3" font-family="Times,serif" font-size="14.00" fill="#000000">家賃</text>
</g>
<!-- 住信SBI銀行&#45;&gt;家賃 -->
<g id="edge29" class="edge">
<title>住信SBI銀行&#45;&gt;家賃</title>
<path fill="none" stroke="#000000" stroke-width="2" d="M192.1852,-1591C228.4026,-1591 278.4718,-1591 322.5,-1591 322.5,-1591 322.5,-1591 845,-1591 876.3555,-1591 911.5336,-1596.5202 937.3033,-1601.6097"/>
<polygon fill="#000000" stroke="#000000" stroke-width="2" points="936.8856,-1605.0967 947.3844,-1603.6733 938.2894,-1598.2389 936.8856,-1605.0967"/>
</g>
<!-- PiTaPa -->
<g id="node15" class="node">
<title>PiTaPa</title>
<polygon fill="none" stroke="#000000" points="518.5,-1868 453.5,-1868 453.5,-1832 518.5,-1832 518.5,-1868"/>
<text text-anchor="middle" x="486" y="-1846.3" font-family="Times,serif" font-size="14.00" fill="#000000">PiTaPa</text>
</g>
<!-- 三井住友VISAカード&#45;&gt;PiTaPa -->
<g id="edge12" class="edge">
<title>三井住友VISAカード&#45;&gt;PiTaPa</title>
<path fill="none" stroke="#000000" stroke-width="2" d="M386.6503,-1822.0484C405.6459,-1827.3927 425.9725,-1833.1115 443.2593,-1837.9751"/>
<polygon fill="#000000" stroke="#000000" stroke-width="2" points="442.479,-1841.3914 453.0532,-1840.7306 444.3749,-1834.653 442.479,-1841.3914"/>
</g>
<!-- Suica -->
<g id="node14" class="node">
<title>Suica</title>
<polygon fill="none" stroke="#000000" points="514,-1520 458,-1520 458,-1484 514,-1484 514,-1520"/>
<text text-anchor="middle" x="486" y="-1498.3" font-family="Times,serif" font-size="14.00" fill="#000000">Suica</text>
</g>
<!-- ビックカメラSuicaカード&#45;&gt;Suica -->
<g id="edge21" class="edge">
<title>ビックカメラSuicaカード&#45;&gt;Suica</title>
<path fill="none" stroke="#000000" stroke-width="2" d="M345.5788,-1392.0678C374.1027,-1414.3985 422.7681,-1452.4973 454.6545,-1477.4604"/>
<polygon fill="#000000" stroke="#000000" stroke-width="2" points="452.7429,-1480.4088 462.7745,-1483.8173 457.058,-1474.897 452.7429,-1480.4088"/>
</g>
<!-- ビューサンクスポイント -->
<g id="node21" class="node">
<title>ビューサンクスポイント</title>
<polygon fill="none" stroke="#000000" points="773.5,-1417 600.5,-1417 600.5,-1381 773.5,-1381 773.5,-1417"/>
<text text-anchor="middle" x="687" y="-1395.3" font-family="Times,serif" font-size="14.00" fill="#000000">ビューサンクスポイント</text>
</g>
<!-- ビックカメラSuicaカード&#45;&gt;ビューサンクスポイント -->
<g id="edge16" class="edge">
<title>ビックカメラSuicaカード&#45;&gt;ビューサンクスポイント</title>
<path fill="none" stroke="#000000" d="M415.4219,-1380.3732C468.8237,-1384.0359 535.8198,-1388.631 589.9072,-1392.3407"/>
<polygon fill="#000000" stroke="#000000" points="589.9808,-1395.8539 600.1969,-1393.0464 590.4599,-1388.8703 589.9808,-1395.8539"/>
<text text-anchor="middle" x="486" y="-1391.8" font-family="Times,serif" font-size="14.00" fill="#000000">0.5%</text>
</g>
<!-- ビックポイント -->
<g id="node23" class="node">
<title>ビックポイント</title>
<polygon fill="none" stroke="#000000" points="745,-1323 629,-1323 629,-1287 745,-1287 745,-1323"/>
<text text-anchor="middle" x="687" y="-1301.3" font-family="Times,serif" font-size="14.00" fill="#000000">ビックポイント</text>
</g>
<!-- ビックカメラSuicaカード&#45;&gt;ビックポイント -->
<g id="edge19" class="edge">
<title>ビックカメラSuicaカード&#45;&gt;ビックポイント</title>
<path fill="none" stroke="#000000" d="M358.638,-1355.9653C384.0835,-1344.1533 419.306,-1329.5526 452,-1322 507.1397,-1309.2623 571.3155,-1305.3271 618.6567,-1304.4004"/>
<polygon fill="#000000" stroke="#000000" points="618.8512,-1307.8979 628.7955,-1304.2427 618.7423,-1300.8988 618.8512,-1307.8979"/>
<text text-anchor="middle" x="486" y="-1325.8" font-family="Times,serif" font-size="14.00" fill="#000000">0.5%</text>
</g>
<!-- ビックカメラ -->
<g id="node42" class="node">
<title>ビックカメラ</title>
<polygon fill="none" stroke="#000000" points="1025.5,-1369 923.5,-1369 923.5,-1333 1025.5,-1333 1025.5,-1369"/>
<text text-anchor="middle" x="974.5" y="-1347.3" font-family="Times,serif" font-size="14.00" fill="#000000">ビックカメラ</text>
</g>
<!-- ビックカメラSuicaカード&#45;&gt;ビックカメラ -->
<g id="edge17" class="edge">
<title>ビックカメラSuicaカード&#45;&gt;ビックカメラ</title>
<path fill="none" stroke="#000000" stroke-width="2" stroke-dasharray="5,2" d="M415.1322,-1356.3925C438.1947,-1353.2743 462.9248,-1351 486,-1351 486,-1351 486,-1351 845,-1351 867.3202,-1351 891.8043,-1351 913.4172,-1351"/>
<polygon fill="#000000" stroke="#000000" stroke-width="2" points="913.4498,-1354.5001 923.4498,-1351 913.4498,-1347.5001 913.4498,-1354.5001"/>
</g>
<!-- EX予約 -->
<g id="node52" class="node">
<title>EX予約</title>
<polygon fill="none" stroke="#000000" points="1007.5,-1242 941.5,-1242 941.5,-1206 1007.5,-1206 1007.5,-1242"/>
<text text-anchor="middle" x="974.5" y="-1220.3" font-family="Times,serif" font-size="14.00" fill="#000000">EX予約</text>
</g>
<!-- ビックカメラSuicaカード&#45;&gt;EX予約 -->
<g id="edge24" class="edge">
<title>ビックカメラSuicaカード&#45;&gt;EX予約</title>
<path fill="none" stroke="#000000" stroke-width="2" stroke-dasharray="5,2" d="M331.3315,-1355.9065C352.2191,-1316.0111 408.7645,-1224 486,-1224 486,-1224 486,-1224 845,-1224 873.7216,-1224 906.0263,-1224 931.1857,-1224"/>
<polygon fill="#000000" stroke="#000000" stroke-width="2" points="931.4996,-1227.5001 941.4996,-1224 931.4995,-1220.5001 931.4996,-1227.5001"/>
</g>
<!-- nanaco -->
<g id="node17" class="node">
<title>nanaco</title>
<polygon fill="none" stroke="#000000" points="520,-140 452,-140 452,-104 520,-104 520,-140"/>
<text text-anchor="middle" x="486" y="-118.3" font-family="Times,serif" font-size="14.00" fill="#000000">nanaco</text>
</g>
<!-- リクルートカード&#45;&gt;nanaco -->
<g id="edge55" class="edge">
<title>リクルートカード&#45;&gt;nanaco</title>
<path fill="none" stroke="#000000" stroke-width="2" d="M327.8948,-373.9469C340.8207,-332.882 376.7311,-230.7242 433,-162 437.6191,-156.3584 443.1911,-151.0628 448.963,-146.2866"/>
<polygon fill="#000000" stroke="#000000" stroke-width="2" points="451.1505,-149.0192 456.8872,-140.1119 446.8479,-143.4977 451.1505,-149.0192"/>
</g>
<!-- Edy -->
<g id="node18" class="node">
<title>Edy</title>
<polygon fill="none" stroke="#000000" points="513,-756 459,-756 459,-720 513,-720 513,-756"/>
<text text-anchor="middle" x="486" y="-734.3" font-family="Times,serif" font-size="14.00" fill="#000000">Edy</text>
</g>
<!-- リクルートカード&#45;&gt;Edy -->
<g id="edge39" class="edge">
<title>リクルートカード&#45;&gt;Edy</title>
<path fill="none" stroke="#000000" stroke-width="2" d="M331.0603,-410.1153C357.9267,-466.9703 440.6996,-642.1348 472.9485,-710.3802"/>
<polygon fill="#000000" stroke="#000000" stroke-width="2" points="469.8902,-712.1006 477.3272,-719.6466 476.2192,-709.1098 469.8902,-712.1006"/>
</g>
<!-- Ponta -->
<g id="node19" class="node">
<title>Ponta</title>
<polygon fill="none" stroke="#000000" points="715.5,-895 658.5,-895 658.5,-859 715.5,-859 715.5,-895"/>
<text text-anchor="middle" x="687" y="-873.3" font-family="Times,serif" font-size="14.00" fill="#000000">Ponta</text>
</g>
<!-- リクルートカード&#45;&gt;Ponta -->
<g id="edge50" class="edge">
<title>リクルートカード&#45;&gt;Ponta</title>
<path fill="none" stroke="#000000" d="M326.1818,-410.1385C338.0562,-466.0284 378.8832,-639.4102 452,-765 481.1557,-815.0796 486.3903,-836.6473 538,-863 572.3031,-880.5157 616.8415,-882.4403 648.2587,-880.957"/>
<polygon fill="#000000" stroke="#000000" points="648.6076,-884.4423 658.3764,-880.341 648.1821,-877.4553 648.6076,-884.4423"/>
<text text-anchor="middle" x="486" y="-856.8" font-family="Times,serif" font-size="14.00" fill="#000000">1.2%</text>
</g>
<!-- NHK -->
<g id="node36" class="node">
<title>NHK</title>
<polygon fill="none" stroke="#000000" points="1001.5,-1188 947.5,-1188 947.5,-1152 1001.5,-1152 1001.5,-1188"/>
<text text-anchor="middle" x="974.5" y="-1166.3" font-family="Times,serif" font-size="14.00" fill="#000000">NHK</text>
</g>
<!-- リクルートカード&#45;&gt;NHK -->
<g id="edge32" class="edge">
<title>リクルートカード&#45;&gt;NHK</title>
<path fill="none" stroke="#000000" stroke-width="2" d="M324.3136,-410.086C336.262,-526.8992 405.6897,-1170 486,-1170 486,-1170 486,-1170 845,-1170 876.0234,-1170 911.2273,-1170 937.0916,-1170"/>
<polygon fill="#000000" stroke="#000000" stroke-width="2" points="937.2149,-1173.5001 947.2149,-1170 937.2148,-1166.5001 937.2149,-1173.5001"/>
</g>
<!-- NTT -->
<g id="node37" class="node">
<title>NTT</title>
<polygon fill="none" stroke="#000000" points="1001.5,-410 947.5,-410 947.5,-374 1001.5,-374 1001.5,-410"/>
<text text-anchor="middle" x="974.5" y="-388.3" font-family="Times,serif" font-size="14.00" fill="#000000">NTT</text>
</g>
<!-- リクルートカード&#45;&gt;NTT -->
<g id="edge33" class="edge">
<title>リクルートカード&#45;&gt;NTT</title>
<path fill="none" stroke="#000000" stroke-width="2" d="M388.1341,-392C417.9941,-392 453.7826,-392 486,-392 486,-392 486,-392 845,-392 876.0234,-392 911.2273,-392 937.0916,-392"/>
<polygon fill="#000000" stroke="#000000" stroke-width="2" points="937.2149,-395.5001 947.2149,-392 937.2148,-388.5001 937.2149,-395.5001"/>
</g>
<!-- ASAHIネット -->
<g id="node38" class="node">
<title>ASAHIネット</title>
<polygon fill="none" stroke="#000000" points="1029,-356 920,-356 920,-320 1029,-320 1029,-356"/>
<text text-anchor="middle" x="974.5" y="-334.3" font-family="Times,serif" font-size="14.00" fill="#000000">ASAHIネット</text>
</g>
<!-- リクルートカード&#45;&gt;ASAHIネット -->
<g id="edge34" class="edge">
<title>リクルートカード&#45;&gt;ASAHIネット</title>
<path fill="none" stroke="#000000" stroke-width="2" d="M362.9396,-373.9516C395.5002,-361.0644 442.8009,-346 486,-346 486,-346 486,-346 845,-346 866.0041,-346 888.8882,-344.9386 909.496,-343.5891"/>
<polygon fill="#000000" stroke="#000000" stroke-width="2" points="909.9904,-347.0634 919.7261,-342.8841 909.5091,-340.0799 909.9904,-347.0634"/>
</g>
<!-- アイハート -->
<g id="node40" class="node">
<title>アイハート</title>
<polygon fill="none" stroke="#000000" points="1018.5,-302 930.5,-302 930.5,-266 1018.5,-266 1018.5,-302"/>
<text text-anchor="middle" x="974.5" y="-280.3" font-family="Times,serif" font-size="14.00" fill="#000000">アイハート</text>
</g>
<!-- リクルートカード&#45;&gt;アイハート -->
<g id="edge38" class="edge">
<title>リクルートカード&#45;&gt;アイハート</title>
<path fill="none" stroke="#000000" stroke-width="2" d="M342.4733,-373.7733C371.7005,-349.0682 428.8767,-308 486,-308 486,-308 486,-308 845,-308 869.9971,-308 897.2607,-303.6233 920.2965,-298.6079"/>
<polygon fill="#000000" stroke="#000000" stroke-width="2" points="921.2487,-301.9808 930.2243,-296.3515 919.6973,-295.1549 921.2487,-301.9808"/>
</g>
<!-- Amazon -->
<g id="node50" class="node">
<title>Amazon</title>
<polygon fill="none" stroke="#000000" points="1011.5,-248 937.5,-248 937.5,-212 1011.5,-212 1011.5,-248"/>
<text text-anchor="middle" x="974.5" y="-226.3" font-family="Times,serif" font-size="14.00" fill="#000000">Amazon</text>
</g>
<!-- リクルートカード&#45;&gt;Amazon -->
<g id="edge36" class="edge">
<title>リクルートカード&#45;&gt;Amazon</title>
<path fill="none" stroke="#000000" stroke-width="2" d="M334.5347,-373.9985C358.8246,-340.0621 417.2915,-270 486,-270 486,-270 486,-270 845,-270 861.2431,-270 897.6298,-258.3666 927.7095,-247.6474"/>
<polygon fill="#000000" stroke="#000000" stroke-width="2" points="929.0024,-250.9018 937.2205,-244.2151 926.6262,-244.3174 929.0024,-250.9018"/>
</g>
<!-- iTunes -->
<g id="node51" class="node">
<title>iTunes</title>
<polygon fill="none" stroke="#000000" points="1007,-194 942,-194 942,-158 1007,-158 1007,-194"/>
<text text-anchor="middle" x="974.5" y="-172.3" font-family="Times,serif" font-size="14.00" fill="#000000">iTunes</text>
</g>
<!-- リクルートカード&#45;&gt;iTunes -->
<g id="edge35" class="edge">
<title>リクルートカード&#45;&gt;iTunes</title>
<path fill="none" stroke="#000000" stroke-width="2" stroke-dasharray="5,2" d="M326.7764,-373.9555C340.2622,-322.0421 386.9982,-176 486,-176 486,-176 486,-176 845,-176 873.8199,-176 906.2476,-176 931.4439,-176"/>
<polygon fill="#000000" stroke="#000000" stroke-width="2" points="931.7681,-179.5001 941.768,-176 931.768,-172.5001 931.7681,-179.5001"/>
</g>
<!-- じゃらん -->
<g id="node53" class="node">
<title>じゃらん</title>
<polygon fill="none" stroke="#000000" points="1011.5,-940 937.5,-940 937.5,-904 1011.5,-904 1011.5,-940"/>
<text text-anchor="middle" x="974.5" y="-918.3" font-family="Times,serif" font-size="14.00" fill="#000000">じゃらん</text>
</g>
<!-- リクルートカード&#45;&gt;じゃらん -->
<g id="edge37" class="edge">
<title>リクルートカード&#45;&gt;じゃらん</title>
<path fill="none" stroke="#000000" stroke-width="2" d="M323.4288,-410.2844C329.0209,-510.8395 362.2452,-992 486,-992 486,-992 486,-992 845,-992 879.2684,-992 878.7848,-965.1667 909,-949 914.9749,-945.8031 921.4117,-942.7317 927.835,-939.8798"/>
<polygon fill="#000000" stroke="#000000" stroke-width="2" points="929.3711,-943.0294 937.1806,-935.8696 926.6107,-936.5966 929.3711,-943.0294"/>
</g>
<!-- Suica&#45;&gt;ビューサンクスポイント -->
<g id="edge27" class="edge">
<title>Suica&#45;&gt;ビューサンクスポイント</title>
<path fill="none" stroke="#000000" d="M494.9526,-1483.8471C503.7313,-1467.9752 518.6104,-1445.5561 538,-1433 553.669,-1422.8533 571.9793,-1415.7157 590.2957,-1410.6997"/>
<polygon fill="#000000" stroke="#000000" points="591.3258,-1414.0493 600.1567,-1408.1957 589.6029,-1407.2647 591.3258,-1414.0493"/>
<text text-anchor="middle" x="556.5" y="-1436.8" font-family="Times,serif" font-size="14.00" fill="#000000">1%</text>
</g>
<!-- JREポイント -->
<g id="node22" class="node">
<title>JREポイント</title>
<polygon fill="none" stroke="#000000" points="737.5,-1473 636.5,-1473 636.5,-1437 737.5,-1437 737.5,-1473"/>
<text text-anchor="middle" x="687" y="-1451.3" font-family="Times,serif" font-size="14.00" fill="#000000">JREポイント</text>
</g>
<!-- Suica&#45;&gt;JREポイント -->
<g id="edge25" class="edge">
<title>Suica&#45;&gt;JREポイント</title>
<path fill="none" stroke="#000000" d="M513.6961,-1483.9551C521.3059,-1479.7313 529.7429,-1475.6858 538,-1473 566.1234,-1463.8523 598.5978,-1459.2778 626.0369,-1457.0195"/>
<polygon fill="#000000" stroke="#000000" points="626.5721,-1460.4897 636.2872,-1456.2627 626.0566,-1453.5087 626.5721,-1460.4897"/>
<text text-anchor="middle" x="556.5" y="-1476.8" font-family="Times,serif" font-size="14.00" fill="#000000">0.5%</text>
</g>
<!-- 電車 -->
<g id="node33" class="node">
<title>電車</title>
<polygon fill="none" stroke="#000000" points="1001.5,-1704 947.5,-1704 947.5,-1668 1001.5,-1668 1001.5,-1704"/>
<text text-anchor="middle" x="974.5" y="-1682.3" font-family="Times,serif" font-size="14.00" fill="#000000">電車</text>
</g>
<!-- Suica&#45;&gt;電車 -->
<g id="edge22" class="edge">
<title>Suica&#45;&gt;電車</title>
<path fill="none" stroke="#000000" stroke-width="2" d="M514.0184,-1512.5535C597.4448,-1543.9771 844.225,-1636.9302 937.8859,-1672.2088"/>
<polygon fill="#000000" stroke="#000000" stroke-width="2" points="936.907,-1675.5801 947.4989,-1675.8297 939.3745,-1669.0294 936.907,-1675.5801"/>
</g>
<!-- 松屋 -->
<g id="node48" class="node">
<title>松屋</title>
<polygon fill="none" stroke="#000000" points="1001.5,-1520 947.5,-1520 947.5,-1484 1001.5,-1484 1001.5,-1520"/>
<text text-anchor="middle" x="974.5" y="-1498.3" font-family="Times,serif" font-size="14.00" fill="#000000">松屋</text>
</g>
<!-- Suica&#45;&gt;松屋 -->
<g id="edge23" class="edge">
<title>Suica&#45;&gt;松屋</title>
<path fill="none" stroke="#000000" stroke-width="2" d="M514.0184,-1502C597.2759,-1502 843.2266,-1502 937.3152,-1502"/>
<polygon fill="#000000" stroke="#000000" stroke-width="2" points="937.499,-1505.5001 947.4989,-1502 937.4989,-1498.5001 937.499,-1505.5001"/>
</g>
<!-- 大阪地下鉄 -->
<g id="node34" class="node">
<title>大阪地下鉄</title>
<polygon fill="none" stroke="#000000" points="1018.5,-1852 930.5,-1852 930.5,-1816 1018.5,-1816 1018.5,-1852"/>
<text text-anchor="middle" x="974.5" y="-1830.3" font-family="Times,serif" font-size="14.00" fill="#000000">大阪地下鉄</text>
</g>
<!-- PiTaPa&#45;&gt;大阪地下鉄 -->
<g id="edge13" class="edge">
<title>PiTaPa&#45;&gt;大阪地下鉄</title>
<path fill="none" stroke="#000000" stroke-width="2" d="M518.8104,-1848.9254C601.331,-1846.2225 818.1756,-1839.1201 920.0966,-1835.7819"/>
<polygon fill="#000000" stroke="#000000" stroke-width="2" points="920.3008,-1839.2772 930.1808,-1835.4516 920.0716,-1832.2809 920.3008,-1839.2772"/>
</g>
<!-- 山陽バス -->
<g id="node35" class="node">
<title>山陽バス</title>
<polygon fill="none" stroke="#000000" points="1011.5,-1906 937.5,-1906 937.5,-1870 1011.5,-1870 1011.5,-1906"/>
<text text-anchor="middle" x="974.5" y="-1884.3" font-family="Times,serif" font-size="14.00" fill="#000000">山陽バス</text>
</g>
<!-- PiTaPa&#45;&gt;山陽バス -->
<g id="edge15" class="edge">
<title>PiTaPa&#45;&gt;山陽バス</title>
<path fill="none" stroke="#000000" stroke-width="2" stroke-dasharray="5,2" d="M518.5747,-1858.3948C524.9783,-1859.7959 531.6725,-1861.088 538,-1862 678.585,-1882.2629 846.8325,-1886.7952 927.214,-1887.767"/>
<polygon fill="#000000" stroke="#000000" stroke-width="2" points="927.462,-1891.2698 937.499,-1887.8775 927.5372,-1884.2702 927.462,-1891.2698"/>
</g>
<!-- 切符 -->
<g id="node28" class="node">
<title>切符</title>
<polygon fill="none" stroke="#000000" points="872,-1732 818,-1732 818,-1696 872,-1696 872,-1732"/>
<text text-anchor="middle" x="845" y="-1710.3" font-family="Times,serif" font-size="14.00" fill="#000000">切符</text>
</g>
<!-- 現金&#45;&gt;切符 -->
<g id="edge67" class="edge">
<title>現金&#45;&gt;切符</title>
<path fill="none" stroke="#000000" stroke-width="2" d="M513.278,-1710.2091C576.9092,-1706.4478 735.2433,-1706.2722 807.7154,-1709.6824"/>
<polygon fill="#000000" stroke="#000000" stroke-width="2" points="807.5933,-1713.1807 817.7635,-1710.2116 807.9614,-1706.1904 807.5933,-1713.1807"/>
</g>
<!-- 飲食店 -->
<g id="node45" class="node">
<title>飲食店</title>
<polygon fill="none" stroke="#000000" points="1004,-1779 945,-1779 945,-1743 1004,-1743 1004,-1779"/>
<text text-anchor="middle" x="974.5" y="-1757.3" font-family="Times,serif" font-size="14.00" fill="#000000">飲食店</text>
</g>
<!-- 現金&#45;&gt;飲食店 -->
<g id="edge64" class="edge">
<title>現金&#45;&gt;飲食店</title>
<path fill="none" stroke="#000000" stroke-width="2" d="M513.1471,-1728.2145C520.9687,-1731.6959 529.6493,-1734.9946 538,-1737 680.727,-1771.2753 856.9322,-1767.4599 934.5695,-1763.5448"/>
<polygon fill="#000000" stroke="#000000" stroke-width="2" points="935.0574,-1767.0238 944.8566,-1762.9956 934.6842,-1760.0338 935.0574,-1767.0238"/>
</g>
<!-- 吉野家 -->
<g id="node49" class="node">
<title>吉野家</title>
<polygon fill="none" stroke="#000000" points="1004,-1574 945,-1574 945,-1538 1004,-1538 1004,-1574"/>
<text text-anchor="middle" x="974.5" y="-1552.3" font-family="Times,serif" font-size="14.00" fill="#000000">吉野家</text>
</g>
<!-- 現金&#45;&gt;吉野家 -->
<g id="edge65" class="edge">
<title>現金&#45;&gt;吉野家</title>
<path fill="none" stroke="#000000" stroke-width="2" d="M513.2065,-1710.475C568.5935,-1702.7345 697.8467,-1681.776 800,-1643 851.6997,-1623.3755 859.1365,-1606.9083 909,-1583 917.4706,-1578.9386 926.7169,-1574.8973 935.5221,-1571.2257"/>
<polygon fill="#000000" stroke="#000000" stroke-width="2" points="936.921,-1574.435 944.846,-1567.4033 934.2657,-1567.9581 936.921,-1574.435"/>
</g>
<!-- nanacoポイント -->
<g id="node25" class="node">
<title>nanacoポイント</title>
<polygon fill="none" stroke="#000000" points="749.5,-90 624.5,-90 624.5,-54 749.5,-54 749.5,-90"/>
<text text-anchor="middle" x="687" y="-68.3" font-family="Times,serif" font-size="14.00" fill="#000000">nanacoポイント</text>
</g>
<!-- nanaco&#45;&gt;nanacoポイント -->
<g id="edge57" class="edge">
<title>nanaco&#45;&gt;nanacoポイント</title>
<path fill="none" stroke="#000000" d="M497.4396,-103.9821C506.6548,-91.28 520.8732,-75.2842 538,-68 561.5457,-57.9858 589.1307,-56.3041 614.1222,-58.0121"/>
<polygon fill="#000000" stroke="#000000" points="614.0208,-61.5164 624.287,-58.8982 614.6287,-54.5429 614.0208,-61.5164"/>
<text text-anchor="middle" x="556.5" y="-71.8" font-family="Times,serif" font-size="14.00" fill="#000000">1%</text>
</g>
<!-- セブンイレブン -->
<g id="node31" class="node">
<title>セブンイレブン</title>
<polygon fill="none" stroke="#000000" points="1032.5,-140 916.5,-140 916.5,-104 1032.5,-104 1032.5,-140"/>
<text text-anchor="middle" x="974.5" y="-118.3" font-family="Times,serif" font-size="14.00" fill="#000000">セブンイレブン</text>
</g>
<!-- nanaco&#45;&gt;セブンイレブン -->
<g id="edge56" class="edge">
<title>nanaco&#45;&gt;セブンイレブン</title>
<path fill="none" stroke="#000000" stroke-width="2" d="M520.3504,-122C600.322,-122 800.1778,-122 906.1061,-122"/>
<polygon fill="#000000" stroke="#000000" stroke-width="2" points="906.3679,-125.5001 916.3679,-122 906.3678,-118.5001 906.3679,-125.5001"/>
</g>
<!-- Edy&#45;&gt;Ponta -->
<g id="edge49" class="edge">
<title>Edy&#45;&gt;Ponta</title>
<path fill="none" stroke="#000000" d="M492.5097,-756.2099C500.3989,-775.8163 515.4956,-806.6551 538,-825 570.0012,-851.0865 615.9559,-864.4797 648.3487,-871.0843"/>
<polygon fill="#000000" stroke="#000000" points="647.875,-874.5571 658.3545,-872.9976 649.1898,-867.6816 647.875,-874.5571"/>
<text text-anchor="middle" x="556.5" y="-851.8" font-family="Times,serif" font-size="14.00" fill="#000000">0.5%</text>
</g>
<!-- ローソン -->
<g id="node30" class="node">
<title>ローソン</title>
<polygon fill="none" stroke="#000000" points="1011.5,-794 937.5,-794 937.5,-758 1011.5,-758 1011.5,-794"/>
<text text-anchor="middle" x="974.5" y="-772.3" font-family="Times,serif" font-size="14.00" fill="#000000">ローソン</text>
</g>
<!-- Edy&#45;&gt;ローソン -->
<g id="edge40" class="edge">
<title>Edy&#45;&gt;ローソン</title>
<path fill="none" stroke="#000000" stroke-width="2" d="M513.0956,-745.1555C521.0668,-747.0149 529.8384,-748.8237 538,-750 678.585,-770.2629 846.8325,-774.7952 927.214,-775.767"/>
<polygon fill="#000000" stroke="#000000" stroke-width="2" points="927.462,-779.2698 937.499,-775.8775 927.5372,-772.2702 927.462,-779.2698"/>
</g>
<!-- ファミリーマート -->
<g id="node32" class="node">
<title>ファミリーマート</title>
<polygon fill="none" stroke="#000000" points="1040,-1048 909,-1048 909,-1012 1040,-1012 1040,-1048"/>
<text text-anchor="middle" x="974.5" y="-1026.3" font-family="Times,serif" font-size="14.00" fill="#000000">ファミリーマート</text>
</g>
<!-- Edy&#45;&gt;ファミリーマート -->
<g id="edge42" class="edge">
<title>Edy&#45;&gt;ファミリーマート</title>
<path fill="none" stroke="#000000" stroke-width="2" d="M513.1944,-753.1816C515.7951,-755.5179 518.148,-758.124 520,-761 545.8719,-801.1759 512.0764,-826.8574 538,-867 553.9825,-891.7489 566.621,-890.8813 593,-904 694.219,-954.3381 820.1799,-991.4397 898.988,-1011.8893"/>
<polygon fill="#000000" stroke="#000000" stroke-width="2" points="898.2789,-1015.3207 908.8355,-1014.4215 900.0222,-1008.5412 898.2789,-1015.3207"/>
</g>
<!-- ウェルシア -->
<g id="node41" class="node">
<title>ウェルシア</title>
<polygon fill="none" stroke="#000000" points="1018.5,-994 930.5,-994 930.5,-958 1018.5,-958 1018.5,-994"/>
<text text-anchor="middle" x="974.5" y="-972.3" font-family="Times,serif" font-size="14.00" fill="#000000">ウェルシア</text>
</g>
<!-- Edy&#45;&gt;ウェルシア -->
<g id="edge47" class="edge">
<title>Edy&#45;&gt;ウェルシア</title>
<path fill="none" stroke="#000000" stroke-width="2" d="M513.0684,-755.0671C520.8893,-759.4482 529.5891,-763.8171 538,-767 561.4,-775.8552 568.4515,-774.1684 593,-779 654.764,-791.1563 824.8388,-786.306 872,-828 914.1317,-865.2476 871.1523,-907.4065 909,-949 912.5311,-952.8805 916.704,-956.2175 921.2067,-959.0843"/>
<polygon fill="#000000" stroke="#000000" stroke-width="2" points="919.7433,-962.2742 930.1904,-964.0372 923.123,-956.1441 919.7433,-962.2742"/>
</g>
<!-- ヨドバシカメラ -->
<g id="node43" class="node">
<title>ヨドバシカメラ</title>
<polygon fill="none" stroke="#000000" points="1032.5,-740 916.5,-740 916.5,-704 1032.5,-704 1032.5,-740"/>
<text text-anchor="middle" x="974.5" y="-718.3" font-family="Times,serif" font-size="14.00" fill="#000000">ヨドバシカメラ</text>
</g>
<!-- Edy&#45;&gt;ヨドバシカメラ -->
<g id="edge44" class="edge">
<title>Edy&#45;&gt;ヨドバシカメラ</title>
<path fill="none" stroke="#000000" stroke-width="2" d="M513.3106,-737.1055C587.9587,-734.6605 797.1001,-727.8104 906.25,-724.2354"/>
<polygon fill="#000000" stroke="#000000" stroke-width="2" points="906.6129,-727.7255 916.4929,-723.8999 906.3837,-720.7293 906.6129,-727.7255"/>
</g>
<!-- 餃子の王将 -->
<g id="node44" class="node">
<title>餃子の王将</title>
<polygon fill="none" stroke="#000000" points="1018.5,-464 930.5,-464 930.5,-428 1018.5,-428 1018.5,-464"/>
<text text-anchor="middle" x="974.5" y="-442.3" font-family="Times,serif" font-size="14.00" fill="#000000">餃子の王将</text>
</g>
<!-- Edy&#45;&gt;餃子の王将 -->
<g id="edge63" class="edge">
<title>Edy&#45;&gt;餃子の王将</title>
<path fill="none" stroke="#000000" stroke-width="2" d="M488.8531,-719.7551C496.2355,-674.1009 516.8688,-556.2098 538,-523 554.8051,-496.589 563.9349,-490.6263 593,-479 702.651,-435.1387 843.8269,-436.2597 919.9757,-441.055"/>
<polygon fill="#000000" stroke="#000000" stroke-width="2" points="920.0656,-444.569 930.279,-441.7517 920.538,-437.5849 920.0656,-444.569"/>
</g>
<!-- FRESCO -->
<g id="node46" class="node">
<title>FRESCO</title>
<polygon fill="none" stroke="#000000" points="1014.5,-572 934.5,-572 934.5,-536 1014.5,-536 1014.5,-572"/>
<text text-anchor="middle" x="974.5" y="-550.3" font-family="Times,serif" font-size="14.00" fill="#000000">FRESCO</text>
</g>
<!-- Edy&#45;&gt;FRESCO -->
<g id="edge60" class="edge">
<title>Edy&#45;&gt;FRESCO</title>
<path fill="none" stroke="#000000" stroke-width="2" d="M490.5422,-719.9316C501.1137,-682.1893 531.295,-595.5465 593,-560 697.9195,-499.5589 847.5129,-522.3729 924.4899,-540.3635"/>
<polygon fill="#000000" stroke="#000000" stroke-width="2" points="923.8672,-543.8134 934.4085,-542.7495 925.5045,-537.0076 923.8672,-543.8134"/>
</g>
<!-- 業務スーパー -->
<g id="node47" class="node">
<title>業務スーパー</title>
<polygon fill="none" stroke="#000000" points="1025.5,-518 923.5,-518 923.5,-482 1025.5,-482 1025.5,-518"/>
<text text-anchor="middle" x="974.5" y="-496.3" font-family="Times,serif" font-size="14.00" fill="#000000">業務スーパー</text>
</g>
<!-- Edy&#45;&gt;業務スーパー -->
<g id="edge59" class="edge">
<title>Edy&#45;&gt;業務スーパー</title>
<path fill="none" stroke="#000000" stroke-width="2" d="M487.3982,-719.924C492.133,-673.4904 512.1498,-551.2735 593,-517 698.4435,-472.3011 835.2929,-480.1856 913.1523,-490.0416"/>
<polygon fill="#000000" stroke="#000000" stroke-width="2" points="912.9027,-493.5389 923.2745,-491.3765 913.818,-486.599 912.9027,-493.5389"/>
</g>
<!-- Ponta&#45;&gt;じゃらん -->
<g id="edge51" class="edge">
<title>Ponta&#45;&gt;じゃらん</title>
<path fill="none" stroke="#000000" d="M715.6177,-881.4793C765.1609,-889.2339 867.3592,-905.2301 927.4701,-914.6388"/>
<polygon fill="#000000" stroke="#000000" points="927.0407,-918.1141 937.4617,-916.2027 928.1233,-911.1983 927.0407,-918.1141"/>
</g>
<!-- Tポイント -->
<g id="node20" class="node">
<title>Tポイント</title>
<polygon fill="none" stroke="#000000" points="728.5,-1142 645.5,-1142 645.5,-1106 728.5,-1106 728.5,-1142"/>
<text text-anchor="middle" x="687" y="-1120.3" font-family="Times,serif" font-size="14.00" fill="#000000">Tポイント</text>
</g>
<!-- JREポイント&#45;&gt;Suica -->
<g id="edge26" class="edge">
<title>JREポイント&#45;&gt;Suica</title>
<path fill="none" stroke="#000000" d="M636.4749,-1448.8678C606.8793,-1447.1696 569.2895,-1448.3482 538,-1460 528.0493,-1463.7055 518.5687,-1470.1277 510.4935,-1476.8512"/>
<polygon fill="#000000" stroke="#000000" points="508.0677,-1474.3246 502.9213,-1483.5856 512.7196,-1479.5553 508.0677,-1474.3246"/>
</g>
<!-- ビックポイント&#45;&gt;ビックカメラ -->
<g id="edge20" class="edge">
<title>ビックポイント&#45;&gt;ビックカメラ</title>
<path fill="none" stroke="#000000" d="M745.0612,-1313.9413C785.897,-1320.2706 841.8122,-1329.0188 891,-1337 898.182,-1338.1653 905.7085,-1339.4035 913.1777,-1340.6426"/>
<polygon fill="#000000" stroke="#000000" points="912.8507,-1344.1363 923.2898,-1342.3263 914.0005,-1337.2314 912.8507,-1344.1363"/>
</g>
<!-- Amazonポイント -->
<g id="node24" class="node">
<title>Amazonポイント</title>
<polygon fill="none" stroke="#000000" points="752.5,-241 621.5,-241 621.5,-205 752.5,-205 752.5,-241"/>
<text text-anchor="middle" x="687" y="-219.3" font-family="Times,serif" font-size="14.00" fill="#000000">Amazonポイント</text>
</g>
<!-- Amazonポイント&#45;&gt;Amazon -->
<g id="edge54" class="edge">
<title>Amazonポイント&#45;&gt;Amazon</title>
<path fill="none" stroke="#000000" d="M752.5979,-218.8263C805.8656,-218.6376 879.7034,-220.6404 927.2926,-223.6949"/>
<polygon fill="#000000" stroke="#000000" points="927.1094,-227.1905 937.3257,-224.3838 927.589,-220.2069 927.1094,-227.1905"/>
</g>
<!-- nanacoポイント&#45;&gt;nanaco -->
<g id="edge58" class="edge">
<title>nanacoポイント&#45;&gt;nanaco</title>
<path fill="none" stroke="#000000" d="M624.242,-87.6114C593.6068,-95.2321 557.4975,-104.2145 529.8671,-111.0878"/>
<polygon fill="#000000" stroke="#000000" points="528.9562,-107.7076 520.0969,-113.5182 530.6461,-114.5006 528.9562,-107.7076"/>
</g>
<!-- FRESCOポイント -->
<g id="node26" class="node">
<title>FRESCOポイント</title>
<polygon fill="none" stroke="#000000" points="755.5,-605 618.5,-605 618.5,-569 755.5,-569 755.5,-605"/>
<text text-anchor="middle" x="687" y="-583.3" font-family="Times,serif" font-size="14.00" fill="#000000">FRESCOポイント</text>
</g>
<!-- FRESCOポイント&#45;&gt;FRESCO -->
<g id="edge62" class="edge">
<title>FRESCOポイント&#45;&gt;FRESCO</title>
<path fill="none" stroke="#000000" d="M755.8634,-579.0957C807.6012,-573.1571 877.2953,-565.1574 923.9564,-559.8015"/>
<polygon fill="#000000" stroke="#000000" points="924.5948,-563.2513 934.1304,-558.6337 923.7965,-556.297 924.5948,-563.2513"/>
</g>
<!-- ヨドバシゴールドポイント -->
<g id="node27" class="node">
<title>ヨドバシゴールドポイント</title>
<polygon fill="none" stroke="#000000" points="781,-694 593,-694 593,-658 781,-658 781,-694"/>
<text text-anchor="middle" x="687" y="-672.3" font-family="Times,serif" font-size="14.00" fill="#000000">ヨドバシゴールドポイント</text>
</g>
<!-- ヨドバシゴールドポイント&#45;&gt;ヨドバシカメラ -->
<g id="edge46" class="edge">
<title>ヨドバシゴールドポイント&#45;&gt;ヨドバシカメラ</title>
<path fill="none" stroke="#000000" d="M781.07,-682.043C810.3473,-684.7553 842.6426,-688.6024 872,-694 883.226,-696.064 895.0133,-698.766 906.4347,-701.677"/>
<polygon fill="#000000" stroke="#000000" points="905.7934,-705.1271 916.3542,-704.2781 907.5691,-698.356 905.7934,-705.1271"/>
</g>
<!-- 切符&#45;&gt;現金 -->
<g id="edge69" class="edge">
<title>切符&#45;&gt;現金</title>
<path fill="none" stroke="#000000" d="M817.7635,-1717.7884C754.1736,-1721.5513 595.8414,-1721.7284 523.3319,-1718.3198"/>
<polygon fill="#000000" stroke="#000000" points="523.4481,-1714.8212 513.278,-1717.7909 523.0803,-1721.8115 523.4481,-1714.8212"/>
</g>
<!-- 切符&#45;&gt;電車 -->
<g id="edge68" class="edge">
<title>切符&#45;&gt;電車</title>
<path fill="none" stroke="#000000" stroke-width="2" d="M872.1474,-1708.1303C891.1412,-1704.0235 916.7411,-1698.4884 937.5867,-1693.9813"/>
<polygon fill="#000000" stroke="#000000" stroke-width="2" points="938.3538,-1697.3963 947.3883,-1691.862 936.8745,-1690.5544 938.3538,-1697.3963"/>
</g>
<!-- ローソン&#45;&gt;Ponta -->
<g id="edge41" class="edge">
<title>ローソン&#45;&gt;Ponta</title>
<path fill="none" stroke="#000000" d="M937.4617,-789.0117C882.651,-808.267 780.4682,-844.1642 725.0699,-863.6259"/>
<polygon fill="#000000" stroke="#000000" points="723.8923,-860.3298 715.6177,-866.9465 726.2125,-866.9341 723.8923,-860.3298"/>
<text text-anchor="middle" x="845" y="-834.8" font-family="Times,serif" font-size="14.00" fill="#000000">1%</text>
</g>
<!-- ファミリーマート&#45;&gt;Tポイント -->
<g id="edge43" class="edge">
<title>ファミリーマート&#45;&gt;Tポイント</title>
<path fill="none" stroke="#000000" d="M953.8907,-1048.1145C937.7679,-1061.4312 914.2548,-1079.0464 891,-1090 842.6871,-1112.7566 781.6512,-1120.5471 738.985,-1123.0803"/>
<polygon fill="#000000" stroke="#000000" points="738.6295,-1119.5939 728.8233,-1123.6052 738.9906,-1126.5846 738.6295,-1119.5939"/>
<text text-anchor="middle" x="845" y="-1116.8" font-family="Times,serif" font-size="14.00" fill="#000000">0.5%</text>
</g>
<!-- 大阪地下鉄&#45;&gt;三井住友VISAカード -->
<g id="edge14" class="edge">
<title>大阪地下鉄&#45;&gt;三井住友VISAカード</title>
<path fill="none" stroke="#000000" d="M930.3264,-1830.9744C891.117,-1828.357 832.2632,-1824.5955 781,-1822 651.5934,-1815.4481 501.5375,-1809.9555 409.3112,-1806.8211"/>
<polygon fill="#000000" stroke="#000000" points="409.2999,-1803.3188 399.1872,-1806.4786 409.0631,-1810.3148 409.2999,-1803.3188"/>
<text text-anchor="middle" x="687" y="-1825.8" font-family="Times,serif" font-size="14.00" fill="#000000">10%</text>
</g>
<!-- ウェルシア&#45;&gt;Tポイント -->
<g id="edge48" class="edge">
<title>ウェルシア&#45;&gt;Tポイント</title>
<path fill="none" stroke="#000000" d="M930.1724,-993.5097C923.0359,-996.5467 915.7721,-999.7703 909,-1003 843.715,-1034.1355 770.497,-1075.3206 726.6068,-1100.7183"/>
<polygon fill="#000000" stroke="#000000" points="724.5909,-1097.8415 717.6996,-1105.889 728.1052,-1103.8954 724.5909,-1097.8415"/>
<text text-anchor="middle" x="845" y="-1052.8" font-family="Times,serif" font-size="14.00" fill="#000000">1%</text>
</g>
<!-- ビックカメラ&#45;&gt;ビックポイント -->
<g id="edge18" class="edge">
<title>ビックカメラ&#45;&gt;ビックポイント</title>
<path fill="none" stroke="#000000" stroke-dasharray="5,2" d="M954.7209,-1332.9645C935.293,-1316.5685 903.9888,-1293.5275 872,-1284 833.9134,-1272.6564 789.7416,-1277.0513 754.1132,-1284.6844"/>
<polygon fill="#000000" stroke="#000000" points="753.2792,-1281.2846 744.3029,-1286.9128 754.8298,-1288.1108 753.2792,-1281.2846"/>
<text text-anchor="middle" x="845" y="-1287.8" font-family="Times,serif" font-size="14.00" fill="#000000">9.5%</text>
</g>
<!-- ヨドバシカメラ&#45;&gt;ヨドバシゴールドポイント -->
<g id="edge45" class="edge">
<title>ヨドバシカメラ&#45;&gt;ヨドバシゴールドポイント</title>
<path fill="none" stroke="#000000" d="M916.2335,-712.6774C880.3469,-706.9355 833.2976,-699.4076 791.1676,-692.6668"/>
<polygon fill="#000000" stroke="#000000" points="791.5657,-689.1861 781.1383,-691.0621 790.4597,-696.0982 791.5657,-689.1861"/>
<text text-anchor="middle" x="845" y="-709.8" font-family="Times,serif" font-size="14.00" fill="#000000">10%</text>
</g>
<!-- FRESCO&#45;&gt;FRESCOポイント -->
<g id="edge61" class="edge">
<title>FRESCO&#45;&gt;FRESCOポイント</title>
<path fill="none" stroke="#000000" d="M934.4267,-565.0717C920.7493,-568.4558 905.2984,-571.8483 891,-574 850.1012,-580.1547 804.1616,-583.3999 766.2471,-585.109"/>
<polygon fill="#000000" stroke="#000000" points="765.6202,-581.6323 755.7769,-585.5515 765.9158,-588.626 765.6202,-581.6323"/>
<text text-anchor="middle" x="845" y="-585.8" font-family="Times,serif" font-size="14.00" fill="#000000">0.5%</text>
</g>
<!-- 吉野家&#45;&gt;Tポイント -->
<g id="edge66" class="edge">
<title>吉野家&#45;&gt;Tポイント</title>
<path fill="none" stroke="#000000" d="M944.7661,-1548.738C926.5081,-1542.813 904.0131,-1532.6332 890,-1516 815.0397,-1427.0238 835.6257,-1380.7221 781,-1278 756.6095,-1232.1344 724.3707,-1181.064 704.6885,-1150.7814"/>
<polygon fill="#000000" stroke="#000000" points="707.4042,-1148.5386 699.006,-1142.0794 701.5432,-1152.366 707.4042,-1148.5386"/>
<text text-anchor="middle" x="845" y="-1494.8" font-family="Times,serif" font-size="14.00" fill="#000000">0.5%</text>
</g>
<!-- Amazon&#45;&gt;Amazonポイント -->
<g id="edge53" class="edge">
<title>Amazon&#45;&gt;Amazonポイント</title>
<path fill="none" stroke="#000000" d="M937.3257,-233.806C893.3848,-234.9025 819.1343,-233.5347 762.8809,-230.8787"/>
<polygon fill="#000000" stroke="#000000" points="762.7593,-227.3684 752.5979,-230.3681 762.412,-234.3598 762.7593,-227.3684"/>
</g>
<!-- じゃらん&#45;&gt;Ponta -->
<g id="edge52" class="edge">
<title>じゃらん&#45;&gt;Ponta</title>
<path fill="none" stroke="#000000" d="M937.0913,-922.5435C922.6849,-922.7278 906.0772,-922.9097 891,-923 858.4073,-923.1952 849.9873,-922.2559 818,-916 786.3388,-909.8079 751.3598,-899.1934 725.5165,-890.6"/>
<polygon fill="#000000" stroke="#000000" points="726.3311,-887.1811 715.7369,-887.2998 724.0928,-893.8136 726.3311,-887.1811"/>
<text text-anchor="middle" x="845" y="-926.8" font-family="Times,serif" font-size="14.00" fill="#000000">2%</text>
</g>
</g>
</svg>
