<?xml version="1.0" encoding="UTF-8" standalone="no"?>
<!DOCTYPE svg PUBLIC "-//W3C//DTD SVG 1.1//EN"
 "http://www.w3.org/Graphics/SVG/1.1/DTD/svg11.dtd">
<!-- Generated by graphviz version 2.40.1 (0)
 -->
<!-- Title: MoneyFlow Pages: 1 -->
<svg width="1072pt" height="1816pt"
 viewBox="0.00 0.00 1072.00 1816.00" xmlns="http://www.w3.org/2000/svg" xmlns:xlink="http://www.w3.org/1999/xlink">
<g id="graph0" class="graph" transform="scale(1 1) rotate(0) translate(4 1812)">
<title>MoneyFlow</title>
<polygon fill="#ffffff" stroke="transparent" points="-4,4 -4,-1812 1068,-1812 1068,4 -4,4"/>
<!-- 収入 -->
<g id="node1" class="node">
<title>収入</title>
<text text-anchor="middle" x="27" y="-14.3" font-family="Times,serif" font-size="14.00" fill="#000000">収入</text>
</g>
<!-- 銀行口座 -->
<g id="node2" class="node">
<title>銀行口座</title>
<text text-anchor="middle" x="142" y="-14.3" font-family="Times,serif" font-size="14.00" fill="#000000">銀行口座</text>
</g>
<!-- 収入&#45;&gt;銀行口座 -->
<g id="edge1" class="edge">
<title>収入&#45;&gt;銀行口座</title>
<path fill="none" stroke="#000000" d="M54.2534,-18C69.3972,-18 88.4539,-18 104.9357,-18"/>
</g>
<!-- クレジットカード -->
<g id="node3" class="node">
<title>クレジットカード</title>
<text text-anchor="middle" x="322" y="-14.3" font-family="Times,serif" font-size="14.00" fill="#000000">クレジットカード</text>
</g>
<!-- 銀行口座&#45;&gt;クレジットカード -->
<g id="edge2" class="edge">
<title>銀行口座&#45;&gt;クレジットカード</title>
<path fill="none" stroke="#000000" d="M179.2961,-18C201.6417,-18 230.6798,-18 256.7236,-18"/>
</g>
<!-- マネー -->
<g id="node4" class="node">
<title>マネー</title>
<text text-anchor="middle" x="485" y="-14.3" font-family="Times,serif" font-size="14.00" fill="#000000">マネー</text>
</g>
<!-- クレジットカード&#45;&gt;マネー -->
<g id="edge3" class="edge">
<title>クレジットカード&#45;&gt;マネー</title>
<path fill="none" stroke="#000000" d="M387.3591,-18C410.9188,-18 436.353,-18 455.3549,-18"/>
</g>
<!-- ポイント -->
<g id="node5" class="node">
<title>ポイント</title>
<text text-anchor="middle" x="692" y="-14.3" font-family="Times,serif" font-size="14.00" fill="#000000">ポイント</text>
</g>
<!-- マネー&#45;&gt;ポイント -->
<g id="edge4" class="edge">
<title>マネー&#45;&gt;ポイント</title>
<path fill="none" stroke="#000000" d="M514.6581,-18C551.5493,-18 614.5569,-18 654.6899,-18"/>
</g>
<!-- 金券 -->
<g id="node6" class="node">
<title>金券</title>
<text text-anchor="middle" x="870" y="-14.3" font-family="Times,serif" font-size="14.00" fill="#000000">金券</text>
</g>
<!-- ポイント&#45;&gt;金券 -->
<g id="edge5" class="edge">
<title>ポイント&#45;&gt;金券</title>
<path fill="none" stroke="#000000" d="M729.3146,-18C763.262,-18 812.5623,-18 842.8847,-18"/>
</g>
<!-- 支出 -->
<g id="node7" class="node">
<title>支出</title>
<text text-anchor="middle" x="1006" y="-14.3" font-family="Times,serif" font-size="14.00" fill="#000000">支出</text>
</g>
<!-- 金券&#45;&gt;支出 -->
<g id="edge6" class="edge">
<title>金券&#45;&gt;支出</title>
<path fill="none" stroke="#000000" d="M897.1948,-18C920.9147,-18 955.1464,-18 978.8524,-18"/>
</g>
<!-- 給与 -->
<g id="node8" class="node">
<title>給与</title>
<polygon fill="none" stroke="#000000" points="54,-1531 0,-1531 0,-1495 54,-1495 54,-1531"/>
<text text-anchor="middle" x="27" y="-1509.3" font-family="Times,serif" font-size="14.00" fill="#000000">給与</text>
</g>
<!-- 三井住友銀行 -->
<g id="node9" class="node">
<title>三井住友銀行</title>
<polygon fill="none" stroke="#000000" points="193,-1531 91,-1531 91,-1495 193,-1495 193,-1531"/>
<text text-anchor="middle" x="142" y="-1509.3" font-family="Times,serif" font-size="14.00" fill="#000000">三井住友銀行</text>
</g>
<!-- 給与&#45;&gt;三井住友銀行 -->
<g id="edge7" class="edge">
<title>給与&#45;&gt;三井住友銀行</title>
<path fill="none" stroke="#000000" stroke-width="2" d="M54.2534,-1513C62.2529,-1513 71.3442,-1513 80.571,-1513"/>
<polygon fill="#000000" stroke="#000000" stroke-width="2" points="80.5912,-1516.5001 90.5911,-1513 80.5911,-1509.5001 80.5912,-1516.5001"/>
</g>
<!-- 住信SBI銀行 -->
<g id="node10" class="node">
<title>住信SBI銀行</title>
<polygon fill="none" stroke="#000000" points="192,-1260 92,-1260 92,-1224 192,-1224 192,-1260"/>
<text text-anchor="middle" x="142" y="-1238.3" font-family="Times,serif" font-size="14.00" fill="#000000">住信SBI銀行</text>
</g>
<!-- 三井住友銀行&#45;&gt;住信SBI銀行 -->
<g id="edge9" class="edge">
<title>三井住友銀行&#45;&gt;住信SBI銀行</title>
<path fill="none" stroke="#000000" stroke-width="2" d="M142,-1494.7356C142,-1419.9357 142,-1345.1358 142,-1270.3358"/>
<polygon fill="#000000" stroke="#000000" stroke-width="2" points="145.5001,-1270.2607 142,-1260.2607 138.5001,-1270.2608 145.5001,-1270.2607"/>
</g>
<!-- 三井住友VISAカード -->
<g id="node11" class="node">
<title>三井住友VISAカード</title>
<polygon fill="none" stroke="#000000" points="398.5,-1658 245.5,-1658 245.5,-1622 398.5,-1622 398.5,-1658"/>
<text text-anchor="middle" x="322" y="-1636.3" font-family="Times,serif" font-size="14.00" fill="#000000">三井住友VISAカード</text>
</g>
<!-- 三井住友銀行&#45;&gt;三井住友VISAカード -->
<g id="edge13" class="edge">
<title>三井住友銀行&#45;&gt;三井住友VISAカード</title>
<path fill="none" stroke="#000000" stroke-width="2" d="M159.1645,-1531.0497C172.5578,-1544.5876 192.0169,-1563.1002 211,-1577 231.4013,-1591.9383 255.67,-1606.0769 276.3047,-1617.1605"/>
<polygon fill="#000000" stroke="#000000" stroke-width="2" points="274.7271,-1620.2855 285.2023,-1621.8731 278.0034,-1614.0996 274.7271,-1620.2855"/>
</g>
<!-- 現金 -->
<g id="node16" class="node">
<title>現金</title>
<polygon fill="none" stroke="#000000" points="512,-1345 458,-1345 458,-1309 512,-1309 512,-1345"/>
<text text-anchor="middle" x="485" y="-1323.3" font-family="Times,serif" font-size="14.00" fill="#000000">現金</text>
</g>
<!-- 三井住友銀行&#45;&gt;現金 -->
<g id="edge8" class="edge">
<title>三井住友銀行&#45;&gt;現金</title>
<path fill="none" stroke="#000000" stroke-width="2" d="M175.1999,-1494.9965C239.75,-1459.9927 381.6991,-1383.0174 448.6681,-1346.7019"/>
<polygon fill="#000000" stroke="#000000" stroke-width="2" points="450.4819,-1349.6998 457.6042,-1341.856 447.145,-1343.5463 450.4819,-1349.6998"/>
</g>
<!-- 関西電力 -->
<g id="node39" class="node">
<title>関西電力</title>
<polygon fill="none" stroke="#000000" points="1043,-1581 969,-1581 969,-1545 1043,-1545 1043,-1581"/>
<text text-anchor="middle" x="1006" y="-1559.3" font-family="Times,serif" font-size="14.00" fill="#000000">関西電力</text>
</g>
<!-- 三井住友銀行&#45;&gt;関西電力 -->
<g id="edge10" class="edge">
<title>三井住友銀行&#45;&gt;関西電力</title>
<path fill="none" stroke="#000000" stroke-width="2" d="M182.5756,-1531.0511C218.4879,-1545.373 272.7015,-1563 322,-1563 322,-1563 322,-1563 870,-1563 899.4945,-1563 932.5871,-1563 958.7435,-1563"/>
<polygon fill="#000000" stroke="#000000" stroke-width="2" points="958.7685,-1566.5001 968.7684,-1563 958.7684,-1559.5001 958.7685,-1566.5001"/>
</g>
<!-- ビックカメラSuicaカード -->
<g id="node12" class="node">
<title>ビックカメラSuicaカード</title>
<polygon fill="none" stroke="#000000" points="414,-1260 230,-1260 230,-1224 414,-1224 414,-1260"/>
<text text-anchor="middle" x="322" y="-1238.3" font-family="Times,serif" font-size="14.00" fill="#000000">ビックカメラSuicaカード</text>
</g>
<!-- 住信SBI銀行&#45;&gt;ビックカメラSuicaカード -->
<g id="edge34" class="edge">
<title>住信SBI銀行&#45;&gt;ビックカメラSuicaカード</title>
<path fill="none" stroke="#000000" stroke-width="2" d="M192.14,-1242C200.7724,-1242 210.018,-1242 219.4511,-1242"/>
<polygon fill="#000000" stroke="#000000" stroke-width="2" points="219.7405,-1245.5001 229.7405,-1242 219.7404,-1238.5001 219.7405,-1245.5001"/>
</g>
<!-- リクルートカード -->
<g id="node13" class="node">
<title>リクルートカード</title>
<polygon fill="none" stroke="#000000" points="386.5,-390 257.5,-390 257.5,-354 386.5,-354 386.5,-390"/>
<text text-anchor="middle" x="322" y="-368.3" font-family="Times,serif" font-size="14.00" fill="#000000">リクルートカード</text>
</g>
<!-- 住信SBI銀行&#45;&gt;リクルートカード -->
<g id="edge35" class="edge">
<title>住信SBI銀行&#45;&gt;リクルートカード</title>
<path fill="none" stroke="#000000" stroke-width="2" d="M145.7596,-1223.8288C168.5672,-1113.5919 288.338,-534.6999 316.2032,-400.0178"/>
<polygon fill="#000000" stroke="#000000" stroke-width="2" points="319.6624,-400.573 318.2611,-390.0712 312.8076,-399.1547 319.6624,-400.573"/>
</g>
<!-- 住信SBI銀行&#45;&gt;現金 -->
<g id="edge32" class="edge">
<title>住信SBI銀行&#45;&gt;現金</title>
<path fill="none" stroke="#000000" stroke-width="2" d="M192.0742,-1258.0656C204.4213,-1261.8327 217.6473,-1265.705 230,-1269 306.79,-1289.4831 397.7925,-1309.0727 447.6669,-1319.4136"/>
<polygon fill="#000000" stroke="#000000" stroke-width="2" points="447.1643,-1322.8836 457.6654,-1321.4769 448.5791,-1316.028 447.1643,-1322.8836"/>
</g>
<!-- 家賃 -->
<g id="node31" class="node">
<title>家賃</title>
<polygon fill="none" stroke="#000000" points="1033,-90 979,-90 979,-54 1033,-54 1033,-90"/>
<text text-anchor="middle" x="1006" y="-68.3" font-family="Times,serif" font-size="14.00" fill="#000000">家賃</text>
</g>
<!-- 住信SBI銀行&#45;&gt;家賃 -->
<g id="edge33" class="edge">
<title>住信SBI銀行&#45;&gt;家賃</title>
<path fill="none" stroke="#000000" stroke-width="2" d="M142.8151,-1223.6221C149.6524,-1074.773 200.2325,-72 322,-72 322,-72 322,-72 870,-72 903.3507,-72 941.3018,-72 968.6235,-72"/>
<polygon fill="#000000" stroke="#000000" stroke-width="2" points="968.9063,-75.5001 978.9063,-72 968.9062,-68.5001 968.9063,-75.5001"/>
</g>
<!-- PiTaPa -->
<g id="node15" class="node">
<title>PiTaPa</title>
<polygon fill="none" stroke="#000000" points="517.5,-1727 452.5,-1727 452.5,-1691 517.5,-1691 517.5,-1727"/>
<text text-anchor="middle" x="485" y="-1705.3" font-family="Times,serif" font-size="14.00" fill="#000000">PiTaPa</text>
</g>
<!-- 三井住友VISAカード&#45;&gt;PiTaPa -->
<g id="edge15" class="edge">
<title>三井住友VISAカード&#45;&gt;PiTaPa</title>
<path fill="none" stroke="#000000" stroke-width="2" d="M364.8263,-1658.1289C388.9749,-1668.3513 419.0205,-1681.07 443.0278,-1691.2326"/>
<polygon fill="#000000" stroke="#000000" stroke-width="2" points="441.6679,-1694.4576 452.2412,-1695.1328 444.3967,-1688.0114 441.6679,-1694.4576"/>
</g>
<!-- ワールドプレゼントポイント -->
<g id="node22" class="node">
<title>ワールドプレゼントポイント</title>
<polygon fill="none" stroke="#000000" points="792,-1627 592,-1627 592,-1591 792,-1591 792,-1627"/>
<text text-anchor="middle" x="692" y="-1605.3" font-family="Times,serif" font-size="14.00" fill="#000000">ワールドプレゼントポイント</text>
</g>
<!-- 三井住友VISAカード&#45;&gt;ワールドプレゼントポイント -->
<g id="edge14" class="edge">
<title>三井住友VISAカード&#45;&gt;ワールドプレゼントポイント</title>
<path fill="none" stroke="#000000" stroke-dasharray="5,2" d="M398.6642,-1633.5768C451.5893,-1629.1425 522.7788,-1623.178 581.7721,-1618.2353"/>
<polygon fill="#000000" stroke="#000000" points="582.2094,-1621.711 591.8822,-1617.3882 581.6249,-1614.7355 582.2094,-1621.711"/>
<text text-anchor="middle" x="485" y="-1632.8" font-family="Times,serif" font-size="14.00" fill="#000000">0.5%</text>
</g>
<!-- Suica -->
<g id="node14" class="node">
<title>Suica</title>
<polygon fill="none" stroke="#000000" points="513,-1430 457,-1430 457,-1394 513,-1394 513,-1430"/>
<text text-anchor="middle" x="485" y="-1408.3" font-family="Times,serif" font-size="14.00" fill="#000000">Suica</text>
</g>
<!-- ビックカメラSuicaカード&#45;&gt;Suica -->
<g id="edge24" class="edge">
<title>ビックカメラSuicaカード&#45;&gt;Suica</title>
<path fill="none" stroke="#000000" stroke-width="2" d="M392.7677,-1260.0819C407.7402,-1266.75 422.2457,-1275.7899 433,-1288 453.0961,-1310.8165 439.2093,-1325.9746 451,-1354 455.4591,-1364.599 461.5214,-1375.6297 467.2926,-1385.1903"/>
<polygon fill="#000000" stroke="#000000" stroke-width="2" points="464.4213,-1387.2009 472.6747,-1393.8441 470.3654,-1383.504 464.4213,-1387.2009"/>
</g>
<!-- JREポイント -->
<g id="node23" class="node">
<title>JREポイント</title>
<polygon fill="none" stroke="#000000" points="742.5,-1526 641.5,-1526 641.5,-1490 742.5,-1490 742.5,-1526"/>
<text text-anchor="middle" x="692" y="-1504.3" font-family="Times,serif" font-size="14.00" fill="#000000">JREポイント</text>
</g>
<!-- ビックカメラSuicaカード&#45;&gt;JREポイント -->
<g id="edge19" class="edge">
<title>ビックカメラSuicaカード&#45;&gt;JREポイント</title>
<path fill="none" stroke="#000000" d="M328.5019,-1260.3486C348.8736,-1314.452 417.337,-1472.5193 537,-1520 566.6229,-1531.754 601.8945,-1530.1121 631.3019,-1524.9313"/>
<polygon fill="#000000" stroke="#000000" points="632.2884,-1528.3054 641.4402,-1522.9674 630.9571,-1521.4331 632.2884,-1528.3054"/>
<text text-anchor="middle" x="485" y="-1514.8" font-family="Times,serif" font-size="14.00" fill="#000000">0.5%</text>
</g>
<!-- ビックポイント -->
<g id="node24" class="node">
<title>ビックポイント</title>
<polygon fill="none" stroke="#000000" points="750,-1125 634,-1125 634,-1089 750,-1089 750,-1125"/>
<text text-anchor="middle" x="692" y="-1103.3" font-family="Times,serif" font-size="14.00" fill="#000000">ビックポイント</text>
</g>
<!-- ビックカメラSuicaカード&#45;&gt;ビックポイント -->
<g id="edge22" class="edge">
<title>ビックカメラSuicaカード&#45;&gt;ビックポイント</title>
<path fill="none" stroke="#000000" d="M334.8504,-1223.5786C355.5394,-1195.7343 399.2015,-1144.0524 451,-1124 506.3248,-1102.5825 574.0821,-1099.642 623.646,-1101.2992"/>
<polygon fill="#000000" stroke="#000000" points="623.8012,-1104.8083 633.9352,-1101.7176 624.0857,-1097.814 623.8012,-1104.8083"/>
<text text-anchor="middle" x="485" y="-1127.8" font-family="Times,serif" font-size="14.00" fill="#000000">0.5%</text>
</g>
<!-- ビックカメラ -->
<g id="node43" class="node">
<title>ビックカメラ</title>
<polygon fill="none" stroke="#000000" points="1056.5,-1152 955.5,-1152 955.5,-1116 1056.5,-1116 1056.5,-1152"/>
<text text-anchor="middle" x="1006" y="-1130.3" font-family="Times,serif" font-size="14.00" fill="#000000">ビックカメラ</text>
</g>
<!-- ビックカメラSuicaカード&#45;&gt;ビックカメラ -->
<g id="edge20" class="edge">
<title>ビックカメラSuicaカード&#45;&gt;ビックカメラ</title>
<path fill="none" stroke="#000000" stroke-width="2" stroke-dasharray="5,2" d="M340.2759,-1223.9895C368.6898,-1197.9835 426.3193,-1153 485,-1153 485,-1153 485,-1153 870,-1153 894.713,-1153 921.7112,-1149.8847 945.0919,-1146.177"/>
<polygon fill="#000000" stroke="#000000" stroke-width="2" points="945.9213,-1149.5874 955.2149,-1144.5003 944.7773,-1142.6815 945.9213,-1149.5874"/>
</g>
<!-- EX予約 -->
<g id="node53" class="node">
<title>EX予約</title>
<polygon fill="none" stroke="#000000" points="1039,-1260 973,-1260 973,-1224 1039,-1224 1039,-1260"/>
<text text-anchor="middle" x="1006" y="-1238.3" font-family="Times,serif" font-size="14.00" fill="#000000">EX予約</text>
</g>
<!-- ビックカメラSuicaカード&#45;&gt;EX予約 -->
<g id="edge29" class="edge">
<title>ビックカメラSuicaカード&#45;&gt;EX予約</title>
<path fill="none" stroke="#000000" stroke-width="2" stroke-dasharray="5,2" d="M414.2371,-1242C437.3431,-1242 462.0781,-1242 485,-1242 485,-1242 485,-1242 870,-1242 900.9536,-1242 935.8701,-1242 962.5731,-1242"/>
<polygon fill="#000000" stroke="#000000" stroke-width="2" points="962.7445,-1245.5001 972.7444,-1242 962.7444,-1238.5001 962.7445,-1245.5001"/>
</g>
<!-- nanaco -->
<g id="node17" class="node">
<title>nanaco</title>
<polygon fill="none" stroke="#000000" points="519,-942 451,-942 451,-906 519,-906 519,-942"/>
<text text-anchor="middle" x="485" y="-920.3" font-family="Times,serif" font-size="14.00" fill="#000000">nanaco</text>
</g>
<!-- リクルートカード&#45;&gt;nanaco -->
<g id="edge57" class="edge">
<title>リクルートカード&#45;&gt;nanaco</title>
<path fill="none" stroke="#000000" stroke-width="2" d="M326.4885,-390.116C340.6687,-446.9352 386.2788,-626.5684 432,-773 445.5402,-816.3652 463.4061,-865.9378 474.5478,-896.0959"/>
<polygon fill="#000000" stroke="#000000" stroke-width="2" points="471.2925,-897.3841 478.0525,-905.5421 477.8554,-894.9491 471.2925,-897.3841"/>
</g>
<!-- Edy -->
<g id="node18" class="node">
<title>Edy</title>
<polygon fill="none" stroke="#000000" points="512,-593 458,-593 458,-557 512,-557 512,-593"/>
<text text-anchor="middle" x="485" y="-571.3" font-family="Times,serif" font-size="14.00" fill="#000000">Edy</text>
</g>
<!-- リクルートカード&#45;&gt;Edy -->
<g id="edge43" class="edge">
<title>リクルートカード&#45;&gt;Edy</title>
<path fill="none" stroke="#000000" stroke-width="2" d="M336.4652,-390.0149C365.3909,-426.039 430.4633,-507.0801 464.0545,-548.9145"/>
<polygon fill="#000000" stroke="#000000" stroke-width="2" points="461.3428,-551.1276 470.3329,-556.7337 466.801,-546.7449 461.3428,-551.1276"/>
</g>
<!-- Ponta -->
<g id="node19" class="node">
<title>Ponta</title>
<polygon fill="none" stroke="#000000" points="720.5,-471 663.5,-471 663.5,-435 720.5,-435 720.5,-471"/>
<text text-anchor="middle" x="692" y="-449.3" font-family="Times,serif" font-size="14.00" fill="#000000">Ponta</text>
</g>
<!-- リクルートカード&#45;&gt;Ponta -->
<g id="edge52" class="edge">
<title>リクルートカード&#45;&gt;Ponta</title>
<path fill="none" stroke="#000000" d="M386.8725,-386.2018C464.0283,-403.0927 590.2973,-430.7354 653.4688,-444.5648"/>
<polygon fill="#000000" stroke="#000000" points="652.8959,-448.0222 663.4131,-446.7418 654.3929,-441.1841 652.8959,-448.0222"/>
<text text-anchor="middle" x="485" y="-419.8" font-family="Times,serif" font-size="14.00" fill="#000000">1.2%</text>
</g>
<!-- NHK -->
<g id="node36" class="node">
<title>NHK</title>
<polygon fill="none" stroke="#000000" points="1033,-314 979,-314 979,-278 1033,-278 1033,-314"/>
<text text-anchor="middle" x="1006" y="-292.3" font-family="Times,serif" font-size="14.00" fill="#000000">NHK</text>
</g>
<!-- リクルートカード&#45;&gt;NHK -->
<g id="edge36" class="edge">
<title>リクルートカード&#45;&gt;NHK</title>
<path fill="none" stroke="#000000" stroke-width="2" d="M344.2179,-353.9891C374.2525,-331.5148 430.3589,-296 485,-296 485,-296 485,-296 870,-296 903.3507,-296 941.3018,-296 968.6235,-296"/>
<polygon fill="#000000" stroke="#000000" stroke-width="2" points="968.9063,-299.5001 978.9063,-296 968.9062,-292.5001 968.9063,-299.5001"/>
</g>
<!-- NTT -->
<g id="node37" class="node">
<title>NTT</title>
<polygon fill="none" stroke="#000000" points="1033,-260 979,-260 979,-224 1033,-224 1033,-260"/>
<text text-anchor="middle" x="1006" y="-238.3" font-family="Times,serif" font-size="14.00" fill="#000000">NTT</text>
</g>
<!-- リクルートカード&#45;&gt;NTT -->
<g id="edge37" class="edge">
<title>リクルートカード&#45;&gt;NTT</title>
<path fill="none" stroke="#000000" stroke-width="2" d="M335.2339,-353.9364C360.4658,-321.7915 418.8695,-258 485,-258 485,-258 485,-258 870,-258 903.6239,-258 941.6055,-253.1165 968.8672,-248.7454"/>
<polygon fill="#000000" stroke="#000000" stroke-width="2" points="969.4658,-252.194 978.7592,-247.1065 968.3215,-245.2882 969.4658,-252.194"/>
</g>
<!-- ASAHIネット -->
<g id="node38" class="node">
<title>ASAHIネット</title>
<polygon fill="none" stroke="#000000" points="1060.5,-144 951.5,-144 951.5,-108 1060.5,-108 1060.5,-144"/>
<text text-anchor="middle" x="1006" y="-122.3" font-family="Times,serif" font-size="14.00" fill="#000000">ASAHIネット</text>
</g>
<!-- リクルートカード&#45;&gt;ASAHIネット -->
<g id="edge38" class="edge">
<title>リクルートカード&#45;&gt;ASAHIネット</title>
<path fill="none" stroke="#000000" stroke-width="2" d="M324.9417,-353.911C335.3103,-297.1004 375.6177,-126 485,-126 485,-126 485,-126 870,-126 893.2394,-126 918.7126,-126 941.2666,-126"/>
<polygon fill="#000000" stroke="#000000" stroke-width="2" points="941.4053,-129.5001 951.4053,-126 941.4053,-122.5001 941.4053,-129.5001"/>
</g>
<!-- アイハート -->
<g id="node41" class="node">
<title>アイハート</title>
<polygon fill="none" stroke="#000000" points="1049,-771 963,-771 963,-735 1049,-735 1049,-771"/>
<text text-anchor="middle" x="1006" y="-749.3" font-family="Times,serif" font-size="14.00" fill="#000000">アイハート</text>
</g>
<!-- リクルートカード&#45;&gt;アイハート -->
<g id="edge42" class="edge">
<title>リクルートカード&#45;&gt;アイハート</title>
<path fill="none" stroke="#000000" stroke-width="2" d="M325.4766,-390.1467C340.6421,-466.6581 403.8945,-759 485,-759 485,-759 485,-759 810.5,-759 858.6598,-759 913.4617,-757.1584 952.7646,-755.5158"/>
<polygon fill="#000000" stroke="#000000" stroke-width="2" points="953.0728,-759.0059 962.914,-755.0817 952.7735,-752.0123 953.0728,-759.0059"/>
</g>
<!-- Amazon -->
<g id="node51" class="node">
<title>Amazon</title>
<polygon fill="none" stroke="#000000" points="1043,-198 969,-198 969,-162 1043,-162 1043,-198"/>
<text text-anchor="middle" x="1006" y="-176.3" font-family="Times,serif" font-size="14.00" fill="#000000">Amazon</text>
</g>
<!-- リクルートカード&#45;&gt;Amazon -->
<g id="edge40" class="edge">
<title>リクルートカード&#45;&gt;Amazon</title>
<path fill="none" stroke="#000000" stroke-width="2" d="M326.6666,-353.9052C340.9201,-303.3001 388.8848,-164 485,-164 485,-164 485,-164 870,-164 899.6979,-164 932.7954,-167.8097 958.9035,-171.7111"/>
<polygon fill="#000000" stroke="#000000" stroke-width="2" points="958.4887,-175.1885 968.9067,-173.2609 959.5605,-168.2711 958.4887,-175.1885"/>
</g>
<!-- iTunes -->
<g id="node52" class="node">
<title>iTunes</title>
<polygon fill="none" stroke="#000000" points="1038.5,-368 973.5,-368 973.5,-332 1038.5,-332 1038.5,-368"/>
<text text-anchor="middle" x="1006" y="-346.3" font-family="Times,serif" font-size="14.00" fill="#000000">iTunes</text>
</g>
<!-- リクルートカード&#45;&gt;iTunes -->
<g id="edge39" class="edge">
<title>リクルートカード&#45;&gt;iTunes</title>
<path fill="none" stroke="#000000" stroke-width="2" stroke-dasharray="5,2" d="M372.6839,-353.8903C404.5061,-344.103 446.6442,-334 485,-334 485,-334 485,-334 870,-334 901.377,-334 936.5487,-338.2526 963.2628,-342.373"/>
<polygon fill="#000000" stroke="#000000" stroke-width="2" points="962.9984,-345.8751 973.4254,-343.9967 964.1028,-338.9628 962.9984,-345.8751"/>
</g>
<!-- じゃらん -->
<g id="node54" class="node">
<title>じゃらん</title>
<polygon fill="none" stroke="#000000" points="1043,-422 969,-422 969,-386 1043,-386 1043,-422"/>
<text text-anchor="middle" x="1006" y="-400.3" font-family="Times,serif" font-size="14.00" fill="#000000">じゃらん</text>
</g>
<!-- リクルートカード&#45;&gt;じゃらん -->
<g id="edge41" class="edge">
<title>リクルートカード&#45;&gt;じゃらん</title>
<path fill="none" stroke="#000000" stroke-width="2" d="M386.6479,-372C416.5731,-372 452.5981,-372 485,-372 485,-372 485,-372 870,-372 900.219,-372 933.2349,-379.5787 959.1686,-387.3596"/>
<polygon fill="#000000" stroke="#000000" stroke-width="2" points="958.1523,-390.7089 968.7406,-390.3363 960.231,-384.0246 958.1523,-390.7089"/>
</g>
<!-- Suica&#45;&gt;JREポイント -->
<g id="edge30" class="edge">
<title>Suica&#45;&gt;JREポイント</title>
<path fill="none" stroke="#000000" d="M492.5699,-1430.2043C500.8075,-1447.5709 515.7109,-1472.9585 537,-1486 565.0064,-1503.1565 601.109,-1509.018 631.4244,-1510.4251"/>
<polygon fill="#000000" stroke="#000000" points="631.358,-1513.9247 641.4633,-1510.7414 631.5785,-1506.9282 631.358,-1513.9247"/>
<text text-anchor="middle" x="555.5" y="-1504.8" font-family="Times,serif" font-size="14.00" fill="#000000">1.5%</text>
</g>
<!-- 電車 -->
<g id="node33" class="node">
<title>電車</title>
<polygon fill="none" stroke="#000000" points="1033,-1409 979,-1409 979,-1373 1033,-1373 1033,-1409"/>
<text text-anchor="middle" x="1006" y="-1387.3" font-family="Times,serif" font-size="14.00" fill="#000000">電車</text>
</g>
<!-- Suica&#45;&gt;電車 -->
<g id="edge25" class="edge">
<title>Suica&#45;&gt;電車</title>
<path fill="none" stroke="#000000" stroke-width="2" d="M513.0112,-1410.8709C600.5995,-1407.3405 869.3557,-1396.5077 968.6359,-1392.506"/>
<polygon fill="#000000" stroke="#000000" stroke-width="2" points="968.9455,-1395.9965 978.7963,-1392.0965 968.6635,-1389.0022 968.9455,-1395.9965"/>
</g>
<!-- 松屋 -->
<g id="node49" class="node">
<title>松屋</title>
<polygon fill="none" stroke="#000000" points="1033,-1468 979,-1468 979,-1432 1033,-1432 1033,-1468"/>
<text text-anchor="middle" x="1006" y="-1446.3" font-family="Times,serif" font-size="14.00" fill="#000000">松屋</text>
</g>
<!-- Suica&#45;&gt;松屋 -->
<g id="edge26" class="edge">
<title>Suica&#45;&gt;松屋</title>
<path fill="none" stroke="#000000" stroke-width="2" d="M513.2026,-1418.7752C520.8815,-1420.3979 529.2258,-1421.96 537,-1423 696.7583,-1444.3717 889.3583,-1448.8371 968.8852,-1449.7623"/>
<polygon fill="#000000" stroke="#000000" stroke-width="2" points="968.864,-1453.2622 978.9,-1449.8667 968.937,-1446.2625 968.864,-1453.2622"/>
</g>
<!-- 吉野家 -->
<g id="node50" class="node">
<title>吉野家</title>
<polygon fill="none" stroke="#000000" points="1035.5,-1206 976.5,-1206 976.5,-1170 1035.5,-1170 1035.5,-1206"/>
<text text-anchor="middle" x="1006" y="-1184.3" font-family="Times,serif" font-size="14.00" fill="#000000">吉野家</text>
</g>
<!-- Suica&#45;&gt;吉野家 -->
<g id="edge27" class="edge">
<title>Suica&#45;&gt;吉野家</title>
<path fill="none" stroke="#000000" stroke-width="2" d="M513.1261,-1407.2972C534.6856,-1403.7493 565.1898,-1398.8518 592,-1395 662.7456,-1384.836 857.2308,-1401.0864 911,-1354 959.0945,-1311.8831 906.9316,-1263.9929 948,-1215 953.1675,-1208.8354 960.053,-1203.9979 967.271,-1200.2299"/>
<polygon fill="#000000" stroke="#000000" stroke-width="2" points="968.8523,-1203.3554 976.4873,-1196.0098 965.938,-1196.9909 968.8523,-1203.3554"/>
</g>
<!-- 大阪地下鉄 -->
<g id="node34" class="node">
<title>大阪地下鉄</title>
<polygon fill="none" stroke="#000000" points="1050,-1781 962,-1781 962,-1745 1050,-1745 1050,-1781"/>
<text text-anchor="middle" x="1006" y="-1759.3" font-family="Times,serif" font-size="14.00" fill="#000000">大阪地下鉄</text>
</g>
<!-- PiTaPa&#45;&gt;大阪地下鉄 -->
<g id="edge16" class="edge">
<title>PiTaPa&#45;&gt;大阪地下鉄</title>
<path fill="none" stroke="#000000" stroke-width="2" d="M517.533,-1718.7089C523.9402,-1720.351 530.6465,-1721.8829 537,-1723 685.6452,-1749.1344 863.9146,-1758.379 951.6991,-1761.5014"/>
<polygon fill="#000000" stroke="#000000" stroke-width="2" points="951.5791,-1764.9993 961.6933,-1761.8442 951.8191,-1758.0034 951.5791,-1764.9993"/>
</g>
<!-- 山陽バス -->
<g id="node35" class="node">
<title>山陽バス</title>
<polygon fill="none" stroke="#000000" points="1043,-1727 969,-1727 969,-1691 1043,-1691 1043,-1727"/>
<text text-anchor="middle" x="1006" y="-1705.3" font-family="Times,serif" font-size="14.00" fill="#000000">山陽バス</text>
</g>
<!-- PiTaPa&#45;&gt;山陽バス -->
<g id="edge18" class="edge">
<title>PiTaPa&#45;&gt;山陽バス</title>
<path fill="none" stroke="#000000" stroke-width="2" stroke-dasharray="5,2" d="M517.5909,-1709C606.6488,-1709 854.3929,-1709 958.7239,-1709"/>
<polygon fill="#000000" stroke="#000000" stroke-width="2" points="958.9535,-1712.5001 968.9535,-1709 958.9535,-1705.5001 958.9535,-1712.5001"/>
</g>
<!-- 切符 -->
<g id="node30" class="node">
<title>切符</title>
<polygon fill="none" stroke="#000000" points="897,-1345 843,-1345 843,-1309 897,-1309 897,-1345"/>
<text text-anchor="middle" x="870" y="-1323.3" font-family="Times,serif" font-size="14.00" fill="#000000">切符</text>
</g>
<!-- 現金&#45;&gt;切符 -->
<g id="edge67" class="edge">
<title>現金&#45;&gt;切符</title>
<path fill="none" stroke="#000000" stroke-width="2" d="M512.0725,-1323.3326C579.5862,-1319.4065 755.5126,-1319.2307 832.7373,-1322.8051"/>
<polygon fill="#000000" stroke="#000000" stroke-width="2" points="832.7898,-1326.3124 842.9575,-1323.3343 833.1519,-1319.3218 832.7898,-1326.3124"/>
</g>
<!-- 飲食店 -->
<g id="node46" class="node">
<title>飲食店</title>
<polygon fill="none" stroke="#000000" points="1035.5,-1314 976.5,-1314 976.5,-1278 1035.5,-1278 1035.5,-1314"/>
<text text-anchor="middle" x="1006" y="-1292.3" font-family="Times,serif" font-size="14.00" fill="#000000">飲食店</text>
</g>
<!-- 現金&#45;&gt;飲食店 -->
<g id="edge66" class="edge">
<title>現金&#45;&gt;飲食店</title>
<path fill="none" stroke="#000000" stroke-width="2" d="M512.1693,-1324.3495C570.2508,-1318.7975 710.8365,-1305.9678 829,-1300 876.0787,-1297.6223 930.2729,-1296.6579 966.1615,-1296.2668"/>
<polygon fill="#000000" stroke="#000000" stroke-width="2" points="966.2652,-1299.766 976.2299,-1296.1669 966.1957,-1292.7663 966.2652,-1299.766"/>
</g>
<!-- nanacoポイント -->
<g id="node26" class="node">
<title>nanacoポイント</title>
<polygon fill="none" stroke="#000000" points="754.5,-988 629.5,-988 629.5,-952 754.5,-952 754.5,-988"/>
<text text-anchor="middle" x="692" y="-966.3" font-family="Times,serif" font-size="14.00" fill="#000000">nanacoポイント</text>
</g>
<!-- nanaco&#45;&gt;nanacoポイント -->
<g id="edge59" class="edge">
<title>nanaco&#45;&gt;nanacoポイント</title>
<path fill="none" stroke="#000000" d="M519.1818,-931.596C546.3557,-937.6346 585.3278,-946.2951 619.3872,-953.8638"/>
<polygon fill="#000000" stroke="#000000" points="618.7927,-957.317 629.3139,-956.0697 620.3113,-950.4837 618.7927,-957.317"/>
<text text-anchor="middle" x="555.5" y="-946.8" font-family="Times,serif" font-size="14.00" fill="#000000">1%</text>
</g>
<!-- セブンイレブン -->
<g id="node32" class="node">
<title>セブンイレブン</title>
<polygon fill="none" stroke="#000000" points="1063,-931 949,-931 949,-895 1063,-895 1063,-931"/>
<text text-anchor="middle" x="1006" y="-909.3" font-family="Times,serif" font-size="14.00" fill="#000000">セブンイレブン</text>
</g>
<!-- nanaco&#45;&gt;セブンイレブン -->
<g id="edge58" class="edge">
<title>nanaco&#45;&gt;セブンイレブン</title>
<path fill="none" stroke="#000000" stroke-width="2" d="M519.1843,-923.2783C604.1425,-921.4845 826.1002,-916.7983 938.5782,-914.4235"/>
<polygon fill="#000000" stroke="#000000" stroke-width="2" points="938.8609,-917.9184 948.7847,-914.208 938.7131,-910.92 938.8609,-917.9184"/>
</g>
<!-- 楽天スーパーポイント -->
<g id="node21" class="node">
<title>楽天スーパーポイント</title>
<polygon fill="none" stroke="#000000" points="771,-639 613,-639 613,-603 771,-603 771,-639"/>
<text text-anchor="middle" x="692" y="-617.3" font-family="Times,serif" font-size="14.00" fill="#000000">楽天スーパーポイント</text>
</g>
<!-- Edy&#45;&gt;楽天スーパーポイント -->
<g id="edge50" class="edge">
<title>Edy&#45;&gt;楽天スーパーポイント</title>
<path fill="none" stroke="#000000" d="M505.8147,-593.2754C514.7958,-600.0851 525.8006,-607.1014 537,-611 557.649,-618.188 580.7667,-621.8259 602.718,-623.4415"/>
<polygon fill="#000000" stroke="#000000" points="602.5151,-626.9355 612.7086,-624.0469 602.9387,-619.9483 602.5151,-626.9355"/>
<text text-anchor="middle" x="555.5" y="-624.8" font-family="Times,serif" font-size="14.00" fill="#000000">0.5%</text>
</g>
<!-- ウェルシア -->
<g id="node42" class="node">
<title>ウェルシア</title>
<polygon fill="none" stroke="#000000" points="1049.5,-985 962.5,-985 962.5,-949 1049.5,-949 1049.5,-985"/>
<text text-anchor="middle" x="1006" y="-963.3" font-family="Times,serif" font-size="14.00" fill="#000000">ウェルシア</text>
</g>
<!-- Edy&#45;&gt;ウェルシア -->
<g id="edge48" class="edge">
<title>Edy&#45;&gt;ウェルシア</title>
<path fill="none" stroke="#000000" stroke-width="2" d="M486.5949,-593.1737C491.8925,-642.2417 513.3262,-778.5125 592,-850 605.6189,-862.375 843.6703,-925.0478 952.4958,-953.2334"/>
<polygon fill="#000000" stroke="#000000" stroke-width="2" points="951.7414,-956.6534 962.2994,-955.7697 953.4948,-949.8765 951.7414,-956.6534"/>
</g>
<!-- ヨドバシカメラ -->
<g id="node44" class="node">
<title>ヨドバシカメラ</title>
<polygon fill="none" stroke="#000000" points="1064,-825 948,-825 948,-789 1064,-789 1064,-825"/>
<text text-anchor="middle" x="1006" y="-803.3" font-family="Times,serif" font-size="14.00" fill="#000000">ヨドバシカメラ</text>
</g>
<!-- Edy&#45;&gt;ヨドバシカメラ -->
<g id="edge45" class="edge">
<title>Edy&#45;&gt;ヨドバシカメラ</title>
<path fill="none" stroke="#000000" stroke-width="2" d="M494.7593,-593.1395C510.9543,-621.346 546.1879,-675.2522 592,-702 670.5169,-747.8428 703.8368,-722.7803 792,-745 841.1344,-757.3833 896.0191,-773.3278 937.9033,-785.9464"/>
<polygon fill="#000000" stroke="#000000" stroke-width="2" points="937.1314,-789.3695 947.7164,-788.9136 939.1575,-782.6691 937.1314,-789.3695"/>
</g>
<!-- 餃子の王将 -->
<g id="node45" class="node">
<title>餃子の王将</title>
<polygon fill="none" stroke="#000000" points="1050,-555 962,-555 962,-519 1050,-519 1050,-555"/>
<text text-anchor="middle" x="1006" y="-533.3" font-family="Times,serif" font-size="14.00" fill="#000000">餃子の王将</text>
</g>
<!-- Edy&#45;&gt;餃子の王将 -->
<g id="edge65" class="edge">
<title>Edy&#45;&gt;餃子の王将</title>
<path fill="none" stroke="#000000" stroke-width="2" d="M512.2777,-573.0105C594.5258,-567.0116 841.2005,-549.0199 951.5754,-540.9695"/>
<polygon fill="#000000" stroke="#000000" stroke-width="2" points="952.1024,-544.4405 961.8212,-540.2223 951.5931,-537.459 952.1024,-544.4405"/>
</g>
<!-- FRESCO -->
<g id="node47" class="node">
<title>FRESCO</title>
<polygon fill="none" stroke="#000000" points="1046,-609 966,-609 966,-573 1046,-573 1046,-609"/>
<text text-anchor="middle" x="1006" y="-587.3" font-family="Times,serif" font-size="14.00" fill="#000000">FRESCO</text>
</g>
<!-- Edy&#45;&gt;FRESCO -->
<g id="edge62" class="edge">
<title>Edy&#45;&gt;FRESCO</title>
<path fill="none" stroke="#000000" stroke-width="2" d="M512.2777,-575.8377C595.6414,-578.3978 847.9223,-586.1454 955.9906,-589.4642"/>
<polygon fill="#000000" stroke="#000000" stroke-width="2" points="955.8854,-592.9625 965.9881,-589.7712 956.1003,-585.9658 955.8854,-592.9625"/>
</g>
<!-- 業務スーパー -->
<g id="node48" class="node">
<title>業務スーパー</title>
<polygon fill="none" stroke="#000000" points="1056.5,-501 955.5,-501 955.5,-465 1056.5,-465 1056.5,-501"/>
<text text-anchor="middle" x="1006" y="-479.3" font-family="Times,serif" font-size="14.00" fill="#000000">業務スーパー</text>
</g>
<!-- Edy&#45;&gt;業務スーパー -->
<g id="edge61" class="edge">
<title>Edy&#45;&gt;業務スーパー</title>
<path fill="none" stroke="#000000" stroke-width="2" d="M512.1324,-567.7686C533.6815,-562.1803 564.6359,-554.4966 592,-549 716.8857,-523.9144 864.5097,-502.2814 945.413,-491.1047"/>
<polygon fill="#000000" stroke="#000000" stroke-width="2" points="945.9905,-494.5583 955.4205,-489.7286 945.0369,-487.6236 945.9905,-494.5583"/>
</g>
<!-- Ponta&#45;&gt;じゃらん -->
<g id="edge53" class="edge">
<title>Ponta&#45;&gt;じゃらん</title>
<path fill="none" stroke="#000000" d="M720.6978,-448.5217C774.8755,-440.0672 892.6933,-421.6816 958.7239,-411.3775"/>
<polygon fill="#000000" stroke="#000000" points="959.5183,-414.796 968.8591,-409.7959 958.439,-407.8797 959.5183,-414.796"/>
</g>
<!-- Tポイント -->
<g id="node20" class="node">
<title>Tポイント</title>
<polygon fill="none" stroke="#000000" points="733.5,-1042 650.5,-1042 650.5,-1006 733.5,-1006 733.5,-1042"/>
<text text-anchor="middle" x="692" y="-1020.3" font-family="Times,serif" font-size="14.00" fill="#000000">Tポイント</text>
</g>
<!-- 楽天スーパーポイント&#45;&gt;Edy -->
<g id="edge51" class="edge">
<title>楽天スーパーポイント&#45;&gt;Edy</title>
<path fill="none" stroke="#000000" d="M612.6852,-603.3745C581.4571,-596.4349 547.1175,-588.8039 521.9227,-583.205"/>
<polygon fill="#000000" stroke="#000000" points="522.5828,-579.7664 512.0616,-581.0137 521.0642,-586.5997 522.5828,-579.7664"/>
</g>
<!-- JREポイント&#45;&gt;Suica -->
<g id="edge31" class="edge">
<title>JREポイント&#45;&gt;Suica</title>
<path fill="none" stroke="#000000" d="M641.4505,-1498.8594C609.9336,-1491.7004 569.3613,-1479.7468 537,-1461 526.2079,-1454.7481 515.8716,-1445.8484 507.2979,-1437.3453"/>
<polygon fill="#000000" stroke="#000000" points="509.7158,-1434.8106 500.25,-1430.0514 504.6819,-1439.6748 509.7158,-1434.8106"/>
</g>
<!-- ビックポイント&#45;&gt;ビックカメラ -->
<g id="edge23" class="edge">
<title>ビックポイント&#45;&gt;ビックカメラ</title>
<path fill="none" stroke="#000000" d="M750.3251,-1112.0152C805.7573,-1116.7817 888.788,-1123.9213 945.0662,-1128.7605"/>
<polygon fill="#000000" stroke="#000000" points="944.9875,-1132.2665 955.2506,-1129.6362 945.5873,-1125.2923 944.9875,-1132.2665"/>
</g>
<!-- Amazonポイント -->
<g id="node25" class="node">
<title>Amazonポイント</title>
<polygon fill="none" stroke="#000000" points="757.5,-229 626.5,-229 626.5,-193 757.5,-193 757.5,-229"/>
<text text-anchor="middle" x="692" y="-207.3" font-family="Times,serif" font-size="14.00" fill="#000000">Amazonポイント</text>
</g>
<!-- Amazonポイント&#45;&gt;Amazon -->
<g id="edge56" class="edge">
<title>Amazonポイント&#45;&gt;Amazon</title>
<path fill="none" stroke="#000000" d="M757.8247,-198.8869C817.8442,-191.2648 905.0692,-182.858 958.5283,-179.6859"/>
<polygon fill="#000000" stroke="#000000" points="958.9594,-183.1676 968.7519,-179.1231 958.5746,-176.1782 958.9594,-183.1676"/>
</g>
<!-- nanacoポイント&#45;&gt;nanaco -->
<g id="edge60" class="edge">
<title>nanacoポイント&#45;&gt;nanaco</title>
<path fill="none" stroke="#000000" d="M629.3081,-974.8326C600.444,-975.0404 566.1998,-972.3725 537,-962 528.3667,-958.9332 519.9329,-953.9368 512.4552,-948.56"/>
<polygon fill="#000000" stroke="#000000" points="514.2183,-945.5 504.1616,-942.1664 509.9445,-951.0438 514.2183,-945.5"/>
</g>
<!-- FRESCOポイント -->
<g id="node27" class="node">
<title>FRESCOポイント</title>
<polygon fill="none" stroke="#000000" points="760.5,-693 623.5,-693 623.5,-657 760.5,-657 760.5,-693"/>
<text text-anchor="middle" x="692" y="-671.3" font-family="Times,serif" font-size="14.00" fill="#000000">FRESCOポイント</text>
</g>
<!-- FRESCOポイント&#45;&gt;FRESCO -->
<g id="edge64" class="edge">
<title>FRESCOポイント&#45;&gt;FRESCO</title>
<path fill="none" stroke="#000000" d="M760.5311,-678.3983C804.7067,-678.4219 862.706,-674.3335 911,-657 936.2431,-647.9398 961.0022,-630.3714 978.9127,-615.6373"/>
<polygon fill="#000000" stroke="#000000" points="981.2595,-618.2365 986.6371,-609.1078 976.7405,-612.8905 981.2595,-618.2365"/>
</g>
<!-- ヨドバシゴールドポイント -->
<g id="node28" class="node">
<title>ヨドバシゴールドポイント</title>
<polygon fill="none" stroke="#000000" points="786,-841 598,-841 598,-805 786,-805 786,-841"/>
<text text-anchor="middle" x="692" y="-819.3" font-family="Times,serif" font-size="14.00" fill="#000000">ヨドバシゴールドポイント</text>
</g>
<!-- ヨドバシゴールドポイント&#45;&gt;ヨドバシカメラ -->
<g id="edge47" class="edge">
<title>ヨドバシゴールドポイント&#45;&gt;ヨドバシカメラ</title>
<path fill="none" stroke="#000000" d="M786.125,-835.4681C824.9393,-838.6031 870.2792,-839.6743 911,-834 921.2954,-832.5654 932.0424,-830.296 942.4497,-827.6677"/>
<polygon fill="#000000" stroke="#000000" points="943.5306,-831.0021 952.2978,-825.0534 941.7345,-824.2364 943.5306,-831.0021"/>
</g>
<!-- はぴeポイント -->
<g id="node29" class="node">
<title>はぴeポイント</title>
<polygon fill="none" stroke="#000000" points="747,-1681 637,-1681 637,-1645 747,-1645 747,-1681"/>
<text text-anchor="middle" x="692" y="-1659.3" font-family="Times,serif" font-size="14.00" fill="#000000">はぴeポイント</text>
</g>
<!-- はぴeポイント&#45;&gt;Ponta -->
<g id="edge12" class="edge">
<title>はぴeポイント&#45;&gt;Ponta</title>
<path fill="none" stroke="#000000" d="M636.9485,-1660.3361C620.0505,-1656.6688 603.0237,-1649.5184 592,-1636 518.8316,-1546.2733 553.6881,-703.2552 592,-594 607.8396,-548.8297 642.7603,-505.2114 666.8366,-478.7457"/>
<polygon fill="#000000" stroke="#000000" points="669.6934,-480.8124 673.9272,-471.1002 664.5609,-476.0523 669.6934,-480.8124"/>
<text text-anchor="middle" x="555.5" y="-1126.3" font-family="Times,serif" font-size="14.00" fill="#000000">80%</text>
</g>
<!-- 切符&#45;&gt;現金 -->
<g id="edge69" class="edge">
<title>切符&#45;&gt;現金</title>
<path fill="none" stroke="#000000" d="M842.9575,-1330.6657C775.4757,-1334.5928 599.5508,-1334.7698 522.2969,-1331.1965"/>
<polygon fill="#000000" stroke="#000000" points="522.24,-1327.689 512.0725,-1330.6674 521.8782,-1334.6796 522.24,-1327.689"/>
</g>
<!-- 切符&#45;&gt;電車 -->
<g id="edge68" class="edge">
<title>切符&#45;&gt;電車</title>
<path fill="none" stroke="#000000" stroke-width="2" d="M897.1948,-1339.7975C917.9497,-1349.5646 946.7527,-1363.1189 969.5103,-1373.8284"/>
<polygon fill="#000000" stroke="#000000" stroke-width="2" points="968.3139,-1377.1335 978.8524,-1378.2246 971.2945,-1370.7997 968.3139,-1377.1335"/>
</g>
<!-- 大阪地下鉄&#45;&gt;三井住友VISAカード -->
<g id="edge17" class="edge">
<title>大阪地下鉄&#45;&gt;三井住友VISAカード</title>
<path fill="none" stroke="#000000" d="M961.8257,-1777.8242C935.4802,-1785.3824 901.1906,-1793 870,-1793 485,-1793 485,-1793 485,-1793 412.3206,-1793 358.7527,-1711.1346 335.2252,-1667.1702"/>
<polygon fill="#000000" stroke="#000000" points="338.2545,-1665.4094 330.5357,-1658.1519 332.044,-1668.6389 338.2545,-1665.4094"/>
<text text-anchor="middle" x="692" y="-1796.8" font-family="Times,serif" font-size="14.00" fill="#000000">10%</text>
</g>
<!-- 関西電力&#45;&gt;はぴeポイント -->
<g id="edge11" class="edge">
<title>関西電力&#45;&gt;はぴeポイント</title>
<path fill="none" stroke="#000000" d="M968.7417,-1576.5328C926.2337,-1591.7798 854.5127,-1616.9206 792,-1636 780.7128,-1639.4449 768.6411,-1642.898 756.9288,-1646.1285"/>
<polygon fill="#000000" stroke="#000000" points="755.9251,-1642.7744 747.2001,-1648.7848 757.7689,-1649.5272 755.9251,-1642.7744"/>
<text text-anchor="middle" x="870" y="-1627.8" font-family="Times,serif" font-size="14.00" fill="#000000">0.8%, 0.5%</text>
</g>
<!-- ヤマト運輸 -->
<g id="node40" class="node">
<title>ヤマト運輸</title>
<polygon fill="none" stroke="#000000" points="1050,-1039 962,-1039 962,-1003 1050,-1003 1050,-1039"/>
<text text-anchor="middle" x="1006" y="-1017.3" font-family="Times,serif" font-size="14.00" fill="#000000">ヤマト運輸</text>
</g>
<!-- ヤマト運輸&#45;&gt;Tポイント -->
<g id="edge44" class="edge">
<title>ヤマト運輸&#45;&gt;Tポイント</title>
<path fill="none" stroke="#000000" d="M961.8518,-1021.4218C904.5455,-1021.9693 804.6979,-1022.9233 743.8498,-1023.5046"/>
<polygon fill="#000000" stroke="#000000" points="743.6628,-1020.0061 733.6968,-1023.6016 743.7298,-1027.0058 743.6628,-1020.0061"/>
<text text-anchor="middle" x="870" y="-1026.8" font-family="Times,serif" font-size="14.00" fill="#000000">0.5%</text>
</g>
<!-- ウェルシア&#45;&gt;Tポイント -->
<g id="edge49" class="edge">
<title>ウェルシア&#45;&gt;Tポイント</title>
<path fill="none" stroke="#000000" d="M962.3622,-974.9215C905.1494,-985.3073 804.9115,-1003.5033 743.8795,-1014.5824"/>
<polygon fill="#000000" stroke="#000000" points="742.9108,-1011.2009 733.6968,-1016.4308 744.1611,-1018.0884 742.9108,-1011.2009"/>
<text text-anchor="middle" x="870" y="-1002.8" font-family="Times,serif" font-size="14.00" fill="#000000">1%</text>
</g>
<!-- ビックカメラ&#45;&gt;ビックポイント -->
<g id="edge21" class="edge">
<title>ビックカメラ&#45;&gt;ビックポイント</title>
<path fill="none" stroke="#000000" stroke-dasharray="5,2" d="M978.6566,-1115.8423C960.3585,-1104.8146 935.2669,-1091.7825 911,-1086 861.3633,-1074.1722 803.8926,-1080.408 760.2818,-1089.0754"/>
<polygon fill="#000000" stroke="#000000" points="759.4324,-1085.6771 750.3532,-1091.1377 760.856,-1092.5308 759.4324,-1085.6771"/>
<text text-anchor="middle" x="870" y="-1089.8" font-family="Times,serif" font-size="14.00" fill="#000000">9.5%</text>
</g>
<!-- ヨドバシカメラ&#45;&gt;ヨドバシゴールドポイント -->
<g id="edge46" class="edge">
<title>ヨドバシカメラ&#45;&gt;ヨドバシゴールドポイント</title>
<path fill="none" stroke="#000000" d="M947.8841,-809.9613C905.5098,-812.1205 846.9271,-815.1056 796.507,-817.6748"/>
<polygon fill="#000000" stroke="#000000" points="796.0193,-814.195 786.2104,-818.1995 796.3755,-821.186 796.0193,-814.195"/>
<text text-anchor="middle" x="870" y="-819.8" font-family="Times,serif" font-size="14.00" fill="#000000">10%</text>
</g>
<!-- FRESCO&#45;&gt;FRESCOポイント -->
<g id="edge63" class="edge">
<title>FRESCO&#45;&gt;FRESCOポイント</title>
<path fill="none" stroke="#000000" d="M965.5978,-601.8082C916.1227,-615.0436 831.2532,-637.7475 769.1275,-654.3672"/>
<polygon fill="#000000" stroke="#000000" points="768.1167,-651.0144 759.3609,-656.9799 769.9257,-657.7766 768.1167,-651.0144"/>
<text text-anchor="middle" x="870" y="-641.8" font-family="Times,serif" font-size="14.00" fill="#000000">0.5%</text>
</g>
<!-- 吉野家&#45;&gt;Tポイント -->
<g id="edge28" class="edge">
<title>吉野家&#45;&gt;Tポイント</title>
<path fill="none" stroke="#000000" d="M976.4354,-1182.0496C961.8194,-1178.5826 944.1183,-1173.5821 929,-1167 881.0535,-1146.1254 872.8956,-1133.4217 829,-1105 812.3409,-1094.2135 808.895,-1090.4132 792,-1080 773.6807,-1068.709 752.9928,-1056.9637 735.2069,-1047.1629"/>
<polygon fill="#000000" stroke="#000000" points="736.6502,-1043.9629 726.1984,-1042.2278 733.2869,-1050.102 736.6502,-1043.9629"/>
<text text-anchor="middle" x="870" y="-1162.8" font-family="Times,serif" font-size="14.00" fill="#000000">0.5%</text>
</g>
<!-- Amazon&#45;&gt;Amazonポイント -->
<g id="edge55" class="edge">
<title>Amazon&#45;&gt;Amazonポイント</title>
<path fill="none" stroke="#000000" d="M968.7519,-188.2316C919.4572,-195.487 831.3804,-204.6222 767.8076,-209.3892"/>
<polygon fill="#000000" stroke="#000000" points="767.5442,-205.8991 757.8247,-210.1158 768.0524,-212.8806 767.5442,-205.8991"/>
</g>
<!-- じゃらん&#45;&gt;Ponta -->
<g id="edge54" class="edge">
<title>じゃらん&#45;&gt;Ponta</title>
<path fill="none" stroke="#000000" d="M968.7864,-417.7449C956.5321,-421.998 942.7731,-426.4847 930,-430 861.7202,-448.7912 778.751,-452.7516 730.9925,-453.3026"/>
<polygon fill="#000000" stroke="#000000" points="730.7575,-449.8041 720.7823,-453.3741 730.8066,-456.8039 730.7575,-449.8041"/>
<text text-anchor="middle" x="870" y="-451.8" font-family="Times,serif" font-size="14.00" fill="#000000">2%</text>
</g>
</g>
</svg>
