<?xml version="1.0" encoding="UTF-8" standalone="no"?>
<!DOCTYPE svg PUBLIC "-//W3C//DTD SVG 1.1//EN"
 "http://www.w3.org/Graphics/SVG/1.1/DTD/svg11.dtd">
<!-- Generated by graphviz version 2.40.1 (0)
 -->
<!-- Title: MoneyFlow Pages: 1 -->
<svg width="1087pt" height="1971pt"
 viewBox="0.00 0.00 1087.00 1971.00" xmlns="http://www.w3.org/2000/svg" xmlns:xlink="http://www.w3.org/1999/xlink">
<g id="graph0" class="graph" transform="scale(1 1) rotate(0) translate(4 1967)">
<title>MoneyFlow</title>
<polygon fill="#ffffff" stroke="transparent" points="-4,4 -4,-1967 1083,-1967 1083,4 -4,4"/>
<!-- 収入 -->
<g id="node1" class="node">
<title>収入</title>
<text text-anchor="middle" x="27" y="-14.3" font-family="Times,serif" font-size="14.00" fill="#000000">収入</text>
</g>
<!-- 銀行口座 -->
<g id="node2" class="node">
<title>銀行口座</title>
<text text-anchor="middle" x="142" y="-14.3" font-family="Times,serif" font-size="14.00" fill="#000000">銀行口座</text>
</g>
<!-- 収入&#45;&gt;銀行口座 -->
<g id="edge1" class="edge">
<title>収入&#45;&gt;銀行口座</title>
<path fill="none" stroke="#000000" d="M54.2534,-18C69.3972,-18 88.4539,-18 104.9357,-18"/>
</g>
<!-- クレジットカード -->
<g id="node3" class="node">
<title>クレジットカード</title>
<text text-anchor="middle" x="322" y="-14.3" font-family="Times,serif" font-size="14.00" fill="#000000">クレジットカード</text>
</g>
<!-- 銀行口座&#45;&gt;クレジットカード -->
<g id="edge2" class="edge">
<title>銀行口座&#45;&gt;クレジットカード</title>
<path fill="none" stroke="#000000" d="M179.2961,-18C201.6417,-18 230.6798,-18 256.7236,-18"/>
</g>
<!-- マネー -->
<g id="node4" class="node">
<title>マネー</title>
<text text-anchor="middle" x="485" y="-14.3" font-family="Times,serif" font-size="14.00" fill="#000000">マネー</text>
</g>
<!-- クレジットカード&#45;&gt;マネー -->
<g id="edge3" class="edge">
<title>クレジットカード&#45;&gt;マネー</title>
<path fill="none" stroke="#000000" d="M387.3591,-18C410.9188,-18 436.353,-18 455.3549,-18"/>
</g>
<!-- ポイント -->
<g id="node5" class="node">
<title>ポイント</title>
<text text-anchor="middle" x="692" y="-14.3" font-family="Times,serif" font-size="14.00" fill="#000000">ポイント</text>
</g>
<!-- マネー&#45;&gt;ポイント -->
<g id="edge4" class="edge">
<title>マネー&#45;&gt;ポイント</title>
<path fill="none" stroke="#000000" d="M514.6581,-18C551.5493,-18 614.5569,-18 654.6899,-18"/>
</g>
<!-- 金券 -->
<g id="node6" class="node">
<title>金券</title>
<text text-anchor="middle" x="870" y="-14.3" font-family="Times,serif" font-size="14.00" fill="#000000">金券</text>
</g>
<!-- ポイント&#45;&gt;金券 -->
<g id="edge5" class="edge">
<title>ポイント&#45;&gt;金券</title>
<path fill="none" stroke="#000000" d="M729.3146,-18C763.262,-18 812.5623,-18 842.8847,-18"/>
</g>
<!-- 支出 -->
<g id="node7" class="node">
<title>支出</title>
<text text-anchor="middle" x="1013.5" y="-14.3" font-family="Times,serif" font-size="14.00" fill="#000000">支出</text>
</g>
<!-- 金券&#45;&gt;支出 -->
<g id="edge6" class="edge">
<title>金券&#45;&gt;支出</title>
<path fill="none" stroke="#000000" d="M897.329,-18C922.8631,-18 960.7716,-18 986.2727,-18"/>
</g>
<!-- 給与 -->
<g id="node8" class="node">
<title>給与</title>
<polygon fill="none" stroke="#000000" points="54,-1768 0,-1768 0,-1732 54,-1732 54,-1768"/>
<text text-anchor="middle" x="27" y="-1746.3" font-family="Times,serif" font-size="14.00" fill="#000000">給与</text>
</g>
<!-- 三井住友銀行 -->
<g id="node9" class="node">
<title>三井住友銀行</title>
<polygon fill="none" stroke="#000000" points="193,-1768 91,-1768 91,-1732 193,-1732 193,-1768"/>
<text text-anchor="middle" x="142" y="-1746.3" font-family="Times,serif" font-size="14.00" fill="#000000">三井住友銀行</text>
</g>
<!-- 給与&#45;&gt;三井住友銀行 -->
<g id="edge7" class="edge">
<title>給与&#45;&gt;三井住友銀行</title>
<path fill="none" stroke="#000000" stroke-width="2" d="M54.2534,-1750C62.2529,-1750 71.3442,-1750 80.571,-1750"/>
<polygon fill="#000000" stroke="#000000" stroke-width="2" points="80.5912,-1753.5001 90.5911,-1750 80.5911,-1746.5001 80.5912,-1753.5001"/>
</g>
<!-- 住信SBI銀行 -->
<g id="node10" class="node">
<title>住信SBI銀行</title>
<polygon fill="none" stroke="#000000" points="192,-1470 92,-1470 92,-1434 192,-1434 192,-1470"/>
<text text-anchor="middle" x="142" y="-1448.3" font-family="Times,serif" font-size="14.00" fill="#000000">住信SBI銀行</text>
</g>
<!-- 三井住友銀行&#45;&gt;住信SBI銀行 -->
<g id="edge9" class="edge">
<title>三井住友銀行&#45;&gt;住信SBI銀行</title>
<path fill="none" stroke="#000000" stroke-width="2" d="M142,-1731.9559C142,-1648.0619 142,-1564.1679 142,-1480.2739"/>
<polygon fill="#000000" stroke="#000000" stroke-width="2" points="145.5001,-1480.0429 142,-1470.043 138.5001,-1480.043 145.5001,-1480.0429"/>
</g>
<!-- 三井住友VISAカード -->
<g id="node11" class="node">
<title>三井住友VISAカード</title>
<polygon fill="none" stroke="#000000" points="398.5,-1861 245.5,-1861 245.5,-1825 398.5,-1825 398.5,-1861"/>
<text text-anchor="middle" x="322" y="-1839.3" font-family="Times,serif" font-size="14.00" fill="#000000">三井住友VISAカード</text>
</g>
<!-- 三井住友銀行&#45;&gt;三井住友VISAカード -->
<g id="edge13" class="edge">
<title>三井住友銀行&#45;&gt;三井住友VISAカード</title>
<path fill="none" stroke="#000000" stroke-width="2" d="M176.7253,-1768.1735C187.683,-1773.8932 199.8406,-1780.2237 211,-1786 232.9388,-1797.356 257.3576,-1809.9051 277.6937,-1820.3312"/>
<polygon fill="#000000" stroke="#000000" stroke-width="2" points="276.2307,-1823.5143 286.7264,-1824.9603 279.4233,-1817.2847 276.2307,-1823.5143"/>
</g>
<!-- 現金 -->
<g id="node16" class="node">
<title>現金</title>
<polygon fill="none" stroke="#000000" points="512,-1640 458,-1640 458,-1604 512,-1604 512,-1640"/>
<text text-anchor="middle" x="485" y="-1618.3" font-family="Times,serif" font-size="14.00" fill="#000000">現金</text>
</g>
<!-- 三井住友銀行&#45;&gt;現金 -->
<g id="edge8" class="edge">
<title>三井住友銀行&#45;&gt;現金</title>
<path fill="none" stroke="#000000" stroke-width="2" d="M190.416,-1731.9322C259.8297,-1706.0286 386.1003,-1658.9072 448.3301,-1635.6844"/>
<polygon fill="#000000" stroke="#000000" stroke-width="2" points="449.6041,-1638.9448 457.7493,-1632.1694 447.1566,-1632.3866 449.6041,-1638.9448"/>
</g>
<!-- 関西電力 -->
<g id="node41" class="node">
<title>関西電力</title>
<polygon fill="none" stroke="#000000" points="1050.5,-1794 976.5,-1794 976.5,-1758 1050.5,-1758 1050.5,-1794"/>
<text text-anchor="middle" x="1013.5" y="-1772.3" font-family="Times,serif" font-size="14.00" fill="#000000">関西電力</text>
</g>
<!-- 三井住友銀行&#45;&gt;関西電力 -->
<g id="edge10" class="edge">
<title>三井住友銀行&#45;&gt;関西電力</title>
<path fill="none" stroke="#000000" stroke-width="2" d="M193.0051,-1759.5855C228.9332,-1765.5141 278.2393,-1772 322,-1772 322,-1772 322,-1772 870,-1772 902.0444,-1772 938.0982,-1773.009 966.051,-1774.0135"/>
<polygon fill="#000000" stroke="#000000" stroke-width="2" points="966.219,-1777.522 976.3422,-1774.3961 966.4792,-1770.5269 966.219,-1777.522"/>
</g>
<!-- ビックカメラSuicaカード -->
<g id="node12" class="node">
<title>ビックカメラSuicaカード</title>
<polygon fill="none" stroke="#000000" points="414,-1470 230,-1470 230,-1434 414,-1434 414,-1470"/>
<text text-anchor="middle" x="322" y="-1448.3" font-family="Times,serif" font-size="14.00" fill="#000000">ビックカメラSuicaカード</text>
</g>
<!-- 住信SBI銀行&#45;&gt;ビックカメラSuicaカード -->
<g id="edge34" class="edge">
<title>住信SBI銀行&#45;&gt;ビックカメラSuicaカード</title>
<path fill="none" stroke="#000000" stroke-width="2" d="M192.14,-1452C200.7724,-1452 210.018,-1452 219.4511,-1452"/>
<polygon fill="#000000" stroke="#000000" stroke-width="2" points="219.7405,-1455.5001 229.7405,-1452 219.7404,-1448.5001 219.7405,-1455.5001"/>
</g>
<!-- リクルートカード -->
<g id="node13" class="node">
<title>リクルートカード</title>
<polygon fill="none" stroke="#000000" points="386.5,-879 257.5,-879 257.5,-843 386.5,-843 386.5,-879"/>
<text text-anchor="middle" x="322" y="-857.3" font-family="Times,serif" font-size="14.00" fill="#000000">リクルートカード</text>
</g>
<!-- 住信SBI銀行&#45;&gt;リクルートカード -->
<g id="edge35" class="edge">
<title>住信SBI銀行&#45;&gt;リクルートカード</title>
<path fill="none" stroke="#000000" stroke-width="2" d="M146.7522,-1433.8015C157.5836,-1392.5661 185.1666,-1288.9167 211,-1203 246.3545,-1085.4182 292.9071,-946.6288 312.5799,-888.631"/>
<polygon fill="#000000" stroke="#000000" stroke-width="2" points="315.9218,-889.6744 315.8245,-879.0801 309.2938,-887.4228 315.9218,-889.6744"/>
</g>
<!-- 住信SBI銀行&#45;&gt;現金 -->
<g id="edge32" class="edge">
<title>住信SBI銀行&#45;&gt;現金</title>
<path fill="none" stroke="#000000" stroke-width="2" d="M178.3823,-1470.032C244.2789,-1502.6922 382.6552,-1571.2752 448.5797,-1603.9491"/>
<polygon fill="#000000" stroke="#000000" stroke-width="2" points="447.2491,-1607.1959 457.7633,-1608.5008 450.3577,-1600.924 447.2491,-1607.1959"/>
</g>
<!-- 家賃 -->
<g id="node31" class="node">
<title>家賃</title>
<polygon fill="none" stroke="#000000" points="1040.5,-1257 986.5,-1257 986.5,-1221 1040.5,-1221 1040.5,-1257"/>
<text text-anchor="middle" x="1013.5" y="-1235.3" font-family="Times,serif" font-size="14.00" fill="#000000">家賃</text>
</g>
<!-- 住信SBI銀行&#45;&gt;家賃 -->
<g id="edge33" class="edge">
<title>住信SBI銀行&#45;&gt;家賃</title>
<path fill="none" stroke="#000000" stroke-width="2" d="M146.3659,-1433.9502C160.8613,-1378.922 212.793,-1217 322,-1217 322,-1217 322,-1217 810.5,-1217 868.7101,-1217 935.7656,-1226.0515 976.3695,-1232.5427"/>
<polygon fill="#000000" stroke="#000000" stroke-width="2" points="975.9152,-1236.0148 986.3485,-1234.172 977.0432,-1229.1063 975.9152,-1236.0148"/>
</g>
<!-- PiTaPa -->
<g id="node15" class="node">
<title>PiTaPa</title>
<polygon fill="none" stroke="#000000" points="517.5,-1887 452.5,-1887 452.5,-1851 517.5,-1851 517.5,-1887"/>
<text text-anchor="middle" x="485" y="-1865.3" font-family="Times,serif" font-size="14.00" fill="#000000">PiTaPa</text>
</g>
<!-- 三井住友VISAカード&#45;&gt;PiTaPa -->
<g id="edge15" class="edge">
<title>三井住友VISAカード&#45;&gt;PiTaPa</title>
<path fill="none" stroke="#000000" stroke-width="2" d="M398.727,-1855.2387C413.5824,-1857.6082 428.6499,-1860.0116 441.9463,-1862.1325"/>
<polygon fill="#000000" stroke="#000000" stroke-width="2" points="441.7657,-1865.6479 452.1922,-1863.7669 442.8684,-1858.7353 441.7657,-1865.6479"/>
</g>
<!-- ワールドプレゼントポイント -->
<g id="node22" class="node">
<title>ワールドプレゼントポイント</title>
<polygon fill="none" stroke="#000000" points="792,-1836 592,-1836 592,-1800 792,-1800 792,-1836"/>
<text text-anchor="middle" x="692" y="-1814.3" font-family="Times,serif" font-size="14.00" fill="#000000">ワールドプレゼントポイント</text>
</g>
<!-- 三井住友VISAカード&#45;&gt;ワールドプレゼントポイント -->
<g id="edge14" class="edge">
<title>三井住友VISAカード&#45;&gt;ワールドプレゼントポイント</title>
<path fill="none" stroke="#000000" stroke-dasharray="5,2" d="M398.6282,-1832.3941C415.8304,-1830.3205 434.0166,-1828.3678 451,-1827 493.7,-1823.5611 540.764,-1821.4334 581.8831,-1820.1181"/>
<polygon fill="#000000" stroke="#000000" points="582.0396,-1823.6151 591.9272,-1819.8091 581.8242,-1816.6184 582.0396,-1823.6151"/>
<text text-anchor="middle" x="485" y="-1830.8" font-family="Times,serif" font-size="14.00" fill="#000000">0.5%</text>
</g>
<!-- Suica -->
<g id="node14" class="node">
<title>Suica</title>
<polygon fill="none" stroke="#000000" points="513,-1369 457,-1369 457,-1333 513,-1333 513,-1369"/>
<text text-anchor="middle" x="485" y="-1347.3" font-family="Times,serif" font-size="14.00" fill="#000000">Suica</text>
</g>
<!-- ビックカメラSuicaカード&#45;&gt;Suica -->
<g id="edge24" class="edge">
<title>ビックカメラSuicaカード&#45;&gt;Suica</title>
<path fill="none" stroke="#000000" stroke-width="2" d="M351.1411,-1433.9432C378.2778,-1417.1285 418.8446,-1391.992 448.2041,-1373.7999"/>
<polygon fill="#000000" stroke="#000000" stroke-width="2" points="450.2717,-1376.6363 456.9286,-1368.3939 446.5846,-1370.686 450.2717,-1376.6363"/>
</g>
<!-- JREポイント -->
<g id="node23" class="node">
<title>JREポイント</title>
<polygon fill="none" stroke="#000000" points="742.5,-1374 641.5,-1374 641.5,-1338 742.5,-1338 742.5,-1374"/>
<text text-anchor="middle" x="692" y="-1352.3" font-family="Times,serif" font-size="14.00" fill="#000000">JREポイント</text>
</g>
<!-- ビックカメラSuicaカード&#45;&gt;JREポイント -->
<g id="edge19" class="edge">
<title>ビックカメラSuicaカード&#45;&gt;JREポイント</title>
<path fill="none" stroke="#000000" d="M391.5942,-1433.9431C460.7864,-1415.9905 565.8393,-1388.7336 631.615,-1371.6675"/>
<polygon fill="#000000" stroke="#000000" points="632.6236,-1375.0217 641.424,-1369.1224 630.8655,-1368.2461 632.6236,-1375.0217"/>
<text text-anchor="middle" x="485" y="-1422.8" font-family="Times,serif" font-size="14.00" fill="#000000">0.5%</text>
</g>
<!-- ビックポイント -->
<g id="node24" class="node">
<title>ビックポイント</title>
<polygon fill="none" stroke="#000000" points="750,-1610 634,-1610 634,-1574 750,-1574 750,-1610"/>
<text text-anchor="middle" x="692" y="-1588.3" font-family="Times,serif" font-size="14.00" fill="#000000">ビックポイント</text>
</g>
<!-- ビックカメラSuicaカード&#45;&gt;ビックポイント -->
<g id="edge22" class="edge">
<title>ビックカメラSuicaカード&#45;&gt;ビックポイント</title>
<path fill="none" stroke="#000000" d="M357.7015,-1470.1586C379.0009,-1480.668 406.7348,-1493.7921 432,-1504 496.2647,-1529.9649 571.4326,-1554.8319 624.3697,-1571.4672"/>
<polygon fill="#000000" stroke="#000000" points="623.399,-1574.8307 633.9879,-1574.476 625.4889,-1568.15 623.399,-1574.8307"/>
<text text-anchor="middle" x="485" y="-1540.8" font-family="Times,serif" font-size="14.00" fill="#000000">0.5%</text>
</g>
<!-- ビックカメラ -->
<g id="node44" class="node">
<title>ビックカメラ</title>
<polygon fill="none" stroke="#000000" points="1064,-1549 963,-1549 963,-1513 1064,-1513 1064,-1549"/>
<text text-anchor="middle" x="1013.5" y="-1527.3" font-family="Times,serif" font-size="14.00" fill="#000000">ビックカメラ</text>
</g>
<!-- ビックカメラSuicaカード&#45;&gt;ビックカメラ -->
<g id="edge20" class="edge">
<title>ビックカメラSuicaカード&#45;&gt;ビックカメラ</title>
<path fill="none" stroke="#000000" stroke-width="2" stroke-dasharray="5,2" d="M372.6839,-1470.1097C404.5061,-1479.897 446.6442,-1490 485,-1490 485,-1490 485,-1490 810.5,-1490 859.0585,-1490 912.8805,-1501.411 952.8978,-1512.1931"/>
<polygon fill="#000000" stroke="#000000" stroke-width="2" points="952.192,-1515.629 962.7626,-1514.9134 954.0529,-1508.8809 952.192,-1515.629"/>
</g>
<!-- EX予約 -->
<g id="node54" class="node">
<title>EX予約</title>
<polygon fill="none" stroke="#000000" points="1046.5,-1441 980.5,-1441 980.5,-1405 1046.5,-1405 1046.5,-1441"/>
<text text-anchor="middle" x="1013.5" y="-1419.3" font-family="Times,serif" font-size="14.00" fill="#000000">EX予約</text>
</g>
<!-- ビックカメラSuicaカード&#45;&gt;EX予約 -->
<g id="edge29" class="edge">
<title>ビックカメラSuicaカード&#45;&gt;EX予約</title>
<path fill="none" stroke="#000000" stroke-width="2" stroke-dasharray="5,2" d="M414.2371,-1452C437.3431,-1452 462.0781,-1452 485,-1452 485,-1452 485,-1452 870,-1452 904.1817,-1452 942.0519,-1443.9968 970.3022,-1436.3991"/>
<polygon fill="#000000" stroke="#000000" stroke-width="2" points="971.5529,-1439.6842 980.2502,-1433.6339 969.6781,-1432.9399 971.5529,-1439.6842"/>
</g>
<!-- nanaco -->
<g id="node17" class="node">
<title>nanaco</title>
<polygon fill="none" stroke="#000000" points="519,-1111 451,-1111 451,-1075 519,-1075 519,-1111"/>
<text text-anchor="middle" x="485" y="-1089.3" font-family="Times,serif" font-size="14.00" fill="#000000">nanaco</text>
</g>
<!-- リクルートカード&#45;&gt;nanaco -->
<g id="edge60" class="edge">
<title>リクルートカード&#45;&gt;nanaco</title>
<path fill="none" stroke="#000000" stroke-width="2" d="M329.4425,-879.2119C344.7696,-915.2329 382.6032,-996.9375 432,-1053 436.9251,-1058.5897 442.741,-1063.9063 448.6843,-1068.7315"/>
<polygon fill="#000000" stroke="#000000" stroke-width="2" points="446.7395,-1071.6515 456.7959,-1074.9862 451.014,-1066.1081 446.7395,-1071.6515"/>
</g>
<!-- Edy -->
<g id="node18" class="node">
<title>Edy</title>
<polygon fill="none" stroke="#000000" points="512,-625 458,-625 458,-589 512,-589 512,-625"/>
<text text-anchor="middle" x="485" y="-603.3" font-family="Times,serif" font-size="14.00" fill="#000000">Edy</text>
</g>
<!-- リクルートカード&#45;&gt;Edy -->
<g id="edge43" class="edge">
<title>リクルートカード&#45;&gt;Edy</title>
<path fill="none" stroke="#000000" stroke-width="2" d="M333.7226,-842.7329C362.0938,-798.5225 434.5645,-685.5927 467.8332,-633.7508"/>
<polygon fill="#000000" stroke="#000000" stroke-width="2" points="470.9284,-635.408 473.3837,-625.1015 465.0371,-631.6273 470.9284,-635.408"/>
</g>
<!-- Ponta -->
<g id="node19" class="node">
<title>Ponta</title>
<polygon fill="none" stroke="#000000" points="720.5,-990 663.5,-990 663.5,-954 720.5,-954 720.5,-990"/>
<text text-anchor="middle" x="692" y="-968.3" font-family="Times,serif" font-size="14.00" fill="#000000">Ponta</text>
</g>
<!-- リクルートカード&#45;&gt;Ponta -->
<g id="edge55" class="edge">
<title>リクルートカード&#45;&gt;Ponta</title>
<path fill="none" stroke="#000000" d="M382.2704,-879.0811C458.8539,-902.0562 588.8161,-941.0448 653.3136,-960.3941"/>
<polygon fill="#000000" stroke="#000000" points="652.5007,-963.8043 663.0847,-963.3254 654.5122,-957.0995 652.5007,-963.8043"/>
<text text-anchor="middle" x="485" y="-923.8" font-family="Times,serif" font-size="14.00" fill="#000000">1.2%</text>
</g>
<!-- NHK -->
<g id="node38" class="node">
<title>NHK</title>
<polygon fill="none" stroke="#000000" points="1040.5,-268 986.5,-268 986.5,-232 1040.5,-232 1040.5,-268"/>
<text text-anchor="middle" x="1013.5" y="-246.3" font-family="Times,serif" font-size="14.00" fill="#000000">NHK</text>
</g>
<!-- リクルートカード&#45;&gt;NHK -->
<g id="edge36" class="edge">
<title>リクルートカード&#45;&gt;NHK</title>
<path fill="none" stroke="#000000" stroke-width="2" d="M322.8779,-842.9534C328.2364,-742.6216 360.5595,-258 485,-258 485,-258 485,-258 870,-258 906.112,-258 947.2566,-255.4431 976.202,-253.2204"/>
<polygon fill="#000000" stroke="#000000" stroke-width="2" points="976.5898,-256.7007 986.2822,-252.422 976.037,-249.7226 976.5898,-256.7007"/>
</g>
<!-- NTT -->
<g id="node39" class="node">
<title>NTT</title>
<polygon fill="none" stroke="#000000" points="1040.5,-144 986.5,-144 986.5,-108 1040.5,-108 1040.5,-144"/>
<text text-anchor="middle" x="1013.5" y="-122.3" font-family="Times,serif" font-size="14.00" fill="#000000">NTT</text>
</g>
<!-- リクルートカード&#45;&gt;NTT -->
<g id="edge37" class="edge">
<title>リクルートカード&#45;&gt;NTT</title>
<path fill="none" stroke="#000000" stroke-width="2" d="M322.3392,-842.9588C324.3679,-763.323 338.291,-436.3191 432,-190 445.132,-155.4819 448.0683,-126 485,-126 485,-126 485,-126 870,-126 906.056,-126 947.208,-126 976.1703,-126"/>
<polygon fill="#000000" stroke="#000000" stroke-width="2" points="976.2571,-129.5001 986.257,-126 976.257,-122.5001 976.2571,-129.5001"/>
</g>
<!-- ASAHIネット -->
<g id="node40" class="node">
<title>ASAHIネット</title>
<polygon fill="none" stroke="#000000" points="1068,-90 959,-90 959,-54 1068,-54 1068,-90"/>
<text text-anchor="middle" x="1013.5" y="-68.3" font-family="Times,serif" font-size="14.00" fill="#000000">ASAHIネット</text>
</g>
<!-- リクルートカード&#45;&gt;ASAHIネット -->
<g id="edge38" class="edge">
<title>リクルートカード&#45;&gt;ASAHIネット</title>
<path fill="none" stroke="#000000" stroke-width="2" d="M323.7753,-842.6583C335.4796,-724.1935 403.6121,-72 485,-72 485,-72 485,-72 870,-72 895.7229,-72 924.0394,-72 948.6731,-72"/>
<polygon fill="#000000" stroke="#000000" stroke-width="2" points="948.9867,-75.5001 958.9867,-72 948.9866,-68.5001 948.9867,-75.5001"/>
</g>
<!-- アイハート -->
<g id="node42" class="node">
<title>アイハート</title>
<polygon fill="none" stroke="#000000" points="1056.5,-1203 970.5,-1203 970.5,-1167 1056.5,-1167 1056.5,-1203"/>
<text text-anchor="middle" x="1013.5" y="-1181.3" font-family="Times,serif" font-size="14.00" fill="#000000">アイハート</text>
</g>
<!-- リクルートカード&#45;&gt;アイハート -->
<g id="edge42" class="edge">
<title>リクルートカード&#45;&gt;アイハート</title>
<path fill="none" stroke="#000000" stroke-width="2" d="M322.7163,-879.0082C326.439,-946.2791 349.1358,-1179 485,-1179 485,-1179 485,-1179 870,-1179 899.8489,-1179 933.1598,-1180.3119 960.1683,-1181.7089"/>
<polygon fill="#000000" stroke="#000000" stroke-width="2" points="960.0177,-1185.2057 970.1907,-1182.2458 960.3923,-1178.2157 960.0177,-1185.2057"/>
</g>
<!-- Amazon -->
<g id="node52" class="node">
<title>Amazon</title>
<polygon fill="none" stroke="#000000" points="1050.5,-198 976.5,-198 976.5,-162 1050.5,-162 1050.5,-198"/>
<text text-anchor="middle" x="1013.5" y="-176.3" font-family="Times,serif" font-size="14.00" fill="#000000">Amazon</text>
</g>
<!-- リクルートカード&#45;&gt;Amazon -->
<g id="edge40" class="edge">
<title>リクルートカード&#45;&gt;Amazon</title>
<path fill="none" stroke="#000000" stroke-width="2" d="M322.2469,-842.7152C324.2103,-732.7433 341.3107,-164 485,-164 485,-164 485,-164 870,-164 902.3724,-164 938.6012,-168.0716 966.5576,-172.1069"/>
<polygon fill="#000000" stroke="#000000" stroke-width="2" points="966.0535,-175.5704 976.4605,-173.5844 967.0865,-168.647 966.0535,-175.5704"/>
</g>
<!-- iTunes -->
<g id="node53" class="node">
<title>iTunes</title>
<polygon fill="none" stroke="#000000" points="1046,-891 981,-891 981,-855 1046,-855 1046,-891"/>
<text text-anchor="middle" x="1013.5" y="-869.3" font-family="Times,serif" font-size="14.00" fill="#000000">iTunes</text>
</g>
<!-- リクルートカード&#45;&gt;iTunes -->
<g id="edge39" class="edge">
<title>リクルートカード&#45;&gt;iTunes</title>
<path fill="none" stroke="#000000" stroke-width="2" stroke-dasharray="5,2" d="M386.6479,-861C416.5731,-861 452.5981,-861 485,-861 485,-861 485,-861 810.5,-861 865.8741,-861 929.5968,-865.5046 970.6517,-868.9939"/>
<polygon fill="#000000" stroke="#000000" stroke-width="2" points="970.572,-872.5001 980.8373,-869.8785 971.1776,-865.5264 970.572,-872.5001"/>
</g>
<!-- じゃらん -->
<g id="node55" class="node">
<title>じゃらん</title>
<polygon fill="none" stroke="#000000" points="1050.5,-1041 976.5,-1041 976.5,-1005 1050.5,-1005 1050.5,-1041"/>
<text text-anchor="middle" x="1013.5" y="-1019.3" font-family="Times,serif" font-size="14.00" fill="#000000">じゃらん</text>
</g>
<!-- リクルートカード&#45;&gt;じゃらん -->
<g id="edge41" class="edge">
<title>リクルートカード&#45;&gt;じゃらん</title>
<path fill="none" stroke="#000000" stroke-width="2" d="M328.4739,-879.0472C345.993,-924.2999 398.891,-1039 485,-1039 485,-1039 485,-1039 870,-1039 902.3724,-1039 938.6012,-1034.9284 966.5576,-1030.8931"/>
<polygon fill="#000000" stroke="#000000" stroke-width="2" points="967.0865,-1034.353 976.4605,-1029.4156 966.0535,-1027.4296 967.0865,-1034.353"/>
</g>
<!-- Suica&#45;&gt;JREポイント -->
<g id="edge30" class="edge">
<title>Suica&#45;&gt;JREポイント</title>
<path fill="none" stroke="#000000" d="M513.0537,-1349.0846C520.8073,-1348.6361 529.2264,-1348.2241 537,-1348 568.065,-1347.1046 602.6001,-1348.6399 631.1731,-1350.5973"/>
<polygon fill="#000000" stroke="#000000" points="631.1873,-1354.1073 641.4127,-1351.3339 631.6896,-1347.1254 631.1873,-1354.1073"/>
<text text-anchor="middle" x="555.5" y="-1351.8" font-family="Times,serif" font-size="14.00" fill="#000000">1.5%</text>
</g>
<!-- 電車 -->
<g id="node35" class="node">
<title>電車</title>
<polygon fill="none" stroke="#000000" points="1040.5,-1495 986.5,-1495 986.5,-1459 1040.5,-1459 1040.5,-1495"/>
<text text-anchor="middle" x="1013.5" y="-1473.3" font-family="Times,serif" font-size="14.00" fill="#000000">電車</text>
</g>
<!-- Suica&#45;&gt;電車 -->
<g id="edge25" class="edge">
<title>Suica&#45;&gt;電車</title>
<path fill="none" stroke="#000000" stroke-width="2" d="M513.1871,-1368.0983C520.7227,-1372.13 529.001,-1376.0947 537,-1379 557.9319,-1386.6026 867.9039,-1448.2165 976.3625,-1469.6685"/>
<polygon fill="#000000" stroke="#000000" stroke-width="2" points="975.724,-1473.1099 986.213,-1471.616 977.0817,-1466.2428 975.724,-1473.1099"/>
</g>
<!-- 松屋 -->
<g id="node50" class="node">
<title>松屋</title>
<polygon fill="none" stroke="#000000" points="1040.5,-1311 986.5,-1311 986.5,-1275 1040.5,-1275 1040.5,-1311"/>
<text text-anchor="middle" x="1013.5" y="-1289.3" font-family="Times,serif" font-size="14.00" fill="#000000">松屋</text>
</g>
<!-- Suica&#45;&gt;松屋 -->
<g id="edge26" class="edge">
<title>Suica&#45;&gt;松屋</title>
<path fill="none" stroke="#000000" stroke-width="2" d="M500.8446,-1332.6079C510.2709,-1323.0724 523.0852,-1312.3301 537,-1307 691.16,-1247.9481 894.3743,-1272.4201 976.6066,-1286.1078"/>
<polygon fill="#000000" stroke="#000000" stroke-width="2" points="976.0335,-1289.5605 986.4806,-1287.7975 977.2143,-1282.6608 976.0335,-1289.5605"/>
</g>
<!-- 吉野家 -->
<g id="node51" class="node">
<title>吉野家</title>
<polygon fill="none" stroke="#000000" points="1043,-1095 984,-1095 984,-1059 1043,-1059 1043,-1095"/>
<text text-anchor="middle" x="1013.5" y="-1073.3" font-family="Times,serif" font-size="14.00" fill="#000000">吉野家</text>
</g>
<!-- Suica&#45;&gt;吉野家 -->
<g id="edge27" class="edge">
<title>Suica&#45;&gt;吉野家</title>
<path fill="none" stroke="#000000" stroke-width="2" d="M497.064,-1332.9308C506.5977,-1319.8128 520.9412,-1302.4308 537,-1291 558.4487,-1275.7327 566.7281,-1276.3803 592,-1269 678.8513,-1243.6363 709.9671,-1269.1716 792,-1231 873.0582,-1193.2819 871.186,-1149.746 948,-1104 956.2263,-1099.1009 965.506,-1094.6847 974.438,-1090.9107"/>
<polygon fill="#000000" stroke="#000000" stroke-width="2" points="975.9676,-1094.0676 983.9272,-1087.0752 973.3443,-1087.5777 975.9676,-1094.0676"/>
</g>
<!-- 大阪地下鉄 -->
<g id="node36" class="node">
<title>大阪地下鉄</title>
<polygon fill="none" stroke="#000000" points="1057.5,-1936 969.5,-1936 969.5,-1900 1057.5,-1900 1057.5,-1936"/>
<text text-anchor="middle" x="1013.5" y="-1914.3" font-family="Times,serif" font-size="14.00" fill="#000000">大阪地下鉄</text>
</g>
<!-- PiTaPa&#45;&gt;大阪地下鉄 -->
<g id="edge16" class="edge">
<title>PiTaPa&#45;&gt;大阪地下鉄</title>
<path fill="none" stroke="#000000" stroke-width="2" d="M517.5568,-1878.0364C523.962,-1879.5593 530.6613,-1880.9758 537,-1882 688.6516,-1906.5035 870.2166,-1914.3941 959.0798,-1916.8847"/>
<polygon fill="#000000" stroke="#000000" stroke-width="2" points="959.1013,-1920.3865 969.1916,-1917.1559 959.289,-1913.389 959.1013,-1920.3865"/>
</g>
<!-- 山陽バス -->
<g id="node37" class="node">
<title>山陽バス</title>
<polygon fill="none" stroke="#000000" points="1050.5,-1882 976.5,-1882 976.5,-1846 1050.5,-1846 1050.5,-1882"/>
<text text-anchor="middle" x="1013.5" y="-1860.3" font-family="Times,serif" font-size="14.00" fill="#000000">山陽バス</text>
</g>
<!-- PiTaPa&#45;&gt;山陽バス -->
<g id="edge18" class="edge">
<title>PiTaPa&#45;&gt;山陽バス</title>
<path fill="none" stroke="#000000" stroke-width="2" stroke-dasharray="5,2" d="M517.6612,-1868.691C607.8288,-1867.8379 860.5105,-1865.4474 966.1449,-1864.448"/>
<polygon fill="#000000" stroke="#000000" stroke-width="2" points="966.2307,-1867.9475 976.1971,-1864.3529 966.1644,-1860.9478 966.2307,-1867.9475"/>
</g>
<!-- 切符 -->
<g id="node30" class="node">
<title>切符</title>
<polygon fill="none" stroke="#000000" points="897,-1554 843,-1554 843,-1518 897,-1518 897,-1554"/>
<text text-anchor="middle" x="870" y="-1532.3" font-family="Times,serif" font-size="14.00" fill="#000000">切符</text>
</g>
<!-- 現金&#45;&gt;切符 -->
<g id="edge70" class="edge">
<title>現金&#45;&gt;切符</title>
<path fill="none" stroke="#000000" stroke-width="2" d="M501.888,-1603.9177C522.2481,-1587.9096 557.9835,-1566.3999 592,-1556 675.3122,-1530.5289 778.4958,-1526.5206 832.7054,-1529.5029"/>
<polygon fill="#000000" stroke="#000000" stroke-width="2" points="832.6611,-1533.0078 842.8739,-1530.1883 833.1319,-1526.0236 832.6611,-1533.0078"/>
</g>
<!-- 飲食店 -->
<g id="node47" class="node">
<title>飲食店</title>
<polygon fill="none" stroke="#000000" points="1043,-1740 984,-1740 984,-1704 1043,-1704 1043,-1740"/>
<text text-anchor="middle" x="1013.5" y="-1718.3" font-family="Times,serif" font-size="14.00" fill="#000000">飲食店</text>
</g>
<!-- 現金&#45;&gt;飲食店 -->
<g id="edge69" class="edge">
<title>現金&#45;&gt;飲食店</title>
<path fill="none" stroke="#000000" stroke-width="2" d="M512.2436,-1637.785C533.3409,-1649.3073 563.653,-1664.3646 592,-1673 727.7913,-1714.3664 897.9604,-1721.2213 973.8258,-1722.0817"/>
<polygon fill="#000000" stroke="#000000" stroke-width="2" points="973.8624,-1725.5821 983.8915,-1722.1663 973.9213,-1718.5823 973.8624,-1725.5821"/>
</g>
<!-- nanacoポイント -->
<g id="node26" class="node">
<title>nanacoポイント</title>
<polygon fill="none" stroke="#000000" points="754.5,-1103 629.5,-1103 629.5,-1067 754.5,-1067 754.5,-1103"/>
<text text-anchor="middle" x="692" y="-1081.3" font-family="Times,serif" font-size="14.00" fill="#000000">nanacoポイント</text>
</g>
<!-- nanaco&#45;&gt;nanacoポイント -->
<g id="edge62" class="edge">
<title>nanaco&#45;&gt;nanacoポイント</title>
<path fill="none" stroke="#000000" d="M519.264,-1079.3484C525.0971,-1077.5447 531.159,-1075.9824 537,-1075 563.6452,-1070.5188 593.1778,-1071.0774 619.2556,-1073.4173"/>
<polygon fill="#000000" stroke="#000000" points="619.1445,-1076.9235 629.4431,-1074.4356 619.8408,-1069.9582 619.1445,-1076.9235"/>
<text text-anchor="middle" x="555.5" y="-1078.8" font-family="Times,serif" font-size="14.00" fill="#000000">1%</text>
</g>
<!-- セブンイレブン -->
<g id="node33" class="node">
<title>セブンイレブン</title>
<polygon fill="none" stroke="#000000" points="1070.5,-1149 956.5,-1149 956.5,-1113 1070.5,-1113 1070.5,-1149"/>
<text text-anchor="middle" x="1013.5" y="-1127.3" font-family="Times,serif" font-size="14.00" fill="#000000">セブンイレブン</text>
</g>
<!-- nanaco&#45;&gt;セブンイレブン -->
<g id="edge61" class="edge">
<title>nanaco&#45;&gt;セブンイレブン</title>
<path fill="none" stroke="#000000" stroke-width="2" d="M519.0245,-1101.3661C524.994,-1102.6866 531.1627,-1103.9577 537,-1105 561.258,-1109.3314 567.4491,-1109.8879 592,-1112 716.8814,-1122.7436 863.1333,-1127.6136 946.3936,-1129.662"/>
<polygon fill="#000000" stroke="#000000" stroke-width="2" points="946.3958,-1133.163 956.4769,-1129.9038 946.5637,-1126.165 946.3958,-1133.163"/>
</g>
<!-- 楽天スーパーポイント -->
<g id="node21" class="node">
<title>楽天スーパーポイント</title>
<polygon fill="none" stroke="#000000" points="771,-414 613,-414 613,-378 771,-378 771,-414"/>
<text text-anchor="middle" x="692" y="-392.3" font-family="Times,serif" font-size="14.00" fill="#000000">楽天スーパーポイント</text>
</g>
<!-- Edy&#45;&gt;楽天スーパーポイント -->
<g id="edge53" class="edge">
<title>Edy&#45;&gt;楽天スーパーポイント</title>
<path fill="none" stroke="#000000" d="M486.4984,-588.7578C490.854,-540.7881 505.2686,-413.0792 537,-388 563.515,-367.0436 601.2553,-368.5425 632.8565,-375.5235"/>
<polygon fill="#000000" stroke="#000000" points="632.3351,-378.9987 642.879,-377.9612 633.9894,-372.1969 632.3351,-378.9987"/>
<text text-anchor="middle" x="555.5" y="-391.8" font-family="Times,serif" font-size="14.00" fill="#000000">0.5%</text>
</g>
<!-- ローソン -->
<g id="node32" class="node">
<title>ローソン</title>
<polygon fill="none" stroke="#000000" points="1050,-837 977,-837 977,-801 1050,-801 1050,-837"/>
<text text-anchor="middle" x="1013.5" y="-815.3" font-family="Times,serif" font-size="14.00" fill="#000000">ローソン</text>
</g>
<!-- Edy&#45;&gt;ローソン -->
<g id="edge44" class="edge">
<title>Edy&#45;&gt;ローソン</title>
<path fill="none" stroke="#000000" stroke-width="2" d="M488.6196,-625.2734C497.7378,-665.8327 525.8181,-763.0217 592,-804 653.4185,-842.0289 870.5518,-830.3474 966.8819,-822.9926"/>
<polygon fill="#000000" stroke="#000000" stroke-width="2" points="967.2204,-826.4769 976.9173,-822.2084 966.675,-819.4981 967.2204,-826.4769"/>
</g>
<!-- ファミリーマート -->
<g id="node34" class="node">
<title>ファミリーマート</title>
<polygon fill="none" stroke="#000000" points="1079,-717 948,-717 948,-681 1079,-681 1079,-717"/>
<text text-anchor="middle" x="1013.5" y="-695.3" font-family="Times,serif" font-size="14.00" fill="#000000">ファミリーマート</text>
</g>
<!-- Edy&#45;&gt;ファミリーマート -->
<g id="edge46" class="edge">
<title>Edy&#45;&gt;ファミリーマート</title>
<path fill="none" stroke="#000000" stroke-width="2" d="M512.0684,-624.0671C519.8893,-628.4482 528.5891,-632.8171 537,-636 560.4,-644.8552 567.3311,-643.826 592,-648 712.2974,-668.3544 853.2421,-683.7084 937.844,-692.019"/>
<polygon fill="#000000" stroke="#000000" stroke-width="2" points="937.5843,-695.5102 947.8768,-692.9974 938.2638,-688.5432 937.5843,-695.5102"/>
</g>
<!-- ウェルシア -->
<g id="node43" class="node">
<title>ウェルシア</title>
<polygon fill="none" stroke="#000000" points="1057,-663 970,-663 970,-627 1057,-627 1057,-663"/>
<text text-anchor="middle" x="1013.5" y="-641.3" font-family="Times,serif" font-size="14.00" fill="#000000">ウェルシア</text>
</g>
<!-- Edy&#45;&gt;ウェルシア -->
<g id="edge51" class="edge">
<title>Edy&#45;&gt;ウェルシア</title>
<path fill="none" stroke="#000000" stroke-width="2" d="M512.0919,-614.1815C520.063,-616.0414 528.8355,-617.844 537,-619 689.2893,-640.5626 871.294,-644.5246 959.8256,-645.0738"/>
<polygon fill="#000000" stroke="#000000" stroke-width="2" points="959.877,-648.574 969.8943,-645.1239 959.9119,-641.5741 959.877,-648.574"/>
</g>
<!-- ヨドバシカメラ -->
<g id="node45" class="node">
<title>ヨドバシカメラ</title>
<polygon fill="none" stroke="#000000" points="1071.5,-444 955.5,-444 955.5,-408 1071.5,-408 1071.5,-444"/>
<text text-anchor="middle" x="1013.5" y="-422.3" font-family="Times,serif" font-size="14.00" fill="#000000">ヨドバシカメラ</text>
</g>
<!-- Edy&#45;&gt;ヨドバシカメラ -->
<g id="edge48" class="edge">
<title>Edy&#45;&gt;ヨドバシカメラ</title>
<path fill="none" stroke="#000000" stroke-width="2" d="M492.5545,-588.8132C506.6862,-557.5683 540.4324,-494.7664 592,-471 653.1438,-442.8201 842.1951,-431.9346 945.0866,-428.0172"/>
<polygon fill="#000000" stroke="#000000" stroke-width="2" points="945.5099,-431.5041 955.3741,-427.6378 945.2518,-424.5088 945.5099,-431.5041"/>
</g>
<!-- 餃子の王将 -->
<g id="node46" class="node">
<title>餃子の王将</title>
<polygon fill="none" stroke="#000000" points="1057.5,-322 969.5,-322 969.5,-286 1057.5,-286 1057.5,-322"/>
<text text-anchor="middle" x="1013.5" y="-300.3" font-family="Times,serif" font-size="14.00" fill="#000000">餃子の王将</text>
</g>
<!-- Edy&#45;&gt;餃子の王将 -->
<g id="edge68" class="edge">
<title>Edy&#45;&gt;餃子の王将</title>
<path fill="none" stroke="#000000" stroke-width="2" d="M487.6068,-588.745C494.795,-539.9151 515.7766,-407.4062 537,-369 553.5689,-339.0166 560.4628,-328.3768 592,-315 714.9152,-262.8645 876.6431,-279.4353 959.4842,-293.2747"/>
<polygon fill="#000000" stroke="#000000" stroke-width="2" points="958.9808,-296.7394 969.4296,-294.9869 960.1685,-289.8409 958.9808,-296.7394"/>
</g>
<!-- FRESCO -->
<g id="node48" class="node">
<title>FRESCO</title>
<polygon fill="none" stroke="#000000" points="1053.5,-609 973.5,-609 973.5,-573 1053.5,-573 1053.5,-609"/>
<text text-anchor="middle" x="1013.5" y="-587.3" font-family="Times,serif" font-size="14.00" fill="#000000">FRESCO</text>
</g>
<!-- Edy&#45;&gt;FRESCO -->
<g id="edge65" class="edge">
<title>Edy&#45;&gt;FRESCO</title>
<path fill="none" stroke="#000000" stroke-width="2" d="M512.3016,-606.1735C596.5627,-603.6225 853.4448,-595.8456 963.0643,-592.5269"/>
<polygon fill="#000000" stroke="#000000" stroke-width="2" points="963.3127,-596.0211 973.2022,-592.22 963.1008,-589.0243 963.3127,-596.0211"/>
</g>
<!-- 業務スーパー -->
<g id="node49" class="node">
<title>業務スーパー</title>
<polygon fill="none" stroke="#000000" points="1064,-498 963,-498 963,-462 1064,-462 1064,-498"/>
<text text-anchor="middle" x="1013.5" y="-476.3" font-family="Times,serif" font-size="14.00" fill="#000000">業務スーパー</text>
</g>
<!-- Edy&#45;&gt;業務スーパー -->
<g id="edge64" class="edge">
<title>Edy&#45;&gt;業務スーパー</title>
<path fill="none" stroke="#000000" stroke-width="2" d="M500.2094,-588.7095C519.2082,-567.317 553.8872,-532.8198 592,-517 712.3268,-467.0549 868.2315,-468.554 952.6677,-474.189"/>
<polygon fill="#000000" stroke="#000000" stroke-width="2" points="952.6293,-477.695 962.8522,-474.9123 953.1252,-470.7126 952.6293,-477.695"/>
</g>
<!-- Ponta&#45;&gt;じゃらん -->
<g id="edge56" class="edge">
<title>Ponta&#45;&gt;じゃらん</title>
<path fill="none" stroke="#000000" d="M720.7229,-968.7612C762.9345,-964.7856 843.9764,-960.1464 911,-974 933.9072,-978.7349 957.5877,-989.5985 976.4091,-999.8965"/>
<polygon fill="#000000" stroke="#000000" points="974.8046,-1003.0099 985.2337,-1004.8771 978.2453,-996.9138 974.8046,-1003.0099"/>
</g>
<!-- Tポイント -->
<g id="node20" class="node">
<title>Tポイント</title>
<polygon fill="none" stroke="#000000" points="733.5,-795 650.5,-795 650.5,-759 733.5,-759 733.5,-795"/>
<text text-anchor="middle" x="692" y="-773.3" font-family="Times,serif" font-size="14.00" fill="#000000">Tポイント</text>
</g>
<!-- 楽天スーパーポイント&#45;&gt;Edy -->
<g id="edge54" class="edge">
<title>楽天スーパーポイント&#45;&gt;Edy</title>
<path fill="none" stroke="#000000" d="M612.705,-398.0047C585.7496,-402.4843 557.3339,-411.9504 537,-431 515.4202,-451.2168 497.7962,-534.6453 489.7367,-578.9904"/>
<polygon fill="#000000" stroke="#000000" points="486.2884,-578.3914 487.9857,-588.8494 493.1805,-579.6156 486.2884,-578.3914"/>
</g>
<!-- JREポイント&#45;&gt;Suica -->
<g id="edge31" class="edge">
<title>JREポイント&#45;&gt;Suica</title>
<path fill="none" stroke="#000000" d="M641.2512,-1362.33C610.9169,-1365.1098 571.6596,-1366.9473 537,-1363 532.4763,-1362.4848 527.7733,-1361.7252 523.1265,-1360.8341"/>
<polygon fill="#000000" stroke="#000000" points="523.6433,-1357.366 513.135,-1358.7169 522.1922,-1364.2139 523.6433,-1357.366"/>
</g>
<!-- ビックポイント&#45;&gt;ビックカメラ -->
<g id="edge23" class="edge">
<title>ビックポイント&#45;&gt;ビックカメラ</title>
<path fill="none" stroke="#000000" d="M750.1074,-1587.0365C794.5173,-1582.5862 857.0688,-1574.8977 911,-1563 924.77,-1559.9622 939.3513,-1555.9259 953.0623,-1551.7463"/>
<polygon fill="#000000" stroke="#000000" points="954.3627,-1555.0071 962.8682,-1548.6898 952.2796,-1548.3242 954.3627,-1555.0071"/>
</g>
<!-- Amazonポイント -->
<g id="node25" class="node">
<title>Amazonポイント</title>
<polygon fill="none" stroke="#000000" points="757.5,-229 626.5,-229 626.5,-193 757.5,-193 757.5,-229"/>
<text text-anchor="middle" x="692" y="-207.3" font-family="Times,serif" font-size="14.00" fill="#000000">Amazonポイント</text>
</g>
<!-- Amazonポイント&#45;&gt;Amazon -->
<g id="edge59" class="edge">
<title>Amazonポイント&#45;&gt;Amazon</title>
<path fill="none" stroke="#000000" d="M757.8361,-199.0811C819.7945,-191.3501 911.0617,-182.756 966.1408,-179.6142"/>
<polygon fill="#000000" stroke="#000000" points="966.5204,-183.0992 976.3218,-179.0764 966.151,-176.1089 966.5204,-183.0992"/>
</g>
<!-- nanacoポイント&#45;&gt;nanaco -->
<g id="edge63" class="edge">
<title>nanacoポイント&#45;&gt;nanaco</title>
<path fill="none" stroke="#000000" d="M629.234,-1087.7605C611.3865,-1088.5181 591.9285,-1089.318 574,-1090 559.455,-1090.5533 543.5709,-1091.1054 529.2998,-1091.5823"/>
<polygon fill="#000000" stroke="#000000" points="529.1144,-1088.0864 519.2356,-1091.9152 529.3459,-1095.0826 529.1144,-1088.0864"/>
</g>
<!-- FRESCOポイント -->
<g id="node27" class="node">
<title>FRESCOポイント</title>
<polygon fill="none" stroke="#000000" points="760.5,-562 623.5,-562 623.5,-526 760.5,-526 760.5,-562"/>
<text text-anchor="middle" x="692" y="-540.3" font-family="Times,serif" font-size="14.00" fill="#000000">FRESCOポイント</text>
</g>
<!-- FRESCOポイント&#45;&gt;FRESCO -->
<g id="edge67" class="edge">
<title>FRESCOポイント&#45;&gt;FRESCO</title>
<path fill="none" stroke="#000000" d="M760.5755,-554.025C821.3863,-562.915 908.7777,-575.6907 963.2883,-583.6596"/>
<polygon fill="#000000" stroke="#000000" points="963.001,-587.1547 973.4021,-585.1381 964.0136,-580.2283 963.001,-587.1547"/>
</g>
<!-- ヨドバシゴールドポイント -->
<g id="node28" class="node">
<title>ヨドバシゴールドポイント</title>
<polygon fill="none" stroke="#000000" points="786,-360 598,-360 598,-324 786,-324 786,-360"/>
<text text-anchor="middle" x="692" y="-338.3" font-family="Times,serif" font-size="14.00" fill="#000000">ヨドバシゴールドポイント</text>
</g>
<!-- ヨドバシゴールドポイント&#45;&gt;ヨドバシカメラ -->
<g id="edge50" class="edge">
<title>ヨドバシゴールドポイント&#45;&gt;ヨドバシカメラ</title>
<path fill="none" stroke="#000000" d="M763.6732,-360.002C773.2629,-362.8034 782.917,-365.8285 792,-369 808.9147,-374.906 811.9566,-379.4764 829,-385 866.7851,-397.2458 910.0891,-407.0779 945.2443,-414.0409"/>
<polygon fill="#000000" stroke="#000000" points="944.9192,-417.5432 955.4037,-416.0186 946.2568,-410.6722 944.9192,-417.5432"/>
</g>
<!-- はぴeポイント -->
<g id="node29" class="node">
<title>はぴeポイント</title>
<polygon fill="none" stroke="#000000" points="747,-1664 637,-1664 637,-1628 747,-1628 747,-1664"/>
<text text-anchor="middle" x="692" y="-1642.3" font-family="Times,serif" font-size="14.00" fill="#000000">はぴeポイント</text>
</g>
<!-- はぴeポイント&#45;&gt;Ponta -->
<g id="edge12" class="edge">
<title>はぴeポイント&#45;&gt;Ponta</title>
<path fill="none" stroke="#000000" d="M636.7503,-1642.9513C620.0461,-1639.2324 603.1869,-1632.1484 592,-1619 502.1443,-1513.3889 553.1049,-1446.9098 561.5,-1308.5 568.2902,-1196.5502 539.1333,-1156.914 592,-1058 606.293,-1031.2577 632.5564,-1009.1704 654.5818,-994.0778"/>
<polygon fill="#000000" stroke="#000000" points="656.686,-996.8822 663.0911,-988.4426 652.821,-991.0459 656.686,-996.8822"/>
<text text-anchor="middle" x="555.5" y="-1312.3" font-family="Times,serif" font-size="14.00" fill="#000000">80%</text>
</g>
<!-- 切符&#45;&gt;現金 -->
<g id="edge72" class="edge">
<title>切符&#45;&gt;現金</title>
<path fill="none" stroke="#000000" d="M842.8739,-1540.6537C792.3419,-1544.0816 680.8664,-1546.8308 592,-1574 567.0396,-1581.6312 541.1537,-1595.2442 521.0958,-1606.2301"/>
<polygon fill="#000000" stroke="#000000" points="519.3885,-1603.1746 512.3144,-1611.0619 522.763,-1609.3075 519.3885,-1603.1746"/>
</g>
<!-- 切符&#45;&gt;電車 -->
<g id="edge71" class="edge">
<title>切符&#45;&gt;電車</title>
<path fill="none" stroke="#000000" stroke-width="2" d="M897.329,-1524.7637C919.8708,-1515.4956 952.0567,-1502.2624 976.8362,-1492.0743"/>
<polygon fill="#000000" stroke="#000000" stroke-width="2" points="978.3549,-1495.2343 986.2727,-1488.1945 975.693,-1488.7601 978.3549,-1495.2343"/>
</g>
<!-- ローソン&#45;&gt;Ponta -->
<g id="edge45" class="edge">
<title>ローソン&#45;&gt;Ponta</title>
<path fill="none" stroke="#000000" d="M976.9379,-833.5693C967.4602,-837.4829 957.304,-841.7983 948,-846 869.5369,-881.434 779.6189,-926.83 729.9638,-952.3297"/>
<polygon fill="#000000" stroke="#000000" points="728.1695,-949.3167 720.8787,-957.0041 731.372,-955.5412 728.1695,-949.3167"/>
<text text-anchor="middle" x="870" y="-906.8" font-family="Times,serif" font-size="14.00" fill="#000000">1%</text>
</g>
<!-- ファミリーマート&#45;&gt;Tポイント -->
<g id="edge47" class="edge">
<title>ファミリーマート&#45;&gt;Tポイント</title>
<path fill="none" stroke="#000000" d="M982.2181,-717.1329C962.4291,-727.7893 935.9575,-740.5852 911,-748 855.234,-764.5681 788.6667,-771.6836 743.6763,-774.7316"/>
<polygon fill="#000000" stroke="#000000" points="743.3292,-771.2464 733.5708,-775.3723 743.7723,-778.2324 743.3292,-771.2464"/>
<text text-anchor="middle" x="870" y="-769.8" font-family="Times,serif" font-size="14.00" fill="#000000">0.5%</text>
</g>
<!-- 大阪地下鉄&#45;&gt;三井住友VISAカード -->
<g id="edge17" class="edge">
<title>大阪地下鉄&#45;&gt;三井住友VISAカード</title>
<path fill="none" stroke="#000000" d="M969.3954,-1932.1215C941.2611,-1939.9026 903.8509,-1948 870,-1948 485,-1948 485,-1948 485,-1948 426.66,-1948 372.6045,-1899.8752 343.7714,-1868.7867"/>
<polygon fill="#000000" stroke="#000000" points="346.2984,-1866.3628 336.9971,-1861.2896 341.1045,-1871.0559 346.2984,-1866.3628"/>
<text text-anchor="middle" x="692" y="-1951.8" font-family="Times,serif" font-size="14.00" fill="#000000">10%</text>
</g>
<!-- 関西電力&#45;&gt;はぴeポイント -->
<g id="edge11" class="edge">
<title>関西電力&#45;&gt;はぴeポイント</title>
<path fill="none" stroke="#000000" d="M976.168,-1760.9047C919.4552,-1737.9726 811.3044,-1694.2413 746.014,-1667.8408"/>
<polygon fill="#000000" stroke="#000000" points="747.286,-1664.5799 736.7032,-1664.0759 744.6619,-1671.0695 747.286,-1664.5799"/>
<text text-anchor="middle" x="870" y="-1737.8" font-family="Times,serif" font-size="14.00" fill="#000000">0.8%, 0.5%</text>
</g>
<!-- ウェルシア&#45;&gt;Tポイント -->
<g id="edge52" class="edge">
<title>ウェルシア&#45;&gt;Tポイント</title>
<path fill="none" stroke="#000000" d="M969.8163,-662.9355C910.7482,-687.1874 805.6116,-730.3539 742.9959,-756.0624"/>
<polygon fill="#000000" stroke="#000000" points="741.6222,-752.8427 733.7009,-759.8786 744.2809,-759.3182 741.6222,-752.8427"/>
<text text-anchor="middle" x="870" y="-724.8" font-family="Times,serif" font-size="14.00" fill="#000000">1%</text>
</g>
<!-- ビックカメラ&#45;&gt;ビックポイント -->
<g id="edge21" class="edge">
<title>ビックカメラ&#45;&gt;ビックポイント</title>
<path fill="none" stroke="#000000" stroke-dasharray="5,2" d="M997.3403,-1549.0514C981.8614,-1564.8752 956.9319,-1586.7532 930,-1596 875.2648,-1614.7928 809.194,-1611.8282 760.5683,-1605.2866"/>
<polygon fill="#000000" stroke="#000000" points="760.8619,-1601.7931 750.4672,-1603.8429 759.8714,-1608.7226 760.8619,-1601.7931"/>
<text text-anchor="middle" x="870" y="-1614.8" font-family="Times,serif" font-size="14.00" fill="#000000">9.5%</text>
</g>
<!-- ヨドバシカメラ&#45;&gt;ヨドバシゴールドポイント -->
<g id="edge49" class="edge">
<title>ヨドバシカメラ&#45;&gt;ヨドバシゴールドポイント</title>
<path fill="none" stroke="#000000" d="M986.9193,-407.8598C966.9314,-395.141 938.3902,-378.8826 911,-370 874.5896,-358.1922 833.2612,-351.3358 796.3921,-347.3647"/>
<polygon fill="#000000" stroke="#000000" points="796.4222,-343.8497 786.1192,-346.3194 795.7135,-350.8138 796.4222,-343.8497"/>
<text text-anchor="middle" x="870" y="-373.8" font-family="Times,serif" font-size="14.00" fill="#000000">10%</text>
</g>
<!-- FRESCO&#45;&gt;FRESCOポイント -->
<g id="edge66" class="edge">
<title>FRESCO&#45;&gt;FRESCOポイント</title>
<path fill="none" stroke="#000000" d="M986.1215,-572.9972C966.2039,-561.0226 938.0885,-546.3668 911,-540 865.5158,-529.3095 813.2439,-529.8024 771.1776,-533.2063"/>
<polygon fill="#000000" stroke="#000000" points="770.6444,-529.7396 760.9899,-534.103 771.2583,-536.7126 770.6444,-529.7396"/>
<text text-anchor="middle" x="870" y="-543.8" font-family="Times,serif" font-size="14.00" fill="#000000">0.5%</text>
</g>
<!-- 吉野家&#45;&gt;Tポイント -->
<g id="edge28" class="edge">
<title>吉野家&#45;&gt;Tポイント</title>
<path fill="none" stroke="#000000" d="M983.7477,-1076.2888C944.0227,-1073.8226 873.5081,-1063.9474 829,-1026 798.8826,-1000.322 810.371,-980.0561 792,-945 765.2137,-893.8856 729.9002,-836.5656 709.2001,-803.8272"/>
<polygon fill="#000000" stroke="#000000" points="712.0827,-801.8374 703.7684,-795.2707 706.1729,-805.5891 712.0827,-801.8374"/>
<text text-anchor="middle" x="870" y="-1068.8" font-family="Times,serif" font-size="14.00" fill="#000000">0.5%</text>
</g>
<!-- Amazon&#45;&gt;Amazonポイント -->
<g id="edge58" class="edge">
<title>Amazon&#45;&gt;Amazonポイント</title>
<path fill="none" stroke="#000000" d="M976.3218,-188.0932C925.658,-195.4257 833.7405,-204.7321 768.13,-209.4978"/>
<polygon fill="#000000" stroke="#000000" points="767.5655,-206.0288 757.8361,-210.2227 768.0573,-213.0115 767.5655,-206.0288"/>
</g>
<!-- じゃらん&#45;&gt;Ponta -->
<g id="edge57" class="edge">
<title>じゃらん&#45;&gt;Ponta</title>
<path fill="none" stroke="#000000" d="M976.2542,-1017.0916C914.873,-1007.3547 793.07,-988.0329 730.7301,-978.1438"/>
<polygon fill="#000000" stroke="#000000" points="730.9559,-974.6359 720.531,-976.5259 729.8591,-981.5495 730.9559,-974.6359"/>
<text text-anchor="middle" x="870" y="-1010.8" font-family="Times,serif" font-size="14.00" fill="#000000">2%</text>
</g>
</g>
</svg>
