<?xml version="1.0" encoding="UTF-8" standalone="no"?>
<!DOCTYPE svg PUBLIC "-//W3C//DTD SVG 1.1//EN"
 "http://www.w3.org/Graphics/SVG/1.1/DTD/svg11.dtd">
<!-- Generated by graphviz version 2.40.1 (20161225.0304)
 -->
<!-- Title: MoneyFlow Pages: 1 -->
<svg width="1075pt" height="1895pt"
 viewBox="0.00 0.00 1075.00 1895.00" xmlns="http://www.w3.org/2000/svg" xmlns:xlink="http://www.w3.org/1999/xlink">
<g id="graph0" class="graph" transform="scale(1 1) rotate(0) translate(4 1891)">
<title>MoneyFlow</title>
<polygon fill="#ffffff" stroke="transparent" points="-4,4 -4,-1891 1071,-1891 1071,4 -4,4"/>
<!-- 収入 -->
<g id="node1" class="node">
<title>収入</title>
<text text-anchor="middle" x="27" y="-14.3" font-family="Times,serif" font-size="14.00" fill="#000000">収入</text>
</g>
<!-- 銀行口座 -->
<g id="node2" class="node">
<title>銀行口座</title>
<text text-anchor="middle" x="142" y="-14.3" font-family="Times,serif" font-size="14.00" fill="#000000">銀行口座</text>
</g>
<!-- 収入&#45;&gt;銀行口座 -->
<g id="edge1" class="edge">
<title>収入&#45;&gt;銀行口座</title>
<path fill="none" stroke="#000000" d="M54.2534,-18C69.3972,-18 88.4539,-18 104.9357,-18"/>
</g>
<!-- クレジットカード -->
<g id="node3" class="node">
<title>クレジットカード</title>
<text text-anchor="middle" x="322" y="-14.3" font-family="Times,serif" font-size="14.00" fill="#000000">クレジットカード</text>
</g>
<!-- 銀行口座&#45;&gt;クレジットカード -->
<g id="edge2" class="edge">
<title>銀行口座&#45;&gt;クレジットカード</title>
<path fill="none" stroke="#000000" d="M179.2961,-18C201.6417,-18 230.6798,-18 256.7236,-18"/>
</g>
<!-- マネー -->
<g id="node4" class="node">
<title>マネー</title>
<text text-anchor="middle" x="485" y="-14.3" font-family="Times,serif" font-size="14.00" fill="#000000">マネー</text>
</g>
<!-- クレジットカード&#45;&gt;マネー -->
<g id="edge3" class="edge">
<title>クレジットカード&#45;&gt;マネー</title>
<path fill="none" stroke="#000000" d="M387.3591,-18C410.9188,-18 436.353,-18 455.3549,-18"/>
</g>
<!-- ポイント -->
<g id="node5" class="node">
<title>ポイント</title>
<text text-anchor="middle" x="686" y="-14.3" font-family="Times,serif" font-size="14.00" fill="#000000">ポイント</text>
</g>
<!-- マネー&#45;&gt;ポイント -->
<g id="edge4" class="edge">
<title>マネー&#45;&gt;ポイント</title>
<path fill="none" stroke="#000000" d="M514.6582,-18C550.2582,-18 609.9876,-18 648.6865,-18"/>
</g>
<!-- 金券 -->
<g id="node6" class="node">
<title>金券</title>
<text text-anchor="middle" x="858" y="-14.3" font-family="Times,serif" font-size="14.00" fill="#000000">金券</text>
</g>
<!-- ポイント&#45;&gt;金券 -->
<g id="edge5" class="edge">
<title>ポイント&#45;&gt;金券</title>
<path fill="none" stroke="#000000" d="M723.3214,-18C755.7285,-18 801.8861,-18 830.8766,-18"/>
</g>
<!-- 支出 -->
<g id="node7" class="node">
<title>支出</title>
<text text-anchor="middle" x="1001.5" y="-14.3" font-family="Times,serif" font-size="14.00" fill="#000000">支出</text>
</g>
<!-- 金券&#45;&gt;支出 -->
<g id="edge6" class="edge">
<title>金券&#45;&gt;支出</title>
<path fill="none" stroke="#000000" d="M885.329,-18C910.8631,-18 948.7716,-18 974.2727,-18"/>
</g>
<!-- 給与 -->
<g id="node8" class="node">
<title>給与</title>
<polygon fill="none" stroke="#000000" points="54,-1691 0,-1691 0,-1655 54,-1655 54,-1691"/>
<text text-anchor="middle" x="27" y="-1669.3" font-family="Times,serif" font-size="14.00" fill="#000000">給与</text>
</g>
<!-- 三井住友銀行 -->
<g id="node9" class="node">
<title>三井住友銀行</title>
<polygon fill="none" stroke="#000000" points="193,-1691 91,-1691 91,-1655 193,-1655 193,-1691"/>
<text text-anchor="middle" x="142" y="-1669.3" font-family="Times,serif" font-size="14.00" fill="#000000">三井住友銀行</text>
</g>
<!-- 給与&#45;&gt;三井住友銀行 -->
<g id="edge7" class="edge">
<title>給与&#45;&gt;三井住友銀行</title>
<path fill="none" stroke="#000000" stroke-width="2" d="M54.2534,-1673C62.2529,-1673 71.3442,-1673 80.571,-1673"/>
<polygon fill="#000000" stroke="#000000" stroke-width="2" points="80.5912,-1676.5001 90.5911,-1673 80.5911,-1669.5001 80.5912,-1676.5001"/>
</g>
<!-- 住信SBI銀行 -->
<g id="node10" class="node">
<title>住信SBI銀行</title>
<polygon fill="none" stroke="#000000" points="192,-1298 92,-1298 92,-1262 192,-1262 192,-1298"/>
<text text-anchor="middle" x="142" y="-1276.3" font-family="Times,serif" font-size="14.00" fill="#000000">住信SBI銀行</text>
</g>
<!-- 三井住友銀行&#45;&gt;住信SBI銀行 -->
<g id="edge9" class="edge">
<title>三井住友銀行&#45;&gt;住信SBI銀行</title>
<path fill="none" stroke="#000000" stroke-width="2" d="M142,-1654.6913C142,-1539.1737 142,-1423.6562 142,-1308.1386"/>
<polygon fill="#000000" stroke="#000000" stroke-width="2" points="145.5001,-1308.0381 142,-1298.0381 138.5001,-1308.0381 145.5001,-1308.0381"/>
</g>
<!-- 三井住友VISAカード -->
<g id="node11" class="node">
<title>三井住友VISAカード</title>
<polygon fill="none" stroke="#000000" points="398.5,-1806 245.5,-1806 245.5,-1770 398.5,-1770 398.5,-1806"/>
<text text-anchor="middle" x="322" y="-1784.3" font-family="Times,serif" font-size="14.00" fill="#000000">三井住友VISAカード</text>
</g>
<!-- 三井住友銀行&#45;&gt;三井住友VISAカード -->
<g id="edge13" class="edge">
<title>三井住友銀行&#45;&gt;三井住友VISAカード</title>
<path fill="none" stroke="#000000" stroke-width="2" d="M152.58,-1691.286C164.4511,-1710.2083 185.4336,-1739.2876 211,-1756 218.6434,-1760.9964 227.0792,-1765.2278 235.7838,-1768.8082"/>
<polygon fill="#000000" stroke="#000000" stroke-width="2" points="234.7191,-1772.148 245.3099,-1772.4432 237.2148,-1765.608 234.7191,-1772.148"/>
</g>
<!-- 現金 -->
<g id="node16" class="node">
<title>現金</title>
<polygon fill="none" stroke="#000000" points="512,-1621 458,-1621 458,-1585 512,-1585 512,-1621"/>
<text text-anchor="middle" x="485" y="-1599.3" font-family="Times,serif" font-size="14.00" fill="#000000">現金</text>
</g>
<!-- 三井住友銀行&#45;&gt;現金 -->
<g id="edge8" class="edge">
<title>三井住友銀行&#45;&gt;現金</title>
<path fill="none" stroke="#000000" stroke-width="2" d="M193.3506,-1662.5203C263.1334,-1648.2789 386.2513,-1623.1528 447.795,-1610.5929"/>
<polygon fill="#000000" stroke="#000000" stroke-width="2" points="448.7375,-1613.9727 457.8357,-1608.5437 447.3378,-1607.1141 448.7375,-1613.9727"/>
</g>
<!-- 関西電力 -->
<g id="node40" class="node">
<title>関西電力</title>
<polygon fill="none" stroke="#000000" points="1038.5,-1776 964.5,-1776 964.5,-1740 1038.5,-1740 1038.5,-1776"/>
<text text-anchor="middle" x="1001.5" y="-1754.3" font-family="Times,serif" font-size="14.00" fill="#000000">関西電力</text>
</g>
<!-- 三井住友銀行&#45;&gt;関西電力 -->
<g id="edge10" class="edge">
<title>三井住友銀行&#45;&gt;関西電力</title>
<path fill="none" stroke="#000000" stroke-width="2" d="M170.0306,-1691.1289C204.3978,-1711.5724 265.1055,-1742 322,-1742 322,-1742 322,-1742 858,-1742 890.3724,-1742 926.6012,-1746.0716 954.5576,-1750.1069"/>
<polygon fill="#000000" stroke="#000000" stroke-width="2" points="954.0535,-1753.5704 964.4605,-1751.5844 955.0865,-1746.647 954.0535,-1753.5704"/>
</g>
<!-- ビックカメラSuicaカード -->
<g id="node12" class="node">
<title>ビックカメラSuicaカード</title>
<polygon fill="none" stroke="#000000" points="414,-1298 230,-1298 230,-1262 414,-1262 414,-1298"/>
<text text-anchor="middle" x="322" y="-1276.3" font-family="Times,serif" font-size="14.00" fill="#000000">ビックカメラSuicaカード</text>
</g>
<!-- 住信SBI銀行&#45;&gt;ビックカメラSuicaカード -->
<g id="edge32" class="edge">
<title>住信SBI銀行&#45;&gt;ビックカメラSuicaカード</title>
<path fill="none" stroke="#000000" stroke-width="2" d="M192.14,-1280C200.7724,-1280 210.018,-1280 219.4511,-1280"/>
<polygon fill="#000000" stroke="#000000" stroke-width="2" points="219.7405,-1283.5001 229.7405,-1280 219.7404,-1276.5001 219.7405,-1283.5001"/>
</g>
<!-- リクルートカード -->
<g id="node13" class="node">
<title>リクルートカード</title>
<polygon fill="none" stroke="#000000" points="386.5,-937 257.5,-937 257.5,-901 386.5,-901 386.5,-937"/>
<text text-anchor="middle" x="322" y="-915.3" font-family="Times,serif" font-size="14.00" fill="#000000">リクルートカード</text>
</g>
<!-- 住信SBI銀行&#45;&gt;リクルートカード -->
<g id="edge33" class="edge">
<title>住信SBI銀行&#45;&gt;リクルートカード</title>
<path fill="none" stroke="#000000" stroke-width="2" d="M151.1737,-1261.6017C180.6641,-1202.4569 273.1549,-1016.9616 308.2815,-946.5132"/>
<polygon fill="#000000" stroke="#000000" stroke-width="2" points="311.5147,-947.8723 312.8448,-937.3613 305.2503,-944.7487 311.5147,-947.8723"/>
</g>
<!-- 住信SBI銀行&#45;&gt;現金 -->
<g id="edge30" class="edge">
<title>住信SBI銀行&#45;&gt;現金</title>
<path fill="none" stroke="#000000" stroke-width="2" d="M161.4239,-1298.2913C219.4374,-1352.9221 391.5293,-1514.9795 458.1963,-1577.7592"/>
<polygon fill="#000000" stroke="#000000" stroke-width="2" points="456.1095,-1580.6017 465.7891,-1584.9093 460.9084,-1575.5056 456.1095,-1580.6017"/>
</g>
<!-- 家賃 -->
<g id="node30" class="node">
<title>家賃</title>
<polygon fill="none" stroke="#000000" points="1028.5,-90 974.5,-90 974.5,-54 1028.5,-54 1028.5,-90"/>
<text text-anchor="middle" x="1001.5" y="-68.3" font-family="Times,serif" font-size="14.00" fill="#000000">家賃</text>
</g>
<!-- 住信SBI銀行&#45;&gt;家賃 -->
<g id="edge31" class="edge">
<title>住信SBI銀行&#45;&gt;家賃</title>
<path fill="none" stroke="#000000" stroke-width="2" d="M142.7118,-1261.9861C148.8795,-1111.7148 196.1026,-72 322,-72 322,-72 322,-72 858,-72 894.056,-72 935.208,-72 964.1703,-72"/>
<polygon fill="#000000" stroke="#000000" stroke-width="2" points="964.2571,-75.5001 974.257,-72 964.257,-68.5001 964.2571,-75.5001"/>
</g>
<!-- PiTaPa -->
<g id="node15" class="node">
<title>PiTaPa</title>
<polygon fill="none" stroke="#000000" points="517.5,-1849 452.5,-1849 452.5,-1813 517.5,-1813 517.5,-1849"/>
<text text-anchor="middle" x="485" y="-1827.3" font-family="Times,serif" font-size="14.00" fill="#000000">PiTaPa</text>
</g>
<!-- 三井住友VISAカード&#45;&gt;PiTaPa -->
<g id="edge14" class="edge">
<title>三井住友VISAカード&#45;&gt;PiTaPa</title>
<path fill="none" stroke="#000000" stroke-width="2" d="M390.6543,-1806.1112C408.2117,-1810.743 426.585,-1815.5899 442.4036,-1819.7629"/>
<polygon fill="#000000" stroke="#000000" stroke-width="2" points="441.8336,-1823.2322 452.3956,-1822.3988 443.6192,-1816.4638 441.8336,-1823.2322"/>
</g>
<!-- Suica -->
<g id="node14" class="node">
<title>Suica</title>
<polygon fill="none" stroke="#000000" points="513,-1498 457,-1498 457,-1462 513,-1462 513,-1498"/>
<text text-anchor="middle" x="485" y="-1476.3" font-family="Times,serif" font-size="14.00" fill="#000000">Suica</text>
</g>
<!-- ビックカメラSuicaカード&#45;&gt;Suica -->
<g id="edge23" class="edge">
<title>ビックカメラSuicaカード&#45;&gt;Suica</title>
<path fill="none" stroke="#000000" stroke-width="2" d="M336.7526,-1298.1014C365.7125,-1333.635 430.0958,-1412.6329 463.6818,-1453.8427"/>
<polygon fill="#000000" stroke="#000000" stroke-width="2" points="461.1325,-1456.2549 470.1632,-1461.7954 466.5587,-1451.8326 461.1325,-1456.2549"/>
</g>
<!-- ビューサンクスポイント -->
<g id="node21" class="node">
<title>ビューサンクスポイント</title>
<polygon fill="none" stroke="#000000" points="772.5,-1398 599.5,-1398 599.5,-1362 772.5,-1362 772.5,-1398"/>
<text text-anchor="middle" x="686" y="-1376.3" font-family="Times,serif" font-size="14.00" fill="#000000">ビューサンクスポイント</text>
</g>
<!-- ビックカメラSuicaカード&#45;&gt;ビューサンクスポイント -->
<g id="edge18" class="edge">
<title>ビックカメラSuicaカード&#45;&gt;ビューサンクスポイント</title>
<path fill="none" stroke="#000000" d="M400.0125,-1298.0009C436.3471,-1306.7432 480.0564,-1317.7717 519,-1329 551.8161,-1338.4616 559.3591,-1342.9505 592,-1353 598.4872,-1354.9973 605.2406,-1357.0292 612.0189,-1359.0362"/>
<polygon fill="#000000" stroke="#000000" points="611.3583,-1362.49 621.9395,-1361.952 613.3322,-1355.7741 611.3583,-1362.49"/>
<text text-anchor="middle" x="485" y="-1332.8" font-family="Times,serif" font-size="14.00" fill="#000000">0.5%</text>
</g>
<!-- ビックポイント -->
<g id="node23" class="node">
<title>ビックポイント</title>
<polygon fill="none" stroke="#000000" points="744,-1344 628,-1344 628,-1308 744,-1308 744,-1344"/>
<text text-anchor="middle" x="686" y="-1322.3" font-family="Times,serif" font-size="14.00" fill="#000000">ビックポイント</text>
</g>
<!-- ビックカメラSuicaカード&#45;&gt;ビックポイント -->
<g id="edge21" class="edge">
<title>ビックカメラSuicaカード&#45;&gt;ビックポイント</title>
<path fill="none" stroke="#000000" d="M350.4793,-1298.0344C372.1571,-1311.1346 403.0925,-1328.5097 432,-1340 491.569,-1363.6777 565.2407,-1356.0057 617.8743,-1344.9214"/>
<polygon fill="#000000" stroke="#000000" points="618.7643,-1348.3094 627.7792,-1342.7433 617.2609,-1341.4728 618.7643,-1348.3094"/>
<text text-anchor="middle" x="485" y="-1359.8" font-family="Times,serif" font-size="14.00" fill="#000000">0.5%</text>
</g>
<!-- ビックカメラ -->
<g id="node43" class="node">
<title>ビックカメラ</title>
<polygon fill="none" stroke="#000000" points="1052,-1314 951,-1314 951,-1278 1052,-1278 1052,-1314"/>
<text text-anchor="middle" x="1001.5" y="-1292.3" font-family="Times,serif" font-size="14.00" fill="#000000">ビックカメラ</text>
</g>
<!-- ビックカメラSuicaカード&#45;&gt;ビックカメラ -->
<g id="edge19" class="edge">
<title>ビックカメラSuicaカード&#45;&gt;ビックカメラ</title>
<path fill="none" stroke="#000000" stroke-width="2" stroke-dasharray="5,2" d="M414.2371,-1280C437.3431,-1280 462.0781,-1280 485,-1280 485,-1280 485,-1280 858,-1280 885.2096,-1280 915.1435,-1282.8765 940.5999,-1286.1901"/>
<polygon fill="#000000" stroke="#000000" stroke-width="2" points="940.4686,-1289.7042 950.848,-1287.5783 941.4083,-1282.7676 940.4686,-1289.7042"/>
</g>
<!-- EX予約 -->
<g id="node53" class="node">
<title>EX予約</title>
<polygon fill="none" stroke="#000000" points="1034.5,-1260 968.5,-1260 968.5,-1224 1034.5,-1224 1034.5,-1260"/>
<text text-anchor="middle" x="1001.5" y="-1238.3" font-family="Times,serif" font-size="14.00" fill="#000000">EX予約</text>
</g>
<!-- ビックカメラSuicaカード&#45;&gt;EX予約 -->
<g id="edge26" class="edge">
<title>ビックカメラSuicaカード&#45;&gt;EX予約</title>
<path fill="none" stroke="#000000" stroke-width="2" stroke-dasharray="5,2" d="M372.6839,-1261.8903C404.5061,-1252.103 446.6442,-1242 485,-1242 485,-1242 485,-1242 858,-1242 891.7262,-1242 929.9112,-1242 958.408,-1242"/>
<polygon fill="#000000" stroke="#000000" stroke-width="2" points="958.4424,-1245.5001 968.4423,-1242 958.4423,-1238.5001 958.4424,-1245.5001"/>
</g>
<!-- nanaco -->
<g id="node17" class="node">
<title>nanaco</title>
<polygon fill="none" stroke="#000000" points="519,-1084 451,-1084 451,-1048 519,-1048 519,-1084"/>
<text text-anchor="middle" x="485" y="-1062.3" font-family="Times,serif" font-size="14.00" fill="#000000">nanaco</text>
</g>
<!-- リクルートカード&#45;&gt;nanaco -->
<g id="edge57" class="edge">
<title>リクルートカード&#45;&gt;nanaco</title>
<path fill="none" stroke="#000000" stroke-width="2" d="M336.7353,-937.1746C356.7181,-961.1314 394.2655,-1003.7714 432,-1034 435.5403,-1036.8361 439.3537,-1039.6068 443.254,-1042.2565"/>
<polygon fill="#000000" stroke="#000000" stroke-width="2" points="441.5655,-1045.3332 451.8588,-1047.8426 445.377,-1039.4618 441.5655,-1045.3332"/>
</g>
<!-- Edy -->
<g id="node18" class="node">
<title>Edy</title>
<polygon fill="none" stroke="#000000" points="512,-784 458,-784 458,-748 512,-748 512,-784"/>
<text text-anchor="middle" x="485" y="-762.3" font-family="Times,serif" font-size="14.00" fill="#000000">Edy</text>
</g>
<!-- リクルートカード&#45;&gt;Edy -->
<g id="edge41" class="edge">
<title>リクルートカード&#45;&gt;Edy</title>
<path fill="none" stroke="#000000" stroke-width="2" d="M341.3383,-900.8481C370.3808,-873.5873 425.3517,-821.9889 458.2301,-791.1276"/>
<polygon fill="#000000" stroke="#000000" stroke-width="2" points="460.791,-793.5241 465.6868,-784.1283 456.0003,-788.4203 460.791,-793.5241"/>
</g>
<!-- Ponta -->
<g id="node19" class="node">
<title>Ponta</title>
<polygon fill="none" stroke="#000000" points="714.5,-937 657.5,-937 657.5,-901 714.5,-901 714.5,-937"/>
<text text-anchor="middle" x="686" y="-915.3" font-family="Times,serif" font-size="14.00" fill="#000000">Ponta</text>
</g>
<!-- リクルートカード&#45;&gt;Ponta -->
<g id="edge52" class="edge">
<title>リクルートカード&#45;&gt;Ponta</title>
<path fill="none" stroke="#000000" d="M386.6565,-919C462.1674,-919 584.6578,-919 646.9453,-919"/>
<polygon fill="#000000" stroke="#000000" points="647.1303,-922.5001 657.1303,-919 647.1303,-915.5001 647.1303,-922.5001"/>
<text text-anchor="middle" x="485" y="-922.8" font-family="Times,serif" font-size="14.00" fill="#000000">1.2%</text>
</g>
<!-- NHK -->
<g id="node37" class="node">
<title>NHK</title>
<polygon fill="none" stroke="#000000" points="1028.5,-322 974.5,-322 974.5,-286 1028.5,-286 1028.5,-322"/>
<text text-anchor="middle" x="1001.5" y="-300.3" font-family="Times,serif" font-size="14.00" fill="#000000">NHK</text>
</g>
<!-- リクルートカード&#45;&gt;NHK -->
<g id="edge34" class="edge">
<title>リクルートカード&#45;&gt;NHK</title>
<path fill="none" stroke="#000000" stroke-width="2" d="M322.7389,-900.6922C327.3756,-797.7867 356.5693,-296 485,-296 485,-296 485,-296 858,-296 894.112,-296 935.2566,-298.5569 964.202,-300.7796"/>
<polygon fill="#000000" stroke="#000000" stroke-width="2" points="964.037,-304.2774 974.2822,-301.578 964.5898,-297.2993 964.037,-304.2774"/>
</g>
<!-- NTT -->
<g id="node38" class="node">
<title>NTT</title>
<polygon fill="none" stroke="#000000" points="1028.5,-268 974.5,-268 974.5,-232 1028.5,-232 1028.5,-268"/>
<text text-anchor="middle" x="1001.5" y="-246.3" font-family="Times,serif" font-size="14.00" fill="#000000">NTT</text>
</g>
<!-- リクルートカード&#45;&gt;NTT -->
<g id="edge35" class="edge">
<title>リクルートカード&#45;&gt;NTT</title>
<path fill="none" stroke="#000000" stroke-width="2" d="M322.4645,-900.977C325.668,-795.0379 348.633,-258 485,-258 485,-258 485,-258 858,-258 894.112,-258 935.2566,-255.4431 964.202,-253.2204"/>
<polygon fill="#000000" stroke="#000000" stroke-width="2" points="964.5898,-256.7007 974.2822,-252.422 964.037,-249.7226 964.5898,-256.7007"/>
</g>
<!-- ASAHIネット -->
<g id="node39" class="node">
<title>ASAHIネット</title>
<polygon fill="none" stroke="#000000" points="1056,-144 947,-144 947,-108 1056,-108 1056,-144"/>
<text text-anchor="middle" x="1001.5" y="-122.3" font-family="Times,serif" font-size="14.00" fill="#000000">ASAHIネット</text>
</g>
<!-- リクルートカード&#45;&gt;ASAHIネット -->
<g id="edge36" class="edge">
<title>リクルートカード&#45;&gt;ASAHIネット</title>
<path fill="none" stroke="#000000" stroke-width="2" d="M323.7282,-900.9471C335.2621,-782.9088 403.1285,-126 485,-126 485,-126 485,-126 858,-126 883.7229,-126 912.0394,-126 936.6731,-126"/>
<polygon fill="#000000" stroke="#000000" stroke-width="2" points="936.9867,-129.5001 946.9867,-126 936.9866,-122.5001 936.9867,-129.5001"/>
</g>
<!-- アイハート -->
<g id="node41" class="node">
<title>アイハート</title>
<polygon fill="none" stroke="#000000" points="1044.5,-1206 958.5,-1206 958.5,-1170 1044.5,-1170 1044.5,-1206"/>
<text text-anchor="middle" x="1001.5" y="-1184.3" font-family="Times,serif" font-size="14.00" fill="#000000">アイハート</text>
</g>
<!-- リクルートカード&#45;&gt;アイハート -->
<g id="edge40" class="edge">
<title>リクルートカード&#45;&gt;アイハート</title>
<path fill="none" stroke="#000000" stroke-width="2" d="M324.1123,-937.0675C332.2611,-997.3807 367.3238,-1188 485,-1188 485,-1188 485,-1188 858,-1188 887.9333,-1188 921.3788,-1188 948.4461,-1188"/>
<polygon fill="#000000" stroke="#000000" stroke-width="2" points="948.487,-1191.5001 958.4869,-1188 948.4869,-1184.5001 948.487,-1191.5001"/>
</g>
<!-- Amazon -->
<g id="node51" class="node">
<title>Amazon</title>
<polygon fill="none" stroke="#000000" points="1038.5,-214 964.5,-214 964.5,-178 1038.5,-178 1038.5,-214"/>
<text text-anchor="middle" x="1001.5" y="-192.3" font-family="Times,serif" font-size="14.00" fill="#000000">Amazon</text>
</g>
<!-- リクルートカード&#45;&gt;Amazon -->
<g id="edge38" class="edge">
<title>リクルートカード&#45;&gt;Amazon</title>
<path fill="none" stroke="#000000" stroke-width="2" d="M322.2359,-900.6627C324.1348,-790.3753 340.9197,-220 485,-220 485,-220 485,-220 858,-220 890.5074,-220 926.5967,-213.9346 954.451,-207.9022"/>
<polygon fill="#000000" stroke="#000000" stroke-width="2" points="955.3252,-211.2932 964.3187,-205.6925 953.7955,-204.4624 955.3252,-211.2932"/>
</g>
<!-- iTunes -->
<g id="node52" class="node">
<title>iTunes</title>
<polygon fill="none" stroke="#000000" points="1034,-1152 969,-1152 969,-1116 1034,-1116 1034,-1152"/>
<text text-anchor="middle" x="1001.5" y="-1130.3" font-family="Times,serif" font-size="14.00" fill="#000000">iTunes</text>
</g>
<!-- リクルートカード&#45;&gt;iTunes -->
<g id="edge37" class="edge">
<title>リクルートカード&#45;&gt;iTunes</title>
<path fill="none" stroke="#000000" stroke-width="2" stroke-dasharray="5,2" d="M325.5686,-937.1262C337.4467,-991.5823 380.9437,-1150 485,-1150 485,-1150 485,-1150 858,-1150 892.0469,-1150 930.3593,-1145.4963 958.8276,-1141.2678"/>
<polygon fill="#000000" stroke="#000000" stroke-width="2" points="959.4907,-1144.7071 968.8443,-1139.7312 958.4292,-1137.788 959.4907,-1144.7071"/>
</g>
<!-- じゃらん -->
<g id="node54" class="node">
<title>じゃらん</title>
<polygon fill="none" stroke="#000000" points="1038.5,-946 964.5,-946 964.5,-910 1038.5,-910 1038.5,-946"/>
<text text-anchor="middle" x="1001.5" y="-924.3" font-family="Times,serif" font-size="14.00" fill="#000000">じゃらん</text>
</g>
<!-- リクルートカード&#45;&gt;じゃらん -->
<g id="edge39" class="edge">
<title>リクルートカード&#45;&gt;じゃらん</title>
<path fill="none" stroke="#000000" stroke-width="2" d="M337.5735,-937.0568C364.467,-966.108 422.7462,-1020 485,-1020 485,-1020 485,-1020 858,-1020 903.1259,-1020 897.3618,-978.3116 936,-955 941.8729,-951.4567 948.2953,-948.1759 954.7491,-945.2114"/>
<polygon fill="#000000" stroke="#000000" stroke-width="2" points="956.402,-948.3088 964.1667,-941.1006 953.6016,-941.8934 956.402,-948.3088"/>
</g>
<!-- Suica&#45;&gt;ビューサンクスポイント -->
<g id="edge29" class="edge">
<title>Suica&#45;&gt;ビューサンクスポイント</title>
<path fill="none" stroke="#000000" d="M494.1516,-1461.7444C502.9698,-1446.082 517.7923,-1424.1698 537,-1412 552.7241,-1402.0374 571.0594,-1395.1338 589.3828,-1390.3603"/>
<polygon fill="#000000" stroke="#000000" points="590.3419,-1393.7295 599.2459,-1387.9876 588.7047,-1386.9237 590.3419,-1393.7295"/>
<text text-anchor="middle" x="555.5" y="-1415.8" font-family="Times,serif" font-size="14.00" fill="#000000">1%</text>
</g>
<!-- JREポイント -->
<g id="node22" class="node">
<title>JREポイント</title>
<polygon fill="none" stroke="#000000" points="736.5,-1452 635.5,-1452 635.5,-1416 736.5,-1416 736.5,-1452"/>
<text text-anchor="middle" x="686" y="-1430.3" font-family="Times,serif" font-size="14.00" fill="#000000">JREポイント</text>
</g>
<!-- Suica&#45;&gt;JREポイント -->
<g id="edge27" class="edge">
<title>Suica&#45;&gt;JREポイント</title>
<path fill="none" stroke="#000000" d="M512.6841,-1461.9181C520.294,-1457.6946 528.7341,-1453.6584 537,-1451 565.1316,-1441.9525 597.607,-1437.5859 625.0446,-1435.5281"/>
<polygon fill="#000000" stroke="#000000" points="625.548,-1439.0024 635.2941,-1434.8475 625.0842,-1432.0178 625.548,-1439.0024"/>
<text text-anchor="middle" x="555.5" y="-1454.8" font-family="Times,serif" font-size="14.00" fill="#000000">0.5%</text>
</g>
<!-- 電車 -->
<g id="node34" class="node">
<title>電車</title>
<polygon fill="none" stroke="#000000" points="1028.5,-1581 974.5,-1581 974.5,-1545 1028.5,-1545 1028.5,-1581"/>
<text text-anchor="middle" x="1001.5" y="-1559.3" font-family="Times,serif" font-size="14.00" fill="#000000">電車</text>
</g>
<!-- Suica&#45;&gt;電車 -->
<g id="edge24" class="edge">
<title>Suica&#45;&gt;電車</title>
<path fill="none" stroke="#000000" stroke-width="2" d="M513.1947,-1488.2268C520.8736,-1490.293 529.2199,-1492.3805 537,-1494 694.5475,-1526.7955 885.2929,-1550.0386 964.3783,-1558.9627"/>
<polygon fill="#000000" stroke="#000000" stroke-width="2" points="964.015,-1562.4438 974.3422,-1560.0777 964.7935,-1555.4872 964.015,-1562.4438"/>
</g>
<!-- 松屋 -->
<g id="node49" class="node">
<title>松屋</title>
<polygon fill="none" stroke="#000000" points="1028.5,-1498 974.5,-1498 974.5,-1462 1028.5,-1462 1028.5,-1498"/>
<text text-anchor="middle" x="1001.5" y="-1476.3" font-family="Times,serif" font-size="14.00" fill="#000000">松屋</text>
</g>
<!-- Suica&#45;&gt;松屋 -->
<g id="edge25" class="edge">
<title>Suica&#45;&gt;松屋</title>
<path fill="none" stroke="#000000" stroke-width="2" d="M513.1361,-1480C600.2707,-1480 865.6977,-1480 964.1939,-1480"/>
<polygon fill="#000000" stroke="#000000" stroke-width="2" points="964.2791,-1483.5001 974.2791,-1480 964.279,-1476.5001 964.2791,-1483.5001"/>
</g>
<!-- 大阪地下鉄 -->
<g id="node35" class="node">
<title>大阪地下鉄</title>
<polygon fill="none" stroke="#000000" points="1045.5,-1833 957.5,-1833 957.5,-1797 1045.5,-1797 1045.5,-1833"/>
<text text-anchor="middle" x="1001.5" y="-1811.3" font-family="Times,serif" font-size="14.00" fill="#000000">大阪地下鉄</text>
</g>
<!-- PiTaPa&#45;&gt;大阪地下鉄 -->
<g id="edge15" class="edge">
<title>PiTaPa&#45;&gt;大阪地下鉄</title>
<path fill="none" stroke="#000000" stroke-width="2" d="M517.7012,-1829.987C604.1875,-1827.3078 839.6388,-1820.0141 946.925,-1816.6906"/>
<polygon fill="#000000" stroke="#000000" stroke-width="2" points="947.3194,-1820.1802 957.2062,-1816.3721 947.1026,-1813.1835 947.3194,-1820.1802"/>
</g>
<!-- 山陽バス -->
<g id="node36" class="node">
<title>山陽バス</title>
<polygon fill="none" stroke="#000000" points="1038.5,-1887 964.5,-1887 964.5,-1851 1038.5,-1851 1038.5,-1887"/>
<text text-anchor="middle" x="1001.5" y="-1865.3" font-family="Times,serif" font-size="14.00" fill="#000000">山陽バス</text>
</g>
<!-- PiTaPa&#45;&gt;山陽バス -->
<g id="edge17" class="edge">
<title>PiTaPa&#45;&gt;山陽バス</title>
<path fill="none" stroke="#000000" stroke-width="2" stroke-dasharray="5,2" d="M517.6018,-1838.6792C524.003,-1839.965 530.6894,-1841.154 537,-1842 688.5997,-1862.3232 870.0605,-1867.3535 954.2692,-1868.5952"/>
<polygon fill="#000000" stroke="#000000" stroke-width="2" points="954.2425,-1872.0951 964.2892,-1868.7317 954.3379,-1865.0957 954.2425,-1872.0951"/>
</g>
<!-- 切符 -->
<g id="node29" class="node">
<title>切符</title>
<polygon fill="none" stroke="#000000" points="885,-1621 831,-1621 831,-1585 885,-1585 885,-1621"/>
<text text-anchor="middle" x="858" y="-1599.3" font-family="Times,serif" font-size="14.00" fill="#000000">切符</text>
</g>
<!-- 現金&#45;&gt;切符 -->
<g id="edge69" class="edge">
<title>現金&#45;&gt;切符</title>
<path fill="none" stroke="#000000" stroke-width="2" d="M512.1257,-1599.2794C577.7976,-1595.4276 745.448,-1595.2489 820.5847,-1598.7431"/>
<polygon fill="#000000" stroke="#000000" stroke-width="2" points="820.8072,-1602.2594 830.976,-1599.2853 821.172,-1595.2689 820.8072,-1602.2594"/>
</g>
<!-- 飲食店 -->
<g id="node46" class="node">
<title>飲食店</title>
<polygon fill="none" stroke="#000000" points="1031,-1722 972,-1722 972,-1686 1031,-1686 1031,-1722"/>
<text text-anchor="middle" x="1001.5" y="-1700.3" font-family="Times,serif" font-size="14.00" fill="#000000">飲食店</text>
</g>
<!-- 現金&#45;&gt;飲食店 -->
<g id="edge66" class="edge">
<title>現金&#45;&gt;飲食店</title>
<path fill="none" stroke="#000000" stroke-width="2" d="M501.8443,-1621.3373C521.35,-1641.1512 555.5064,-1671.6736 592,-1685 720.4965,-1731.9232 886.8846,-1719.0956 961.8278,-1709.7893"/>
<polygon fill="#000000" stroke="#000000" stroke-width="2" points="962.3118,-1713.256 971.7823,-1708.5061 961.4168,-1706.3134 962.3118,-1713.256"/>
</g>
<!-- 吉野家 -->
<g id="node50" class="node">
<title>吉野家</title>
<polygon fill="none" stroke="#000000" points="1031,-1444 972,-1444 972,-1408 1031,-1408 1031,-1444"/>
<text text-anchor="middle" x="1001.5" y="-1422.3" font-family="Times,serif" font-size="14.00" fill="#000000">吉野家</text>
</g>
<!-- 現金&#45;&gt;吉野家 -->
<g id="edge67" class="edge">
<title>現金&#45;&gt;吉野家</title>
<path fill="none" stroke="#000000" stroke-width="2" d="M512.1028,-1599.0986C578.2713,-1589.3564 746.4814,-1563.2204 799,-1542 866.3214,-1514.7984 871.7156,-1486.7582 936,-1453 944.3969,-1448.5905 953.6779,-1444.3877 962.5487,-1440.6672"/>
<polygon fill="#000000" stroke="#000000" stroke-width="2" points="964.0142,-1443.8495 971.9521,-1436.8324 961.3708,-1437.3678 964.0142,-1443.8495"/>
</g>
<!-- nanacoポイント -->
<g id="node25" class="node">
<title>nanacoポイント</title>
<polygon fill="none" stroke="#000000" points="748.5,-1122 623.5,-1122 623.5,-1086 748.5,-1086 748.5,-1122"/>
<text text-anchor="middle" x="686" y="-1100.3" font-family="Times,serif" font-size="14.00" fill="#000000">nanacoポイント</text>
</g>
<!-- nanaco&#45;&gt;nanacoポイント -->
<g id="edge59" class="edge">
<title>nanaco&#45;&gt;nanacoポイント</title>
<path fill="none" stroke="#000000" d="M513.4886,-1084.1414C520.8831,-1088.0537 529.0193,-1091.701 537,-1094 561.3049,-1101.0015 588.7242,-1104.119 613.3544,-1105.2958"/>
<polygon fill="#000000" stroke="#000000" points="613.2346,-1108.7937 623.3606,-1105.6768 613.5011,-1101.7988 613.2346,-1108.7937"/>
<text text-anchor="middle" x="555.5" y="-1105.8" font-family="Times,serif" font-size="14.00" fill="#000000">1%</text>
</g>
<!-- セブンイレブン -->
<g id="node32" class="node">
<title>セブンイレブン</title>
<polygon fill="none" stroke="#000000" points="1058.5,-1076 944.5,-1076 944.5,-1040 1058.5,-1040 1058.5,-1076"/>
<text text-anchor="middle" x="1001.5" y="-1054.3" font-family="Times,serif" font-size="14.00" fill="#000000">セブンイレブン</text>
</g>
<!-- nanaco&#45;&gt;セブンイレブン -->
<g id="edge58" class="edge">
<title>nanaco&#45;&gt;セブンイレブン</title>
<path fill="none" stroke="#000000" stroke-width="2" d="M519.289,-1065.4689C603.7346,-1064.1609 822.9481,-1060.7656 934.3696,-1059.0398"/>
<polygon fill="#000000" stroke="#000000" stroke-width="2" points="934.5377,-1062.5377 944.4823,-1058.8831 934.4293,-1055.5385 934.5377,-1062.5377"/>
</g>
<!-- Edy&#45;&gt;Ponta -->
<g id="edge51" class="edge">
<title>Edy&#45;&gt;Ponta</title>
<path fill="none" stroke="#000000" d="M501.5515,-784.1931C511.402,-794.5907 524.402,-807.5907 537,-818 572.9599,-847.7124 617.641,-877.1129 648.648,-896.464"/>
<polygon fill="#000000" stroke="#000000" points="647.0648,-899.6004 657.409,-901.8914 650.7513,-893.6497 647.0648,-899.6004"/>
<text text-anchor="middle" x="555.5" y="-849.8" font-family="Times,serif" font-size="14.00" fill="#000000">0.5%</text>
</g>
<!-- ローソン -->
<g id="node31" class="node">
<title>ローソン</title>
<polygon fill="none" stroke="#000000" points="1038,-830 965,-830 965,-794 1038,-794 1038,-830"/>
<text text-anchor="middle" x="1001.5" y="-808.3" font-family="Times,serif" font-size="14.00" fill="#000000">ローソン</text>
</g>
<!-- Edy&#45;&gt;ローソン -->
<g id="edge42" class="edge">
<title>Edy&#45;&gt;ローソン</title>
<path fill="none" stroke="#000000" stroke-width="2" d="M512.0734,-773.7156C520.0441,-775.7291 528.8211,-777.6973 537,-779 688.4064,-803.1158 870.3911,-809.6115 954.566,-811.3587"/>
<polygon fill="#000000" stroke="#000000" stroke-width="2" points="954.7535,-814.8629 964.8197,-811.5578 954.8895,-807.8642 954.7535,-814.8629"/>
</g>
<!-- ファミリーマート -->
<g id="node33" class="node">
<title>ファミリーマート</title>
<polygon fill="none" stroke="#000000" points="1067,-776 936,-776 936,-740 1067,-740 1067,-776"/>
<text text-anchor="middle" x="1001.5" y="-754.3" font-family="Times,serif" font-size="14.00" fill="#000000">ファミリーマート</text>
</g>
<!-- Edy&#45;&gt;ファミリーマート -->
<g id="edge44" class="edge">
<title>Edy&#45;&gt;ファミリーマート</title>
<path fill="none" stroke="#000000" stroke-width="2" d="M512.0421,-765.5811C588.5056,-764.3968 808.3185,-760.9922 925.619,-759.1753"/>
<polygon fill="#000000" stroke="#000000" stroke-width="2" points="926.0083,-762.6698 935.9529,-759.0153 925.8999,-755.6706 926.0083,-762.6698"/>
</g>
<!-- ウェルシア -->
<g id="node42" class="node">
<title>ウェルシア</title>
<polygon fill="none" stroke="#000000" points="1045,-660 958,-660 958,-624 1045,-624 1045,-660"/>
<text text-anchor="middle" x="1001.5" y="-638.3" font-family="Times,serif" font-size="14.00" fill="#000000">ウェルシア</text>
</g>
<!-- Edy&#45;&gt;ウェルシア -->
<g id="edge49" class="edge">
<title>Edy&#45;&gt;ウェルシア</title>
<path fill="none" stroke="#000000" stroke-width="2" d="M505.0501,-747.9753C525.3979,-730.7929 558.58,-705.711 592,-693 712.9619,-646.9932 867.1086,-640.5202 947.3807,-640.6961"/>
<polygon fill="#000000" stroke="#000000" stroke-width="2" points="947.7159,-644.198 957.7364,-640.757 947.7572,-637.1981 947.7159,-644.198"/>
</g>
<!-- ヨドバシカメラ -->
<g id="node44" class="node">
<title>ヨドバシカメラ</title>
<polygon fill="none" stroke="#000000" points="1059.5,-376 943.5,-376 943.5,-340 1059.5,-340 1059.5,-376"/>
<text text-anchor="middle" x="1001.5" y="-354.3" font-family="Times,serif" font-size="14.00" fill="#000000">ヨドバシカメラ</text>
</g>
<!-- Edy&#45;&gt;ヨドバシカメラ -->
<g id="edge46" class="edge">
<title>Edy&#45;&gt;ヨドバシカメラ</title>
<path fill="none" stroke="#000000" stroke-width="2" d="M486.9057,-747.9186C494.8477,-676.5414 527.926,-416.0573 592,-371 693.2645,-299.79 846.1101,-319.3961 933.5972,-339.2484"/>
<polygon fill="#000000" stroke="#000000" stroke-width="2" points="932.8806,-342.6751 943.4144,-341.5396 934.4716,-335.8583 932.8806,-342.6751"/>
</g>
<!-- 餃子の王将 -->
<g id="node45" class="node">
<title>餃子の王将</title>
<polygon fill="none" stroke="#000000" points="1045.5,-606 957.5,-606 957.5,-570 1045.5,-570 1045.5,-606"/>
<text text-anchor="middle" x="1001.5" y="-584.3" font-family="Times,serif" font-size="14.00" fill="#000000">餃子の王将</text>
</g>
<!-- Edy&#45;&gt;餃子の王将 -->
<g id="edge65" class="edge">
<title>Edy&#45;&gt;餃子の王将</title>
<path fill="none" stroke="#000000" stroke-width="2" d="M494.9469,-747.8327C511.1551,-720.3011 546.1168,-668.9036 592,-647 709.4861,-590.9147 865.8796,-584.6716 947.196,-585.8077"/>
<polygon fill="#000000" stroke="#000000" stroke-width="2" points="947.1464,-589.3073 957.2087,-585.9907 947.2743,-582.3085 947.1464,-589.3073"/>
</g>
<!-- FRESCO -->
<g id="node47" class="node">
<title>FRESCO</title>
<polygon fill="none" stroke="#000000" points="1041.5,-479 961.5,-479 961.5,-443 1041.5,-443 1041.5,-479"/>
<text text-anchor="middle" x="1001.5" y="-457.3" font-family="Times,serif" font-size="14.00" fill="#000000">FRESCO</text>
</g>
<!-- Edy&#45;&gt;FRESCO -->
<g id="edge62" class="edge">
<title>Edy&#45;&gt;FRESCO</title>
<path fill="none" stroke="#000000" stroke-width="2" d="M486.0625,-747.8356C490.0317,-698.275 508.4492,-560.275 592,-498 698.8631,-418.3491 867.6773,-435.2023 951.2299,-450.1598"/>
<polygon fill="#000000" stroke="#000000" stroke-width="2" points="950.7583,-453.632 961.2289,-452.0144 952.0349,-446.7493 950.7583,-453.632"/>
</g>
<!-- 業務スーパー -->
<g id="node48" class="node">
<title>業務スーパー</title>
<polygon fill="none" stroke="#000000" points="1052,-1000 951,-1000 951,-964 1052,-964 1052,-1000"/>
<text text-anchor="middle" x="1001.5" y="-978.3" font-family="Times,serif" font-size="14.00" fill="#000000">業務スーパー</text>
</g>
<!-- Edy&#45;&gt;業務スーパー -->
<g id="edge61" class="edge">
<title>Edy&#45;&gt;業務スーパー</title>
<path fill="none" stroke="#000000" stroke-width="2" d="M489.5095,-784.2067C500.0184,-822.2491 530.0865,-909.6413 592,-946 701.4035,-1010.2471 856.3344,-1002.6246 940.8042,-991.967"/>
<polygon fill="#000000" stroke="#000000" stroke-width="2" points="941.2911,-995.4332 950.7482,-990.6569 940.3767,-988.4932 941.2911,-995.4332"/>
</g>
<!-- Ponta&#45;&gt;じゃらん -->
<g id="edge53" class="edge">
<title>Ponta&#45;&gt;じゃらん</title>
<path fill="none" stroke="#000000" d="M714.6204,-917.5914C755.5335,-915.837 833.0836,-913.4731 899,-917 916.9081,-917.9582 936.5009,-919.8515 953.7159,-921.8012"/>
<polygon fill="#000000" stroke="#000000" points="953.7522,-925.3292 964.0911,-923.0146 954.5654,-918.3766 953.7522,-925.3292"/>
</g>
<!-- Tポイント -->
<g id="node20" class="node">
<title>Tポイント</title>
<polygon fill="none" stroke="#000000" points="727.5,-738 644.5,-738 644.5,-702 727.5,-702 727.5,-738"/>
<text text-anchor="middle" x="686" y="-716.3" font-family="Times,serif" font-size="14.00" fill="#000000">Tポイント</text>
</g>
<!-- JREポイント&#45;&gt;Suica -->
<g id="edge28" class="edge">
<title>JREポイント&#45;&gt;Suica</title>
<path fill="none" stroke="#000000" d="M635.1807,-1427.9846C605.6554,-1426.3614 568.2358,-1427.5766 537,-1439 527.3839,-1442.5167 518.1649,-1448.549 510.2305,-1454.9207"/>
<polygon fill="#000000" stroke="#000000" points="507.769,-1452.4212 502.4644,-1461.5925 512.3304,-1457.7309 507.769,-1452.4212"/>
</g>
<!-- ビックポイント&#45;&gt;ビックカメラ -->
<g id="edge22" class="edge">
<title>ビックポイント&#45;&gt;ビックカメラ</title>
<path fill="none" stroke="#000000" d="M744.2352,-1320.4626C800.052,-1315.1551 883.9633,-1307.1762 940.6405,-1301.787"/>
<polygon fill="#000000" stroke="#000000" points="941.2698,-1305.243 950.8936,-1300.812 940.6071,-1298.2744 941.2698,-1305.243"/>
</g>
<!-- Amazonポイント -->
<g id="node24" class="node">
<title>Amazonポイント</title>
<polygon fill="none" stroke="#000000" points="751.5,-191 620.5,-191 620.5,-155 751.5,-155 751.5,-191"/>
<text text-anchor="middle" x="686" y="-169.3" font-family="Times,serif" font-size="14.00" fill="#000000">Amazonポイント</text>
</g>
<!-- Amazonポイント&#45;&gt;Amazon -->
<g id="edge56" class="edge">
<title>Amazonポイント&#45;&gt;Amazon</title>
<path fill="none" stroke="#000000" d="M751.7551,-172.1899C812.3235,-174.89 900.7041,-181.5427 954.471,-187.5972"/>
<polygon fill="#000000" stroke="#000000" points="954.0801,-191.0753 964.4186,-188.7592 954.8922,-184.1225 954.0801,-191.0753"/>
</g>
<!-- nanacoポイント&#45;&gt;nanaco -->
<g id="edge60" class="edge">
<title>nanacoポイント&#45;&gt;nanaco</title>
<path fill="none" stroke="#000000" d="M623.242,-1092.1353C592.7412,-1086.369 556.8142,-1079.5768 529.2311,-1074.3621"/>
<polygon fill="#000000" stroke="#000000" points="529.5731,-1070.8648 519.0969,-1072.4462 528.2727,-1077.743 529.5731,-1070.8648"/>
</g>
<!-- FRESCOポイント -->
<g id="node26" class="node">
<title>FRESCOポイント</title>
<polygon fill="none" stroke="#000000" points="754.5,-543 617.5,-543 617.5,-507 754.5,-507 754.5,-543"/>
<text text-anchor="middle" x="686" y="-521.3" font-family="Times,serif" font-size="14.00" fill="#000000">FRESCOポイント</text>
</g>
<!-- FRESCOポイント&#45;&gt;FRESCO -->
<g id="edge64" class="edge">
<title>FRESCOポイント&#45;&gt;FRESCO</title>
<path fill="none" stroke="#000000" d="M754.8479,-511.034C814.1247,-499.0096 898.2675,-481.941 951.352,-471.1727"/>
<polygon fill="#000000" stroke="#000000" points="952.1092,-474.5904 961.2137,-469.1722 950.7175,-467.7302 952.1092,-474.5904"/>
</g>
<!-- ヨドバシゴールドポイント -->
<g id="node27" class="node">
<title>ヨドバシゴールドポイント</title>
<polygon fill="none" stroke="#000000" points="780,-416 592,-416 592,-380 780,-380 780,-416"/>
<text text-anchor="middle" x="686" y="-394.3" font-family="Times,serif" font-size="14.00" fill="#000000">ヨドバシゴールドポイント</text>
</g>
<!-- ヨドバシゴールドポイント&#45;&gt;ヨドバシカメラ -->
<g id="edge48" class="edge">
<title>ヨドバシゴールドポイント&#45;&gt;ヨドバシカメラ</title>
<path fill="none" stroke="#000000" d="M780.1038,-407.8494C817.4451,-409.5497 860.5688,-408.7347 899,-401 919.4598,-396.8823 940.9259,-388.5695 958.8966,-380.341"/>
<polygon fill="#000000" stroke="#000000" points="960.4015,-383.5011 967.9517,-376.0684 957.4143,-377.1704 960.4015,-383.5011"/>
</g>
<!-- はぴeポイント -->
<g id="node28" class="node">
<title>はぴeポイント</title>
<polygon fill="none" stroke="#000000" points="741,-1676 631,-1676 631,-1640 741,-1640 741,-1676"/>
<text text-anchor="middle" x="686" y="-1654.3" font-family="Times,serif" font-size="14.00" fill="#000000">はぴeポイント</text>
</g>
<!-- はぴeポイント&#45;&gt;Ponta -->
<g id="edge12" class="edge">
<title>はぴeポイント&#45;&gt;Ponta</title>
<path fill="none" stroke="#000000" d="M672.7252,-1639.8631C652.0552,-1610.6847 612.4349,-1550.8214 592,-1494 563.9967,-1416.1339 567.5254,-1392.9497 560.5,-1310.5 551.6094,-1206.1602 557.0845,-1175.7256 592,-1077 609.6287,-1027.1538 643.8007,-975.6616 665.7258,-945.5238"/>
<polygon fill="#000000" stroke="#000000" points="668.7129,-947.3703 671.8329,-937.2452 663.0798,-943.2147 668.7129,-947.3703"/>
<text text-anchor="middle" x="555.5" y="-1299.3" font-family="Times,serif" font-size="14.00" fill="#000000">80%</text>
</g>
<!-- 切符&#45;&gt;現金 -->
<g id="edge71" class="edge">
<title>切符&#45;&gt;現金</title>
<path fill="none" stroke="#000000" d="M830.976,-1606.7147C765.4095,-1610.5702 597.764,-1610.7527 522.5318,-1607.2623"/>
<polygon fill="#000000" stroke="#000000" points="522.2941,-1603.7452 512.1257,-1606.7206 521.9302,-1610.7358 522.2941,-1603.7452"/>
</g>
<!-- 切符&#45;&gt;電車 -->
<g id="edge70" class="edge">
<title>切符&#45;&gt;電車</title>
<path fill="none" stroke="#000000" stroke-width="2" d="M885.329,-1595.3822C907.7711,-1589.1265 939.7721,-1580.2064 964.5068,-1573.3117"/>
<polygon fill="#000000" stroke="#000000" stroke-width="2" points="965.5798,-1576.6461 974.2727,-1570.5895 963.7001,-1569.9032 965.5798,-1576.6461"/>
</g>
<!-- ローソン&#45;&gt;Ponta -->
<g id="edge43" class="edge">
<title>ローソン&#45;&gt;Ponta</title>
<path fill="none" stroke="#000000" d="M964.8581,-824.4269C904.6622,-844.842 785.4268,-885.28 724.2178,-906.0387"/>
<polygon fill="#000000" stroke="#000000" points="722.901,-902.7893 714.555,-909.3157 725.1493,-909.4185 722.901,-902.7893"/>
<text text-anchor="middle" x="858" y="-878.8" font-family="Times,serif" font-size="14.00" fill="#000000">1%</text>
</g>
<!-- ファミリーマート&#45;&gt;Tポイント -->
<g id="edge45" class="edge">
<title>ファミリーマート&#45;&gt;Tポイント</title>
<path fill="none" stroke="#000000" d="M935.8164,-743.3028C923.6228,-740.9278 910.9599,-738.6959 899,-737 844.2547,-729.237 781.0529,-724.7509 737.8,-722.3574"/>
<polygon fill="#000000" stroke="#000000" points="737.9697,-718.8615 727.7967,-721.8215 737.5951,-725.8515 737.9697,-718.8615"/>
<text text-anchor="middle" x="858" y="-740.8" font-family="Times,serif" font-size="14.00" fill="#000000">0.5%</text>
</g>
<!-- 大阪地下鉄&#45;&gt;三井住友VISAカード -->
<g id="edge16" class="edge">
<title>大阪地下鉄&#45;&gt;三井住友VISAカード</title>
<path fill="none" stroke="#000000" d="M957.3919,-1812.0458C912.7027,-1809.1387 841.5724,-1804.7474 780,-1802 650.7368,-1796.2322 500.8439,-1792.1421 408.7175,-1789.9262"/>
<polygon fill="#000000" stroke="#000000" points="408.6851,-1786.4245 398.6044,-1789.6849 408.518,-1793.4225 408.6851,-1786.4245"/>
<text text-anchor="middle" x="686" y="-1805.8" font-family="Times,serif" font-size="14.00" fill="#000000">10%</text>
</g>
<!-- 関西電力&#45;&gt;はぴeポイント -->
<g id="edge11" class="edge">
<title>関西電力&#45;&gt;はぴeポイント</title>
<path fill="none" stroke="#000000" d="M964.2648,-1743.1178C954.9841,-1739.2806 945.0893,-1735.0796 936,-1731 919.3163,-1723.5118 916.1612,-1719.3176 899,-1713 850.5564,-1695.1663 793.8902,-1680.8322 751.1887,-1671.2737"/>
<polygon fill="#000000" stroke="#000000" points="751.719,-1667.8065 741.1995,-1669.0676 750.2093,-1674.6418 751.719,-1667.8065"/>
<text text-anchor="middle" x="858" y="-1716.8" font-family="Times,serif" font-size="14.00" fill="#000000">0.8%, 0.5%</text>
</g>
<!-- ウェルシア&#45;&gt;Tポイント -->
<g id="edge50" class="edge">
<title>ウェルシア&#45;&gt;Tポイント</title>
<path fill="none" stroke="#000000" d="M957.8091,-652.8016C900.1288,-667.0617 798.7317,-692.1297 737.4226,-707.287"/>
<polygon fill="#000000" stroke="#000000" points="736.4382,-703.9249 727.5705,-709.7227 738.1183,-710.7203 736.4382,-703.9249"/>
<text text-anchor="middle" x="858" y="-691.8" font-family="Times,serif" font-size="14.00" fill="#000000">1%</text>
</g>
<!-- ビックカメラ&#45;&gt;ビックポイント -->
<g id="edge20" class="edge">
<title>ビックカメラ&#45;&gt;ビックポイント</title>
<path fill="none" stroke="#000000" stroke-dasharray="5,2" d="M967.9984,-1314.156C953.1388,-1321.2196 935.1613,-1328.4581 918,-1332 863.7758,-1343.1912 800.917,-1340.639 754.3175,-1335.8733"/>
<polygon fill="#000000" stroke="#000000" points="754.6507,-1332.389 744.3322,-1334.7931 753.8977,-1339.3484 754.6507,-1332.389"/>
<text text-anchor="middle" x="858" y="-1343.8" font-family="Times,serif" font-size="14.00" fill="#000000">9.5%</text>
</g>
<!-- ヨドバシカメラ&#45;&gt;ヨドバシゴールドポイント -->
<g id="edge47" class="edge">
<title>ヨドバシカメラ&#45;&gt;ヨドバシゴールドポイント</title>
<path fill="none" stroke="#000000" d="M943.4171,-365.3639C900.6191,-370.79 841.2438,-378.3177 790.3016,-384.7763"/>
<polygon fill="#000000" stroke="#000000" points="789.7134,-381.3228 780.233,-386.0529 790.5939,-388.2672 789.7134,-381.3228"/>
<text text-anchor="middle" x="858" y="-385.8" font-family="Times,serif" font-size="14.00" fill="#000000">10%</text>
</g>
<!-- FRESCO&#45;&gt;FRESCOポイント -->
<g id="edge63" class="edge">
<title>FRESCO&#45;&gt;FRESCOポイント</title>
<path fill="none" stroke="#000000" d="M979.3101,-479.1993C963.3181,-491.1677 940.6473,-505.8868 918,-513 868.6336,-528.5054 810.4787,-531.4834 764.7431,-530.596"/>
<polygon fill="#000000" stroke="#000000" points="764.676,-527.0932 754.5885,-530.3321 764.4941,-534.0908 764.676,-527.0932"/>
<text text-anchor="middle" x="858" y="-533.8" font-family="Times,serif" font-size="14.00" fill="#000000">0.5%</text>
</g>
<!-- 吉野家&#45;&gt;Tポイント -->
<g id="edge68" class="edge">
<title>吉野家&#45;&gt;Tポイント</title>
<path fill="none" stroke="#000000" d="M971.8473,-1424.6647C929.8549,-1421.0268 854.0563,-1407.6681 817,-1359 753.9351,-1276.1733 809.7298,-991.7676 780,-892 763.5664,-836.852 727.8283,-779.5115 705.4594,-746.9378"/>
<polygon fill="#000000" stroke="#000000" points="708.1201,-744.634 699.532,-738.4295 702.3765,-748.6354 708.1201,-744.634"/>
<text text-anchor="middle" x="858" y="-1414.8" font-family="Times,serif" font-size="14.00" fill="#000000">0.5%</text>
</g>
<!-- Amazon&#45;&gt;Amazonポイント -->
<g id="edge55" class="edge">
<title>Amazon&#45;&gt;Amazonポイント</title>
<path fill="none" stroke="#000000" d="M964.4186,-197.8344C914.8628,-196.6296 825.8626,-190.5839 761.8109,-184.3915"/>
<polygon fill="#000000" stroke="#000000" points="762.051,-180.8983 751.7551,-183.3972 761.3621,-187.8643 762.051,-180.8983"/>
</g>
<!-- じゃらん&#45;&gt;Ponta -->
<g id="edge54" class="edge">
<title>じゃらん&#45;&gt;Ponta</title>
<path fill="none" stroke="#000000" d="M964.3554,-927.8844C923.5518,-927.6566 856.0901,-926.9834 798,-925 773.5825,-924.1663 746.1962,-922.7085 724.6164,-921.4387"/>
<polygon fill="#000000" stroke="#000000" points="724.7191,-917.9387 714.5276,-920.834 724.3002,-924.9261 724.7191,-917.9387"/>
<text text-anchor="middle" x="858" y="-931.8" font-family="Times,serif" font-size="14.00" fill="#000000">2%</text>
</g>
</g>
</svg>
