<?xml version="1.0" encoding="UTF-8" standalone="no"?>
<!DOCTYPE svg PUBLIC "-//W3C//DTD SVG 1.1//EN"
 "http://www.w3.org/Graphics/SVG/1.1/DTD/svg11.dtd">
<!-- Generated by graphviz version 2.40.1 (0)
 -->
<!-- Title: MoneyFlow Pages: 1 -->
<svg width="1085pt" height="2100pt"
 viewBox="0.00 0.00 1085.00 2100.00" xmlns="http://www.w3.org/2000/svg" xmlns:xlink="http://www.w3.org/1999/xlink">
<g id="graph0" class="graph" transform="scale(1 1) rotate(0) translate(4 2096)">
<title>MoneyFlow</title>
<polygon fill="#ffffff" stroke="transparent" points="-4,4 -4,-2096 1081,-2096 1081,4 -4,4"/>
<!-- 収入 -->
<g id="node1" class="node">
<title>収入</title>
<text text-anchor="middle" x="27" y="-14.3" font-family="Times,serif" font-size="14.00" fill="#000000">収入</text>
</g>
<!-- 銀行口座 -->
<g id="node2" class="node">
<title>銀行口座</title>
<text text-anchor="middle" x="142" y="-14.3" font-family="Times,serif" font-size="14.00" fill="#000000">銀行口座</text>
</g>
<!-- 収入&#45;&gt;銀行口座 -->
<g id="edge1" class="edge">
<title>収入&#45;&gt;銀行口座</title>
<path fill="none" stroke="#000000" d="M54.2534,-18C69.3972,-18 88.4539,-18 104.9357,-18"/>
</g>
<!-- クレジットカード -->
<g id="node3" class="node">
<title>クレジットカード</title>
<text text-anchor="middle" x="322" y="-14.3" font-family="Times,serif" font-size="14.00" fill="#000000">クレジットカード</text>
</g>
<!-- 銀行口座&#45;&gt;クレジットカード -->
<g id="edge2" class="edge">
<title>銀行口座&#45;&gt;クレジットカード</title>
<path fill="none" stroke="#000000" d="M179.2961,-18C201.6417,-18 230.6798,-18 256.7236,-18"/>
</g>
<!-- マネー -->
<g id="node4" class="node">
<title>マネー</title>
<text text-anchor="middle" x="485" y="-14.3" font-family="Times,serif" font-size="14.00" fill="#000000">マネー</text>
</g>
<!-- クレジットカード&#45;&gt;マネー -->
<g id="edge3" class="edge">
<title>クレジットカード&#45;&gt;マネー</title>
<path fill="none" stroke="#000000" d="M387.3591,-18C410.9188,-18 436.353,-18 455.3549,-18"/>
</g>
<!-- ポイント -->
<g id="node5" class="node">
<title>ポイント</title>
<text text-anchor="middle" x="686" y="-14.3" font-family="Times,serif" font-size="14.00" fill="#000000">ポイント</text>
</g>
<!-- マネー&#45;&gt;ポイント -->
<g id="edge4" class="edge">
<title>マネー&#45;&gt;ポイント</title>
<path fill="none" stroke="#000000" d="M514.6582,-18C550.2582,-18 609.9876,-18 648.6865,-18"/>
</g>
<!-- 金券 -->
<g id="node6" class="node">
<title>金券</title>
<text text-anchor="middle" x="870.5" y="-14.3" font-family="Times,serif" font-size="14.00" fill="#000000">金券</text>
</g>
<!-- ポイント&#45;&gt;金券 -->
<g id="edge5" class="edge">
<title>ポイント&#45;&gt;金券</title>
<path fill="none" stroke="#000000" d="M723.3363,-18C758.9263,-18 811.6612,-18 843.3941,-18"/>
</g>
<!-- 支出 -->
<g id="node7" class="node">
<title>支出</title>
<text text-anchor="middle" x="1019" y="-14.3" font-family="Times,serif" font-size="14.00" fill="#000000">支出</text>
</g>
<!-- 金券&#45;&gt;支出 -->
<g id="edge6" class="edge">
<title>金券&#45;&gt;支出</title>
<path fill="none" stroke="#000000" d="M897.7372,-18C924.5314,-18 965.2011,-18 991.9355,-18"/>
</g>
<!-- 給与 -->
<g id="node8" class="node">
<title>給与</title>
<polygon fill="none" stroke="#000000" points="54,-1924 0,-1924 0,-1888 54,-1888 54,-1924"/>
<text text-anchor="middle" x="27" y="-1902.3" font-family="Times,serif" font-size="14.00" fill="#000000">給与</text>
</g>
<!-- 三井住友銀行 -->
<g id="node9" class="node">
<title>三井住友銀行</title>
<polygon fill="none" stroke="#000000" points="193,-1924 91,-1924 91,-1888 193,-1888 193,-1924"/>
<text text-anchor="middle" x="142" y="-1902.3" font-family="Times,serif" font-size="14.00" fill="#000000">三井住友銀行</text>
</g>
<!-- 給与&#45;&gt;三井住友銀行 -->
<g id="edge7" class="edge">
<title>給与&#45;&gt;三井住友銀行</title>
<path fill="none" stroke="#000000" stroke-width="2" d="M54.2534,-1906C62.2529,-1906 71.3442,-1906 80.571,-1906"/>
<polygon fill="#000000" stroke="#000000" stroke-width="2" points="80.5912,-1909.5001 90.5911,-1906 80.5911,-1902.5001 80.5912,-1909.5001"/>
</g>
<!-- 住信SBI銀行 -->
<g id="node10" class="node">
<title>住信SBI銀行</title>
<polygon fill="none" stroke="#000000" points="192,-1736 92,-1736 92,-1700 192,-1700 192,-1736"/>
<text text-anchor="middle" x="142" y="-1714.3" font-family="Times,serif" font-size="14.00" fill="#000000">住信SBI銀行</text>
</g>
<!-- 三井住友銀行&#45;&gt;住信SBI銀行 -->
<g id="edge9" class="edge">
<title>三井住友銀行&#45;&gt;住信SBI銀行</title>
<path fill="none" stroke="#000000" stroke-width="2" d="M142,-1887.7769C142,-1840.6561 142,-1793.5353 142,-1746.4144"/>
<polygon fill="#000000" stroke="#000000" stroke-width="2" points="145.5001,-1746.3593 142,-1736.3594 138.5001,-1746.3594 145.5001,-1746.3593"/>
</g>
<!-- 現金 -->
<g id="node15" class="node">
<title>現金</title>
<polygon fill="none" stroke="#000000" points="512,-1918 458,-1918 458,-1882 512,-1882 512,-1918"/>
<text text-anchor="middle" x="485" y="-1896.3" font-family="Times,serif" font-size="14.00" fill="#000000">現金</text>
</g>
<!-- 三井住友銀行&#45;&gt;現金 -->
<g id="edge8" class="edge">
<title>三井住友銀行&#45;&gt;現金</title>
<path fill="none" stroke="#000000" stroke-width="2" d="M193.3506,-1905.1017C263.1334,-1903.881 386.2513,-1901.7274 447.795,-1900.6508"/>
<polygon fill="#000000" stroke="#000000" stroke-width="2" points="447.8985,-1904.1496 457.8357,-1900.4752 447.776,-1897.1507 447.8985,-1904.1496"/>
</g>
<!-- PayPay -->
<g id="node18" class="node">
<title>PayPay</title>
<polygon fill="none" stroke="#000000" points="519,-2092 451,-2092 451,-2056 519,-2056 519,-2092"/>
<text text-anchor="middle" x="485" y="-2070.3" font-family="Times,serif" font-size="14.00" fill="#000000">PayPay</text>
</g>
<!-- 三井住友銀行&#45;&gt;PayPay -->
<g id="edge10" class="edge">
<title>三井住友銀行&#45;&gt;PayPay</title>
<path fill="none" stroke="#000000" stroke-width="2" d="M179.0329,-1924.1386C242.9775,-1955.4584 373.7595,-2019.5149 441.7646,-2052.8235"/>
<polygon fill="#000000" stroke="#000000" stroke-width="2" points="440.4101,-2056.0573 450.9303,-2057.3128 443.4892,-2049.7709 440.4101,-2056.0573"/>
</g>
<!-- ビックカメラSuicaカード -->
<g id="node11" class="node">
<title>ビックカメラSuicaカード</title>
<polygon fill="none" stroke="#000000" points="414,-1640 230,-1640 230,-1604 414,-1604 414,-1640"/>
<text text-anchor="middle" x="322" y="-1618.3" font-family="Times,serif" font-size="14.00" fill="#000000">ビックカメラSuicaカード</text>
</g>
<!-- 住信SBI銀行&#45;&gt;ビックカメラSuicaカード -->
<g id="edge27" class="edge">
<title>住信SBI銀行&#45;&gt;ビックカメラSuicaカード</title>
<path fill="none" stroke="#000000" stroke-width="2" d="M175.8566,-1699.9431C205.0538,-1684.3713 247.3764,-1661.7992 278.9702,-1644.9492"/>
<polygon fill="#000000" stroke="#000000" stroke-width="2" points="280.8132,-1647.933 287.9897,-1640.1388 277.5191,-1641.7565 280.8132,-1647.933"/>
</g>
<!-- リクルートカード -->
<g id="node12" class="node">
<title>リクルートカード</title>
<polygon fill="none" stroke="#000000" points="386.5,-723 257.5,-723 257.5,-687 386.5,-687 386.5,-723"/>
<text text-anchor="middle" x="322" y="-701.3" font-family="Times,serif" font-size="14.00" fill="#000000">リクルートカード</text>
</g>
<!-- 住信SBI銀行&#45;&gt;リクルートカード -->
<g id="edge28" class="edge">
<title>住信SBI銀行&#45;&gt;リクルートカード</title>
<path fill="none" stroke="#000000" stroke-width="2" d="M145.2006,-1699.9876C166.736,-1578.7912 290.4561,-882.5218 316.99,-733.1949"/>
<polygon fill="#000000" stroke="#000000" stroke-width="2" points="320.4928,-733.4875 318.7964,-723.0293 313.6008,-732.2628 320.4928,-733.4875"/>
</g>
<!-- PiTaPa -->
<g id="node13" class="node">
<title>PiTaPa</title>
<polygon fill="none" stroke="#000000" points="354.5,-1878 289.5,-1878 289.5,-1842 354.5,-1842 354.5,-1878"/>
<text text-anchor="middle" x="322" y="-1856.3" font-family="Times,serif" font-size="14.00" fill="#000000">PiTaPa</text>
</g>
<!-- 住信SBI銀行&#45;&gt;PiTaPa -->
<g id="edge29" class="edge">
<title>住信SBI銀行&#45;&gt;PiTaPa</title>
<path fill="none" stroke="#000000" stroke-width="2" d="M148.552,-1736.1017C158.3449,-1760.5974 179.1294,-1803.9913 211,-1828 230.637,-1842.7929 256.9197,-1850.7562 278.9808,-1855.0386"/>
<polygon fill="#000000" stroke="#000000" stroke-width="2" points="278.648,-1858.5334 289.1015,-1856.8087 279.8541,-1851.6381 278.648,-1858.5334"/>
</g>
<!-- 住信SBI銀行&#45;&gt;現金 -->
<g id="edge25" class="edge">
<title>住信SBI銀行&#45;&gt;現金</title>
<path fill="none" stroke="#000000" stroke-width="2" d="M192.0231,-1733.1498C248.6758,-1751.6292 342.4057,-1786.2765 414,-1833 431.6782,-1844.5371 448.9614,-1860.708 462.0491,-1874.2726"/>
<polygon fill="#000000" stroke="#000000" stroke-width="2" points="459.8354,-1877.0269 469.2414,-1881.9034 464.9294,-1872.2257 459.8354,-1877.0269"/>
</g>
<!-- 家賃 -->
<g id="node31" class="node">
<title>家賃</title>
<polygon fill="none" stroke="#000000" points="1046,-1433 992,-1433 992,-1397 1046,-1397 1046,-1433"/>
<text text-anchor="middle" x="1019" y="-1411.3" font-family="Times,serif" font-size="14.00" fill="#000000">家賃</text>
</g>
<!-- 住信SBI銀行&#45;&gt;家賃 -->
<g id="edge26" class="edge">
<title>住信SBI銀行&#45;&gt;家賃</title>
<path fill="none" stroke="#000000" stroke-width="2" d="M143.9038,-1699.9534C151.8724,-1634.7231 188.6139,-1415 322,-1415 322,-1415 322,-1415 870.5,-1415 908.4372,-1415 951.8261,-1415 981.8647,-1415"/>
<polygon fill="#000000" stroke="#000000" stroke-width="2" points="981.9022,-1418.5001 991.9022,-1415 981.9022,-1411.5001 981.9022,-1418.5001"/>
</g>
<!-- Suica -->
<g id="node14" class="node">
<title>Suica</title>
<polygon fill="none" stroke="#000000" points="513,-1520 457,-1520 457,-1484 513,-1484 513,-1520"/>
<text text-anchor="middle" x="485" y="-1498.3" font-family="Times,serif" font-size="14.00" fill="#000000">Suica</text>
</g>
<!-- ビックカメラSuicaカード&#45;&gt;Suica -->
<g id="edge17" class="edge">
<title>ビックカメラSuicaカード&#45;&gt;Suica</title>
<path fill="none" stroke="#000000" stroke-width="2" d="M346.7562,-1603.7746C374.9228,-1583.0384 421.0405,-1549.0867 452.185,-1526.1583"/>
<polygon fill="#000000" stroke="#000000" stroke-width="2" points="454.5669,-1528.751 460.5449,-1520.0037 450.4168,-1523.1138 454.5669,-1528.751"/>
</g>
<!-- JREポイント -->
<g id="node22" class="node">
<title>JREポイント</title>
<polygon fill="none" stroke="#000000" points="736.5,-1517 635.5,-1517 635.5,-1481 736.5,-1481 736.5,-1517"/>
<text text-anchor="middle" x="686" y="-1495.3" font-family="Times,serif" font-size="14.00" fill="#000000">JREポイント</text>
</g>
<!-- ビックカメラSuicaカード&#45;&gt;JREポイント -->
<g id="edge12" class="edge">
<title>ビックカメラSuicaカード&#45;&gt;JREポイント</title>
<path fill="none" stroke="#000000" d="M364.0491,-1603.9374C389.0896,-1593.461 421.6159,-1580.3378 451,-1570 509.554,-1549.3997 577.5437,-1529.2592 625.2815,-1515.7226"/>
<polygon fill="#000000" stroke="#000000" points="626.4773,-1519.0219 635.1502,-1512.9366 624.5754,-1512.2853 626.4773,-1519.0219"/>
<text text-anchor="middle" x="485" y="-1573.8" font-family="Times,serif" font-size="14.00" fill="#000000">0.5%</text>
</g>
<!-- ビックポイント -->
<g id="node23" class="node">
<title>ビックポイント</title>
<polygon fill="none" stroke="#000000" points="744,-1663 628,-1663 628,-1627 744,-1627 744,-1663"/>
<text text-anchor="middle" x="686" y="-1641.3" font-family="Times,serif" font-size="14.00" fill="#000000">ビックポイント</text>
</g>
<!-- ビックカメラSuicaカード&#45;&gt;ビックポイント -->
<g id="edge15" class="edge">
<title>ビックカメラSuicaカード&#45;&gt;ビックポイント</title>
<path fill="none" stroke="#000000" d="M414.3231,-1627.8336C477.7061,-1631.8386 560.4346,-1637.0659 617.8714,-1640.6952"/>
<polygon fill="#000000" stroke="#000000" points="617.7332,-1644.1933 627.934,-1641.331 618.1747,-1637.2073 617.7332,-1644.1933"/>
<text text-anchor="middle" x="485" y="-1638.8" font-family="Times,serif" font-size="14.00" fill="#000000">0.5%</text>
</g>
<!-- ビックカメラ -->
<g id="node43" class="node">
<title>ビックカメラ</title>
<polygon fill="none" stroke="#000000" points="1069.5,-1782 968.5,-1782 968.5,-1746 1069.5,-1746 1069.5,-1782"/>
<text text-anchor="middle" x="1019" y="-1760.3" font-family="Times,serif" font-size="14.00" fill="#000000">ビックカメラ</text>
</g>
<!-- ビックカメラSuicaカード&#45;&gt;ビックカメラ -->
<g id="edge13" class="edge">
<title>ビックカメラSuicaカード&#45;&gt;ビックカメラ</title>
<path fill="none" stroke="#000000" stroke-width="2" stroke-dasharray="5,2" d="M331.7004,-1640.2733C353.5331,-1678.6253 410.5011,-1764 485,-1764 485,-1764 485,-1764 870.5,-1764 899.4188,-1764 931.5054,-1764 958.4317,-1764"/>
<polygon fill="#000000" stroke="#000000" stroke-width="2" points="958.4815,-1767.5001 968.4815,-1764 958.4814,-1760.5001 958.4815,-1767.5001"/>
</g>
<!-- EX予約 -->
<g id="node53" class="node">
<title>EX予約</title>
<polygon fill="none" stroke="#000000" points="1052,-1617 986,-1617 986,-1581 1052,-1581 1052,-1617"/>
<text text-anchor="middle" x="1019" y="-1595.3" font-family="Times,serif" font-size="14.00" fill="#000000">EX予約</text>
</g>
<!-- ビックカメラSuicaカード&#45;&gt;EX予約 -->
<g id="edge22" class="edge">
<title>ビックカメラSuicaカード&#45;&gt;EX予約</title>
<path fill="none" stroke="#000000" stroke-width="2" stroke-dasharray="5,2" d="M414.347,-1604.3925C437.339,-1601.2743 461.994,-1599 485,-1599 485,-1599 485,-1599 870.5,-1599 906.0157,-1599 946.3093,-1599 975.9544,-1599"/>
<polygon fill="#000000" stroke="#000000" stroke-width="2" points="975.9708,-1602.5001 985.9708,-1599 975.9708,-1595.5001 975.9708,-1602.5001"/>
</g>
<!-- nanaco -->
<g id="node16" class="node">
<title>nanaco</title>
<polygon fill="none" stroke="#000000" points="519,-520 451,-520 451,-484 519,-484 519,-520"/>
<text text-anchor="middle" x="485" y="-498.3" font-family="Times,serif" font-size="14.00" fill="#000000">nanaco</text>
</g>
<!-- リクルートカード&#45;&gt;nanaco -->
<g id="edge58" class="edge">
<title>リクルートカード&#45;&gt;nanaco</title>
<path fill="none" stroke="#000000" stroke-width="2" d="M336.4652,-686.9851C365.3909,-650.961 430.4633,-569.9199 464.0545,-528.0855"/>
<polygon fill="#000000" stroke="#000000" stroke-width="2" points="466.801,-530.2551 470.3329,-520.2663 461.3428,-525.8724 466.801,-530.2551"/>
</g>
<!-- Edy -->
<g id="node17" class="node">
<title>Edy</title>
<polygon fill="none" stroke="#000000" points="512,-723 458,-723 458,-687 512,-687 512,-723"/>
<text text-anchor="middle" x="485" y="-701.3" font-family="Times,serif" font-size="14.00" fill="#000000">Edy</text>
</g>
<!-- リクルートカード&#45;&gt;Edy -->
<g id="edge43" class="edge">
<title>リクルートカード&#45;&gt;Edy</title>
<path fill="none" stroke="#000000" stroke-width="2" d="M386.8903,-705C407.522,-705 429.6367,-705 447.6378,-705"/>
<polygon fill="#000000" stroke="#000000" stroke-width="2" points="447.7189,-708.5001 457.7189,-705 447.7189,-701.5001 447.7189,-708.5001"/>
</g>
<!-- Ponta -->
<g id="node19" class="node">
<title>Ponta</title>
<polygon fill="none" stroke="#000000" points="714.5,-398 657.5,-398 657.5,-362 714.5,-362 714.5,-398"/>
<text text-anchor="middle" x="686" y="-376.3" font-family="Times,serif" font-size="14.00" fill="#000000">Ponta</text>
</g>
<!-- リクルートカード&#45;&gt;Ponta -->
<g id="edge53" class="edge">
<title>リクルートカード&#45;&gt;Ponta</title>
<path fill="none" stroke="#000000" d="M325.2561,-686.8886C334.6844,-638.3399 365.6622,-502.8264 432,-412 479.9759,-346.3138 589.1679,-358.1902 647.5316,-370.3019"/>
<polygon fill="#000000" stroke="#000000" points="646.9542,-373.7582 657.4703,-372.4693 648.4457,-366.9189 646.9542,-373.7582"/>
<text text-anchor="middle" x="485" y="-394.8" font-family="Times,serif" font-size="14.00" fill="#000000">1.2%</text>
</g>
<!-- ASAHIネット -->
<g id="node35" class="node">
<title>ASAHIネット</title>
<polygon fill="none" stroke="#000000" points="1073.5,-198 964.5,-198 964.5,-162 1073.5,-162 1073.5,-198"/>
<text text-anchor="middle" x="1019" y="-176.3" font-family="Times,serif" font-size="14.00" fill="#000000">ASAHIネット</text>
</g>
<!-- リクルートカード&#45;&gt;ASAHIネット -->
<g id="edge30" class="edge">
<title>リクルートカード&#45;&gt;ASAHIネット</title>
<path fill="none" stroke="#000000" stroke-width="2" d="M323.4912,-686.9607C331.6701,-593.8558 374.8087,-172 485,-172 485,-172 485,-172 870.5,-172 897.9656,-172 928.2473,-173.3814 954.262,-174.9962"/>
<polygon fill="#000000" stroke="#000000" stroke-width="2" points="954.1751,-178.4977 964.3797,-175.6488 954.6258,-171.5122 954.1751,-178.4977"/>
</g>
<!-- 楽天モバイル -->
<g id="node36" class="node">
<title>楽天モバイル</title>
<polygon fill="none" stroke="#000000" points="1070,-869 968,-869 968,-833 1070,-833 1070,-869"/>
<text text-anchor="middle" x="1019" y="-847.3" font-family="Times,serif" font-size="14.00" fill="#000000">楽天モバイル</text>
</g>
<!-- リクルートカード&#45;&gt;楽天モバイル -->
<g id="edge39" class="edge">
<title>リクルートカード&#45;&gt;楽天モバイル</title>
<path fill="none" stroke="#000000" stroke-width="2" d="M331.2391,-723.1958C352.5547,-762.3337 409.2086,-851 485,-851 485,-851 485,-851 870.5,-851 899.1902,-851 930.9983,-851 957.7922,-851"/>
<polygon fill="#000000" stroke="#000000" stroke-width="2" points="957.7988,-854.5001 967.7988,-851 957.7987,-847.5001 957.7988,-854.5001"/>
</g>
<!-- 楽天でんき -->
<g id="node37" class="node">
<title>楽天でんき</title>
<polygon fill="none" stroke="#000000" points="1063,-1066 975,-1066 975,-1030 1063,-1030 1063,-1066"/>
<text text-anchor="middle" x="1019" y="-1044.3" font-family="Times,serif" font-size="14.00" fill="#000000">楽天でんき</text>
</g>
<!-- リクルートカード&#45;&gt;楽天でんき -->
<g id="edge37" class="edge">
<title>リクルートカード&#45;&gt;楽天でんき</title>
<path fill="none" stroke="#000000" stroke-width="2" d="M325.1403,-723.2513C334.1177,-770.8329 363.7635,-900.6805 432,-983 438.3739,-990.6894 441.6095,-991.5982 451,-995 630.3766,-1059.9813 861.4139,-1057.1784 964.7977,-1051.8097"/>
<polygon fill="#000000" stroke="#000000" stroke-width="2" points="965.1974,-1055.2931 974.9905,-1051.2501 964.8136,-1048.3036 965.1974,-1055.2931"/>
</g>
<!-- 関西電力 -->
<g id="node38" class="node">
<title>関西電力</title>
<polygon fill="none" stroke="#000000" points="1056,-1204 982,-1204 982,-1168 1056,-1168 1056,-1204"/>
<text text-anchor="middle" x="1019" y="-1182.3" font-family="Times,serif" font-size="14.00" fill="#000000">関西電力</text>
</g>
<!-- リクルートカード&#45;&gt;関西電力 -->
<g id="edge34" class="edge">
<title>リクルートカード&#45;&gt;関西電力</title>
<path fill="none" stroke="#000000" stroke-width="2" d="M324.086,-723.2684C334.613,-811.1288 385.3662,-1186 485,-1186 485,-1186 485,-1186 870.5,-1186 904.2533,-1186 942.3221,-1186 971.4644,-1186"/>
<polygon fill="#000000" stroke="#000000" stroke-width="2" points="971.7726,-1189.5001 981.7726,-1186 971.7726,-1182.5001 971.7726,-1189.5001"/>
</g>
<!-- 楽天損保 -->
<g id="node40" class="node">
<title>楽天損保</title>
<polygon fill="none" stroke="#000000" points="1056,-144 982,-144 982,-108 1056,-108 1056,-144"/>
<text text-anchor="middle" x="1019" y="-122.3" font-family="Times,serif" font-size="14.00" fill="#000000">楽天損保</text>
</g>
<!-- リクルートカード&#45;&gt;楽天損保 -->
<g id="edge38" class="edge">
<title>リクルートカード&#45;&gt;楽天損保</title>
<path fill="none" stroke="#000000" stroke-width="2" d="M323.0875,-686.7154C329.4267,-588.2967 365.5602,-126 485,-126 485,-126 485,-126 870.5,-126 904.2533,-126 942.3221,-126 971.4644,-126"/>
<polygon fill="#000000" stroke="#000000" stroke-width="2" points="971.7726,-129.5001 981.7726,-126 971.7726,-122.5001 971.7726,-129.5001"/>
</g>
<!-- アイハート -->
<g id="node41" class="node">
<title>アイハート</title>
<polygon fill="none" stroke="#000000" points="1062,-90 976,-90 976,-54 1062,-54 1062,-90"/>
<text text-anchor="middle" x="1019" y="-68.3" font-family="Times,serif" font-size="14.00" fill="#000000">アイハート</text>
</g>
<!-- リクルートカード&#45;&gt;アイハート -->
<g id="edge33" class="edge">
<title>リクルートカード&#45;&gt;アイハート</title>
<path fill="none" stroke="#000000" stroke-width="2" d="M322.6641,-686.7382C326.9196,-582.9512 354.497,-72 485,-72 485,-72 485,-72 870.5,-72 902.072,-72 937.4196,-72 965.7061,-72"/>
<polygon fill="#000000" stroke="#000000" stroke-width="2" points="965.7878,-75.5001 975.7878,-72 965.7878,-68.5001 965.7878,-75.5001"/>
</g>
<!-- Amazon -->
<g id="node51" class="node">
<title>Amazon</title>
<polygon fill="none" stroke="#000000" points="1056,-1001 982,-1001 982,-965 1056,-965 1056,-1001"/>
<text text-anchor="middle" x="1019" y="-979.3" font-family="Times,serif" font-size="14.00" fill="#000000">Amazon</text>
</g>
<!-- リクルートカード&#45;&gt;Amazon -->
<g id="edge31" class="edge">
<title>リクルートカード&#45;&gt;Amazon</title>
<path fill="none" stroke="#000000" stroke-width="2" d="M323.8437,-723.2404C331.1929,-785.0879 364.1516,-983 485,-983 485,-983 485,-983 870.5,-983 904.2533,-983 942.3221,-983 971.4644,-983"/>
<polygon fill="#000000" stroke="#000000" stroke-width="2" points="971.7726,-986.5001 981.7726,-983 971.7726,-979.5001 971.7726,-986.5001"/>
</g>
<!-- じゃらん -->
<g id="node54" class="node">
<title>じゃらん</title>
<polygon fill="none" stroke="#000000" points="1056,-428 982,-428 982,-392 1056,-392 1056,-428"/>
<text text-anchor="middle" x="1019" y="-406.3" font-family="Times,serif" font-size="14.00" fill="#000000">じゃらん</text>
</g>
<!-- リクルートカード&#45;&gt;じゃらん -->
<g id="edge32" class="edge">
<title>リクルートカード&#45;&gt;じゃらん</title>
<path fill="none" stroke="#000000" stroke-width="2" d="M323.82,-686.694C331.0918,-624.624 363.828,-426 485,-426 485,-426 485,-426 870.5,-426 904.5975,-426 942.8469,-421.7785 971.9865,-417.6723"/>
<polygon fill="#000000" stroke="#000000" stroke-width="2" points="972.4997,-421.1346 981.8919,-416.2318 971.4923,-414.2075 972.4997,-421.1346"/>
</g>
<!-- 電車 -->
<g id="node33" class="node">
<title>電車</title>
<polygon fill="none" stroke="#000000" points="1046,-1871 992,-1871 992,-1835 1046,-1835 1046,-1871"/>
<text text-anchor="middle" x="1019" y="-1849.3" font-family="Times,serif" font-size="14.00" fill="#000000">電車</text>
</g>
<!-- PiTaPa&#45;&gt;電車 -->
<g id="edge69" class="edge">
<title>PiTaPa&#45;&gt;電車</title>
<path fill="none" stroke="#000000" stroke-width="2" d="M354.7639,-1857.7659C387.6656,-1855.7173 439.8221,-1853 485,-1853 485,-1853 485,-1853 870.5,-1853 908.4372,-1853 951.8261,-1853 981.8647,-1853"/>
<polygon fill="#000000" stroke="#000000" stroke-width="2" points="981.9022,-1856.5001 991.9022,-1853 981.9022,-1849.5001 981.9022,-1856.5001"/>
</g>
<!-- バス -->
<g id="node34" class="node">
<title>バス</title>
<polygon fill="none" stroke="#000000" points="1046,-2003 992,-2003 992,-1967 1046,-1967 1046,-2003"/>
<text text-anchor="middle" x="1019" y="-1981.3" font-family="Times,serif" font-size="14.00" fill="#000000">バス</text>
</g>
<!-- PiTaPa&#45;&gt;バス -->
<g id="edge71" class="edge">
<title>PiTaPa&#45;&gt;バス</title>
<path fill="none" stroke="#000000" stroke-width="2" d="M339.697,-1878.1761C374.2461,-1912.8445 450.3189,-1985 485,-1985 485,-1985 485,-1985 870.5,-1985 908.4372,-1985 951.8261,-1985 981.8647,-1985"/>
<polygon fill="#000000" stroke="#000000" stroke-width="2" points="981.9022,-1988.5001 991.9022,-1985 981.9022,-1981.5001 981.9022,-1988.5001"/>
</g>
<!-- Suica&#45;&gt;JREポイント -->
<g id="edge23" class="edge">
<title>Suica&#45;&gt;JREポイント</title>
<path fill="none" stroke="#000000" d="M513.3721,-1501.5765C542.2552,-1501.1454 587.9372,-1500.4636 625.0544,-1499.9096"/>
<polygon fill="#000000" stroke="#000000" points="625.3285,-1503.406 635.2752,-1499.7571 625.224,-1496.4068 625.3285,-1503.406"/>
<text text-anchor="middle" x="555.5" y="-1505.8" font-family="Times,serif" font-size="14.00" fill="#000000">1.5%</text>
</g>
<!-- Suica&#45;&gt;電車 -->
<g id="edge18" class="edge">
<title>Suica&#45;&gt;電車</title>
<path fill="none" stroke="#000000" stroke-width="2" d="M500.9038,-1520.3171C506.8523,-1527.5021 513.4957,-1535.9442 519,-1544 555.9469,-1598.0732 541.7436,-1630.0086 592,-1672 655.4815,-1725.0416 870.0699,-1756.955 943,-1796 959.7373,-1804.9607 976.7887,-1817.3875 990.4877,-1828.3516"/>
<polygon fill="#000000" stroke="#000000" stroke-width="2" points="988.5943,-1831.3246 998.5513,-1834.9453 993.0255,-1825.9056 988.5943,-1831.3246"/>
</g>
<!-- 松屋 -->
<g id="node49" class="node">
<title>松屋</title>
<polygon fill="none" stroke="#000000" points="1046,-1563 992,-1563 992,-1527 1046,-1527 1046,-1563"/>
<text text-anchor="middle" x="1019" y="-1541.3" font-family="Times,serif" font-size="14.00" fill="#000000">松屋</text>
</g>
<!-- Suica&#45;&gt;松屋 -->
<g id="edge19" class="edge">
<title>Suica&#45;&gt;松屋</title>
<path fill="none" stroke="#000000" stroke-width="2" d="M513.2091,-1513.8142C520.815,-1516.5816 529.1218,-1519.2342 537,-1521 560.951,-1526.3682 567.5108,-1524.3429 592,-1526 735.9537,-1535.7408 907.5603,-1541.6455 981.7708,-1543.9221"/>
<polygon fill="#000000" stroke="#000000" stroke-width="2" points="981.897,-1547.4274 991.9983,-1544.2317 982.1088,-1540.4306 981.897,-1547.4274"/>
</g>
<!-- 吉野家 -->
<g id="node50" class="node">
<title>吉野家</title>
<polygon fill="none" stroke="#000000" points="1048.5,-1379 989.5,-1379 989.5,-1343 1048.5,-1343 1048.5,-1379"/>
<text text-anchor="middle" x="1019" y="-1357.3" font-family="Times,serif" font-size="14.00" fill="#000000">吉野家</text>
</g>
<!-- Suica&#45;&gt;吉野家 -->
<g id="edge20" class="edge">
<title>Suica&#45;&gt;吉野家</title>
<path fill="none" stroke="#000000" stroke-width="2" d="M513.0221,-1493.5757C534.5272,-1487.2489 565.0087,-1478.5791 592,-1472 683.2912,-1449.7479 708.0107,-1452.4561 799,-1429 862.9273,-1412.5202 935.924,-1389.0061 979.6887,-1374.3902"/>
<polygon fill="#000000" stroke="#000000" stroke-width="2" points="980.9979,-1377.6428 989.3657,-1371.1442 978.7717,-1371.0062 980.9979,-1377.6428"/>
</g>
<!-- 株主優待券 -->
<g id="node29" class="node">
<title>株主優待券</title>
<polygon fill="none" stroke="#000000" points="914.5,-1918 826.5,-1918 826.5,-1882 914.5,-1882 914.5,-1918"/>
<text text-anchor="middle" x="870.5" y="-1896.3" font-family="Times,serif" font-size="14.00" fill="#000000">株主優待券</text>
</g>
<!-- 現金&#45;&gt;株主優待券 -->
<g id="edge74" class="edge">
<title>現金&#45;&gt;株主優待券</title>
<path fill="none" stroke="#000000" stroke-width="2" d="M512.1076,-1896.3326C575.1191,-1892.6731 732.4432,-1892.2719 816.1363,-1895.1289"/>
<polygon fill="#000000" stroke="#000000" stroke-width="2" points="816.089,-1898.6294 826.2121,-1895.5034 816.3491,-1891.6343 816.089,-1898.6294"/>
</g>
<!-- 飲食店 -->
<g id="node46" class="node">
<title>飲食店</title>
<polygon fill="none" stroke="#000000" points="1048.5,-2075 989.5,-2075 989.5,-2039 1048.5,-2039 1048.5,-2075"/>
<text text-anchor="middle" x="1019" y="-2053.3" font-family="Times,serif" font-size="14.00" fill="#000000">飲食店</text>
</g>
<!-- 現金&#45;&gt;飲食店 -->
<g id="edge73" class="edge">
<title>現金&#45;&gt;飲食店</title>
<path fill="none" stroke="#000000" stroke-width="2" d="M512.0648,-1913.4111C519.9592,-1916.9257 528.6981,-1920.4427 537,-1923 650.1364,-1957.8507 685.1276,-1938.6348 799,-1971 864.0946,-1989.5014 936.6824,-2019.8852 980.0551,-2039.1447"/>
<polygon fill="#000000" stroke="#000000" stroke-width="2" points="978.821,-2042.4268 989.3787,-2043.3136 981.6784,-2036.0365 978.821,-2042.4268"/>
</g>
<!-- nanacoポイント -->
<g id="node25" class="node">
<title>nanacoポイント</title>
<polygon fill="none" stroke="#000000" points="748.5,-566 623.5,-566 623.5,-530 748.5,-530 748.5,-566"/>
<text text-anchor="middle" x="686" y="-544.3" font-family="Times,serif" font-size="14.00" fill="#000000">nanacoポイント</text>
</g>
<!-- nanaco&#45;&gt;nanacoポイント -->
<g id="edge60" class="edge">
<title>nanaco&#45;&gt;nanacoポイント</title>
<path fill="none" stroke="#000000" d="M505.8198,-520.2609C514.8017,-527.0683 525.8057,-534.087 537,-538 560.9841,-546.3838 588.4402,-549.8143 613.1954,-550.8552"/>
<polygon fill="#000000" stroke="#000000" points="613.1574,-554.3555 623.2576,-551.156 613.3667,-547.3586 613.1574,-554.3555"/>
<text text-anchor="middle" x="555.5" y="-550.8" font-family="Times,serif" font-size="14.00" fill="#000000">1%</text>
</g>
<!-- iTunesカード -->
<g id="node30" class="node">
<title>iTunesカード</title>
<polygon fill="none" stroke="#000000" points="924,-490 817,-490 817,-454 924,-454 924,-490"/>
<text text-anchor="middle" x="870.5" y="-468.3" font-family="Times,serif" font-size="14.00" fill="#000000">iTunesカード</text>
</g>
<!-- nanaco&#45;&gt;iTunesカード -->
<g id="edge62" class="edge">
<title>nanaco&#45;&gt;iTunesカード</title>
<path fill="none" stroke="#000000" stroke-width="2" d="M519.1802,-491.6814C525.0768,-490.223 531.181,-488.912 537,-488 630.0085,-473.4226 739.2351,-470.9018 806.6661,-471.0069"/>
<polygon fill="#000000" stroke="#000000" stroke-width="2" points="806.7001,-474.507 816.7125,-471.0426 806.725,-467.507 806.7001,-474.507"/>
</g>
<!-- セブンイレブン -->
<g id="node32" class="node">
<title>セブンイレブン</title>
<polygon fill="none" stroke="#000000" points="1076,-536 962,-536 962,-500 1076,-500 1076,-536"/>
<text text-anchor="middle" x="1019" y="-514.3" font-family="Times,serif" font-size="14.00" fill="#000000">セブンイレブン</text>
</g>
<!-- nanaco&#45;&gt;セブンイレブン -->
<g id="edge59" class="edge">
<title>nanaco&#45;&gt;セブンイレブン</title>
<path fill="none" stroke="#000000" stroke-width="2" d="M519.2164,-503.0252C606.1386,-505.6296 836.6898,-512.5375 951.7369,-515.9846"/>
<polygon fill="#000000" stroke="#000000" stroke-width="2" points="951.7305,-519.4859 961.8309,-516.2871 951.9402,-512.4891 951.7305,-519.4859"/>
</g>
<!-- 楽天ポイント -->
<g id="node21" class="node">
<title>楽天ポイント</title>
<polygon fill="none" stroke="#000000" points="737,-806 635,-806 635,-770 737,-770 737,-806"/>
<text text-anchor="middle" x="686" y="-784.3" font-family="Times,serif" font-size="14.00" fill="#000000">楽天ポイント</text>
</g>
<!-- Edy&#45;&gt;楽天ポイント -->
<g id="edge52" class="edge">
<title>Edy&#45;&gt;楽天ポイント</title>
<path fill="none" stroke="#000000" d="M510.7459,-723.0682C518.9061,-728.3171 528.1195,-733.769 537,-738 564.9717,-751.3268 597.4452,-762.6687 624.9231,-771.1644"/>
<polygon fill="#000000" stroke="#000000" points="624.2174,-774.6078 634.8029,-774.164 626.2511,-767.9097 624.2174,-774.6078"/>
<text text-anchor="middle" x="555.5" y="-757.8" font-family="Times,serif" font-size="14.00" fill="#000000">0.5%</text>
</g>
<!-- ヤマト運輸 -->
<g id="node39" class="node">
<title>ヤマト運輸</title>
<polygon fill="none" stroke="#000000" points="1063,-1120 975,-1120 975,-1084 1063,-1084 1063,-1120"/>
<text text-anchor="middle" x="1019" y="-1098.3" font-family="Times,serif" font-size="14.00" fill="#000000">ヤマト運輸</text>
</g>
<!-- Edy&#45;&gt;ヤマト運輸 -->
<g id="edge44" class="edge">
<title>Edy&#45;&gt;ヤマト運輸</title>
<path fill="none" stroke="#000000" stroke-width="2" d="M489.1665,-723.3039C499.4887,-764.7327 530.014,-866.6095 592,-925 648.46,-978.1851 863.1341,-1051.9757 964.884,-1084.9251"/>
<polygon fill="#000000" stroke="#000000" stroke-width="2" points="964.0715,-1088.3405 974.6631,-1088.0786 966.2199,-1081.6783 964.0715,-1088.3405"/>
</g>
<!-- ウェルシア -->
<g id="node42" class="node">
<title>ウェルシア</title>
<polygon fill="none" stroke="#000000" points="1062.5,-1258 975.5,-1258 975.5,-1222 1062.5,-1222 1062.5,-1258"/>
<text text-anchor="middle" x="1019" y="-1236.3" font-family="Times,serif" font-size="14.00" fill="#000000">ウェルシア</text>
</g>
<!-- Edy&#45;&gt;ウェルシア -->
<g id="edge49" class="edge">
<title>Edy&#45;&gt;ウェルシア</title>
<path fill="none" stroke="#000000" stroke-width="2" d="M486.4607,-723.2035C491.4475,-773.0281 512.2245,-912.8457 592,-987 712.3987,-1098.9151 803.5099,-1038.1833 924,-1150 947.8017,-1172.0884 936.9708,-1191.1593 961,-1213 962.8699,-1214.6996 964.8655,-1216.3103 966.9496,-1217.8346"/>
<polygon fill="#000000" stroke="#000000" stroke-width="2" points="965.0563,-1220.7783 975.3491,-1223.29 968.8692,-1214.9078 965.0563,-1220.7783"/>
</g>
<!-- ヨドバシカメラ -->
<g id="node44" class="node">
<title>ヨドバシカメラ</title>
<polygon fill="none" stroke="#000000" points="1077,-650 961,-650 961,-614 1077,-614 1077,-650"/>
<text text-anchor="middle" x="1019" y="-628.3" font-family="Times,serif" font-size="14.00" fill="#000000">ヨドバシカメラ</text>
</g>
<!-- Edy&#45;&gt;ヨドバシカメラ -->
<g id="edge46" class="edge">
<title>Edy&#45;&gt;ヨドバシカメラ</title>
<path fill="none" stroke="#000000" stroke-width="2" d="M512.2153,-701.2796C592.8604,-690.255 832.3117,-657.5211 950.8959,-641.3101"/>
<polygon fill="#000000" stroke="#000000" stroke-width="2" points="951.5159,-644.758 960.9496,-639.9357 950.5677,-637.8225 951.5159,-644.758"/>
</g>
<!-- 餃子の王将 -->
<g id="node45" class="node">
<title>餃子の王将</title>
<polygon fill="none" stroke="#000000" points="1063,-704 975,-704 975,-668 1063,-668 1063,-704"/>
<text text-anchor="middle" x="1019" y="-682.3" font-family="Times,serif" font-size="14.00" fill="#000000">餃子の王将</text>
</g>
<!-- Edy&#45;&gt;餃子の王将 -->
<g id="edge68" class="edge">
<title>Edy&#45;&gt;餃子の王将</title>
<path fill="none" stroke="#000000" stroke-width="2" d="M512.2153,-704.0317C596.099,-701.047 851.7998,-691.9491 964.5795,-687.9363"/>
<polygon fill="#000000" stroke="#000000" stroke-width="2" points="964.8453,-691.4292 974.7145,-687.5757 964.5964,-684.4336 964.8453,-691.4292"/>
</g>
<!-- FRESCO -->
<g id="node47" class="node">
<title>FRESCO</title>
<polygon fill="none" stroke="#000000" points="1059,-317 979,-317 979,-281 1059,-281 1059,-317"/>
<text text-anchor="middle" x="1019" y="-295.3" font-family="Times,serif" font-size="14.00" fill="#000000">FRESCO</text>
</g>
<!-- Edy&#45;&gt;FRESCO -->
<g id="edge65" class="edge">
<title>Edy&#45;&gt;FRESCO</title>
<path fill="none" stroke="#000000" stroke-width="2" d="M500.8975,-686.7538C521.8118,-661.5501 557.8051,-613.7614 574,-566 589.2539,-521.0137 559.1149,-387.2785 592,-353 642.8245,-300.0219 867.2068,-296.5581 968.7616,-297.8097"/>
<polygon fill="#000000" stroke="#000000" stroke-width="2" points="968.7289,-301.3095 978.7782,-297.9535 968.8295,-294.3102 968.7289,-301.3095"/>
</g>
<!-- 業務スーパー -->
<g id="node48" class="node">
<title>業務スーパー</title>
<polygon fill="none" stroke="#000000" points="1069.5,-758 968.5,-758 968.5,-722 1069.5,-722 1069.5,-758"/>
<text text-anchor="middle" x="1019" y="-736.3" font-family="Times,serif" font-size="14.00" fill="#000000">業務スーパー</text>
</g>
<!-- Edy&#45;&gt;業務スーパー -->
<g id="edge64" class="edge">
<title>Edy&#45;&gt;業務スーパー</title>
<path fill="none" stroke="#000000" stroke-width="2" d="M512.2424,-707.7939C520.2167,-708.5645 528.9534,-709.3629 537,-710 688.3011,-721.9792 866.6362,-732.0176 958.1186,-736.87"/>
<polygon fill="#000000" stroke="#000000" stroke-width="2" points="958.1315,-740.3755 968.3022,-737.4078 958.5007,-733.3852 958.1315,-740.3755"/>
</g>
<!-- PayPay&#45;&gt;飲食店 -->
<g id="edge11" class="edge">
<title>PayPay&#45;&gt;飲食店</title>
<path fill="none" stroke="#000000" stroke-width="2" d="M519.2164,-2072.9107C613.8162,-2069.8991 878.5387,-2061.4716 979.3406,-2058.2626"/>
<polygon fill="#000000" stroke="#000000" stroke-width="2" points="979.5283,-2061.7585 989.4118,-2057.9419 979.3055,-2054.762 979.5283,-2061.7585"/>
</g>
<!-- Ponta&#45;&gt;じゃらん -->
<g id="edge54" class="edge">
<title>Ponta&#45;&gt;じゃらん</title>
<path fill="none" stroke="#000000" d="M714.6796,-382.5837C772.0017,-387.7479 901.2275,-399.3899 971.4335,-405.7147"/>
<polygon fill="#000000" stroke="#000000" points="971.4874,-409.2337 981.7612,-406.6452 972.1156,-402.2619 971.4874,-409.2337"/>
</g>
<!-- Tポイント -->
<g id="node20" class="node">
<title>Tポイント</title>
<polygon fill="none" stroke="#000000" points="727.5,-1339 644.5,-1339 644.5,-1303 727.5,-1303 727.5,-1339"/>
<text text-anchor="middle" x="686" y="-1317.3" font-family="Times,serif" font-size="14.00" fill="#000000">Tポイント</text>
</g>
<!-- はぴeポイント -->
<g id="node28" class="node">
<title>はぴeポイント</title>
<polygon fill="none" stroke="#000000" points="741,-1267 631,-1267 631,-1231 741,-1231 741,-1267"/>
<text text-anchor="middle" x="686" y="-1245.3" font-family="Times,serif" font-size="14.00" fill="#000000">はぴeポイント</text>
</g>
<!-- Tポイント&#45;&gt;はぴeポイント -->
<g id="edge51" class="edge">
<title>Tポイント&#45;&gt;はぴeポイント</title>
<path fill="none" stroke="#000000" d="M686,-1302.9539C686,-1294.4073 686,-1285.8607 686,-1277.3142"/>
<polygon fill="#000000" stroke="#000000" points="689.5001,-1277.2812 686,-1267.2813 682.5001,-1277.2813 689.5001,-1277.2812"/>
</g>
<!-- 楽天ポイント&#45;&gt;楽天モバイル -->
<g id="edge41" class="edge">
<title>楽天ポイント&#45;&gt;楽天モバイル</title>
<path fill="none" stroke="#000000" d="M737.1764,-784.1798C786.0877,-782.0125 861.4259,-782.5789 924,-800 945.1923,-805.9001 966.9468,-817.1302 984.2816,-827.5536"/>
<polygon fill="#000000" stroke="#000000" points="982.5722,-830.6118 992.9174,-832.8984 986.2561,-824.6595 982.5722,-830.6118"/>
</g>
<!-- 楽天ポイント&#45;&gt;楽天でんき -->
<g id="edge42" class="edge">
<title>楽天ポイント&#45;&gt;楽天でんき</title>
<path fill="none" stroke="#000000" d="M706.8299,-806.007C751.998,-844.7846 862.803,-938.4661 961,-1010 967.5678,-1014.7845 974.7045,-1019.6878 981.6534,-1024.3146"/>
<polygon fill="#000000" stroke="#000000" points="980.0192,-1027.4288 990.298,-1029.9976 983.8646,-1021.5796 980.0192,-1027.4288"/>
</g>
<!-- JREポイント&#45;&gt;Suica -->
<g id="edge24" class="edge">
<title>JREポイント&#45;&gt;Suica</title>
<path fill="none" stroke="#000000" d="M635.2848,-1496.7787C606.4536,-1495.902 569.6885,-1495.4321 537,-1497 532.496,-1497.216 527.7801,-1497.5368 523.1044,-1497.9134"/>
<polygon fill="#000000" stroke="#000000" points="522.6821,-1494.437 513.031,-1498.8081 523.3014,-1501.4095 522.6821,-1494.437"/>
</g>
<!-- ビックポイント&#45;&gt;ビックカメラ -->
<g id="edge16" class="edge">
<title>ビックポイント&#45;&gt;ビックカメラ</title>
<path fill="none" stroke="#000000" d="M744.0196,-1657.6799C808.3845,-1672.1756 907.8069,-1695.9645 943,-1712 958.9918,-1719.2865 975.2624,-1729.9029 988.6241,-1739.646"/>
<polygon fill="#000000" stroke="#000000" points="986.849,-1742.6892 996.9524,-1745.8788 991.0433,-1737.0849 986.849,-1742.6892"/>
</g>
<!-- Amazonポイント -->
<g id="node24" class="node">
<title>Amazonポイント</title>
<polygon fill="none" stroke="#000000" points="751.5,-916 620.5,-916 620.5,-880 751.5,-880 751.5,-916"/>
<text text-anchor="middle" x="686" y="-894.3" font-family="Times,serif" font-size="14.00" fill="#000000">Amazonポイント</text>
</g>
<!-- Amazonポイント&#45;&gt;Amazon -->
<g id="edge57" class="edge">
<title>Amazonポイント&#45;&gt;Amazon</title>
<path fill="none" stroke="#000000" d="M751.6775,-890.753C804.8644,-891.0028 880.8874,-898.3452 943,-922 963.8,-929.9214 984.4535,-944.6058 998.9683,-957.8022"/>
<polygon fill="#000000" stroke="#000000" points="996.7333,-960.509 1006.3625,-964.9281 1001.5907,-955.4687 996.7333,-960.509"/>
</g>
<!-- nanacoポイント&#45;&gt;nanaco -->
<g id="edge61" class="edge">
<title>nanacoポイント&#45;&gt;nanaco</title>
<path fill="none" stroke="#000000" d="M623.242,-533.6375C592.6068,-526.6264 556.4975,-518.3626 528.8671,-512.0392"/>
<polygon fill="#000000" stroke="#000000" points="529.6257,-508.6224 519.0969,-509.8033 528.0641,-515.446 529.6257,-508.6224"/>
</g>
<!-- FRESCOポイント -->
<g id="node26" class="node">
<title>FRESCOポイント</title>
<polygon fill="none" stroke="#000000" points="754.5,-257 617.5,-257 617.5,-221 754.5,-221 754.5,-257"/>
<text text-anchor="middle" x="686" y="-235.3" font-family="Times,serif" font-size="14.00" fill="#000000">FRESCOポイント</text>
</g>
<!-- FRESCOポイント&#45;&gt;FRESCO -->
<g id="edge67" class="edge">
<title>FRESCOポイント&#45;&gt;FRESCO</title>
<path fill="none" stroke="#000000" d="M754.738,-251.206C806.5079,-260.4226 879.2253,-273.4186 943,-285 951.3493,-286.5162 960.2123,-288.1378 968.8253,-289.7202"/>
<polygon fill="#000000" stroke="#000000" points="968.3074,-293.1836 978.7757,-291.5511 969.5742,-286.2992 968.3074,-293.1836"/>
</g>
<!-- ヨドバシゴールドポイント -->
<g id="node27" class="node">
<title>ヨドバシゴールドポイント</title>
<polygon fill="none" stroke="#000000" points="780,-620 592,-620 592,-584 780,-584 780,-620"/>
<text text-anchor="middle" x="686" y="-598.3" font-family="Times,serif" font-size="14.00" fill="#000000">ヨドバシゴールドポイント</text>
</g>
<!-- ヨドバシゴールドポイント&#45;&gt;ヨドバシカメラ -->
<g id="edge48" class="edge">
<title>ヨドバシゴールドポイント&#45;&gt;ヨドバシカメラ</title>
<path fill="none" stroke="#000000" d="M780.251,-598.1838C824.1482,-597.7853 876.9541,-599.2755 924,-606 933.2969,-607.3289 942.9773,-609.2842 952.4487,-611.5361"/>
<polygon fill="#000000" stroke="#000000" points="951.6683,-614.9487 962.2184,-613.9764 953.3646,-608.1573 951.6683,-614.9487"/>
</g>
<!-- はぴeポイント&#45;&gt;関西電力 -->
<g id="edge36" class="edge">
<title>はぴeポイント&#45;&gt;関西電力</title>
<path fill="none" stroke="#000000" d="M741.362,-1238.5261C805.6984,-1226.3544 910.7787,-1206.4743 971.536,-1194.9797"/>
<polygon fill="#000000" stroke="#000000" points="972.4441,-1198.37 981.6192,-1193.072 971.1428,-1191.492 972.4441,-1198.37"/>
</g>
<!-- 株主優待券&#45;&gt;現金 -->
<g id="edge76" class="edge">
<title>株主優待券&#45;&gt;現金</title>
<path fill="none" stroke="#000000" d="M826.2121,-1904.4966C749.6607,-1907.5968 593.9433,-1907.4981 522.4327,-1904.2005"/>
<polygon fill="#000000" stroke="#000000" points="522.2748,-1900.6878 512.1076,-1903.6674 521.9138,-1907.6785 522.2748,-1900.6878"/>
</g>
<!-- 株主優待券&#45;&gt;電車 -->
<g id="edge75" class="edge">
<title>株主優待券&#45;&gt;電車</title>
<path fill="none" stroke="#000000" stroke-width="2" d="M914.6528,-1886.0257C936.1069,-1879.2355 961.5964,-1871.1681 982.0122,-1864.7066"/>
<polygon fill="#000000" stroke="#000000" stroke-width="2" points="983.1093,-1868.0305 991.587,-1861.6762 980.997,-1861.3568 983.1093,-1868.0305"/>
</g>
<!-- iTunes -->
<g id="node52" class="node">
<title>iTunes</title>
<polygon fill="none" stroke="#000000" points="1051.5,-482 986.5,-482 986.5,-446 1051.5,-446 1051.5,-482"/>
<text text-anchor="middle" x="1019" y="-460.3" font-family="Times,serif" font-size="14.00" fill="#000000">iTunes</text>
</g>
<!-- iTunesカード&#45;&gt;iTunes -->
<g id="edge63" class="edge">
<title>iTunesカード&#45;&gt;iTunes</title>
<path fill="none" stroke="#000000" stroke-width="2" d="M924.1119,-469.1118C941.1494,-468.194 959.7618,-467.1913 975.954,-466.319"/>
<polygon fill="#000000" stroke="#000000" stroke-width="2" points="976.407,-469.7997 986.2042,-465.7668 976.0304,-462.8099 976.407,-469.7997"/>
</g>
<!-- 電車&#45;&gt;PiTaPa -->
<g id="edge70" class="edge">
<title>電車&#45;&gt;PiTaPa</title>
<path fill="none" stroke="#000000" d="M991.6045,-1848.6477C972.6492,-1845.7136 946.8266,-1841.8695 924,-1839 777.4474,-1820.5769 739.3818,-1814.2178 592,-1824 511.2677,-1829.3584 417.8465,-1843.6346 364.7581,-1852.515"/>
<polygon fill="#000000" stroke="#000000" points="363.9713,-1849.0982 354.6939,-1854.2148 365.1372,-1856.0004 363.9713,-1849.0982"/>
<text text-anchor="middle" x="686" y="-1827.8" font-family="Times,serif" font-size="14.00" fill="#000000">10%</text>
</g>
<!-- バス&#45;&gt;PiTaPa -->
<g id="edge72" class="edge">
<title>バス&#45;&gt;PiTaPa</title>
<path fill="none" stroke="#000000" d="M991.9924,-1992.9172C907.5724,-2016.1392 642.8634,-2077.3075 451,-1993 426.661,-1982.3051 430.8668,-1966.5493 414,-1946 395.4295,-1923.375 371.122,-1900.8945 352.1565,-1884.5948"/>
<polygon fill="#000000" stroke="#000000" points="354.2779,-1881.8047 344.3878,-1878.0052 349.7499,-1887.143 354.2779,-1881.8047"/>
<text text-anchor="middle" x="686" y="-2040.8" font-family="Times,serif" font-size="14.00" fill="#000000">10%</text>
</g>
<!-- 楽天モバイル&#45;&gt;楽天ポイント -->
<g id="edge40" class="edge">
<title>楽天モバイル&#45;&gt;楽天ポイント</title>
<path fill="none" stroke="#000000" d="M967.6159,-833.7324C953.587,-829.453 938.3074,-825.1857 924,-822 864.4741,-808.7459 795.3699,-799.5458 747.0104,-794.0897"/>
<polygon fill="#000000" stroke="#000000" points="747.3415,-790.605 737.0168,-792.9821 746.5703,-797.5624 747.3415,-790.605"/>
<text text-anchor="middle" x="870.5" y="-825.8" font-family="Times,serif" font-size="14.00" fill="#000000">0.5%</text>
</g>
<!-- 関西電力&#45;&gt;はぴeポイント -->
<g id="edge35" class="edge">
<title>関西電力&#45;&gt;はぴeポイント</title>
<path fill="none" stroke="#000000" d="M981.732,-1199.8932C974.445,-1203.5359 967.1615,-1207.902 961,-1213 950.4512,-1221.7281 955.0495,-1231.4988 943,-1238 884.0146,-1269.8248 805.8632,-1268.116 751.2896,-1261.2537"/>
<polygon fill="#000000" stroke="#000000" points="751.4216,-1257.7399 741.0432,-1259.8703 750.4849,-1264.6769 751.4216,-1257.7399"/>
<text text-anchor="middle" x="870.5" y="-1269.8" font-family="Times,serif" font-size="14.00" fill="#000000">0.5%</text>
</g>
<!-- ヤマト運輸&#45;&gt;Tポイント -->
<g id="edge45" class="edge">
<title>ヤマト運輸&#45;&gt;Tポイント</title>
<path fill="none" stroke="#000000" d="M982.5233,-1120.0072C939.9868,-1142.0682 868.8936,-1182.3182 817,-1229 797.2352,-1246.7798 800.7521,-1259.3832 780,-1276 767.2559,-1286.2045 751.8172,-1294.8062 737.1668,-1301.667"/>
<polygon fill="#000000" stroke="#000000" points="735.3777,-1298.6337 727.6895,-1305.9236 738.2457,-1305.0192 735.3777,-1298.6337"/>
<text text-anchor="middle" x="870.5" y="-1232.8" font-family="Times,serif" font-size="14.00" fill="#000000">0.5%</text>
</g>
<!-- ウェルシア&#45;&gt;Tポイント -->
<g id="edge50" class="edge">
<title>ウェルシア&#45;&gt;Tポイント</title>
<path fill="none" stroke="#000000" d="M986.9703,-1258.0592C968.9797,-1267.4554 945.8185,-1278.3403 924,-1285 861.4976,-1304.0776 786.548,-1313.2811 737.6797,-1317.555"/>
<polygon fill="#000000" stroke="#000000" points="737.3345,-1314.0716 727.6615,-1318.394 737.9187,-1321.0472 737.3345,-1314.0716"/>
<text text-anchor="middle" x="870.5" y="-1312.8" font-family="Times,serif" font-size="14.00" fill="#000000">1%</text>
</g>
<!-- ビックカメラ&#45;&gt;ビックポイント -->
<g id="edge14" class="edge">
<title>ビックカメラ&#45;&gt;ビックポイント</title>
<path fill="none" stroke="#000000" stroke-dasharray="5,2" d="M1009.7881,-1745.8923C995.5227,-1720.2523 965.3577,-1674.7337 924,-1659 869.6439,-1638.3213 803.2601,-1636.1243 754.4255,-1638.3509"/>
<polygon fill="#000000" stroke="#000000" points="754.0826,-1634.864 744.2818,-1638.8881 754.4529,-1641.8542 754.0826,-1634.864"/>
<text text-anchor="middle" x="870.5" y="-1662.8" font-family="Times,serif" font-size="14.00" fill="#000000">9.5%</text>
</g>
<!-- ヨドバシカメラ&#45;&gt;ヨドバシゴールドポイント -->
<g id="edge47" class="edge">
<title>ヨドバシカメラ&#45;&gt;ヨドバシゴールドポイント</title>
<path fill="none" stroke="#000000" d="M960.7927,-623.4285C948.6516,-621.811 935.9213,-620.2401 924,-619 880.3216,-614.4563 832.0059,-610.7606 790.3833,-607.9897"/>
<polygon fill="#000000" stroke="#000000" points="790.4383,-604.4859 780.2305,-607.3232 789.9797,-611.4708 790.4383,-604.4859"/>
<text text-anchor="middle" x="870.5" y="-622.8" font-family="Times,serif" font-size="14.00" fill="#000000">10%</text>
</g>
<!-- FRESCO&#45;&gt;FRESCOポイント -->
<g id="edge66" class="edge">
<title>FRESCO&#45;&gt;FRESCOポイント</title>
<path fill="none" stroke="#000000" d="M1000.9173,-280.9878C983.0913,-264.6086 954.2034,-241.5793 924,-232 872.6986,-215.7292 812.0192,-217.8191 764.7701,-223.8023"/>
<polygon fill="#000000" stroke="#000000" points="764.0368,-220.3695 754.5953,-225.1765 764.9738,-227.3065 764.0368,-220.3695"/>
<text text-anchor="middle" x="870.5" y="-235.8" font-family="Times,serif" font-size="14.00" fill="#000000">0.5%</text>
</g>
<!-- 吉野家&#45;&gt;Tポイント -->
<g id="edge21" class="edge">
<title>吉野家&#45;&gt;Tポイント</title>
<path fill="none" stroke="#000000" d="M989.1802,-1358.2803C949.7309,-1354.5952 878.055,-1347.5981 817,-1340 790.7599,-1336.7345 761.6435,-1332.5661 737.5373,-1328.9662"/>
<polygon fill="#000000" stroke="#000000" points="737.9451,-1325.4882 727.5358,-1327.4624 736.9042,-1332.4104 737.9451,-1325.4882"/>
<text text-anchor="middle" x="870.5" y="-1355.8" font-family="Times,serif" font-size="14.00" fill="#000000">0.5%</text>
</g>
<!-- Amazon&#45;&gt;Amazonポイント -->
<g id="edge56" class="edge">
<title>Amazon&#45;&gt;Amazonポイント</title>
<path fill="none" stroke="#000000" d="M987.6112,-964.936C974.589,-955.9832 958.837,-946.0313 943,-940 884.7695,-917.8237 814.313,-909.9843 761.9087,-906.0339"/>
<polygon fill="#000000" stroke="#000000" points="761.9043,-902.5245 751.6775,-905.2926 761.3984,-909.5062 761.9043,-902.5245"/>
</g>
<!-- じゃらん&#45;&gt;Ponta -->
<g id="edge55" class="edge">
<title>じゃらん&#45;&gt;Ponta</title>
<path fill="none" stroke="#000000" d="M982.0427,-391.9157C964.8387,-384.4702 943.8309,-376.7255 924,-373 854.6919,-359.9795 772.065,-367.4212 724.6492,-373.8355"/>
<polygon fill="#000000" stroke="#000000" points="723.9297,-370.4022 714.5162,-375.2639 724.9069,-377.3337 723.9297,-370.4022"/>
<text text-anchor="middle" x="870.5" y="-376.8" font-family="Times,serif" font-size="14.00" fill="#000000">2%</text>
</g>
</g>
</svg>
