<?xml version="1.0" encoding="UTF-8" standalone="no"?>
<!DOCTYPE svg PUBLIC "-//W3C//DTD SVG 1.1//EN"
 "http://www.w3.org/Graphics/SVG/1.1/DTD/svg11.dtd">
<!-- Generated by graphviz version 2.40.1 (20161225.0304)
 -->
<!-- Title: MoneyFlow Pages: 1 -->
<svg width="1087pt" height="1947pt"
 viewBox="0.00 0.00 1087.00 1947.00" xmlns="http://www.w3.org/2000/svg" xmlns:xlink="http://www.w3.org/1999/xlink">
<g id="graph0" class="graph" transform="scale(1 1) rotate(0) translate(4 1943)">
<title>MoneyFlow</title>
<polygon fill="#ffffff" stroke="transparent" points="-4,4 -4,-1943 1083,-1943 1083,4 -4,4"/>
<!-- 収入 -->
<g id="node1" class="node">
<title>収入</title>
<text text-anchor="middle" x="27" y="-14.3" font-family="Times,serif" font-size="14.00" fill="#000000">収入</text>
</g>
<!-- 銀行口座 -->
<g id="node2" class="node">
<title>銀行口座</title>
<text text-anchor="middle" x="142" y="-14.3" font-family="Times,serif" font-size="14.00" fill="#000000">銀行口座</text>
</g>
<!-- 収入&#45;&gt;銀行口座 -->
<g id="edge1" class="edge">
<title>収入&#45;&gt;銀行口座</title>
<path fill="none" stroke="#000000" d="M54.2534,-18C69.3972,-18 88.4539,-18 104.9357,-18"/>
</g>
<!-- クレジットカード -->
<g id="node3" class="node">
<title>クレジットカード</title>
<text text-anchor="middle" x="322" y="-14.3" font-family="Times,serif" font-size="14.00" fill="#000000">クレジットカード</text>
</g>
<!-- 銀行口座&#45;&gt;クレジットカード -->
<g id="edge2" class="edge">
<title>銀行口座&#45;&gt;クレジットカード</title>
<path fill="none" stroke="#000000" d="M179.2961,-18C201.6417,-18 230.6798,-18 256.7236,-18"/>
</g>
<!-- マネー -->
<g id="node4" class="node">
<title>マネー</title>
<text text-anchor="middle" x="485" y="-14.3" font-family="Times,serif" font-size="14.00" fill="#000000">マネー</text>
</g>
<!-- クレジットカード&#45;&gt;マネー -->
<g id="edge3" class="edge">
<title>クレジットカード&#45;&gt;マネー</title>
<path fill="none" stroke="#000000" d="M387.3591,-18C410.9188,-18 436.353,-18 455.3549,-18"/>
</g>
<!-- ポイント -->
<g id="node5" class="node">
<title>ポイント</title>
<text text-anchor="middle" x="692" y="-14.3" font-family="Times,serif" font-size="14.00" fill="#000000">ポイント</text>
</g>
<!-- マネー&#45;&gt;ポイント -->
<g id="edge4" class="edge">
<title>マネー&#45;&gt;ポイント</title>
<path fill="none" stroke="#000000" d="M514.6581,-18C551.5493,-18 614.5569,-18 654.6899,-18"/>
</g>
<!-- 金券 -->
<g id="node6" class="node">
<title>金券</title>
<text text-anchor="middle" x="870" y="-14.3" font-family="Times,serif" font-size="14.00" fill="#000000">金券</text>
</g>
<!-- ポイント&#45;&gt;金券 -->
<g id="edge5" class="edge">
<title>ポイント&#45;&gt;金券</title>
<path fill="none" stroke="#000000" d="M729.3146,-18C763.262,-18 812.5623,-18 842.8847,-18"/>
</g>
<!-- 支出 -->
<g id="node7" class="node">
<title>支出</title>
<text text-anchor="middle" x="1013.5" y="-14.3" font-family="Times,serif" font-size="14.00" fill="#000000">支出</text>
</g>
<!-- 金券&#45;&gt;支出 -->
<g id="edge6" class="edge">
<title>金券&#45;&gt;支出</title>
<path fill="none" stroke="#000000" d="M897.329,-18C922.8631,-18 960.7716,-18 986.2727,-18"/>
</g>
<!-- 給与 -->
<g id="node8" class="node">
<title>給与</title>
<polygon fill="none" stroke="#000000" points="54,-1721 0,-1721 0,-1685 54,-1685 54,-1721"/>
<text text-anchor="middle" x="27" y="-1699.3" font-family="Times,serif" font-size="14.00" fill="#000000">給与</text>
</g>
<!-- 三井住友銀行 -->
<g id="node9" class="node">
<title>三井住友銀行</title>
<polygon fill="none" stroke="#000000" points="193,-1721 91,-1721 91,-1685 193,-1685 193,-1721"/>
<text text-anchor="middle" x="142" y="-1699.3" font-family="Times,serif" font-size="14.00" fill="#000000">三井住友銀行</text>
</g>
<!-- 給与&#45;&gt;三井住友銀行 -->
<g id="edge7" class="edge">
<title>給与&#45;&gt;三井住友銀行</title>
<path fill="none" stroke="#000000" stroke-width="2" d="M54.2534,-1703C62.2529,-1703 71.3442,-1703 80.571,-1703"/>
<polygon fill="#000000" stroke="#000000" stroke-width="2" points="80.5912,-1706.5001 90.5911,-1703 80.5911,-1699.5001 80.5912,-1706.5001"/>
</g>
<!-- 住信SBI銀行 -->
<g id="node10" class="node">
<title>住信SBI銀行</title>
<polygon fill="none" stroke="#000000" points="192,-1616 92,-1616 92,-1580 192,-1580 192,-1616"/>
<text text-anchor="middle" x="142" y="-1594.3" font-family="Times,serif" font-size="14.00" fill="#000000">住信SBI銀行</text>
</g>
<!-- 三井住友銀行&#45;&gt;住信SBI銀行 -->
<g id="edge9" class="edge">
<title>三井住友銀行&#45;&gt;住信SBI銀行</title>
<path fill="none" stroke="#000000" stroke-width="2" d="M142,-1684.998C142,-1665.4259 142,-1645.8539 142,-1626.2818"/>
<polygon fill="#000000" stroke="#000000" stroke-width="2" points="145.5001,-1626.0468 142,-1616.0469 138.5001,-1626.0469 145.5001,-1626.0468"/>
</g>
<!-- 三井住友VISAカード -->
<g id="node11" class="node">
<title>三井住友VISAカード</title>
<polygon fill="none" stroke="#000000" points="398.5,-1826 245.5,-1826 245.5,-1790 398.5,-1790 398.5,-1826"/>
<text text-anchor="middle" x="322" y="-1804.3" font-family="Times,serif" font-size="14.00" fill="#000000">三井住友VISAカード</text>
</g>
<!-- 三井住友銀行&#45;&gt;三井住友VISAカード -->
<g id="edge13" class="edge">
<title>三井住友銀行&#45;&gt;三井住友VISAカード</title>
<path fill="none" stroke="#000000" stroke-width="2" d="M166.3811,-1721.1489C179.3543,-1730.4988 195.7403,-1741.83 211,-1751 231.3578,-1763.2336 254.6373,-1775.4432 274.6021,-1785.4056"/>
<polygon fill="#000000" stroke="#000000" stroke-width="2" points="273.2981,-1788.6653 283.8135,-1789.961 276.4012,-1782.3907 273.2981,-1788.6653"/>
</g>
<!-- 現金 -->
<g id="node16" class="node">
<title>現金</title>
<polygon fill="none" stroke="#000000" points="512,-1616 458,-1616 458,-1580 512,-1580 512,-1616"/>
<text text-anchor="middle" x="485" y="-1594.3" font-family="Times,serif" font-size="14.00" fill="#000000">現金</text>
</g>
<!-- 三井住友銀行&#45;&gt;現金 -->
<g id="edge8" class="edge">
<title>三井住友銀行&#45;&gt;現金</title>
<path fill="none" stroke="#000000" stroke-width="2" d="M193.3506,-1687.2804C263.2776,-1665.8742 386.7603,-1628.0734 448.1757,-1609.2727"/>
<polygon fill="#000000" stroke="#000000" stroke-width="2" points="449.2982,-1612.5895 457.8357,-1606.3156 447.2492,-1605.8961 449.2982,-1612.5895"/>
</g>
<!-- 関西電力 -->
<g id="node40" class="node">
<title>関西電力</title>
<polygon fill="none" stroke="#000000" points="1050.5,-1771 976.5,-1771 976.5,-1735 1050.5,-1735 1050.5,-1771"/>
<text text-anchor="middle" x="1013.5" y="-1749.3" font-family="Times,serif" font-size="14.00" fill="#000000">関西電力</text>
</g>
<!-- 三井住友銀行&#45;&gt;関西電力 -->
<g id="edge10" class="edge">
<title>三井住友銀行&#45;&gt;関西電力</title>
<path fill="none" stroke="#000000" stroke-width="2" d="M193.1132,-1717.9129C228.881,-1727.0483 277.9534,-1737 322,-1737 322,-1737 322,-1737 870,-1737 902.3724,-1737 938.6012,-1741.0716 966.5576,-1745.1069"/>
<polygon fill="#000000" stroke="#000000" stroke-width="2" points="966.0535,-1748.5704 976.4605,-1746.5844 967.0865,-1741.647 966.0535,-1748.5704"/>
</g>
<!-- ビックカメラSuicaカード -->
<g id="node12" class="node">
<title>ビックカメラSuicaカード</title>
<polygon fill="none" stroke="#000000" points="414,-1361 230,-1361 230,-1325 414,-1325 414,-1361"/>
<text text-anchor="middle" x="322" y="-1339.3" font-family="Times,serif" font-size="14.00" fill="#000000">ビックカメラSuicaカード</text>
</g>
<!-- 住信SBI銀行&#45;&gt;ビックカメラSuicaカード -->
<g id="edge34" class="edge">
<title>住信SBI銀行&#45;&gt;ビックカメラSuicaカード</title>
<path fill="none" stroke="#000000" stroke-width="2" d="M154.9452,-1579.661C186.3403,-1535.1846 266.636,-1421.4324 303.2704,-1369.5336"/>
<polygon fill="#000000" stroke="#000000" stroke-width="2" points="306.2647,-1371.3609 309.1721,-1361.1728 300.5459,-1367.3241 306.2647,-1371.3609"/>
</g>
<!-- リクルートカード -->
<g id="node13" class="node">
<title>リクルートカード</title>
<polygon fill="none" stroke="#000000" points="386.5,-556 257.5,-556 257.5,-520 386.5,-520 386.5,-556"/>
<text text-anchor="middle" x="322" y="-534.3" font-family="Times,serif" font-size="14.00" fill="#000000">リクルートカード</text>
</g>
<!-- 住信SBI銀行&#45;&gt;リクルートカード -->
<g id="edge35" class="edge">
<title>住信SBI銀行&#45;&gt;リクルートカード</title>
<path fill="none" stroke="#000000" stroke-width="2" d="M145.1242,-1579.6017C166.5058,-1453.688 291.1721,-719.5419 317.2273,-566.1056"/>
<polygon fill="#000000" stroke="#000000" stroke-width="2" points="320.7065,-566.5229 318.9301,-556.0781 313.8053,-565.351 320.7065,-566.5229"/>
</g>
<!-- 住信SBI銀行&#45;&gt;現金 -->
<g id="edge32" class="edge">
<title>住信SBI銀行&#45;&gt;現金</title>
<path fill="none" stroke="#000000" stroke-width="2" d="M192.2425,-1598C261.7234,-1598 385.5691,-1598 447.529,-1598"/>
<polygon fill="#000000" stroke="#000000" stroke-width="2" points="447.6386,-1601.5001 457.6385,-1598 447.6385,-1594.5001 447.6386,-1601.5001"/>
</g>
<!-- 家賃 -->
<g id="node30" class="node">
<title>家賃</title>
<polygon fill="none" stroke="#000000" points="1040.5,-1717 986.5,-1717 986.5,-1681 1040.5,-1681 1040.5,-1717"/>
<text text-anchor="middle" x="1013.5" y="-1695.3" font-family="Times,serif" font-size="14.00" fill="#000000">家賃</text>
</g>
<!-- 住信SBI銀行&#45;&gt;家賃 -->
<g id="edge33" class="edge">
<title>住信SBI銀行&#45;&gt;家賃</title>
<path fill="none" stroke="#000000" stroke-width="2" d="M159.5765,-1616.0568C189.8331,-1645.108 254.9916,-1699 322,-1699 322,-1699 322,-1699 870,-1699 906.056,-1699 947.208,-1699 976.1703,-1699"/>
<polygon fill="#000000" stroke="#000000" stroke-width="2" points="976.2571,-1702.5001 986.257,-1699 976.257,-1695.5001 976.2571,-1702.5001"/>
</g>
<!-- PiTaPa -->
<g id="node15" class="node">
<title>PiTaPa</title>
<polygon fill="none" stroke="#000000" points="517.5,-1852 452.5,-1852 452.5,-1816 517.5,-1816 517.5,-1852"/>
<text text-anchor="middle" x="485" y="-1830.3" font-family="Times,serif" font-size="14.00" fill="#000000">PiTaPa</text>
</g>
<!-- 三井住友VISAカード&#45;&gt;PiTaPa -->
<g id="edge15" class="edge">
<title>三井住友VISAカード&#45;&gt;PiTaPa</title>
<path fill="none" stroke="#000000" stroke-width="2" d="M398.727,-1820.2387C413.5824,-1822.6082 428.6499,-1825.0116 441.9463,-1827.1325"/>
<polygon fill="#000000" stroke="#000000" stroke-width="2" points="441.7657,-1830.6479 452.1922,-1828.7669 442.8684,-1823.7353 441.7657,-1830.6479"/>
</g>
<!-- ワールドプレゼントポイント -->
<g id="node21" class="node">
<title>ワールドプレゼントポイント</title>
<polygon fill="none" stroke="#000000" points="792,-1801 592,-1801 592,-1765 792,-1765 792,-1801"/>
<text text-anchor="middle" x="692" y="-1779.3" font-family="Times,serif" font-size="14.00" fill="#000000">ワールドプレゼントポイント</text>
</g>
<!-- 三井住友VISAカード&#45;&gt;ワールドプレゼントポイント -->
<g id="edge14" class="edge">
<title>三井住友VISAカード&#45;&gt;ワールドプレゼントポイント</title>
<path fill="none" stroke="#000000" stroke-dasharray="5,2" d="M398.6282,-1797.3941C415.8304,-1795.3205 434.0166,-1793.3678 451,-1792 493.7,-1788.5611 540.764,-1786.4334 581.8831,-1785.1181"/>
<polygon fill="#000000" stroke="#000000" points="582.0396,-1788.6151 591.9272,-1784.8091 581.8242,-1781.6184 582.0396,-1788.6151"/>
<text text-anchor="middle" x="485" y="-1795.8" font-family="Times,serif" font-size="14.00" fill="#000000">0.5%</text>
</g>
<!-- Suica -->
<g id="node14" class="node">
<title>Suica</title>
<polygon fill="none" stroke="#000000" points="513,-1439 457,-1439 457,-1403 513,-1403 513,-1439"/>
<text text-anchor="middle" x="485" y="-1417.3" font-family="Times,serif" font-size="14.00" fill="#000000">Suica</text>
</g>
<!-- ビックカメラSuicaカード&#45;&gt;Suica -->
<g id="edge24" class="edge">
<title>ビックカメラSuicaカード&#45;&gt;Suica</title>
<path fill="none" stroke="#000000" stroke-width="2" d="M359.8052,-1361.0908C386.1897,-1373.7165 421.2484,-1390.4931 447.5538,-1403.0809"/>
<polygon fill="#000000" stroke="#000000" stroke-width="2" points="446.2857,-1406.3542 456.8169,-1407.5136 449.3073,-1400.0399 446.2857,-1406.3542"/>
</g>
<!-- JREポイント -->
<g id="node22" class="node">
<title>JREポイント</title>
<polygon fill="none" stroke="#000000" points="742.5,-1435 641.5,-1435 641.5,-1399 742.5,-1399 742.5,-1435"/>
<text text-anchor="middle" x="692" y="-1413.3" font-family="Times,serif" font-size="14.00" fill="#000000">JREポイント</text>
</g>
<!-- ビックカメラSuicaカード&#45;&gt;JREポイント -->
<g id="edge19" class="edge">
<title>ビックカメラSuicaカード&#45;&gt;JREポイント</title>
<path fill="none" stroke="#000000" d="M336.7727,-1361.0838C358.6331,-1386.2484 402.2969,-1430.6844 451,-1448 512.1119,-1469.7273 586.7475,-1454.1746 636.6192,-1438.2844"/>
<polygon fill="#000000" stroke="#000000" points="637.8481,-1441.5647 646.252,-1435.1129 635.659,-1434.9158 637.8481,-1441.5647"/>
<text text-anchor="middle" x="485" y="-1462.8" font-family="Times,serif" font-size="14.00" fill="#000000">0.5%</text>
</g>
<!-- ビックポイント -->
<g id="node23" class="node">
<title>ビックポイント</title>
<polygon fill="none" stroke="#000000" points="750,-1342 634,-1342 634,-1306 750,-1306 750,-1342"/>
<text text-anchor="middle" x="692" y="-1320.3" font-family="Times,serif" font-size="14.00" fill="#000000">ビックポイント</text>
</g>
<!-- ビックカメラSuicaカード&#45;&gt;ビックポイント -->
<g id="edge22" class="edge">
<title>ビックカメラSuicaカード&#45;&gt;ビックポイント</title>
<path fill="none" stroke="#000000" d="M364.7121,-1324.9064C389.4266,-1315.4227 421.4059,-1304.8025 451,-1300 508.9285,-1290.5995 575.3279,-1298.5833 623.7424,-1307.7897"/>
<polygon fill="#000000" stroke="#000000" points="623.3034,-1311.2704 633.7911,-1309.767 624.655,-1304.4021 623.3034,-1311.2704"/>
<text text-anchor="middle" x="485" y="-1303.8" font-family="Times,serif" font-size="14.00" fill="#000000">0.5%</text>
</g>
<!-- ビックカメラ -->
<g id="node43" class="node">
<title>ビックカメラ</title>
<polygon fill="none" stroke="#000000" points="1064,-1423 963,-1423 963,-1387 1064,-1387 1064,-1423"/>
<text text-anchor="middle" x="1013.5" y="-1401.3" font-family="Times,serif" font-size="14.00" fill="#000000">ビックカメラ</text>
</g>
<!-- ビックカメラSuicaカード&#45;&gt;ビックカメラ -->
<g id="edge20" class="edge">
<title>ビックカメラSuicaカード&#45;&gt;ビックカメラ</title>
<path fill="none" stroke="#000000" stroke-width="2" stroke-dasharray="5,2" d="M414.2328,-1333.8772C462.3527,-1331.4026 521.8947,-1331.9425 574,-1343 582.5638,-1344.8174 583.6178,-1348.4739 592,-1351 694.2793,-1381.8238 722.9641,-1378.0563 829,-1391 870.0659,-1396.0129 916.5074,-1399.5252 952.5227,-1401.7781"/>
<polygon fill="#000000" stroke="#000000" stroke-width="2" points="952.6737,-1405.2937 962.8682,-1402.4087 953.0997,-1398.3067 952.6737,-1405.2937"/>
</g>
<!-- EX予約 -->
<g id="node53" class="node">
<title>EX予約</title>
<polygon fill="none" stroke="#000000" points="1046.5,-1277 980.5,-1277 980.5,-1241 1046.5,-1241 1046.5,-1277"/>
<text text-anchor="middle" x="1013.5" y="-1255.3" font-family="Times,serif" font-size="14.00" fill="#000000">EX予約</text>
</g>
<!-- ビックカメラSuicaカード&#45;&gt;EX予約 -->
<g id="edge29" class="edge">
<title>ビックカメラSuicaカード&#45;&gt;EX予約</title>
<path fill="none" stroke="#000000" stroke-width="2" stroke-dasharray="5,2" d="M337.4984,-1324.5857C364.2813,-1294.9592 422.4018,-1240 485,-1240 485,-1240 485,-1240 870,-1240 903.9087,-1240 941.9375,-1245.2782 970.3233,-1250.2707"/>
<polygon fill="#000000" stroke="#000000" stroke-width="2" points="969.8549,-1253.7428 980.3195,-1252.0868 971.1062,-1246.8556 969.8549,-1253.7428"/>
</g>
<!-- nanaco -->
<g id="node17" class="node">
<title>nanaco</title>
<polygon fill="none" stroke="#000000" points="519,-1130 451,-1130 451,-1094 519,-1094 519,-1130"/>
<text text-anchor="middle" x="485" y="-1108.3" font-family="Times,serif" font-size="14.00" fill="#000000">nanaco</text>
</g>
<!-- リクルートカード&#45;&gt;nanaco -->
<g id="edge59" class="edge">
<title>リクルートカード&#45;&gt;nanaco</title>
<path fill="none" stroke="#000000" stroke-width="2" d="M323.9792,-556.2357C333.2784,-639.5012 374.5971,-983.3642 432,-1073 435.4366,-1078.3664 439.892,-1083.2458 444.7589,-1087.5957"/>
<polygon fill="#000000" stroke="#000000" stroke-width="2" points="442.6835,-1090.4186 452.6585,-1093.9893 447.0873,-1084.9775 442.6835,-1090.4186"/>
</g>
<!-- Edy -->
<g id="node18" class="node">
<title>Edy</title>
<polygon fill="none" stroke="#000000" points="512,-556 458,-556 458,-520 512,-520 512,-556"/>
<text text-anchor="middle" x="485" y="-534.3" font-family="Times,serif" font-size="14.00" fill="#000000">Edy</text>
</g>
<!-- リクルートカード&#45;&gt;Edy -->
<g id="edge43" class="edge">
<title>リクルートカード&#45;&gt;Edy</title>
<path fill="none" stroke="#000000" stroke-width="2" d="M386.8903,-538C407.522,-538 429.6367,-538 447.6378,-538"/>
<polygon fill="#000000" stroke="#000000" stroke-width="2" points="447.7189,-541.5001 457.7189,-538 447.7189,-534.5001 447.7189,-541.5001"/>
</g>
<!-- Ponta -->
<g id="node19" class="node">
<title>Ponta</title>
<polygon fill="none" stroke="#000000" points="720.5,-958 663.5,-958 663.5,-922 720.5,-922 720.5,-958"/>
<text text-anchor="middle" x="692" y="-936.3" font-family="Times,serif" font-size="14.00" fill="#000000">Ponta</text>
</g>
<!-- リクルートカード&#45;&gt;Ponta -->
<g id="edge54" class="edge">
<title>リクルートカード&#45;&gt;Ponta</title>
<path fill="none" stroke="#000000" d="M328.898,-556.044C350.8729,-611.3072 424.4705,-780.2182 537,-875 571.0806,-903.7056 619.6536,-921.2931 653.3034,-930.8127"/>
<polygon fill="#000000" stroke="#000000" points="652.6669,-934.2666 663.2348,-933.5114 654.5026,-927.5116 652.6669,-934.2666"/>
<text text-anchor="middle" x="485" y="-861.8" font-family="Times,serif" font-size="14.00" fill="#000000">1.2%</text>
</g>
<!-- NHK -->
<g id="node37" class="node">
<title>NHK</title>
<polygon fill="none" stroke="#000000" points="1040.5,-310 986.5,-310 986.5,-274 1040.5,-274 1040.5,-310"/>
<text text-anchor="middle" x="1013.5" y="-288.3" font-family="Times,serif" font-size="14.00" fill="#000000">NHK</text>
</g>
<!-- リクルートカード&#45;&gt;NHK -->
<g id="edge36" class="edge">
<title>リクルートカード&#45;&gt;NHK</title>
<path fill="none" stroke="#000000" stroke-width="2" d="M324.9417,-519.911C335.3103,-463.1004 375.6177,-292 485,-292 485,-292 485,-292 870,-292 906.056,-292 947.208,-292 976.1703,-292"/>
<polygon fill="#000000" stroke="#000000" stroke-width="2" points="976.2571,-295.5001 986.257,-292 976.257,-288.5001 976.2571,-295.5001"/>
</g>
<!-- NTT -->
<g id="node38" class="node">
<title>NTT</title>
<polygon fill="none" stroke="#000000" points="1040.5,-256 986.5,-256 986.5,-220 1040.5,-220 1040.5,-256"/>
<text text-anchor="middle" x="1013.5" y="-234.3" font-family="Times,serif" font-size="14.00" fill="#000000">NTT</text>
</g>
<!-- リクルートカード&#45;&gt;NTT -->
<g id="edge37" class="edge">
<title>リクルートカード&#45;&gt;NTT</title>
<path fill="none" stroke="#000000" stroke-width="2" d="M323.2933,-519.9295C328.9619,-455.6635 357.4028,-242 485,-242 485,-242 485,-242 870,-242 906.07,-242 947.2202,-240.7216 976.1782,-239.6102"/>
<polygon fill="#000000" stroke="#000000" stroke-width="2" points="976.4096,-243.1039 986.2633,-239.211 976.1327,-236.1094 976.4096,-243.1039"/>
</g>
<!-- ASAHIネット -->
<g id="node39" class="node">
<title>ASAHIネット</title>
<polygon fill="none" stroke="#000000" points="1068,-202 959,-202 959,-166 1068,-166 1068,-202"/>
<text text-anchor="middle" x="1013.5" y="-180.3" font-family="Times,serif" font-size="14.00" fill="#000000">ASAHIネット</text>
</g>
<!-- リクルートカード&#45;&gt;ASAHIネット -->
<g id="edge38" class="edge">
<title>リクルートカード&#45;&gt;ASAHIネット</title>
<path fill="none" stroke="#000000" stroke-width="2" d="M326.6771,-519.567C344.9739,-449.5475 414.1862,-204 485,-204 485,-204 485,-204 870,-204 895.9769,-204 924.3479,-200.7453 948.954,-196.8618"/>
<polygon fill="#000000" stroke="#000000" stroke-width="2" points="949.5943,-200.3036 958.8941,-195.2277 948.4587,-193.3963 949.5943,-200.3036"/>
</g>
<!-- アイハート -->
<g id="node41" class="node">
<title>アイハート</title>
<polygon fill="none" stroke="#000000" points="1056.5,-90 970.5,-90 970.5,-54 1056.5,-54 1056.5,-90"/>
<text text-anchor="middle" x="1013.5" y="-68.3" font-family="Times,serif" font-size="14.00" fill="#000000">アイハート</text>
</g>
<!-- リクルートカード&#45;&gt;アイハート -->
<g id="edge42" class="edge">
<title>リクルートカード&#45;&gt;アイハート</title>
<path fill="none" stroke="#000000" stroke-width="2" d="M324.2746,-519.7322C335.4993,-433.5756 388.3629,-72 485,-72 485,-72 485,-72 870,-72 899.9333,-72 933.3788,-72 960.4461,-72"/>
<polygon fill="#000000" stroke="#000000" stroke-width="2" points="960.487,-75.5001 970.4869,-72 960.4869,-68.5001 960.487,-75.5001"/>
</g>
<!-- Amazon -->
<g id="node51" class="node">
<title>Amazon</title>
<polygon fill="none" stroke="#000000" points="1050.5,-144 976.5,-144 976.5,-108 1050.5,-108 1050.5,-144"/>
<text text-anchor="middle" x="1013.5" y="-122.3" font-family="Times,serif" font-size="14.00" fill="#000000">Amazon</text>
</g>
<!-- リクルートカード&#45;&gt;Amazon -->
<g id="edge40" class="edge">
<title>リクルートカード&#45;&gt;Amazon</title>
<path fill="none" stroke="#000000" stroke-width="2" d="M324.7858,-519.8827C337.8104,-438.4194 395.8474,-110 485,-110 485,-110 485,-110 870,-110 902.3724,-110 938.6012,-114.0716 966.5576,-118.1069"/>
<polygon fill="#000000" stroke="#000000" stroke-width="2" points="966.0535,-121.5704 976.4605,-119.5844 967.0865,-114.647 966.0535,-121.5704"/>
</g>
<!-- iTunes -->
<g id="node52" class="node">
<title>iTunes</title>
<polygon fill="none" stroke="#000000" points="1046,-1077 981,-1077 981,-1041 1046,-1041 1046,-1077"/>
<text text-anchor="middle" x="1013.5" y="-1055.3" font-family="Times,serif" font-size="14.00" fill="#000000">iTunes</text>
</g>
<!-- リクルートカード&#45;&gt;iTunes -->
<g id="edge39" class="edge">
<title>リクルートカード&#45;&gt;iTunes</title>
<path fill="none" stroke="#000000" stroke-width="2" stroke-dasharray="5,2" d="M323.6311,-556.2372C332.3678,-648.4505 377.3121,-1059 485,-1059 485,-1059 485,-1059 870,-1059 903.8372,-1059 942.1624,-1059 970.6889,-1059"/>
<polygon fill="#000000" stroke="#000000" stroke-width="2" points="970.7289,-1062.5001 980.7289,-1059 970.7289,-1055.5001 970.7289,-1062.5001"/>
</g>
<!-- じゃらん -->
<g id="node54" class="node">
<title>じゃらん</title>
<polygon fill="none" stroke="#000000" points="1050.5,-1023 976.5,-1023 976.5,-987 1050.5,-987 1050.5,-1023"/>
<text text-anchor="middle" x="1013.5" y="-1001.3" font-family="Times,serif" font-size="14.00" fill="#000000">じゃらん</text>
</g>
<!-- リクルートカード&#45;&gt;じゃらん -->
<g id="edge41" class="edge">
<title>リクルートカード&#45;&gt;じゃらん</title>
<path fill="none" stroke="#000000" stroke-width="2" d="M324.0361,-556.0527C334.4143,-643.7369 384.8838,-1021 485,-1021 485,-1021 485,-1021 870,-1021 902.3724,-1021 938.6012,-1016.9284 966.5576,-1012.8931"/>
<polygon fill="#000000" stroke="#000000" stroke-width="2" points="967.0865,-1016.353 976.4605,-1011.4156 966.0535,-1009.4296 967.0865,-1016.353"/>
</g>
<!-- Suica&#45;&gt;JREポイント -->
<g id="edge30" class="edge">
<title>Suica&#45;&gt;JREポイント</title>
<path fill="none" stroke="#000000" d="M513.135,-1413.2831C520.814,-1411.5134 529.1753,-1409.8911 537,-1409 567.8783,-1405.4833 602.3949,-1406.7592 631.0039,-1409.2231"/>
<polygon fill="#000000" stroke="#000000" points="630.9777,-1412.7357 641.2591,-1410.1779 631.6267,-1405.7658 630.9777,-1412.7357"/>
<text text-anchor="middle" x="555.5" y="-1412.8" font-family="Times,serif" font-size="14.00" fill="#000000">1.5%</text>
</g>
<!-- 電車 -->
<g id="node34" class="node">
<title>電車</title>
<polygon fill="none" stroke="#000000" points="1040.5,-1533 986.5,-1533 986.5,-1497 1040.5,-1497 1040.5,-1533"/>
<text text-anchor="middle" x="1013.5" y="-1511.3" font-family="Times,serif" font-size="14.00" fill="#000000">電車</text>
</g>
<!-- Suica&#45;&gt;電車 -->
<g id="edge25" class="edge">
<title>Suica&#45;&gt;電車</title>
<path fill="none" stroke="#000000" stroke-width="2" d="M511.9046,-1439.1989C524.3941,-1447.6317 536.6066,-1455.8481 537,-1456 560.044,-1464.8964 567.5146,-1460.7384 592,-1464 733.7184,-1482.8777 902.6495,-1502.4261 976.2042,-1510.7922"/>
<polygon fill="#000000" stroke="#000000" stroke-width="2" points="976.0189,-1514.2936 986.3499,-1511.944 976.8085,-1507.3382 976.0189,-1514.2936"/>
</g>
<!-- 松屋 -->
<g id="node49" class="node">
<title>松屋</title>
<polygon fill="none" stroke="#000000" points="1040.5,-1479 986.5,-1479 986.5,-1443 1040.5,-1443 1040.5,-1479"/>
<text text-anchor="middle" x="1013.5" y="-1457.3" font-family="Times,serif" font-size="14.00" fill="#000000">松屋</text>
</g>
<!-- Suica&#45;&gt;松屋 -->
<g id="edge26" class="edge">
<title>Suica&#45;&gt;松屋</title>
<path fill="none" stroke="#000000" stroke-width="2" d="M513.2538,-1432.1716C520.8593,-1434.7935 529.1548,-1437.3118 537,-1439 560.996,-1444.1636 567.5074,-1442.3938 592,-1444 733.7459,-1453.2955 902.6629,-1458.2642 976.209,-1460.1265"/>
<polygon fill="#000000" stroke="#000000" stroke-width="2" points="976.2695,-1463.629 986.3535,-1460.3788 976.4437,-1456.6311 976.2695,-1463.629"/>
</g>
<!-- 吉野家 -->
<g id="node50" class="node">
<title>吉野家</title>
<polygon fill="none" stroke="#000000" points="1043,-1223 984,-1223 984,-1187 1043,-1187 1043,-1223"/>
<text text-anchor="middle" x="1013.5" y="-1201.3" font-family="Times,serif" font-size="14.00" fill="#000000">吉野家</text>
</g>
<!-- Suica&#45;&gt;吉野家 -->
<g id="edge27" class="edge">
<title>Suica&#45;&gt;吉野家</title>
<path fill="none" stroke="#000000" stroke-width="2" d="M513.0062,-1408.6602C532.8105,-1398.5604 558.4983,-1382.4452 574,-1361 591.31,-1337.0531 570.2847,-1317.0383 592,-1297 664.8976,-1229.7322 714.1057,-1275.2249 811,-1254 867.8393,-1241.5492 933.2057,-1225.3976 973.9384,-1215.1127"/>
<polygon fill="#000000" stroke="#000000" stroke-width="2" points="974.9083,-1218.4777 983.7433,-1212.6301 973.1901,-1211.6918 974.9083,-1218.4777"/>
</g>
<!-- 大阪地下鉄 -->
<g id="node35" class="node">
<title>大阪地下鉄</title>
<polygon fill="none" stroke="#000000" points="1057.5,-1939 969.5,-1939 969.5,-1903 1057.5,-1903 1057.5,-1939"/>
<text text-anchor="middle" x="1013.5" y="-1917.3" font-family="Times,serif" font-size="14.00" fill="#000000">大阪地下鉄</text>
</g>
<!-- PiTaPa&#45;&gt;大阪地下鉄 -->
<g id="edge16" class="edge">
<title>PiTaPa&#45;&gt;大阪地下鉄</title>
<path fill="none" stroke="#000000" stroke-width="2" d="M517.611,-1831.8684C574.0674,-1828.8852 693.4298,-1825.7003 792,-1844 824.5688,-1850.0465 905.2328,-1879.519 959.6874,-1900.1923"/>
<polygon fill="#000000" stroke="#000000" stroke-width="2" points="958.6056,-1903.5255 969.1965,-1903.814 961.0971,-1896.9839 958.6056,-1903.5255"/>
</g>
<!-- 山陽バス -->
<g id="node36" class="node">
<title>山陽バス</title>
<polygon fill="none" stroke="#000000" points="1050.5,-1885 976.5,-1885 976.5,-1849 1050.5,-1849 1050.5,-1885"/>
<text text-anchor="middle" x="1013.5" y="-1863.3" font-family="Times,serif" font-size="14.00" fill="#000000">山陽バス</text>
</g>
<!-- PiTaPa&#45;&gt;山陽バス -->
<g id="edge18" class="edge">
<title>PiTaPa&#45;&gt;山陽バス</title>
<path fill="none" stroke="#000000" stroke-width="2" stroke-dasharray="5,2" d="M517.6459,-1840.2715C524.0433,-1841.3245 530.717,-1842.3007 537,-1843 693.4716,-1860.4166 880.2684,-1865.2009 966.1025,-1866.51"/>
<polygon fill="#000000" stroke="#000000" stroke-width="2" points="966.2571,-1870.0124 976.3063,-1866.6563 966.3575,-1863.0132 966.2571,-1870.0124"/>
</g>
<!-- 切符 -->
<g id="node29" class="node">
<title>切符</title>
<polygon fill="none" stroke="#000000" points="897,-1616 843,-1616 843,-1580 897,-1580 897,-1616"/>
<text text-anchor="middle" x="870" y="-1594.3" font-family="Times,serif" font-size="14.00" fill="#000000">切符</text>
</g>
<!-- 現金&#45;&gt;切符 -->
<g id="edge69" class="edge">
<title>現金&#45;&gt;切符</title>
<path fill="none" stroke="#000000" stroke-width="2" d="M512.0725,-1594.3326C579.5862,-1590.4065 755.5126,-1590.2307 832.7373,-1593.8051"/>
<polygon fill="#000000" stroke="#000000" stroke-width="2" points="832.7898,-1597.3124 842.9575,-1594.3343 833.1519,-1590.3218 832.7898,-1597.3124"/>
</g>
<!-- 飲食店 -->
<g id="node46" class="node">
<title>飲食店</title>
<polygon fill="none" stroke="#000000" points="1043,-1587 984,-1587 984,-1551 1043,-1551 1043,-1587"/>
<text text-anchor="middle" x="1013.5" y="-1565.3" font-family="Times,serif" font-size="14.00" fill="#000000">飲食店</text>
</g>
<!-- 現金&#45;&gt;飲食店 -->
<g id="edge68" class="edge">
<title>現金&#45;&gt;飲食店</title>
<path fill="none" stroke="#000000" stroke-width="2" d="M512.1641,-1595.2407C570.2357,-1589.4801 710.8034,-1576.2731 829,-1571 878.6601,-1568.7845 935.9094,-1568.5201 973.2993,-1568.6554"/>
<polygon fill="#000000" stroke="#000000" stroke-width="2" points="973.7482,-1572.1575 983.765,-1568.7057 973.7819,-1565.1576 973.7482,-1572.1575"/>
</g>
<!-- nanacoポイント -->
<g id="node25" class="node">
<title>nanacoポイント</title>
<polygon fill="none" stroke="#000000" points="754.5,-1123 629.5,-1123 629.5,-1087 754.5,-1087 754.5,-1123"/>
<text text-anchor="middle" x="692" y="-1101.3" font-family="Times,serif" font-size="14.00" fill="#000000">nanacoポイント</text>
</g>
<!-- nanaco&#45;&gt;nanacoポイント -->
<g id="edge61" class="edge">
<title>nanaco&#45;&gt;nanacoポイント</title>
<path fill="none" stroke="#000000" d="M519.1818,-1110.8441C546.239,-1109.9291 584.9935,-1108.6186 618.9484,-1107.4703"/>
<polygon fill="#000000" stroke="#000000" points="619.4379,-1110.9559 629.3139,-1107.1198 619.2012,-1103.9599 619.4379,-1110.9559"/>
<text text-anchor="middle" x="555.5" y="-1114.8" font-family="Times,serif" font-size="14.00" fill="#000000">1%</text>
</g>
<!-- セブンイレブン -->
<g id="node32" class="node">
<title>セブンイレブン</title>
<polygon fill="none" stroke="#000000" points="1070.5,-1169 956.5,-1169 956.5,-1133 1070.5,-1133 1070.5,-1169"/>
<text text-anchor="middle" x="1013.5" y="-1147.3" font-family="Times,serif" font-size="14.00" fill="#000000">セブンイレブン</text>
</g>
<!-- nanaco&#45;&gt;セブンイレブン -->
<g id="edge60" class="edge">
<title>nanaco&#45;&gt;セブンイレブン</title>
<path fill="none" stroke="#000000" stroke-width="2" d="M519.0219,-1125.3417C524.9368,-1127.2081 531.0882,-1128.8714 537,-1130 680.8604,-1157.4649 853.3872,-1157.0031 946.2993,-1154.0935"/>
<polygon fill="#000000" stroke="#000000" stroke-width="2" points="946.5289,-1157.5878 956.407,-1153.7573 946.2961,-1150.5917 946.5289,-1157.5878"/>
</g>
<!-- Edy&#45;&gt;Ponta -->
<g id="edge53" class="edge">
<title>Edy&#45;&gt;Ponta</title>
<path fill="none" stroke="#000000" d="M487.1989,-556.1759C493.7955,-608.9982 514.3644,-761.5475 537,-806 562.9659,-856.9927 617.5035,-896.8117 654.4514,-919.3644"/>
<polygon fill="#000000" stroke="#000000" points="653.0562,-922.6074 663.4379,-924.7224 656.6411,-916.595 653.0562,-922.6074"/>
<text text-anchor="middle" x="555.5" y="-859.8" font-family="Times,serif" font-size="14.00" fill="#000000">0.5%</text>
</g>
<!-- ローソン -->
<g id="node31" class="node">
<title>ローソン</title>
<polygon fill="none" stroke="#000000" points="1050,-864 977,-864 977,-828 1050,-828 1050,-864"/>
<text text-anchor="middle" x="1013.5" y="-842.3" font-family="Times,serif" font-size="14.00" fill="#000000">ローソン</text>
</g>
<!-- Edy&#45;&gt;ローソン -->
<g id="edge44" class="edge">
<title>Edy&#45;&gt;ローソン</title>
<path fill="none" stroke="#000000" stroke-width="2" d="M493.6334,-556.4092C508.7159,-586.0486 542.995,-643.2235 592,-665 657.6358,-694.1668 855.7063,-671.1592 911,-717 948.1247,-747.778 914.6417,-784.1753 948,-819 953.5038,-824.7457 960.4083,-829.3116 967.6542,-832.9272"/>
<polygon fill="#000000" stroke="#000000" stroke-width="2" points="966.3728,-836.1872 976.9352,-837.0158 969.1949,-829.7813 966.3728,-836.1872"/>
</g>
<!-- ファミリーマート -->
<g id="node33" class="node">
<title>ファミリーマート</title>
<polygon fill="none" stroke="#000000" points="1079,-810 948,-810 948,-774 1079,-774 1079,-810"/>
<text text-anchor="middle" x="1013.5" y="-788.3" font-family="Times,serif" font-size="14.00" fill="#000000">ファミリーマート</text>
</g>
<!-- Edy&#45;&gt;ファミリーマート -->
<g id="edge46" class="edge">
<title>Edy&#45;&gt;ファミリーマート</title>
<path fill="none" stroke="#000000" stroke-width="2" d="M487.8649,-556.1766C494.69,-597.1567 513.1371,-694.9024 537,-717 593.9436,-769.7312 818.2115,-785.4209 937.6633,-790.0647"/>
<polygon fill="#000000" stroke="#000000" stroke-width="2" points="937.7107,-793.5688 947.834,-790.4432 937.9711,-786.5736 937.7107,-793.5688"/>
</g>
<!-- ウェルシア -->
<g id="node42" class="node">
<title>ウェルシア</title>
<polygon fill="none" stroke="#000000" points="1057,-683 970,-683 970,-647 1057,-647 1057,-683"/>
<text text-anchor="middle" x="1013.5" y="-661.3" font-family="Times,serif" font-size="14.00" fill="#000000">ウェルシア</text>
</g>
<!-- Edy&#45;&gt;ウェルシア -->
<g id="edge51" class="edge">
<title>Edy&#45;&gt;ウェルシア</title>
<path fill="none" stroke="#000000" stroke-width="2" d="M499.8254,-556.1278C518.6992,-577.7419 553.5107,-612.9541 592,-629 715.678,-680.5605 877.1565,-676.9134 959.7379,-670.5613"/>
<polygon fill="#000000" stroke="#000000" stroke-width="2" points="960.2084,-674.0347 969.8918,-669.7356 959.641,-667.0578 960.2084,-674.0347"/>
</g>
<!-- ヨドバシカメラ -->
<g id="node44" class="node">
<title>ヨドバシカメラ</title>
<polygon fill="none" stroke="#000000" points="1071.5,-556 955.5,-556 955.5,-520 1071.5,-520 1071.5,-556"/>
<text text-anchor="middle" x="1013.5" y="-534.3" font-family="Times,serif" font-size="14.00" fill="#000000">ヨドバシカメラ</text>
</g>
<!-- Edy&#45;&gt;ヨドバシカメラ -->
<g id="edge48" class="edge">
<title>Edy&#45;&gt;ヨドバシカメラ</title>
<path fill="none" stroke="#000000" stroke-width="2" d="M512.3016,-538C592.2186,-538 827.4167,-538 944.9797,-538"/>
<polygon fill="#000000" stroke="#000000" stroke-width="2" points="945.2954,-541.5001 955.2953,-538 945.2953,-534.5001 945.2954,-541.5001"/>
</g>
<!-- 餃子の王将 -->
<g id="node45" class="node">
<title>餃子の王将</title>
<polygon fill="none" stroke="#000000" points="1057.5,-364 969.5,-364 969.5,-328 1057.5,-328 1057.5,-364"/>
<text text-anchor="middle" x="1013.5" y="-342.3" font-family="Times,serif" font-size="14.00" fill="#000000">餃子の王将</text>
</g>
<!-- Edy&#45;&gt;餃子の王将 -->
<g id="edge67" class="edge">
<title>Edy&#45;&gt;餃子の王将</title>
<path fill="none" stroke="#000000" stroke-width="2" d="M489.5341,-519.9054C496.4459,-495.1638 511.5686,-450.3874 537,-420 555.908,-397.4072 564.2242,-392.8213 592,-383 717.692,-338.5562 877.0109,-338.5322 959.1063,-342.2834"/>
<polygon fill="#000000" stroke="#000000" stroke-width="2" points="959.0469,-345.7847 969.2074,-342.7823 959.3923,-338.7932 959.0469,-345.7847"/>
</g>
<!-- FRESCO -->
<g id="node47" class="node">
<title>FRESCO</title>
<polygon fill="none" stroke="#000000" points="1053.5,-472 973.5,-472 973.5,-436 1053.5,-436 1053.5,-472"/>
<text text-anchor="middle" x="1013.5" y="-450.3" font-family="Times,serif" font-size="14.00" fill="#000000">FRESCO</text>
</g>
<!-- Edy&#45;&gt;FRESCO -->
<g id="edge64" class="edge">
<title>Edy&#45;&gt;FRESCO</title>
<path fill="none" stroke="#000000" stroke-width="2" d="M499.3311,-519.909C517.9572,-498.0138 552.7752,-462.303 592,-448 719.0917,-401.6571 882.4011,-425.3659 963.3668,-442.1261"/>
<polygon fill="#000000" stroke="#000000" stroke-width="2" points="962.7856,-445.5806 973.2943,-444.2324 964.2385,-438.733 962.7856,-445.5806"/>
</g>
<!-- 業務スーパー -->
<g id="node48" class="node">
<title>業務スーパー</title>
<polygon fill="none" stroke="#000000" points="1064,-418 963,-418 963,-382 1064,-382 1064,-418"/>
<text text-anchor="middle" x="1013.5" y="-396.3" font-family="Times,serif" font-size="14.00" fill="#000000">業務スーパー</text>
</g>
<!-- Edy&#45;&gt;業務スーパー -->
<g id="edge63" class="edge">
<title>Edy&#45;&gt;業務スーパー</title>
<path fill="none" stroke="#000000" stroke-width="2" d="M493.1569,-519.831C502.0408,-501.4578 517.6087,-472.9927 537,-453 557.3405,-432.0287 564.1768,-425.9106 592,-417 715.1962,-377.5454 869.0484,-384.4429 952.6041,-392.512"/>
<polygon fill="#000000" stroke="#000000" stroke-width="2" points="952.3852,-396.0075 962.685,-393.5245 953.0848,-389.0426 952.3852,-396.0075"/>
</g>
<!-- Ponta&#45;&gt;じゃらん -->
<g id="edge55" class="edge">
<title>Ponta&#45;&gt;じゃらん</title>
<path fill="none" stroke="#000000" d="M720.531,-945.7683C775.931,-956.9689 898.5551,-981.7608 966.2755,-995.4523"/>
<polygon fill="#000000" stroke="#000000" points="965.7589,-998.9186 976.2542,-997.4697 967.1461,-992.0574 965.7589,-998.9186"/>
</g>
<!-- Tポイント -->
<g id="node20" class="node">
<title>Tポイント</title>
<polygon fill="none" stroke="#000000" points="733.5,-856 650.5,-856 650.5,-820 733.5,-820 733.5,-856"/>
<text text-anchor="middle" x="692" y="-834.3" font-family="Times,serif" font-size="14.00" fill="#000000">Tポイント</text>
</g>
<!-- JREポイント&#45;&gt;Suica -->
<g id="edge31" class="edge">
<title>JREポイント&#45;&gt;Suica</title>
<path fill="none" stroke="#000000" d="M641.4047,-1421.1747C611.124,-1423.202 571.8691,-1425.005 537,-1424 532.5059,-1423.8705 527.7961,-1423.6781 523.1238,-1423.4522"/>
<polygon fill="#000000" stroke="#000000" points="523.2258,-1419.9527 513.0537,-1422.9154 522.8532,-1426.9428 523.2258,-1419.9527"/>
</g>
<!-- ビックポイント&#45;&gt;ビックカメラ -->
<g id="edge23" class="edge">
<title>ビックポイント&#45;&gt;ビックカメラ</title>
<path fill="none" stroke="#000000" d="M750.3516,-1325.927C795.1637,-1328.72 858.1224,-1335.5162 911,-1352 933.6817,-1359.0707 957.3457,-1370.9645 976.2142,-1381.6952"/>
<polygon fill="#000000" stroke="#000000" points="974.6624,-1384.8416 985.0664,-1386.8434 978.1816,-1378.7905 974.6624,-1384.8416"/>
</g>
<!-- Amazonポイント -->
<g id="node24" class="node">
<title>Amazonポイント</title>
<polygon fill="none" stroke="#000000" points="757.5,-175 626.5,-175 626.5,-139 757.5,-139 757.5,-175"/>
<text text-anchor="middle" x="692" y="-153.3" font-family="Times,serif" font-size="14.00" fill="#000000">Amazonポイント</text>
</g>
<!-- Amazonポイント&#45;&gt;Amazon -->
<g id="edge58" class="edge">
<title>Amazonポイント&#45;&gt;Amazon</title>
<path fill="none" stroke="#000000" d="M757.8361,-145.0811C819.7945,-137.3501 911.0617,-128.756 966.1408,-125.6142"/>
<polygon fill="#000000" stroke="#000000" points="966.5204,-129.0992 976.3218,-125.0764 966.151,-122.1089 966.5204,-129.0992"/>
</g>
<!-- nanacoポイント&#45;&gt;nanaco -->
<g id="edge62" class="edge">
<title>nanacoポイント&#45;&gt;nanaco</title>
<path fill="none" stroke="#000000" d="M629.3519,-1103.8617C601.1098,-1103.7455 567.3527,-1104.1564 537,-1106 534.4601,-1106.1543 531.8538,-1106.3466 529.2259,-1106.5667"/>
<polygon fill="#000000" stroke="#000000" points="528.7017,-1103.1007 519.0784,-1107.5325 529.365,-1110.0692 528.7017,-1103.1007"/>
</g>
<!-- FRESCOポイント -->
<g id="node26" class="node">
<title>FRESCOポイント</title>
<polygon fill="none" stroke="#000000" points="760.5,-493 623.5,-493 623.5,-457 760.5,-457 760.5,-493"/>
<text text-anchor="middle" x="692" y="-471.3" font-family="Times,serif" font-size="14.00" fill="#000000">FRESCOポイント</text>
</g>
<!-- FRESCOポイント&#45;&gt;FRESCO -->
<g id="edge66" class="edge">
<title>FRESCOポイント&#45;&gt;FRESCO</title>
<path fill="none" stroke="#000000" d="M760.6015,-468.468C782.4495,-466.528 806.7278,-464.5181 829,-463 874.3306,-459.9103 925.9968,-457.4838 963.1015,-455.9329"/>
<polygon fill="#000000" stroke="#000000" points="963.3159,-459.4271 973.1635,-455.5188 963.028,-452.4331 963.3159,-459.4271"/>
</g>
<!-- ヨドバシゴールドポイント -->
<g id="node27" class="node">
<title>ヨドバシゴールドポイント</title>
<polygon fill="none" stroke="#000000" points="786,-620 598,-620 598,-584 786,-584 786,-620"/>
<text text-anchor="middle" x="692" y="-598.3" font-family="Times,serif" font-size="14.00" fill="#000000">ヨドバシゴールドポイント</text>
</g>
<!-- ヨドバシゴールドポイント&#45;&gt;ヨドバシカメラ -->
<g id="edge50" class="edge">
<title>ヨドバシゴールドポイント&#45;&gt;ヨドバシカメラ</title>
<path fill="none" stroke="#000000" d="M782.8399,-583.9168C834.4997,-573.633 898.1229,-560.9678 945.455,-551.5455"/>
<polygon fill="#000000" stroke="#000000" points="946.1735,-554.9712 955.2977,-549.5862 944.8068,-548.1059 946.1735,-554.9712"/>
</g>
<!-- はぴeポイント -->
<g id="node28" class="node">
<title>はぴeポイント</title>
<polygon fill="none" stroke="#000000" points="747,-1671 637,-1671 637,-1635 747,-1635 747,-1671"/>
<text text-anchor="middle" x="692" y="-1649.3" font-family="Times,serif" font-size="14.00" fill="#000000">はぴeポイント</text>
</g>
<!-- はぴeポイント&#45;&gt;Ponta -->
<g id="edge12" class="edge">
<title>はぴeポイント&#45;&gt;Ponta</title>
<path fill="none" stroke="#000000" d="M680.0441,-1634.8074C651.636,-1590.2242 581.0084,-1471.0087 561.5,-1359.5 539.8132,-1235.5394 546.4332,-1195.3039 592,-1078 608.9907,-1034.2605 643.3085,-991.752 666.9641,-965.736"/>
<polygon fill="#000000" stroke="#000000" points="669.7076,-967.9246 673.9322,-958.2084 664.5706,-963.1694 669.7076,-967.9246"/>
<text text-anchor="middle" x="555.5" y="-1348.3" font-family="Times,serif" font-size="14.00" fill="#000000">80%</text>
</g>
<!-- 切符&#45;&gt;現金 -->
<g id="edge71" class="edge">
<title>切符&#45;&gt;現金</title>
<path fill="none" stroke="#000000" d="M842.9575,-1601.6657C775.4757,-1605.5928 599.5508,-1605.7698 522.2969,-1602.1965"/>
<polygon fill="#000000" stroke="#000000" points="522.24,-1598.689 512.0725,-1601.6674 521.8782,-1605.6796 522.24,-1598.689"/>
</g>
<!-- 切符&#45;&gt;電車 -->
<g id="edge70" class="edge">
<title>切符&#45;&gt;電車</title>
<path fill="none" stroke="#000000" stroke-width="2" d="M892.2826,-1579.8758C907.4037,-1568.1219 928.1785,-1553.005 948,-1542 957.1136,-1536.9401 967.3716,-1532.2712 977.0175,-1528.2891"/>
<polygon fill="#000000" stroke="#000000" stroke-width="2" points="978.404,-1531.5043 986.3943,-1524.5468 975.8093,-1525.0029 978.404,-1531.5043"/>
</g>
<!-- ローソン&#45;&gt;Ponta -->
<g id="edge45" class="edge">
<title>ローソン&#45;&gt;Ponta</title>
<path fill="none" stroke="#000000" d="M976.7667,-856.7401C915.4363,-874.6718 792.7757,-910.5352 730.3719,-928.7809"/>
<polygon fill="#000000" stroke="#000000" points="729.1469,-925.4924 720.531,-931.6581 731.1114,-932.2111 729.1469,-925.4924"/>
<text text-anchor="middle" x="870" y="-903.8" font-family="Times,serif" font-size="14.00" fill="#000000">1%</text>
</g>
<!-- ファミリーマート&#45;&gt;Tポイント -->
<g id="edge47" class="edge">
<title>ファミリーマート&#45;&gt;Tポイント</title>
<path fill="none" stroke="#000000" d="M947.8951,-803.2063C941.8491,-804.1766 935.8136,-805.122 930,-806 866.0544,-815.657 792.2199,-825.3599 743.9582,-831.5075"/>
<polygon fill="#000000" stroke="#000000" points="743.2412,-828.0703 733.7616,-832.8019 744.1228,-835.0146 743.2412,-828.0703"/>
<text text-anchor="middle" x="870" y="-823.8" font-family="Times,serif" font-size="14.00" fill="#000000">0.5%</text>
</g>
<!-- 大阪地下鉄&#45;&gt;三井住友VISAカード -->
<g id="edge17" class="edge">
<title>大阪地下鉄&#45;&gt;三井住友VISAカード</title>
<path fill="none" stroke="#000000" d="M969.2273,-1919.1288C940.8666,-1918.0878 903.272,-1917 870,-1917 485,-1917 485,-1917 485,-1917 425.6857,-1917 371.6054,-1866.509 343.1102,-1834.2556"/>
<polygon fill="#000000" stroke="#000000" points="345.6045,-1831.7882 336.4293,-1826.4904 340.2981,-1836.3536 345.6045,-1831.7882"/>
<text text-anchor="middle" x="692" y="-1920.8" font-family="Times,serif" font-size="14.00" fill="#000000">10%</text>
</g>
<!-- 関西電力&#45;&gt;はぴeポイント -->
<g id="edge11" class="edge">
<title>関西電力&#45;&gt;はぴeポイント</title>
<path fill="none" stroke="#000000" d="M976.2648,-1738.1178C966.9841,-1734.2806 957.0893,-1730.0796 948,-1726 931.3163,-1718.5118 928.1821,-1714.2606 911,-1708 860.5978,-1689.6351 801.5048,-1675.1886 757.4134,-1665.7188"/>
<polygon fill="#000000" stroke="#000000" points="757.9023,-1662.2447 747.3941,-1663.5969 756.452,-1669.0929 757.9023,-1662.2447"/>
<text text-anchor="middle" x="870" y="-1711.8" font-family="Times,serif" font-size="14.00" fill="#000000">0.8%, 0.5%</text>
</g>
<!-- ウェルシア&#45;&gt;Tポイント -->
<g id="edge52" class="edge">
<title>ウェルシア&#45;&gt;Tポイント</title>
<path fill="none" stroke="#000000" d="M979.5956,-683.244C920.5966,-714.9916 799.1865,-780.3227 734.5991,-815.0773"/>
<polygon fill="#000000" stroke="#000000" points="732.6438,-812.1548 725.4963,-819.9756 735.9609,-818.3191 732.6438,-812.1548"/>
<text text-anchor="middle" x="870" y="-768.8" font-family="Times,serif" font-size="14.00" fill="#000000">1%</text>
</g>
<!-- ビックカメラ&#45;&gt;ビックポイント -->
<g id="edge21" class="edge">
<title>ビックカメラ&#45;&gt;ビックポイント</title>
<path fill="none" stroke="#000000" stroke-dasharray="5,2" d="M962.7841,-1390.1893C946.3077,-1385.5015 927.9139,-1380.3986 911,-1376 860.6503,-1362.9061 803.4418,-1349.368 760.1248,-1339.3888"/>
<polygon fill="#000000" stroke="#000000" points="760.7947,-1335.9516 750.2649,-1337.1235 759.2273,-1342.7739 760.7947,-1335.9516"/>
<text text-anchor="middle" x="870" y="-1379.8" font-family="Times,serif" font-size="14.00" fill="#000000">9.5%</text>
</g>
<!-- ヨドバシカメラ&#45;&gt;ヨドバシゴールドポイント -->
<g id="edge49" class="edge">
<title>ヨドバシカメラ&#45;&gt;ヨドバシゴールドポイント</title>
<path fill="none" stroke="#000000" d="M991.313,-556.2085C975.3223,-568.1811 952.6519,-582.9015 930,-590 887.4207,-603.3432 838.4749,-607.5733 796.0847,-608.0007"/>
<polygon fill="#000000" stroke="#000000" points="796.0113,-604.5008 786.0226,-608.0329 796.0338,-611.5008 796.0113,-604.5008"/>
<text text-anchor="middle" x="870" y="-610.8" font-family="Times,serif" font-size="14.00" fill="#000000">10%</text>
</g>
<!-- FRESCO&#45;&gt;FRESCOポイント -->
<g id="edge65" class="edge">
<title>FRESCO&#45;&gt;FRESCOポイント</title>
<path fill="none" stroke="#000000" d="M973.1961,-458.8132C959.5018,-460.3236 944.0991,-461.8856 930,-463 876.8789,-467.1986 816.9652,-470.2099 770.5405,-472.1659"/>
<polygon fill="#000000" stroke="#000000" points="770.3939,-468.6689 760.5472,-472.5795 770.6834,-475.6629 770.3939,-468.6689"/>
<text text-anchor="middle" x="870" y="-473.8" font-family="Times,serif" font-size="14.00" fill="#000000">0.5%</text>
</g>
<!-- 吉野家&#45;&gt;Tポイント -->
<g id="edge28" class="edge">
<title>吉野家&#45;&gt;Tポイント</title>
<path fill="none" stroke="#000000" d="M983.7424,-1197.2682C965.7081,-1191.1939 943.4655,-1181.0233 929,-1165 886.2871,-1117.6875 833.675,-961.2292 792,-913 774.6962,-892.9749 751.1851,-875.0086 731.3075,-861.684"/>
<polygon fill="#000000" stroke="#000000" points="733.0367,-858.6327 722.7535,-856.0819 729.2016,-864.4887 733.0367,-858.6327"/>
<text text-anchor="middle" x="870" y="-1142.8" font-family="Times,serif" font-size="14.00" fill="#000000">0.5%</text>
</g>
<!-- Amazon&#45;&gt;Amazonポイント -->
<g id="edge57" class="edge">
<title>Amazon&#45;&gt;Amazonポイント</title>
<path fill="none" stroke="#000000" d="M976.3218,-134.0932C925.658,-141.4257 833.7405,-150.7321 768.13,-155.4978"/>
<polygon fill="#000000" stroke="#000000" points="767.5655,-152.0288 757.8361,-156.2227 768.0573,-159.0115 767.5655,-152.0288"/>
</g>
<!-- じゃらん&#45;&gt;Ponta -->
<g id="edge56" class="edge">
<title>じゃらん&#45;&gt;Ponta</title>
<path fill="none" stroke="#000000" d="M988.3802,-986.9775C968.4539,-973.7803 939.3332,-956.8583 911,-949 849.7253,-932.0054 775.133,-933.3624 730.717,-936.3542"/>
<polygon fill="#000000" stroke="#000000" points="730.3548,-932.8713 720.639,-937.0967 730.8691,-939.8524 730.3548,-932.8713"/>
<text text-anchor="middle" x="870" y="-952.8" font-family="Times,serif" font-size="14.00" fill="#000000">2%</text>
</g>
</g>
</svg>
