<?xml version="1.0" encoding="UTF-8" standalone="no"?>
<!DOCTYPE svg PUBLIC "-//W3C//DTD SVG 1.1//EN"
 "http://www.w3.org/Graphics/SVG/1.1/DTD/svg11.dtd">
<!-- Generated by graphviz version 2.40.1 (20161225.0304)
 -->
<!-- Title: MoneyFlow Pages: 1 -->
<svg width="1081pt" height="1859pt"
 viewBox="0.00 0.00 1081.00 1859.00" xmlns="http://www.w3.org/2000/svg" xmlns:xlink="http://www.w3.org/1999/xlink">
<g id="graph0" class="graph" transform="scale(1 1) rotate(0) translate(4 1855)">
<title>MoneyFlow</title>
<polygon fill="#ffffff" stroke="transparent" points="-4,4 -4,-1855 1077,-1855 1077,4 -4,4"/>
<!-- 収入 -->
<g id="node1" class="node">
<title>収入</title>
<text text-anchor="middle" x="27" y="-14.3" font-family="Times,serif" font-size="14.00" fill="#000000">収入</text>
</g>
<!-- 銀行口座 -->
<g id="node2" class="node">
<title>銀行口座</title>
<text text-anchor="middle" x="142" y="-14.3" font-family="Times,serif" font-size="14.00" fill="#000000">銀行口座</text>
</g>
<!-- 収入&#45;&gt;銀行口座 -->
<g id="edge1" class="edge">
<title>収入&#45;&gt;銀行口座</title>
<path fill="none" stroke="#000000" d="M54.2534,-18C69.3972,-18 88.4539,-18 104.9357,-18"/>
</g>
<!-- クレジットカード -->
<g id="node3" class="node">
<title>クレジットカード</title>
<text text-anchor="middle" x="322" y="-14.3" font-family="Times,serif" font-size="14.00" fill="#000000">クレジットカード</text>
</g>
<!-- 銀行口座&#45;&gt;クレジットカード -->
<g id="edge2" class="edge">
<title>銀行口座&#45;&gt;クレジットカード</title>
<path fill="none" stroke="#000000" d="M179.2961,-18C201.6417,-18 230.6798,-18 256.7236,-18"/>
</g>
<!-- マネー -->
<g id="node4" class="node">
<title>マネー</title>
<text text-anchor="middle" x="485" y="-14.3" font-family="Times,serif" font-size="14.00" fill="#000000">マネー</text>
</g>
<!-- クレジットカード&#45;&gt;マネー -->
<g id="edge3" class="edge">
<title>クレジットカード&#45;&gt;マネー</title>
<path fill="none" stroke="#000000" d="M387.3591,-18C410.9188,-18 436.353,-18 455.3549,-18"/>
</g>
<!-- ポイント -->
<g id="node5" class="node">
<title>ポイント</title>
<text text-anchor="middle" x="686" y="-14.3" font-family="Times,serif" font-size="14.00" fill="#000000">ポイント</text>
</g>
<!-- マネー&#45;&gt;ポイント -->
<g id="edge4" class="edge">
<title>マネー&#45;&gt;ポイント</title>
<path fill="none" stroke="#000000" d="M514.6582,-18C550.2582,-18 609.9876,-18 648.6865,-18"/>
</g>
<!-- 金券 -->
<g id="node6" class="node">
<title>金券</title>
<text text-anchor="middle" x="861" y="-14.3" font-family="Times,serif" font-size="14.00" fill="#000000">金券</text>
</g>
<!-- ポイント&#45;&gt;金券 -->
<g id="edge5" class="edge">
<title>ポイント&#45;&gt;金券</title>
<path fill="none" stroke="#000000" d="M723.113,-18C756.3227,-18 804.2221,-18 833.9381,-18"/>
</g>
<!-- 支出 -->
<g id="node7" class="node">
<title>支出</title>
<text text-anchor="middle" x="1007.5" y="-14.3" font-family="Times,serif" font-size="14.00" fill="#000000">支出</text>
</g>
<!-- 金券&#45;&gt;支出 -->
<g id="edge6" class="edge">
<title>金券&#45;&gt;支出</title>
<path fill="none" stroke="#000000" d="M888.2122,-18C914.5259,-18 954.1692,-18 980.4335,-18"/>
</g>
<!-- 給与 -->
<g id="node8" class="node">
<title>給与</title>
<polygon fill="none" stroke="#000000" points="54,-1623 0,-1623 0,-1587 54,-1587 54,-1623"/>
<text text-anchor="middle" x="27" y="-1601.3" font-family="Times,serif" font-size="14.00" fill="#000000">給与</text>
</g>
<!-- 三井住友銀行 -->
<g id="node9" class="node">
<title>三井住友銀行</title>
<polygon fill="none" stroke="#000000" points="193,-1623 91,-1623 91,-1587 193,-1587 193,-1623"/>
<text text-anchor="middle" x="142" y="-1601.3" font-family="Times,serif" font-size="14.00" fill="#000000">三井住友銀行</text>
</g>
<!-- 給与&#45;&gt;三井住友銀行 -->
<g id="edge7" class="edge">
<title>給与&#45;&gt;三井住友銀行</title>
<path fill="none" stroke="#000000" stroke-width="2" d="M54.2534,-1605C62.2529,-1605 71.3442,-1605 80.571,-1605"/>
<polygon fill="#000000" stroke="#000000" stroke-width="2" points="80.5912,-1608.5001 90.5911,-1605 80.5911,-1601.5001 80.5912,-1608.5001"/>
</g>
<!-- 住信SBI銀行 -->
<g id="node10" class="node">
<title>住信SBI銀行</title>
<polygon fill="none" stroke="#000000" points="192,-1367 92,-1367 92,-1331 192,-1331 192,-1367"/>
<text text-anchor="middle" x="142" y="-1345.3" font-family="Times,serif" font-size="14.00" fill="#000000">住信SBI銀行</text>
</g>
<!-- 三井住友銀行&#45;&gt;住信SBI銀行 -->
<g id="edge9" class="edge">
<title>三井住友銀行&#45;&gt;住信SBI銀行</title>
<path fill="none" stroke="#000000" stroke-width="2" d="M142,-1586.8711C142,-1517.0162 142,-1447.1613 142,-1377.3065"/>
<polygon fill="#000000" stroke="#000000" stroke-width="2" points="145.5001,-1377 142,-1367 138.5001,-1377 145.5001,-1377"/>
</g>
<!-- 現金 -->
<g id="node14" class="node">
<title>現金</title>
<polygon fill="none" stroke="#000000" points="512,-1623 458,-1623 458,-1587 512,-1587 512,-1623"/>
<text text-anchor="middle" x="485" y="-1601.3" font-family="Times,serif" font-size="14.00" fill="#000000">現金</text>
</g>
<!-- 三井住友銀行&#45;&gt;現金 -->
<g id="edge8" class="edge">
<title>三井住友銀行&#45;&gt;現金</title>
<path fill="none" stroke="#000000" stroke-width="2" d="M193.3506,-1605C263.1334,-1605 386.2513,-1605 447.795,-1605"/>
<polygon fill="#000000" stroke="#000000" stroke-width="2" points="447.8357,-1608.5001 457.8357,-1605 447.8357,-1601.5001 447.8357,-1608.5001"/>
</g>
<!-- 関西電力 -->
<g id="node37" class="node">
<title>関西電力</title>
<polygon fill="none" stroke="#000000" points="1044.5,-1851 970.5,-1851 970.5,-1815 1044.5,-1815 1044.5,-1851"/>
<text text-anchor="middle" x="1007.5" y="-1829.3" font-family="Times,serif" font-size="14.00" fill="#000000">関西電力</text>
</g>
<!-- 三井住友銀行&#45;&gt;関西電力 -->
<g id="edge10" class="edge">
<title>三井住友銀行&#45;&gt;関西電力</title>
<path fill="none" stroke="#000000" stroke-width="2" d="M146.7569,-1623.2728C162.0568,-1677.3763 215.336,-1833 322,-1833 322,-1833 322,-1833 861,-1833 894.1854,-1833 931.5993,-1833 960.3109,-1833"/>
<polygon fill="#000000" stroke="#000000" stroke-width="2" points="960.4712,-1836.5001 970.4712,-1833 960.4711,-1829.5001 960.4712,-1836.5001"/>
</g>
<!-- ビックカメラSuicaカード -->
<g id="node11" class="node">
<title>ビックカメラSuicaカード</title>
<polygon fill="none" stroke="#000000" points="414,-1367 230,-1367 230,-1331 414,-1331 414,-1367"/>
<text text-anchor="middle" x="322" y="-1345.3" font-family="Times,serif" font-size="14.00" fill="#000000">ビックカメラSuicaカード</text>
</g>
<!-- 住信SBI銀行&#45;&gt;ビックカメラSuicaカード -->
<g id="edge26" class="edge">
<title>住信SBI銀行&#45;&gt;ビックカメラSuicaカード</title>
<path fill="none" stroke="#000000" stroke-width="2" d="M192.14,-1349C200.7724,-1349 210.018,-1349 219.4511,-1349"/>
<polygon fill="#000000" stroke="#000000" stroke-width="2" points="219.7405,-1352.5001 229.7405,-1349 219.7404,-1345.5001 219.7405,-1352.5001"/>
</g>
<!-- リクルートカード -->
<g id="node12" class="node">
<title>リクルートカード</title>
<polygon fill="none" stroke="#000000" points="386.5,-398 257.5,-398 257.5,-362 386.5,-362 386.5,-398"/>
<text text-anchor="middle" x="322" y="-376.3" font-family="Times,serif" font-size="14.00" fill="#000000">リクルートカード</text>
</g>
<!-- 住信SBI銀行&#45;&gt;リクルートカード -->
<g id="edge27" class="edge">
<title>住信SBI銀行&#45;&gt;リクルートカード</title>
<path fill="none" stroke="#000000" stroke-width="2" d="M145.356,-1330.9334C167.2592,-1213.0213 289.7938,-553.3767 316.7534,-408.244"/>
<polygon fill="#000000" stroke="#000000" stroke-width="2" points="320.2095,-408.8024 318.5948,-398.3314 313.3272,-407.5239 320.2095,-408.8024"/>
</g>
<!-- 住信SBI銀行&#45;&gt;現金 -->
<g id="edge24" class="edge">
<title>住信SBI銀行&#45;&gt;現金</title>
<path fill="none" stroke="#000000" stroke-width="2" d="M166.1191,-1367.0014C226.3675,-1411.9682 383.5224,-1529.2616 452.144,-1580.4777"/>
<polygon fill="#000000" stroke="#000000" stroke-width="2" points="450.341,-1583.4994 460.4485,-1586.6758 454.5279,-1577.8896 450.341,-1583.4994"/>
</g>
<!-- 家賃 -->
<g id="node28" class="node">
<title>家賃</title>
<polygon fill="none" stroke="#000000" points="1034.5,-1214 980.5,-1214 980.5,-1178 1034.5,-1178 1034.5,-1214"/>
<text text-anchor="middle" x="1007.5" y="-1192.3" font-family="Times,serif" font-size="14.00" fill="#000000">家賃</text>
</g>
<!-- 住信SBI銀行&#45;&gt;家賃 -->
<g id="edge25" class="edge">
<title>住信SBI銀行&#45;&gt;家賃</title>
<path fill="none" stroke="#000000" stroke-width="2" d="M151.9398,-1330.8481C175.6129,-1290.32 239.5623,-1196 322,-1196 322,-1196 322,-1196 861,-1196 898.1496,-1196 940.5981,-1196 970.2055,-1196"/>
<polygon fill="#000000" stroke="#000000" stroke-width="2" points="970.4989,-1199.5001 980.4988,-1196 970.4988,-1192.5001 970.4989,-1199.5001"/>
</g>
<!-- Suica -->
<g id="node13" class="node">
<title>Suica</title>
<polygon fill="none" stroke="#000000" points="513,-1367 457,-1367 457,-1331 513,-1331 513,-1367"/>
<text text-anchor="middle" x="485" y="-1345.3" font-family="Times,serif" font-size="14.00" fill="#000000">Suica</text>
</g>
<!-- ビックカメラSuicaカード&#45;&gt;Suica -->
<g id="edge18" class="edge">
<title>ビックカメラSuicaカード&#45;&gt;Suica</title>
<path fill="none" stroke="#000000" stroke-width="2" d="M414.4538,-1349C425.7462,-1349 436.7529,-1349 446.5853,-1349"/>
<polygon fill="#000000" stroke="#000000" stroke-width="2" points="446.7516,-1352.5001 456.7515,-1349 446.7515,-1345.5001 446.7516,-1352.5001"/>
</g>
<!-- JREポイント -->
<g id="node19" class="node">
<title>JREポイント</title>
<polygon fill="none" stroke="#000000" points="736.5,-1368 635.5,-1368 635.5,-1332 736.5,-1332 736.5,-1368"/>
<text text-anchor="middle" x="686" y="-1346.3" font-family="Times,serif" font-size="14.00" fill="#000000">JREポイント</text>
</g>
<!-- ビックカメラSuicaカード&#45;&gt;JREポイント -->
<g id="edge13" class="edge">
<title>ビックカメラSuicaカード&#45;&gt;JREポイント</title>
<path fill="none" stroke="#000000" d="M353.9017,-1330.8326C401.8039,-1305.8852 495.1127,-1266.3354 574,-1287 603.0211,-1294.6021 632.4569,-1311.6008 653.8642,-1326.0268"/>
<polygon fill="#000000" stroke="#000000" points="652.017,-1329.0047 662.2333,-1331.8117 655.9973,-1323.2465 652.017,-1329.0047"/>
<text text-anchor="middle" x="485" y="-1295.8" font-family="Times,serif" font-size="14.00" fill="#000000">0.5%</text>
</g>
<!-- ビックポイント -->
<g id="node20" class="node">
<title>ビックポイント</title>
<polygon fill="none" stroke="#000000" points="744,-1422 628,-1422 628,-1386 744,-1386 744,-1422"/>
<text text-anchor="middle" x="686" y="-1400.3" font-family="Times,serif" font-size="14.00" fill="#000000">ビックポイント</text>
</g>
<!-- ビックカメラSuicaカード&#45;&gt;ビックポイント -->
<g id="edge16" class="edge">
<title>ビックカメラSuicaカード&#45;&gt;ビックポイント</title>
<path fill="none" stroke="#000000" d="M402.6526,-1367.0152C418.627,-1370.2624 435.307,-1373.4279 451,-1376 506.9062,-1385.1631 570.7621,-1392.5783 617.786,-1397.4703"/>
<polygon fill="#000000" stroke="#000000" points="617.5499,-1400.9643 627.8555,-1398.506 618.2662,-1394.0011 617.5499,-1400.9643"/>
<text text-anchor="middle" x="485" y="-1389.8" font-family="Times,serif" font-size="14.00" fill="#000000">0.5%</text>
</g>
<!-- ビックカメラ -->
<g id="node40" class="node">
<title>ビックカメラ</title>
<polygon fill="none" stroke="#000000" points="1058,-1500 957,-1500 957,-1464 1058,-1464 1058,-1500"/>
<text text-anchor="middle" x="1007.5" y="-1478.3" font-family="Times,serif" font-size="14.00" fill="#000000">ビックカメラ</text>
</g>
<!-- ビックカメラSuicaカード&#45;&gt;ビックカメラ -->
<g id="edge14" class="edge">
<title>ビックカメラSuicaカード&#45;&gt;ビックカメラ</title>
<path fill="none" stroke="#000000" stroke-width="2" stroke-dasharray="5,2" d="M351.1301,-1367.0453C369.715,-1379.013 393.9835,-1395.5008 414,-1412 448.194,-1440.1855 440.6869,-1482 485,-1482 485,-1482 485,-1482 861,-1482 889.1791,-1482 920.4071,-1482 946.7669,-1482"/>
<polygon fill="#000000" stroke="#000000" stroke-width="2" points="946.9884,-1485.5001 956.9883,-1482 946.9883,-1478.5001 946.9884,-1485.5001"/>
</g>
<!-- EX予約 -->
<g id="node50" class="node">
<title>EX予約</title>
<polygon fill="none" stroke="#000000" points="1040.5,-1268 974.5,-1268 974.5,-1232 1040.5,-1232 1040.5,-1268"/>
<text text-anchor="middle" x="1007.5" y="-1246.3" font-family="Times,serif" font-size="14.00" fill="#000000">EX予約</text>
</g>
<!-- ビックカメラSuicaカード&#45;&gt;EX予約 -->
<g id="edge21" class="edge">
<title>ビックカメラSuicaカード&#45;&gt;EX予約</title>
<path fill="none" stroke="#000000" stroke-width="2" stroke-dasharray="5,2" d="M337.5735,-1330.9432C364.467,-1301.892 422.7462,-1248 485,-1248 485,-1248 485,-1248 861,-1248 895.6611,-1248 934.9307,-1248.5667 964.0822,-1249.0967"/>
<polygon fill="#000000" stroke="#000000" stroke-width="2" points="964.2732,-1252.6008 974.3371,-1249.2892 964.4046,-1245.6021 964.2732,-1252.6008"/>
</g>
<!-- nanaco -->
<g id="node15" class="node">
<title>nanaco</title>
<polygon fill="none" stroke="#000000" points="519,-126 451,-126 451,-90 519,-90 519,-126"/>
<text text-anchor="middle" x="485" y="-104.3" font-family="Times,serif" font-size="14.00" fill="#000000">nanaco</text>
</g>
<!-- リクルートカード&#45;&gt;nanaco -->
<g id="edge51" class="edge">
<title>リクルートカード&#45;&gt;nanaco</title>
<path fill="none" stroke="#000000" stroke-width="2" d="M327.5629,-361.7316C340.7081,-320.6562 376.7925,-219.2008 432,-150 436.9936,-143.7407 443.0883,-137.8354 449.343,-132.5399"/>
<polygon fill="#000000" stroke="#000000" stroke-width="2" points="451.6667,-135.1629 457.2803,-126.1775 447.2885,-129.7011 451.6667,-135.1629"/>
</g>
<!-- Edy -->
<g id="node16" class="node">
<title>Edy</title>
<polygon fill="none" stroke="#000000" points="512,-690 458,-690 458,-654 512,-654 512,-690"/>
<text text-anchor="middle" x="485" y="-668.3" font-family="Times,serif" font-size="14.00" fill="#000000">Edy</text>
</g>
<!-- リクルートカード&#45;&gt;Edy -->
<g id="edge35" class="edge">
<title>リクルートカード&#45;&gt;Edy</title>
<path fill="none" stroke="#000000" stroke-width="2" d="M332.1964,-398.2659C359.9253,-447.9398 436.8253,-585.6992 469.7361,-644.6561"/>
<polygon fill="#000000" stroke="#000000" stroke-width="2" points="466.8771,-646.7153 474.8075,-653.741 472.9893,-643.3033 466.8771,-646.7153"/>
</g>
<!-- Ponta -->
<g id="node17" class="node">
<title>Ponta</title>
<polygon fill="none" stroke="#000000" points="714.5,-530 657.5,-530 657.5,-494 714.5,-494 714.5,-530"/>
<text text-anchor="middle" x="686" y="-508.3" font-family="Times,serif" font-size="14.00" fill="#000000">Ponta</text>
</g>
<!-- リクルートカード&#45;&gt;Ponta -->
<g id="edge46" class="edge">
<title>リクルートカード&#45;&gt;Ponta</title>
<path fill="none" stroke="#000000" d="M371.8494,-398.0773C445.3741,-424.7401 581.3278,-474.0419 647.6302,-498.0857"/>
<polygon fill="#000000" stroke="#000000" points="646.6783,-501.4635 657.2725,-501.5823 649.0648,-494.8828 646.6783,-501.4635"/>
<text text-anchor="middle" x="485" y="-454.8" font-family="Times,serif" font-size="14.00" fill="#000000">1.2%</text>
</g>
<!-- NHK -->
<g id="node34" class="node">
<title>NHK</title>
<polygon fill="none" stroke="#000000" points="1034.5,-576 980.5,-576 980.5,-540 1034.5,-540 1034.5,-576"/>
<text text-anchor="middle" x="1007.5" y="-554.3" font-family="Times,serif" font-size="14.00" fill="#000000">NHK</text>
</g>
<!-- リクルートカード&#45;&gt;NHK -->
<g id="edge28" class="edge">
<title>リクルートカード&#45;&gt;NHK</title>
<path fill="none" stroke="#000000" stroke-width="2" d="M342.8482,-398.0281C385.838,-433.8164 488.9665,-512.6475 592,-539 727.6928,-573.7057 896.2848,-566.7281 970.0289,-561.3079"/>
<polygon fill="#000000" stroke="#000000" stroke-width="2" points="970.5039,-564.7818 980.2058,-560.5247 969.9666,-557.8025 970.5039,-564.7818"/>
</g>
<!-- NTT -->
<g id="node35" class="node">
<title>NTT</title>
<polygon fill="none" stroke="#000000" points="1034.5,-360 980.5,-360 980.5,-324 1034.5,-324 1034.5,-360"/>
<text text-anchor="middle" x="1007.5" y="-338.3" font-family="Times,serif" font-size="14.00" fill="#000000">NTT</text>
</g>
<!-- リクルートカード&#45;&gt;NTT -->
<g id="edge29" class="edge">
<title>リクルートカード&#45;&gt;NTT</title>
<path fill="none" stroke="#000000" stroke-width="2" d="M372.6839,-361.8903C404.5061,-352.103 446.6442,-342 485,-342 485,-342 485,-342 861,-342 898.1496,-342 940.5981,-342 970.2055,-342"/>
<polygon fill="#000000" stroke="#000000" stroke-width="2" points="970.4989,-345.5001 980.4988,-342 970.4988,-338.5001 970.4989,-345.5001"/>
</g>
<!-- ASAHIネット -->
<g id="node36" class="node">
<title>ASAHIネット</title>
<polygon fill="none" stroke="#000000" points="1062,-228 953,-228 953,-192 1062,-192 1062,-228"/>
<text text-anchor="middle" x="1007.5" y="-206.3" font-family="Times,serif" font-size="14.00" fill="#000000">ASAHIネット</text>
</g>
<!-- リクルートカード&#45;&gt;ASAHIネット -->
<g id="edge30" class="edge">
<title>リクルートカード&#45;&gt;ASAHIネット</title>
<path fill="none" stroke="#000000" stroke-width="2" d="M329.1191,-361.807C347.6069,-317.9517 401.5872,-210 485,-210 485,-210 485,-210 861,-210 887.7132,-210 917.1663,-210 942.6146,-210"/>
<polygon fill="#000000" stroke="#000000" stroke-width="2" points="942.8876,-213.5001 952.8876,-210 942.8876,-206.5001 942.8876,-213.5001"/>
</g>
<!-- アイハート -->
<g id="node38" class="node">
<title>アイハート</title>
<polygon fill="none" stroke="#000000" points="1050.5,-174 964.5,-174 964.5,-138 1050.5,-138 1050.5,-174"/>
<text text-anchor="middle" x="1007.5" y="-152.3" font-family="Times,serif" font-size="14.00" fill="#000000">アイハート</text>
</g>
<!-- リクルートカード&#45;&gt;アイハート -->
<g id="edge34" class="edge">
<title>リクルートカード&#45;&gt;アイハート</title>
<path fill="none" stroke="#000000" stroke-width="2" d="M326.2451,-361.9555C339.6395,-310.0421 386.1084,-164 485,-164 485,-164 485,-164 861,-164 891.8305,-164 926.2563,-162.2117 953.9859,-160.3261"/>
<polygon fill="#000000" stroke="#000000" stroke-width="2" points="954.5348,-163.7962 964.2642,-159.6021 954.043,-156.8135 954.5348,-163.7962"/>
</g>
<!-- Amazon -->
<g id="node48" class="node">
<title>Amazon</title>
<polygon fill="none" stroke="#000000" points="1044.5,-282 970.5,-282 970.5,-246 1044.5,-246 1044.5,-282"/>
<text text-anchor="middle" x="1007.5" y="-260.3" font-family="Times,serif" font-size="14.00" fill="#000000">Amazon</text>
</g>
<!-- リクルートカード&#45;&gt;Amazon -->
<g id="edge32" class="edge">
<title>リクルートカード&#45;&gt;Amazon</title>
<path fill="none" stroke="#000000" stroke-width="2" d="M332.7267,-361.9227C355.703,-325.7713 413.4463,-248 485,-248 485,-248 485,-248 861,-248 894.2688,-248 931.5375,-252.128 960.1595,-256.1904"/>
<polygon fill="#000000" stroke="#000000" stroke-width="2" points="959.8876,-259.6879 970.2897,-257.6764 960.9036,-252.762 959.8876,-259.6879"/>
</g>
<!-- iTunes -->
<g id="node49" class="node">
<title>iTunes</title>
<polygon fill="none" stroke="#000000" points="1040,-1160 975,-1160 975,-1124 1040,-1124 1040,-1160"/>
<text text-anchor="middle" x="1007.5" y="-1138.3" font-family="Times,serif" font-size="14.00" fill="#000000">iTunes</text>
</g>
<!-- リクルートカード&#45;&gt;iTunes -->
<g id="edge31" class="edge">
<title>リクルートカード&#45;&gt;iTunes</title>
<path fill="none" stroke="#000000" stroke-width="2" stroke-dasharray="5,2" d="M323.8806,-398.0845C336.1155,-513.4773 406.3659,-1142 485,-1142 485,-1142 485,-1142 861,-1142 895.8844,-1142 935.4412,-1142 964.6504,-1142"/>
<polygon fill="#000000" stroke="#000000" stroke-width="2" points="964.9157,-1145.5001 974.9156,-1142 964.9156,-1138.5001 964.9157,-1145.5001"/>
</g>
<!-- じゃらん -->
<g id="node51" class="node">
<title>じゃらん</title>
<polygon fill="none" stroke="#000000" points="1044.5,-414 970.5,-414 970.5,-378 1044.5,-378 1044.5,-414"/>
<text text-anchor="middle" x="1007.5" y="-392.3" font-family="Times,serif" font-size="14.00" fill="#000000">じゃらん</text>
</g>
<!-- リクルートカード&#45;&gt;じゃらん -->
<g id="edge33" class="edge">
<title>リクルートカード&#45;&gt;じゃらん</title>
<path fill="none" stroke="#000000" stroke-width="2" d="M386.6479,-380C416.5731,-380 452.5981,-380 485,-380 485,-380 485,-380 861,-380 894.2688,-380 931.5375,-384.128 960.1595,-388.1904"/>
<polygon fill="#000000" stroke="#000000" stroke-width="2" points="959.8876,-391.6879 970.2897,-389.6764 960.9036,-384.762 959.8876,-391.6879"/>
</g>
<!-- Suica&#45;&gt;JREポイント -->
<g id="edge22" class="edge">
<title>Suica&#45;&gt;JREポイント</title>
<path fill="none" stroke="#000000" d="M513.0154,-1352.83C520.7689,-1353.727 529.1975,-1354.5513 537,-1355 565.9846,-1356.6667 598.1754,-1355.9128 625.1979,-1354.5397"/>
<polygon fill="#000000" stroke="#000000" points="625.4907,-1358.029 635.2841,-1353.9869 625.1075,-1351.0395 625.4907,-1358.029"/>
<text text-anchor="middle" x="555.5" y="-1359.8" font-family="Times,serif" font-size="14.00" fill="#000000">1.5%</text>
</g>
<!-- 電車 -->
<g id="node32" class="node">
<title>電車</title>
<polygon fill="none" stroke="#000000" points="1034.5,-1616 980.5,-1616 980.5,-1580 1034.5,-1580 1034.5,-1616"/>
<text text-anchor="middle" x="1007.5" y="-1594.3" font-family="Times,serif" font-size="14.00" fill="#000000">電車</text>
</g>
<!-- Suica&#45;&gt;電車 -->
<g id="edge19" class="edge">
<title>Suica&#45;&gt;電車</title>
<path fill="none" stroke="#000000" stroke-width="2" d="M512.2399,-1367.1249C514.5439,-1368.749 516.8234,-1370.3887 519,-1372 552.5289,-1396.8205 556.0269,-1409.8769 592,-1431 722.9395,-1507.8866 895.9354,-1564.6608 970.5969,-1587.2574"/>
<polygon fill="#000000" stroke="#000000" stroke-width="2" points="969.8807,-1590.6966 980.4647,-1590.2176 971.8921,-1583.9918 969.8807,-1590.6966"/>
</g>
<!-- 松屋 -->
<g id="node46" class="node">
<title>松屋</title>
<polygon fill="none" stroke="#000000" points="1034.5,-1322 980.5,-1322 980.5,-1286 1034.5,-1286 1034.5,-1322"/>
<text text-anchor="middle" x="1007.5" y="-1300.3" font-family="Times,serif" font-size="14.00" fill="#000000">松屋</text>
</g>
<!-- Suica&#45;&gt;松屋 -->
<g id="edge20" class="edge">
<title>Suica&#45;&gt;松屋</title>
<path fill="none" stroke="#000000" stroke-width="2" d="M513.3205,-1340.5366C534.7225,-1334.529 564.9381,-1326.8698 592,-1323 730.3097,-1303.2222 896.8974,-1302.4871 970.0114,-1303.3075"/>
<polygon fill="#000000" stroke="#000000" stroke-width="2" points="970.0617,-1306.8083 980.106,-1303.4377 970.152,-1299.8089 970.0617,-1306.8083"/>
</g>
<!-- 切符 -->
<g id="node26" class="node">
<title>切符</title>
<polygon fill="none" stroke="#000000" points="888,-1623 834,-1623 834,-1587 888,-1587 888,-1623"/>
<text text-anchor="middle" x="861" y="-1601.3" font-family="Times,serif" font-size="14.00" fill="#000000">切符</text>
</g>
<!-- 現金&#45;&gt;切符 -->
<g id="edge63" class="edge">
<title>現金&#45;&gt;切符</title>
<path fill="none" stroke="#000000" stroke-width="2" d="M512.041,-1601.2971C578.219,-1597.417 748.4133,-1597.2425 823.9433,-1600.7738"/>
<polygon fill="#000000" stroke="#000000" stroke-width="2" points="823.7829,-1604.2701 833.9519,-1601.2966 824.1482,-1597.2796 823.7829,-1604.2701"/>
</g>
<!-- 回数カード -->
<g id="node27" class="node">
<title>回数カード</title>
<polygon fill="none" stroke="#000000" points="905,-1724 817,-1724 817,-1688 905,-1688 905,-1724"/>
<text text-anchor="middle" x="861" y="-1702.3" font-family="Times,serif" font-size="14.00" fill="#000000">回数カード</text>
</g>
<!-- 現金&#45;&gt;回数カード -->
<g id="edge66" class="edge">
<title>現金&#45;&gt;回数カード</title>
<path fill="none" stroke="#000000" stroke-width="2" d="M495.2731,-1623.197C504.3189,-1637.3747 518.8653,-1656.2372 537,-1666 622.6223,-1712.0949 739.007,-1714.3709 806.4613,-1710.8585"/>
<polygon fill="#000000" stroke="#000000" stroke-width="2" points="807.0763,-1714.3286 816.855,-1710.2509 806.6678,-1707.3406 807.0763,-1714.3286"/>
</g>
<!-- 飲食店 -->
<g id="node43" class="node">
<title>飲食店</title>
<polygon fill="none" stroke="#000000" points="1037,-1670 978,-1670 978,-1634 1037,-1634 1037,-1670"/>
<text text-anchor="middle" x="1007.5" y="-1648.3" font-family="Times,serif" font-size="14.00" fill="#000000">飲食店</text>
</g>
<!-- 現金&#45;&gt;飲食店 -->
<g id="edge60" class="edge">
<title>現金&#45;&gt;飲食店</title>
<path fill="none" stroke="#000000" stroke-width="2" d="M512.1419,-1619.2362C519.9635,-1622.7177 528.6453,-1626.0112 537,-1628 692.8814,-1665.1078 885.7284,-1659.4755 967.6693,-1654.7871"/>
<polygon fill="#000000" stroke="#000000" stroke-width="2" points="968.0203,-1658.2724 977.7927,-1654.1797 967.601,-1651.285 968.0203,-1658.2724"/>
</g>
<!-- 吉野家 -->
<g id="node47" class="node">
<title>吉野家</title>
<polygon fill="none" stroke="#000000" points="1037,-1562 978,-1562 978,-1526 1037,-1526 1037,-1562"/>
<text text-anchor="middle" x="1007.5" y="-1540.3" font-family="Times,serif" font-size="14.00" fill="#000000">吉野家</text>
</g>
<!-- 現金&#45;&gt;吉野家 -->
<g id="edge61" class="edge">
<title>現金&#45;&gt;吉野家</title>
<path fill="none" stroke="#000000" stroke-width="2" d="M512.3562,-1601.8063C598.7491,-1591.7202 866.0372,-1560.5153 967.6993,-1548.6466"/>
<polygon fill="#000000" stroke="#000000" stroke-width="2" points="968.3282,-1552.097 977.8549,-1547.461 967.5164,-1545.1442 968.3282,-1552.097"/>
</g>
<!-- nanacoポイント -->
<g id="node22" class="node">
<title>nanacoポイント</title>
<polygon fill="none" stroke="#000000" points="748.5,-136 623.5,-136 623.5,-100 748.5,-100 748.5,-136"/>
<text text-anchor="middle" x="686" y="-114.3" font-family="Times,serif" font-size="14.00" fill="#000000">nanacoポイント</text>
</g>
<!-- nanaco&#45;&gt;nanacoポイント -->
<g id="edge53" class="edge">
<title>nanaco&#45;&gt;nanacoポイント</title>
<path fill="none" stroke="#000000" d="M519.0969,-109.6964C544.7678,-110.9735 580.901,-112.7712 612.9856,-114.3674"/>
<polygon fill="#000000" stroke="#000000" points="613.0804,-117.8764 623.242,-114.8777 613.4283,-110.885 613.0804,-117.8764"/>
<text text-anchor="middle" x="555.5" y="-116.8" font-family="Times,serif" font-size="14.00" fill="#000000">1%</text>
</g>
<!-- セブンイレブン -->
<g id="node30" class="node">
<title>セブンイレブン</title>
<polygon fill="none" stroke="#000000" points="1064.5,-90 950.5,-90 950.5,-54 1064.5,-54 1064.5,-90"/>
<text text-anchor="middle" x="1007.5" y="-68.3" font-family="Times,serif" font-size="14.00" fill="#000000">セブンイレブン</text>
</g>
<!-- nanaco&#45;&gt;セブンイレブン -->
<g id="edge52" class="edge">
<title>nanaco&#45;&gt;セブンイレブン</title>
<path fill="none" stroke="#000000" stroke-width="2" d="M519.0863,-101.5868C540.0428,-97.8928 567.4868,-93.4999 592,-91 714.2828,-78.5296 857.6496,-74.2426 939.9983,-72.7697"/>
<polygon fill="#000000" stroke="#000000" stroke-width="2" points="940.2842,-76.2655 950.2232,-72.5958 940.1651,-69.2665 940.2842,-76.2655"/>
</g>
<!-- Edy&#45;&gt;Ponta -->
<g id="edge45" class="edge">
<title>Edy&#45;&gt;Ponta</title>
<path fill="none" stroke="#000000" d="M490.4659,-653.7154C497.8031,-632.0276 512.7902,-596.0453 537,-574 568.3111,-545.4883 614.5874,-529.0317 647.2437,-520.334"/>
<polygon fill="#000000" stroke="#000000" points="648.498,-523.6268 657.3316,-517.7772 646.7782,-516.8414 648.498,-523.6268"/>
<text text-anchor="middle" x="555.5" y="-577.8" font-family="Times,serif" font-size="14.00" fill="#000000">0.5%</text>
</g>
<!-- ローソン -->
<g id="node29" class="node">
<title>ローソン</title>
<polygon fill="none" stroke="#000000" points="1044,-522 971,-522 971,-486 1044,-486 1044,-522"/>
<text text-anchor="middle" x="1007.5" y="-500.3" font-family="Times,serif" font-size="14.00" fill="#000000">ローソン</text>
</g>
<!-- Edy&#45;&gt;ローソン -->
<g id="edge36" class="edge">
<title>Edy&#45;&gt;ローソン</title>
<path fill="none" stroke="#000000" stroke-width="2" d="M512.321,-663.3693C566.8582,-646.1254 693.0884,-606.1354 799,-572 854.8593,-553.9965 919.0419,-533.0203 961.2728,-519.1783"/>
<polygon fill="#000000" stroke="#000000" stroke-width="2" points="962.579,-522.4334 970.9908,-515.992 960.3981,-515.7819 962.579,-522.4334"/>
</g>
<!-- ファミリーマート -->
<g id="node31" class="node">
<title>ファミリーマート</title>
<polygon fill="none" stroke="#000000" points="1073,-871 942,-871 942,-835 1073,-835 1073,-871"/>
<text text-anchor="middle" x="1007.5" y="-849.3" font-family="Times,serif" font-size="14.00" fill="#000000">ファミリーマート</text>
</g>
<!-- Edy&#45;&gt;ファミリーマート -->
<g id="edge38" class="edge">
<title>Edy&#45;&gt;ファミリーマート</title>
<path fill="none" stroke="#000000" stroke-width="2" d="M493.5862,-690.4745C508.6007,-720.1828 542.7845,-777.3322 592,-798 651.6517,-823.0504 828.9204,-839.8377 931.6192,-847.7542"/>
<polygon fill="#000000" stroke="#000000" stroke-width="2" points="931.3867,-851.2465 941.6235,-848.5155 931.9179,-844.2667 931.3867,-851.2465"/>
</g>
<!-- ウェルシア -->
<g id="node39" class="node">
<title>ウェルシア</title>
<polygon fill="none" stroke="#000000" points="1051,-817 964,-817 964,-781 1051,-781 1051,-817"/>
<text text-anchor="middle" x="1007.5" y="-795.3" font-family="Times,serif" font-size="14.00" fill="#000000">ウェルシア</text>
</g>
<!-- Edy&#45;&gt;ウェルシア -->
<g id="edge43" class="edge">
<title>Edy&#45;&gt;ウェルシア</title>
<path fill="none" stroke="#000000" stroke-width="2" d="M499.8287,-690.12C518.7057,-711.7263 553.5205,-746.9305 592,-763 713.5788,-813.7727 872.2504,-810.555 953.8552,-804.4477"/>
<polygon fill="#000000" stroke="#000000" stroke-width="2" points="954.2018,-807.9313 963.894,-803.6522 953.6487,-800.9532 954.2018,-807.9313"/>
</g>
<!-- ヨドバシカメラ -->
<g id="node41" class="node">
<title>ヨドバシカメラ</title>
<polygon fill="none" stroke="#000000" points="1065.5,-995 949.5,-995 949.5,-959 1065.5,-959 1065.5,-995"/>
<text text-anchor="middle" x="1007.5" y="-973.3" font-family="Times,serif" font-size="14.00" fill="#000000">ヨドバシカメラ</text>
</g>
<!-- Edy&#45;&gt;ヨドバシカメラ -->
<g id="edge40" class="edge">
<title>Edy&#45;&gt;ヨドバシカメラ</title>
<path fill="none" stroke="#000000" stroke-width="2" d="M489.0849,-690.2764C502.3867,-748.0196 546.2466,-924.6934 592,-958 645.5328,-996.9697 835.6003,-989.856 939.1082,-982.6861"/>
<polygon fill="#000000" stroke="#000000" stroke-width="2" points="939.4261,-986.1724 949.1524,-981.9713 938.9292,-979.1901 939.4261,-986.1724"/>
</g>
<!-- 餃子の王将 -->
<g id="node42" class="node">
<title>餃子の王将</title>
<polygon fill="none" stroke="#000000" points="1051.5,-1106 963.5,-1106 963.5,-1070 1051.5,-1070 1051.5,-1106"/>
<text text-anchor="middle" x="1007.5" y="-1084.3" font-family="Times,serif" font-size="14.00" fill="#000000">餃子の王将</text>
</g>
<!-- Edy&#45;&gt;餃子の王将 -->
<g id="edge59" class="edge">
<title>Edy&#45;&gt;餃子の王将</title>
<path fill="none" stroke="#000000" stroke-width="2" d="M486.9662,-690.0319C495.1385,-761.227 528.9746,-1021.1768 592,-1068 699.066,-1147.542 867.9045,-1122.7245 953.6612,-1102.7257"/>
<polygon fill="#000000" stroke="#000000" stroke-width="2" points="954.5393,-1106.1144 963.4478,-1100.3796 952.9074,-1099.3073 954.5393,-1106.1144"/>
</g>
<!-- FRESCO -->
<g id="node44" class="node">
<title>FRESCO</title>
<polygon fill="none" stroke="#000000" points="1047.5,-706 967.5,-706 967.5,-670 1047.5,-670 1047.5,-706"/>
<text text-anchor="middle" x="1007.5" y="-684.3" font-family="Times,serif" font-size="14.00" fill="#000000">FRESCO</text>
</g>
<!-- Edy&#45;&gt;FRESCO -->
<g id="edge56" class="edge">
<title>Edy&#45;&gt;FRESCO</title>
<path fill="none" stroke="#000000" stroke-width="2" d="M512.3562,-672.8377C595.9599,-675.3978 848.9671,-683.1454 957.3466,-686.4642"/>
<polygon fill="#000000" stroke="#000000" stroke-width="2" points="957.2705,-689.9634 967.3729,-686.7712 957.4848,-682.9667 957.2705,-689.9634"/>
</g>
<!-- 業務スーパー -->
<g id="node45" class="node">
<title>業務スーパー</title>
<polygon fill="none" stroke="#000000" points="1058,-652 957,-652 957,-616 1058,-616 1058,-652"/>
<text text-anchor="middle" x="1007.5" y="-630.3" font-family="Times,serif" font-size="14.00" fill="#000000">業務スーパー</text>
</g>
<!-- Edy&#45;&gt;業務スーパー -->
<g id="edge55" class="edge">
<title>Edy&#45;&gt;業務スーパー</title>
<path fill="none" stroke="#000000" stroke-width="2" d="M512.3562,-670.0105C593.2953,-664.124 833.0117,-646.6901 946.5533,-638.4325"/>
<polygon fill="#000000" stroke="#000000" stroke-width="2" points="947.0898,-641.9028 956.8096,-637.6866 946.582,-634.9212 947.0898,-641.9028"/>
</g>
<!-- Ponta&#45;&gt;じゃらん -->
<g id="edge47" class="edge">
<title>Ponta&#45;&gt;じゃらん</title>
<path fill="none" stroke="#000000" d="M714.5592,-495.0789C736.9296,-482.0978 769.0109,-464.0768 798,-450 850.5501,-424.4823 916.5757,-410.0389 960.3061,-402.6324"/>
<polygon fill="#000000" stroke="#000000" points="961.0718,-406.0538 970.3752,-400.9847 959.9413,-399.1457 961.0718,-406.0538"/>
</g>
<!-- Tポイント -->
<g id="node18" class="node">
<title>Tポイント</title>
<polygon fill="none" stroke="#000000" points="727.5,-949 644.5,-949 644.5,-913 727.5,-913 727.5,-949"/>
<text text-anchor="middle" x="686" y="-927.3" font-family="Times,serif" font-size="14.00" fill="#000000">Tポイント</text>
</g>
<!-- JREポイント&#45;&gt;Suica -->
<g id="edge23" class="edge">
<title>JREポイント&#45;&gt;Suica</title>
<path fill="none" stroke="#000000" d="M635.2752,-1349.7476C600.5957,-1349.5751 555.338,-1349.3499 523.5872,-1349.192"/>
<polygon fill="#000000" stroke="#000000" points="523.3894,-1345.691 513.3721,-1349.1412 523.3545,-1352.691 523.3894,-1345.691"/>
</g>
<!-- ビックポイント&#45;&gt;ビックカメラ -->
<g id="edge17" class="edge">
<title>ビックポイント&#45;&gt;ビックカメラ</title>
<path fill="none" stroke="#000000" d="M740.6487,-1385.913C786.2088,-1373.9194 851.9925,-1363.8946 905,-1385 940.4772,-1399.1256 970.7491,-1432.006 989.0036,-1455.5685"/>
<polygon fill="#000000" stroke="#000000" points="986.3664,-1457.8851 995.1726,-1463.7758 991.962,-1453.6792 986.3664,-1457.8851"/>
</g>
<!-- Amazonポイント -->
<g id="node21" class="node">
<title>Amazonポイント</title>
<polygon fill="none" stroke="#000000" points="751.5,-313 620.5,-313 620.5,-277 751.5,-277 751.5,-313"/>
<text text-anchor="middle" x="686" y="-291.3" font-family="Times,serif" font-size="14.00" fill="#000000">Amazonポイント</text>
</g>
<!-- Amazonポイント&#45;&gt;Amazon -->
<g id="edge50" class="edge">
<title>Amazonポイント&#45;&gt;Amazon</title>
<path fill="none" stroke="#000000" d="M751.8361,-283.0811C813.7945,-275.3501 905.0617,-266.756 960.1408,-263.6142"/>
<polygon fill="#000000" stroke="#000000" points="960.5204,-267.0992 970.3218,-263.0764 960.151,-260.1089 960.5204,-267.0992"/>
</g>
<!-- nanacoポイント&#45;&gt;nanaco -->
<g id="edge54" class="edge">
<title>nanacoポイント&#45;&gt;nanaco</title>
<path fill="none" stroke="#000000" d="M623.242,-114.8777C592.7412,-113.3603 556.8142,-111.5728 529.2311,-110.2006"/>
<polygon fill="#000000" stroke="#000000" points="529.2585,-106.6977 519.0969,-109.6964 528.9106,-113.689 529.2585,-106.6977"/>
</g>
<!-- FRESCOポイント -->
<g id="node23" class="node">
<title>FRESCOポイント</title>
<polygon fill="none" stroke="#000000" points="754.5,-754 617.5,-754 617.5,-718 754.5,-718 754.5,-754"/>
<text text-anchor="middle" x="686" y="-732.3" font-family="Times,serif" font-size="14.00" fill="#000000">FRESCOポイント</text>
</g>
<!-- FRESCOポイント&#45;&gt;FRESCO -->
<g id="edge58" class="edge">
<title>FRESCOポイント&#45;&gt;FRESCO</title>
<path fill="none" stroke="#000000" d="M754.5755,-725.7617C815.3863,-716.6826 902.7777,-703.6351 957.2883,-695.4966"/>
<polygon fill="#000000" stroke="#000000" points="958.0286,-698.925 967.4021,-693.9866 956.9949,-692.0017 958.0286,-698.925"/>
</g>
<!-- ヨドバシゴールドポイント -->
<g id="node24" class="node">
<title>ヨドバシゴールドポイント</title>
<polygon fill="none" stroke="#000000" points="780,-1059 592,-1059 592,-1023 780,-1023 780,-1059"/>
<text text-anchor="middle" x="686" y="-1037.3" font-family="Times,serif" font-size="14.00" fill="#000000">ヨドバシゴールドポイント</text>
</g>
<!-- ヨドバシゴールドポイント&#45;&gt;ヨドバシカメラ -->
<g id="edge42" class="edge">
<title>ヨドバシゴールドポイント&#45;&gt;ヨドバシカメラ</title>
<path fill="none" stroke="#000000" d="M780.1695,-1047.6559C819.4007,-1047.9582 865.0354,-1045.049 905,-1034 929.8475,-1027.1304 955.1887,-1013.1137 974.4576,-1000.6997"/>
<polygon fill="#000000" stroke="#000000" points="976.4516,-1003.5771 982.86,-995.1401 972.589,-997.7393 976.4516,-1003.5771"/>
</g>
<!-- はぴeポイント -->
<g id="node25" class="node">
<title>はぴeポイント</title>
<polygon fill="none" stroke="#000000" points="741,-1805 631,-1805 631,-1769 741,-1769 741,-1805"/>
<text text-anchor="middle" x="686" y="-1783.3" font-family="Times,serif" font-size="14.00" fill="#000000">はぴeポイント</text>
</g>
<!-- はぴeポイント&#45;&gt;Ponta -->
<g id="edge12" class="edge">
<title>はぴeポイント&#45;&gt;Ponta</title>
<path fill="none" stroke="#000000" d="M630.6252,-1779.5913C615.8937,-1774.898 601.4656,-1767.2933 592,-1755 521.0948,-1662.9128 563.2737,-821.6162 592,-709 608.4923,-644.3448 646.7668,-575.434 669.0575,-538.7085"/>
<polygon fill="#000000" stroke="#000000" points="672.102,-540.4391 674.3573,-530.0871 666.1387,-536.7733 672.102,-540.4391"/>
<text text-anchor="middle" x="555.5" y="-1292.3" font-family="Times,serif" font-size="14.00" fill="#000000">80%</text>
</g>
<!-- 切符&#45;&gt;現金 -->
<g id="edge65" class="edge">
<title>切符&#45;&gt;現金</title>
<path fill="none" stroke="#000000" d="M833.9519,-1608.7034C767.7665,-1612.5832 597.5719,-1612.7574 522.0487,-1609.2258"/>
<polygon fill="#000000" stroke="#000000" points="522.21,-1605.7296 512.041,-1608.7029 521.8447,-1612.7201 522.21,-1605.7296"/>
</g>
<!-- 切符&#45;&gt;電車 -->
<g id="edge64" class="edge">
<title>切符&#45;&gt;電車</title>
<path fill="none" stroke="#000000" stroke-width="2" d="M888.2122,-1603.6998C911.3395,-1602.5947 944.7635,-1600.9976 970.3511,-1599.775"/>
<polygon fill="#000000" stroke="#000000" stroke-width="2" points="970.612,-1603.2667 980.4335,-1599.2933 970.2779,-1596.2746 970.612,-1603.2667"/>
</g>
<!-- 回数カード&#45;&gt;現金 -->
<g id="edge68" class="edge">
<title>回数カード&#45;&gt;現金</title>
<path fill="none" stroke="#000000" d="M816.8977,-1718.8268C810.927,-1720.1374 804.8449,-1721.258 799,-1722 707.6644,-1733.5953 681.4253,-1735.9032 592,-1714 565.7381,-1707.5676 557.2138,-1705.9573 537,-1688 519.7311,-1672.6588 506.1473,-1650.2279 497.2001,-1632.5512"/>
<polygon fill="#000000" stroke="#000000" points="500.2246,-1630.7664 492.7126,-1623.2951 493.9258,-1633.8203 500.2246,-1630.7664"/>
<text text-anchor="middle" x="686" y="-1733.8" font-family="Times,serif" font-size="14.00" fill="#000000">10%</text>
</g>
<!-- 大阪地下鉄 -->
<g id="node33" class="node">
<title>大阪地下鉄</title>
<polygon fill="none" stroke="#000000" points="1051.5,-1724 963.5,-1724 963.5,-1688 1051.5,-1688 1051.5,-1724"/>
<text text-anchor="middle" x="1007.5" y="-1702.3" font-family="Times,serif" font-size="14.00" fill="#000000">大阪地下鉄</text>
</g>
<!-- 回数カード&#45;&gt;大阪地下鉄 -->
<g id="edge67" class="edge">
<title>回数カード&#45;&gt;大阪地下鉄</title>
<path fill="none" stroke="#000000" stroke-width="2" d="M905.3524,-1706C920.4126,-1706 937.4138,-1706 953.1628,-1706"/>
<polygon fill="#000000" stroke="#000000" stroke-width="2" points="953.2984,-1709.5001 963.2984,-1706 953.2983,-1702.5001 953.2984,-1709.5001"/>
</g>
<!-- ローソン&#45;&gt;Ponta -->
<g id="edge37" class="edge">
<title>ローソン&#45;&gt;Ponta</title>
<path fill="none" stroke="#000000" d="M970.7667,-504.914C909.5627,-506.437 787.2813,-509.4798 724.7586,-511.0356"/>
<polygon fill="#000000" stroke="#000000" points="724.4408,-507.5423 714.531,-511.2901 724.615,-514.5401 724.4408,-507.5423"/>
<text text-anchor="middle" x="861" y="-512.8" font-family="Times,serif" font-size="14.00" fill="#000000">1%</text>
</g>
<!-- ファミリーマート&#45;&gt;Tポイント -->
<g id="edge39" class="edge">
<title>ファミリーマート&#45;&gt;Tポイント</title>
<path fill="none" stroke="#000000" d="M977.3559,-871.0217C961.8168,-879.7547 942.3244,-889.8684 924,-897 862.9925,-920.7432 787.403,-928.1553 737.9996,-930.3351"/>
<polygon fill="#000000" stroke="#000000" points="737.7276,-926.8428 727.8696,-930.7248 737.9967,-933.8377 737.7276,-926.8428"/>
<text text-anchor="middle" x="861" y="-927.8" font-family="Times,serif" font-size="14.00" fill="#000000">0.5%</text>
</g>
<!-- 関西電力&#45;&gt;はぴeポイント -->
<g id="edge11" class="edge">
<title>関西電力&#45;&gt;はぴeポイント</title>
<path fill="none" stroke="#000000" d="M970.4286,-1820.5915C951.1329,-1814.6249 927.0293,-1807.9312 905,-1804 853.909,-1794.8826 795.2487,-1790.6546 751.5052,-1788.6942"/>
<polygon fill="#000000" stroke="#000000" points="751.4218,-1785.1877 741.2838,-1788.2651 751.1281,-1792.1816 751.4218,-1785.1877"/>
<text text-anchor="middle" x="861" y="-1807.8" font-family="Times,serif" font-size="14.00" fill="#000000">0.8%, 0.5%</text>
</g>
<!-- ウェルシア&#45;&gt;Tポイント -->
<g id="edge44" class="edge">
<title>ウェルシア&#45;&gt;Tポイント</title>
<path fill="none" stroke="#000000" d="M963.8163,-816.9355C904.7482,-841.1874 799.6116,-884.3539 736.9959,-910.0624"/>
<polygon fill="#000000" stroke="#000000" points="735.6222,-906.8427 727.7009,-913.8786 738.2809,-913.3182 735.6222,-906.8427"/>
<text text-anchor="middle" x="861" y="-881.8" font-family="Times,serif" font-size="14.00" fill="#000000">1%</text>
</g>
<!-- ビックカメラ&#45;&gt;ビックポイント -->
<g id="edge15" class="edge">
<title>ビックカメラ&#45;&gt;ビックポイント</title>
<path fill="none" stroke="#000000" stroke-dasharray="5,2" d="M991.5402,-1463.8095C973.0126,-1444.2095 940.4337,-1414.191 905,-1402 856.6342,-1385.3597 798.6273,-1386.7598 754.4666,-1391.8355"/>
<polygon fill="#000000" stroke="#000000" points="753.9037,-1388.3784 744.4101,-1393.0817 754.7647,-1395.3252 753.9037,-1388.3784"/>
<text text-anchor="middle" x="861" y="-1405.8" font-family="Times,serif" font-size="14.00" fill="#000000">9.5%</text>
</g>
<!-- ヨドバシカメラ&#45;&gt;ヨドバシゴールドポイント -->
<g id="edge41" class="edge">
<title>ヨドバシカメラ&#45;&gt;ヨドバシゴールドポイント</title>
<path fill="none" stroke="#000000" d="M949.2977,-988.5862C904.0507,-997.5933 840.1952,-1010.3049 786.701,-1020.9538"/>
<polygon fill="#000000" stroke="#000000" points="785.9641,-1017.5317 776.8399,-1022.9168 787.3308,-1024.397 785.9641,-1017.5317"/>
<text text-anchor="middle" x="861" y="-1018.8" font-family="Times,serif" font-size="14.00" fill="#000000">10%</text>
</g>
<!-- FRESCO&#45;&gt;FRESCOポイント -->
<g id="edge57" class="edge">
<title>FRESCO&#45;&gt;FRESCOポイント</title>
<path fill="none" stroke="#000000" d="M973.1002,-706.1192C958.3845,-712.9931 940.7591,-720.0986 924,-724 871.8194,-736.1472 811.5292,-739.0757 764.6862,-739.0037"/>
<polygon fill="#000000" stroke="#000000" points="764.6219,-735.5034 754.6006,-738.9419 764.5789,-742.5032 764.6219,-735.5034"/>
<text text-anchor="middle" x="861" y="-741.8" font-family="Times,serif" font-size="14.00" fill="#000000">0.5%</text>
</g>
<!-- 吉野家&#45;&gt;Tポイント -->
<g id="edge62" class="edge">
<title>吉野家&#45;&gt;Tポイント</title>
<path fill="none" stroke="#000000" d="M977.97,-1529.371C966.5277,-1523.4066 953.4512,-1516.2211 942,-1509 883.6519,-1472.2058 850.9114,-1477.0694 817,-1417 728.5772,-1260.3711 861.3795,-1174.4013 780,-1014 767.675,-989.7071 744.942,-969.3331 724.9196,-954.8506"/>
<polygon fill="#000000" stroke="#000000" points="726.7476,-951.8584 716.5427,-949.0103 722.7441,-957.6006 726.7476,-951.8584"/>
<text text-anchor="middle" x="861" y="-1492.8" font-family="Times,serif" font-size="14.00" fill="#000000">0.5%</text>
</g>
<!-- Amazon&#45;&gt;Amazonポイント -->
<g id="edge49" class="edge">
<title>Amazon&#45;&gt;Amazonポイント</title>
<path fill="none" stroke="#000000" d="M970.3218,-272.0932C919.658,-279.4257 827.7405,-288.7321 762.13,-293.4978"/>
<polygon fill="#000000" stroke="#000000" points="761.5655,-290.0288 751.8361,-294.2227 762.0573,-297.0115 761.5655,-290.0288"/>
</g>
<!-- じゃらん&#45;&gt;Ponta -->
<g id="edge48" class="edge">
<title>じゃらん&#45;&gt;Ponta</title>
<path fill="none" stroke="#000000" d="M970.4385,-413.8455C951.1455,-422.8243 927.0412,-433.5623 905,-442 842.7492,-465.8306 768.5252,-488.3571 724.437,-501.1406"/>
<polygon fill="#000000" stroke="#000000" points="723.3421,-497.8136 714.7028,-503.9465 725.281,-504.5397 723.3421,-497.8136"/>
<text text-anchor="middle" x="861" y="-476.8" font-family="Times,serif" font-size="14.00" fill="#000000">2%</text>
</g>
</g>
</svg>
